<?xml version="1.0" encoding="UTF-8"?>
<svg id="Layer_2" data-name="Layer 2" xmlns="http://www.w3.org/2000/svg" xmlns:xlink="http://www.w3.org/1999/xlink" viewBox="0 0 1674 2554">
  <defs>
    <style>
      .cls-1 {
        fill: url(#linear-gradient);
      }

      .cls-1, .cls-2, .cls-3, .cls-4, .cls-5, .cls-6, .cls-7, .cls-8, .cls-9, .cls-10, .cls-11, .cls-12, .cls-13, .cls-14, .cls-15, .cls-16, .cls-17, .cls-18, .cls-19, .cls-20, .cls-21, .cls-22, .cls-23, .cls-24, .cls-25 {
        stroke-width: 0px;
      }

      .cls-2 {
        fill: #56626e;
      }

      .cls-3 {
        fill: #f07b31;
      }

      .cls-26 {
        mask: url(#mask-2);
      }

      .cls-4 {
        fill: #faa283;
      }

      .cls-5 {
        fill: #5e302c;
      }

      .cls-6 {
        fill: none;
      }

      .cls-7 {
        fill: #fefefe;
      }

      .cls-8 {
        fill: #fdd382;
      }

      .cls-9 {
        fill: #ad623e;
      }

      .cls-10 {
        fill: #db4c35;
      }

      .cls-11 {
        fill: #354c5a;
      }

      .cls-12 {
        fill: #748797;
      }

      .cls-13 {
        fill: url(#linear-gradient-2);
      }

      .cls-14 {
        fill: #c13846;
      }

      .cls-15 {
        fill: #ef907c;
      }

      .cls-16 {
        fill: url(#linear-gradient-3);
      }

      .cls-27 {
        clip-path: url(#clippath);
      }

      .cls-17 {
        fill: #290f09;
      }

      .cls-18 {
        fill: #e75437;
      }

      .cls-19 {
        fill: #002036;
      }

      .cls-28 {
        filter: url(#luminosity-noclip);
      }

      .cls-29 {
        mask: url(#mask-1);
      }

      .cls-30 {
        mask: url(#mask);
      }

      .cls-20 {
        fill: #217abe;
      }

      .cls-21 {
        fill: #206188;
      }

      .cls-22 {
        fill: #fcba4b;
      }

      .cls-31 {
        filter: url(#luminosity-noclip-2);
      }

      .cls-23 {
        fill: #063340;
      }

      .cls-32 {
        filter: url(#luminosity-noclip-3);
      }

      .cls-24 {
        fill: #9cb6c7;
      }

      .cls-25 {
        fill: #eef0e0;
      }
    </style>
    <clipPath id="clippath">
      <rect class="cls-6" width="1674" height="2554"/>
    </clipPath>
    <filter id="luminosity-noclip" x="181.18" y="1297.44" width="355.31" height="387.94" color-interpolation-filters="sRGB" filterUnits="userSpaceOnUse">
      <feFlood flood-color="#fff" result="bg"/>
      <feBlend in="SourceGraphic" in2="bg"/>
    </filter>
    <linearGradient id="linear-gradient" x1="127.77" y1="1391.94" x2="452.2" y2="1531.6" gradientUnits="userSpaceOnUse">
      <stop offset=".3" stop-color="#fff"/>
      <stop offset=".51" stop-color="#858383"/>
      <stop offset=".68" stop-color="#231f20"/>
    </linearGradient>
    <mask id="mask" x="181.18" y="1297.44" width="355.31" height="387.94" maskUnits="userSpaceOnUse">
      <g class="cls-28">
        <rect class="cls-1" x="181.18" y="1297.44" width="355.31" height="387.94"/>
      </g>
    </mask>
    <filter id="luminosity-noclip-2" x="192.36" y="1429.24" width="172.69" height="313.33" color-interpolation-filters="sRGB" filterUnits="userSpaceOnUse">
      <feFlood flood-color="#fff" result="bg"/>
      <feBlend in="SourceGraphic" in2="bg"/>
    </filter>
    <linearGradient id="linear-gradient-2" x1="89.28" y1="1521.45" x2="403.54" y2="1628.38" xlink:href="#linear-gradient"/>
    <mask id="mask-1" x="192.36" y="1429.24" width="172.69" height="313.33" maskUnits="userSpaceOnUse">
      <g class="cls-31">
        <rect class="cls-13" x="192.36" y="1429.24" width="172.69" height="313.33"/>
      </g>
    </mask>
    <filter id="luminosity-noclip-3" x="176.21" y="1607.04" width="295.68" height="274.79" color-interpolation-filters="sRGB" filterUnits="userSpaceOnUse">
      <feFlood flood-color="#fff" result="bg"/>
      <feBlend in="SourceGraphic" in2="bg"/>
    </filter>
    <linearGradient id="linear-gradient-3" x1="174.01" y1="1894.03" x2="417" y2="1651.76" xlink:href="#linear-gradient"/>
    <mask id="mask-2" x="176.21" y="1607.04" width="295.68" height="274.79" maskUnits="userSpaceOnUse">
      <g class="cls-32">
        <rect class="cls-16" x="176.21" y="1607.04" width="295.68" height="274.79"/>
      </g>
    </mask>
  </defs>
  <g id="Layer_1-2" data-name="Layer 1">
    <g class="cls-27">
      <g>
        <polygon class="cls-25" points="1677.99 -4.99 1677.99 2183.87 621.83 2087.28 4.43 2077.11 -2.99 2077.61 -2.99 -4.99 1677.99 -4.99"/>
        <rect class="cls-19" x="-2.99" y="1996.53" width="1684.96" height="578.41"/>
        <g>
          <g>
            <path class="cls-3" d="M346.63,1758.07c0,.21-.02.41-.08.61-.91,1.95-1.44,3.97-1.72,6.03.29-2.07.81-4.08,1.72-6.03.05-.2.08-.4.08-.61Z"/>
            <polygon class="cls-3" points="371.02 1518.64 370.93 1518.11 371.02 1518.64 371.02 1518.64"/>
            <path class="cls-3" d="M406.56,1925.98c.82-.87,1.81-1.58,2.95-2.15-1.14.57-2.13,1.28-2.95,2.15Z"/>
            <path class="cls-3" d="M383.23,1523.28c-1.05.32-1.8.77-2.34,1.33.54-.56,1.29-1.01,2.34-1.33h0Z"/>
            <polygon class="cls-3" points="573.07 776.91 573.26 777.06 573.06 776.91 573.07 776.91"/>
            <path class="cls-3" d="M556.94,758.79c-.33-.39-.66-.79-.99-1.18-10.37-13.63-23.62-24.71-34.29-38.09,10.66,13.39,23.92,24.47,34.29,38.09.33.4.66.79.99,1.18Z"/>
            <path class="cls-3" d="M571.38,775.18l.03.03-.06-.06s.02.02.03.03Z"/>
            <path class="cls-3" d="M1603.08,1596.22c-1.86,1.29-3.07,2.82-3.89,4.51.82-1.68,2.03-3.22,3.89-4.51Z"/>
            <path class="cls-3" d="M401.54,1079.79c4.4-6.43,10.31-7.22,16.34-6.87-6.04-.35-11.94.44-16.34,6.87-.97.6-1.64,1.65-2.5,2.43.85-.78,1.52-1.83,2.5-2.43Z"/>
            <path class="cls-3" d="M352.14,1075.42c-2.44.98-4.49,2.73-5.51,5.93-1.85,2.43-2.12,5.17-2.13,7.96.01-2.79.28-5.53,2.13-7.96,1.02-3.2,3.07-4.95,5.51-5.93Z"/>
            <path class="cls-3" d="M403.26,811.25c-2.63-.98-2.35-2.37-1.62-3.7-.74,1.33-1.01,2.73,1.62,3.7.31,1.68,1.41,2.65,2.65,3.49-1.24-.84-2.34-1.81-2.65-3.49Z"/>
            <path class="cls-3" d="M1560.95,1592.38c-9.17-.19-18.39,1.06-27.6,1.98-3.06-.91-6.08-1.65-9.03-1.76,2.95.12,5.98.86,9.03,1.76,9.21-.92,18.43-2.17,27.6-1.98Z"/>
            <path class="cls-3" d="M1600.84,1440.61c-.43,1.13-.86,2.25-1.3,3.37,0,0,0,0,0,0,.43-1.12.86-2.25,1.3-3.37,1.89,2.02,3.62,3.94,6.25,4.76-2.63-.82-4.36-2.74-6.25-4.76Z"/>
            <path class="cls-3" d="M1425.36,1593.37c12.16-.09,24.33-.19,36.49-.28-12.16.09-24.33.19-36.49.28-6.86.28-13.91-1.4-20.8-1.36,6.89-.04,13.94,1.64,20.79,1.36Z"/>
            <path class="cls-3" d="M674.06,601.07c-.29,3.73-.37,7.47-.55,11.21-1.3,1.28-1.73,2.55-1.7,3.78-.03-1.24.39-2.5,1.7-3.78.18-3.74.27-7.48.55-11.21Z"/>
            <path class="cls-3" d="M1674.25,1707.45c-1.6-.99-3.64-1.54-6.11-1.55-.36-.63-.73-1.12-1.1-1.49.37.37.74.86,1.1,1.49,2.47,0,4.51.55,6.11,1.55Z"/>
            <path class="cls-3" d="M1599.49,1256.85c-1.55,1.14-2.15,2.42-2.31,3.77.16-1.35.76-2.63,2.31-3.77Z"/>
            <path class="cls-3" d="M1251.49,1078.01c.14-.34.3-.65.46-.95-.16.3-.32.61-.46.95Z"/>
            <path class="cls-3" d="M130.25,1596.14c-.17-2.12.64-2.83,1.74-3.03-1.1.2-1.91.91-1.74,3.03-2.13,0-4.28.54-6.41.68,2.13-.14,4.29-.67,6.42-.68Z"/>
            <path class="cls-3" d="M1038.94,606.94c-4.05.96-7.26,2.98-9.74,5.63,2.48-2.65,5.7-4.67,9.74-5.63h0Z"/>
            <path class="cls-3" d="M46.25,1592.4c-3.59.04-7.18,1.29-10.77,3.63-.92,0-1.84,0-2.76.01.92,0,1.84,0,2.76-.01,3.59-2.34,7.18-3.59,10.77-3.63Z"/>
            <path class="cls-3" d="M-42.54,1452.21h0c19.85-.04,39.71-.05,59.56-.14-19.85.08-39.71.1-59.56.14Z"/>
            <path class="cls-3" d="M108.11,1396.46c-1.68,3.28-3.4,6.54-5.27,9.69,1.87-3.15,3.6-6.41,5.27-9.69h0Z"/>
            <path class="cls-3" d="M14.36,1257.09c-1.77.32-3.41,1.1-4.7,2.93-2.43.44-4.56,1.42-6.54,2.63,1.98-1.22,4.11-2.19,6.54-2.63,1.3-1.83,2.93-2.61,4.7-2.93Z"/>
            <path class="cls-3" d="M1256.96,1073.85c-1.89.27-3.67.98-4.83,2.83,1.17-1.85,2.94-2.56,4.83-2.83Z"/>
            <path class="cls-3" d="M1303.26,1517.12c-6.76,1.09-7.09,5.05-8.21,18.2-1.35-1.23-1.58-2.81-1.57-4.45,0,1.65.22,3.22,1.58,4.46,1.12-13.16,1.45-17.12,8.21-18.21Z"/>
            <path class="cls-3" d="M1270.38,1754.15c-4.84-3.15-10.29-3.33-15.4-.44,5.11-2.88,10.57-2.71,15.4.44Z"/>
            <path class="cls-3" d="M335.33,1914.06c.56-.94,1.13-1.88,1.69-2.82.37,3.05.58,6.09.72,9.14-.13-3.05-.34-6.1-.72-9.15h0c-.56.95-1.13,1.89-1.69,2.83Z"/>
            <path class="cls-3" d="M1342.04,1058.11l1.03-2.62c.24-1.22.42-2.44.6-3.66-.18,1.22-.37,2.44-.6,3.66-.34.87-.69,1.75-1.03,2.62Z"/>
            <path class="cls-3" d="M1282.98,1759.41c.09-.04.19-.05.28-.08-.09.03-.2.04-.28.08Z"/>
            <path class="cls-3" d="M1155.23,733.9c-.36.32-.54.83-.63,1.43-1.67,1.32-3.45,2.53-5.07,3.89,1.62-1.37,3.41-2.57,5.07-3.89.09-.6.27-1.11.63-1.43Z"/>
            <path class="cls-3" d="M1281.47,1760.52c.39-.43.84-.78,1.38-1.04-.54.26-.99.61-1.38,1.04Z"/>
            <path class="cls-3" d="M398.01,1760c-.1-2.45.8-4.16,2.15-5.28-1.35,1.12-2.25,2.82-2.15,5.28Z"/>
            <path class="cls-3" d="M337.26,1909.3c.09-3.05-1.73-3.89-4.79-4.01,3.06.12,4.88.95,4.79,4.01Z"/>
            <polygon class="cls-3" points="574.83 778.62 574.97 778.82 574.83 778.62 574.83 778.62"/>
            <path class="cls-3" d="M1353.63,1163.3c0-24.53.13-49.06-.08-73.58.2,24.53.08,49.06.08,73.58,0,25.11-.04,50.21.05,75.32-.09-25.11-.05-50.21-.05-75.32Z"/>
            <path class="cls-3" d="M450.52,1763.1c-.04.94-.23,2-.6,3.21h0c.37-1.21.56-2.27.6-3.21Z"/>
            <path class="cls-3" d="M1424.05,1208.71c-.08,2.63-.71,3.9-1.69,4.31.98-.41,1.62-1.68,1.69-4.31,1.35-1.73,1.68-3.06,1.42-4.13.26,1.08-.07,2.41-1.42,4.13Z"/>
            <path class="cls-3" d="M271.42,1457.4c-1.19-.04-2.4-.3-3.65-.86-3.95-2.01-7.92-2.67-11.9-2.63,3.98-.04,7.95.62,11.9,2.63,1.25.56,2.46.82,3.65.86Z"/>
            <path class="cls-3" d="M49.66,1455.89h0c-6.96,1.18-9.03,5.64-9.56,11.01.54-5.37,2.61-9.83,9.56-11.01Z"/>
            <path class="cls-3" d="M82.64,1046.78c-2.73-2.95-5.99-4.83-10.92-1.62-1.41-.08-2.82-.12-4.23-.26,1.4.13,2.82.17,4.23.26,4.92-3.21,8.19-1.34,10.92,1.61Z"/>
            <path class="cls-3" d="M58.57,976.27c.46-1.41,1.04-2.79,1.63-4.17-.59,1.38-1.18,2.76-1.63,4.17Z"/>
            <path class="cls-3" d="M449.38,1170.11c-.18-5.33,2.25-6.04,5.02-5.54v-6.4c-1.88-1.21-3.53-2.76-4.71-5.01-.3,1.7,0,4.04-1.01,4.98-4.8,4.47-1.53,8.12.7,11.98Z"/>
            <path class="cls-18" d="M1656.55,1452.31c-14.34-.16-27.88,4.4-41.87,6.29-21.17-.07-42.35-.23-63.51-.19-35.75.06-71.49.29-107.24.35-4.66,0-9.21.12-13.39,2.48-1.46,2.29-2.39,4.71-2.97,7.2-.98,4.14-1,8.48-1.04,12.74-.22,26.82-.2,53.63-.15,80.44.04,18.19,4.23,22.16,22.2,22.58,33.63.78,67.22-.9,100.86-.43,59.91.84,119.84.33,179.76.38v-131.64c-24.21-.04-48.44.08-72.65-.2ZM1453.06,1558.27c-1.57,1.61-1.41,5.54-5.35,3.92-5.54-2.29-15.53-19.39-14.84-26.49,5.96,6.81,11.71,13.05,19.63,16.59,3.48,1.56,2.78,3.73.56,5.97ZM1531.74,1515.3c-.32,5.28-3.75,8.44-9.14,8.12-5.47-.34-8.13-4.09-8.12-9.27.02-5.43,3.4-8.15,8.21-8.77,6.07.92,9.4,4.22,9.05,9.92Z"/>
            <path class="cls-18" d="M1723.97,1287.09c-12.77-10.16-25.79-19.96-39.91-28.26-3.52-2.06-6.72-2.91-10.52-1.88-3.24,2.57-7.12,1.63-10.7,1.68-19.56.23-39.11.25-58.67.28-1.75,0-4.24,1.17-4.68-2.05-1.54,1.15-2.15,2.42-2.31,3.78-.05.45-.05.91-.02,1.37.03.46.09.93.16,1.4.04.24.08.47.12.71.09.47.18.94.25,1.42.11.7.2,1.4.19,2.08,2.29,5.81,1.36,11.93,1.39,17.89.17,48.68.15,97.34.27,146.02.01,3.04-1.11,6.36,1.32,9.09h0c.18.2.36.39.53.58l.18.18c.47.49.93.98,1.41,1.43.21.2.43.4.66.59h.01s0,.02,0,.02c.01,0,.01,0,.02,0h.01s0,.02.03.03h0c.12.11.25.21.38.31.13.1.26.2.39.29.26.19.53.37.81.53.57.33,1.17.6,1.82.81.89.27,1.86.43,2.98.42,39.72-.23,79.43-.17,119.13-.2v-155.89c-2.21.08-3.65-1.35-5.23-2.6ZM1692.39,1345c-.72,2.53-2.88,3.99-5.02,4.15-5.4.4-10.2.36-12.82,6.9-1,2.48-5.71,1.97-7.84-1.42-1.93-3.08-.58-7.01,1.99-7.03,12.57-.12,6.48-7.49,5.6-12.95-.12-.75.34-1.59,1.16-5.06,3.44,8.35,7.93,12.93,15.56,12.69.97-.03,1.74,1.4,1.37,2.71Z"/>
            <path class="cls-3" d="M1345.08,1087.67c-.14-6.85-2.24-12.62-10.78-12.51-6.14,3.34-12.85,2.18-19.32,2.22-18.11.11-36.21-.14-54.32-.29-3.17-.03-6.32-.22-9.29,1.21-2.8,1.1-5.59,2.2-8.39,3.31-5.11,4.76-1.76,10.59-1.76,15.85-.09,129.3-.06,258.6.14,387.91,0,6.61-1.06,12.4-5.38,17.42,4.1,3.17,8.97,3.42,13.8,3.44,26.23.11,52.46.21,78.69.12,13.39-.04,16.64-3.52,16.65-17.11.04-121.16.06-242.33.08-363.49,0-12.7.14-25.39-.12-38.08ZM1271.48,1139.78c-.24-2.71,1.66-5.22,4.73-4.83,3.23.41,5.89,2.21,6.19,6.02-.22,2.9-1.77,5.47-4.44,5.5-3.89.04-6.15-3.1-6.48-6.7ZM1296.34,1216.88c.06,7.26-4.64,12.09-11.13,11.97-5.56-.1-11.38-6.71-10.84-12.37.21-2.14.74-4.21,3.6-3.46,3.62.95,7.12-.6,9.97-1.77,7.09-2.88,8.63,0,8.4,5.62ZM1330.78,1103.59c-4.43.48-7.32-2.51-7.47-6.56-.13-3.44.36-7.91,5.75-7.8,4.83.1,6.92,3.44,8.26,7.55-.3,4.07-2.85,6.42-6.54,6.81Z"/>
            <path class="cls-18" d="M449.45,1487.02c.37-85.82.57-171.63.79-257.44.05-16.98.05-33.98-.03-50.96-.02-2.84-.54-5.67-.82-8.52-2.23-3.85-5.51-7.51-.71-11.98,1.01-.94.71-3.28,1.01-4.98.18-21.7.32-43.41.56-65.11.04-3.17-.95-4.94-4.39-4.48-2.06,2.13-4.12,4.26-6.18,6.39-.49-.29-1.09-.47-1.45-.88-13.22-14.84-15.63-15.44-34.58-8.65-.56.2-1.41-.41-2.11-.64-.98.6-1.64,1.65-2.49,2.42-.29.26-.6.49-.94.67-.46.23-.99.36-1.61.33-.52-1.61-1.04-3.22-1.55-4.83-16.17-.07-32.48-2.52-48.31,2.96-1.86,2.43-2.12,5.17-2.13,7.96,0,.94.02,1.87.02,2.81.02,49.62.02,99.25.03,148.87,0,85.12.15,170.23-.14,255.34-.02,8.23,2.55,10.13,10.3,9.94,21.03-.51,42.09-.17,63.13-.18,3.99,0,7.55-.64,11.46-2.42,3.96-1.81,10.94-6.19,13.11-2.44,3.77,6.52,7.74,4.24,11.98,3.31v-1.79c-3.43-4.57-4.97-9.69-4.95-15.73ZM412.25,1096.48c4.29-.14,6.81,2.52,7.86,6.92-1.35,3.77-3.39,7.41-8.07,7.35-3.87-.06-6.36-2.7-6.36-6.76-.01-4.26,2.06-7.36,6.57-7.51ZM393.35,1272.68c-4.5,3.92-8.75,3.71-12.85-.41-4.96-4.96-4.88-12.73.08-18.64q6.11-7.27,7.47-14.14c1.25,5.56,3.35,10.6,6.86,15.18,5.26,6.87,4.49,12.76-1.55,18.01ZM428.59,1417.43c-.96,3.21-3.78,1.43-5.85,1.01-6.33-1.28-12.55-.93-18.76.8-5,1.39-7.7-.06-7.49-5.8.25-6.53.06-13.07.06-19.61,5.61,10.13,11.14,18.39,23.88,17.7,1.33-.07,2.7.92,4.07,1.37,2.26.75,4.93,1.75,4.1,4.54Z"/>
            <path class="cls-3" d="M1588.93,1279.57c-.02-14.48-16.43-26.67-30.72-23.9-10.6,2.05-12.91,10.01-15.34,18.66-.15-4.63-1.22-8.79-2.59-12.87-1.88-5.56-5.41-7.99-11.64-8.08-55.56-.77-111.17,1.79-166.7-1.83-6.35-.41-8.5,1.52-8.47,8.14.25,59.72.26,119.43.09,179.14-.02,6.19,1.37,8.64,8.12,8.54,25.94-.4,51.88-.24,77.82-.19,4.97,0,9.79-.86,14.38-2.47,12.04-4.25,13.69-10.69,5.65-20.44-1.04-1.26-1.45-3.01-2.16-4.54-.23-.28-.46-.56-.69-.85.3.22.6.43.89.64,6.02,4.75,11.79,5.26,17.44,3.53,3.39-1.04,6.73-2.88,10.05-5.1,2.39-1.6,4.85-3.1,7.2-4.76,2.63-1.84,4.04-2.43,5.17,1.81,4.56,17.17,18.82,25.06,33.5,30.22,17.07,6,30.46-3.91,41.77-15.72,7.16-7.48,16.42-13.61,16.33-26.17-.29-41.26-.02-82.51-.11-123.76ZM1476.92,1345.01c-.36,4.14-3.19,7.01-7.53,6.71-4.23-.3-5.49-3.69-5.46-7.5.04-4.09,1.98-6.48,5.97-6.65,4.59.63,7.39,3.06,7.02,7.44Z"/>
            <path class="cls-3" d="M337.71,1272.67c0-13.11-4.13-17.35-17.48-17.5-14.69-.16-29.38-.04-44.07-.17-4.73-.04-9.15.76-13.15,3.34-23.52.16-47.02.25-70.53.49-20.07.21-40.15.6-60.21.91-10.9,5.01-12.5,14.58-12.48,25.1.07,46.43.07,92.86.05,139.29,0,4.36.3,8.61,1.69,12.77,1.33,3.93,3.88,6.4,7.96,7,4.82.7,9.68,1.66,14.52,1.68,36.02.18,72.03.14,108.05.18,11.49,0,20.2-5.35,27.17-14.09,1.9-2.38,3.29-5.37,6.57-5.91,1.64.71,1.46,1.97,1.52,3.07.69,11.85.7,11.95,12.22,10.18,2.92-.45,4.98.38,6.99,2.25,7.61,7.06,16.9,3.9,25.6,3.98,2.61.02,3.71-2.35,3.95-4.9.5-5.43,1.5-10.85,1.51-16.28.14-50.46.11-100.92.11-151.39ZM214.31,1332.61c-5.67.11-10.81-.14-15.15,5.6-2.43,3.22-6.75-2.51-10.59-3.03-1.32-.18-2.56-.95-3.84-1.46,6.92-2.36,13.17-4.04,15.78-11.41.46-1.3,2.61-3.05,2.93-1.9,2.14,7.7,12.46,2.54,14.46,9.51.57,1.96-1.76,2.64-3.6,2.68ZM230.5,1373.18c-3.52-.09-3.93-2.92-3.95-5.55-.01-2.65,1.54-4.49,4.24-4.46,3.02.04,4.66,1.88,4.68,5.1-.72,2.53-1.76,5.01-4.98,4.92ZM289.23,1377.01c-.19,2.68-.61,5.76-4.03,5.28-3.6-.52-7.2-2.04-7.65-6.61-.39-4.06,2.16-4.75,5.67-4.51,3.95-.33,6.32,1.33,6.01,5.84Z"/>
            <path class="cls-3" d="M297.15,1465.07c0-2.01-.28-3.74-.81-5.19-1.45-1.95-4.34-2.4-7.35-2.69-4.37-.41-8.5,1.1-12.74,1.7-2.86.4-6.48,1.33-8.48-2.35-3.95-2.01-7.92-2.67-11.9-2.63-3.41.04-6.83.59-10.25,1.24-1.71.33-3.42.68-5.13,1.02-3.1,2.22-6.69,1.39-10.05,1.4-57.66.12-115.33.18-172.99.15-2.62,0-5.83,1.47-7.77-1.83,0,0,0,0,0,0-6.96,1.18-9.03,5.64-9.56,11.01-.12,1.24-.17,2.53-.17,3.84-.04,32.3-.1,64.6.08,96.89.09,16.44-2.54,15,15.47,15.04,65.41.11,130.81-.02,196.22.11,10.33.02,20.67,1.36,30.99,1.2,12.16-.19,15.88-4.14,15.56-15.2-.66-23.05,0-46.14-.21-69.21-.1-11.5,1.04-23.04-.89-34.5Z"/>
            <path class="cls-3" d="M1405.01,1047.32c4.75-2.98,7.96-2.04,10.97-2.05,40.84-.1,81.7.52,122.52-.37,20.7-.45,41.3-1.59,62,.16,9.17.78,18.44.19,27.67.1,2.28-.02,5.07-.23,4.91-3.43-.12-2.53-2.53-2.82-4.58-2.91-2.3-.1-4.61.06-6.92-.06-30.75-1.72-61.43,1.61-92.25.47-43.2-1.61-86.49-.4-129.73-.66-6.01-.04-7.92,1.77-7.9,7.88.19,62.33.09,124.67.13,187,.01,10.76,2.31,13.04,13.44,12.85,18.41-.31,36.83-1.29,55.23-1.35,67.19-.24,134.37-.2,201.55-.36,2.27,0,5.09,1.44,7.2-1.79-85.98-67.56-173.35-133.06-264.24-195.48ZM1424.06,1208.71c-.08,2.63-.72,3.9-1.69,4.31-.57.23-1.24.19-1.99-.03-.94-.29-1.98-.85-3.08-1.52-4.09-1.75-5.71-5.01-4.07-8.98,1.32-3.16,4.56-3.33,7.38-1.93.62.31,1.26.62,1.85.96.41.22.79.45,1.15.7.54.38,1.01.79,1.35,1.25.11.16.21.32.3.49.1.2.17.41.22.62.27,1.08-.07,2.4-1.41,4.14ZM1514.5,1193.3c-4.65-4.02-6.73-10.56-13.96-9.57-1.16.15-2.47-.73-2.16-2,.21-.89,1.37-1.96,2.28-2.18,4.99-1.17,10.04-.52,13.84,2.81,3.12,2.73,2.37,6.71,0,10.95Z"/>
            <path class="cls-3" d="M42.35,1437.25c7.46-7.97,14.71-16.27,19.85-25.92,2.96-5.56,4.68-5.74,8.97-1.39,8.2,8.31,12.97,8.09,22.18.66,1.48-1.19,2.82-2.5,4.07-3.88,3.77-4.13,6.79-8.89,10.58-12.98h0c1.38-1.32,1.59-2.88,1.55-4.48,0-.32-.03-.64-.05-.96-.04-.64-.09-1.28-.09-1.9.03-38.85-.19-77.71.13-116.56.07-8.48-2.21-11.31-11.16-11.07-25.57.68-51.16.21-76.75.31-4,.01-7.99.62-11.99.95-2.43.44-4.56,1.42-6.54,2.63-.66.41-1.31.84-1.94,1.29-2.54,1.8-4.92,3.87-7.54,5.52-4.68,2.96-9.07,6.33-13.45,9.72-1.82,1.41-3.64,2.84-5.48,4.24-5.5,4.2-11.13,8.22-17.39,11.33.07,9.95.13,19.91.2,29.86,6.77-.55,10.04-7.24,16.61-9.37-.54,4.05-.68,7.82-.21,11.74.68,5.75-5.37,5.44-8.99,5.48-2.22.02-4.83-1.38-7.42-1.48-.03,38.32-.05,76.64-.08,114.96,21.02-.1,42.04-.16,63.06-.3,8.3-.06,16.02-2.14,21.86-8.38Z"/>
            <path class="cls-3" d="M1346.26,1976.69c-1.32-7.19-1.16-14.31-1.16-21.47-.02-62.5.02-125,.05-187.5,0-3.74.17-7.52-2.89-10.42-18.72-.81-37.45-.68-56.17.07-.71.59-1.41,1.17-2.12,1.76-.27.04-.49.12-.72.2-.09.03-.2.04-.29.08-.04.02-.07.05-.12.07-.13.06-.26.13-.39.21-.25.15-.47.33-.69.52-.1.1-.2.2-.3.31-.21.23-.41.48-.6.74-.76,1.03-1.39,2.19-2.42,3-1.48-1.58-.29-4.66-3.03-5.43-.47-.48-.94-.97-1.41-1.46-6.87-1.1-13.75-3.54-20.62.14-.05,0-.77-1.26-1.18-1.91-1.94-.66-3.9-1.32-5.84-1.97-1.95,4.92-5.37,8.93-5.34,14.97.27,65.77.07,131.55.28,197.32.03,9.02.71,17.83-5.98,24.77v3.2c1.81,1.63,4.59.4,6.84.75,10.56,1.6,20.83-1.88,31.66-.96,19.96,1.72,40.2,2.27,60.22-.41,9.63-1.29,13.93-7.08,12.2-16.56ZM1320.16,1831.13c-.3,3.25-2.78,4.77-6.02,4.97-3.36-.36-4.01-2.66-3.81-5.5.2-2.92,1.54-5.13,4.65-5.02,3.28.12,5.47,2.21,5.17,5.55Z"/>
            <path class="cls-3" d="M450.18,1974.81c.2-21.28.16-42.56.16-63.85,0-21.57.56-43.16-.22-64.7-.76-21,2.87-42-.41-62.97-1.87-.84-.11,4.82-3.21,1.81-1.03-1.01-2.1-1.97-3.06-3.04-2.61-2.88-7.52-4.92-6.14-9.56,1.23-4.11,6.05-3.64,9.61-4.55,1.07-.28,2.01-1.07,3.01-1.63.37-1.21.56-2.27.6-3.21.04-.94-.08-1.76-.33-2.45-.08-.22-.18-.42-.28-.62-.03-.06-.05-.12-.08-.18-.69-1.24-1.86-2.05-3.33-2.59-1.46-.54-3.21-.8-5.05-.9-8.52-.46-17.08-.19-25.61-.51-2.39-.08-4.74-.08-7.03.17-3.82.42-7.45,1.51-10.8,3.98-1.09,1.84-2.17,3.66-3.27,5.5-.52.07-1.36.39-1.52.18-10.53-13.27-24.89-8.27-38.21-7.99-2.82.06-5.63.66-8.44,1.01-.92,1.94-1.44,3.96-1.72,6.03-.1.69-.17,1.38-.22,2.07-.06.94-.08,1.87-.08,2.82,0,67.97-.03,135.95,0,203.92,0,9.34,5.06,15.84,14.19,17.79,5.3,1.14,10.8,1.77,16.21,1.83,21.29.22,42.6-.04,63.89.23,2.01.03,3.95-.08,5.81-.37,3.12-.49,6.04-1.51,8.83-3.32-2.6-4.63-3.34-9.58-3.29-14.89ZM357.28,1796.78c-4.42.38-5-2.9-5.31-7.18-.35-2.76,1.17-4.42,4.95-4.29,3.96.14,5.95,2.35,5.94,5.92-.02,3.27-2.41,5.28-5.58,5.54ZM414.3,1946.1c-1.96.08-3.64-.1-5.03-.55-4.17-1.33-5.87-4.98-5.67-10.53-.06-3.86.96-6.9,2.97-9.04.82-.88,1.81-1.59,2.95-2.14.97-.49,2.03-.87,3.22-1.13.87-.19,1.79-.32,2.77-.38,4.78-.32,10.55,6.62,10.34,12.7-.26,7.35-4.34,10.75-11.55,11.07Z"/>
            <path class="cls-18" d="M450.05,1535.72c-.02-12.97-.66-13.56-12.99-15.29-3.96-.56-8.01-.49-12.02-.71-10.7,6.42-11.14,18.09-14.27,29.5-5.44-7.31-9.38-13.19-1.47-20.5,2.7-2.49,5.54-5.95,4.6-10.53-9.7,1.7-19.72.86-29.3,3.62-.46.49-.92.98-1.38,1.47-1.05.32-1.8.77-2.34,1.33-.26.27-.46.57-.63.89-.18.33-.34.68-.45,1.05-.71,2.41-.11,5.51-1.66,7.88-1.15-5.59,1.6-12.48-6.14-14.62-.49-.26-.82-.65-.98-1.17,0,0-.09-.52-.09-.52h-.53c-10.04-1.89-17.35,3.82-24.87,8.93-.97,1.08-1.09,2.31-1.05,3.55,0,.25.02.5.04.75.03.5.07,1,.07,1.49-.03,58.89.35,117.78-.3,176.66-.18,16.42,10.18,24.58,22.2,27.42,20.59,4.87,41.6,6.32,62.57,4.7.97-.08,1.97-.13,2.99-.19,7.14-.42,15.21-1.02,18.9-9.74-.27-4.58-.76-9.15-.77-13.73-.06-60.75,0-121.49-.11-182.24Z"/>
            <path class="cls-3" d="M1332.58,1518.21c-9.44.57-18.87,1.24-28.32,1.65-5.88.26-5.34,4.66-6.33,8.5-.61,2.36,2.94,6.76-2.89,6.97-1.36-1.23-1.58-2.8-1.57-4.46.01-.82.07-1.67.08-2.49.01-.82-.03-1.64-.24-2.39-.27-1.01-.83-1.94-1.94-2.69-7.72-5.07-16.42-2.55-24.71-3.15-3.35-.24-6.72-.14-10.07-.19-3.07.58-6.15,1.17-9.22,1.75-4.96,3.39-6.26,8.09-6.24,14.01.19,59.55-.15,119.09.42,178.63.08,8.28-1.34,14.92-6.2,20.22v5.74c3.11.91,6.35,1.18,9.52,1.2,28.53.23,57.07.27,85.6.07,9.38-.06,14.35-5.23,14.38-14.68.17-65.2.24-130.4.21-195.6,0-7.98-3.64-13.19-12.48-13.07ZM1270.63,1666.37c-4.94,2.81-11.24-5.87-10.03-13.54.81-5.13,8.87-10.91,15.06-10.14,5.32.66,4.88,5.34,5.2,9.22.56,7.62-4.9,11.43-10.22,14.46Z"/>
            <path class="cls-3" d="M255.7,1074.32c-2.19-1.04-3.61,1.23-5.14,2.36-34.36,25.53-68.75,51.01-103,76.68-21.84,16.37-43.43,33.07-65.19,49.54-17.36,13.14-35.76,24.93-51.84,40.52,14.75,1.92,29.38,2.46,43.81,2.43,26.38-.06,52.78.3,79.18-.74,26.48-1.04,53.02-.21,79.53-.27,3.44,0,6.94-.02,10.31-.65,10.51-1.94,13.29-4.8,13.35-15.61.25-49.6.25-99.22.27-148.82,0-1.87.95-4.4-1.29-5.46ZM183.16,1206.19c-.68,1.51-.94,3.48-2.28,4.37-.46.29-1.03.47-1.78.46-2.68,0-2.29-2.94-3.46-4.43-2.78-1.33-5.38-2.89-3.09-6.46,1.63-2.54,4.47-2.55,7.01-2.01,1.17.25,2.04.65,2.67,1.17,1.89,1.55,1.64,4.17.93,6.91ZM211.79,1196.56c-2.14.08-3.73-1.44-3.7-3.92.03-2.66,1.35-4.31,3.93-4.86,2.35.13,4.09,1.29,4.23,3.56.19,2.93-1.47,5.12-4.46,5.22Z"/>
            <path class="cls-3" d="M1336.77,932.48c-7.11-34.28-17.6-67.4-32.87-98.98-6.29-12.98-8.5-14.21-20.52-7.08-16.35,9.69-32.56,19.63-48.66,29.75-1.45.92-2.93,1.79-4.42,2.65-2.6,1.51-5.26,2.93-7.9,4.37-7.95,4.32-15.87,8.68-22.51,15.05-.74,5.1,1.27,9.41,3.62,13.75,13.82,25.46,24.28,52.23,30.4,80.58,1.59,7.38,4.54,14.91,1.45,22.59v1.22c4.24,1.33,8.49,2.48,13.03,2.47,27.02-.09,54.05.02,81.07-.09,10.45-.05,14.09-3.68,13.94-14.16-.24-17.6-3.06-34.91-6.63-52.12ZM1256.73,910.72c-3.18.08-5.42-1.61-5.28-5.18.13-3.15,1.46-5.56,4.99-5.6,3.39-.04,4.97,2.13,5.54,5.21-.25,3.34-2.02,5.47-5.25,5.56Z"/>
            <path class="cls-3" d="M454,988.04c6.33-39.05,21.23-74.85,41.41-108.63-9.91-5.77-19.88-11.47-29.72-17.35-20.51-12.27-40.95-24.65-61.44-36.95-8.58-5.14-11.01-4.84-15.55,4.11-5.47,10.76-10.63,21.76-14.82,33.06-13.93,37.64-24.53,76.12-25.9,116.55-.54,15.96,3.66,20.13,19.57,19.77,21.97-.48,43.97.65,65.94-.1,6.98-.23,13.94-.68,20.91-1.41v-1.39c-1.46-2.36-.8-5.16-.4-7.66ZM408.27,899.92c-.07.17-.16.33-.28.47-.46.56-1.26.9-2.2,1.13-1.08,2.66-1.82,5.89-4.18,6.36-1.08.21-2.47-.14-4.38-1.39-3.95-1.83-4.73-5.2-2.77-8.43,1.7-2.81,4.49-5.04,8.45-4.82,3.19.18,4.39,2.21,5.28,4.71.1.28.16.53.2.77.07.47.02.87-.12,1.2ZM425.77,894.75c-3.22-.57-4.92-2.2-4.72-5.34.16-2.64,1.98-3.32,4.22-3.05,2.72.31,3.98,2.12,4.07,4.72.09,2.54-1.54,3.47-3.57,3.67ZM444.39,878.95c-1.85.01-3.6-.35-3.67-2.61-.05-1.88.9-3.35,2.95-3.56,2.47-.24,3.52,1.43,4.18,2.94.05,2.96-1.61,3.23-3.46,3.23Z"/>
            <path class="cls-3" d="M337.82,1038.42c.04-4.85-1.34-5.31-5.96-4.68-15.16,2.05-29.72,6.93-45.68,5.32-28.91-2.91-57.95,3.37-87.08.01-14.38-1.66-15.37-1.38-15.4-16.33-.06-25.4-.03-50.8-.14-76.2,0-2.03,1.18-5.53-2.14-5.54-2.75,0-2.68,3.27-2.69,5.57-.06,12.41.13,24.83-.13,37.23-.31,14.67,1.32,29.41-1.56,44-1,5.07-2.73,10.68-8.39,10.54-10.92-.27-21.53,2.62-32.66,1.26-12.79-1.57-25.89-.67-38.85-.73-2.81-.01-5.72,1.43-5.59,4.29.14,3.32,3.57,1.81,5.61,2.04,1.99.23,4.03.03,6.05.03,56.71-.02,113.43-.1,170.14.02,5.01.01,13.43-2.29,14.36,1.46,1.45,5.85-6.66,8.38-11.24,10.91-9.05,5.01-13.12,11.94-13.07,22.09.28,52.78-.43,105.57,1.48,158.34.1,2.87-.08,5.76,2.8,7.72,4.66,3.16,24.53,3.32,29.53.25,3.72-2.29,4.38-5.71,4.35-9.68-.07-11.55-.14-23.09.06-34.64.32-18.49-1.43-37.08,2.78-57.7.69,10.26,2.44,18.07,2.4,26.18-.06,12.13,5,21.65,16.32,27.19,1.98.97,4.62.7,5.9,3.1q-20.73,2.18-20.77,24.67c0,.87-.03,1.73,0,2.6.44,17.71-3.67,18.48,18.97,18.81,8.2.12,10.74-1.98,10.67-10.46-.4-49.93-.15-99.87-.26-149.81-.01-5.41.23-10.38,5.21-13.8,1.27-.87,3.59-1.92,1.58-3.88-8.87-8.64-6.69-19.69-6.61-30.19Z"/>
            <path class="cls-3" d="M581.72,782.26c-1.82-.53-4.01-.1-5.24-2.1-.55-.51-1.1-1.03-1.66-1.54h0s.14.21.14.21c-.63-.64-1.27-1.27-1.9-1.91,0,0,0,0,0,0l.2.15c-.63-.63-1.25-1.25-1.88-1.88,0-.01-.02-.02-.03-.03l.06.06c.06.05.13.12.13.12-.59-.59-1.17-1.18-1.76-1.77-2.69-.88-3.83-3.31-5.35-5.36,0,0,0,0,.01,0-.52-.52-1.04-1.04-1.57-1.56-1.93-1.25-3.55-2.7-3.56-5.23-1.16,0-1.67-.65-1.74-1.74-1.19-.15-1.46-1.06-1.61-2.07-10.37-13.62-23.62-24.7-34.29-38.09-1.52-1.91-2.99-3.87-4.4-5.89-2.04-2.94-5.18-5.25-8.92-6.22-7.87-.75-15.65,4.41-23.69.34-.81-.41-3.07,1.3-4.22,2.46-30.05,30.37-57.91,62.42-77.18,101.04.31,1.68,1.41,2.65,2.65,3.49.41.28.84.55,1.26.82,7.69,5.01,15.43,9.95,23.21,14.82,5.83,3.65,11.69,7.27,17.57,10.85,17.64,10.73,35.47,21.14,53.48,31.25l80.29-90.22Z"/>
            <path class="cls-3" d="M1249.49,753.99c-11.99-15.46-25.08-29.98-38.91-43.83-3.81-3.81-6.98-5.75-12.67-3.02-6.41,3.07-14.31.57-20.89,4.11l.11-.11c-.89.62-1.78,1.24-2.68,1.86-1.11.1-1.79.63-2.17,1.47-.12.29-.21.6-.28.95-.58.86-1.17,1.71-1.75,2.56h0c-2.03,6.46-6.26,10.99-12.22,14-.53.53-1.06,1.07-1.58,1.6-.62.6-1.23,1.18-1.84,1.75-1.66,1.33-3.45,2.53-5.07,3.9-.54.45-1.07.93-1.56,1.43-6.51,6.58-12.8,13.35-18.92,20.28-3.05,3.47-6.06,6.98-9.02,10.53-2.97,3.56-5.88,7.15-8.75,10.78,5.26,7.63,13.13,12.54,19.64,18.87,22.21,21.6,43.8,43.68,58.7,71.3,22.78-13.8,45.57-27.59,68.33-41.44,9.96-6.06,20.65-11.11,28.54-20.11-9.76-20.63-23.09-38.96-36.99-56.87ZM1202.12,801.72c-5.48-.22-9.07-3.42-9.31-8.93-.24-5.51,2.91-9.22,8.83-9.44,5.62-.21,9.67,2.27,9.98,8.22.33,6.09-3,9.6-9.51,10.15Z"/>
            <path class="cls-3" d="M1170.25,717.98c.59-.86,1.17-1.71,1.76-2.57"/>
            <path class="cls-3" d="M406.34,2003.29h4.62c-1.5-.36-3.09-.18-4.62,0Z"/>
            <path class="cls-3" d="M1419.83,1500.59c-1.04-12.9-.44-25.95-.15-38.92.15-6.61-2.18-9.35-9.04-9.18-13.83.35-27.67.07-41.5.08-15.96.02-18.34,2.67-16.89,18.83.13,1.42.65,2.81.76,4.24.7,8.6,2.6,17.63-1.07,25.59-3.68,7.97-8.43,14.98-.18,22.72.48.45.16,1.68.33,2.52,3.1,15.73,1.39,31.63,1.35,47.43-.02,8.17,2.75,10.49,10.56,10.25,10.82-.34,21.64-1.9,32.56-.3,3.79.56,8.07-.5,11.82-1.76,5.62-1.88,10.67-5.14,10.91-11.91.28-7.77.58-15.65-.31-23.34-1.56-13.42-10.73-18.3-23.33-13.22-1.47.59-2.84,2.23-6.43-.27,6.26-3.91,12.56-5.82,17.89-9.45,8.4-5.71,13.63-12.1,12.72-23.32Z"/>
            <path class="cls-18" d="M1353.55,1089.71c.2,24.53.08,49.06.08,73.58,0,25.11-.04,50.21.05,75.32.01,2.89-1.23,6.4,3.49,7.58,13.44,3.38,29.31-8.5,29.36-22.34.08-23.66.07-47.33.06-70.99,0-6.28.56-12.46-3.74-18.15-2.93-3.89-2.45-9.41.23-13.18,3.9-5.49,3.48-11.31,3.5-17.27.03-12.7.04-25.39.02-38.09-.04-27.2-.26-26.57-25.78-35.12-9.47-3.17-8.63.48-8.91,7.15-.42,10.01,3.58,21.02-5.54,29.49-1.61,1.49-.9,3.43.71,4.4,6.9,4.17,6.42,11.15,6.47,17.6Z"/>
            <path class="cls-3" d="M-8.1,1546.81c-.42-2.66-.1-5.63,3.02-6.38,11.01-2.66,17.25-9.38,18.82-20.65.22-1.55,1.59-3.05,2.7-4.34,12.15-14.23,17.38-30.34,15.24-49.22-1.29-11.41-3.31-14.2-14.65-14.15-19.85.08-39.71.1-59.56.14.04,42.32.08,84.64.12,126.95,6.69-1.16,11.4-6.53,17.7-8.41,11.99-3.58,18.73-10.59,16.62-23.94Z"/>
            <path class="cls-3" d="M448.03,1016.78c-5.13-.33-9.37-3.4-14.9-3.02-5.59.38-9.89,4.53-15.47,3.86-5.43,9.15-7.95-1.17-11.93-1.78-16.19-2.39-32.49-.84-48.72-1.51-6.93-.28-9.75,1.47-9.12,8.92.71,8.29.29,16.68.2,25.02-.03,2.75.9,5.83-1.78,8.04.08.76.24,1.58.62,2.13s.95.83,1.84.52c6.37-2.19,12.74.02,18.6,1.05,8.89,1.56,17.74,2.6,26.56,3.07,3.53.19,7.06.29,10.58.29,15.85.03,31.63-1.79,47.39-5.63-2.25-11.4-1.31-22.94-1.7-34.43-.08-2.37,1.18-6.31-2.18-6.52Z"/>
            <path class="cls-3" d="M1341.56,1018.36c.1-3.86-2.83-3.69-5.42-3.7-20.09-.09-40.18-.33-60.27-.06-4.06.06-8.1,2-12.14,3.13-2.83,3.84-6.2,4.85-10.04,1.52-3.63-3.15-7.99-6.19-12.28-3.56-4.31,2.65-1,7.8-1.01,11.84-.02,11.01,1.78,22.22-3.78,32.59,3.21,1.63,6.69,1.33,10.1,1.33,19.46,0,38.92.02,58.38-.09,10.7-.06,21.18-1.34,29.95-8.25,2.24-1.76,4.02-1.55,6.17-.45,2.16-11.41.05-22.86.34-34.29Z"/>
            <path class="cls-3" d="M337.63,1494.54c.21-7.5.06-15.01.07-22.51q.03-19.73-19.39-19.52c-11.13.12-13.24,2.1-13.29,13.01-.08,17.03-.02,34.06-.02,51.09h-.03c0,14.72.03,29.44,0,44.16-.06,22.62.77,23.19,23.08,23.55,7.35.12,10.23-1.54,9.86-9.5-.66-14.4.43-28.89-.46-43.27-.46-7.43,7.7-12.78,5.76-17.64-2.55-6.4-5.77-12.19-5.57-19.36Z"/>
            <path class="cls-3" d="M56.51,793.57c4.32-.44,8.46-1.21,12.59-1.23,33.46-.11,66.92.1,100.37-.22,7.11-.07,9.43,2.01,9.37,9.27-.31,41.57-.24,83.14-.04,124.7.01,3.14-2.68,9.05,2.68,9.07,3.82.01,2.11-5.77,2.12-8.92.14-40.41.08-80.83.13-121.24.01-11.69,1.17-12.14,13.05-12.9,12.06-.77,24.02-.12,36.04.05,28.55.42,57.11.2,85.66.24,5.97,0,11.94,0,17.91,0,.66-.94,1.32-1.89,1.99-2.83-11.36-1.82-15.17-4.43-15.03-15.43.7-53.97.35-21.96.28-75.94,0-2.9,1.3-7.63-3.02-7.75-4.52-.13-2.88,4.66-3.24,7.52-.22,1.7-.05,3.46-.05,5.19-.02,53.69-.18,18.39.08,72.08.04,8.4-2.87,11.39-11.09,10.76-22.34-1.7-44.69.55-67.09.15-56.8-1.03-113.63-.28-170.45-.51-6.1-.02-10.35,1.29-12.28,7.92Z"/>
            <path class="cls-3" d="M-5.52,1244.74c8.22.17,11.61-3.41,10.98-11.51-.57-7.43-1.82-14.77-1.79-22.31.21-49.59.17-99.19.07-148.78-.02-8.62-1.4-17.61,10.77-19.25.07,0,0-.97,0-2.24-11.88-.2-23.77-1.24-35.68-1.42-7.15-.1-14.31.1-21.49.99-.02,1.76-.05,3.53-.07,5.29,11.23-.09,22.47-.03,33.7-.33,5.29-.14,7.23,2.61,7.59,7.25.15,2.01.11,4.04.11,6.05-.02,49.32-.09,98.64-.04,147.96,0,7.16-1.52,13.68-5.89,19.44-1.24,1.63-2.79,4.17-4.63,3.16-10.7-5.91-20.41,3.44-30.75,1.62-.01,4.65-.02,9.31-.03,13.96v.16c12.39-.04,24.77-.31,37.15-.06Z"/>
            <path class="cls-3" d="M33.38,790.28c-14.8-2.88-14.52-12.88-14.29-23.58.43-20.49.19-40.99.03-61.48-.02-2.83,1.54-6.31-1.84-8.61-3.5,2.97-2.82,6.89-2.83,10.56-.05,19.34-.23,38.68.02,58.02.13,10.15,1.09,20.3-9.29,26.68-.21.13.06,1.03.16,2.1,8.57-1.3,9.03,4.1,9.01,10.66-.14,39.84-.08,79.67,0,119.51,0,3.02-.91,6.26,2.32,11.11,1.08-7.7,2.57-13.41,2.56-19.52-.1-32.62-.79-65.28.64-97.84.42-9.49-6.69-25.08,13.52-27.63Z"/>
            <path class="cls-3" d="M24.53,1547.69c-.44-.47-.88-.93-1.31-1.4-.24-.25-.48-.51-.71-.77-.94-1.04-1.85-2.13-2.81-3.11-.72-.74-1.46-1.41-2.26-1.95-2.14-1.44-4.72-1.95-8.38-.21-11.85,5.64-15.62,10.38-13.82,19.78,1.33,6.93,4.74,13.6,10.39,17.34,6.04,4,13.44,7.63,21.06,2.17.44-10.69,2.06-21.47-2.15-31.84Z"/>
            <path class="cls-3" d="M24.67,1547.84l-.15-.18s.04.06.06.09c.03.03.06.06.09.1Z"/>
            <path class="cls-3" d="M1355.17,788.11c0,3.96,5.67,2.48,8.88,2.49,52.93.13,105.86.13,158.78.16,8.81,0,17.63,0,27.11,0-2.42-5.86-6.7-5.06-10.57-5.05-58.54.02-117.08.03-175.63.22-3,0-8.6-2.02-8.59,2.18Z"/>
            <path class="cls-3" d="M109.06,1421.23c-.52-8.24.97-16.57-.95-24.77-1.68,3.28-3.4,6.54-5.27,9.69-1.87,3.15-3.88,6.21-6.11,9.07-1.17,1.5-2.38,2.97-3.69,4.36-2.1,2.22-4.4,4.28-6.95,6.12-7.08,5.12-3.85,10.16-.92,14.75,3.02,4.73,18.61,6.23,23.43,3.12,1.89-1.21,2.79-2.82,2.28-5.08-4.04-5.37-1.45-11.51-1.82-17.26Z"/>
            <path class="cls-3" d="M1645.83,1039.37c-.75.02-2.05,1.48-2.07,2.29-.04,1.83,1.64,2.05,3.11,2.05,16.48.01,32.95,0,49.43,0,.02-.73.03-1.47.05-2.2-16.59-4.56-33.61-2.6-50.52-2.14Z"/>
            <path class="cls-3" d="M1422.56,830.44c-.1-4.87-3.01-7.17-7.22-6.63-6.18-.02-9.62,2.4-9.47,8.11.13,4.88,3.36,8.82,7.83,8.38,4.79-.47,8.98-4.07,8.86-9.86Z"/>
            <path class="cls-3" d="M171.24,715.53c4.08.23,7.27-1.47,7.2-6.76.11-3.56-1.11-6.45-5.64-6.51-4.31-.05-7.26,2.06-7.61,6.4-.33,3.99,2.18,6.65,6.05,6.87Z"/>
            <path class="cls-3" d="M295.95,867.39c-1.4-2.68-3.11-5.45-6.86-5.12-3.91.34-6.34,2.72-6.3,6.8.04,3.68,2.57,4.86,5.84,4.77,3.95-.12,6.37-2.14,7.32-6.45Z"/>
            <path class="cls-3" d="M48.26,925.29c-1.68,7.3-1.61,13.15-.29,18.88.14.59.23,1.27.36,1.96.26,1.38.69,2.77,1.96,3.35.64.29,1.48.38,2.62.16.37-1.58.74-3.16,1.11-4.74.48-6.65-.89-12.75-5.75-19.61Z"/>
            <path class="cls-3" d="M52.22,858.34c-.05-4.87-1.34-9.8,4.22-12.8,0,0,0,0,0,0,0,0-.08-.75-.08-.75l-.72-.22c-3.17-2.52-5.95-1.32-6.35,2.05-.69,5.82-1.54,11.93,1.47,18.12,1.26-2,1.49-4.19,1.47-6.41Z"/>
            <path class="cls-3" d="M48.96,885.11c-.06,4.27-.07,8.55.02,12.83.04,1.72.38,3.81,2.75,3.28,2.47-.55,1.34-2.6,1.05-4.17-.39-2.04-.58-4.06-.56-6.06.04-3.34.68-6.62,2.04-9.83,0,0-.29-.2-.29-.2-3.16-.42-4.96.89-5.01,4.15Z"/>
            <path class="cls-3" d="M1341.15,1056.41s-.01.05-.03.11l-.12.53s0,0,0,0c.35.35.69.7,1.04,1.06.34-.87.69-1.75,1.03-2.62-.64.31-1.28.61-1.92.92Z"/>
            <path class="cls-3" d="M1340.21,1058.24c.6,1.1,1.24.42,1.83-.12-.34-.36-.69-.71-1.04-1.06-.28.41-.9.99-.79,1.18Z"/>
            <path class="cls-3" d="M1598.65,1444.98c.3-.33.6-.67.9-1-.5-.29-1.03-.5-1.58-.63.23.54.46,1.09.68,1.63Z"/>
            <path class="cls-3" d="M1595.23,1640.05c.12.45.36.87.56,1.3,0-.6.01-1.2.02-1.8-.21.17-.61.39-.58.5Z"/>
            <path class="cls-3" d="M1674.25,1707.45c-1.6-.99-3.64-1.54-6.11-1.55,0,0-.02.02-.03.05l-.03.05c.21.89.37,1.83.41,2.73.04.9-.03,1.75-.26,2.49-.46,1.47-1.58,2.47-3.76,2.34-3.98-.23-1.95-4.28-1.45-6.87-.38-.37-.76-.74-1.15-1.11-5.91,2.86-6.92,8.32-4.02,12.83,2.73,4.25,7.42,8.27,13.61,6.86,4.76-1.09,7.39-4.92,7.14-9.46-.08-1.51-.37-2.89-.85-4.1-.72-1.81-1.89-3.26-3.49-4.25Z"/>
            <path class="cls-3" d="M1668.07,1706l.03-.05s.03-.05.03-.05c-.36-.63-.73-1.12-1.1-1.49-.37-.37-.75-.61-1.14-.75-.26-.09-.52-.13-.78-.12-.26,0-.53.06-.8.15-.8.28-1.62.94-2.46,1.88.39.37.77.74,1.15,1.11,1.53-1.37,3.31-.9,5.06-.68Z"/>
            <path class="cls-3" d="M1452.5,1552.29c-7.92-3.54-13.67-9.78-19.62-16.59-.7,7.1,9.29,24.19,14.84,26.48,3.93,1.63,3.77-2.32,5.35-3.91,2.22-2.25,2.91-4.43-.56-5.98Z"/>
            <path class="cls-3" d="M1691.01,1342.29c-7.63.24-12.12-4.35-15.56-12.7-.83,3.47-1.28,4.31-1.16,5.05.88,5.47,6.98,12.84-5.6,12.96-2.57.02-3.92,3.95-1.98,7.03,2.13,3.39,6.84,3.9,7.84,1.42,2.62-6.54,7.42-6.51,12.82-6.9,2.14-.16,4.3-1.61,5.02-4.14.37-1.32-.4-2.74-1.37-2.71Z"/>
            <path class="cls-3" d="M84.9,1615.08c1.18-2.1,1.81-5,5.29-3.88,2.79.89,4.03,2.79,3.36,5.76,1.9-.28,3.67-.82,4.81-1.84.57-.51.99-1.14,1.2-1.92.2-.78.2-1.7-.09-2.8-1.46-5.66-6.27-7.16-11.5-7.06-2.87.05-6.94-1.46-7.62,3.27-.53,3.67-1.02,7.85,4.55,8.48Z"/>
            <path class="cls-3" d="M1287.94,1211.26c-2.85,1.16-6.35,2.71-9.97,1.76-2.86-.75-3.39,1.31-3.6,3.46-.54,5.66,5.28,12.27,10.84,12.37,6.48.12,11.19-4.7,11.13-11.97.23-5.62-1.3-8.5-8.4-5.62Z"/>
            <path class="cls-3" d="M1330.78,1103.59c3.68-.4,6.24-2.75,6.53-6.81-1.34-4.11-3.42-7.45-8.26-7.55-5.39-.11-5.87,4.36-5.75,7.8.15,4.05,3.04,7.04,7.48,6.57Z"/>
            <path class="cls-3" d="M1282.4,1140.97c-.3-3.81-2.96-5.61-6.18-6.02-3.08-.39-4.98,2.11-4.73,4.83.32,3.59,2.59,6.74,6.48,6.7,2.66-.03,4.22-2.6,4.44-5.51Z"/>
            <path class="cls-3" d="M394.91,1254.67c-3.51-4.58-5.61-9.62-6.86-15.18q-1.37,6.87-7.47,14.14c-4.96,5.91-5.04,13.69-.09,18.65,4.11,4.12,8.35,4.33,12.86.41,6.05-5.26,6.82-11.14,1.56-18.01Z"/>
            <path class="cls-3" d="M424.5,1412.89c-1.37-.45-2.74-1.44-4.06-1.37-12.75.69-18.28-7.56-23.89-17.7,0,6.54.19,13.08-.06,19.61-.21,5.74,2.48,7.19,7.49,5.8,6.2-1.72,12.43-2.07,18.76-.79,2.07.42,4.89,2.2,5.85-1,.83-2.8-1.83-3.79-4.1-4.54Z"/>
            <path class="cls-3" d="M412.04,1110.75c4.69.07,6.73-3.58,8.07-7.34-1.06-4.41-3.57-7.07-7.86-6.92-4.5.15-6.58,3.25-6.57,7.51,0,4.06,2.49,6.7,6.35,6.76Z"/>
            <path class="cls-3" d="M1457.36,1419.72l.1-.1c.05-.05.1-.1.1-.1-.3-.21-.59-.43-.89-.64.23.28.46.56.68.84Z"/>
            <path class="cls-3" d="M203.45,1320.41c-.32-1.15-2.47.61-2.93,1.9-2.61,7.37-8.87,9.04-15.79,11.41,1.28.5,2.52,1.28,3.84,1.45,3.84.52,8.16,6.25,10.59,3.03,4.34-5.74,9.48-5.49,15.14-5.6,1.83-.04,4.16-.71,3.6-2.67-2-6.97-12.32-1.81-14.46-9.51Z"/>
            <path class="cls-3" d="M283.22,1371.16c-3.51-.24-6.06.45-5.67,4.51.45,4.57,4.05,6.1,7.65,6.61,3.41.49,3.83-2.59,4.02-5.27.31-4.52-2.06-6.17-6.01-5.85Z"/>
            <path class="cls-3" d="M1500.54,1183.72c7.23-.98,9.31,5.56,13.96,9.58,2.37-4.25,3.12-8.22,0-10.96-3.8-3.33-8.84-3.97-13.84-2.8-.92.21-2.08,1.3-2.29,2.18-.3,1.28,1.01,2.16,2.17,2Z"/>
            <path class="cls-3" d="M1417.29,1211.47c-.23-2.2-.75-5.04,1.48-5.95,2.22-.9,3.53,2.01,5.28,3.18,1.35-1.73,1.68-3.06,1.42-4.13-.05-.22-.12-.43-.22-.62-.08-.17-.19-.33-.3-.48-.34-.46-.81-.87-1.34-1.25-.36-.25-.74-.48-1.15-.7-.6-.33-1.24-.65-1.86-.95-2.82-1.4-6.07-1.22-7.38,1.93-1.65,3.97-.02,7.22,4.06,8.98Z"/>
            <path class="cls-3" d="M450.5,1772.68s0-.1,0-.15c-.02-2.07-.19-4.15-.58-6.22h0c-1,.55-1.94,1.34-3.01,1.62-3.55.91-8.37.44-9.6,4.55-1.39,4.65,3.53,6.68,6.13,9.56.96,1.07,2.03,2.04,3.06,3.04,3.09,3.01,1.33-2.64,3.21-1.8.26-2.12.5-4.24.65-6.36.1-1.41.15-2.83.14-4.24Z"/>
            <path class="cls-3" d="M415.5,1922.33c-.98.07-1.9.19-2.77.38-1.19.26-2.25.64-3.22,1.12-1.14.57-2.13,1.28-2.95,2.15-2.01,2.14-3.03,5.18-2.97,9.04-.2,5.56,1.49,9.2,5.67,10.54,1.39.44,3.06.63,5.03.54,7.2-.32,11.29-3.72,11.54-11.07.21-6.08-5.56-13.02-10.34-12.7Z"/>
            <path class="cls-3" d="M356.92,1785.31c-3.79-.13-5.3,1.52-4.95,4.29.31,4.27.89,7.55,5.31,7.18,3.17-.27,5.56-2.28,5.58-5.54.02-3.57-1.98-5.78-5.94-5.92Z"/>
            <path class="cls-3" d="M1260.59,1652.83c-1.21,7.66,5.1,16.35,10.03,13.54,5.32-3.03,10.78-6.85,10.23-14.46-.32-3.89.12-8.57-5.2-9.23-6.19-.77-14.25,5.02-15.06,10.15Z"/>
            <path class="cls-3" d="M175.64,1206.59c2.36-3.02,4.9-2.57,7.53-.4.72-2.75.96-5.36-.93-6.92-.63-.52-1.5-.92-2.67-1.16-2.54-.54-5.38-.53-7.01,2.01-2.3,3.58.31,5.14,3.09,6.46Z"/>
            <path class="cls-3" d="M211.79,1196.56c2.99-.1,4.65-2.29,4.46-5.22-.15-2.27-1.89-3.42-4.23-3.55-2.59.55-3.9,2.19-3.93,4.85-.03,2.48,1.55,4,3.7,3.92Z"/>
            <path class="cls-3" d="M408.19,897.96c-.89-2.5-2.1-4.54-5.28-4.71-3.96-.22-6.74,2.01-8.45,4.82-1.96,3.23-1.17,6.61,2.77,8.43.24-6.17,2.3-9.2,8.56-4.98.95-.22,1.74-.57,2.2-1.13.12-.14.21-.29.28-.46.14-.34.19-.73.12-1.2-.04-.23-.1-.49-.2-.76Z"/>
            <path class="cls-3" d="M425.28,886.36c-2.24-.26-4.06.41-4.23,3.06-.2,3.13,1.5,4.76,4.73,5.34,2.02-.21,3.65-1.13,3.57-3.68-.09-2.59-1.35-4.4-4.07-4.72Z"/>
            <path class="cls-3" d="M443.67,872.78c-2.06.2-3.01,1.67-2.95,3.56.07,2.27,1.81,2.63,3.66,2.62,1.85,0,3.51-.28,3.46-3.24-.66-1.51-1.7-3.18-4.17-2.94Z"/>
            <path class="cls-3" d="M276,1995.86v7.44h2.55c.37-2.5-.55-4.99-2.55-7.44Z"/>
          </g>
          <path class="cls-18" d="M337.49,1762.7c-.08-6.39,4.95-11.72,2.24-18.35-2.44-5.96-2.15-12.4-2.14-18.76.09-41.56-.03-83.12.26-124.68.05-7.15-2.56-9.59-9.47-9.97-10.19-.55-19.88.6-29.07,5.17-10.06-.03-20.12-.06-30.18-.09-34.59-.11-69.17-.21-103.76-.26h-2.2c-10.97.01-21.95.25-32.92.39-2.13,0-4.28.54-6.42.68-.71.05-1.42.05-2.12-.02-1.68-.18-3.34-.81-4.94-2.34-1.7-1.64-4.56-2.5-7.25-2.04-10.49,1.76-21.75-3.79-31.74,3.4-1.25.9-.96-1.49-1.79-1.88-4.41-2.06-9.08-3.78-12.82.76-2,2.43-4.12.98-6.16,1.38-7.17-.02-14.35-.03-21.53-.04-.92.01-1.83.01-2.75.02-19.26-.15-38.53-.3-57.79-.44-1.94,2.62-2.4,5.54-2.5,8.56-.04,1.51,0,3.03,0,4.55,0,1.02-.02,2.02-.1,3.02-.2,2.49-.79,4.92-2.39,7.13-.73-3.13-.29-6.28-.82-9.27-.51-2.88-.79-5.92-1.48-8.73-.24-.94-.52-1.83-.87-2.7-.18-.43-.38-.85-.59-1.26-1.5-2.85-4.03-5.08-8.59-6.01-.16,2.29-.46,4.59-.46,6.88-.04,51.61-.1,103.22-.04,154.83.05,40.36.24,80.72.37,121.07.06,0,.12,0,.18,0v129.64h378.92v-103.37c1.35-1.36,1.1-4.48,1.11-11.7.06-41.85.31-83.69-.18-125.54ZM225.21,1636.77c.82-.88,1.81-1.59,2.95-2.14.97-.49,2.03-.87,3.22-1.13.87-.19,1.79-.32,2.77-.38,3.94-.26,8.54,4.39,9.93,9.42.3,1.09.45,2.19.41,3.27-.26,7.35-4.34,10.75-11.55,11.07-1.96.08-3.64-.1-5.03-.55-4.17-1.33-5.87-4.98-5.67-10.53-.02-1.17.06-2.25.25-3.26.4-2.35,1.32-4.28,2.72-5.77ZM80.35,1606.61c.69-4.74,4.75-3.22,7.62-3.27,5.23-.1,10.04,1.41,11.5,7.06.29,1.1.3,2.02.09,2.8-.2.78-.63,1.41-1.2,1.91-1.15,1.03-2.91,1.57-4.81,1.85-2.04.71-4.23,2.13-6.02,1.65-1.07-.3-1.98-1.28-2.63-3.52-5.57-.64-5.08-4.81-4.55-8.48ZM102.71,1805.31c-5.67.11-10.81-.14-15.15,5.6-2.43,3.22-6.75-2.51-10.59-3.03-1.32-.18-2.56-.95-3.84-1.46,6.92-2.36,13.17-4.04,15.78-11.41.46-1.3,2.61-3.05,2.93-1.9,2.14,7.7,12.46,2.54,14.46,9.51.57,1.96-1.76,2.64-3.6,2.68ZM177.63,1849.71c-.19,2.68-.61,5.76-4.03,5.28-3.6-.52-7.2-2.04-7.65-6.61-.39-4.06,2.16-4.75,5.67-4.51,3.95-.33,6.32,1.33,6.01,5.84ZM268.44,1941.65c-.94,1.59-2.71,2.54-4.82,2.72-4.42.38-5-2.9-5.31-7.18-.35-2.76,1.17-4.42,4.95-4.29,2.68.1,4.46,1.15,5.33,2.92.41.85.61,1.86.61,3,0,1.09-.28,2.03-.76,2.82Z"/>
          <path class="cls-3" d="M1733.19,1638.56v-46.27c-13.95-2.04-27.95-.12-41.93-.44-28.06-.64-56.13-.72-84.19.38-1.86,1.29-3.08,2.82-3.9,4.51-1.81,3.71-1.72,8.14-2.5,12.24,1.38,9.84,1.88,19.72,2.01,29.59h-11.23c-.09-10.85-.2-21.7-.25-32.55-.03-5.06.21-10.47-5.01-13.74-16.21-2.56-32.55-1.73-48.85-1.89-3.05-.91-6.08-1.66-9.03-1.77-.99-.04-1.96,0-2.93.11-.87.11-1.71.28-2.56.53-2.11.64-4.19,1.77-6.18,3.6-.96.87-3.22.3-4.87.39-5.68-2.67-11.82-1.95-17.73-1.97-20.72-.08-41.42.28-62.14.37-1.1,0-4.34,1.45-2.56-2.25-6.86.28-13.9-1.4-20.8-1.36-1.52,0-3.05.11-4.56.32-3.78.55-7.47,1.87-11.04,4.62-.48.37-2.07.21-2.35-.22-5.85-9.06-14.04-4.65-21.76-4.2-8.98.52-11.44,4.86-11.35,13.41.12,12.2.18,24.4.2,36.61h-2.82v96.8c-.68,1.65-1.52,3.25-2.58,4.82-1.87,2.77-1.9,5.45,1.06,7.53.62.43,1.13.91,1.52,1.43v250.17h378.92v-360.75h-.6ZM1665.85,1701.58c.84-.94,1.65-1.6,2.46-1.88.27-.09.53-.14.8-.15.26,0,.52.04.78.13.39.13.77.38,1.15.75.37.37.74.86,1.1,1.49,2.46,0,4.5.56,6.11,1.55,1.6,1,2.77,2.44,3.49,4.26.48,1.21.77,2.58.85,4.1.25,4.53-2.38,8.37-7.13,9.45-6.2,1.41-10.88-2.61-13.61-6.86-2.9-4.52-1.88-9.97,4.03-12.83ZM1662.55,1918.03c.02-5.43,3.4-8.15,8.21-8.77,6.07.92,9.4,4.22,9.05,9.92-.32,5.28-3.75,8.44-9.14,8.12-5.47-.34-8.13-4.09-8.12-9.27ZM1425.38,1670.22c-3.87-.06-6.36-2.7-6.36-6.76,0-4.26,2.06-7.36,6.57-7.51,4.29-.14,6.81,2.52,7.86,6.92-1.34,3.77-3.39,7.41-8.07,7.35ZM1406.7,1832.14h-.01c-4.5,3.93-8.75,3.72-12.85-.4-4.96-4.96-4.88-12.73.08-18.64q6.11-7.27,7.47-14.14c.78,3.47,1.89,6.74,3.47,9.82.8,1.56,1.72,3.07,2.78,4.54.2.27.4.55.61.82,3.16,4.13,4.15,7.9,3.11,11.4-.68,2.31-2.24,4.51-4.65,6.6ZM1441.93,1976.89c-.96,3.21-3.78,1.43-5.85,1.01-6.33-1.28-12.56-.93-18.76.8-5,1.39-7.7-.06-7.49-5.8.25-6.53.06-13.07.06-19.61,5.61,10.13,11.14,18.39,23.88,17.7,1.33-.07,2.7.92,4.07,1.37,2.26.75,4.93,1.75,4.1,4.54ZM1601.13,1962.16c-1.57,1.61-1.41,5.54-5.35,3.92-1.11-.46-2.39-1.51-3.72-2.94-.86-.92-1.73-1.99-2.6-3.17-4.61-6.27-8.99-15.59-8.52-20.37,3.79,4.33,7.48,8.43,11.72,11.75,1.49,1.18,3.06,2.25,4.72,3.21,1.03.6,2.08,1.15,3.19,1.64,3.48,1.56,2.78,3.73.56,5.97Z"/>
        </g>
        <path class="cls-23" d="M1215.64,1093.62v872.99H473.3v-872.99c0-203.23,164.61-367.98,367.67-367.98h6.99c203.06,0,367.67,164.75,367.67,367.98Z"/>
        <ellipse class="cls-19" cx="417.15" cy="1259.65" rx="70.43" ry="70.56"/>
        <ellipse class="cls-19" cx="358.26" cy="1160.13" rx="70.43" ry="70.56"/>
        <g>
          <rect class="cls-18" x="364.69" y="2071.99" width="167.68" height="63.16"/>
          <polygon class="cls-10" points="559.42 2040.41 391.74 2040.41 364.69 2071.99 532.38 2071.99 559.42 2040.41"/>
          <polyline class="cls-3" points="559.42 2093.64 559.42 2040.41 532.38 2071.99 532.38 2135.15"/>
        </g>
        <g>
          <rect class="cls-18" x="145.48" y="2104.9" width="167.68" height="63.16"/>
          <polygon class="cls-10" points="340.21 2073.32 172.52 2073.32 145.48 2104.9 313.16 2104.9 340.21 2073.32"/>
          <polyline class="cls-3" points="340.21 2126.55 340.21 2073.32 313.16 2104.9 313.16 2168.06"/>
        </g>
        <ellipse class="cls-19" cx="305.72" cy="1204.86" rx="70.43" ry="70.56"/>
        <path class="cls-8" d="M433.11,1365.12h0c20.7,0,37.51,16.81,37.51,37.51v183.59c0,20.7-16.81,37.51-37.51,37.51h0c-20.7,0-37.51-16.81-37.51-37.51v-183.59c0-20.7,16.81-37.51,37.51-37.51Z" transform="translate(-260.6 101.71) rotate(-10.32)"/>
        <path class="cls-8" d="M596.68,1740.93h-.01c-13.72,12.63-35.06,11.72-47.66-2.02l-111.23-121.36c-12.58-13.72-11.67-35.05,2.03-47.65h.01c13.72-12.63,35.06-11.72,47.66,2.02l111.23,121.36c12.58,13.72,11.67,35.05-2.03,47.65Z"/>
        <rect class="cls-21" x="356.74" y="1949.78" width="99.55" height="306.28" rx="49.78" ry="49.78" transform="translate(684.08 4226.72) rotate(-176.51)"/>
        <path class="cls-21" d="M407.34,2037.87h0c-29.6-2.29-51.74-28.19-49.45-57.84l-11.69-225.23c2.29-29.66,56.97-49.01,86.57-46.71l-28.84-2.83c29.6,2.29,80.58,31.02,78.29,60.68l-17.15,222.39c-2.29,29.66-28.14,51.84-57.73,49.55Z"/>
        <path class="cls-20" d="M308.95,2077.58h0c-28.91-6.78-46.85-35.75-40.09-64.71l22.67-224.38c6.77-28.96,63.76-39.74,92.66-32.96l-28.07-7.2c28.91,6.78,74.93,42.95,68.16,71.91l-50.74,217.18c-6.77,28.96-35.69,46.94-64.59,40.16Z"/>
        <path class="cls-20" d="M307.43,1988.32h0c27.47,0,49.78,22.3,49.78,49.78v206.72c0,27.47-22.3,49.78-49.78,49.78h0c-27.47,0-49.78-22.3-49.78-49.78v-206.72c0-27.47,22.3-49.78,49.78-49.78Z" transform="translate(230.07 -20.57) rotate(6.12)"/>
        <path class="cls-20" d="M490.84,1729.42c0,63.23-47.12,114.49-105.24,114.49s-113.74-63.51-113.74-126.74,55.67-104.59,113.74-102.24c105.24,4.26,105.24,51.26,105.24,114.49Z"/>
        <path class="cls-8" d="M391.97,1352.93s-74.41-44.73-143.51,106.5c-27.64,53.25,53.15,195.97,129.69,198.1,76.54,2.13,86.11-35.15,90.36-86.27,4.25-51.12-6.38-205.55-76.54-218.33Z"/>
        <rect class="cls-8" x="229.47" y="1439.89" width="84.88" height="292.64" rx="42.44" ry="42.44" transform="translate(174.75 -20.2) rotate(6.27)"/>
        <path class="cls-8" d="M446.72,1824.94h0c-12.05,17.33-35.85,21.57-53.14,9.5l-152.69-106.66c-17.26-12.06-21.5-35.84-9.47-53.13h0c12.05-17.33,35.85-21.57,53.14-9.5l152.69,106.66c17.26,12.06,21.5,35.84,9.47,53.13Z"/>
        <g class="cls-30">
          <path class="cls-22" d="M391.97,1352.93s-74.41-44.73-143.51,106.5c-27.64,53.25,53.15,195.97,129.69,198.1,76.54,2.13,86.11-35.15,90.36-86.27,4.25-51.12-6.38-205.55-76.54-218.33Z"/>
        </g>
        <g class="cls-29">
          <rect class="cls-22" x="229.47" y="1439.89" width="84.88" height="292.64" rx="42.44" ry="42.44" transform="translate(174.75 -20.2) rotate(6.27)"/>
        </g>
        <g class="cls-26">
          <path class="cls-22" d="M446.72,1824.94h0c-12.05,17.33-35.85,21.57-53.14,9.5l-152.69-106.66c-17.26-12.06-21.5-35.84-9.47-53.13h0c12.05-17.33,35.85-21.57,53.14-9.5l152.69,106.66c17.26,12.06,21.5,35.84,9.47,53.13Z"/>
        </g>
        <rect class="cls-9" x="331.91" y="1307.66" width="61.12" height="82.01" rx="20.22" ry="20.22"/>
        <rect class="cls-22" x="268.81" y="2257.07" width="51.72" height="165.53" rx="25.84" ry="25.84" transform="translate(-2063.34 2378.33) rotate(-83.76)"/>
        <rect class="cls-22" x="390.32" y="2213.75" width="51.72" height="165.53" rx="25.84" ry="25.84" transform="translate(-1915.26 2404.24) rotate(-82.37)"/>
        <ellipse class="cls-9" cx="362.48" cy="1254.68" rx="99.13" ry="99.31"/>
        <g>
          <path class="cls-5" d="M405.72,1333.06c5.03.26,9.87-1.7,13.65-5.5,1.23-1.24,1.35-3.36.26-4.73-1.09-1.37-2.96-1.48-4.2-.24-2.59,2.62-5.92,3.96-9.37,3.78h-.06c-3.48-.2-6.66-1.91-8.96-4.82-1.09-1.37-2.97-1.48-4.2-.24-1.23,1.24-1.35,3.36-.26,4.73,3.35,4.24,7.99,6.73,13.05,7.01h.1Z"/>
          <path class="cls-5" d="M403.5,1301.98c-.34,4.8,1.65,8.86,4.45,9.06,2.8.2,5.36-3.53,5.7-8.33.34-4.8-1.25-14.45-4.05-14.65-2.8-.2-5.76,9.12-6.1,13.92Z"/>
          <ellipse class="cls-7" cx="384.37" cy="1281.84" rx="14.04" ry="12.45" transform="translate(-931.31 1526.52) rotate(-83.84)"/>
          <ellipse class="cls-23" cx="385.14" cy="1285.32" rx="6.38" ry="5.65" transform="translate(-934.08 1530.39) rotate(-83.84)"/>
          <ellipse class="cls-7" cx="430.73" cy="1282.92" rx="13.62" ry="12.08" transform="translate(-890.98 1573.58) rotate(-83.84)"/>
          <ellipse class="cls-23" cx="431.51" cy="1286.9" rx="6.19" ry="5.49" transform="translate(-894.25 1577.9) rotate(-83.84)"/>
          <path class="cls-9" d="M369.69,1278.03c11-3.89,21.45-2.74,31.34,3.44l2.29-20.93-31.34-3.44-2.29,20.93Z"/>
          <path class="cls-9" d="M414.99,1279.96c10.67-3.77,20.81-2.66,30.41,3.34l2.22-20.31-30.41-3.34-2.22,20.31Z"/>
          <rect class="cls-19" x="371.56" y="1266.49" width="27.97" height="9.15" rx="4.31" ry="4.31" transform="translate(630.06 2576.61) rotate(-173.73)"/>
          <rect class="cls-19" x="419.24" y="1269.49" width="27.37" height="8.88" rx="4.18" ry="4.18" transform="translate(724.22 2587.49) rotate(-173.73)"/>
        </g>
        <path class="cls-9" d="M643.52,1721.6c13.77,22.93,6.36,52.7-16.53,66.5-22.9,13.8-52.61,6.4-66.38-16.52-13.77-22.93-6.36-52.7,16.53-66.5,22.9-13.8,52.61-6.4,66.38,16.52Z"/>
        <ellipse class="cls-19" cx="360.39" cy="1182.88" rx="70.43" ry="70.56"/>
        <path class="cls-19" d="M383.47,1191.46c0,38.97-31.53,70.56-70.43,70.56s-70.43-31.59-70.43-70.56,31.53-70.56,70.43-70.56c75.34,0,70.43,28.27,70.43,70.56Z"/>
        <ellipse class="cls-19" cx="299.36" cy="1251.1" rx="70.43" ry="70.56"/>
        <ellipse class="cls-19" cx="294.52" cy="1311.2" rx="37.4" ry="37.47"/>
        <ellipse class="cls-19" cx="426.03" cy="1179.57" rx="70.43" ry="70.56"/>
        <g>
          <rect class="cls-18" x="584.9" y="2256.81" width="185.34" height="69.81"/>
          <polygon class="cls-10" points="800.13 2221.91 614.8 2221.91 584.9 2256.81 770.24 2256.81 800.13 2221.91"/>
          <polyline class="cls-3" points="800.13 2280.75 800.13 2221.91 770.24 2256.81 770.24 2326.62"/>
        </g>
        <g>
          <rect class="cls-18" x="785.19" y="2256.81" width="185.34" height="69.81"/>
          <polygon class="cls-10" points="1000.41 2221.91 815.08 2221.91 785.19 2256.81 970.52 2256.81 1000.41 2221.91"/>
          <polyline class="cls-3" points="1000.41 2280.75 1000.41 2221.91 970.52 2256.81 970.52 2326.62"/>
        </g>
        <g>
          <rect class="cls-18" x="983.48" y="2256.81" width="185.34" height="69.81"/>
          <polygon class="cls-10" points="1198.7 2221.91 1013.37 2221.91 983.48 2256.81 1168.81 2256.81 1198.7 2221.91"/>
          <polyline class="cls-3" points="1198.7 2280.75 1198.7 2221.91 1168.81 2256.81 1168.81 2326.62"/>
        </g>
        <g>
          <rect class="cls-18" x="878.85" y="2171.05" width="185.34" height="69.81"/>
          <polygon class="cls-10" points="1094.08 2136.15 908.74 2136.15 878.85 2171.05 1064.19 2171.05 1094.08 2136.15"/>
          <polyline class="cls-3" points="1094.08 2194.98 1094.08 2136.15 1064.19 2171.05 1064.19 2240.86"/>
        </g>
        <g>
          <rect class="cls-18" x="669.6" y="2166.06" width="185.34" height="69.81"/>
          <polygon class="cls-10" points="884.83 2131.16 699.49 2131.16 669.6 2166.06 854.94 2166.06 884.83 2131.16"/>
          <polyline class="cls-3" points="884.83 2190 884.83 2131.16 854.94 2166.06 854.94 2235.87"/>
        </g>
        <g>
          <rect class="cls-18" x="785.19" y="2085.28" width="185.34" height="69.81"/>
          <polygon class="cls-10" points="1000.41 2050.38 815.08 2050.38 785.19 2085.28 970.52 2085.28 1000.41 2050.38"/>
          <polyline class="cls-3" points="1000.41 2109.22 1000.41 2050.38 970.52 2085.28 970.52 2155.09"/>
        </g>
        <g>
          <rect class="cls-18" x="430.42" y="1750.26" width="185.34" height="69.81" transform="translate(109.56 -28.51) rotate(3.49)"/>
          <polygon class="cls-10" points="649.66 1722.94 464.67 1711.67 432.71 1744.69 617.71 1755.96 649.66 1722.94"/>
          <polyline class="cls-3" points="646.09 1781.67 649.66 1722.94 617.71 1755.96 613.47 1825.64"/>
        </g>
        <g>
          <rect class="cls-18" x="628.75" y="2336.6" width="185.34" height="69.81"/>
          <polygon class="cls-10" points="843.98 2301.69 658.64 2301.69 628.75 2336.6 814.08 2336.6 843.98 2301.69"/>
          <polyline class="cls-3" points="843.98 2360.53 843.98 2301.69 814.08 2336.6 814.08 2406.4"/>
        </g>
        <g>
          <rect class="cls-18" x="862.91" y="2333.6" width="185.34" height="69.81"/>
          <polygon class="cls-10" points="1078.14 2298.7 892.8 2298.7 862.91 2333.6 1048.24 2333.6 1078.14 2298.7"/>
          <polyline class="cls-3" points="1078.14 2357.54 1078.14 2298.7 1048.24 2333.6 1048.24 2403.41"/>
        </g>
        <g>
          <rect class="cls-18" x="736.36" y="2256.81" width="185.34" height="69.81"/>
          <polygon class="cls-10" points="951.59 2221.91 766.25 2221.91 736.36 2256.81 921.7 2256.81 951.59 2221.91"/>
          <polyline class="cls-3" points="951.59 2280.75 951.59 2221.91 921.7 2256.81 921.7 2326.62"/>
        </g>
        <path class="cls-19" d="M1215.64,1093.62v872.99l-371.67-140.61,4-1100.35c203.06,0,367.67,164.75,367.67,367.98Z"/>
        <polygon class="cls-11" points="473.3 1966.61 843.98 1826 1215.64 1966.61 473.3 1966.61"/>
        <path class="cls-19" d="M1540.01,2089.27h-150.25c-15.4,0-28.57-14.7-31.01-34.77-12.13-99.67-10.49-221.37-3.68-351.33l376.27,267.62-191.33,118.48Z"/>
        <path class="cls-14" d="M1338.24,2116.07h.07c32.08,0,58.13,26.05,58.13,58.13v283.58c0,32.08-26.05,58.13-58.13,58.13h-.07c-32.08,0-58.13-26.05-58.13-58.13v-283.58c0-32.08,26.05-58.13,58.13-58.13Z" transform="translate(-1256.55 2965.39) rotate(-74.03)"/>
        <rect class="cls-14" x="1402.01" y="1954.66" width="153.37" height="445.73" rx="70.53" ry="70.53" transform="translate(3184.88 4181.79) rotate(173.77)"/>
        <path class="cls-22" d="M1319.64,2580.22c0,108.98,81.21,197.33,181.38,197.33s196.04-109.46,196.04-218.44c0-108.98-95.95-180.27-196.04-176.22-181.38,7.34-181.38,88.35-181.38,197.33Z"/>
        <path class="cls-14" d="M1490.03,1931.33s128.25-77.1,247.34,183.56c47.64,91.78-91.61,337.75-223.52,341.43-131.92,3.67-148.41-60.58-155.73-148.69-7.33-88.11,10.99-354.28,131.92-376.3Z"/>
        <rect class="cls-14" x="1623.82" y="2081.21" width="146.3" height="504.37" rx="73.15" ry="73.15" transform="translate(3638.48 4467.63) rotate(173.73)"/>
        <path class="cls-14" d="M1395.68,2744.86v.02c20.78,29.84,61.8,37.16,91.6,16.35l263.16-183.84c29.76-20.79,37.06-61.77,16.32-91.57v-.02c-20.78-29.84-61.8-37.16-91.6-16.35l-263.16,183.84c-29.76,20.79-37.06,61.77-16.32,91.57Z"/>
        <rect class="cls-4" x="1488.2" y="1853.32" width="105.35" height="141.34" rx="34.84" ry="34.84" transform="translate(3081.74 3847.98) rotate(-180)"/>
        <ellipse class="cls-4" cx="1540.87" cy="1761.99" rx="170.85" ry="171.17"/>
        <path class="cls-23" d="M1355.07,1703.18s95.18,58.27,208.39,35.18c31.09-6.34,60.47,16.75,60.85,48.53.92,76.37-5.77,167.84-9.17,208.84-1.05,12.63,7.98,23.84,20.53,25.47,42.52,5.5,131.32,8.99,138.92-56.06,10.03-85.81,48.44-425.97-214.69-425.2-173.62,0-212.42,130.76-204.83,163.23Z"/>
        <path class="cls-5" d="M1468.27,1897.72c-9.19-.54-17.51-5.69-23.43-14.52-1.93-2.88-1.62-7.36.7-10.02,2.32-2.65,5.75-2.48,7.68.4,4.06,6.07,9.77,9.6,16.09,9.97h.12c6.36.34,12.57-2.58,17.48-8.22,2.32-2.65,5.75-2.48,7.68.4,1.93,2.88,1.62,7.36-.7,10.02-7.15,8.2-16.18,12.46-25.45,11.97h-.17Z"/>
        <path class="cls-15" d="M1479.02,1842.7c-.56,10.19-5.19,18.3-10.34,18.12-5.15-.18-8.86-8.58-8.3-18.76.56-10.19,5.85-30.16,10.99-29.99,5.15.18,8.2,20.44,7.64,30.63Z"/>
        <path class="cls-7" d="M1547.86,1804.19c-.38,16.41-10.9,29.81-23.5,29.92-12.6.11-22.51-13.1-22.13-29.51.38-16.41,10.9-29.81,23.5-29.92,12.6-.11,22.51,13.1,22.13,29.51Z"/>
        <ellipse class="cls-17" cx="1522.78" cy="1811.56" rx="13.52" ry="10.35" transform="translate(-389.06 3206.36) rotate(-86.06)"/>
        <path class="cls-7" d="M1447.04,1787.44c-.37,15.93-10.58,28.92-22.8,29.04-12.23.11-21.84-12.71-21.47-28.63.37-15.93,10.58-28.92,22.8-29.04,12.23-.11,21.84,12.71,21.47,28.63Z"/>
        <ellipse class="cls-17" cx="1422.51" cy="1795.85" rx="13.12" ry="10.05" transform="translate(-466.78 3091.7) rotate(-86.06)"/>
        <path class="cls-4" d="M1552.66,1799.52c-19.02-10.54-38.29-10.37-57.8.52l1.03-44.57,57.8-.52-1.03,44.57Z"/>
        <path class="cls-4" d="M1454.24,1784.77c-18.46-10.23-37.15-10.06-56.09.51l1-43.25,56.09-.51-1,43.25Z"/>
        <path class="cls-19" d="M1543.1,1790.96l-35.5.32c-4.36.04-7.79-4.01-7.68-9.05l.03-1.11c.12-5.04,3.74-9.16,8.1-9.2l35.5-.32c4.36-.04,7.79,4.01,7.68,9.05l-.03,1.11c-.12,5.04-3.74,9.16-8.1,9.2Z"/>
        <path class="cls-19" d="M1440.43,1777.31l-34.86.6c-4.23.07-7.59-3.83-7.52-8.72l.02-1.08c.07-4.89,3.56-8.91,7.78-8.99l34.86-.6c4.23-.07,7.59,3.83,7.52,8.72l-.02,1.08c-.07,4.89-3.56,8.91-7.78,8.99Z"/>
        <path class="cls-4" d="M1098.88,2170.68c-42.91,1.64-76.41,37.79-74.81,80.73,1.6,42.94,37.68,76.42,80.6,74.78,42.91-1.64,76.41-37.79,74.81-80.73-1.6-42.94-37.68-76.42-80.6-74.78Z"/>
        <path class="cls-9" d="M488.35,1784.32c19.25,18.56,19.84,49.23,1.31,68.52-18.52,19.28-49.14,19.87-68.39,1.32-19.25-18.56-19.84-49.23-1.31-68.52,18.52-19.28,49.14-19.87,68.39-1.32Z"/>
        <g>
          <rect class="cls-2" x="1079.63" y="2055.44" width="20.53" height="148.46" rx="10.26" ry="10.26" transform="translate(-518.11 358.32) rotate(-15.13)"/>
          <path class="cls-24" d="M1026.29,2117.93c-3.51,9.13,2.33,19.37,11.03,19.37h-16.62c-8.7,0-14.53-10.24-11.03-19.37,14.91-38.82,48.55-126.48,66.31-173.68,3.51-9.34,13.72-10.78,19.36-4.56-1.11,1.22-2.05,2.74-2.74,4.56-17.76,47.2-51.4,134.87-66.31,173.68Z"/>
          <path class="cls-12" d="M1145.79,2137.3h-108.48c-8.7,0-14.53-10.24-11.03-19.37,14.91-38.82,48.55-126.48,66.31-173.68.69-1.82,1.63-3.34,2.74-4.56,1.23,1.33,2.24,3.01,2.92,5.04l58.76,173.77c3.06,9.05-2.77,18.79-11.23,18.79Z"/>
          <rect class="cls-3" x="1081.02" y="2146.9" width="44.36" height="179.72" rx="22.18" ry="22.18"/>
        </g>
        <ellipse class="cls-4" cx="1078.14" cy="2248.34" rx="29.89" ry="72.3"/>
      </g>
    </g>
  </g>
</svg>