<?xml version="1.0" encoding="UTF-8"?>
<svg id="Layer_2" data-name="Layer 2" xmlns="http://www.w3.org/2000/svg" viewBox="0 0 1674 2554">
  <defs>
    <style>
      .cls-1 {
        fill: #fefefe;
      }

      .cls-1, .cls-2, .cls-3, .cls-4, .cls-5, .cls-6, .cls-7, .cls-8, .cls-9, .cls-10, .cls-11 {
        stroke-width: 0px;
      }

      .cls-2 {
        fill: #fdd382;
      }

      .cls-3 {
        fill: #354c5a;
      }

      .cls-4 {
        fill: #748797;
      }

      .cls-5 {
        fill: #002036;
      }

      .cls-6 {
        fill: #e74126;
      }

      .cls-7 {
        fill: #217abe;
      }

      .cls-8 {
        fill: #206188;
      }

      .cls-9 {
        fill: #eef0e0;
      }

      .cls-10 {
        fill: #ffaf8b;
      }

      .cls-11 {
        fill: #f8ce6a;
      }
    </style>
  </defs>
  <g id="Layer_1-2" data-name="Layer 1">
    <g>
      <rect class="cls-11" width="1674" height="2554"/>
      <g>
        <path class="cls-2" d="M987.49,1713.25h0c-86.03-38.41-186.9.19-225.32,86.22l-336.89,754.53h373.64l274.79-615.44c38.41-86.03-.19-186.9-86.22-225.31Z"/>
        <circle class="cls-10" cx="971.02" cy="1718.66" r="209.9"/>
        <g>
          <polyline class="cls-7" points="1188.34 1651.46 881.54 1789.63 747.65 1521.26 984.1 1304.88"/>
          <path class="cls-8" d="M1227.34,1028.05l-257.63,253.64c53.92,155.1,125,290.98,230.15,388.7l353.93-169.51"/>
          <ellipse class="cls-5" cx="1418.94" cy="1243.82" rx="239.36" ry="290.34" transform="translate(-445.63 954.2) rotate(-32.41)"/>
          <path class="cls-9" d="M1463.32,1496.39c-40.84,0-83.17-12.26-122.4-35.45-40.9-24.18-76.75-59.37-103.67-101.78-19.55-30.8-33.54-63.79-41.56-98.06-7.7-32.86-9.62-65.47-5.7-96.92,7.87-63.24,38.52-114.77,86.3-145.1,29.1-18.47,62.16-27.84,98.28-27.84,40.84,0,83.17,12.26,122.4,35.44,40.9,24.18,76.75,59.37,103.67,101.78,19.55,30.8,33.54,63.79,41.56,98.06,7.7,32.86,9.62,65.47,5.7,96.92-7.87,63.24-38.52,114.77-86.3,145.1-29.1,18.47-62.16,27.84-98.28,27.84Z"/>
          <polygon class="cls-3" points="1051.75 1264.63 1019.06 1316.51 858.76 1293.38 722.27 1446.14 665 1383.24 839.48 1224.41 845.51 1231.04 1051.75 1264.63"/>
          <polygon class="cls-7" points="257.72 1642.42 184.66 1818.09 371.78 2016.16 546.07 1949.49 257.72 1642.42"/>
          <path class="cls-4" d="M1051.35,1227.81l.65,37.11-201.13-32.43c-10.28-1.66-20.75,1.65-28.22,8.91l-128.92,125.38-32.23-27.76,140.06-136.2c11.28-10.97,27.17-15.8,42.65-12.97l207.14,37.95Z"/>
          <path class="cls-8" d="M233.46,1650.14l161.74-302.99,462.38,459.88-294.8,160.01c-134.79-99.8-253.71-191.16-329.32-316.89Z"/>
          <ellipse class="cls-5" cx="669.84" cy="1532.01" rx="305.72" ry="332.88" transform="translate(-827.44 787.77) rotate(-39.95)"/>
          <path class="cls-9" d="M696.59,1829.83c-43.87,0-88.79-10.24-129.9-29.61-43.28-20.39-81.19-49.8-112.69-87.39-26.93-32.15-47.26-68.15-60.43-107-12.68-37.42-18.22-75.88-16.47-114.33,3.58-78.44,37.13-148.1,94.49-196.15,24.05-20.15,51.27-35.63,80.9-46,28.74-10.06,59.22-15.16,90.61-15.16,43.87,0,88.79,10.24,129.9,29.61,43.28,20.39,81.19,49.8,112.69,87.39,26.93,32.15,47.26,68.15,60.43,107,12.68,37.42,18.22,75.88,16.47,114.33-3.58,78.44-37.13,148.1-94.49,196.15-24.05,20.15-51.27,35.63-80.9,46-28.74,10.06-59.22,15.16-90.61,15.16Z"/>
        </g>
        <path class="cls-6" d="M1193.87,1176.26s50.21-231.92,299.58-197.16c-122.96,46.59-253.61,166.38-267.57,191.21l-32.02,5.95Z"/>
        <path class="cls-6" d="M818.37,1289.95c-61.91-18.87-234.53-52.25-409.67,87.26-10.35,8.25-1.41,24.61,11.09,20.25,155.8-54.39,340.19-78.56,380.29-76.32,2.24.12,4.47-.31,6.4-1.45l14.36-8.5c8.75-5.18,7.26-18.27-2.47-21.24Z"/>
        <ellipse class="cls-5" cx="695.64" cy="1525.72" rx="88.92" ry="130.27" transform="translate(-539.02 391.1) rotate(-22.91)"/>
        <ellipse class="cls-5" cx="1432.78" cy="1234.63" rx="79.21" ry="116.04" transform="translate(-395.53 750.43) rotate(-25.92)"/>
        <ellipse class="cls-1" cx="709.54" cy="1476.32" rx="20.86" ry="39.16" transform="translate(-643.1 552.56) rotate(-30)"/>
        <ellipse class="cls-1" cx="1432.79" cy="1184.43" rx="18.69" ry="35.08" transform="translate(-400.26 875.08) rotate(-30)"/>
        <circle class="cls-10" cx="350.36" cy="1991.51" r="224.68"/>
        <path class="cls-2" d="M487.79,2211.99c29.75-96.36-24.25-198.59-120.62-228.34h0c-96.36-29.75-198.59,24.25-228.34,120.62L0,2554h382.21l105.58-342.01Z"/>
      </g>
    </g>
  </g>
</svg>