<svg xmlns="http://www.w3.org/2000/svg" xmlns:xlink="http://www.w3.org/1999/xlink" id="Layer_2" data-name="Layer 2" viewBox="0 0 1674 2554"><defs id="defs71"><linearGradient id="linear-gradient" x1="-9059.9" x2="-9417.4" y1="5307.4" y2="5828.1" gradientTransform="translate(9880 -3992)" gradientUnits="userSpaceOnUse"><stop id="stop12" offset="0" stop-color="#fff"/><stop id="stop14" offset=".7" stop-color="#000"/></linearGradient><linearGradient xlink:href="#linear-gradient" id="linear-gradient-2" x1="-5235" x2="-5592.4" y1="-6523.6" y2="-6003" gradientTransform="translate(6037 7834)"/><linearGradient xlink:href="#linear-gradient" id="linear-gradient-3" x1="-22105.3" x2="-22424.9" y1="-9816.6" y2="-9351.1" gradientTransform="matrix(1 0 0 -1 23831 -8175)"/><linearGradient xlink:href="#linear-gradient" id="linear-gradient-4" x1="7231.6" x2="6912" y1="9124.7" y2="9590.2" gradientTransform="matrix(1 0 0 -1 -5489 10769)"/><filter id="luminosity-noclip" width="1393" height="1358" x="-228" y="1144" color-interpolation-filters="sRGB" filterUnits="userSpaceOnUse"><feFlood id="feFlood7" flood-color="#fff" result="bg"/><feBlend id="feBlend9" in="SourceGraphic" in2="bg"/></filter><filter id="luminosity-noclip-2" width="1403" height="1344" x="-248" y="1147" color-interpolation-filters="sRGB" filterUnits="userSpaceOnUse"><feFlood id="feFlood26" flood-color="#fff" result="bg"/><feBlend id="feBlend28" in="SourceGraphic" in2="bg"/></filter><filter id="luminosity-noclip-3" width="1253" height="1222" x="788" y="580" color-interpolation-filters="sRGB" filterUnits="userSpaceOnUse"><feFlood id="feFlood41" flood-color="#fff" result="bg"/><feBlend id="feBlend43" in="SourceGraphic" in2="bg"/></filter><filter id="luminosity-noclip-4" width="1263" height="1209" x="796" y="583" color-interpolation-filters="sRGB" filterUnits="userSpaceOnUse"><feFlood id="feFlood56" flood-color="#fff" result="bg"/><feBlend id="feBlend58" in="SourceGraphic" in2="bg"/></filter><mask id="mask" width="1393" height="1358" x="-228" y="1144" maskUnits="userSpaceOnUse"><g id="g23" style="filter:url(#luminosity-noclip)"><g id="g21"><path id="rect19" d="M145 1224h646v1198H145z" style="fill:url(#linear-gradient);stroke-width:0" transform="rotate(-48 468 1823)"/></g></g></mask><mask id="mask-1" width="1403" height="1344" x="-248" y="1147" maskUnits="userSpaceOnUse"><g id="g38" style="filter:url(#luminosity-noclip-2)"><g id="g36"><path id="rect34" d="M131 1220h646v1198H131z" style="stroke-width:0;fill:url(#linear-gradient-2)" transform="rotate(131 454 1819)"/></g></g></mask><mask id="mask-2" width="1253" height="1222" x="788" y="580" maskUnits="userSpaceOnUse"><g id="g53" style="filter:url(#luminosity-noclip-3)"><g id="g51"><path id="rect49" d="M1126 655h577v1072h-577z" style="stroke-width:0;fill:url(#linear-gradient-3)" transform="rotate(228 1414 1191)"/></g></g></mask><mask id="mask-3" width="1263" height="1209" x="796" y="583" maskUnits="userSpaceOnUse"><g id="g68" style="filter:url(#luminosity-noclip-4)"><g id="g66"><path id="rect64" d="M1139 651h578v1072h-578z" style="stroke-width:0;fill:url(#linear-gradient-4)" transform="rotate(49 1428 1187)"/></g></g></mask><path id="rect4" d="M0 0h1674v2554H0z"/><path id="path87" d="m737 2281-768-545a40 40 0 0 1-11-52l184-320c11-21 38-27 58-13l741 538c16 11 21 31 13 48l-158 328a40 40 0 0 1-59 16"/><path id="path105" d="m1174 1601 687-488c15-11 19-31 10-46l-164-286a35 35 0 0 0-52-12l-663 481a35 35 0 0 0-12 43l142 293c9 21 34 28 52 15"/><clipPath id="clippath"><use xlink:href="#rect4" style="stroke-width:0;fill:none"/></clipPath><style id="style2">.cls-12,.cls-13,.cls-3,.cls-5,.cls-6{stroke-width:0}.cls-3{fill:#74ceea}.cls-5{fill:#fefefe}.cls-6{fill:#fdd382}.cls-12{fill:#eef0e0}.cls-13{fill:#ffaf8b}</style></defs><g id="Layer_1-2" data-name="Layer 1"><g id="g127"><use xlink:href="#rect4" id="rect73" style="stroke-width:0;fill:#91c9f1"/><g id="g125" style="clip-path:url(#clippath)"><g id="g123"><rect id="rect75" width="463" height="907.3" x="323" y="1894.5" class="cls-6" rx="231.5" ry="231.5" transform="rotate(-26 554 2348)"/><rect id="rect77" width="422.8" height="1082.4" x="1495.4" y="1404.5" class="cls-3" rx="211.4" ry="211.4" transform="rotate(-26 1707 1946)"/><path id="path79" d="M1649 1199a302 302 0 1 1-411 444 302 302 0 0 1 411-444" class="cls-13"/><ellipse id="ellipse81" cx="411" cy="1907.5" class="cls-13" rx="302" ry="302.1"/><g id="g99"><path id="path83" d="M212 1308s-32-26-78-12q-36 12-55 44c-59 98-193 330-193 330s-44 67 36 124l787 563s81 36 127-56" style="stroke-width:0;fill:#206188"/><g id="g97"><path id="path85" d="m217 1309 757 561c28 21 38 59 23 90l-163 346a73 73 0 0 1-108 28l-790-563a73 73 0 0 1-21-96l195-343c21-38 71-49 107-23" class="cls-3"/><use xlink:href="#path87" class="cls-5"/><g id="g91" style="mask:url(#mask)"><use xlink:href="#path87" id="path89" class="cls-12"/></g><g id="g95" style="mask:url(#mask-1)"><path id="path93" d="m170 1370 785 520c17 11 9 28 0 46l-160 331a40 40 0 0 1-57 15l-754-536c-15-10-27-8-20-25l148-333c9-23 38-32 58-18" class="cls-12"/></g></g></g><g id="g117"><path id="path101" d="M1644 730s29-23 69-10q33 10 50 39l172 295s39 59-32 111c-70 52-704 503-704 503s-72 33-113-50" style="stroke-width:0;fill:#edc17c"/><g id="g115"><path id="path103" d="m1640 731-678 502a65 65 0 0 0-20 80l146 309c17 37 63 49 96 26l707-504c27-19 35-56 18-85l-174-307a65 65 0 0 0-95-21" class="cls-6"/><use xlink:href="#path105" class="cls-5"/><g id="g109" style="mask:url(#mask-2)"><use xlink:href="#path105" id="path107" class="cls-12"/></g><g id="g113" style="mask:url(#mask-3)"><path id="path111" d="m1681 785-702 466c-15 9-8 25 1 41l142 296c10 19 34 25 52 13l673-479c14-9 25-7 18-23l-132-297c-8-21-33-29-52-17" class="cls-12"/></g></g></g><g id="g309"><path id="path325" d="M1307 1253v-49q3 23 12 42 15 30 44 47 25 13 56 12 33-1 63-20a158 158 0 0 0 72-143q-4-54-43-85-25-19-57-22h102v271h-249zm167-42q-3-1-5-3l-4-5q-3-11 6-20 6-4 11-3c3 0 2 0 7 7l5 7-1 1q0 7-6 13l-7 3zm8-7q8-5 5-14-1-3-4-3h-7q-3 2-5 6l-1 4 1 4q1 2 4 3l3 1zm-175-99v-70h132q-39 3-73 30a161 161 0 0 0-59 107zm105 24q-10-2-10-13-1-4 2-9 4-8 12-10h4l10 11 1 2v2q-1 13-13 17zm5-7q6-1 8-8v-6l-4-4h-7l-5 6-1 4 1 4q3 6 8 4" style="fill:#fdfdfc;stroke-width:.239894"/><path id="path323" d="M1408 1305h1zm11 0h1zm-14 0zm18 0zm-20 0q-1 0 0 0m23 0q-1 0 0 0m-26 0zm-1-1q-1 0 0 0m-2 0q1 0 0 0m-14-3zm69-2q-1 2 0 0m16-7zm5-2q0-1 0 0m-8-6zm18 0zm-13-2zq-2 0 0 0m-123 0q0-1 0 0zm-1-2zm140-1zm-142 0-1-1zm-4-4zm132-1zm-135-2zm-2-2zm-3-3zm0-1q-1-1 0 0m-1-1zm123 0zm-124-1zm137-3h1q1 0 0 0zm-96-6zm2 0h2-2m6 0zm-11-2zl1 1zm15 0zm4 0 1-1zm3-3zm1-1zm4 0zm9-2zm2-3 1-1v-1 1zm2-3zm4-2zm2 0q1 0 0 0m2 0q1 0 0 0m2-1zm2 0zm13-1q1 0 0 0-2 0 0 0m1 0zm1-2zm7-3zm8 1q1 0 0 0m-10-1zm-1 0q1 0 0 0m14-1zm4 0zm-1-1zm-27-1zm2-1q0-2 0 0h1q2 0 0 0zm21 0zm-2-8zq0 1 0 0m-18-5q0-1 0 0 2 0 0 0m3-5q0-1 0 0m-127-2q0-1 0 0m-1-4zm0-2zm84-10zm-1-1zm68-8zq2 0 0 0m-148-2zm-1-1zm121 0zm20 0zm-134-1zm15-1zl1 1zm-6-2q-2 0 0 0m228-1zm-116-1zq-1 0 0 0m-2-1zm118 0zm-42-1zm-69-6zm70-2zm14 0zm-172-1zm167-1zm1-2h1q0-1 0 0zm-98 0q-1 0 0 0zm3-1q0 1 0 0m1-1q1 0 0 0m-9 0zm133 0q2 0 0 0m2 0zm-45-1zm-76 0 1-1zm119-1q-1 0 0 0 0 2 0 0m-201-3zm158 0q-2 2 0 0m-39 0zm17 0q0-1 0 0m8-1zm-23 0zm14-1zm-25-2zm-4 0zm28 0zm8-1q0-2 0 0m-7 0zm-137 0q0-2 0 0m205-1zm-242 0zm39 0zm134-1zm-33-1zm40 0q0-1 0 0m32-1zm-3-1zm33-1zm-81 0zm-121-1zm118 0h1q1 0 0 0zm6 0zm78-1zm-203-3zm203 0q0 1 0 0m-1-2q1 0 0 0m-202-3zm138-1zv1zm-27-1zm-49-1zm3 0q1 0 0 0m65-1zm-131-1q0 1 0 0m57-1zm-57 0zm0-1zm55 0q0-1 0 0m20-1h1zm-78-2zv1zm55-7q0 1 0 0m0-2zm52 0q-1 0 0 0m-116-1q1 0 0 0m93-1v-1zq0 2 0 0m18 1zm-46-4 1-2v1zm-68 0zm117-4q0 1 0 0m-115 0zm68 0zq0-1 0 0zm2-2 2-1zl-1 1zm-75 0zm8-1q0-1 0 0m70-1zm133-1q0-1 0 0zm-128-2zm5 0q0-1 0 0 2 1 0 0m-4 0zm125-2zm-186-1q-1 0 0 0m0 0zq0-1 0 0zm41 0zm-42-1zm93 0zm2 0zq-1 0 0 0m18 0q-1 0 0 0m-124 0q-1 0 0 0m48-1zm-47-1zm14 0zm116 0zm-35-1zm-70-1q-1 0 0 0m32 0q0-2 0 0zm-35 0zm44-1zm-67 0q0-1 0 0m28 0zm15-1q1 0 0 0m-8-1h1q1 0 0 0zm33 0q0 1 0 0m-67 0zm55-1zm-53-1zm49-1q-1 0 0 0m-46-2zl-1 1zm5 1zm-3 0zm143 0zm-143-2q0 1 0 0m64-3zl-1 1zm18-1zm-18-2q1 0 0 0m112-2zm-31 0zm30-1zq0 1 0 0m-107 0q0-1 0 0zm71 0q0-1 0 0zm-66-1zm-2-1zm9 0zq-1 0 0 0m60 0zm33 0-1-1zq0 1 0 0m-33-1-1-1zm-75-2zq0 1 0 0m1 0zm16-1zm87 0zm-86-2zm83-1zm-82-1zm80-1zm-120 0q0-1 0 0m24-1q-1 0 0 0m94 0q0-1 0 0zm-1-1zm-87-1q1 0 0 0m14-2zm44 0zm-69-1q0-1 0 0l1-1zm-18 0zm21-1zm37-1q0-1 0 0zm-31 0zm60-1zm-71 0q0 1 0 0m13-1zm57 0zm-84-1q0 2 0 0m20 0zm21-3zm41 0zm-71 0zm-6 0h2-2m72 0zm7-1zq0 2 0 0m-58-2zm42-1zm2 1zm-15 0zq2 0 0 0zm-5-1q0-1 0 0m-4-1zm7 0zm-27 0zm24-1q0 1 0 0m-8 0zm-2-4q0-1 0 0-1 0 0 0m8-1z" style="fill:#55d6e1;stroke-width:.239894"/><path id="path321" d="M1408 1305h-4q-40-4-67-34a120 120 0 0 1-29-93v1l1 1 2 1 3-1 3-1h-1v1l5-1 1-1q2-2 3-2l3 1 3 1h4l3-1 5-4 1-1h3l3-1q4 0 4-2v-5l-1-4-2-3v-3l-1-3q-2 0 0 0l-1-3h-1 1l2-2 1-1v-4l-1-4-1-2v-8l1-1-1-1-1-1-1-1-1-3v-3h-1q0 2 0 0v-1l-1-1h-1v-1l-1-1h-1l-1-1h-3l-2-2-1-3 4-5 1-1-1-4q-3-2-1-2l1-1h2l2-1 1-1q2 0-1-2v-2l6-7 2-1v1h1l2 1 1 1v4l-3 5h1l1 1v1h2l5-6h3l6 1 2-1q3-3 3-1-1 0 0 0h3l2-1 1 1 2 1 2-1 3 1-1 1 1 1h1q-1 2 1 1l1 1 3 1 2 1v-1h1-1l-1-1 1-1h-1l-2-1 1-2 1-1q0-1 0 0h1l-1-3v-1l4 2 1 2 1 1 2 2 3 1 1 1 2-1 1-3-1-1v-1q3 2 1-1l-1-2h1v-1l2-2 5-5 1-2-2 1v-2h-5l3-2 2-4v-4l-1-1-1-1-1-1-1-1-4 2-1 1h-2l-2 2q-2 4-4 2h-2q-1-2-3 1l-2 2 1-2 3-2v-11l-1-1-1-1 1-1 3-1-1-1 2-1 2-1h2l4-1 1 1h3l1 1 1 1h-2v2l1 1v1l1 1 1 1q1-1 0 0l1 1h1l1-2v-1l1-3h1v1h1l2 1 1 1 2-2 1-1h2l2-1v3l-1 1v1l-1 2-1 2h-6v-1l-1-1h-1l-2 1 1 2 1 1v1l-1 2v1l-1 3 1 3v1l1 1h1v-1h2l1 1 3-4 1-1v1h1v1q-2 1 3 1h1l1-2 1-4v-2h1l3-3 1-5v-7q-2-1 1-2l2-1-1-1-1-1v-1h-1 1l1-1-2-1v-1l-1-1 2-1 1 2 3 4 3 2 1-1v-2l-1-2-1-2v-1h1l2 3v1l1 2 3 1h1v-1h1l4 1 4-1q2-2 3 1v1h2l4 1 3 2-2-1-4-1-1 1h1l-2 2h-2l-2-2-2-2h-2v4l-1 1-1-1-1-1-3 3v2l1 1 1 1 1 2q1 3-7 9l-8 7 1 1-1 2h-3l-2-1-3 3-2 3-2 2q-4 5-2 7v2l-2-2-4-2q-5 1-4 6l2 3 1 2h-2c-8 0-16 8-16 18l1 7q7 11 18 6 9-5 10-15 0-4 1-2l4 1q5-1 3-8l-4-5-5-6 3-1 4-1h5l2 1 5 1 5 3 4 2 7-4 3-1 4-1 2-1q2 0 5-4l4-3 6-1 4-1 2-1v-3l-6-12 4 4 1 2 3 1-1-4v-1h1l-1-1v-1l-2-3-1-1 2 2 1 1v1h1v-3l-2-5-4-3-2-1-1 1h-2v-2l-1 1-2 1 1-2 1-2-1 1h-1v-2l-1-1-2-1q-1-2-2-1l-1-1-1-1h1l3 1h2l1-2 1-2 9 4a105 105 0 0 1 54 61l3 10a140 140 0 0 1 4 44l-2-1v-4h-1l-1-1-3 3-1 1h-3l-1-1-2-1-3-1-1 1q-2 0-2 2l-1 2h-1l-2-1-2-1-1-1v3l-1 2 1 3-1-1q0-4-1-3v-2l-1-1-1 1-2 2v-1l2-2 1-2-1 1-2-2-2-2-3 3h-1l-1 1-2 6q0 2 0 0l-1-4-1-3-1-1-1-1-1-1v5h-1l-1-1-1-1-1-1h-1l-1-1-1-1h-3l-1-1h1l-1-4h-1v-2l-1 2-1 2v1l-1 1h-1v-1q3-1 1-6l-1-5v-5l-1-1v-2l-2-3q-2-2-8-2h-5l-2 1-3 1-3 1h-3q-4-1-7 2-2 2-2 4l1 2 1 1v2l-1 1q0 4-1 1l-2-1-1-1v1l-1 2h-1l-1-1-2-1-2 1h-5l-2-1-2-1h-2l-1 2q1 3-1 4l-1 1-4-4-1-1v-1q-2-2-6 3l-1 2-1 2 2 5q1 2 3 2l3 1v1l2-1 4-1h2v-1h1l1 1 2 2v1l-1 3v2l1 1q0 3-2 3h-3l1 3 1 1 3 1 2-1 1-1v1l-2 4v3q1-1 1 1l1 1 1-1 1-1 2-1-1 2-1 1v5l1 1 2 2 1 1h1v2l-4 2-3-1-3-3-1-4-1-3-2-1-1-1-1 1h-1l-1-3-2-6v-2l4-3v-1h-1v-1l-1-1-7-7-2-1h-1l-1-2h-1l-2-2-2 1h-2l-2 1h-7l-7 2q-6 2-7 5l-3 4q-4 4-3 5v7l1 3v2l1 1v1l1 1 3 2 3 4 1 1v1l1 2 1 1-1 3q-1 4-3 3l-2 3-2 4-2 5-3 3-2 1-3 1-5 7-5 9-3 2-1 3v1l-1 2 7 9 8 1 6-1v-3l1 1q2 3 5 0l1-2h2l2-1 3 1q1 2 4-1l4-4 1-2 2-2 2-1 10-2 2 1h5l2-1 4-1 2-1v-2l-1-1-3-2-2-1v-2q1-3 2 0h2v1l3 2h2l2 1 2 1h11v-7l1 1 3 4q3 4 2 5v4h-1v3l1 1h1l-1 1-4 7-4 8v3l1 1 2 1h2v-1l2-1 1-1 3-2 3 1h9v2l-1 2v2q1 1-1 2l-1 2v1l1 1v2l-5 7-2 3v2l-2 1q1-2-1-3l-1-1v-1l-1 2-2 8-1 2-1 2-4 2a122 122 0 0 1-44 6m101-153 1-3 2-2 3-2 2-1h6l4-1-1-2-1-1-2-1h-2l-4-1-4 2-1 1-1 1-2 1-2 1-1 1-1 1v3l1 3 1 1 1 1h1zm-54-40 1-3v-1l-1-1-1-1-1-1q1 0 0 0h-1v-2l-1-1v-1h-1q-2 0-1 1t-1 1q-1-2 0 0l-1 1-1 2 1 1 2 3v1l1 1h2l2 1zm-5-8zm18 187 1-5q4-5 4-3l-1 2v3q-2 2 1 1v1l-5 2zm15-8 1-2q0-2 2-1h1q1 2-2 3zm-14 0 1-2zq-1 0 0 0m-18-59zh-3l1-1 1-3 1-5 1-1v1l-1 3v1l1 3 1 1 1 1-1 1-1 1h-1zm-20-2zl1-2 1-4 1-2q2-3 1-4l1-1 1-3q3-5 1 0l-1 3-1 2-2 5-1 4zm26-31-2-3v-1l-4-5-1-3 3-1 3-2 1 1-1 2 1 2 1 2c1 0 2 5 1 7l-1 1zm-10-12q-2 0 0 0 0 2 0 0m105-4zl-1-1 3-1zm-41-2-1-1zm-70-3zv-1l1-3v-2 8zm77 0zm-1-1zm5-5zm-62-9zl-1-1-2-2-1-1-1-1v-2l1-1v2h1l2 2h1l2-1 2-1 2-1q2 1 2-1l1-3 1-2h2l2 1h-2l-2 2-1 2v1l1 2v1l1 1 2 1v1h-1l-1-2h-1v-1l-2 1-2 2-1-1h-3zm27-3-1-1-1-2h1v-3 1l3 4 1 1h-3v1zm-3 0zm10 1 1-2v1zm-182-7 2-4q2 1-1 4l-1 1zm140 0zm22-4 2-1 1-1q1 1-1 2zm-151-24 10-16-1 1v5l3 4-3 4h-1l-2 1-1 1-1-1h-2zm13-6zm149-57zm-69-7zm12-4-1-1h-3l-1 1v-1l2-2h-3l1-1 2-2h1l1-1h3v1l-1 1v-2l-1 1-1 1z" style="fill:#2cd0fa;stroke-width:.239894"/><path id="path319" d="M1413 1306h2-2m-6-1zm14 0zq-1 0 0 0m-17 0zm20 0zm-22 0q-1 0 0 0m25 0q-2 0 0 0m-27 0q0-1 0 0-1 0 0 0m28 0h1zm-30-1q1 0 0 0m32 0zm-35 0zm-1 0q-1 0 0 0m-2-1zm52-1q-1 0 0 0m2-1zm10-3zm-88-3zm99-2zl2-1 1-1zm4-2 2-1v1zm-12-2zm8 0zm4-1zm-11 0q0-1 0 0m3-1zm3 0zm-113-1zm119 0zm10-1 3-2-2 1zm-10-1zm-4 0zq1 0 0 0h1zm2 0zm-121-1zm-1-1zm123 1zm15-1 2-1zm-139-1zm122 1zm-124-2zm140-1zm2 0zm-17-1 1-1zl-1 1zm-128-1-1-1zl2 2zm-4-4-1-1zl2 2zm133-1zm-135-2zv1zm136 0v-1zm-138-1zm-1-2zm172 0zm-173-1q-2 0 0 0m-1-1q2 0 0 0m124 0zm-3 0zm0-1zm-1-1zm-122-1zm181-1h1l-1 1zm-51 0zm-131-1q-1 0 0 0zm142 0h2zm-8 0zm-85-5h1q1 0 0 0zm4-1zm3-2-1-1zl1 1zm-2 0zm7-1q0-1 0 0m-68-1zm71-1zm9 0q2 0 0 0m1-1 1-1h1-1zm-40-4 1-1 1-1-1 1zm-44-1q0-1 0 0m140 0zm-95-2q0-1 0 0m59-2q1 0 0 0m-57 0 1-1zm50 0zm13 0zm-11-1zm2 0zm-52-1zm67-3zm13-1zm11-1q0 2 0 0m-20-1zm19 0q-1-1 0 0m-27-1zm4-1zm22 0q-2 0 0 0zm-2-2zm-24 0zm-120-4zm144 0zm-23-1 1-1zm-121 0zm120-1zm-120-1q0-1 0 0m140-2zm2-1zm-1-1zm-65-1zm49-1zm-2-1 1-1zm-125 0q0-1 0 0m79-2zm48 0 1-1h1-1zm0-2zm2-1zm-129 0zm-1-1zm0-2zm83 0zq0-2 0 0zm89 0zm-4-1zm7 0 3-2v-1q-2 3-4 3zm-8 0q-1 0 0 0m-167-1zm165-1q0 1 0 0m-1-1zm-164-1q0-1 0 0zm179-1zl-1 2zm-47 1zm31-1zm17-2q0-1 0 0 1 0 0 0m1-3q0-1 0 0v1zm-18 1q0-1 0 0m-28 0zm-2 0zl1 1zm-49-4q-1 0 0 0zm80 1 1-1q0-2 0 0zm-24-1q0-1 0 0zm10 0q-1-1 0 0m30 0q0-1 0 0m-98-1q0-1 0 0zm84-1 2-1zl-2 1zm13 1zm-41-1q-1 0 0 0m40-1zl1 1zm-30 0q0-1 0 0m-12-1zm-57 0zm90 0h1zm2-1zm3 0zm-96-1q1 0 0 0m67-2-1-1zq1 0 0 0m-21 0zq0-1 0 0zm2-1zm24-1zm-17-1q0-1 0 0zm2 1q-1 0 0 0m-128-1zm1 0zq2 0 0 0zm2 0zm-10-1zm138 0zq0 1 0 0m-137 0zm25 0zm-26-1zm137 0zm-61-1zm-53 0zm-7-1zm229 0zm-245 0zm18 0zm227-1zm-211 0zm212 0zm-169-1q0-1 0 0m-77-1q0 1 0 0m204-1zl1 1zm42 1zm-113-1zm-6 0q0-2 0 0zm-51-1zm170 0q1 0 0 0m-35 0q1 0 0 0m0-1zh1zm-77 0zm-5 0zm6-1zm74 0zm-131-1q1 0 0 0zm56-1q0 1 0 0m-12-2zm83 0q0 1 0 0m10 0zm-80-1v-2zv1zm-88 0zm173 0zm27 0zm-42 0q0-2 0 0m-85-1zm93-1zm5 0zm-135 0zq1 0 0 0zm164-1q0-1 0 0 0 2 0 0m-33-1h1zm3-1zm20 0zm10 0q0-1 0 0m-40-1q1 0 0 0 0 1 0 0m-163 0zm54-1zq1 0 0 0m26 0q-1 0 0 0m-81-1zm201 0q0 2 0 0m-130 0q-1-1 0 0m117 0q1 0 0 0m-21 0zm-107 0zm98-1zm10 0zm-24-2zm5 0zq1 0 0 0zm56-1q0-2 0 0zm-71 1zm25-1zm-52 0zh1zm6 0q1 0 0 0m26 0q-1 0 0 0m-20-1q0-1 0 0 1 2 0 0m20 0-1-1zq0 1 0 0m-140-1zm106 0zm38 1zm-23-1zm26 0zm-38 0zm35-2zm-61 0zm-13 0zm91 0zq0-1 0 0zm-198-1q0-1 0 0zm144 1q0-1 0 0m8-1zm28 0q0-1 0 0 1 0 0 0m-179 0zq1 0 0 0zm155-1 1-1 1-2-1 2zm-1 0zm-34 0q1 0 0 0m121-1zm-40 0zm-65 0-1-1zm1 0zq0-2 0 0zm4-1zm62 0zm-203-1zq0 1 0 0m155-1 1-1zl-1 1zm-116 0zm104 0zq0-1 0 0zm70-1zm28 0zm-82 0zm53 0zm-12-1zv-1zm10 0q-1 0 0 0m31-2zm-37 0zm1 0zm-63-2zm99 0zm-204-1q0-2 0 0 0 1 0 0m203-1zm-96-1zm96 0zm-86-2zm1 0zm84-3q2 0 0 0m-76 0zm2 0zm4 0h1q1 0 0 0zm-67-5h1zm-3-1zh1q2 0 0 0zm6 0h1l1-1zm-8-2zl1 1zm12 0 2-2zl-1 1zm-100 0zm1-3 1-1zv1l-1 1zm86 1zq0 1 0 0m-62-1q-1 0 0 0zm-22 0q0 1 0 0m83-1zm16 0zm-80-1zm81-1zm0-2zm-17 0q0 1 0 0m47 0zm-115 0zm-3-2q-1 0 0 0zm71 1zm17-3zl1 3zm-16 1 1-1zm-76 0-1-1zq1 0 0 0m122-2v1zm-44-1 1-1zl-1 2zm-79 0zm91 0zm30 0zm-40-1zm7-1 2 1zm27 1zm-33-1zm2 0zm3 0q-1 0 0 0m32-1v-1l-1-1h-1 1l1 1zm-118-1v-1q1-1 0 0zm209-6q0-1 0 0zm-122 0zm-83-1zq0 2 0 0m1 0zm92-1zq1 0 0 0m34 0zq0-1 0 0zm-123-1h1l-1 1zm55 0zm144 0zm-184 0 1-1 1-1-1 1zm39-1q-1 0 0 0 0-1 0 0zm-43 0zm188-1zm-132 0q0 1 0 0m-15-1zm-50 0zm84 0q-1-1 0 0m11 0zm2 0zm-51 0q0-1 0 0zm90-3 3-2zl-2 3zm-92 2zm-20 0q1 0 0 0m26 0zm-51-1zm23 1zm23-1zm37 0q0-2 0 0m113 0zm-114-1q0-1 0 0m3-1zm-83 0q1 0 0 0zm33 0q0 1 0 0m-32-1zm10 0zm40-1zm2-1v1zm-51 0h1l1-1-1 1zm63 0q0 1 0 0m79 0zm-93 0zm92 0q1 0 0 0m46-2q0-2 0 0zm-183-1zm145-1zm-64 0 1-1zm-18 0q2-1 0 0m119-1q-1 0 0 0zm-1-1zm-37 0zm36-1zm-1 0zm-37-1q1 0 0 0m37-1q-1 0 0 0zm-90 0zm52 0zq-1 0 0 0m37-1q-1 0 0 0zm-171-1zm169 0q0-1 0 0zm-32-1zm-75-1zm106 0zm-111-1zm5 0zm77 0zm26-2-1-1zl2 2zm-130 1zm99-1zm-65 0zm20 0zm-29-1zm71 0q1 0 0 0m8 0zm-97-1zm-6 0q2 0 0 0 0 1 0 0m9 0zm15 0zm31 0zm-32 0q0-1 0 0m17 0zm86-2-2-1zl1 2zm-102 1zm77-1zm-44 0zm2-1zq2 0 0 0zm64-1zm-110 0q-1 0 0 0m9 0q0-1 0 0m19 0h1zm-25-1zm105-1zm-2-1zm-91-1zm2 0h1q1 0 0 0zm87-1zm-114-1zq0 1 0 0m113 0zm-21 0q2 0 0 0m-72 0q0-2 0 0m40-1zm52 1q0-2 0 0zm-89 0zm20-2zm-24 0q0 1 0 0m-20-1zm44 0q0-1 0 0 1 0 0 0m-16-1zm-3-1zq-1 0 0 0m-10 0zm15-1zm15 0zq0 1 0 0m-12 0q2-1 0 0m53-1h-1zl1 1zm-84 1zm15-1zm53-1q0-2 0 0zm-10 0zq2 0 0 0zm1-1q2 0 0 0m22 0h1q1 0 0 0zm-49-1zm44 0zm4 0zm-1 0zm-69 0q1 0 0 0m55-1-1-1zl1 1zm-35 0zm0-1zm42 0q1 0 0 0m-28-1zq1 0 0 0m42 0zm-61-1zv1zm32 0zm3 0zm4 1q0-1 0 0-1 0 0 0m4-1q0 1 0 0m-25-1q-1 0 0 0zm-17 1 1-1v-1 1zm6-2zm1-2zm-4 0zm1 0zm1-1zm1 0h1q1 0 0 0zm6 0zm2 0q0-1 0 0m9 0q-1-1 1-1h1-2zm-7-1h1q1 0 0 0zm15 0zm-11 0zm7 0z" style="fill:#58daa9;stroke-width:.239894"/><path id="path317" d="M1459 1297zl1-3 2-6q0-3 1-1v3l-1 6-1 1zm5-3v-1l1-4q2-2 2-3-2 0 1-2l7-9v-1h-3l1-3 2-2-1-1v-1l1-2 1-2-1-1-1-1h-4l-5-1h-3l-3 2-2 1-1 1-1 1-3-1 1-3 2-4 5-10 1-2h-1v-2l-1-1h1l1-1v-3q1-2-3-5l-3-6v-2l-1-2q-2-1-1-3v-5q1-2-1-2l-2 1v6l-1 1v3l3 1h1v7l-2 1h-8l-3-1-2-1-2-1-2-1-1-1-2-1 2-4 2-3 1-4 2-4 1-2v-4l1-2 1-2v-1h-2v-2 3l-3 5v1l-1 1-1 4-2 2q2 1-1 4v6l-1 2-1 2v1l3 3 3 2-2 2h-2l-1 1h-3l-4 1h-1l-1-1-4 1q-10 0-9 2l-2 2-1 2-4 4q-2 3-4 1l-3-1h-3l-3 2-2 3-2-2-1-1v3h-1l-6 1q-6 1-8-2l-5-7 1-1 1-1v-1l1-2 3-3 4-8 5-7 4-1 2-2 2-2q3-2 3-5l1-4 3-3 2-2v-10l-1-1-2-1-4-4-2-1v-1l-1-2v-10q-1-2 2-5l4-5 11-6 2-1 2 1q3 2 5-1h2l2-1h2l2 2 1 1v1h2l2 1v1l8 6-1 1-3 3v2l2 5q1 9 3 5h2l1 3 4 8 3 2q4 0 7-3v-1l-1-1-2-2h-1q-2-1-2-3l1-4 1-2h2l2 1 3 2 2 4 2 3q3 5 3 2v-2c1-2 0-9-2-9v-4l-1-2-6 2-1 3h-1l-2-1-2-1-1-1-1 1-1 2h-1l-1 1v-3l2-4 1-2 1-2v-9h-1l-1 2-1 2v7-2l-1 1q-1 3-3 2l-2-1v-2l-1-1 1 1q3 1 4-2l1-2h-1v-2l1-3-1-3-3-2q-1-3-2-1l-2 1q-3-1-4 1l-1 1-1-1-2-1-2-1-2-1-1-2v-2l1-1 2-3 3-3q2 0 2 2l6 4q2 0 2-4v-3h2l2 1 5 2h6l1 1 2-3h1l1 1-1 1v3l1 2 2 2q3 0 2 2v1l2 1h1v-1l1-2h2l1 1-1 1 1-1 2-2 2-1 2 3q1 1 2-1l-2-2-2-2v-1q-1-2 1-3l3-2 3-1h2l-1-3-1-1-1 1-4 1h-2l-1 1q-3 2-2 4l-2 1-3 1-1 1-1 1h-2l-1-2h-2l1-1q2 0 2-2l1-3v-1h-1l-1-2q-1-3 2-5 3-3 7-1h3l3-1 3-1 2-1h2q0-1 0 0h8l2 3 1 1 1 2-1 1 1 4 1 5v5h-1l-1 1-1-1-2-4v-2h-1v4l-2 4 1 2 1-1v-2l1 2 1 1 1-1h1l2-1v1l1 1 1-1 1-2 1-1v-1l1 2-1 1-1 1v1l1 1 3-1 3 1 1 1q-1 1 1 1l1 1q3 1 1 2h1l1-1v-2l1-2v1l1 3 2 6v1l2-2 1-5 2-1 1-1 2-2 1 1 1 1-1 2-2 4-1 2-2 3-2 4-3-1h-1l1 2q1 3 3 0l3-2 1-1h2l-1-1v-4l1-1v-1l1-2 1-1 2-2h1l-1 1-1 2v4l1 1-1-2v-2h2l1-1v4l1 1v1h1q0 1 0 0v-7l1-1 1 1 2 1h1v2l2-2q-1-4 2-3l2-1h3l1 2h1l1 1h1l1-1h1l2-2q2-3 2-1v3l1 1-1 1v1h2v7l-1 2-1 1-2 1h-1l-2 2h3v-1h1l1 2h1-1v1a161 161 0 0 1-64 102l-3-1-2 2v3l-7 5h-3l1-2v-4l-1-2q-2 1-5 6v3q1 3-2 4zm16-83 7-3q6-6 6-13l1-2 1 2q2 4 5 4l3-2 1-3v-2l-7-10-10-11-3 1q-3 3 0 8h1-7q-9 2-13 12-2 8 2 14l4 4q5 2 9 1m-52-3q5-2 4-7l-3-3h-3l-5-1-7-3-5-6a24 24 0 0 1-4-14l-1-6q-1-2-6 0-3 1-3 10 1 11 7 19l7 6 7 4h1l1 1h10m92-35zl-1 2v3l1-1zm6 0 1-2 1-2h-1q-2 0-2 2v2zm-216 8-2-4v-1l-1 2v1l1-15 3-12 2-2q5-5 2-6v-1l2-12 3-4 4-6q4-4 4-2h3l2-1 2-2q5-3 0-5l-1-1-1-3 3-11 1-1v1l2 2 1 3-1 1-2 2-2 3 1 3 2 3v1h5l2 1 1 1h-1l-1 1h-1l-1 1h4q1-1 1 2v2l1 1 1 1 1 1v10l1 3q3 2 0 7v2h-3q-3 1 0 1l2 2h-2l-1 1h-1v1h1l2-1h1l1 3v2l-1 1h1l2 3 1 4v5q-1 3-3 2l-7 1-1 1-4 3-4 2h-4l-6-2-3 2-2 1h-2q-1 1 0 0l-1-1-1 1-2 1zm6-1zm191-27-1-2 1-1v-1q-1-3 1-2l1-1 1-1 2-2h1l2-1 2-2h2l4 1h3l1 2-2 1h-8l-3 1-2 2-2 2-1 3q0 3-2 1m-54-41h-3l-1-1v-2l-1-1v-2h1v-2h1v-1h1l1 1v1l-1 1h2v1h1q2 0 0 0l1 1q3 1 0 4zm5-14-4-3-6-2-3-1q-5-3-8-1l-8 2-1-5 2-4 1-2 1-2 5-4 1-1h5l1-1h-1v-2l1-1 12-11 1-3q1-3-2-4l-1-1 1-1 2-3h1l1 2h1v-5q2-2 5 2 2 3 4 1l1-1v-1h2l2 1 3 1h1l1 1h2l2 2-1 2v2l2-1 2-1-2 3-1 3v1l2-1 2-2h6l3 3 1 6-1-2-2-2-2-1h-1l1 1 3 3 1 2 1 1h-2v1l1 3v1-1l-4-4-4-2-1 1 2 1 3 2-2 1q0-1 0 0v1l2 1h1l-2 1h-5l1 1h2l2 1 2 1 2 1v3l-4 2h-6l-6 4q-3 4-5 4h-1l-4 2-5 1zm-121-3zv-1l2-2 2-2 2 3-1 1h-2v1l-1-1-1 1zm5-5q0-1 0 0zm12 4zl2-4 1-3-1-2-2-2-1-1q-2 1-2-1l2-4a148 148 0 0 1 69-38l5-1h-1l-2 2-1 1-1 1 2 1h1l-2 1-1 1v1l1 1 2-1h2l1-1 1 3-1 2h-2l-1 1-2 2-1-1-2-1h-1v-2l-1 1v1l-1 2v1l-1 1-1 1v-2h1-1l-2-1h-1v-1l2-2h3l1-1h-2l-1-1h-3l-1-1h-2l-1 1v-1l-1-1-4 1-6 1v2q2 0 0 0l-1 1q-3 0-1 2l1 1v2l-1 4 1 3-1 2-3 2-1 4q1 2 4-1l2-3 1 1h5l2-2 2-2 3-2q3-3 5 0l1 1v4q0 3-3 4l-2 3q2 2 5 1h1l-3 4-4 3v2h-1l1 1q2 3-1 2h-2l2 1 1 1-2 3-1 1-1-1-3-2q-2 1-2-2l-1-1-1-2-5-1-4-1v1h3l2 1q2 2 1 3h-1q-1-1 0 0l-1 1v4l3 1-1 1-2-1-2-1-2-1q-2 0-1-1h2v-1l-1-1h-2l-5-1h-2l-1-1h-2l-3 1v-1l-3 1-2 1-2 1-4-1h-2l-3 2-3 3zm65-24v-5l1-2v-1q1-2-1-3l-1-2h3l2 2h3q3 0 3-2l1-2v-1h1v-2l1-1 1-1h-1q-1 1-2-2l-1-3v-5h1l1 1v-1q-1-2 3-3h5l1 2v1h-1q-3-1-5 1l-1 1 3-1q3-2 5 1l1 1-2 1q-3 2-1 2l1 3-1 4q0 4-2 6l-1 2h-2l-1 2v4l-1 2h-4v-5l-1-1-1 3-3 4h-1v-4l-2 3zm60-24-2-1h-1l-1 1-3-2-4-1-2-1-1-1h-2l-4 1-4-1-1-1v1l-1 1h-1l-2-2-1-3v-2a96 96 0 0 1 34 6v2l-1 3zm-33-4-3-2-1-5h3l1 1 1 2 1 3v1zm-10-6z" style="fill:#a2e849;stroke-width:.239894"/><path id="path315" d="M1458 1297zm1-1zm4-2h1zq-2 0-1-1m-2-4q0-1 0 0m13-2zm-13-2zv1q-1 1-1-1m12 0zm-13-1zm7-1zm0-2 2-2zl-1 1zm2 0q0 1 0 0m5 0q0-1 0 0m-4-1zm17 0q0-1 0 0l1-1v1zm-13-11zl-1 1zm-1-2zm-19-10zm5-10zm1-1zm-1-2zm-94-3zm2-2 1-1 1-1-1 1zm94-4zm-1-2q-1 0 0 0v1zm-27 0v-1zm-1-1v-1zm-1-2q-2 0 0 0zm-2-1q2 1 0 0m2-3zm-1-2zm19-1q0-1 0 0zm-72 0 1-1zm54-1zm-46-5 1-1zl-1 1zm68 1zm-17-3q0-1 0 0v1zm17-2zm-64-1zm64 0q-2 0 0 0zm-15-4q0-1 0 0 2 0 0 0 0 1 0 0m-17-1zm1 0h1zm-3 0zm10 0 1-1 1-1-1 1zq-1 0 0 0m-14-1zm-3-2q1 0 0 0m20-3q0-1 0 0zm-24 1q0-1 0 0m-1-1zm-11 0zm43-1q0-1 0 0m-34-1-1-1zm25-1zl1 1zm-27-1q-2-1 0 0m93-1zl1 1zm-68 1zm-4 0zm-2-1zm21 0zm2 0q1 0 0 0m-4-1-1-1zq1 1 0 0m62 0zq0 1 0 0m-86 0-1-1 3 1zm87-1zm-89-1zm34 0zq0 2 0 0m-35 0zm-2-2-2-2zl1 1zm47 1zm-60-1v-1zq2 2 0 0m51 1zm8-1zq0 1 0 0m45-1zm-47-1zm4-1 1-2zm-50 1-1-2zm49-3v-1zm-15 0zm-36 0zm-11-1zm62-2q0-2 0 0zm-53-1v-2zm39 0zm7 0zm-56-1zm50 0q1 0 0 0zm4 0zm-54-1q0-1 0 0m-12 0zm22 0zm42 0zm-42-1zm33 0zm-55-2zm11 0zm10 0zm147 0q0-1 0 0m-245-1zm1 0zm149 0zm62-1v-2q2-1 0 0zv1zm-36-1q0-1 0 0v1zm-98 0zm162 1h1zm-152 0zm10-1v-1zq0 1 0 0m146 0zm-109 0zm-47-1zm154 0zm-24 0v-1q0-1 0 0zm0-1zm-42 0zm29 0zm8 0zm-30-1zm26 0zm-32 0zm31 0zm4 0zm-78-1zm-56 0zm53 0q2-1 0 0m80 0zm-2-1zm-111 0zm29 0zm10 0zq0 1 0 0m43 1q0-1 0 0 1 0 0 0m-101-2zm141 0zm-123 0q0-2 0 0zm-7 0zm130-1zm-139 0q1-1 0 0m15 0q0-1 0 0zm125 0q0-1 0 0m-11-1zm-117 0q1 0 0 0m2 0q-1 0 0 0m121 0zm-94-1q0-1 0 0zm94 0q-2 0 0 0zm-11 0q0-1 0 0m16 0zm-10-1zm-75-1 1-1zm70 1zm-123 0zm130-1zm-93 0zm101 0q-2 0 0 0zm-89 0q0 1 0 0m84-1q1 0 0 0zm-98-1zm127 1h1zm-30-1h1zm11 0zm19 1v-1l1-1-1 1zm-160-1zm136 0q0 1 0 0m7-1zm-95-1v1zm67 1zm17 0zq-1 0 0 0m19-1v-1zm5 0q0 2 0 0m-40-1zm14 1zq1 0 0 0zm-103-1zm-12 0zm2 0q0-2 0 0-2 0 0 0m96-1zq0 1 0 0m44 0 1-1zm-46 0zm36 0zm3 0q0-1 0 0m-34-1zm15 1q0-1 0 0 1 0 0 0m-98-1q1 1 0 0m-13 0zm50-1zm86 1v-1l1-1-1 1zm-113-1zm25 0zq1 0 0 0m13-1zm-7 0zh1l-1 1zm21 0zm13 0zm-8 0zm9 0q0-1 0 0m-40-1zm24 1zm-19-1zm18 0zm-20 0zm26-1zm-71 0q0-1 0 0m66 0zm-13-1zm-161 0zm183 0q0-1 0 0m-148 0zm109-1q0 2 0 0m51 0zm-87-1zm13 0q-1-1 0 0m-118-1zm173 0q0-1 0 0 2 0 0 0m-69 0zm89 0zm-78-1zm24 0q0 1 0 0m-31 0zm-76 0zm1 0zm81-1zm79 0q-2 0 0 0m-20-1zm-64-1h1l-1 1zm31 1zm-5-1zm9 0zm-17 0zm45 0zq0 2 0 0m-38 0q-1 0 0 0m-23-1zm86 0zm-71 0zm-5-1zm23 0zm21-1zm-165 0v-1zm144-1zm65 0zm-208-1zm203 0zm1 0zm2 0q1 0 0 0m-206-2zm142-1zm-141-2v-1q1 0 0 0zm142-1zm10-1h1zm-6-1zm-145-1zm160-1zm2 0h2-2m5 0zm-164-6zm28-1q1 0 0 0m-26-1zm3-2zm12-6zm5 0zm-5-1q0 1 0 0m1 0zm3 0zm-5 0zm0-4q-1 0 0 0zm111-2zm1-1zm-115 0zm118 0zm0-3q-2 0 0 0m-116-2q0-1 0 0m-2-1zm1-1 1-1zq0 1 0 0m95-7zq1 2 0 0m-34-1q0 2 0 0m-53-2zh-1zm14 1zm72-2q0 1 0 0m-74 0zm3-1zm51 0zm-1-1h1zm-51-1zm37-2zq-1 0 0 0m0 0zm-3-1zm1 0zm-41-2zm85-3zl-1 1zm58 0zm-52-1q-1 0 0 0m49-2h-1zq0 1 0 0zm1-2q0 2 0 0m0-1zm-99-1zm-1 0zm55-1zm-55-1zm31 0v-1q0-1 0 0zm26 0zm-53 0zq0-1 0 0zm5-1zq-2 0 0 0m-2-1zq0 2 0 0m21 0zm31 0zm-21 0zm18 0q1-2 0 0m48 0q0-1 0 0m-43-2zm43 0zq0 1 0 0m-75-1zm7 0zm27-1zv1zm39 1zm-86 0zm44-1zm-42 0zm46-1zm-35-1zm63-1zm-59 0h2-2m62-1zm-29-3v1zm27 1zq0-1 0 0zm-54-2zm52 0q0-1 0 0m-69-2h1zm19-1q0 1 0 0m-20-1zm47-1zm-26 0zm48 0zq1 2 0 0m-26 0zm23-1zl1 1zm-20 0q2 0 0 0 0 2 0 0m8 0-1-2zm-48 0zm-4-1h1q1 0 0 0zm45-1zm11 0q0 1 0 0m-48-1zq0 1 0 0m38 0q0 1 0 0m-32-2 1-1zm-1-2zm7 1zm-4-2q0-1 0 0m-1 0zm8 0q-2 0 0 0m13-1q0-1 0 0m-18-2zm2 0zm2 0zm5-2z" style="fill:#8be535;stroke-width:.239894"/><path id="path313" d="m1457 1297 1-2v-2l1-2 1-6 1-2 1 2-1 2-1 7-1 1zm6-3v-3l1-3 1-3 2-3 5-7 2-1 1 1-4 5-4 4-1 3-1 3-1 3zm9-5zl1-3v-2q1-3 1-1v4l-1 3zq0 2 0 0m15-8 1-1zm-16-9 1-3q3-1 1-2v-2l1-2v-1l2 1-1 2-1 2v1l1 1-1 1-1 2zm-20-10 1-3 8-14q-2 0 0 0v2l-4 7q-5 11-5 8m-88-16v-3l1-1v-2l1-1 5-6 2-4 5-8 2-1q4 0 4-2l2-2 2-3 1-2 1-3 3-4 2-2 1-3 1 1-1 3-2 3-1 1-3 6q0 3-3 5l-2 2-2 2q-4 0-7 4l-2 4-5 9-2 2q-2 1-1 2l-1 2zq0 1 0 0m96-3-1-1v-1l1-1 1-1-1-1v-2l1-1v-1 4l1 2-1 2zq0 1 0 0m-28-11-2-2 5 3zm23-5v-3l1-1v1zm-23-2 1-3 3-8 1-3 1-3 1-4 1-2v-1 1h2l-1 1-1 3-1 3q1 2-1 3l-1 4-1 5-2 2zl-1 1zm19 0v-1h2-1zm2-5v-7h1v7zm-28-12q-1 0 0 0m2 0q1 0 0 0m13-9zq0-1 0 0zm-35 0zm23-1zm-33-1-1-3h2v2zm48 0-1-2q4 1 7-2v-1h1l1 1-3 3zm17-4zl1-1v-8l1 2v9zm-16-6v-5l1-1 1-1 2-1 1 1 1 1h1l2 2 1 1-1-1-2-1-2-1h-2l-1 2-1 1v4zm-59-2zv-2l-1-4v-3l1-2q-2-3 1-4l5-7 2-1 9-5h8l3-1h2l2-1 1 1v1h-2l-2 1h-2q-2 3-5 1h-5l-9 5-2 2-3 4q-4 3-2 5l-1 3v3l1 4v1zm47-1 1-1 1-1 1 1-1 1zm26-3zl1-2q0-4 1 0zm-18-2v-2l1-2 1-2 1-1v-10h2l-1 3 1 4-1 4-1 2-1 2-2 3zm-131-1zq1 2 0 0m87-2zm10 0zm113 0v-2l1-1 1-1-1 2zm34 0-1-1zq1 2 0 0m-3 0h-1l-1-1h3zm-154-1zm117 0zl1-1 4-3h2l-1 1v1q-3 3-5 3m13-1v-3l1-2h1l-1 2zm-120-2zm29 0-1-3h1q3 2 4-1l1-1q1 2-1 4h-3zm85-1-1-1h1zm9-3-1-1v-7l2-1 3 2h-3q0-2-1 1v6m-11 0 1-2 1-3 2-3 1-2h1l-1 2-2 2v3l-1 1zm-5-1v-3l3-6 1-2 2-1 1-1 1 1v1l-2 2-2 2-2 2v3zm-84-2-3-3-1-1 1 1zm95 1zv-1l1-2 1-1h1l-1 2h-1v1zm-85-1v-2l1-3v-1h1v2zm95-1zv-1l1-3v-1l1-1h5l2 1h-3l-2 1q-3 0-2 2zm19-1 1-2 1 1zm-46-2 1-2v-3l1-2v7zm39 0-1-1h-1v-1h1l1 1v-1h1l1-1 1-2q2-2 3-1l-1 2-2 3h-1zm-125-1zl1-1 2 1v1h-3m84-2-1-1 2 1zm-43-1v-5h3q2 0-1 2l-1 2zm-111 0zm145-2q-1-1 3-1l3 1h-2l-2 1zm-36 0zm7 0v-1h-1l1-1 1-2h2zm6 0v-3l1 1v2zm15-1v-1l2-1 2 1h-1l-2 1zm-2 1-1-2v-1l1-1v-1 2l1 2zm7-1zq-1 0 0 0l1-1v-1l1-2 1-1v3l-1 1v2h-1zm-73-1-1-2 1-3 2-2q2-4 4-3v1l-3 3-2 3-1 2zm37-1zl2 1zm-109-1zl1 1zm159 0-1-1 1-2v-1l-1-1 1-1h1l2-2 2-1 1-1 2-1 1-1h7l1 1h2l-1 1h-1l-4-1-4 1-2 2-1 1-2 1-1 1-1 1h-1v3zq0 2 0 0m-195-1 2-3 1-2 1-1v2l-4 5zm119-1-2-3 1 1q3 3 4 1v-4l1-2v-1l2 1h1l1 1 2 1h5q2-2 4 1 2 1 3-2v-1h1q2 1-1 3v1l-1 1-1-1-2-1h-2l-3 1-2-1h-1l-2-2h-2l-1 1v1l-2 5zm23-1zm16 1-1-2 1-2 2-2 5-1 2-1q0-2 0 0l1 2h-2l-3 1h-1l-3 2zm18-1-1-3 1 1zq0 1 0 0m-140 0q-1 0 0 0h1zm110-1h-1l-1-2q1 1 1-1 0-3 2-3h1l-1 2-1 2zm-143-5zl2-5zm142-3-1-2 2-4q3-3 8-2l2 1 3-1 4-2h1l5-1h5l3 3-2-1h-4l-3-1-1 1h-1l-1 1-5 1-5 1q-3-2-8 1zm-138-9 2-5zq0 2 0 0m2-6 2-2 2-4 1-1h6l2-1-3 3h-2l-1-1-1 1-3 2-2 2zm29 0zm-6-6zh2zm-5-4v-1l1-1h2v1h2q3 1 0 1h-5q-1 1 0 0m110-5-1-2zq0 2 0 0m-112 0zm-4-1v-2q1-6 3-7l-1 5-1 5zm122-1zm0 0zm-7-1v-1l1-2h2l-1-1v-1h1l1 1-1 1v1h1-1q-2 0-1 1l-1 1zq0 1 0 0m5 0zm-1-1zq0-1 0 0zm-98-13 2-4 1-2q0-1 0 0h1v1l-1 2-1 2zm41 0v-1zm34-1zv-6l4-5 2-2 3-3 1-1 1 1h1l3-1v-2l1-2c3-1 11-9 12-10l1-4v-1l1 3v2l-1 1-6 6-7 6h-1l1 1v2h-5l-4 4-2 1-3 6-1 4zq0 1 0 0m-86-2zm46 0zl3 1v1h-2zm12-2zm8-1zq1 0 0 0 0 2 0 0m-53-2v-1zm43 0q0-1 0 0 2 0 0 0m-4-1h-1l-3-1h2zq1 2 0 0m98-7-3-1-3-1h4l1 1h1l1 1h1-2m-79-2h-1l-1-1h1l3-1h1l-1 1zm77-2v-1h2v1zm-98-2-1-2 3-2 2-1h1l3 1h1l2-2 3-3 3-1 3-2 1 1v1l-3 2h-2l-2 1-2 2-1 2h-5l-1-1-2 2zm26-1-1-1 1-5v-1l1-2 1 1v2l-1 2v3zm3 0 1-3v2zm68-1q-3-1-1-2zl1 1zm-62-1v-2l1-1v3zm68-3zm-3-2zm-70-3-1-1h1l2-1q3 0 4-2l1-2v-1l1-1 1-1h1l1-1v1l-1 1-1 1v1l-1 1v1l-1 1q0 3-2 3h-5m61 0 1-3 2-1h1l1 1v-1l1-1 2 2 4 2-2-1-3-1v1h-2l-1-1zm-66-2zl1-1 2 1-1 1h-2m65-2v-1l3-2-1 1zq0 1 0 0m-68-2q-1-1 0 0zm39-2zl1-1 2-3 1 1-1 1-1 2zm-42-1v-1l1-1h2l1-1h1q1 2-2 2l-2 1v1zm48-1zv-2l-1-2 3-1 2 2q2 2 0 0h-3v3q0 3-1 1m22 0-1-1h-3l-3-1-2-1h-2v1l-2 1h-2v-1h2l1-2v-1h2l2 1q1 2 2 1h2l1 1zm-62-1q0-1 0 0-1 0 0 0m11 0-1-2-1-3-1-3 1-2h1v7zm-8-3 1-1 1-1h3v2h-3zm12-3q1-2 4-2h2v1q-2-2-5 1zm-4-2zv-1l1-2h3l5 1h-5l-2 1-1 2zm19-1v-2q0-1 0 0l1 3zm-7-1-1-3zv2z" style="fill:#5edf01;stroke-width:.239894"/><path id="path311" d="M1422 1208q-18-2-25-21l-1-11v-6l4-3 4 1 1 6q0 11 6 17 5 6 15 7h3c4 2 3 8-1 10zm53-3q-3-2-4-6-1-5 2-10 9-6 14 1v9q-3 5-9 6zm23-7-1-1-14-22q1-6 7-3l14 21q0 3-3 5zm-86-76-3-4c-3-5 1-13 7-14q3-1 5 1c6 3 5 13-2 17h-7m22-10-5-6-12-15 2-5q3-1 5 1l15 18c2 4-1 9-5 7" style="fill:#020210;stroke-width:.239894"/></g><g id="g291"><path id="path307" d="m302 1883 1-57a151 151 0 0 0 107 119 167 167 0 0 0 79 5 150 150 0 0 0 83-46 143 143 0 0 0 33-77v-25a147 147 0 0 0-49-98 164 164 0 0 0-101-41h151v290H302Zm0-156v-64h135a166 166 0 0 0-71 23l-3 2-29 25a136 136 0 0 0-32 75z" style="fill:#fefefe;stroke-width:.239995"/><path id="path305" d="M556 1919q0-1 0 0m-201-5q-1-2 0 0m207-1h1zm-212-3zm-5-5-3-3zl2 2zm225 1zl-1 1zm-230-6zm-2-3zm-2-1zm-3-4zm65-29h-2l-2-1-5-2-1-1h-1l-3-4-3-5v-3l1-1v-1l1-1 1-2q1-4 2-2 0-1 0 0v-2h1v-1l1-1v-1l1-3 1-1 5-1 1-1q0 1 0 0l6 1c3 0 8 3 7 4h1l1 1 1 1h1v2h1v1l1 1q-1 0 0 0v2l1 1v4l-1 7-1 1h-1v2h-1l-2 2v1l-6 3zm5-2zh1zm-1 0zm-6 0zm-2-1zm-4-2zm4 0zm5 0zm7 0q0-1 0 0m-4-1zm-11 0zm2 0q0-1 0 0m1 0zm6 0 1-1 3-1 4-3h1v-10q0 1 0 0l-1-1-1-1-1-1-1-2q0 1 0 0h-2l-2-1-1-1v1l-3-1v1h-3l-1 1h-1q2 0 0 0l-1 2-3 3v7l2 4 1 1h1l4 2 1 1h2q0-1 0 0zm6-1q-1-1 0 0 0 2 0 0m7 0zm1-3zm-5-1zm-24-1q0-1 0 0zm25-2q2-2 0 0m1-1q1 0 0 0zq-1 0 0 0zm-24 1zm-3-1zm27-2zm-27 0q-1 0 0 0m32 0q0-1 0 0zm-1-1zm-31 0zm28-1zm2 0zm-28-1q0-2 0 0m27 0q-1 0 0 0m-28-1zm27-2q0 1 0 0m-4 0zm1-2q1 0 0 0 0 2 0 0m-2-1zm-14-1zm17 0zq2 0 0 0m-6-1zv-1 1zm4-1zm2 1zm-7-1zm3-1zm-6-1zm-2 0zm8 0zm-3-1zm-5-1zm-95-6zm302-20zm-145-44zh-2l-1-1h-2l-1-1h-1l-1-1-1-1-1-1v-1h-1l-1-1v-1l-1-2-1-3q0-1 0 0v-5l9-12 2-2h1q0-1 0 0 1 0 0 0l8-1 1 1h2l2 1 1 1 2 1 3 3 3 5 1 2q-1 0 0 0v3l-1 3q0-1 0 0h1v1h-1v3q-1 0 0 0l-1 1v1q0-2 0 0l-2 1q1 1-1 2l-3 3-6 2zm6-1zm3 0zm-12-1q0-1 0 0m-1-1q0-1 0 0m7 0zm4-2q1 0 0 0m-2 0zm9-1zm-12 0zm-9-1zm13 0h1l3-1 1-1 1-1 1-1v-1q2-3 1-6l-1-4-1-1-5-4h-7v-1l-1 1-1 1h-1l-2 1-3 6 1 4v2l1 1 1 1 1 2q2 0 2 2h1q1 0 0 0h7m10 0q0 2 0 0m0-1q1 0 0 0zm0 0zm1 0zm-3-1zm-20-1zm21-1q-2 0 0 0m-23-1zm25-1q0-1 0 0v1zm-3 0zm-25 0zq1 0 0 0m27 0zm-28-1zm-1 0q0-1 0 0m2-1zm29-1zm-31-1q0 1 0 0 1 0 0 0m33 0zm-31-1zm29 1zm-31-1zm3-1q-1 0 0 0m29-1zm-3-1zm-25 0zm24-1q-1 0 0 0m1-3q-2 0 0 0zm-23 0zm24 0zq1 0 0 0m-7-1zq0-2 0 0zm3 0zm-18-1zm15-1zm-14-1zm8 0zm6 0zm-14-1zm15 0zm-10-1q0 1 0 0m4-1q0 1 0 0m-145 5q0 1 0 0m252-11q0-1 0 0zm-1-2q-1 0 0 0m-2-2zm-1-2zm-4-3-1-1zl1 1zm-5-6-1-1zv1zm-3-3q-1 0 0 0zm-211-2zm207-1q-2 0 0 0zm-204-2zm1-1zm2-1zq1 0 0 0zm11-9zm109-23zm-1-1zm-6 0" style="fill:#e0e1d2;stroke-width:.239995"/><path id="path303" d="M453 1952zq-1 0 0 0m13 0h1zm-18 0zm23 0q1 0 0 0m-26 0zm-2-1zm33 1zm2-1zm2 0zm-44 0q0-2 0 0-2 0 0 0m48 0q0-2 0 0-1 0 0 0m-53-1zm-25-7zm-3-1zm-20-9q-1-1 0 0m171-12zq1 0 0 0zm1-1zq1 0 0 0zm-195-2zm196 0zm-197-1zm199 0zm-200-1zm-1-1zm203 0zm-205-1zm-1-1zq0 1 0 0m-2-2zm-3-3-1-1zl1 2zm221-3 1-1h1-1zm3-2zm-231-2-1-1zl1 2zm232 0q0-1 0 0m-235-3zl1 1zm237 1zq2 0 0 0zm-239-2zm240-1zm-242-2zm-1-2q-1 0 0 0zm-1-1q-1 0 0 0 0 1 0 0m-2-2q1 0 0 0m-12-18zm-2-4zv1zm-2-3q0-2 1-1zm81-1zh1zm5 0zm2 0q1 0 0 0m1-1zm1 0zm-2 0zm5-1 2-1v-1l2-2h1v-1l-2 3zq-4 1 0 0m-7 0zm-6 0zm-1-1zm-5 0q0 2 0 0m-1-1zq0 1 0 0m2 0zm4-1q0 1 0 0m5 0zm-13 0-1-1zq1 1 0 0m20 0q0-1 0 0m-5-1zm-11 0zm3 0q0-1 0 0m1 0zm6 0zv1h-2l-1-1-4-2h-1l-1-1-2-4v-2 1q1 4 6 7l5 1 4-1 3-1q3-3 3-8l-1-5-5-4-5-1-4 1-5 4-1 3v1-3l3-3 1-2q1 0 0 0h1v-1h3l1-1 3 1v-1l1 1 2 1h2l2 3 1 1 1 1q0 1 0 0v10h-1q2 0 0 0l-1 1q-2 3-6 3zm6-1q-1-1 0 0 0 2 0 0m-22 0zm-72 0zm100 0 1-1zm1-1h1zm2-1v-1l-1 2zm-104 1zm102-3zm-31 0zm2-1zq0-1 0 0zm-3-1q0-2 0 0m0-2zm29 1q2-1 0 0m1 0zq1 0 0 0zq-1 0 0 0m-25 0zm30-1v-3l1 2zm-32 0zm-3-1 5-7q-1-2-2 2l-1 2-1 1v1zm29-1zm-26 0q1 0 0 0m31 0zq0-1 0 0zm-1-1zm-30 0zm27-1zm3-1zm-28 0q0-2 0 0m27 0q-1 0 0 0m-28-1zm27-2q0 2 0 0m-4-1zm6 0v-1zm-5-1q1 0 0 0 0 1 0 0m4 0zq0 1 0 0zm-7-1zm7-1zq0 2 0 0m-3 0zq1 0 0 0m2-1zm-9 0zm4-1zm3 1zm-8-1zm4 0zm3 0v-1zm-104-1zm95-1zm204 1zm-207-1zm8 0zm-3-1zm4 0q1 0 0 0m199 0q0-1 0 0m-201-1zm-7 0zm5 0zm-7 0zq0 1 0 0zm-91-1zm90 0zm6 0q1 0 0 0m205 0q0-1 0 0m0-3zm-302-1zm302-2zm-303-2zm304-2q0-1 0 0zm0-1zm-304-1q0 1 0 0m0-2zm0-3q0-1 0 0m304-2zm0-1zq0 1 0 0m-1-4zm0-4zm-1-6zm0-2zm-302-2q0-1 0 0m0-3q0 1 0 0m0-2q0-1 0 0m0-4zm160-22h4-4m-2 0zm7 0zm-8-1zm9 0zm-10 0zm12 0q2 0 0 0zm-5 0zm3 0zm3 0 3-2zm-16-1zm2 0q0-1 0 0m-4-1zm3 0q0-1 0 0m7 0zm13-2q2-1 1-2l2-1q0-1 0 0v-1l-4 6zm-25 0zv1zm16 0q1 0 0 0m-2 0zm8-1zm-12 0zm-12-1zm3 0zm10 0h-3q1 0 0 0h-1q0-2-2-2l-1-2-1-1-1-1v-2l-1-4 3-6 2-1h1l1-1 1-1v1h7l1 1 4 3 1 1v1l1 3q1 3-1 6v1l-1 1-1 1-1 1-3 1h-5m4 0 5-3q4-3 3-8l-3-6q-5-4-11-3l-7 5v9l5 5zm10 0q0 2 0 0m-27-1zm27 1zq2 0 0 0zm-1-1zm2 0zm-4-1zm7-1zm-33 0v-1q0-1 0 0zq1 0 0 0m6 0zm21-1zm-23-1zm26 0v-1zm4-1zq-1 2 0 0m-7 0zm-25 0zq2 0 0 0m-3-1q0-1 0 0 0 2 0 0m29 0zm-28 0zm34 0zq0-1 0 0zm-34 0q0-1 0 0m-2-1zm3-1zm30 0zm-33-1 8-11 3-5h1l-2 2-1 1-2 2zm2 0q1 0 0 0 0 1 0 0m32 0zm-31 0zm29-1zm4-1zm-31 0q-1 0 0 0m29-1zm2 0q-1 0 0 0m-6-1zm-24 0zm29 0zm-5-1q-1 0 0 0m1-3q-1 0 0 0zm-23 0zm24 0zq1 0 0 0m-8-1q0-2 0 0zm3 0zm-17 0zm22-1zm-8-1zm7-1-1-1zl1 1zm-21 0zm8 0zm6 0zm-14-1zm19 0zm-4 0zm-9-1q0 1 0 0m11 0zm-2-2zm-1 0q-1 0 0 0m-12 0zm1 0zm9 0 1-1zm-8-1q1 0 0 0m1 0h5zm6 0q-1 0 0 0m109 0q0-1 0 0 2 0 0 0m-2-3zm0-1zm-2-1zm-243 0zq2 0 0 0zm1-1zm241-1zm-241 0zm239-1zv1zm-238 0zm2-2zm234-1zl1 1zm-233 0zm1-2zm227-3-2-2zl3 2zm-226 2zl1-1-1 1zm2-3 2-1 2-2-2 2zm220-3-1-1zm-216-1 2-2 2-1-2 2zm213-2zm-2-1zm-205-2zm203-1q-1 0 0 0zm-201-1zm198 0zm-197-1zm1-1zq0-1 0 0zm4-2zq2 0 0 0zm186-1q-1-1 0 0m-185 0zq2 0 0 0zm1-1q2-1 0 0m16-10zm148-1q2 0 0 0m-2-1-1-1 3 2zm-10-5zm-4-1zm-4-2zq2 2 0 0m-5-2zm-10-2zm-75-1q1 0 0 0m68-1q1 0 0 0m-60-1zm2 0q-1 0 0 0m53 0q-1 0 0 0m-52 0zm50 0zm-49 0zm2-1zm2 0q1 0 0 0m40 0zm-38 0zm36 0zm-34 0zm32 0q1 0 0 0m-29-1zq1 0 0 0zm26 0zm-23 0zm20 0zm-15 0h1q1 0 0 0zm2 0zm8 0h1zq-1 0 0 0" style="fill:#dee0d1;stroke-width:.239995"/><path id="path301" d="M464 1952v-2l4 1 1 1zm-31-2-18-4 2-1q4 1 5-2l1-2 1-1h3l4 2 1 2 1 1v3l1 1 1 1zm71-5zl1-2 1-2-3-4-1-1-1-2q1-2 1 1h1l-4-6-1-1q-3 1-3-6l1-4q2-2-2-5l-6-5-2-2-5-9-2-1h-2l-2 1-3 2-4 4q-1 2-2 1l-1 1h-1l-2 2-1 1-2 2v1l-1-2-2-1h-2q-4 0-7 3l-2 2-1 1h-1l-3 1-1 1h-4l-1 2q0 1 0 0l-1 2-3 3h-1l-1 1q-2 0 0 0v1l-1 1q-1-1-1 1v1h-1l-1 1v4l1 1v2l-1 2-1 1-1 1-2 1-5-2-2-1-3 3q-2 3-3 1l-1-1h-2l1-1h1l-1-1-1-1-1-2-2 1-3 3-9-5-1-2v-3l2-2 1-1q1-2 3-1l5 1 1-1v-1q3-1-1-2l-2-2-2-1q-3 0-3-2v-2l-1-7-2-2-3-3q-2 0 0 0h1l-1-1-1-3-1-2 1-1q2-1-1-3l-1-5v-1l1 1 1-2-1-1h1l1 1v-4l1-3v-3h-1l-1-1v3h-1v1l-1 1h-3l-1-1v-1l-1 1-2 2-1-1 1-4 2-2 1-1 1-3v-6l-3-2-2 1-1 2v-3l-2 2-1 1-1-1h-1q-1 2-2-1l-5-3-4-1 1 2 1 1h-1l-2-1h-1l1 1 2 4v1l-3-1-3-2h-2l-3 1h-1v1l-1 1-1 1-1 2v2l3 3 2 2 3 3q4 0 4 3v4l2 2 3 2-3-1-2-2-1-1-2 2-2 1h-3l-4 2-2 3-1-2-2-2v2l-2-2-3-4-2-5 1-1v-2l-1-1v-2l1-1 1 1h2l1-1v-1l1-1v-3h1l1-2h-8v-1l1-1v-4l1-1-2-1-2-1v-1l-1-1-1-1v-1l2-1h2v1-1h1l2 1q3-1 4 3l1 2v2h-1v2h-1v1l2 2 1-2 1-1 2-1h5l2-1 2-1v-1l1-1q2-1-1-1l-1-1v-1l2-1-2-2-4-1h-2 1l1-1v-1h1l1-1-1-2v-3h-2l-5 1q-2 2-3-1l-3-2h-5l-4 1q-3 0-5 3l-2-1-2-2-1 2v1l-1 1v1-1l-1-1-2 2v1l-1 1-1-1v-2l1-1c2-1 4-6 4-7l-2-2-3 2-2 2v1-1q-1-3 2-4l1-1 1-2 1-2v-1l-1-1h-2l1-2-1-3-2-5-1-2 1-1v-4l-1-1 1-4v-4l-1-1 1-1v-2l-2-4h-3l-1 1v-3l2-20a137 137 0 0 1 97-105h1v1l-1 1-1 1q-3 0-2 2l-1 1-1 1 5 3q1-1 1 1l1 1h1l-1 1v1l-1 1v3l1 3 1 2 1 2h1l2-1 2 1-1 1-1 3v3h2l3-1 4-2-2 1-3 3v1h-2v1l2 2 3 1-4-1-3-1 1 2v1l-2 4 1 1 2 1 1 1 2 1h7q2 0 0 0l-5 4-2 2q-3 0-1 1l-1 1v1h2l2-1 1 1-1 1v2l-1 2v1l-1 1v5l1 2q0 1 0 0h-1l-1-2-3 3v1l-1 1h1l3 1h1l1 1h1l-1 1h-1l-2-1-4 2-5 3q-2 4-4 2l-2 1-1 2-2 2-1 1-1 5 1 4 1 4 1 1v1l2 2 2 3q3 2 3 6l1 4q2 5 6 5l4-2 1-1 2-1h4v1l-1 1-1 1-1 2 2 1q4 0 2 2l-1 3 2 2 1 3v9l-1 1h4l3-1 2 1 1 1-3 6v1l-1 1-1 2q2 2 6 3l2 1 2 1 3-3 3-5v-7l-3-3v-1l-1-2-1-1 1-2 1-3 4-1h3v-2h2l3 1v4l3-3 1-1v-2q0-3-3-3l-1-1h8q3-1 1-2h1q2-1 1-2l-2-1v-1h-1l-2-1v-1h3q2 3 4 1l1-1 2-2 1-3 1-2v-1l1-1 3 2q3 3 2 7l-7 7-4 5 2 2q2 1-2 3l-6 4-2 2-1-1-3-2-1-1-1 1v1l-1 1-4 11-1 3v1l-1 2-1 1v2l1 3 1 3 2 2q2 1 1 5v3l2 2 7 8 4 2 5 2q5 3 6 1l3-1 4-1 3-2 3-1v-1l1-2 1-1q-1 0 1-4l3-6 1-1 3-1q0-2 4-2l4 1q0 2 4 2h5q3 0 5 2l4 1 2 3 3 3 8 3 9 1 6 3h6l7-10v-3l-1-7-3-7-2 1-1 1v-2q2-3 1-4l-3-1-3-2v-1q0-3-2-3v-2l1-3-3-3-5-3h-3l-2-1-3-2-5-12 1-1-1-4-2-3-1-2-2-3-2-2h-1l-1 2-1 3-1 4h-4l1-2v-2l1-1v-3l1-3v-1l-1-1v-4l1-2h-1v-1l-1-4-1-2q0-3-2-3l-2 1-4 2h-1l1-1 4-6q2-5 4-4l2-1 1-1h1l1 1h1l2-1v-2l2 1 9 2 11 1 1-1v-1l1-4v-2h-1l-2-1-2-1q-3-1-3-5l-1-6-2-5 3-1h2l1-1h1v-1l2 1 4 1 1-1v-1l1-1 5 1 2 1 2 1q3 2 5 1h2l1 1h1-2l-2 3-1 1v1h2l9-1h4l2 1 3 5a147 147 0 0 1 23 99 137 137 0 0 1-100 111m-100-82q7-2 11-9l2-8q-1-6-6-11-8-8-19-5l-2 1 1-2q2-4-1-6l-4-2-4 2-4 8-5 7-2-3-2-2q-2-4-2-8v-11l1-10-5-5-3-4-3-4-1-2q-1-3-6-5-4-2-6-5l-1-3q0-2-3-5-1-3-3-2l-2 2-1 2-1 2v1l-2-2-1 1v1h-1l-4 7 1-4 1-3 2-4q1-3-1-1l-2 2h-1v-1l-2 1v1l-3 4-1 1 2-4 2-3-4 2-4 3-1 2-1 4v3l1 1v2l1 1h-3l3 2 1 1h-2l-3-1 1 1 1 1h-1l-1 1-1 2-1 2-1 2h1v2l-1 1 1 1v8l1 1v-1l1-1 1 1 1 2v2h-1l-1 3-1 3 3 2 2-1 1-1 1 1-1 1v3l5 1 1-1v-1l1-1 2-2h5l16 10 1-1h2l1 4v1l1 2 5 2 2 1 6 2q4 1 6-2v3q-3 5 0 7 1 3 4 2l5-4 1-3h1v3q4 8 12 11 6 2 11 1m-75-84zm52 36 1-2 3-2v-1l1-2v-2l-1-3-2-1h-2l-1 2-1 1v1q0 3-1 1v1l-1 1-1 1-1 1v3l1-1h1v2l1-1 1 1zm-4-3zm27-81zv1l1-1 2-2 1-1 1-1-2-2h-4l-3-1-3-3-1-2-1-2-2-4-1-3-1-1-1 1-1 1v10l3 4 2 2 2 1 1 1 2 1 1 1 1 1zm21 207q0-1 0 0-1 0 0 0m-94-67zm-10-5h-2l-2-1-1-2q-1-1-1-3h1l1-1v2h-1v1h2l4-2 1-1v1l-1 2 1 2 1 1v1l-3-2zv1zm123-69 4-2h2l-2 1-1 1-6 1zm-25-4zh1zm2-2zv-1h1l1-1h-1v-1l2-3v-1l-1-1-1-1-2-1-1-2q0-2-2-2h-5l-1-2-1-3v-1l1 1q-1 2 2 2l2 1 1 1 1-1 2-1 1-2v-1l2-3 1 1-1 1v1l-1 2h-1l2 2 3 2-1 1 1 3h4l-1 2-1 1v1l-1 2-1 2-1 1zm75-3h-5l-2-1h-5l3-1h16l3 1 1 1h-11m-15-1zm-24-1q0-1 0 0m-2-5-4-5h1l2-1 1-1 1-1 1-1 4-3 3-1h3l-1 2-3 3-2 3-2 4q-1 2-3 2zm-48-13-1-2h2v2l1 1zm84 0q-1-1 1-1l3-1h1l2-1 1-1v-2l3-1 1 1 1 1h-3l1 1v3h-3l-7 1zm-81-15 3-4 1-1v1l2 1h1l-1 1-1 1v1h-3zq-3 2-1-1m6 1 1-1zm-4-12h2zm151-20q2-1 0 0m-6-1-2-1h1l3 1zm4-2q-5-1-5-2l1-1 3-1h4v-2l4 5-2 1-3 1zm-133-4 1-1zm-7-5 1-1 1-1v2h-2m2-2zv1zm-7-3h1l-2 1zm133-1-1-3h1v-1l2 1 2 2 1 1zm-134-36-1-1 3-1h1l-1 1v1q1 3-2 0" style="fill:#2cd0fa;stroke-width:.239995"/><path id="path299" d="M463 1952zl1 1h-2zm6 0zq-1 0 0 0m-34-2q-2 0 0 0 1 0 0 0zv1zm31 0q-1 0 0 0m-33 0zm0-2zm0-2zm-18 0zm-1 0zm91 0zq3 0 1 1zm-87-1zm85 0q0 1 0 0m-83 0q-1 0 0 0m83 0zm-82 0 1-1q0-1 0 0zq-1 0 0 0m12-1q-2 0 0 0zm71 0zm-97-1q-1 0 0 0 0 2 0 0m10 0h1q1 0 0 0zm2-2zm99 0h1zm-94-1zm96 0zm-123 0zm17-1zm107 1zm-125-1zm28 0zm-21 0zm121-1h1zm-130 0zm5 1zq2 0 0 0zm24-1zm80-1zm-112 0q-1 0 0 0zm32 0zm1-1q0-1 0 0 1 0 0 0m-37-1zq1 0 0 0m114 0q-1 0 0 0m31-1zm1 0zl1-1zm-146-1q2 0 0 0 0 1 0 0m148 0zm2-1 2-1zm-150-1zm37-1q0 1 0 0m115 0zm2-1zm-116-1zm70 0zq2 0 0 0m-106-1zm36 0v-1zq0 2 0 0m-32-1q-2 0 0 0zm153 0zv-1zm-120 0q1 0 0 0m-35 0zm36-1q0 1 0 0m67 0zm-95 0q-1 0 0 0m149 0zh1zm-54-1zm-95-1zm151 0zm1-1zm-118-3zm-42-1q0 2 0 0m-1-2zm170-1zl-1 1zm-117-1zm122-4zl-5 5zm-124 4zm52-1-1-1zm-103 0q0-2 0 0m55-1zm-55-1zm68-1q0 2 0 0m-11 0zm12-2zm-70 0q-1 0 0 0m65 0q1 0 0 0m6 0zm1-1zm23-1zm-99-1zm187-2 2-2zl-1 2zm-107 1q-1 0 0 0m-81 0zm83-2zl1-1zm107-2zv1zm-105 1v-1l1-1v1zm106-2zm-192 0zm193-1zm1-1q2-1 0 0m-101-1q1 0 0 0 0 2 0 0m3 0q1 0 0 0m-1 0q-1 0 0 0m100 0zq-1 0 0 0m-236-1q0-1 0 0m236 0zq0-1 0 0zm-240-1q0-2 0 0 0 1 0 0m45-1zm-45-1q0 2 0 0m243 0v-1zm-235 0q0-1 0 0m12-1q-1 0 0 0m-24-1zq0 2 0 0m18 0q1-1 0 0m2-2zm-21-1q0-2 0 0m22-1q0-1 0 0zm28 0zm-52-3 1 1zm43 0zm1-1zq0 2 0 0m-43 0q0-2 0 0m21-1zm21 0zm214 0zm-210 0zv-1 1zm5 0q0-1 0 0m-51 0q0-1 0 0 1 0 0 0m53 0zm204-2zm-241 0q1 0 0 0m35 0zm3 0zm-2-1q0-1 0 0m207-4 2-4zm-260 2zm53 1zm-38-1zm30-1zv-1zm-31 0q0 1 0 0m-9 0zq0-1 0 0zm8-1q-2-1 0 0m-7-1q2-1 0 0 0 2 0 0m-5-2zv-1zm4 0zm8-1zm34 0zm216-1zm-250 0zm14-1zq-1 0 0 0m-19 0 1-1v-1zm-8 0zm15-1zm9 0-1-1zm24-1q0-1 0 0m-31 0zm19 0zm228 0zm-258-1q0 2 0 0m37 0zq0-1 0 0zq0 1 0 0m-50 0q0-2 0 0m27 0h1zm-13-1q1 0 0 0zm35 0zm223 0q0 2 0 0m-280 0-2-4q1 0 0 0zm26 0q0-1 0 0m5 0 2-1-1 1zm-24 0zm9 0zm24-1zm19 0q1 0 0 0m24 0zm197 0zm-257-1zm11 1zq2 0 0 0zm-18-1q1 0 0 0 0 2 0 0m25 1q0-2 0 0m-40-1h1q1 0 0 0zm5 0q0-1 0 0 1 0 0 0m147 0zm-111-1q-1 0 0 0zm113 0 1-1zm-120 0h1q2 0 0 0zm-28-2 2-1h-1zm34 2zq1 0 0 0m-42-1 1-1h1l-1 1zm160 0q1 0 0 0m2-1zm-148-1zm22 1zq2 0 0 0zm199-2zm4 0 1-1zq0 1 0 0m-228 0q1 0 0 0zm221 0zm-210-1q-1 0 0 0zm-6 0zm153-1q0-1 0 0m-156 0q-2 0 0 0m2 0h-1zm21-1zm22 1q1 0 0 0m226-1zm-194 0zm-14-1zm-42 0zm28 0zm108 0zm-139 0zm193 0h1zm-195 0h2zm194 0q-1 0 0 0m-227-1zq0 1 0 0m141 0zm80 1h1zm4 0q-1 0 0 0m-129 0zq1 0 0 0zm193-1zm-253-1 1-1 1 1h-2m103-1zm-138 0zm212 0v-1zh1zm-214-1zl1-1 1-1-1 1zv1zm291 1zm0-1q0-1 0 0m-287 0v-2l1 1zm287-1q0-2 0 0 2 0 0 0m-221 0zm-59-1zm-2-1zm-3 0q0-2 0 0m72 0zm214 0q0-1 0 0m-280-1 1-1zm20 1zm6-1q-2 0 0 0zm141 0q0 1 0 0m-172 0zm21 0q0-1 0 0m6 0h2zm22 0zq-2 0 0 0m195-1zm41 1q0-1 0 0m-278-1zm47 0v-1zm-46 0zm35 0zm-32-1zq0 1 0 0zm9 0q0 1 0 0-1 0 0 0m-7 0q-1 0 0 0m-23-1v-2l2-2 2-1q0-2 0 0l-1 1q-3 1-2 4zl1-1 1-1-1 1-1 1zm25 1zm56 0zh1zm60-1zm42 0q0 1 0 0m113 0q0-1 0 0m-94-1zm-18 0zm1 0zl1-1zm-183 0zm195 0zm99-1zm-251 0zm-37 0zm187 0zm-96-1zl1 1zm197 0zm-292 0q0-1 0 0m62 0zm-60-1q0-1 0 0-1 0 0 0m184 0zm-1 0q1 0 0 0m-52-1zm160 0q0-1 0 0m-254-1q0-2 0 0zm254-1q0 1 0 0m-292 0zm35-2zl-1 1zm96 1zm161 0zm-291-1zm291-1zm-215-1zm167 0zq-1 0 0 0m49-1q0-1 0 0m-168 0 1-1h1-1zm5-1zm-44 0q1 0 0 0m-79 0zm2 0zm284-1zm-295 0zm11 0zm118 0zm-73-1zm60-2zm179 0q0-1 0 0 0 2 0 0m-291-1 2-1q2 0 0 0zl-2 1zm2 1 1-1q0-1 0 0zm-5-1zm55 0zm-42 0q1 0 0 0m6 0zm112-1zm107 0zm-239 0zm16 0zm279-1zm-177 0 1-1zm-120 0-1-1zm134-1zm-56 0h1zm59 0zq-2 0 0 0m-78-1 1-1zm-60 0v-1zm135-1zm4-1v1zm-138 0zm4-1zm294-3v-2zm-226 2zm45-1zm-48 0zh1zm53 0zm-55-1zh1q0 1 0 0zm52 0zm-119 0zm74 0zq-1 0 0 0m40-1q0-1 0 0zm-112 0 1-1zq0 1 0 0m73 0 1-1 1-1zq-1 0 0 0m-74-2zm58 1q0-1 0 0m11-1zm61 0zm-63 0zm82-2 2-1zl-2 2zm-36 1v-1l1-1-1 1zm-114 0zm141 0 1-1zm-71-2zm162 0zm-232 0zm70 0zm44-2zm38 1zq0-1 0 0zm145-1zm-296 0zm70 0q0-1 0 0zm6 0zm-77 0zm131-1zm12 0 1-1 2-1-1 1zm82 0zm-70 0q0 1 0 0m-41 0q0-2 0 0m42 0 1-1zm-96 0zm17-1zm-5 0zq0 1 0 0m225-1zm-161 0h1q2 0 0 0zm-78-2-1-1zl2 2zm75 2h1q1 0 0 0zm13 0zm-73-1zm-73 0zm138-1h3-3m84 0zm75-1q0-1 0 0m-150-1zm150-1q0-1 0 0m-163 0h1zm-81-1zm81 0zm2 1zm-1-1q-1 0 0 0m4 0zm-3 0zm22 0 1-1 1-1-1 1zm-8-1zm146 0zm-184-1zm26 1q-1 0 0 0m6 0q1 0 0 0m1-1zm2 0zm-37 0zm30 0zm12-1q-1 0 0 0zm144 0zm-134 0 1-1zm-158 0h1zm-1-1v-1zm-9-1zm12 1q1 0 0 0m92 0q0-1 0 0 1 0 0 0m12 0 1-1v1zm186 0zm-289-1zm95 1 1-1 1-1zm-96-2zm159 0zl-1 1zm55 0q0-2 0 0m-110 0v-1l1-1zm-102 0zq-1 0 0 0m40-1zm64 0zm2 0h1zm-108 0q1 0 0 0m-12-1zm155 1zm146 0zm-190 0zq2 0 0 0zm3-1zq-1 2 0 0m43 1zm-145-1q0 1 0 0m148 0zm12 0q2 0 0 0 0 2 0 0m-54 0zm43 0zq0-1 0 0zm-3 0q0-1 0 0zm38 0zm-81 0zm88 0zm-48-1v-2zm1 0q1 0 0 0m-144 0zm187 0q-1 0 0 0m1 0q-1 0 0 0m5 0q-2 0 0 0m-41-1zq0 2 0 0m-164 0q0 1 0 0m52 0zm134 0h2zm5 0h1q1 0 0 0zm20 0q1 0 0 0m-28 0zq-1 0 0 0m30 0q-1 0 0 0m-40-1zm6 1zm2 0zm29 0v-1zm-23-1zm15 0zm-14 0q1 0 0 0m13 0q1 0 0 0m-3 0zm-99-1zm56 0zm10 1zm24 0zm-69-1zm-120 0zm166-2q0-2 0 0zm56 0zm-211 0zm113 0zm-4 0zm-120 0zm211 0zq2 0 0 0zm-188-1q0-1 0 0zm-12 0q0-1 0 0 2 0 0 0m33 0zm122 0zm-165-1zm211 0q0 2 0 0m-94 0zm52-1 1 1zm-147 1zm129 0zm15-1 1-1q2 0 0 0zq0 1 0 0m133 1zm-288-1zm111 0zm-7 0zm96-1v-1zm4 1zm83 0zm-275 0zm127-1zm-134 0q0-1 0 0m10-1zm89 1zm103 0zh-1zm-2-1zm-68-1zv1zm-148 0zm17 0zq1 0 0 0zm-5 0 1-1q2-2 0 0zm28 0q0-1 0 0m-10 0zm81-1zm-93 0q2 0 0 0m95 0zm8-1zm28 1zq-1 0 0 0m-122-1zm185 0q-1 0 0 0zm-194 0 1-1v-1zm89 0zm45 0zm-40-1q2 0 0 0zm-90 0zm137 0zm-139 0zh1zm94-1zm-22 0q-2 0 0 0m119 0zm-192-1zm11 1zm77-1q2 2 0 0m47 0zm-153 0zm20 0q1 0 0 0 0 2 0 0m2 0q1 0 0 0 0 1 0 0m3 0v-1zm80 0q0-1 0 0m48-1 2-1zm-38 0zm-10-1zq0 1 0 0m-74 0zq0-1 0 0zm86 0zm39-1zm-52 0zm84-1h1q1 0 0 0zm-29 0zm3 0zm28 0zm20 0q0-2 0 0zm-17 0q-1 0 0 0m-91-1q0 2 0 0m-100-1zm188 0h1q1 0 0 0zm-88 0h1zm91 0 1-1 1-1-1 1zq-1 0 0 0m5-3q-1 0 0 0m-3 0q2-2 0 0m1-1zm3-1zq0 1 0 0m-112 0zm120 0zm-8 0zl1-1zm3 0 2-1q1-2 0 0zm-1-2zm4 0zm-4-1zq0-2 0 0zm-112-2zm200-1q-1-1 0 0zm-198-1zv1zm14 1zl1-1 2-1-2 2zq2 0 0 0m6-1 2-1-1 1q2 0 0 0zm-2 0 1-1h1-1zm-17-1q0 2 0 0m69 0zm125-3v-1l1 3zm-121 2 1-1q1 0 0 0zm-67-1 1-1zm10 0zm98-1zm-95 0zm126 0zm-128 0zm98 0h1q1 0 0 0zm3-1q1-2 2-1zl-1 1zm29 1v-1zq-1 0 0 0m-231 0zm227 0q-1 0 0 0m-67-1q0 1 0 0m46 0zh1zm19 0zm-134 0zq0-1 0 0zm133 0q-1 0 0 0m-4 0q1 0 0 0m-2-1zm-2 0zm-216 0zm214 0zm17 0zm-19 0zm-111-2zm-100 0 1-1q0-1 0 0zm275 0zm-173-1q0 2 0 0m129 0q0-1 0 0m-133 0zm63 0zm-62 0zm-4-2zm5 0zm130 0zm-131-1zm1 0zm-4-1zm5-1zm-3-1zm42 1v-1zm-6 0zq2 0 0 0zm90-1zm-89-1zm23-2zm65 0q0-1 0 0zm-81 0zm-42-1q0-1 0 0m123-1v-1zq0 1 0 0m-85 0zm13-1zm-50-1v-1zq0 2 0 0m166 0q-1 0 0 0 0 1 0 0m-178 0-1-1zm1 0 1-1zm2-1h1q1 0 0 0zm2-1 1-1zm171 0zq2 2 0 0m-164 0zm-14 0q-1 0 0 0m162 0zm-108 0zq1 0 0 0zm107-1zm3 0zm12 0zq-1 0 0 0m-10 0zm-151-1zm152 1zm5 0q1 0 0 0m-163-1zm46 0zm108-1v-1l1-1-1 1zm-153-1q-2-2 0 0m2 0 1-1zm-5 0zm-3-1q1 0 0 0m129 0q1 0 0 0 0 1 0 0m-208 0q2-1 0 0m90 0zm150 0zh1zm-164-2-2-1zl1 2zm-9 1zm141 0q0 1 0 0m-121 0zm157 0zm-33-1zm2 0zq-1 0 0 0m-212 0zm208 0h1zm9 0zm3 0zm16-1zm-147 0zm124 0zh1l-1 1zm3 0q-1-1 0 0m-215 0zm232 0zm4 0q0-1 0 0zm-5-1zm-12 0zm10-1q-1-1 0 0m-227 0zm226-1q-1 0 0 0 0 1 0 0m-226 0zq0-1 0 0zm60-1zm180 0zm-239 0 1-1zm59-1zm25 0zq-2 0 0 0m2 0h1zm2 0h1zm149-1zl1 1zm-236 0zm225 1zm-145-1zm147 0 1-1zm-129 0v-1zm-97-1zm232 0q0 1 0 0m-3 0q1 0 0 0m4-1zm-231 0zm60-2zm-58 0 1-1zl-1 1zm54-1zm-52-2 1-1zl-1 1zm70 0zm13 0zm-8-1zm1 0zm-3 0zm12-1zm-11 0zm3-2h1zh-1zm136 0 2-1zm4-1zm-143 0zm142-1-1-1zm-209-1 1-1zl-2 2zm68 0zm139-1zm-144 1h1q1 0 0 0zm4 0zl1-1zm-1-1zm137 0zm-140 0zm142-1q-1-1 0 0l1 1zm-203 0 1-1zm68 0zm2 0zm132-1q1 0 0 0m-200 0 1-2 1-1zm59-1zm-56-2zm58-1zq0 1 0 0m-57 0zh1zm53-1zm1 0zm-52 0zm2-2zm46-1zm-45 0q1 0 0 0 0 1 0 0m44-2q0-1 0 0zm-42 1zm42-3v-2zm-38 0zq0-1 0 0zm2-1zm37-2zm-33 0zm1-1zm3-1zh1zm29-1zm-1-1zm-2 0h1zm-18-3h1zm2-1zm14-2zm2-1zm1-1zq0-1 0 0zm17-1zm-17-1zq1 0 0 0zm14-1zl2 1q0-1 0 0zm2-2zq0-1 0 0zm-4 0h1zm4-1h1q2 0 0 0zm28-3zm2 0zm2 0z" style="fill:#58daab;stroke-width:.239995"/><path id="path297" d="M452 1952h-2 1-1l-4-1c-5 0-5 0-10-3l-2-2 1-1v-2l-1-1-2-2-3-2q-5-3-5 1 0 5-6 4-6 0-6 2l-2-1h-2l1-3q3-5 5-2l5 2q2 1 3-3l3-2q2 0 1-1v-1l-1-2-1-2h1v-4h1l1 1 1 1h1l-1-1-1-2v-1q-1 0 0 0l1-1h2l1-1 1-2 1-2 1-1v-1h4v-1l4-1h1l1-1 2-1q2-4 6-4h4l1 2q1 4 1 1l1-2 1-1 1 2v1h1q0 1 0 0v-1l-1-3 2-2h1l1-1 1 1 1-1 2-3q2-3 5-3l2-1 2-1 2 1 2 4 2 5 2 1 5 4 3 3q2 1 1 4l-1 4 1 6h2l2 3 3 4-1-1-1-1 1 2 1 2 3 4v1l-4 3 1 1 2-1q2 1-6 3l-20 3-3 1-3-2-6-2-1 1q1 2-6 2l-4 1h2q3 0 0 0zm9 0h2-2m-15 0h1zm26 0h1zm-28-1zq1 0 0 0zm-3 0h1zm-1 0q-1 0 0 0m-36-9-5-2 2-4 1 2 2 1 1 1h-1l-1 1zl1 1v1zm-21-9a164 164 0 0 1-66-66l-1-4 1 1 1 2 3 1h1v-3l1 2 2 1 1-1v-3l-1-1q-1 0 0 0l-1-1-1-2h1l1-1 2-1 2 3 2 1 1 2v4l-1 1h-1v1h8l1 1v1h-2v2q1 3-2 2l-3-3-1-1v-1 1l-1 1 1 1v6l1 1v2l-1 1v1l2 3 2 5 2 2h1v-2h1l1 2 1 1q1 2 2-1l2-2h2l2-1h1l2-1q3-3 3-1l1 1 4 2 3-1-4-3-3-2v-4l-1-2-2-1-3-1-1-2-2-2-3-4 1-2 1-1 2-1 2-1h2l4 2 2 1 1-1-1-6-1-1h1l7 4q2 3 3 1l1 1h1l1-1h2q0 4 1 0v-1l2-1 2 1 1 1v5l-2 4-1 2-1 1-1 3v2l2 6-1-4 1-2 2-3v1q0 2 1 1h4q2-1 1-3v-1h2l-1 6v3l-2-1h-1v7l1 2q3 1 1 3l-1 2 1 3 1 2-1-1 1 1 3 3 1 2 1 6q1 5 4 5l6 5-6-1q-2-1-3 1l-1 1-2 2-1 1v2l1 1-2 2zm-43-67-1-2-1-1h1v-1l1-1 1-1-1-1-1-2-1-2q0-2-3-2h-5l-1-1h-2v1l1 1-2 2-2 1-5 3-2-1h1v-2 1h-3l-1-2-2-5 1-3 1-1v1l2 5 2 1h2l-2-2q-4-2-2-6l1-2 2 2q2 3 3 1 0-3 2-3l5-1h6l3 2 1 1h2l4-1h3v3l1 2-2 1-4 1v1h4l5 2v1l-3 1h-1v1l3 1h3l-1 1-1 1-3 1h-5q-1-1-2 2zm127-8-6-2-3-2q-6-4-9-10v-3q1-2-2-5l-2-3-1-2-1-3q-1-2 2-3l1-3-1-2 1-1v-1l3-5 1-5 1-1 1 1 4 2v1l2-2 6-4 4-3-1-2q-2 0-1-2l3-3 6-7q2-2 2-5l-3-5-3-1h-1l-1 2v3l-1 1v2l-1 1-2 1q-1 2-4-1h-1l-2-1 1-2v-1l1-3q1-5 4-6l2-4 2-3h-2l-4 1-4 2-1 3-2 1-3 1-2 1 3 4 3 3h2v2l-1 1v5h2l1 1 1 1 1 1-2 1h-2l-3-1h-6l-8 3q-1-1-1 1l2 1 5-1 1-1q2 1 2-1h2v2q3 0 3 3l-1 2q-2 3-2 0v-2l-3-1h-2v2h-7l-1 1v5l-1 1q-2 1 0 2l1 2 4 4-1 2v4l-1 3-1 1-1 2h-3l-3-1-5-3 1-2 2-5 1-4-1-1-5 1h-3v-5l1-3-2-5-1-5 1-1v-1l-3-1h-1v-2h5l2-2 1-1v-2q-1-3 2-3v-1l1-2 1-1h-4q-2 0-2-3v-1h2l-1-1-2-1-2-2 3-4-1-1h-1l-3 5-1 2-2 1-1-1-2-1-2-2-1-1v-1l-1-2v-1h-2l-1 3 1 1q2 1 2 3v2l2 3h5l2 2 1 2 2 1 1 1v5l-1 1v1l-1-1-1-1h-1l-1 1-2-1-2-1 1 2v1l-1 1-4 1q-4 0-6-5l-1-4v-3l-2-3-3-3-1-2-1-1v-1h-1q2 0-1-5l-1-4 2-5 2-2 2-1q2 2 4-1l5-4 4-2 2 2h1l-1 2-4 4v2l2-1h4q3 0 3-2v-1l-1 1h-2l1-1 2-2-1-1-1-2-1-1 1-1v-2h-3l-2-1h-2l3-2 1 1h3v-2l-2-2v-5h1l1-2v-3l2-1v-1l-2-1-2 1-1 1-1-1 1-1 3-2 3-3 2-1h1v-2h-8l-1-1-2-1-3-2 1-2v-1l3 1h4l4 1h3l5 2v4l1-1 1-1v-2l-1-2-4-1-1-1v-2l-1 1q0 3-2 1h-6l-3-2-2-1v-1l1 1h2l3 1 2-3-1 1-2 1-1-1-1-1h-1l1-1 2-2 2-1 1-1v-1l-4 2-2 1-3-1 1-3q0-3 1-2l1-1-3-1q-3 2-4-1l-1-2-1-5 1-1v-4h-1l-1-2h-2l-2-2v-1l2-1 2-1h2v-1l-1-1 2-1 8-2 2 2 2 1v1l2 1 1 1v-1l-1-2h-1v-4l4-1a166 166 0 0 1 115 25l12 9v4l1 2 4-1 9 7 1 2h-1l-3 1h-2l-1 1h-1v2l4 2h6q3-2 5 2l1 1h-2l-2 1-2-1h-3q-1 1-4-1l-3-1-2-1-6-2h-2l1 1 1 2-1 1-3-1-2-1-1 1h-1l-1 1h-4l-1 1v1h-1l1 3 1 3 1 5q-1 5 3 6l2 2h2l1 4q2 3-4 2l-8-2q-7 0-10-2v1l-1 1-1 1h-2q-1-3-2 0l-3 1-2 1-3 5q-3 6-6 5l-2 1-1 3-1 1h-2l-3 1-2 1q-1 2 1 2c1 1 6-1 7-1h3l1-1v-1l1-1-1-2v-1h1l4-1q2-3 3-1l1 2v2l2 4v1h1l-1 2v4l1 1-1 1v3l-1 3v2l-1 2h-1l-3-1-8-1h-18l1 1v1q-2 1 5 1l3 1h5l3 1 5-1h2l3-1h7l1-4 3-5 2 2 1 2 1 1 1 1v1l2 3 1 4v4l6 11 3 1 3 1 3 1q6 3 5 5v4l1 3v1l3 2q6 2 2 5v2l1-1 2-1 1 2 2 6c2 7 2 8-2 13l-3 5-2-1-1-1v1h-3l-5-3c-1-1-8-2-9-1l-4-1q-6-2-7-5-2-4-4-3l-2-2-6-1h-4l-5-2-5-1-3 1q0 2-3 2h-2v2l-1 4-3 5-1 2v1l-2 2-4 2-4 1-2 1q-2 2-6-1m2-11q10-3 16-10a37 37 0 0 0 11-34q-1-7-5-8-7-2-8 4l1 4v13q-4 15-19 20l-4 2q-4 5 2 9zm13-60h-2 2m-14-27q12-3 13-16 0-6-4-11a19 19 0 0 0-20-6h-1v-1l4-5v-2q0-4-5-4-3-1-4 2l-16 27 2 2 2 1 6-4v-1 3q5 17 23 15m-38-54v-1h-5q-2 1 1 1h4m-6-7v-1h-2l-2-1-1 1q1 3 3 2zm-115 147-1-4 2-2 2-2 1-1 1 1 1 2q0 4-4 6l-1 2zm56-3-6-2-2-1-4-3-2-1 1-1-1-3q-1-3-3-1l-1 1-2-1-14-9h-5l-3 2v2l-3 1-3-2v-2l1-1h-1l-4 1-1-1q-1-1 1-5l1-4-1-2-1-1v1h-2v-5l1-2-1-1v-7l1-1 1-1h4l-2-2-2-2 4 1h4l-1-2-3-1-1-2v-2l-1-2 2-6 6-4-1 2-2 3v4l1-1 2-5 2-2 1-1v2-1l3-2h1v1l-1 3-3 6v2h1l1-1 1-5q2-1 1 2 2-1 1-4v-1h1l1 1 1 2v2l1 3v-9l1-3q3-3 5 1 3 2 3 5l1 4 6 5q6 1 5 4l2 2 3 4 3 4 5 5v6q-2 7-1 7v11l2 5 4 5v2l-1 1-1 1zm-59-4a140 140 0 0 1-4-35v-6h1l1-1h2l2 4-1 2 1 1v11q1 1-1 3l1 3 2 4v5l2 2 1 1-2 3-3 2-1 2zm75-26zh-2v-1h-1v1l-1-2 1-1h1l1 1v-4h1l-1-1h1l1-2 2-1 2 1v4l1 1-1 2-1 1-2 2zm22-84-1-1-2-1-2-1-2-2-1-1-3-3-1-6v-4l1-1 2 2 1 5 2 3 1 2 3 2q2 3 3 2h5l1 1-1 1-1 2h-3zm159-1 1-2 2-1h2l2-1h1l1-1h1v-1l1 1 3 4h-5q-3-1-7 1z" style="fill:#a2e848;stroke-width:.239995"/><path id="path295" d="M457 1952h-2l4-1h4zm-12 0c-8-1-8-1-10-3l-2-1v-3l-1-1-1-2-4-2q-4-2-2-2v-1h1l6 2v1l2 2 1 1v2l-1 1 2 2c5 3 5 3 10 3l4 1h-5m24-1-3-1-1-1 2-1 5 2 2 2h-1zm32-6 2-1-1 1zm-88 0q-3-1 4-2h5l-1 2zm8-5 1-1zm-22 0zq0-1 0 0zm25-5-1-2 1-4v-1 2l1 2 1 2v1q1 1-1 1zm4-7-1-1v-1l1 1zm-40 0 2-2zm7-1-2-1h-3l1-1q1-2 3-1l3 1 1 1v1zm37-7 1-1zm26-8v-1q0-1 0 0zm4-1zv-2zm4-6zm-124-9zm16-6-3-2v-4q0-3-3-3l-4-3-2-2-3-3v-2h1l3 3 2 2 1 2h3l2 2 1 2v4l3 2 4 3-2 1zm17-2v-5q0-2 0 0l1 3zm8 0zv-2l1-1v2zm0-8v-1l1 1zm-9-1v-1zm-42-3-1-2v-1h-1l1-1v-1l2 2 1 1v1l1 1q2 1-1 1zm44 0 1-2zm-39-3v-2zm-7-4v-1zm29-1zl-2-4h2l1 1zm-21-1-1-2h1l1-1v1l1 1v1zm35 0v-1zm-48 0v-1l-1-1-1-1v-2l-1-1h1v-1l1 1v1h1l1 1v2l1 1zm21-3h-2l-2-1 1-1 1-1 2 1h3l2-1 1 1-2 1-2 1zm-30-2zh1l1-1q2 1 6-2l2-2-2 2-2 2q-3 3-6 2m23-1-1-2q-1-4-4-4h-3v1-1h-2l-1-1-1-1v-1h2l1 1h5q3 0 3 2l1 2 1 2v3zm126-1-5-2-7-5-6-8 1-2q0-2-2-5-2-1-2-3l-1-2-1-2v-3h1l1 3 1 2 2 3q3 3 2 5v3q3 6 9 10l3 2 6 2q5 3 6 1l2-1 4-1 3-2h2-1l-2 2-3 2-4 1-3 1-2 1zm-151 0-3-8 1-2v1l2 4 1 3h3v-1 2h-1l-1 1h-2m34-2 2-1 1 1zm200-1-6-3-8-1-5-1-7-5-1-3h-2l-3-1q-2-2-5-2h-5l-3-1-1-1-3-1h-3v-2h5l2 1 5 2h4l6 1 2 2q2-1 4 3 1 3 7 5l4 1c1-1 8 0 9 1l5 3h3v-1l1 1h2l-1 2-1 1-1-1-1-1-1 1zm-230-3-3-4-1-1 1-1 1-1v1q-1 1 2 5 3 3 0 1m25-1v-1l3-1 1 1v1zm-33-5q-1-1 1-2l2-1-1 1zm53-3-5-2-3-1-4-3-1-2q1-4-2-4h-1l-1 1-2-1-14-9h-7l3-2h5l16 10 1-1q2-2 3 1l1 3-1 1 2 1 4 3 2 1 3 1 6 1 3-2h1v1l-1 1-3 1-2 1zm127-5zh4v1l-3 1h-1zm-8 0q0-1 0 0m-174-1q3-4 3-2l-2 1zq-1 2 0 0m175 0zm3-3zm-11-5zq1 0 0 0zm-41-1-2-1q-7-2-5-5h1l5 3 3 1h2l2-1-1 1-3 2zm-115-1-4-2 1-1 1-1 1 1 2 1h1v2zm159-1zq2 0 0 0zm-34-4v-3l2 1v3h-1zm-133 0v-3l1-2v3l1 1 4-1h1v1h-1l-2 1-3 1zm118-3 1-7-5 1h-3v-8l-1-5q-3-2-1-4l1-3h-5l1-1q-1-3 2-1h3l-1 2 1 5 2 5-1 3v5h3l5-1 1 1-1 4zm17-3 2-4 2-4-1 3zm-133-2-1-2-1-2-1 1h-1v-13l1-3v6l1 1-1 2v5h2v-1l1 1q3 2 1 4zm66-1-1-1h-1q0-3-1-1l-1 1v-1l-1-1 1-1h3v-1 3l1-1h2v3zm3-2 2-2v1zm102 0zm-106-4h1zm59 0zm59-1zm-118 0zq0-1 0 0zm106-1zm-105-1zm72-2-1-2-2-1h-1v-2h2l3 1v4l1-1h1l-3 2zm-72 1zv1zm60-2q0-2 4-2l3 1v1h-7m28 0-1-1-1-1v-3l1 1 1 1 1 2zm-27-6v-1h1l8-3h6l5 1 1 1-3 1-4-1h-4l-5 1zm-127-3-2-2 5 2-1 1zm93-2q-3 0-4-4l-1-5q0-2-3-5l-2-3-2-2v-1l-1-1-1-4-1-4v-2l1-3h1l-1 2 1 4q3 5 1 5h1v1l1 1 1 2 3 3 2 3v3q0 4 3 6 4 5 6 3h1l-1 1zm-88-1-2-1h-2v-3l-1-1 1-7 1-1-1 5 1 2v2l1 1 3 2 1 1zm105-1zm-4 0zh-4l-1-1-1-2 2 1 2 1 1-1h1l1 1zm41-2h-2v-6l2-4-1 1v4l-1 2 2 1h1q3 3 4 1l2-1-2 2-1 1q-3 2-4-1m-35-2 1-2zl-1 1zm51 0-4-6-2-1v-1l1-1 3 1 3 5zm31 1-6-1h-18v-1l-1-1h18l7 1 3 1h2l-2 1zm-27 0zm36-1 2-6v1zm-190-3v-2q1-3 1 0zm8-2-1-2zm94 0zq-2 2 0 0m-109-1 1-1v-1l-1 3zm105 0-1-3 1-1 1 1 2 1h3l-1 1-1 1h-4m-94-2zv-1h1zq0 2 0 0m-10-2zh1zm130 0 2-2 3-1v2h-3zm-27-1-2-1-2-2h1l1-1 2 1 2 1 1 1h-2v1zm-101-1zm92 0-2-1-2-1-1-2v-1l-1-1v-2h-2l1-2h2v1l1 2v1l1 1 2 2 2 1h2l1 1-2 1zm43-3 1-2 4-2 4-1h2l-1 1v1h-3l-3 1zm-35-3zh-1l2-2h1zm68-1 1-2h2l3-1h3l-1 1-2 1h-2zm12-2v-1l1-1h1l-1 1v2zm-2-4zl2-1h3l-3 2zm-92-7 1-1 2-1v1q-2 2-3 1m6 0 2-2h1l1-1v2l-1 1v-1h-1zm1-4-1-2v-2h1l2 2 1 1zm95 0 1-1 2-1 3-1q1-3 2 0h2v1l-2 1h-1q-1-3-3 0l-2 1zm29 0-8-2-9-1-1-1 1-1v-1l2 1 8 1 11 3v1zm-96-5 1-1zq0 1 0 0m-29-1h-2l-2-1h-2l1-1h3l1 1 1-1h2v2zm0-4-1-5v-2h1l1 5 1 2zm-12-8v-1l-2-1-2-1-2-1-1-1-1-2-3-3q-2-4-1-6v-5l1 1v2l1 6 3 3 1 1 2 2 2 1 2 1 1 1 1 1 1-1h3l-1 2h-4zm13-2v-3l1 1zm146 0v-1l2-1h1l10-1 2 1q3 1-1 1h-6q-3-1-7 1zm-150-4zl2-1 2-1 2 1v1h-3l-2 1zm153-2h-3q0 1-4-1l-2-1-3-1-3-2-2-1-1-1h3l6 2 5 3h6l2 1 2-1 2-1v2h-2l-4 2zm-29-1zv-1h5l1-1h1l1-1 2 1 3 1-1 1h-4l-2-1-1 1-1 1h-3m-120-6h-3l-1-1-1-1-3-2v-1l1-1 1 1 2 1 2 1 1 1h8l1 1-3 1h-5m43-1zm97 0zh1l1-1h2l3-1 1 1v1h-2l-3 1zm-126-2zq-2-2-5-3l-1-2v-2h1l-1 1 1 1h1l1 1 4 3v2zm-10-4-3-1h-4l-3-1v-1l2 1h7l3 1v1zm9-4h-2q-3 0-1-1zh3zm-15-1h-2l1-1 1-1 1 1 1 1 2-1q2-3 1 0l-2 1h-1v1zm-5-5v-3l1-1v4h3l2-1 4-2v1l-1 1-4 2h-3l-2 1zm141 0zm-129-1v-2l2 1h2v1l-2 1zm-15-5-1-2-1-1-1-3 1-3v2l1 2 1 2 1 2 2-1h3v2zm-2-10v-2l-1-1-1-2h-2l-2-2v-1h2q2 2 4 1v2h1v4zm16-12zl-1-1h2zm-16 0-1-1q0-3 2 0v1zm14-4zv-1 2z" style="fill:#5edf01;stroke-width:.239995"/><path id="path293" d="m396 1856-5-3q-3-3-3-7c0-8 8-12 15-9q5 3 6 7v5q-2 5-7 7zm-25-2q-3-2-3-5l1-2 12-22q2-4 6-4 4 1 4 4 1 2-2 8l-14 21zm93-7-4-3q-2-3 1-6l3-2a28 28 0 0 0 18-14q4-8 2-19v-6c2-4 8-4 10 0a37 37 0 0 1-20 47q-7 5-10 3m-2-94q-9-3-9-11 1-10 11-9 8 1 10 9c1 6-6 12-12 11m-25-7-2-2-1-2 1-3 16-23q4-3 8 1l1 2-3 7-18 21z" style="fill:#020210;stroke-width:.239995"/></g></g></g></g></g></svg>