<?xml version="1.0" encoding="UTF-8"?>
<svg id="Layer_2" data-name="Layer 2" xmlns="http://www.w3.org/2000/svg" viewBox="0 0 114.97 35">
  <defs>
    <style>
      .cls-1 {
        fill: #e85615;
        stroke-width: 0px;
      }
    </style>
  </defs>
  <g id="Layer_1-2" data-name="Layer 1">
    <g>
      <path class="cls-1" d="M20.79,27.43c-.86-3.65-.87-7.35.02-11,.91-3.72,3.36-5.97,7.08-6.78,3.43-.75,6.85-.75,10.19.44.92.33,1.77.88,2.71,1.35.18-.3.37-.67.61-1.01,1.35-1.93,3.32-2.85,5.56-3.29,2.23-.44,4.47-.37,6.73-.03-.18.04-.36.09-.54.12-2.39.34-4.55,1.23-6.3,2.91-1.51,1.45-2.43,3.27-2.63,5.34-.14,1.37-.02,2.78.04,4.16.1,2.81.21,5.63-.64,8.36-2.88,9.27-20.43,9.56-22.83-.58ZM36.05,15.49c-.1-.11-.24-.29-.39-.43-.77-.72-1.75-.92-2.75-.97-3.11-.17-5.04.77-5.38,3.94-.21,2-.21,4.03-.21,6.05,0,.88.16,1.77.36,2.63.38,1.61,1.37,2.69,3.06,2.99.65.11,1.33.11,2,.11,2.44-.01,3.92-1.13,4.23-3.55.27-2.11.21-4.27.26-6.41,0-.13-.25-.39-.37-.38-1.69.15-3.21.73-4.37,1.99-1.3,1.41-1.84,3.16-2.03,5.03-.03.26-.09.52-.13.77-.07,0-.14-.02-.21-.03.11-1.28.15-2.57.34-3.84.36-2.34,1.11-4.54,2.96-6.16.76-.67,1.7-1.13,2.65-1.74Z"/>
      <path class="cls-1" d="M0,11.71c0-.47.22-.89.57-1.16.23-.18.53-.26.82-.28.65-.04,1.02-.03,1.52,0,1.55.1,1.28-.07,1.34-1.55.05-1.23.09-2.47.29-3.68.34-1.98,1.61-3.32,3.43-4.02,1.19-.47,2.49-.81,3.76-.89,2.5-.17,5.03-.25,7.5.42.92.25,1.1.5.92,1.43-.16.88-.32,1.75-.51,2.62-.15.7-.47.9-1.18.8-1.06-.14-2.13-.37-3.19-.38-.91-.01-1.86.14-2.74.38-1.01.28-1.23,1.21-1.31,2.13-.04.5,0,1.01-.03,1.52-.04.54.16.76.73.75,1.4-.03,2.8-.01,4.2,0,.3,0,.61.04.9.09.47.07.72.38.73.83.02,1.11.03,2.23,0,3.34-.02.6-.33.84-1.03.85-1.56.01-3.12,0-4.69,0-.47,0-.85.38-.85.85,0,5.61,0,11.21,0,16.82,0,.24,0,.48-.01.72-.06.66-.66,1.15-1.32,1.16-1.4.02-2.8.01-4.2,0-1.1,0-1.41-.31-1.41-1.42,0-5.63,0-11.25,0-16.88,0-1.37.11-1.24-1.24-1.25-.59,0-1.18.05-1.76-.02h-.01C.53,14.79,0,14.2,0,13.49v-1.78Z"/>
      <path class="cls-1" d="M72.93,25.48c0,2.53,0,5.06,0,7.59,0,1.07-.3,1.36-1.38,1.37-1.36,0-2.72,0-4.08,0-1.12,0-1.39-.28-1.39-1.41,0-4.41,0-8.82,0-13.24,0-.73-.05-1.46-.14-2.18-.21-1.76-1.25-2.91-3.03-3.16-.99-.13-2.03-.13-3.01.03-1.99.32-3.03,1.66-3.04,3.78-.02,4.76,0,9.51-.01,14.27,0,.32-.03.64-.07.97-.07.64-.48.92-1.08.93-1.58.02-3.17.02-4.75,0-.77-.01-1.05-.4-1.05-1.32,0-4.84,0-9.67,0-14.51,0-.78.08-1.58.21-2.35.59-3.63,2.69-5.88,6.33-6.52,3.23-.57,6.51-.53,9.75-.04,2.4.36,4.41,1.52,5.64,3.71.8,1.43,1.05,3.02,1.08,4.63.05,2.49.01,4.98.01,7.47h0Z"/>
      <path class="cls-1" d="M109.24,34.45c-.94.07-1.5-.32-1.92-1.15-1.29-2.61-2.63-5.2-3.96-7.8-.26-.46-.61-.75-1.09-.87-.44-.11-.78.03-.98.41-.73,1.4-1.48,2.79-2.21,4.19-.72,1.38-1.45,2.76-2.14,4.16-.85,1.72-4.75,1.08-6.53,1.04-.37,0-.92-.11-1.06-.36-.14-.24.03-.78.22-1.09,2.04-3.43,4.1-6.84,6.19-10.24.42-.68.4-1.21-.01-1.88-1.97-3.19-3.89-6.4-5.83-9.61-.56-.93-.33-1.42.76-1.45,1.62-.04,3.25-.02,4.87,0,.77,0,1.3.36,1.67,1.09,1.26,2.47,2.56,4.92,3.88,7.36.19.34.51.72.85.85.54.2,1-.06,1.3-.61.85-1.61,1.73-3.21,2.59-4.81.53-.98,1.08-1.95,1.57-2.95.32-.66.85-.91,1.52-.92,1.64-.02,3.29-.04,4.93,0,1.11.03,1.33.56.73,1.51-2.08,3.31-4.15,6.62-6.24,9.93-.27.42-.23.76.02,1.17,2.13,3.51,4.26,7.03,6.36,10.56.19.31.32.82.19,1.11-.29.65-4.52.3-5.68.38Z"/>
      <path class="cls-1" d="M78.51,22.1c0-3.6,0-7.2,0-10.8,0-1.1.27-1.45,1.37-1.49,1.4-.06,2.8-.06,4.2,0,1.08.04,1.38.42,1.38,1.5,0,7.2,0,14.41,0,21.61,0,1.19-.34,1.52-1.52,1.53-1.34,0-2.68,0-4.02,0-1.11,0-1.41-.31-1.41-1.41,0-3.64,0-7.28,0-10.93Z"/>
    </g>
  </g>
</svg>