<?xml version="1.0" encoding="UTF-8"?>
<svg id="Layer_2" data-name="Layer 2" xmlns="http://www.w3.org/2000/svg" xmlns:xlink="http://www.w3.org/1999/xlink" viewBox="0 0 109.23 35">
  <defs>
    <style>
      .cls-1 {
        fill: url(#linear-gradient);
      }

      .cls-1, .cls-2, .cls-3, .cls-4, .cls-5, .cls-6 {
        stroke-width: 0px;
      }

      .cls-2 {
        fill: #000;
      }

      .cls-3 {
        fill: url(#linear-gradient-5);
      }

      .cls-4 {
        fill: url(#linear-gradient-2);
      }

      .cls-5 {
        fill: url(#linear-gradient-3);
      }

      .cls-6 {
        fill: url(#linear-gradient-4);
      }
    </style>
    <linearGradient id="linear-gradient" x1=".37" y1="4.45" x2="19.33" y2="30.91" gradientUnits="userSpaceOnUse">
      <stop offset=".05" stop-color="#29abe2"/>
      <stop offset=".51" stop-color="#087ac1"/>
      <stop offset=".82" stop-color="#025085"/>
      <stop offset="1" stop-color="#033050"/>
    </linearGradient>
    <linearGradient id="linear-gradient-2" x1="16.74" y1="2.06" x2="35.55" y2="9.53" gradientUnits="userSpaceOnUse">
      <stop offset=".28" stop-color="#27a9e0"/>
      <stop offset=".82" stop-color="#0476bf"/>
    </linearGradient>
    <linearGradient id="linear-gradient-3" x1="38.32" y1="2.26" x2="19.18" y2="37.63" gradientUnits="userSpaceOnUse">
      <stop offset=".05" stop-color="#27a9e0"/>
      <stop offset="1" stop-color="#0476bf"/>
    </linearGradient>
    <linearGradient id="linear-gradient-4" x1="18.88" y1="21.3" x2="16.14" y2="34.86" gradientUnits="userSpaceOnUse">
      <stop offset=".05" stop-color="#0b4276"/>
      <stop offset="1" stop-color="#142650"/>
    </linearGradient>
    <linearGradient id="linear-gradient-5" x1="33.81" y1="3.74" x2="22.99" y2="10.03" gradientUnits="userSpaceOnUse">
      <stop offset=".17" stop-color="#025085"/>
      <stop offset=".59" stop-color="#0877bd"/>
      <stop offset=".63" stop-color="rgba(8, 119, 189, .88)" stop-opacity=".88"/>
      <stop offset=".72" stop-color="rgba(8, 120, 190, .57)" stop-opacity=".57"/>
      <stop offset=".8" stop-color="rgba(8, 121, 191, .32)" stop-opacity=".32"/>
      <stop offset=".87" stop-color="rgba(8, 121, 192, .15)" stop-opacity=".15"/>
      <stop offset=".94" stop-color="rgba(8, 121, 192, .04)" stop-opacity=".04"/>
      <stop offset=".98" stop-color="#087ac1" stop-opacity="0"/>
    </linearGradient>
  </defs>
  <g id="Layer_1-2" data-name="Layer 1">
    <g>
      <g>
        <path class="cls-2" d="M88.95,17.34c-1.05,1.8-2.12,3.6-3.15,5.41-.23.41-.49.56-.95.53-.69,0-1.25-.02-1.96-.03-.21,0-.52-.2-.59-.38-1.06-2.75-2.08-5.52-3.11-8.28-.01-.04,0-.08,0-.17h2.96c.59,1.95,1.19,3.93,1.84,6.06.18-.3.29-.48.4-.66,1.49-2.55,2.98-5.1,4.46-7.65.18-.3.36-.44.73-.44,4.6.01,9.2-.03,13.81.03,2.34.03,4.27.99,5.26,3.21,1,2.25.78,4.46-.86,6.4-.99,1.17-2.35,1.83-3.83,1.85-4.72.08-9.45.03-14.24.03v-7.15c-.25.42-.5.84-.75,1.26ZM98.02,20.84v-6.65h-5.26v2.13h2.06v2.4h-2.07v2.12h5.26ZM101.11,14.26v6.58c.54,0,1.06,0,1.58,0,1.82,0,3.35-1.43,3.39-3.25.04-1.69-.97-3.11-2.47-3.31-.8-.11-1.63-.02-2.5-.02Z"/>
        <path class="cls-2" d="M51.65,14.43v1.22c.13-.1.21-.15.27-.21,1.02-1.12,2.57-1.49,3.98-.96,1.24.47,1.93,1.61,1.94,3.18,0,1.65,0,3.29,0,4.94,0,.21-.02.41-.03.65h-2.87c-.01-.24-.03-.46-.04-.68,0-1.35,0-2.7,0-4.05,0-.89-.44-1.46-1.16-1.58-.84-.15-1.65.27-1.93,1.07-.12.33-.15.7-.16,1.05-.02,1.39,0,2.77,0,4.19h-2.87v-8.81h2.87Z"/>
        <path class="cls-2" d="M62.32,23.24h-2.89v-8.81h2.86c.02.37.03.73.06,1.19.18-.17.3-.27.41-.38,1.08-1.07,2.39-1.23,3.75-.78,1.34.45,1.94,1.54,1.98,2.89.06,1.94.01,3.88.01,5.87h-2.91c0-.96,0-1.92,0-2.89,0-.65.03-1.31-.02-1.96-.07-.85-.54-1.37-1.23-1.46-.81-.11-1.54.27-1.83,1.03-.12.3-.17.65-.17.98-.02,1.41,0,2.82,0,4.31Z"/>
        <path class="cls-2" d="M74.18,23.42c-2.49-.05-4.25-1.34-4.72-3.52-.66-3.02,1.35-5.58,4.44-5.62,1.52-.02,5.45.54,5.22,4.66-.25,4.51-4.4,4.49-4.94,4.48ZM76.15,18.88c0-1.19-.67-2.1-1.64-2.21-1.12-.13-1.95.54-2.15,1.73-.21,1.27.43,2.4,1.49,2.62,1.28.27,2.29-.67,2.3-2.15Z"/>
        <path class="cls-2" d="M44.22,11.76h2.93v11.47h-2.93v-11.47Z"/>
      </g>
      <g>
        <polygon class="cls-1" points="5.16 .04 20.1 24.95 14.31 35 0 9.93 5.16 .04"/>
        <polygon class="cls-4" points="14.32 10.03 19 0 34.39 .13 28.71 9.99 14.32 10.03"/>
        <polygon class="cls-5" points="40.42 10 26.1 34.97 14.31 35 20.1 24.95 34.39 .13 40.42 10"/>
        <polygon class="cls-6" points="20.1 24.95 14.31 35 17.18 20.09 20.1 24.95"/>
        <polygon class="cls-3" points="23.65 10 34.39 .13 28.71 9.99 23.65 10"/>
      </g>
    </g>
  </g>
</svg>