<?xml version="1.0" encoding="UTF-8"?>
<svg id="Layer_2" data-name="Layer 2" xmlns="http://www.w3.org/2000/svg" viewBox="0 0 163.27 35">
  <defs>
    <style>
      .cls-1 {
        fill: #000;
      }

      .cls-1, .cls-2, .cls-3, .cls-4, .cls-5, .cls-6 {
        stroke-width: 0px;
      }

      .cls-2 {
        fill: #6cb752;
      }

      .cls-3 {
        fill: #575555;
      }

      .cls-4 {
        fill: #5d5c5c;
      }

      .cls-5 {
        fill: #71c7d7;
      }

      .cls-6 {
        fill: #f4d0e5;
      }
    </style>
  </defs>
  <g id="Layer_1-2" data-name="Layer 1">
    <g>
      <g>
        <g>
          <path class="cls-5" d="M44.22,25.51c.58,1,.5,2.26-.19,3.19-2.82,3.79-7.59,6.3-12.63,6.3-.25,0-.49,0-.74-.02-.18-.01-.28-.21-.2-.36,1.24-2.4.74-4.17.19-5.17-.19-.35,0-.77.39-.88,2.56-.74,4.56-2.81,5.19-5.42.02-.09.09-.16.18-.19,3.55-1.01,6.26-.11,7.81,2.55Z"/>
          <path class="cls-4" d="M38.84,6.73c1.58.01,2.69,1.13,3.7,2.29,4.12,4.74,5.01,10.79,3.1,15.48-.09.23-.2.45-.31.67-.08.16-.43.18-.57-.02-2.36-3.22-5-3.71-7-3.06-.52.17-1.05-.44-1.06-.85-.03-2.8-1.6-5.54-4.93-7.58-.11-.07-.19-.17-.19-.27-.04-3.86,3.04-6.7,7.26-6.66Z"/>
          <path class="cls-4" d="M29.56,29.18c-.07-.09-.18-.14-.3-.12-1.39.2-5.87-1.7-6.54-3.84-.07-.23-.38-.32-.6-.19-.63.39-1.77.79-3.43.19-.11-.04-.23.03-.23.14,0,.14,0,.29.03.44.97,5.61,6.84,8.73,9.88,8.9.52.03,1.04-.22,1.34-.64,1.66-2.3.3-4.32-.16-4.89Z"/>
        </g>
        <path class="cls-6" d="M37.32,6.09c-2.95.61-5.59,3.37-6.44,6.89-.06.23-.28.38-.52.34-9.3-1.74-11.22,4.19-12.3,6.33-.06.13-.2.21-.35.22-3.63.16-7.05-1.24-8.32-1.82-.31-.14-.5-.47-.46-.82.37-3.15,1.64-5.58,3.34-7.83.1-.13.31-.04.28.13-.23,1.03.13,2.04,1.02,2.93,1.39,1.39,3.65,1.39,5.05,0,1.4-1.4,1.4-3.66,0-5.06-.93-.93-2.2-1.3-3.35-1.03-.26.06-.45-.26-.25-.45C18.02,2.98,21.29,1.1,23.1.14c.74-.38,1.63.04,1.81.85.2.93.38,2.28.31,4.03,6.01-1.39,10.52.02,12.14.67.19.07.16.35-.04.39Z"/>
        <circle class="cls-2" cx="14.95" cy="8.58" r="1.02"/>
        <path class="cls-4" d="M8.64,16.47c-.02.39-.34.71-.73.72-2.83.1-5.57-.3-7.3-2.96-1.84-3.17.71-7.9,4.62-6.55,1.31.4,2.48,1.68,2.35,3.11.01,1.42-1.05,2.8-2.48,2.9-1.37.22-3.07-.75-2.87-2.29.04-.44.26-.97.64-1.24.61-.51,1.61-.62,2.25-.09.6.48.25,1.47-.46,1.59-.19.02-.38.01-.43-.16-.02-.11.15-.26.31-.33.4-.22.45-.62.03-.76-.73-.3-1.64.2-1.68,1.05-.14,1.01,1.11,1.66,2.09,1.47,1.1-.14,1.72-1.09,1.71-2.16.04-2.23-3.24-3.01-4.58-1.5-1.35,1.47-1.25,4.31.65,5.37,1.63,1,3.25,1.16,5.08,1.05.45-.03.83.34.81.79h0Z"/>
        <path class="cls-5" d="M24.18,14.43c-3.89,1.48-5.81,5.65-5.98,9.57,0,1.31,4.52,1.36,4.51-.07,0-.57.04-1.26.14-1.83.29-1.76,1.18-3.48,2.79-4.24.24-.11.49-.21.76-.29.64-.02,2.92-.47,4.28,1.67.52.83.66,1.61.63,2.27-.07,1.32-1.02,2.48-2.32,2.71-.51.09-1.07.03-1.58-.34-1.48-1.08-.37-2.33.4-2.34h.07c.27.02.44.18.56.37.12.18.19.39.27.56s.27.23.41.13c.42-.3.3-1.06.3-1.06-.96-2.99-4.81-1.85-4.78,1.03.01.35.05.73.15,1.07.59,2.64,3.79,3.36,6.15,2.83,2.26-.56,3.31-3.03,3.52-5.11.56-6.14-4.92-8.93-10.27-6.92Z"/>
      </g>
      <g>
        <path class="cls-1" d="M52.99,3.46v18.74h-1.45V3.46h1.45Z"/>
        <path class="cls-1" d="M58.8,12.19c0-1.18,0-2.3-.03-3.37h1.31c.05.43.08,2.17.05,2.54.59-1.37,1.69-2.86,4.44-2.86,2.38,0,4.5,1.34,4.5,5.03v8.67h-1.34v-8.46c0-2.38-.99-3.93-3.32-3.93-3.19,0-4.28,2.65-4.28,5.57v6.83h-1.34v-10.01Z"/>
        <path class="cls-1" d="M74.67,12.19c0-1.18,0-2.3-.03-3.37h1.31c.05.43.08,2.17.05,2.54.59-1.37,1.69-2.86,4.44-2.86,2.38,0,4.5,1.34,4.5,5.03v8.67h-1.34v-8.46c0-2.38-.99-3.93-3.32-3.93-3.19,0-4.28,2.65-4.28,5.57v6.83h-1.34v-10.01Z"/>
        <path class="cls-1" d="M101.39,15.48c0,3.72-2.06,7.04-6.05,7.04-3.61,0-5.86-2.97-5.86-7.01,0-3.83,2.11-7.01,6-7.01,3.56,0,5.92,2.78,5.92,6.99ZM90.89,15.51c0,3.19,1.71,5.75,4.55,5.75s4.52-2.38,4.52-5.75c0-3.16-1.61-5.76-4.58-5.76s-4.5,2.54-4.5,5.76Z"/>
        <path class="cls-1" d="M114.5,3.46h1.45v8.16h11.24V3.46h1.45v18.74h-1.45v-9.23h-11.24v9.23h-1.45V3.46Z"/>
        <path class="cls-1" d="M144.27,18.29c0,1.31.03,3.4.03,3.91h-1.28c-.05-.35-.08-1.23-.08-2.33-.56,1.58-1.93,2.65-4.31,2.65-1.93,0-4.39-.75-4.39-4.85v-8.86h1.31v8.54c0,1.95.62,3.85,3.27,3.85,3,0,4.12-1.69,4.12-5.51v-6.88h1.34v9.48Z"/>
        <path class="cls-1" d="M149.86,2.47h1.34v8.59c.64-1.34,2.86-2.72,5.49-2.72,3.16,0,6.58,2.7,6.58,6.82s-2.84,7.31-6.58,7.31c-2.25,0-4.79-.87-5.49-2.39,0,.86-.03,1.74-.05,2.11h-1.31c.03-1.53.03-3.05.03-4.58V2.47ZM161.6,15.27c0-3.35-2.3-5.34-4.84-5.34-2.99-.03-5.6,2.01-5.6,5.52,0,3.16,2.45,5.62,5.52,5.62,2.7,0,4.92-2.03,4.92-5.8Z"/>
      </g>
      <g>
        <path class="cls-3" d="M55.34,34.24c-.1,0-.19-.06-.23-.16l-3.4-9.16h.6c.1,0,.19.06.23.16l1.75,4.72c.52,1.41,1.1,2.97,1.3,3.75h.03c.2-.69.84-2.33,1.36-3.7l1.82-4.77c.04-.09.12-.15.22-.15h.59l-3.53,9.16c-.04.09-.12.15-.22.15h-.52Z"/>
        <path class="cls-3" d="M65.44,32.97c0,.59.05,1.05.09,1.26h-.64c-.05-.16-.09-.45-.12-1.02-.23.49-.81,1.18-2.18,1.18-1.54,0-2.21-1-2.21-2,0-1.46,1.13-2.13,3.13-2.13h1.26v-.68c0-.67-.2-1.56-1.72-1.56-1.34,0-1.54.71-1.69,1.25h-.67c.08-.73.53-1.86,2.37-1.86,1.52,0,2.37.64,2.37,2.1v3.45ZM64.79,30.84h-1.3c-1.48,0-2.4.39-2.4,1.53,0,.84.6,1.41,1.53,1.41,1.9,0,2.17-1.26,2.17-2.7v-.24Z"/>
        <path class="cls-3" d="M68.32,34.24v-9.81h.67v9.81h-.67Z"/>
        <path class="cls-3" d="M72.05,30.99c-.14,0-.25.12-.24.25.09,1.57.93,2.53,2.15,2.53,1.15,0,1.6-.59,1.85-1.11.04-.08.12-.14.22-.14h.53c-.28.88-.98,1.88-2.62,1.88-2.02,0-2.81-1.74-2.81-3.43,0-1.9.95-3.54,2.89-3.54,2.05,0,2.7,1.77,2.7,3.02,0,.19,0,.37-.01.55h-4.65ZM75.77,30.4c.14,0,.25-.12.24-.26-.1-1.19-.81-2.1-2.02-2.1-1.28,0-1.91.83-2.11,2.08-.02.14.09.27.24.27h3.65Z"/>
        <path class="cls-3" d="M79.22,29.26c0-.59,0-1.14-.01-1.68h.65c.03.21.04,1.08.03,1.26.29-.68.84-1.42,2.21-1.42,1.18,0,2.24.67,2.24,2.5v4.31h-.67v-4.21c0-1.18-.49-1.96-1.65-1.96-1.58,0-2.13,1.32-2.13,2.77v3.39h-.67v-4.98Z"/>
        <path class="cls-3" d="M92.09,32.28c-.32,1.17-1.09,2.12-2.58,2.12-1.66,0-2.85-1.24-2.85-3.46,0-1.82.97-3.51,2.93-3.51,1.69,0,2.38,1.2,2.5,2.13h-.68c-.2-.77-.71-1.5-1.84-1.5-1.41,0-2.21,1.2-2.21,2.86s.75,2.86,2.14,2.86c.97,0,1.56-.49,1.9-1.49h.68Z"/>
        <path class="cls-3" d="M94.44,24.96h.89v.76h-.89v-.76ZM94.53,27.58h.67v6.66h-.67v-6.66Z"/>
        <path class="cls-3" d="M102.34,32.97c0,.59.05,1.05.09,1.26h-.64c-.05-.16-.09-.45-.12-1.02-.23.49-.81,1.18-2.18,1.18-1.54,0-2.21-1-2.21-2,0-1.46,1.13-2.13,3.13-2.13h1.26v-.68c0-.67-.2-1.56-1.72-1.56-1.34,0-1.54.71-1.69,1.25h-.67c.08-.73.53-1.86,2.37-1.86,1.52,0,2.37.64,2.37,2.1v3.45ZM101.69,30.84h-1.3c-1.48,0-2.4.39-2.4,1.53,0,.84.6,1.41,1.53,1.41,1.9,0,2.17-1.26,2.17-2.7v-.24Z"/>
      </g>
    </g>
  </g>
</svg>