<?xml version="1.0" encoding="UTF-8"?>
<svg id="Layer_2" data-name="Layer 2" xmlns="http://www.w3.org/2000/svg" viewBox="0 0 55.09 35">
  <defs>
    <style>
      .cls-1 {
        fill: #000;
      }

      .cls-1, .cls-2 {
        stroke-width: 0px;
      }

      .cls-2 {
        fill: #ff4800;
      }

      .cls-3 {
        isolation: isolate;
      }
    </style>
  </defs>
  <g id="Layer_1-2" data-name="Layer 1">
    <g>
      <path class="cls-1" d="M0,18.87h1.37l1.06,3.08c.15.43.22.72.22.72h.01s.07-.29.21-.73l1.06-3.08h1.36v5.13h-.93v-4.14h-.02s-.09.4-.29.99l-1.08,3.16h-.74l-1.06-3.16c-.2-.59-.29-.99-.29-.99h-.02v4.15h-.86v-5.13Z"/>
      <path class="cls-1" d="M6.02,21.45c.03-.68.57-1.11,1.47-1.11,1.06,0,1.47.44,1.47,1.39v1.31c0,.23.07.32.3.32v.65h-.25c-.53,0-.76-.13-.85-.54h-.02c-.21.37-.58.57-1.1.57-.73,0-1.18-.39-1.18-1.05-.02-.38.19-.73.54-.9.37-.19.92-.24,1.69-.27v-.18c0-.48-.19-.7-.6-.7s-.59.23-.6.52h-.86ZM6.45,18.87h.81v.82h-.81v-.82ZM8.09,22.44v-.1c-.63.03-.96.09-1.15.22-.12.09-.19.24-.18.39,0,.29.19.48.52.48.4,0,.81-.29.81-.99M7.82,18.87h.8v.82h-.8v-.82Z"/>
      <rect class="cls-1" x="9.83" y="18.86" width=".9" height="5.13"/>
      <path class="cls-1" d="M11.32,21.45c.03-.68.57-1.11,1.47-1.11,1.06,0,1.47.44,1.47,1.39v1.31c0,.23.07.32.3.32v.65h-.25c-.53,0-.76-.13-.85-.54h-.02c-.21.37-.58.58-1.1.58-.73,0-1.18-.39-1.18-1.05-.02-.38.19-.73.54-.9.37-.19.92-.24,1.69-.27v-.18c0-.48-.19-.7-.6-.7s-.59.24-.6.52h-.86ZM13.39,22.44v-.1c-.63.03-.96.09-1.15.22-.12.09-.19.24-.18.39,0,.29.19.48.52.48.4,0,.81-.29.81-.99"/>
      <path class="cls-1" d="M15.1,20.42h.85v.72h.01c.19-.47.65-.78,1.17-.78h.06v.84h-.17c-.64,0-1.03.27-1.03.96v1.83h-.9v-3.57Z"/>
      <path class="cls-1" d="M20.69,23.99h-.86v-.55h-.02c-.21.4-.63.65-1.09.64-.88,0-1.49-.55-1.49-1.84s.65-1.9,1.55-1.9c.48,0,.83.25.99.58h.01v-2.05h.9v5.13ZM19.8,22.05c0-.67-.32-1.07-.81-1.07-.54,0-.84.43-.84,1.23,0,.75.23,1.23.81,1.23.54,0,.84-.42.84-.99v-.41Z"/>
      <path class="cls-1" d="M21.35,21.45c.03-.68.57-1.11,1.47-1.11,1.06,0,1.47.44,1.47,1.39v1.31c0,.23.07.32.3.32v.65h-.25c-.53,0-.76-.13-.85-.54h-.02c-.21.37-.58.58-1.1.58-.73,0-1.18-.39-1.18-1.05-.02-.38.19-.74.54-.9.37-.19.92-.24,1.69-.27v-.18c0-.48-.19-.7-.6-.7s-.59.24-.6.52h-.86ZM23.42,22.44v-.1c-.63.03-.96.09-1.15.22-.12.09-.19.24-.18.39,0,.29.19.48.52.48.4,0,.81-.29.81-.99"/>
      <rect class="cls-1" x="25.13" y="18.86" width=".9" height="5.13"/>
      <path class="cls-1" d="M28.26,24.07c-1.13,0-1.71-.75-1.71-1.87s.62-1.88,1.7-1.88c1.17,0,1.65.8,1.65,1.8v.29h-2.44c.04.68.3,1.03.83,1.03.48,0,.62-.25.68-.47h.88c-.11.68-.68,1.09-1.6,1.09M28.99,21.82c-.03-.54-.24-.9-.74-.9-.47,0-.72.36-.78.94h1.51v-.04Z"/>
      <path class="cls-1" d="M32.73,21.86c0-.25,0-.49-.11-.64-.12-.15-.31-.23-.5-.21-.54,0-.8.34-.8.88v2.09h-.91v-3.57h.86v.6h.01c.22-.43.67-.7,1.16-.68.8,0,1.19.41,1.19,1.27v2.38h-.9v-2.12Z"/>
      <g class="cls-3">
        <rect class="cls-2" x="7.18" y=".36" width="5.29" height="15.87"/>
        <path class="cls-2" d="M16.58,0C15.08,0,13.77.41,12.71.82v.05c1.52-.22,5.05.03,5.05,6.1v9.25h5.29V6.4C23.05.76,19.74,0,16.58,0"/>
        <path class="cls-2" d="M27.21,0h0c-1.91,0-3.86.28-5.45,1.09v.05c2.61-.25,6.57-.37,6.57,6.05v9.04h5.29V6.4C33.63.79,30.35.01,27.21,0"/>
      </g>
      <g class="cls-3">
        <path class="cls-2" d="M54.79,18.87v7.46c0,6.57-2.73,8.66-6.61,8.66-4.16,0-6.61-1.03-6.61-7.6v-8.52h-5.29v7.46c0,6.57,2.73,8.66,6.61,8.66,4.16,0,6.61-1.03,6.61-7.6v-8.52h5.29Z"/>
      </g>
      <rect class="cls-2" x="36.28" y=".36" width="5.29" height="15.87"/>
      <path class="cls-2" d="M41.8,16.2c4.84,0,7.68-3.07,7.68-7.9S46.64.39,41.8.39v-.05c1.02-.16,2.04-.23,3.07-.22,4.63,0,10.22,1.71,10.22,8.18s-5.59,8.19-10.22,8.19c-1.03,0-2.06-.06-3.07-.22v-.05Z"/>
      <polyline class="cls-2" points="12.47 16.23 12.47 .36 7.18 .36"/>
      <path class="cls-1" d="M10.45,28.26c0-.25,0-.49-.11-.64-.12-.15-.31-.23-.5-.21-.54,0-.8.34-.8.88v2.09h-.91v-3.57h.86v.6h.01c.22-.43.67-.7,1.16-.68.8,0,1.19.41,1.19,1.27v2.37h-.9v-2.12Z"/>
      <path class="cls-1" d="M12.02,25.27h.92v.85h-.92v-.85ZM12.03,26.81h.9v3.57h-.9v-3.57Z"/>
      <path class="cls-1" d="M13.27,26.81h.91l.63,1.98c.08.24.14.48.2.72h.01s.08-.36.19-.72l.65-1.98h.86l-1.26,3.56h-.93l-1.27-3.57Z"/>
      <path class="cls-1" d="M18.5,30.47c-1.13,0-1.71-.75-1.71-1.87s.62-1.88,1.7-1.88c1.17,0,1.65.8,1.65,1.8v.29h-2.44c.04.68.3,1.03.83,1.03.48,0,.62-.25.68-.47h.88c-.11.68-.68,1.09-1.6,1.09M19.22,28.22c-.03-.54-.24-.9-.74-.9-.47,0-.72.36-.78.94h1.51v-.04Z"/>
      <path class="cls-1" d="M20.67,26.81h.85v.72h.01c.19-.47.65-.78,1.17-.78h.06v.84h-.17c-.64,0-1.03.27-1.03.96v1.83h-.9v-3.57Z"/>
      <path class="cls-1" d="M24.94,27.76c-.02-.25-.22-.44-.58-.44s-.56.19-.56.44c0,.23.13.35.46.4l.58.08c.69.09,1.03.41,1.03,1.05,0,.77-.62,1.18-1.49,1.18-.94,0-1.46-.4-1.51-1.12h.84c.03.25.18.52.68.52.4,0,.65-.17.65-.47,0-.24-.09-.37-.48-.42l-.56-.07c-.65-.09-1.03-.4-1.03-1.04s.48-1.15,1.41-1.15,1.33.42,1.39,1.05h-.83Z"/>
      <path class="cls-1" d="M26.41,25.27h.92v.85h-.92v-.85ZM26.41,26.81h.9v3.57h-.91v-3.57Z"/>
      <path class="cls-1" d="M29.19,25.8v1.01h.83v.64h-.82v1.76c0,.37.14.52.5.52.11,0,.22-.01.33-.03v.68c-.22.03-.43.05-.65.05-.7,0-1.08-.31-1.08-1.06v-1.92h-.58v-.63h.12c.47,0,.55-.1.55-.76v-.26h.79Z"/>
      <path class="cls-1" d="M3.35,25.26h.93v2.98c0,.4,0,.87.21,1.14s.51.37.9.37.71-.11.91-.37.2-.74.2-1.14v-2.98h.92v3.36c0,1.29-.82,1.87-2.04,1.87s-2.03-.56-2.03-1.87v-3.36Z"/>
      <path class="cls-1" d="M30.3,26.81h.92l.64,2c.07.21.13.43.17.65h.01c.04-.22.1-.44.17-.65l.62-2h.88l-1.27,3.72c-.28.82-.59,1.18-1.47,1.18-.16,0-.31-.01-.47-.05v-.68c.11.02.23.03.35.03.42,0,.56-.14.7-.51l.05-.12-1.3-3.58Z"/>
    </g>
  </g>
</svg>