<?xml version="1.0" encoding="UTF-8"?>
<svg id="Layer_2" data-name="Layer 2" xmlns="http://www.w3.org/2000/svg" xmlns:xlink="http://www.w3.org/1999/xlink" viewBox="0 0 155.3 34">
  <defs>
    <style>
      .cls-1 {
        fill: #929291;
      }

      .cls-1, .cls-2, .cls-3, .cls-4, .cls-5, .cls-6, .cls-7, .cls-8, .cls-9, .cls-10, .cls-11, .cls-12, .cls-13, .cls-14 {
        stroke-width: 0px;
      }

      .cls-2 {
        fill: url(#linear-gradient);
      }

      .cls-3 {
        fill: url(#linear-gradient-6);
      }

      .cls-4 {
        fill: url(#linear-gradient-11);
      }

      .cls-5 {
        fill: url(#linear-gradient-5);
      }

      .cls-6 {
        fill: #e30613;
      }

      .cls-7 {
        fill: url(#linear-gradient-2);
      }

      .cls-8 {
        fill: url(#linear-gradient-7);
      }

      .cls-9 {
        fill: url(#linear-gradient-3);
      }

      .cls-10 {
        fill: url(#linear-gradient-9);
      }

      .cls-11 {
        fill: url(#linear-gradient-8);
      }

      .cls-12 {
        fill: #ec6707;
      }

      .cls-13 {
        fill: url(#linear-gradient-10);
      }

      .cls-14 {
        fill: url(#linear-gradient-4);
      }
    </style>
    <linearGradient id="linear-gradient" x1="16.32" y1="19.01" x2="16.21" y2="25.99" gradientUnits="userSpaceOnUse">
      <stop offset=".37" stop-color="#e40c12"/>
      <stop offset=".73" stop-color="#ec6707"/>
    </linearGradient>
    <linearGradient id="linear-gradient-2" x1="4.17" y1="24.82" x2="4.13" y2="27.64" gradientUnits="userSpaceOnUse">
      <stop offset="0" stop-color="#fff"/>
      <stop offset=".1" stop-color="rgba(254, 250, 250, .99)" stop-opacity=".99"/>
      <stop offset=".22" stop-color="rgba(253, 238, 236, .97)" stop-opacity=".97"/>
      <stop offset=".34" stop-color="rgba(250, 219, 214, .93)" stop-opacity=".93"/>
      <stop offset=".47" stop-color="rgba(247, 191, 183, .88)" stop-opacity=".88"/>
      <stop offset=".6" stop-color="rgba(243, 155, 143, .82)" stop-opacity=".82"/>
      <stop offset=".73" stop-color="rgba(238, 111, 94, .74)" stop-opacity=".74"/>
      <stop offset=".86" stop-color="rgba(232, 60, 36, .65)" stop-opacity=".65"/>
      <stop offset=".93" stop-color="#e52207" stop-opacity=".6"/>
      <stop offset="1" stop-color="#fff" stop-opacity=".1"/>
    </linearGradient>
    <linearGradient id="linear-gradient-3" x1="16.46" y1="24.82" x2="16.42" y2="27.64" gradientUnits="userSpaceOnUse">
      <stop offset="0" stop-color="#fff"/>
      <stop offset=".1" stop-color="rgba(254, 252, 250, .99)" stop-opacity=".99"/>
      <stop offset=".22" stop-color="rgba(253, 243, 236, .97)" stop-opacity=".97"/>
      <stop offset=".34" stop-color="rgba(250, 229, 214, .93)" stop-opacity=".93"/>
      <stop offset=".47" stop-color="rgba(247, 209, 183, .88)" stop-opacity=".88"/>
      <stop offset=".6" stop-color="rgba(243, 183, 143, .82)" stop-opacity=".82"/>
      <stop offset=".73" stop-color="rgba(238, 152, 94, .74)" stop-opacity=".74"/>
      <stop offset=".86" stop-color="rgba(232, 116, 36, .65)" stop-opacity=".65"/>
      <stop offset=".93" stop-color="#e56107" stop-opacity=".6"/>
      <stop offset="1" stop-color="#fff" stop-opacity=".1"/>
    </linearGradient>
    <linearGradient id="linear-gradient-4" x1="4.22" y1=".26" x2="4.18" y2="3.08" xlink:href="#linear-gradient-3"/>
    <linearGradient id="linear-gradient-5" x1="16.48" y1=".26" x2="16.43" y2="3.08" xlink:href="#linear-gradient-3"/>
    <linearGradient id="linear-gradient-6" x1="28.79" y1=".26" x2="28.75" y2="3.08" xlink:href="#linear-gradient-3"/>
    <linearGradient id="linear-gradient-7" x1="16.5" y1="12.54" x2="16.46" y2="15.36" xlink:href="#linear-gradient-2"/>
    <linearGradient id="linear-gradient-8" x1="19.5" y1="16.16" x2="26.22" y2="16.16" gradientUnits="userSpaceOnUse">
      <stop offset=".12" stop-color="#e40c12"/>
      <stop offset=".67" stop-color="#ec6108"/>
      <stop offset=".73" stop-color="#ec6707"/>
    </linearGradient>
    <linearGradient id="linear-gradient-9" x1="4.21" y1="12.56" x2="4.17" y2="15.38" xlink:href="#linear-gradient-2"/>
    <linearGradient id="linear-gradient-10" x1="28.76" y1="12.56" x2="28.72" y2="15.38" xlink:href="#linear-gradient-3"/>
    <linearGradient id="linear-gradient-11" x1="28.72" y1="24.82" x2="28.68" y2="27.64" xlink:href="#linear-gradient-2"/>
  </defs>
  <g id="Layer_1-2" data-name="Layer 1">
    <g>
      <path class="cls-2" d="M16.8,22.53c0,1.1.62,2.06,1.54,2.53,0,0,0,0,.02,0,.2.11.4.23.58.38h-5.1c.17-.14.35-.26.55-.36.08-.03.15-.07.22-.12.84-.49,1.4-1.41,1.4-2.46s-.56-1.96-1.4-2.45c-.06-.04-.12-.07-.19-.1-.3-.16-.58-.37-.83-.62v-.1h5.46v.32c-.14.12-.29.23-.45.32h0c-.19.08-.36.17-.51.28-.76.51-1.26,1.38-1.26,2.37Z"/>
      <g>
        <circle class="cls-6" cx="4.11" cy="28.67" r="4.11"/>
        <path class="cls-7" d="M6.77,27.48l-5.28-.09c-.08,0-.16-.06-.18-.14-.24-1.21.98-2.34,2.8-2.35,1.79-.01,3.2,1.27,2.84,2.46-.02.08-.1.13-.18.12Z"/>
      </g>
      <g>
        <path class="cls-12" d="M20.5,28.67c0,2.27-1.84,4.11-4.11,4.11s-4.1-1.84-4.1-4.11c0-1.3.61-2.46,1.55-3.22.17-.14.35-.26.55-.36.08-.03.15-.07.22-.12.54-.26,1.15-.41,1.78-.41.71,0,1.37.18,1.96.5,0,0,0,0,.02,0,.2.11.4.23.58.38.95.76,1.56,1.92,1.56,3.22Z"/>
        <path class="cls-9" d="M19.06,27.48l-5.28-.09c-.08,0-.16-.06-.18-.14-.24-1.21.98-2.34,2.8-2.35,1.79-.01,3.2,1.27,2.84,2.46-.02.08-.1.13-.18.12Z"/>
      </g>
      <circle class="cls-6" cx="28.65" cy="28.67" r="4.11"/>
      <path class="cls-12" d="M31.51,13.44c-.49-.46-.89-1.02-1.16-1.64-.7-1.6-.31-3.05,1-4.57.91-1,1.43-1.79,1.47-2.96.08-1.97-1.18-3.69-3.1-4.16-1.65-.4-3.15.21-4.11,1.32,0,0-.55.75-.56.75-.46.62-1.45,1.52-2.55,1.52-.99,0-1.87-.55-2.38-1.31-.15-.32-.34-.61-.55-.87-.01-.02-.02-.04-.04-.05h0c-.91-1.09-2.36-1.71-3.96-1.39s-2.86,1.57-3.18,3.15c-.55,2.65,1.46,4.98,4.01,4.98,1.57,0,2.92-.89,3.61-2.18,0,0,0,0,.01,0,.49-.84,1.42-1.51,2.47-1.51s1.96.66,2.46,1.4c.07.11.2.27.32.43.14.21.3.4.48.58v.02s.01,0,.01,0c.07.07.14.14.21.21h0s3.49,2.88.09,6.11c-.02.02-.04.03-.07.07-1.07.92-1.66,2.35-1.34,3.93s1.58,2.85,3.14,3.17c2.65.55,4.98-1.46,4.98-4.01,0-1.17-.5-2.22-1.28-2.96Z"/>
      <g>
        <circle class="cls-12" cx="4.15" cy="4.11" r="4.11"/>
        <path class="cls-14" d="M6.82,2.92l-5.28-.09c-.08,0-.16-.06-.18-.14-.24-1.21.98-2.34,2.8-2.35,1.79-.01,3.2,1.27,2.84,2.46-.02.08-.1.13-.18.12Z"/>
      </g>
      <path class="cls-5" d="M19.07,2.92l-5.28-.09c-.08,0-.16-.06-.18-.14-.24-1.21.98-2.34,2.8-2.35,1.79-.01,3.2,1.27,2.84,2.46-.02.08-.1.13-.18.12Z"/>
      <path class="cls-3" d="M31.39,2.92l-5.28-.09c-.08,0-.16-.06-.18-.14-.24-1.21.98-2.34,2.8-2.35,1.79-.01,3.2,1.27,2.84,2.46-.02.08-.1.13-.18.12Z"/>
      <path class="cls-6" d="M17.37,12.38c-1.64-.37-3.17.26-4.1,1.4-.47.57-1.11,1-1.81,1.23-1.14.39-2.66.35-4.23-1.31,0,0,0,0,0,.01-.92-1.06-2.36-1.66-3.93-1.34S.45,13.96.13,15.52c-.55,2.65,1.46,4.98,4.01,4.98,1.33,0,2.24-.59,3.28-1.6,0,0,2.93-2.96,5.92.17,0,0,0,0,0,0,.08.09.16.18.25.27.25.24.53.45.83.62.06.03.12.06.19.1.55.28,1.17.44,1.82.44.58,0,1.14-.12,1.64-.34.18-.09.35-.17.51-.28h0c.16-.09.31-.2.45-.32,1.09-.91,1.72-2.36,1.42-3.95s-1.53-2.87-3.09-3.22Z"/>
      <path class="cls-8" d="M19.1,15.2l-5.28-.09c-.08,0-.16-.06-.18-.14-.24-1.21.98-2.34,2.8-2.35,1.79-.01,3.2,1.27,2.84,2.46-.02.08-.1.13-.18.12Z"/>
      <path class="cls-11" d="M26.22,13.3l-.54.33s-2.88,3.48-6.12.08c-.15,4.73.03,5.29.03,5.29,0,0,2.94-3.12,5.92,0,.91-2.42.39-5.54.39-5.54"/>
      <path class="cls-10" d="M6.81,15.21l-5.28-.09c-.08,0-.16-.06-.18-.14-.24-1.21.98-2.34,2.8-2.35,1.79-.01,3.2,1.27,2.84,2.46-.02.08-.1.13-.18.12Z"/>
      <path class="cls-13" d="M31.36,15.22l-5.28-.09c-.08,0-.16-.06-.18-.14-.24-1.21.98-2.34,2.8-2.35,1.79-.01,3.2,1.27,2.84,2.46-.02.08-.1.13-.18.12Z"/>
      <path class="cls-6" d="M49.97,15.77l-.02,8.4h-1.65l-7.66-7.35v7.35h-1.13l.02-8.4h1.66l7.64,6.86.02-6.86h1.12Z"/>
      <path class="cls-12" d="M155.23,15.77l-.02,8.4h-1.65l-7.66-7.35v7.35h-1.13l.02-8.4h1.66l7.64,6.86.02-6.86h1.12Z"/>
      <path class="cls-6" d="M52.14,22.09v-4.2c0-1.51.75-2.17,2.38-2.17h5.84c1.63,0,2.39.66,2.39,2.17v4.2c0,1.51-.75,2.17-2.39,2.17h-5.84c-1.63,0-2.38-.66-2.38-2.17ZM60.02,23.37c1.17,0,1.58-.39,1.58-1.44v-3.88c0-1.05-.42-1.44-1.58-1.44h-5.15c-1.15,0-1.58.39-1.58,1.44v3.88c0,1.05.43,1.44,1.58,1.44h5.15Z"/>
      <path class="cls-6" d="M74.75,15.74l-4.76,8.38h-1.17l-4.76-8.38h1.26l4.1,7.35,4.11-7.35h1.22Z"/>
      <path class="cls-6" d="M83.15,22.07h-6.5l-1.33,2.2h-1.2l5.22-8.45h1.18l5.22,8.45h-1.26l-1.33-2.2ZM82.64,21.24l-2.74-4.56-2.76,4.56h5.5Z"/>
      <path class="cls-12" d="M107.53,23.41v.86h-8.86v-8.45h8.73v.86h-7.62v2.76h7.11v.81h-7.11v3.16h7.75Z"/>
      <path class="cls-12" d="M108.79,22.12v-4.15c0-1.5.72-2.15,2.29-2.15h5.33c1.57,0,2.29.65,2.29,2.15v.81h-1.08v-.66c0-1.04-.4-1.42-1.52-1.42h-4.69c-1.11,0-1.52.39-1.52,1.42v3.86c0,1.04.41,1.42,1.52,1.42h4.69c1.12,0,1.52-.39,1.52-1.42v-.77h1.08v.92c0,1.5-.72,2.15-2.29,2.15h-5.33c-1.57,0-2.29-.65-2.29-2.15Z"/>
      <path class="cls-12" d="M132.13,22.12v-4.15c0-1.5.72-2.15,2.29-2.15h5.61c1.57,0,2.29.65,2.29,2.15v4.15c0,1.5-.72,2.15-2.29,2.15h-5.61c-1.57,0-2.29-.65-2.29-2.15ZM139.71,23.39c1.12,0,1.52-.39,1.52-1.42v-3.84c0-1.04-.4-1.42-1.52-1.42h-4.95c-1.11,0-1.52.39-1.52,1.42v3.84c0,1.04.41,1.42,1.52,1.42h4.95Z"/>
      <polygon class="cls-12" points="128.37 24.27 130.92 24.27 124.25 19.82 130.19 15.82 128.29 15.82 122.52 19.31 121.72 19.31 121.72 15.82 120.61 15.82 120.61 24.27 121.72 24.27 121.72 20.26 122.03 20.26 128.37 24.27"/>
      <path class="cls-12" d="M95.47,20.6c.54-.27.79-.8.79-1.68v-1.19c0-1.38-.59-1.91-2.03-1.91h-7.52v8.45h1.11v-3.39h4.55l1.28-.02h.31c.51.03,1.3.21,1.31,1.12h0s0,2.13,0,2.13h1.06v-2.45c-.04-.47-.32-.83-.84-1.05ZM95.15,18.87c0,.93-.3,1.21-1.29,1.21h-6.05v-3.45h6.05c.99,0,1.29.28,1.29,1.21v1.04Z"/>
      <g>
        <path class="cls-1" d="M51.87,29.24v3.17h-.71v-3.07c0-.67-.21-.87-.86-.87h-1.56c-.56,0-.95.08-1.33.36l-.42.3v3.29h-.7v-4.54h.67v.68s.21-.16.21-.16c.59-.45.97-.51,1.78-.51h1.58c.96,0,1.35.38,1.35,1.37Z"/>
        <path class="cls-1" d="M53.72,31.13v-1.87c0-1.03.41-1.42,1.42-1.42h3.13c1.01,0,1.42.4,1.42,1.42v1.87c0,1.03-.41,1.42-1.42,1.42h-3.13c-1.01,0-1.42-.4-1.42-1.42ZM58.05,31.95c.69,0,.9-.22.9-.91v-1.69c0-.69-.21-.91-.9-.91h-2.68c-.69,0-.9.22-.9.91v1.69c0,.69.21.91.9.91h2.68Z"/>
        <path class="cls-1" d="M69.92,27.9l-2.21,4.49h-.92l-1.45-3.64-1.37,3.64h-1.01l-2.21-4.49h.82l1.75,3.69,1.56-3.7h1.07s1.46,3.69,1.46,3.69l1.74-3.68h.79Z"/>
        <path class="cls-1" d="M71.29,26.1h.75v6.3h-.75v-6.3Z"/>
        <path class="cls-1" d="M79.69,29.31v.91h-5.01v.78c0,.65.2.85.88.85h2.72c.52,0,.7-.18.7-.68v-.28h.71v.38c0,.79-.38,1.13-1.18,1.13h-3.18c-.98,0-1.39-.37-1.39-1.34v-1.76c0-.96.4-1.34,1.39-1.34h2.97c.98,0,1.39.37,1.39,1.34ZM78.97,29.75v-.4c0-.65-.2-.85-.88-.85h-2.54c-.68,0-.88.19-.88.85v.4h4.3Z"/>
        <path class="cls-1" d="M86.84,26.03v6.42h-.65v-.7s-.22.17-.22.17c-.58.47-.96.53-1.75.53h-1.64c-.94,0-1.33-.4-1.33-1.42v-1.87c0-1.03.39-1.42,1.33-1.42h1.64c.79,0,1.17.06,1.75.53l.17.14v-2.37h.7ZM86.14,31.16v-2.14l-.4-.32c-.38-.29-.77-.37-1.32-.37h-1.62c-.65,0-.84.22-.84.91v1.69c0,.69.19.91.84.91h1.62c.55,0,.94-.08,1.32-.37l.4-.32Z"/>
        <path class="cls-1" d="M101.96,29.25v.94h-5.14v.8c0,.67.21.87.9.87h2.79c.53,0,.72-.18.72-.7v-.29h.73v.39c0,.81-.39,1.16-1.21,1.16h-3.26c-1.01,0-1.42-.38-1.42-1.37v-1.81c0-.99.41-1.37,1.42-1.37h3.04c1.01,0,1.42.38,1.42,1.37ZM101.23,29.7v-.41c0-.67-.21-.87-.9-.87h-2.61c-.69,0-.9.2-.9.87v.41h4.41Z"/>
        <path class="cls-1" d="M114.25,29.26v1.87c0,1.03-.41,1.42-1.42,1.42h-1.76c-.85,0-1.25-.06-1.87-.53l-.23-.17-.1.7h-.59v-6.3h.74v2.25l.19-.14c.62-.47,1.03-.53,1.87-.53h1.76c1.01,0,1.42.4,1.42,1.42ZM113.5,29.35c0-.69-.22-.91-.91-.91h-1.74c-.59,0-1,.08-1.4.37l-.44.32v2.14l.44.32c.41.29.82.37,1.4.37h1.74c.69,0,.91-.22.91-.91v-1.69Z"/>
        <path class="cls-1" d="M121.82,31.13v-1.87c0-1.03.41-1.42,1.42-1.42h3.13c1.01,0,1.42.4,1.42,1.42v1.87c0,1.03-.41,1.42-1.42,1.42h-3.13c-1.01,0-1.42-.4-1.42-1.42ZM126.15,31.95c.69,0,.9-.22.9-.91v-1.69c0-.69-.21-.91-.9-.91h-2.68c-.69,0-.9.22-.9.91v1.69c0,.69.21.91.9.91h2.68Z"/>
        <path class="cls-1" d="M142.02,29.3v.93h-5.14v.79c0,.66.21.86.9.86h2.79c.53,0,.72-.18.72-.69v-.28h.73v.39c0,.8-.39,1.15-1.21,1.15h-3.26c-1.01,0-1.42-.38-1.42-1.36v-1.79c0-.98.41-1.36,1.42-1.36h3.04c1.01,0,1.42.38,1.42,1.36ZM141.29,29.75v-.4c0-.66-.21-.86-.9-.86h-2.61c-.69,0-.9.2-.9.86v.4h4.41Z"/>
        <path class="cls-1" d="M149.76,31.1h.7v.34c0,.34.14.49.49.49h3.15c.35,0,.49-.15.49-.49v-.46c0-.35-.14-.48-.49-.51l-3.31-.24c-.6-.05-.95-.34-.95-.95v-.38c0-.62.34-.95.95-.95h3.44c.6,0,.95.33.95.95v.37h-.7v-.3c0-.34-.14-.49-.49-.49h-2.94c-.35,0-.49.15-.49.49v.21c0,.35.15.48.49.51l3.31.24c.6.05.95.34.95.95v.64c0,.62-.34.95-.95.95h-3.65c-.6,0-.95-.33-.95-.95v-.4Z"/>
      </g>
      <polygon class="cls-1" points="43.74 32.45 45.12 32.45 41.51 30.03 44.72 27.85 43.7 27.85 40.58 29.75 40.14 29.75 40.14 26.08 39.54 26.08 39.54 32.45 40.14 32.45 40.14 30.27 40.31 30.27 43.74 32.45"/>
      <polygon class="cls-1" points="133.93 32.45 135.3 32.45 131.7 30.03 134.91 27.85 133.88 27.85 130.77 29.75 130.33 29.75 130.33 26.08 129.73 26.08 129.73 32.45 130.33 32.45 130.33 30.27 130.5 30.27 133.93 32.45"/>
      <path class="cls-1" d="M93.66,27.84v.7s-.22-.17-.22-.17c-.62-.47-1.04-.53-1.87-.53h-1.76c-1.01,0-1.42.4-1.42,1.42v1.56c0,1.03.41,1.42,1.42,1.42h1.76c.83,0,1.25-.06,1.87-.53l.18-.14v.78c0,.77-.29,1.06-1.06,1.06h-2.33c-.15,0-.7.06-.72-.6v-.3h-.72v.3h0c0,.29,0,1.19,1.43,1.18h0s2.54,0,2.54,0c1.1,0,1.6-.49,1.6-1.6v-4.55h-.71ZM93.62,30.98l-.43.32c-.4.29-.83.37-1.41.37h-1.74c-.69,0-.9-.22-.9-.91v-1.41c0-.69.21-.9.9-.9h1.74c.59,0,1.01.08,1.41.37l.43.32v1.85Z"/>
      <path class="cls-1" d="M118.74,27.84h-.07c-.85,0-1.25.06-1.87.53l-.26.19v-.71s-.65,0-.65,0v4.72h.74v-3.38l.44-.32c.41-.29.82-.37,1.4-.37h.26s1.05-.03,1.07.78v.67h.72v-.98s.01-1.13-1.79-1.12Z"/>
      <path class="cls-1" d="M146.68,27.78h-.07c-.85,0-1.25.06-1.87.53l-.26.19v-.7s-.65,0-.65,0v4.66h.74v-3.34l.44-.31c.41-.28.82-.36,1.4-.36h.26s1.05-.03,1.07.77v.66h.72v-.97s.01-1.12-1.79-1.11Z"/>
      <path class="cls-4" d="M31.32,27.48l-5.28-.09c-.08,0-.16-.06-.18-.14-.24-1.21.98-2.34,2.8-2.35,1.79-.01,3.2,1.27,2.84,2.46-.02.08-.1.13-.18.12Z"/>
    </g>
  </g>
</svg>