<svg xmlns="http://www.w3.org/2000/svg" xmlns:xlink="http://www.w3.org/1999/xlink" viewBox="0 0 1919 496.8"><defs><style>.cls-1{fill:#fff;}.cls-2{fill:url(#linear-gradient);}.cls-3{font-size:138.33px;fill:#0d2535;font-family:FrankRuhlLibre-Regular, Frank Ruhl Libre;}.cls-4{letter-spacing:0.01em;}.cls-5{letter-spacing:-0.01em;}.cls-6{letter-spacing:-0.03em;}.cls-7{letter-spacing:-0.06em;}.cls-8{letter-spacing:0.01em;}.cls-9{fill:url(#linear-gradient-15);}.cls-10{fill:url(#linear-gradient-24);}</style><linearGradient id="linear-gradient" x1="49.92" y1="258.43" x2="1102.97" y2="258.43" gradientTransform="matrix(0.89, 0, 0.02, 0.94, 33.63, -72.1)" gradientUnits="userSpaceOnUse"><stop offset="0" stop-color="#03042c"/><stop offset="0.46" stop-color="#030a63"/><stop offset="0.87" stop-color="#0077b6"/><stop offset="0.98" stop-color="#00afd5"/></linearGradient><linearGradient id="linear-gradient-15" x1="82.58" y1="335.13" x2="1656.87" y2="335.13" gradientUnits="userSpaceOnUse"><stop offset="0.29" stop-color="#120055"/><stop offset="0.33" stop-color="#240054"/><stop offset="0.5" stop-color="#650052"/><stop offset="0.63" stop-color="#8e0051"/><stop offset="0.69" stop-color="#9e0050"/><stop offset="0.83" stop-color="#a20351"/><stop offset="0.97" stop-color="#ae0a56"/><stop offset="0.99" stop-color="#b10c57"/></linearGradient><linearGradient id="linear-gradient-24" x1="1623.26" y1="176.93" x2="1847.04" y2="176.93" xlink:href="#linear-gradient-15"/></defs><g id="Layer_2" data-name="Layer 2"><g id="Layer_27" data-name="Layer 27"><g id="Layer_30" data-name="Layer 30"><rect class="cls-1" width="1919" height="496.8"/><path class="cls-2" d="M82.61,189.34h2.92a34.43,34.43,0,0,0,6.77,16.6q5.39,6.92,13.59,6.91,7.08,0,11-5.11t3.79-12.87a18,18,0,0,0-3.31-10.79,29.8,29.8,0,0,0-9.9-7.88l-5.21-2.63q-9.41-4.84-14.32-10.79t-5.08-16Q82.67,135.12,89,129T105.29,123a22.32,22.32,0,0,1,11.4,2.9,8.13,8.13,0,0,0,2.82,1,1.43,1.43,0,0,0,1.34-.9,11.17,11.17,0,0,0,.74-2.56h2.47l1.51,24.49h-2.93q-1.26-9.14-5.5-14.67a13.8,13.8,0,0,0-11.55-5.53,12,12,0,0,0-9.44,3.94q-3.48,3.94-3.36,11.69.1,6.63,3.31,10.51a31.75,31.75,0,0,0,9.78,7.33l5.44,2.77a67,67,0,0,1,10,6.36,25,25,0,0,1,6.7,8.37,28.45,28.45,0,0,1,2.79,12.66q.18,12.16-6.51,19.22t-18.26,7.05a27.62,27.62,0,0,1-7.09-.76,42.38,42.38,0,0,1-6-2.14,7.41,7.41,0,0,0-3.17-1.11,2,2,0,0,0-1.83,1,5.16,5.16,0,0,0-.7,2.49H84.49Z"/><path class="cls-2" d="M154,211.89a33.53,33.53,0,0,0,7.46-.55,3.43,3.43,0,0,0,2.61-2.15,18.94,18.94,0,0,0,.47-5.6l-1.15-74.41h-6.06c-4.13,0-7.19.48-9.2,1.45a8.46,8.46,0,0,0-4.3,5.12A56.61,56.61,0,0,0,141.62,147H138.7l-.35-22.41h60.24l.35,22.41H196a53.68,53.68,0,0,0-2.59-11.27,9.13,9.13,0,0,0-4.46-5.12q-3-1.45-9.07-1.45h-6.18l1.15,74.41a17.41,17.41,0,0,0,.71,5.61,3.73,3.73,0,0,0,2.78,2.14,33.2,33.2,0,0,0,7.32.55l.06,4H154Z"/><path class="cls-2" d="M215.28,204.64q-8.68-12.94-9-34.24t7.9-34.3Q222.38,123,239.47,123t25.82,13.15q8.64,13.14,9,34.3t-7.95,34.23q-8.3,12.93-25.37,12.93T215.28,204.64Zm42.58-3.87q4.75-12.11,4.48-30.36-.3-19.36-5.31-31t-17.38-11.69q-12.36,0-17,11.68t-4.35,31.05q.27,18.27,5.41,30.36T241,212.87Q253.11,212.87,257.86,200.77Z"/><path class="cls-2" d="M286.43,136.66a23.51,23.51,0,0,0-1.71-5.25,4.38,4.38,0,0,0-2.4-2.22,14.58,14.58,0,0,0-4.67-.55l-.06-4h25.28l.07,4h-4.72a3.46,3.46,0,0,0-2,.48,2,2,0,0,0-.65,1.73c0,.28.17,1.25.5,2.91l15.16,65.15h.34l14.51-72.06h6.18l18.19,72.2h.45L363,134.18a14.7,14.7,0,0,0,.29-2.9,3,3,0,0,0-.59-2,2.71,2.71,0,0,0-2-.62h-5.17l-.06-4h22l.06,4a12.28,12.28,0,0,0-5.1.83,5.87,5.87,0,0,0-2.71,2.84,34.47,34.47,0,0,0-2,6.15l-16.33,77.45h-6.63l-17.95-70.54h-.22l-14.64,70.54h-6.86Z"/><path class="cls-2" d="M439.22,210.54q1.54,1.38,5.58,1.38l.07,4H419.13l-.06-4h4.27q3.26,0,3.21-3.46a12.48,12.48,0,0,0-.38-2.76l-7.46-24.35H393.76l-6.7,24.76a14.54,14.54,0,0,0-.4,2.76q0,3,3.19,3h4l.06,4H374l-.07-4a10.65,10.65,0,0,0,4.49-.76,5.65,5.65,0,0,0,2.49-2.49,26.47,26.47,0,0,0,1.88-5.33l22.61-78.7h6.29l24.72,79.68C437.24,207.54,438.19,209.62,439.22,210.54Zm-21.93-33.89L405.69,139h-.33l-10.21,37.62Z"/><path class="cls-2" d="M452.44,211.93a19.28,19.28,0,0,0,5.84-.63,3.31,3.31,0,0,0,2.27-2.14,17.53,17.53,0,0,0,.43-5l-1.05-67.64a16.21,16.21,0,0,0-.64-5.11,3.65,3.65,0,0,0-2.33-2.15,19.33,19.33,0,0,0-5.8-.62l-.06-4h30.22q11.13,0,17.51,5.68t6.56,16.87q.14,9.41-4.1,15.21a20.87,20.87,0,0,1-11.51,7.89v.27a16,16,0,0,1,8.59,6.78q2.82,4.71,4.21,14.39l.75,5.12q1.25,7.74,3.33,11.41a6.82,6.82,0,0,0,6.35,3.66l.06,4H498.47q-3-3.31-4.69-12.72l-3-17q-1.23-6.91-4.26-10c-2-2.07-5-3.11-8.87-3.11h-6.85l.48,31.12a16.07,16.07,0,0,0,.64,5,3.45,3.45,0,0,0,2.5,2.14,24,24,0,0,0,6.19.56l.06,4h-28.2Zm25.4-43.85q8.54,0,12.51-4.63t3.82-14.59q-.15-10-4.38-14.66T477,129.49q-4.27,0-5.55,1.18c-.85.78-1.26,2.1-1.23,3.94l.52,33.47Z"/><path class="cls-2" d="M518.63,211.93l45.14-82.7H545.23q-7.32,0-11,1.45a9.55,9.55,0,0,0-5.36,5.33q-1.7,3.87-2.35,11.89h-3l-.36-23.23h52.48l.06,3.88-45.36,82.84h20.9c5.7,0,10-.52,13-1.59a11.9,11.9,0,0,0,6.71-5.73q2.23-4.16,3.34-12.45h3.15L576.57,216H518.7Z"/><path class="cls-2" d="M648,124.67l.06,4a15,15,0,0,0-4.93.62,5.81,5.81,0,0,0-2.78,2.22,32,32,0,0,0-2.62,5.18L621.5,178.61l.39,25a18.46,18.46,0,0,0,.65,5.46,3.71,3.71,0,0,0,2.67,2.21,27.93,27.93,0,0,0,7.15.63l.06,4H601.74l-.06-4a27.09,27.09,0,0,0,7-.62,3.57,3.57,0,0,0,2.61-2.21,18.17,18.17,0,0,0,.48-5.46l-.36-23.38L592,135.45q-1.76-4.14-3.57-5.46c-1.21-.88-3.17-1.32-5.86-1.32l-.07-4H609.1l.06,4h-5.51a1.67,1.67,0,0,0-1.88,1.93,6.38,6.38,0,0,0,.6,2.22l16.45,39.56h.23l14.45-39.14a8.91,8.91,0,0,0,.53-2.49,1.85,1.85,0,0,0-2.06-2.08h-5.73l-.06-4Z"/><path class="cls-2" d="M657,189.41h2.92A34.36,34.36,0,0,0,666.65,206q5.39,6.93,13.59,6.92,7.08,0,11-5.12T695,194.94a18,18,0,0,0-3.31-10.79,29.8,29.8,0,0,0-9.9-7.88l-5.21-2.63q-9.4-4.84-14.32-10.79t-5.08-16q-.18-11.61,6.13-17.7T679.64,123a22.32,22.32,0,0,1,11.4,2.9,8.13,8.13,0,0,0,2.82,1,1.43,1.43,0,0,0,1.34-.9,10.69,10.69,0,0,0,.74-2.56h2.48l1.5,24.49H697q-1.28-9.13-5.51-14.67a13.8,13.8,0,0,0-11.55-5.53,12,12,0,0,0-9.44,3.94c-2.31,2.63-3.44,6.52-3.36,11.69q.11,6.63,3.31,10.51a31.75,31.75,0,0,0,9.78,7.33l5.44,2.77a67,67,0,0,1,10,6.36,25,25,0,0,1,6.71,8.37,28.59,28.59,0,0,1,2.78,12.66q.18,12.17-6.51,19.22t-18.26,7.05a27.62,27.62,0,0,1-7.09-.76,43.67,43.67,0,0,1-6-2.14,7.43,7.43,0,0,0-3.16-1.11,2,2,0,0,0-1.84,1,5.16,5.16,0,0,0-.7,2.49h-2.81Z"/><path class="cls-2" d="M714.5,212l45.14-82.71H741.1q-7.32,0-11,1.45a9.53,9.53,0,0,0-5.36,5.32q-1.69,3.89-2.35,11.9h-3L719,124.68h52.48l.06,3.87L726.18,211.4h20.9c5.7,0,10-.53,13-1.59a11.92,11.92,0,0,0,6.71-5.74q2.24-4.16,3.34-12.45h3.15L772.44,216H714.57Z"/><path class="cls-2" d="M781.82,212a21.92,21.92,0,0,0,6-.55,3,3,0,0,0,2.16-2.14,23.81,23.81,0,0,0,.36-5.6l-1-66.67a21.23,21.23,0,0,0-.59-5.6,3.28,3.28,0,0,0-2.22-2.15,21.87,21.87,0,0,0-6-.55l-.06-4h52.25l.35,22.14h-2.93A47.76,47.76,0,0,0,827.5,136a9.52,9.52,0,0,0-4.68-5.05q-3.17-1.53-9.35-1.53h-9.89q-2.6,0-3.3.9c-.48.6-.7,2-.67,4.08l.49,31.4h12.81a14.34,14.34,0,0,0,6.27-1,5.35,5.35,0,0,0,2.71-3.26,44.59,44.59,0,0,0,1.29-7.19h2.7l.43,28.22h-2.69a44.61,44.61,0,0,0-1.52-7.06,5.82,5.82,0,0,0-2.8-3.32A13.9,13.9,0,0,0,813,171H800.18l.45,29.6c0,3.22.43,5.55,1.12,7a5.82,5.82,0,0,0,3.81,3,34,34,0,0,0,9,.84q7.08,0,10.88-1.52a11.19,11.19,0,0,0,5.87-5.61q2.07-4.06,3.41-12.1h2.92L836.72,216H781.88Z"/><path class="cls-2" d="M859.9,138.25h-.22l1,66.53q.06,3.89,1.38,5.53c.88,1.11,2.33,1.66,4.36,1.67h4.38l.06,4H848l-.07-4h3.26a4.55,4.55,0,0,0,4-1.73q1.27-1.73,1.21-5.46l-1.05-68.19a16.59,16.59,0,0,0-.64-5.12,3.43,3.43,0,0,0-2.28-2.07,23.71,23.71,0,0,0-5.86-.69l-.06-4h18.88l39,70.82h.33l-.93-60.17q-.09-6.63-5.83-6.64h-4.38l-.06-4h22.92l.06,4H913c-3.45,0-5.13,2.22-5.07,6.64l1.26,81.47h-5.5Z"/><path class="cls-2" d="M928.92,212a19.82,19.82,0,0,0,6-.62,3.17,3.17,0,0,0,2.16-2.21,22.93,22.93,0,0,0,.36-5.47l-1-66.53a21.29,21.29,0,0,0-.59-5.6,3.43,3.43,0,0,0-2.28-2.21,19.48,19.48,0,0,0-5.91-.62l-.06-4h27.64l.06,4a19.51,19.51,0,0,0-5.94.62,3.33,3.33,0,0,0-2.16,2.21,21.14,21.14,0,0,0-.42,5.61l1,66.53a20.55,20.55,0,0,0,.59,5.46,3.43,3.43,0,0,0,2.28,2.21,19.41,19.41,0,0,0,5.91.63l.06,4H929Z"/><path class="cls-2" d="M968.81,212a22.22,22.22,0,0,0,6-.56,3,3,0,0,0,2.16-2.14,23.76,23.76,0,0,0,.36-5.6l-1-66.67a21.29,21.29,0,0,0-.59-5.6,3.25,3.25,0,0,0-2.22-2.14,21.77,21.77,0,0,0-6-.56l-.06-4h52.25l.35,22.13h-2.93a47.73,47.73,0,0,0-2.64-10.86,9.55,9.55,0,0,0-4.68-5.05c-2.11-1-5.23-1.52-9.35-1.52h-9.89c-1.72,0-2.83.3-3.3.89s-.7,2-.67,4.08l.49,31.4H999.9a14.34,14.34,0,0,0,6.27-1,5.33,5.33,0,0,0,2.71-3.25,45,45,0,0,0,1.29-7.2h2.7l.43,28.21h-2.69a44.16,44.16,0,0,0-1.52-7.05,5.79,5.79,0,0,0-2.8-3.32,13.75,13.75,0,0,0-6.31-1.11H987.17l.45,29.6c0,3.23.43,5.56,1.12,7a5.86,5.86,0,0,0,3.81,3,34.51,34.51,0,0,0,9,.83q7.08,0,10.88-1.52a11.21,11.21,0,0,0,5.87-5.6q2.07-4.08,3.41-12.11h2.92l-.87,23.79H968.87Z"/><text class="cls-3" transform="matrix(0.81, 0, 0.02, 1, 77.85, 215.89)"><tspan class="cls-4">S</tspan><tspan class="cls-5" x="73.45" y="0">T</tspan><tspan class="cls-6" x="151.61" y="0">O</tspan><tspan class="cls-7" x="245.68" y="0">W</tspan><tspan class="cls-8" x="363.54" y="0">ARZYS</tspan><tspan x="780.47" y="0">Z</tspan><tspan class="cls-8" x="859.73" y="0">ENIE</tspan></text><path class="cls-9" d="M85.73,431.63q9,0,12.93-1.3a7.36,7.36,0,0,0,5.07-4.88q1.14-3.57,1-12l-2.41-156.36q-.13-8.46-1.51-12.19a8.06,8.06,0,0,0-5.23-5q-3.85-1.31-12.83-1.3l-.17-10.73H219.66l.81,52.34h-9.24q-3.43-16.57-7.92-25t-11.8-11.7q-7.32-3.25-20.26-3.26H152c-3.87,0-6.46.76-7.75,2.27s-1.91,4.45-1.85,8.78l1.11,71.84H172.8q7.92,0,12-2.44t5.95-8.29q1.89-5.85,3-18.2h7.92l1.12,72.17h-7.93q-1.52-12.36-3.58-18.21t-6.07-8.29q-4-2.43-12.19-2.44H143.7l1.1,71.19q.16,10.08,1.94,14.14t7.61,5.69q5.84,1.64,19.57,1.63Q188.19,430,197,426t14.31-13.81q5.53-9.76,8.43-27.63H229l-2.28,57.86-140.77,0Z"/><path class="cls-9" d="M283.63,427.91q-17.58-18.36-18.2-58.35l-1.74-112.48q-.13-8.77-1.25-12.36a7.25,7.25,0,0,0-5-4.87q-3.84-1.31-13.09-1.31l-.17-10.72h78.45l.16,10.72q-9.24,0-13.05,1.3a7.33,7.33,0,0,0-4.94,4.88q-1.14,3.59-1,12.35l1.76,114.11q.48,31.2,8.64,46.16t25.85,15q18,0,25.78-14.95t7.35-46.16l-1.77-114.11q-.13-8.77-1.38-12.35a7.65,7.65,0,0,0-5.09-4.88q-3.86-1.29-13.09-1.3l-.17-10.73h77.92l.16,10.73c-6.16,0-10.52.43-13.05,1.3a6.94,6.94,0,0,0-4.81,4.87q-1,3.58-.87,12.35l1.74,112.49q.62,40-16.8,58.35t-56.23,18.36Q301.22,446.28,283.63,427.91Z"/><path class="cls-9" d="M446.52,431.67q9.24,0,13.06-1.3a7.33,7.33,0,0,0,4.94-4.87c.75-2.39,1.09-6.39,1-12L463.1,257.1c-.08-5.63-.59-9.7-1.5-12.19a8.08,8.08,0,0,0-5.23-5q-3.86-1.29-12.83-1.3l-.17-10.73h81.35q64.18,0,65,52.67.36,23.09-11.32,36.57t-31.16,17.39v.65q16.44,3.9,23.61,14.8t10.95,33.64l2.59,13.66q3.45,18.52,8.46,26.49t16.1,8l.17,10.73h-48.6q-3.75-3.57-7-11.7a100.91,100.91,0,0,1-5.29-18.21l-8.62-44.86q-2.31-12.34-7.55-18.53t-15-6.18H504.58l1.09,70.54q.12,8.13,1.37,11.87a7.66,7.66,0,0,0,5.1,5q3.84,1.31,12.3,1.3l.16,10.73H446.69ZM515.2,329.93q18,0,26.25-10.89t7.92-34.3Q549,262,540.79,251.1t-25.65-10.9q-7.39,0-9.74,2.44t-2.22,9.59l1.2,77.7Z"/><path class="cls-9" d="M639.36,416.74q-22.64-29.26-23.45-81.92t20.92-81.76Q658.57,224,701.35,224t65.56,29.1q22.77,29.1,23.58,81.77t-21,81.91Q747.57,446,704.79,446T639.36,416.74Zm98.8-7.14q10.05-24.71,9.28-74.77-1.53-99.15-45.64-99.16-23.25,0-33.3,24.54t-9.28,74.61q.78,50.07,11.59,74.77t34.06,24.71Q728.11,434.3,738.16,409.6Z"/><path class="cls-9" d="M873.33,431.72q9.24,0,13.06-1.3a7.33,7.33,0,0,0,4.94-4.87c.76-2.39,1.09-6.39,1-12l-2.41-156c-.09-5.86-.55-10-1.38-12.52a7.66,7.66,0,0,0-5.1-5q-3.84-1.29-13.09-1.3l-.17-10.73h79l.17,10.73q-9.26,0-13.19,1.3a7.38,7.38,0,0,0-5.07,5q-1.12,3.74-1,12.51l2.35,152.14q.15,9.75,1.8,13.82a8.82,8.82,0,0,0,6,5.36q4.38,1.31,14.42,1.31,21.92,0,32.86-9.75t15.3-35.44h9.24l-2.28,57.54-136.28,0Z"/><path class="cls-9" d="M1031.54,431.74q9.24,0,13-1.3a7.29,7.29,0,0,0,4.94-4.87c.76-2.39,1.09-6.39,1-12l-2.41-156q-.14-8.79-1.52-12.52a8,8,0,0,0-5.23-5q-3.84-1.29-12.82-1.3l-.17-10.73h78.44l.17,10.73q-9,0-12.79,1.3a7.32,7.32,0,0,0-4.94,5q-1.12,3.73-1,12.51l2.41,156q.13,8.77,1.38,12.36a7.22,7.22,0,0,0,5.09,4.71q3.86,1.14,12.83,1.14l.17,10.73H1031.7Z"/><path class="cls-9" d="M1131.11,431.75q10.31,0,14.51-1.3t5.21-4.71q1-3.42.86-12.19l-2.41-156.37q-.13-8.77-1.51-12.35a8.12,8.12,0,0,0-5.49-4.88q-4.12-1.29-14.15-1.3l-.17-10.73h86.63q45.71.66,69.34,25.86t24.45,78.51q.9,58.18-24.19,84.19t-75,26h-77.91Zm121.5-25q13.25-23.42,12.47-73.47-1.44-93-56.11-93-11.62,0-15.68,2.11t-3.94,9.91l2.46,159q.18,11.7,3.93,15.28t14.58,3.58Q1239.38,430.14,1252.61,406.74Z"/><path class="cls-9" d="M1331.58,431.78q9,0,12.92-1.3a7.32,7.32,0,0,0,5.07-4.88q1.14-3.57,1-12l-2.41-156.36q-.14-8.46-1.51-12.19a8,8,0,0,0-5.23-5q-3.86-1.3-12.83-1.31l-.16-10.72H1465.5l.81,52.34h-9.24q-3.43-16.57-7.92-25t-11.8-11.71q-7.32-3.24-20.25-3.25h-19.28c-3.88,0-6.46.76-7.76,2.27s-1.91,4.45-1.85,8.78l1.11,71.84h29.32q7.92,0,12-2.44t6-8.29q1.89-5.85,3-18.2h7.92l1.12,72.17h-7.93q-1.52-12.36-3.58-18.21t-6.07-8.29q-4-2.43-12.19-2.44h-29.31l1.1,71.19q.15,10.08,1.93,14.14t7.62,5.69q5.82,1.64,19.57,1.63,14.25,0,23-4.06t14.32-13.81q5.52-9.77,8.42-27.63h9.24l-2.27,57.86-140.78,0Z"/><path class="cls-9" d="M1494.27,431.79q9.24,0,13.06-1.29a7.35,7.35,0,0,0,4.94-4.88q1.13-3.57,1-12l-2.42-156.36c-.08-5.64-.59-9.7-1.5-12.19a8.06,8.06,0,0,0-5.23-5q-3.86-1.31-12.83-1.31l-.17-10.72h81.35q64.18,0,65,52.67.36,23.09-11.32,36.57T1595,334.61v.65q16.44,3.9,23.61,14.79t11,33.65l2.59,13.65q3.45,18.54,8.46,26.5t16.1,8l.17,10.73h-48.6q-3.75-3.59-7-11.71a100.56,100.56,0,0,1-5.29-18.2l-8.62-44.87q-2.31-12.35-7.55-18.53t-15-6.17h-12.41l1.09,70.55q.12,8.13,1.37,11.86a7.62,7.62,0,0,0,5.1,5q3.84,1.31,12.3,1.3l.16,10.73h-77.91ZM1563,330.05q18,0,26.25-10.88t7.92-34.3q-.34-22.75-8.58-33.65t-25.65-10.89q-7.4,0-9.74,2.44t-2.22,9.59l1.2,77.69Z"/><path class="cls-10" d="M1847,42s-12,73.41-29.19,92.93l-65.36,71-80.73,83.52-2.88-17.64-9.2,8.9-1-2.37,6.76-8.44Zm-92.27-14.34-93,200.45-12.1-11.34-26-2.77-.37,3.32c1.55.18,3.22.77,3.86,1.86l20.75,38.92,2,3.81.09.13,6.21,10,.45.72.64-1.22,1.76-2.81.28-.55,51.47-87.86,40.34-72.81C1761.43,87.78,1754.77,27.67,1754.77,27.67Zm-81.07,267-1,.77-.59.36-1.68,1.45s-1.36,2.09-1.36,2.22l9.16,21v.05h0l30.54,5.71h.14l-20.07-13.74-2.59-2.54,48.13-28.26,71.64-44.5c19-12.34,38.79-66.55,38.79-66.55Z"/></g></g></g></svg>