<?xml version="1.0" encoding="UTF-8"?><svg id="Layer_2" xmlns="http://www.w3.org/2000/svg" xmlns:xlink="http://www.w3.org/1999/xlink" viewBox="0 0 1280 1080"><defs><linearGradient id="linear-gradient" x1="1027.6" y1="908.9" x2="1124.32" y2="908.9" gradientUnits="userSpaceOnUse"><stop offset="0" stop-color="#266d4f"/><stop offset="1" stop-color="#2e7d5d"/></linearGradient><linearGradient id="linear-gradient-2" x1="587.44" y1="43.54" x2="726.9" y2="149.24" gradientUnits="userSpaceOnUse"><stop offset="0" stop-color="#db7157"/><stop offset="1" stop-color="#d8583f"/></linearGradient><linearGradient id="linear-gradient-3" x1="1567.4" y1="364.13" x2="1636.48" y2="455.45" gradientTransform="translate(-185.42 -508.92) rotate(24.06)" gradientUnits="userSpaceOnUse"><stop offset="0" stop-color="#51ba78"/><stop offset="1" stop-color="#3bb764"/></linearGradient><linearGradient id="linear-gradient-4" x1="949.32" y1="190.77" x2="1055.27" y2="309.01" gradientUnits="userSpaceOnUse"><stop offset="0" stop-color="#f8b857"/><stop offset="1" stop-color="#f7931e"/></linearGradient><linearGradient id="linear-gradient-5" x1="985.85" y1="135.24" x2="1015" y2="167.77" xlink:href="#linear-gradient-4"/><linearGradient id="linear-gradient-6" x1="985.85" y1="327.82" x2="1015" y2="360.35" xlink:href="#linear-gradient-4"/><linearGradient id="linear-gradient-7" x1="1018.75" y1="868.82" x2="1047.9" y2="901.35" gradientTransform="translate(63.39 -637.29)" xlink:href="#linear-gradient-4"/><linearGradient id="linear-gradient-8" x1="1018.75" y1="1061.4" x2="1047.9" y2="1093.93" gradientTransform="translate(-129.19 -829.87)" xlink:href="#linear-gradient-4"/><linearGradient id="linear-gradient-9" x1="850.37" y1="508.84" x2="879.52" y2="541.37" gradientTransform="translate(203.57 -345.4)" xlink:href="#linear-gradient-4"/><linearGradient id="linear-gradient-10" x1="850.37" y1="701.43" x2="879.52" y2="733.96" gradientTransform="translate(67.39 -401.81)" xlink:href="#linear-gradient-4"/><linearGradient id="linear-gradient-11" x1="1392.35" y1="1004.3" x2="1421.5" y2="1036.83" gradientTransform="translate(-338.42 -704.68)" xlink:href="#linear-gradient-4"/><linearGradient id="linear-gradient-12" x1="1392.35" y1="1196.88" x2="1421.5" y2="1229.41" gradientTransform="translate(-474.59 -1033.44)" xlink:href="#linear-gradient-4"/><radialGradient id="radial-gradient" cx="268.08" cy="271.07" fx="268.08" fy="305.78" r="47.68" gradientUnits="userSpaceOnUse"><stop offset=".07" stop-color="#74ceea"/><stop offset="1" stop-color="#217abe"/></radialGradient><radialGradient id="radial-gradient-2" cx="334.19" cy="170.32" fx="334.19" fy="194.52" r="33.24" gradientTransform="translate(-16.21 64.45) rotate(-2.65)" xlink:href="#radial-gradient"/></defs><g id="Layer_1-2"><g opacity=".07"><rect width="1280" height="1080" fill="#dbcead" stroke-width="0"/><line x1="937.09" y1="982.1" x2="928" y2="967.22" fill="none" stroke="#4d4948" stroke-linecap="round" stroke-miterlimit="10" stroke-width="5"/><line x1="937.71" y1="966.28" x2="944.53" y2="960.6" fill="none" stroke="#4d4948" stroke-linecap="round" stroke-miterlimit="10" stroke-width="5"/><polyline points="825.04 845.1 943.84 727.56 1057.59 841.31" fill="none" stroke="#35784c" stroke-linecap="round" stroke-linejoin="round" stroke-width="11"/><rect x="854.74" y="855" width="14.53" height="22.12" fill="#42b9da" stroke-width="0"/><rect x="881.28" y="855" width="14.53" height="22.12" fill="#42b9da" stroke-width="0"/><rect x="881.28" y="884.07" width="14.53" height="22.12" fill="#42b9da" stroke-width="0"/><rect x="854.74" y="884.07" width="14.53" height="22.12" fill="#42b9da" stroke-width="0"/><rect x="986.18" y="855" width="14.53" height="22.12" fill="#42b9da" stroke-width="0"/><rect x="1012.73" y="855" width="14.53" height="22.12" fill="#42b9da" stroke-width="0"/><rect x="1012.73" y="884.07" width="14.53" height="22.12" fill="#42b9da" stroke-width="0"/><rect x="986.18" y="884.07" width="14.53" height="22.12" fill="#42b9da" stroke-width="0"/><rect x="920.46" y="855" width="14.53" height="22.12" fill="#42b9da" stroke-width="0"/><rect x="947" y="855" width="14.53" height="22.12" fill="#42b9da" stroke-width="0"/><rect x="947" y="884.07" width="14.53" height="22.12" fill="#42b9da" stroke-width="0"/><rect x="920.46" y="884.07" width="14.53" height="22.12" fill="#42b9da" stroke-width="0"/><rect x="881.28" y="915.67" width="14.53" height="22.12" fill="#42b9da" stroke-width="0"/><rect x="881.28" y="944.74" width="14.53" height="22.12" fill="#42b9da" stroke-width="0"/><rect x="854.74" y="944.74" width="14.53" height="22.12" fill="#42b9da" stroke-width="0"/><rect x="986.18" y="915.67" width="14.53" height="22.12" fill="#42b9da" stroke-width="0"/><rect x="1012.73" y="915.67" width="14.53" height="22.12" fill="#42b9da" stroke-width="0"/><rect x="1012.73" y="944.74" width="14.53" height="22.12" fill="#42b9da" stroke-width="0"/><rect x="986.18" y="944.74" width="14.53" height="22.12" fill="#42b9da" stroke-width="0"/><rect x="920.46" y="915.67" width="14.53" height="22.12" fill="#42b9da" stroke-width="0"/><rect x="947" y="915.67" width="14.53" height="22.12" fill="#42b9da" stroke-width="0"/><rect x="947" y="944.74" width="14.53" height="22.12" fill="#42b9da" stroke-width="0"/><rect x="920.46" y="944.74" width="14.53" height="22.12" fill="#42b9da" stroke-width="0"/><path d="M1115.72,899.88c-.89-.51-1.82-.92-2.78-1.24.02-.59.03-1.17.03-1.76,0-23.19-12.72-41.98-28.41-41.98-13.14,0-24.2,13.19-27.44,31.1-7.17-2.01-14.13-1.42-19.65,2.28-13.04,8.73-13.16,31.42-.27,50.69,12.89,19.27,26.29,29.51,39.33,20.78.87-.58,1.67-1.23,2.42-1.92,10.15,3.45,31.45-5.72,39.51-19.66,8.78-15.21,7.55-32.35-2.74-38.29Z" fill="url(#linear-gradient)" stroke-width="0"/><path d="M1280,602.46v477.54H0v-422.89c27.73-11.28,51.28-35.54,64.26-63.19,19.45-41.45,20.29-88.92,19.87-134.7-.43-45.79-1.56-92.88,14.53-135.75,23.35-62.2,84.41-108.45,150.61-114.07,21.05-1.79,43.14.02,63.11-5.68,4.21-1.2,8.32-2.73,12.31-4.7,2.74-1.35,5.34-2.87,7.82-4.53,24.29-16.22,37.24-46.09,55.19-69.96,31.84-42.33,82.57-67.57,134.6-77.5,50.91-9.72,103.41-6.08,154.82.74,1.13.15,2.25.3,3.38.45,18.39,2.49,36.74,5.35,55.02,8.6,84.44,14.95,167.47,37.84,247.63,68.29,4.94,1.88,9.97,3.91,14.97,6.12,3.34,1.48,6.67,3.04,9.95,4.69,20.07,10.05,38.47,23.4,47.36,41.7,2.63,5.42,4.43,11.26,5.2,17.59.02.13.03.27.04.4,1.11,9.71-.45,19.04-3.39,28.19-8.18,25.44-27.06,49.5-29.21,76.65-.05.6-.09,1.21-.12,1.81h0c-2.02,39.16,31.12,71.94,65.76,90.88,35.17,19.23,75.31,31.17,104.23,58.92,21.96,21.06,35.33,49.3,48.22,76.86,11.35,24.26,22.75,48.78,33.84,73.54Z" fill="#f1ead6" stroke-width="0"/><path d="M657.72,282.07c-1.47-10.45-10.98-18.28-21.67-22.73-17.15-7.14-33.09,5.39-38.18,10.03-14.01-3.49-16.9-5.06-30.31,2.91-8.38,4.98-19.62,17.15-29.25,19.76-7.22,1.95-15.18,2.05-21.66,5.5-12.47,6.64-13.91,21.96-20.91,33.33-5.41,8.79-14.35,15.3-21.99,22.65-22.94,22.09-39.83,45.72-44.71,81.25-2.29,10.66,6.08,24.44,4.89,35.23-5.87,7.86-12.41,13.51-13.04,27.08-.54,11.58-1.96,22.71,8.15,37.27-9.78,11.94-6.48,33.48-1.4,45.01,8.48,19.27,31.39,32.33,35.77,52.66,4.09,12.1-12.86,29.58-3.73,60.15,14.34,19.8,29.81,27.55,42.97,37.25,8.13,5.99,6.04,11.06,13.41,17.79s22.82,16.89,36.83,11.65c-4.63,11.07-.02,24.81,9.83,32.7,9.85,7.89,23.06,11.54,36.09,13.59,16.4,2.57,35.35,2.25,47.06-8.33,9.52-8.6,11.59-21.56,13.16-33.57,1.87-14.23,2.25-31.55-11.1-39.5,7.79-16.08,10.49-34.15,7.52-51.47v-188.11c-4.48-4.93-8.3-11.15-8.56-17.49-.28-6.86,4.66-12.89,7.24-19.35,2.81-7.04,2.79-14.95-.06-21.97-1.47-3.63-3.68-7.05-4.47-10.84-1.23-5.87,1.05-11.82,3.01-17.54,2.7-7.85,4.77-16.62.86-24.05-2.58-4.9-7.68-9.08-7.69-14.49,0-4.48,3.53-8.25,5.56-12.35,2.59-5.25,2.61-11.17,1.23-16.69-1.35-5.36-6.63-10.78-6.9-16.15-.24-4.87,3.77-7.98,6.47-11.84,4.09-5.87,6.56-12.34,5.57-19.33Z" fill="#f0878e" stroke-width="0"/><path d="M635.37,536.2c-1.15,0-2.31-.4-3.18-1.19-6.82-6.2-13.86-12.62-18.75-20.66-5.69-9.37-7.07-19.53-3.77-27.86.82-2.07,3.37-3.16,5.68-2.43,2.32.73,3.53,3.01,2.71,5.08-2.46,6.21-1.29,14.01,3.2,21.41,4.29,7.06,10.89,13.07,17.27,18.88,1.72,1.57,1.7,4.09-.06,5.63-.87.76-1.99,1.14-3.12,1.14Z" fill="#fc959f" stroke-width="0"/><path d="M602.53,520.33s-.04,0-.06,0c-7.04-.02-13.04-4.7-13.37-10.41-.13-2.19,1.76-4.07,4.21-4.18,2.47-.12,4.55,1.57,4.68,3.77.08,1.44,2.32,2.87,4.51,2.87,3.21.03,6.31-1.98,8.38-3.65,1.83-1.47,4.64-1.35,6.29.29,1.65,1.63,1.51,4.15-.32,5.62-4.69,3.78-9.51,5.7-14.33,5.7Z" fill="#fc959f" stroke-width="0"/><path d="M562.15,499.14c-.28,0-.56-.02-.85-.07-6.63-1.14-12.56-4.96-15.85-10.23-3.3-5.26-3.85-11.77-1.47-17.42.87-2.06,3.44-3.1,5.74-2.32,2.3.77,3.47,3.07,2.6,5.13-1.44,3.42-1.1,7.54.91,10.73,2,3.19,5.74,5.61,9.76,6.3,2.42.42,4,2.5,3.53,4.66-.41,1.9-2.28,3.23-4.37,3.23Z" fill="#fc959f" stroke-width="0"/><path d="M548.74,415.47c-1.41,0-2.8-.6-3.66-1.71-8.16-10.5-12.23-20.77-12.12-30.51.15-12.61,8.01-23.92,19.56-28.14,7.15-2.61,14.76-2.36,21.34-1.93,6.18.41,13.29,1.12,19.47,4.44,6.85,3.68,11.76,10.36,13.13,17.87,1.22,6.71-.3,13.99-4.3,20.5-2.75,4.49-6.18,7.71-10.2,9.57-5.48,2.54-11.93,2.27-16.42-.67-1.98-1.3-2.41-3.79-.96-5.56,1.45-1.77,4.24-2.16,6.23-.86,1.73,1.14,4.64,1.15,7.06.02,2.42-1.12,4.6-3.25,6.48-6.32,3.04-4.96,4.22-10.43,3.32-15.4-.95-5.23-4.29-9.84-8.93-12.33-4.51-2.42-10.39-2.99-15.54-3.33-5.56-.37-11.95-.6-17.31,1.36-8.14,2.97-13.91,11.55-14.02,20.85-.1,8.06,3.44,16.77,10.53,25.88,1.4,1.81.9,4.29-1.12,5.54-.77.48-1.66.71-2.54.71Z" fill="#fc959f" stroke-width="0"/><path d="M488.61,575.51h0c-2.46,0-4.45-1.78-4.45-3.98,0-5.01-2.84-9.91-7.41-12.8-4.57-2.89-10.7-3.65-15.98-1.99-2.32.73-4.86-.36-5.68-2.43-.82-2.07.4-4.35,2.72-5.08,7.97-2.51,17.2-1.36,24.09,3,6.89,4.36,11.18,11.75,11.18,19.3,0,2.2-1.99,3.98-4.45,3.98Z" fill="#fc959f" stroke-width="0"/><path d="M547.43,587.78c-1.19,0-2.38-.43-3.26-1.27-3.92-3.76-6.57-8.42-7.65-13.48-1.21-5.64-.37-11.85,2.34-17.47,3.7-7.64,10.71-13.94,19.25-17.28,2.25-.88,4.88.04,5.87,2.05.99,2.01-.04,4.36-2.3,5.24-6.49,2.54-11.83,7.33-14.64,13.14-2.02,4.17-2.65,8.72-1.77,12.82.75,3.53,2.68,6.92,5.42,9.55,1.68,1.61,1.58,4.13-.22,5.62-.86.71-1.95,1.07-3.03,1.07Z" fill="#fc959f" stroke-width="0"/><path d="M542.32,691s-.1,0-.15,0c-6.82-.2-13.88-.41-20.87-1.77-8.25-1.6-14.98-4.58-20.02-8.85-6.22-5.27-9.5-12.52-8.76-19.39.23-2.19,2.41-3.79,4.86-3.58,2.45.21,4.24,2.15,4.01,4.34-.47,4.38,1.84,9.31,6.03,12.86,3.84,3.25,9.15,5.56,15.78,6.85,6.2,1.21,12.85,1.4,19.27,1.59,2.46.07,4.39,1.91,4.31,4.11-.08,2.15-2.06,3.85-4.45,3.85Z" fill="#fc959f" stroke-width="0"/><path d="M621.69,773.29c-4.3,0-8.6-.87-12.49-2.68-2.18-1.01-3.03-3.42-1.9-5.37,1.13-1.95,3.82-2.71,6.01-1.7,7.08,3.29,16.57,1.87,22.08-3.29,1.7-1.59,4.52-1.65,6.3-.13,1.78,1.52,1.85,4.04.15,5.63-5.25,4.91-12.68,7.53-20.14,7.53Z" fill="#fc959f" stroke-width="0"/><path d="M479.54,490.85c-1.2,0-2.39-.43-3.27-1.28-8.38-8.09-11.52-20.14-8-30.7.7-2.11,3.18-3.31,5.54-2.68,2.36.63,3.7,2.84,3,4.95-2.64,7.92-.28,16.96,6,23.02,1.67,1.61,1.56,4.13-.24,5.62-.86.71-1.94,1.06-3.03,1.06Z" fill="#fc959f" stroke-width="0"/><path d="M591.82,326.29c-1.73,0-3.38-.91-4.1-2.42-3.56-7.48-3.96-15.09-1.11-21.41,3.54-7.86,12.36-12.99,20.98-12.21,2.45.22,4.23,2.18,3.98,4.36-.25,2.19-2.44,3.78-4.88,3.55-4.68-.43-9.75,2.69-11.81,7.26-1.93,4.29-1.55,9.87,1.05,15.32.96,2.02-.09,4.36-2.36,5.22-.57.22-1.16.32-1.74.32Z" fill="#fc959f" stroke-width="0"/><path d="M604.76,422.12c-.39,0-.78-.05-1.18-.14-2.37-.58-3.77-2.77-3.12-4.89,2.32-7.58,9.31-13.81,17.81-15.87,2.37-.57,4.82.68,5.46,2.8.64,2.12-.76,4.31-3.14,4.88-5.42,1.31-10.06,5.44-11.54,10.28-.54,1.77-2.34,2.93-4.29,2.93Z" fill="#fc959f" stroke-width="0"/><path d="M635.6,617.46c-1.49,0-2.94-.67-3.79-1.88-1.3-1.87-.66-4.32,1.43-5.48,2.54-1.41,4.5-3.69,5.38-6.24,1.62-4.73-.31-10.52-1.86-15.18-.7-2.11.64-4.32,3-4.95,2.36-.63,4.84.57,5.54,2.68,1.79,5.38,4.25,12.75,1.84,19.78-1.5,4.37-4.85,8.26-9.19,10.67-.73.41-1.54.6-2.35.6Z" fill="#fc959f" stroke-width="0"/><path d="M581.47,763.16c-.78,0-1.58-.19-2.3-.57-11.7-6.32-19.52-18.29-19.92-30.5-.07-2.2,1.86-4.03,4.32-4.09,2.45-.06,4.51,1.66,4.58,3.86.31,9.58,6.45,18.97,15.62,23.92,2.11,1.14,2.78,3.58,1.51,5.46-.84,1.24-2.31,1.92-3.82,1.92Z" fill="#fc959f" stroke-width="0"/><path d="M568.64,499.76c-2.35,0-4.32-1.65-4.44-3.77-.13-2.19,1.76-4.07,4.22-4.18,1.33-.06,2.9-1.54,3.64-3.44.61-1.57.85-3.4,1.11-5.33.16-1.17.32-2.38.57-3.62,1.05-5.14,3.65-8.89,7.51-10.85,2.95-1.49,6.02-1.66,8.74-1.82,1.23-.07,2.39-.14,3.39-.32,3.27-.6,6.34-2.77,8.96-4.76l1.01-.77c3.14-2.41,6.39-4.9,10.6-6.42,6.09-2.2,12.66-1.39,16.74,2.06,1.79,1.51,1.86,4.03.17,5.63-1.69,1.6-4.51,1.67-6.3.15-1.76-1.49-5-1.28-7.27-.46-2.85,1.03-5.42,3-8.14,5.08l-1.04.8c-3.72,2.82-7.86,5.56-12.94,6.49-1.61.29-3.14.38-4.62.46-2.01.11-3.75.21-4.91.8-1.98,1-2.82,3.78-3.14,5.35-.2.99-.34,2.03-.49,3.13-.3,2.27-.61,4.62-1.54,7.01-1.98,5.1-6.53,8.54-11.59,8.77-.08,0-.16,0-.23,0Z" fill="#d6656b" stroke-width="0"/><path d="M517.15,503.02c-1.57,0-3.09-.74-3.9-2.05-4.96-7.99-4.43-17.35-4.01-24.88.31-5.63.64-11.45,2.61-17.18,2.34-6.82,6.8-12.23,12.55-15.23,1.72-.9,3.46-1.54,5.14-2.17,2-.74,3.88-1.44,5.28-2.43,1.43-1.02,2.64-2.55,3.92-4.17,1.01-1.27,2.04-2.59,3.32-3.84,8.13-8,21.2-8.99,30.32-9.04,6.44-.04,14,.25,21.07,2.62,8.05,2.7,14.13,7.79,16.69,13.97.85,2.06-.33,4.35-2.63,5.11-2.31.76-4.87-.29-5.72-2.35-1.64-3.95-5.92-7.42-11.46-9.28-5.72-1.92-12.25-2.15-17.89-2.12-7.44.04-18.01.75-23.78,6.43-.91.89-1.75,1.96-2.64,3.08-1.51,1.91-3.23,4.08-5.66,5.81-2.37,1.68-5.04,2.67-7.4,3.54-1.47.55-2.86,1.06-4.06,1.68-3.81,1.99-6.84,5.79-8.53,10.7-1.64,4.78-1.94,10.1-2.23,15.24-.46,8.29-.54,15.07,2.91,20.62,1.19,1.92.42,4.34-1.74,5.41-.68.34-1.43.5-2.16.5Z" fill="#d6656b" stroke-width="0"/><path d="M479.03,403.37c-.35,0-.71-.04-1.07-.12-6.5-1.44-13.19-2.02-19.88-1.72-2.45.11-4.55-1.58-4.67-3.78-.12-2.2,1.77-4.06,4.23-4.17,7.56-.34,15.12.32,22.47,1.94,2.39.53,3.85,2.69,3.25,4.82-.5,1.81-2.32,3.02-4.32,3.02Z" fill="#d6656b" stroke-width="0"/><path d="M496.87,348.41c-2.36,0-4.32-1.65-4.44-3.78-.18-3.23,1.89-6.08,6.17-8.47,13.69-7.64,30.58-10.25,46.34-7.17,2.4.47,3.93,2.59,3.4,4.74-.53,2.15-2.9,3.51-5.3,3.04-13.51-2.64-27.99-.4-39.72,6.14-1.42.79-1.87,1.3-1.99,1.47.03,2.13-1.83,3.91-4.23,4.02-.08,0-.15,0-.23,0Z" fill="#d6656b" stroke-width="0"/><path d="M592.65,286.93c-2.37,0-4.34-1.67-4.45-3.81-.23-4.69,1.42-9.32,4.63-13.03,3.21-3.71,7.81-6.3,12.95-7.28,2.41-.46,4.77.91,5.29,3.06.52,2.15-1.02,4.26-3.42,4.72-3.04.58-5.87,2.17-7.77,4.37-1.9,2.2-2.91,5.05-2.78,7.82.11,2.2-1.8,4.05-4.26,4.15-.07,0-.13,0-.2,0Z" fill="#d6656b" stroke-width="0"/><path d="M537.17,319.87c-.25,0-.51-.02-.76-.06-2.42-.37-4.05-2.43-3.63-4.6,1.92-9.93,8.84-18.95,18.53-24.12,2.11-1.13,4.85-.51,6.11,1.38,1.26,1.89.57,4.33-1.54,5.46-7.48,3.99-12.84,10.96-14.32,18.64-.37,1.94-2.26,3.3-4.38,3.3Z" fill="#d6656b" stroke-width="0"/><path d="M552.12,649.75c-2.22,0-4.14-1.48-4.42-3.5-1.08-7.88-5.94-15.46-13.02-20.27-7.07-4.81-16.54-6.98-25.33-5.81-2.43.32-4.7-1.18-5.06-3.35-.36-2.17,1.32-4.2,3.75-4.52,11.28-1.5,22.96,1.18,32.04,7.35,9.08,6.17,15.08,15.52,16.46,25.63.3,2.18-1.44,4.17-3.88,4.43-.18.02-.37.03-.55.03Z" fill="#d6656b" stroke-width="0"/><path d="M558.86,631.52c-1.05,0-2.1-.33-2.95-1-4.06-3.21-7.18-7.8-9.04-13.27-1.6-4.72-2.15-9.63-2.5-14.23-.18-2.4-.28-4.76.59-7.2,1.23-3.46,4.21-5.98,7.77-6.58,2.39-.4,4.64,1,5.12,3.13.49,2.13-1.1,4.23-3.47,4.69-.15.03-.67.44-.93,1.17-.4,1.11-.32,2.58-.19,4.24.37,4.78.87,8.72,2.14,12.47,1.38,4.06,3.6,7.39,6.42,9.62,1.84,1.46,2.01,3.97.38,5.62-.88.89-2.11,1.34-3.34,1.34Z" fill="#d6656b" stroke-width="0"/><path d="M616.95,657.63c-.22,0-.43,0-.65,0-4.8-.04-10.98-.47-16.29-3.42-5.17-2.87-8.96-7.94-10.41-13.92-1.12-4.64-.92-9.75.61-15.62.56-2.14,2.95-3.47,5.35-2.97,2.4.5,3.89,2.64,3.33,4.78-1.23,4.7-1.42,8.67-.58,12.14.94,3.88,3.27,7.1,6.4,8.84,3.43,1.91,8.05,2.19,11.68,2.22,6.31.06,17.74-.85,23.35-7.6,1.47-1.76,4.26-2.13,6.23-.82,1.98,1.31,2.39,3.8.92,5.57-5.81,6.99-16.42,10.82-29.94,10.82Z" fill="#d6656b" stroke-width="0"/><path d="M560.27,726.64c-2.38,0-4.35-1.68-4.45-3.82-.22-4.84-3.16-9.54-7.65-12.26-4.49-2.72-10.47-3.4-15.58-1.79-2.32.73-4.86-.35-5.68-2.43-.82-2.07.4-4.35,2.72-5.08,7.73-2.44,16.75-1.4,23.54,2.7,6.79,4.11,11.22,11.2,11.56,18.52.1,2.2-1.81,4.05-4.27,4.14-.06,0-.13,0-.19,0Z" fill="#d6656b" stroke-width="0"/><path d="M607.08,791.99c-5.56,0-11.06-2-14.99-5.56-4.8-4.35-6.94-10.77-5.6-16.76.91-4.07,3.29-7.49,6.69-9.65,4.13-2.62,9.52-3.05,13.75-1.11,2.19,1.01,3.05,3.41,1.92,5.36-1.13,1.95-3.81,2.72-6,1.71-1.24-.57-3.13-.35-4.51.52-1.52.96-2.65,2.69-3.11,4.72-.76,3.38.5,7.15,3.21,9.61,2.71,2.46,6.91,3.64,10.71,3.02,2.42-.4,4.74,1.03,5.19,3.19.45,2.16-1.15,4.24-3.57,4.63-1.22.2-2.45.3-3.68.3Z" fill="#d6656b" stroke-width="0"/><path d="M626.42,706.62c-3.49,0-6.99-.67-10.14-2-5.96-2.52-10.65-7.39-12.55-13.04-.71-2.11.63-4.32,2.99-4.95,2.36-.63,4.84.56,5.55,2.67,1.18,3.52,4.11,6.56,7.82,8.13,3.72,1.57,8.2,1.66,12,.25,2.27-.85,4.88.11,5.83,2.14.95,2.03-.12,4.36-2.39,5.21-2.87,1.07-5.99,1.6-9.1,1.6Z" fill="#d6656b" stroke-width="0"/><path d="M451.95,610.46c-1.6,0-3.14-.77-3.94-2.12-4.39-7.42-2.27-17.08,4.91-22.47,1.88-1.41,4.69-1.2,6.28.49,1.58,1.68,1.34,4.19-.55,5.61-3.92,2.94-5.16,8.62-2.77,12.66,1.15,1.94.32,4.35-1.86,5.38-.66.31-1.38.46-2.08.46Z" fill="#d6656b" stroke-width="0"/><path d="M460.09,501.09c-.23,0-.45-.02-.68-.05-5.93-.81-11.39-3.46-15.38-7.45-4-3.99-6.33-9.14-6.58-14.49-.1-2.2,1.81-4.05,4.27-4.14,2.46-.08,4.53,1.62,4.63,3.81.16,3.46,1.73,6.93,4.32,9.51,2.58,2.58,6.26,4.36,10.1,4.89,2.43.33,4.1,2.37,3.73,4.54-.34,1.97-2.24,3.38-4.4,3.38Z" fill="#d6656b" stroke-width="0"/><path d="M675.29,281.37c1.47-10.45,10.98-18.28,21.67-22.73,17.15-7.14,33.09,5.39,38.18,10.03,14.01-3.49,16.9-5.06,30.31,2.91,8.38,4.98,19.62,17.15,29.25,19.76,7.22,1.95,15.18,2.05,21.66,5.5,12.47,6.64,13.91,21.96,20.91,33.33,5.41,8.79,14.35,15.3,21.99,22.65,22.94,22.09,39.83,45.72,44.71,81.25,2.29,10.66-6.08,24.44-4.89,35.23,5.87,7.86,12.41,13.51,13.04,27.08.54,11.58,1.96,22.71-8.15,37.27,9.78,11.94,6.48,33.48,1.4,45.01-8.48,19.27-31.39,32.33-35.77,52.66-4.09,12.1,12.86,29.58,3.73,60.15-14.34,19.8-29.81,27.55-42.97,37.25-8.13,5.99-6.04,11.06-13.41,17.79-7.37,6.73-22.82,16.89-36.83,11.65,4.63,11.07.02,24.81-9.83,32.7-9.85,7.89-23.06,11.54-36.09,13.59-16.4,2.57-35.35,2.25-47.06-8.33-9.52-8.6-11.59-21.56-13.16-33.57-1.87-14.23-2.25-31.55,11.1-39.5-7.79-16.08-10.49-34.15-7.52-51.47v-188.11c4.48-4.93,8.3-11.15,8.56-17.49.28-6.86-4.66-12.89-7.24-19.35-2.81-7.04-2.79-14.95.06-21.97,1.47-3.63,3.68-7.05,4.47-10.84,1.23-5.87-1.05-11.82-3.01-17.54-2.7-7.85-4.77-16.62-.86-24.05,2.58-4.9,7.68-9.08,7.69-14.49,0-4.48-3.53-8.25-5.56-12.35-2.59-5.25-2.61-11.17-1.23-16.69,1.35-5.36,6.63-10.78,6.9-16.15.24-4.87-3.77-7.98-6.47-11.84-4.09-5.87-6.56-12.34-5.57-19.33Z" fill="#9a9fe5" stroke-width="0"/><path d="M697.63,535.5c1.15,0,2.31-.4,3.18-1.19,6.82-6.2,13.86-12.62,18.75-20.66,5.69-9.37,7.07-19.53,3.77-27.86-.82-2.07-3.37-3.16-5.68-2.43-2.32.73-3.53,3.01-2.71,5.08,2.46,6.21,1.29,14.01-3.2,21.41-4.29,7.06-10.89,13.07-17.27,18.88-1.72,1.57-1.7,4.09.06,5.63.87.76,1.99,1.14,3.12,1.14Z" fill="#a9aff1" stroke-width="0"/><path d="M730.47,519.63s.04,0,.06,0c7.04-.02,13.04-4.7,13.37-10.41.13-2.19-1.76-4.07-4.21-4.18-2.47-.12-4.55,1.57-4.68,3.77-.08,1.44-2.32,2.87-4.51,2.87-3.21.03-6.31-1.98-8.38-3.65-1.83-1.47-4.64-1.35-6.29.29-1.65,1.63-1.51,4.15.32,5.62,4.69,3.78,9.51,5.7,14.33,5.7Z" fill="#a9aff1" stroke-width="0"/><path d="M770.85,498.44c.28,0,.56-.02.85-.07,6.63-1.14,12.56-4.96,15.85-10.23,3.3-5.26,3.85-11.77,1.47-17.42-.87-2.06-3.44-3.1-5.74-2.32-2.3.77-3.47,3.07-2.6,5.13,1.44,3.42,1.1,7.54-.91,10.73-2,3.19-5.74,5.61-9.76,6.3-2.42.42-4,2.5-3.53,4.66.41,1.9,2.28,3.23,4.37,3.23Z" fill="#a9aff1" stroke-width="0"/><path d="M784.26,414.77c1.41,0,2.8-.6,3.66-1.71,8.16-10.5,12.23-20.77,12.12-30.51-.15-12.61-8.01-23.92-19.56-28.14-7.15-2.61-14.76-2.36-21.34-1.93-6.18.41-13.29,1.12-19.47,4.44-6.85,3.68-11.76,10.36-13.13,17.87-1.22,6.71.3,13.99,4.3,20.5,2.75,4.49,6.18,7.71,10.2,9.57,5.48,2.54,11.93,2.27,16.42-.67,1.98-1.3,2.41-3.79.96-5.56-1.45-1.77-4.24-2.16-6.23-.86-1.73,1.14-4.64,1.15-7.06.02-2.42-1.12-4.6-3.25-6.48-6.32-3.04-4.96-4.22-10.43-3.32-15.4.95-5.23,4.29-9.84,8.93-12.33,4.51-2.42,10.39-2.99,15.54-3.33,5.56-.37,11.95-.6,17.31,1.36,8.14,2.97,13.91,11.55,14.02,20.85.1,8.06-3.44,16.77-10.53,25.88-1.4,1.81-.9,4.29,1.12,5.54.77.48,1.66.71,2.54.71Z" fill="#a9aff1" stroke-width="0"/><path d="M844.39,574.8h0c2.46,0,4.45-1.78,4.45-3.98,0-5.01,2.84-9.91,7.41-12.8,4.57-2.89,10.7-3.65,15.98-1.99,2.32.73,4.86-.36,5.68-2.43.82-2.07-.4-4.35-2.72-5.08-7.97-2.51-17.2-1.36-24.09,3-6.89,4.36-11.18,11.75-11.18,19.3,0,2.2,1.99,3.98,4.45,3.98Z" fill="#a9aff1" stroke-width="0"/><path d="M785.57,587.08c1.19,0,2.38-.43,3.26-1.27,3.92-3.76,6.57-8.42,7.65-13.48,1.21-5.64.37-11.85-2.34-17.47-3.7-7.64-10.71-13.94-19.25-17.28-2.25-.88-4.88.04-5.87,2.05-.99,2.01.04,4.36,2.3,5.24,6.49,2.54,11.83,7.33,14.64,13.14,2.02,4.17,2.65,8.72,1.77,12.82-.75,3.53-2.68,6.92-5.42,9.55-1.68,1.61-1.58,4.13.22,5.62.86.71,1.95,1.07,3.03,1.07Z" fill="#a9aff1" stroke-width="0"/><path d="M790.68,690.3s.1,0,.15,0c6.82-.2,13.88-.41,20.87-1.77,8.25-1.6,14.98-4.58,20.02-8.85,6.22-5.27,9.5-12.52,8.76-19.39-.23-2.19-2.41-3.79-4.86-3.58-2.45.21-4.24,2.15-4.01,4.34.47,4.38-1.84,9.31-6.03,12.86-3.84,3.25-9.15,5.56-15.78,6.85-6.2,1.21-12.85,1.4-19.27,1.59-2.46.07-4.39,1.91-4.31,4.11.08,2.15,2.06,3.85,4.45,3.85Z" fill="#a9aff1" stroke-width="0"/><path d="M711.31,772.59c4.3,0,8.6-.87,12.49-2.68,2.18-1.01,3.03-3.42,1.9-5.37-1.13-1.95-3.82-2.71-6.01-1.7-7.08,3.29-16.57,1.87-22.08-3.29-1.7-1.59-4.52-1.65-6.3-.13-1.78,1.52-1.85,4.04-.15,5.63,5.25,4.91,12.68,7.53,20.14,7.53Z" fill="#a9aff1" stroke-width="0"/><path d="M853.46,490.15c1.2,0,2.39-.43,3.27-1.28,8.38-8.09,11.52-20.14,8-30.7-.7-2.11-3.18-3.31-5.54-2.68-2.36.63-3.7,2.84-3,4.95,2.64,7.92.28,16.96-6,23.02-1.67,1.61-1.56,4.13.24,5.62.86.71,1.94,1.06,3.03,1.06Z" fill="#a9aff1" stroke-width="0"/><path d="M741.19,325.58c1.73,0,3.38-.91,4.1-2.42,3.56-7.48,3.96-15.09,1.11-21.41-3.54-7.86-12.36-12.99-20.98-12.21-2.45.22-4.23,2.18-3.98,4.36.25,2.19,2.44,3.78,4.88,3.55,4.68-.43,9.75,2.69,11.81,7.26,1.93,4.29,1.55,9.87-1.05,15.32-.96,2.02.09,4.36,2.36,5.22.57.22,1.16.32,1.74.32Z" fill="#a9aff1" stroke-width="0"/><path d="M728.24,421.41c.39,0,.78-.05,1.18-.14,2.37-.58,3.77-2.77,3.12-4.89-2.32-7.58-9.31-13.81-17.81-15.87-2.37-.57-4.82.68-5.46,2.8-.64,2.12.76,4.31,3.14,4.88,5.42,1.31,10.06,5.44,11.54,10.28.54,1.77,2.34,2.93,4.29,2.93Z" fill="#a9aff1" stroke-width="0"/><path d="M697.41,616.76c1.49,0,2.94-.67,3.79-1.88,1.3-1.87.66-4.32-1.43-5.48-2.54-1.41-4.5-3.69-5.38-6.24-1.62-4.73.31-10.52,1.86-15.18.7-2.11-.64-4.32-3-4.95-2.36-.63-4.84.57-5.54,2.68-1.79,5.38-4.25,12.75-1.84,19.78,1.5,4.37,4.85,8.26,9.19,10.67.73.41,1.54.6,2.35.6Z" fill="#a9aff1" stroke-width="0"/><path d="M751.53,762.45c.78,0,1.58-.19,2.3-.57,11.7-6.32,19.52-18.29,19.92-30.5.07-2.2-1.86-4.03-4.32-4.09-2.45-.06-4.51,1.66-4.58,3.86-.31,9.58-6.45,18.97-15.62,23.92-2.11,1.14-2.78,3.58-1.51,5.46.84,1.24,2.31,1.92,3.82,1.92Z" fill="#a9aff1" stroke-width="0"/><path d="M764.36,499.05c2.35,0,4.32-1.65,4.44-3.77.13-2.19-1.76-4.07-4.22-4.18-1.33-.06-2.9-1.54-3.64-3.44-.61-1.57-.85-3.4-1.11-5.33-.16-1.17-.32-2.38-.57-3.62-1.05-5.14-3.65-8.89-7.51-10.85-2.95-1.49-6.02-1.66-8.74-1.82-1.23-.07-2.39-.14-3.39-.32-3.27-.6-6.34-2.77-8.96-4.76l-1.01-.77c-3.14-2.41-6.39-4.9-10.6-6.42-6.09-2.2-12.66-1.39-16.74,2.06-1.79,1.51-1.86,4.03-.17,5.63,1.69,1.6,4.51,1.67,6.3.15,1.76-1.49,5-1.28,7.27-.46,2.85,1.03,5.42,3,8.14,5.08l1.04.8c3.72,2.82,7.86,5.56,12.94,6.49,1.61.29,3.14.38,4.62.46,2.01.11,3.75.21,4.91.8,1.98,1,2.82,3.78,3.14,5.35.2.99.34,2.03.49,3.13.3,2.27.61,4.62,1.54,7.01,1.98,5.1,6.53,8.54,11.59,8.77.08,0,.16,0,.23,0Z" fill="#767bcb" stroke-width="0"/><path d="M815.85,502.31c1.57,0,3.09-.74,3.9-2.05,4.96-7.99,4.43-17.35,4.01-24.88-.31-5.63-.64-11.45-2.61-17.18-2.34-6.82-6.8-12.23-12.55-15.23-1.72-.9-3.46-1.54-5.14-2.17-2-.74-3.88-1.44-5.28-2.43-1.43-1.02-2.64-2.55-3.92-4.17-1.01-1.27-2.04-2.59-3.32-3.84-8.13-8-21.2-8.99-30.32-9.04-6.44-.04-14,.25-21.07,2.62-8.05,2.7-14.13,7.79-16.69,13.97-.85,2.06.33,4.35,2.63,5.11,2.31.76,4.87-.29,5.72-2.35,1.64-3.95,5.92-7.42,11.46-9.28,5.72-1.92,12.25-2.15,17.89-2.12,7.44.04,18.01.75,23.78,6.43.91.89,1.75,1.96,2.64,3.08,1.51,1.91,3.23,4.08,5.66,5.81,2.37,1.68,5.04,2.67,7.4,3.54,1.47.55,2.86,1.06,4.06,1.68,3.81,1.99,6.84,5.79,8.53,10.7,1.64,4.78,1.94,10.1,2.23,15.24.46,8.29.54,15.07-2.91,20.62-1.19,1.92-.42,4.34,1.74,5.41.68.34,1.43.5,2.16.5Z" fill="#767bcb" stroke-width="0"/><path d="M853.97,402.66c.35,0,.71-.04,1.07-.12,6.5-1.44,13.19-2.02,19.88-1.72,2.45.11,4.55-1.58,4.67-3.78.12-2.2-1.77-4.06-4.23-4.17-7.56-.34-15.12.32-22.47,1.94-2.39.53-3.85,2.69-3.25,4.82.5,1.81,2.32,3.02,4.32,3.02Z" fill="#767bcb" stroke-width="0"/><path d="M836.13,347.7c2.36,0,4.32-1.65,4.44-3.78.18-3.23-1.89-6.08-6.17-8.47-13.69-7.64-30.58-10.25-46.34-7.17-2.4.47-3.93,2.59-3.4,4.74.53,2.15,2.9,3.51,5.3,3.04,13.51-2.64,27.99-.4,39.72,6.14,1.42.79,1.87,1.3,1.99,1.47-.03,2.13,1.83,3.91,4.23,4.02.08,0,.15,0,.23,0Z" fill="#767bcb" stroke-width="0"/><path d="M740.35,286.23c2.37,0,4.34-1.67,4.45-3.81.23-4.69-1.42-9.32-4.63-13.03-3.21-3.71-7.81-6.3-12.95-7.28-2.41-.46-4.77.91-5.29,3.06-.52,2.15,1.02,4.26,3.42,4.72,3.04.58,5.87,2.17,7.77,4.37,1.9,2.2,2.91,5.05,2.78,7.82-.11,2.2,1.8,4.05,4.26,4.15.07,0,.13,0,.2,0Z" fill="#767bcb" stroke-width="0"/><path d="M795.83,319.16c.25,0,.51-.02.76-.06,2.42-.37,4.05-2.43,3.63-4.6-1.92-9.93-8.84-18.95-18.53-24.12-2.11-1.13-4.85-.51-6.11,1.38-1.26,1.89-.57,4.33,1.54,5.46,7.48,3.99,12.84,10.96,14.32,18.64.37,1.94,2.26,3.3,4.38,3.3Z" fill="#767bcb" stroke-width="0"/><path d="M780.88,649.04c2.22,0,4.14-1.48,4.42-3.5,1.08-7.88,5.94-15.46,13.02-20.27,7.07-4.81,16.54-6.98,25.33-5.81,2.43.32,4.7-1.18,5.06-3.35.36-2.17-1.32-4.2-3.75-4.52-11.28-1.5-22.96,1.18-32.04,7.35-9.08,6.17-15.08,15.52-16.46,25.63-.3,2.18,1.44,4.17,3.88,4.43.18.02.37.03.55.03Z" fill="#767bcb" stroke-width="0"/><path d="M774.15,630.81c1.05,0,2.1-.33,2.95-1,4.06-3.21,7.18-7.8,9.04-13.27,1.6-4.72,2.15-9.63,2.5-14.23.18-2.4.28-4.76-.59-7.2-1.23-3.46-4.21-5.98-7.77-6.58-2.39-.4-4.64,1-5.12,3.13-.49,2.13,1.1,4.23,3.47,4.69.15.03.67.44.93,1.17.4,1.11.32,2.58.19,4.24-.37,4.78-.87,8.72-2.14,12.47-1.38,4.06-3.6,7.39-6.42,9.62-1.84,1.46-2.01,3.97-.38,5.62.88.89,2.11,1.34,3.34,1.34Z" fill="#767bcb" stroke-width="0"/><path d="M716.05,656.92c.22,0,.43,0,.65,0,4.8-.04,10.98-.47,16.29-3.42,5.17-2.87,8.96-7.94,10.41-13.92,1.12-4.64.92-9.75-.61-15.62-.56-2.14-2.95-3.47-5.35-2.97-2.4.5-3.89,2.64-3.33,4.78,1.23,4.7,1.42,8.67.58,12.14-.94,3.88-3.27,7.1-6.4,8.84-3.43,1.91-8.05,2.19-11.68,2.22-6.31.06-17.74-.85-23.35-7.6-1.47-1.76-4.26-2.13-6.23-.82-1.98,1.31-2.39,3.8-.92,5.57,5.81,6.99,16.42,10.82,29.94,10.82Z" fill="#767bcb" stroke-width="0"/><path d="M772.74,725.94c2.38,0,4.35-1.68,4.45-3.82.22-4.84,3.16-9.54,7.65-12.26,4.49-2.72,10.47-3.4,15.58-1.79,2.32.73,4.86-.35,5.68-2.43.82-2.07-.4-4.35-2.72-5.08-7.73-2.44-16.75-1.4-23.54,2.7-6.79,4.11-11.22,11.2-11.56,18.52-.1,2.2,1.81,4.05,4.27,4.14.06,0,.13,0,.19,0Z" fill="#767bcb" stroke-width="0"/><path d="M725.92,791.28c5.56,0,11.06-2,14.99-5.56,4.8-4.35,6.94-10.77,5.6-16.76-.91-4.07-3.29-7.49-6.69-9.65-4.13-2.62-9.52-3.05-13.75-1.11-2.19,1.01-3.05,3.41-1.92,5.36,1.13,1.95,3.81,2.72,6,1.71,1.24-.57,3.13-.35,4.51.52,1.52.96,2.65,2.69,3.11,4.72.76,3.38-.5,7.15-3.21,9.61-2.71,2.46-6.91,3.64-10.71,3.02-2.42-.4-4.74,1.03-5.19,3.19-.45,2.16,1.15,4.24,3.57,4.63,1.22.2,2.45.3,3.68.3Z" fill="#767bcb" stroke-width="0"/><path d="M706.58,705.92c3.49,0,6.99-.67,10.14-2,5.96-2.52,10.65-7.39,12.55-13.04.71-2.11-.63-4.32-2.99-4.95-2.36-.63-4.84.56-5.55,2.67-1.18,3.52-4.11,6.56-7.82,8.13-3.72,1.57-8.2,1.66-12,.25-2.27-.85-4.88.11-5.83,2.14-.95,2.03.12,4.36,2.39,5.21,2.87,1.07,5.99,1.6,9.1,1.6Z" fill="#767bcb" stroke-width="0"/><path d="M881.05,609.75c1.6,0,3.14-.77,3.94-2.12,4.39-7.42,2.27-17.08-4.91-22.47-1.88-1.41-4.69-1.2-6.28.49-1.58,1.68-1.34,4.19.55,5.61,3.92,2.94,5.16,8.62,2.77,12.66-1.15,1.94-.32,4.35,1.86,5.38.66.31,1.38.46,2.08.46Z" fill="#767bcb" stroke-width="0"/><path d="M872.91,500.38c.23,0,.45-.02.68-.05,5.93-.81,11.39-3.46,15.38-7.45,4-3.99,6.33-9.14,6.58-14.49.1-2.2-1.81-4.05-4.27-4.14-2.46-.08-4.53,1.62-4.63,3.81-.16,3.46-1.73,6.93-4.32,9.51-2.58,2.58-6.26,4.36-10.1,4.89-2.43.33-4.1,2.37-3.73,4.54.34,1.97,2.24,3.38,4.4,3.38Z" fill="#767bcb" stroke-width="0"/><rect x="296.05" y="658.79" width="60.59" height="285.39" transform="translate(652.69 1602.97) rotate(-180)" fill="#c66f66" stroke-width="0"/><rect x="159.28" y="699.93" width="60.59" height="285.39" transform="translate(379.16 1685.25) rotate(-180)" fill="#c66f66" stroke-width="0"/><rect x="11.09" y="651.86" width="86.4" height="285.39" transform="translate(108.58 1589.11) rotate(-180)" fill="#c66f66" stroke-width="0"/><rect x="1139.58" y="677.47" width="60.59" height="285.39" transform="translate(2339.74 1640.32) rotate(-180)" fill="#c66f66" stroke-width="0"/><rect x="898.98" y="639.63" width="31.42" height="332.19" transform="translate(1829.37 1611.46) rotate(-180)" fill="#c66f66" stroke-width="0"/><rect x="1202.61" y="685.74" width="60.59" height="285.39" transform="translate(2465.8 1656.88) rotate(-180)" fill="#c66f66" stroke-width="0"/><rect x="945.1" y="665.48" width="86.4" height="285.39" transform="translate(1976.59 1616.35) rotate(-180)" fill="#c66f66" stroke-width="0"/><rect x="990.01" y="701.54" width="67.08" height="315.98" fill="#c85746" stroke-width="0"/><rect x="1065.79" y="642.13" width="67.08" height="315.98" fill="#c85746" stroke-width="0"/><rect x="1149.02" y="668.68" width="95.66" height="315.98" fill="#c85746" stroke-width="0"/><rect x="38.42" y="691.43" width="67.08" height="315.98" fill="#c85746" stroke-width="0"/><rect x="346.51" y="599.16" width="34.78" height="367.8" fill="#c85746" stroke-width="0"/><rect x="114.2" y="632.02" width="67.08" height="315.98" fill="#c85746" stroke-width="0"/><rect x="197.44" y="658.56" width="95.66" height="315.98" fill="#c85746" stroke-width="0"/><rect x="1074.49" y="669.94" width="8.7" height="15.17" fill="#fffeff" stroke-width="0"/><rect x="1088.15" y="669.94" width="8.7" height="15.17" fill="#fffeff" stroke-width="0"/><rect x="1101.82" y="669.94" width="8.7" height="15.17" fill="#fffeff" stroke-width="0"/><rect x="1115.48" y="669.94" width="8.7" height="15.17" fill="#fffeff" stroke-width="0"/><rect x="1074.49" y="695.22" width="8.7" height="15.17" fill="#fffeff" stroke-width="0"/><rect x="1088.15" y="695.22" width="8.7" height="15.17" fill="#fffeff" stroke-width="0"/><rect x="1101.82" y="695.22" width="8.7" height="15.17" fill="#fffeff" stroke-width="0"/><rect x="1115.48" y="695.22" width="8.7" height="15.17" fill="#fffeff" stroke-width="0"/><rect x="1074.49" y="720.5" width="8.7" height="15.17" fill="#fffeff" stroke-width="0"/><rect x="1088.15" y="720.5" width="8.7" height="15.17" fill="#fffeff" stroke-width="0"/><rect x="1101.82" y="720.5" width="8.7" height="15.17" fill="#fffeff" stroke-width="0"/><rect x="1115.48" y="720.5" width="8.7" height="15.17" fill="#fffeff" stroke-width="0"/><rect x="1074.49" y="745.77" width="8.7" height="15.17" fill="#fffeff" stroke-width="0"/><rect x="1088.15" y="745.77" width="8.7" height="15.17" fill="#fffeff" stroke-width="0"/><rect x="1101.82" y="745.77" width="8.7" height="15.17" fill="#fffeff" stroke-width="0"/><rect x="1115.48" y="745.77" width="8.7" height="15.17" fill="#fffeff" stroke-width="0"/><rect x="1074.49" y="771.05" width="8.7" height="15.17" fill="#fffeff" stroke-width="0"/><rect x="1088.15" y="771.05" width="8.7" height="15.17" fill="#fffeff" stroke-width="0"/><rect x="1101.82" y="771.05" width="8.7" height="15.17" fill="#fffeff" stroke-width="0"/><rect x="1115.48" y="771.05" width="8.7" height="15.17" fill="#fffeff" stroke-width="0"/><rect x="1074.49" y="796.33" width="8.7" height="15.17" fill="#fffeff" stroke-width="0"/><rect x="1088.15" y="796.33" width="8.7" height="15.17" fill="#fffeff" stroke-width="0"/><rect x="1101.82" y="796.33" width="8.7" height="15.17" fill="#fffeff" stroke-width="0"/><rect x="1115.48" y="796.33" width="8.7" height="15.17" fill="#fffeff" stroke-width="0"/><rect x="1074.49" y="821.61" width="8.7" height="15.17" fill="#fffeff" stroke-width="0"/><rect x="1088.15" y="821.61" width="8.7" height="15.17" fill="#fffeff" stroke-width="0"/><rect x="1101.82" y="821.61" width="8.7" height="15.17" fill="#fffeff" stroke-width="0"/><rect x="1115.48" y="821.61" width="8.7" height="15.17" fill="#fffeff" stroke-width="0"/><rect x="1074.49" y="846.89" width="8.7" height="15.17" fill="#fffeff" stroke-width="0"/><rect x="1088.15" y="846.89" width="8.7" height="15.17" fill="#fffeff" stroke-width="0"/><rect x="1101.82" y="846.89" width="8.7" height="15.17" fill="#fffeff" stroke-width="0"/><rect x="1115.48" y="846.89" width="8.7" height="15.17" fill="#fffeff" stroke-width="0"/><rect x="1074.49" y="872.16" width="8.7" height="15.17" fill="#fffeff" stroke-width="0"/><rect x="1088.15" y="872.16" width="8.7" height="15.17" fill="#fffeff" stroke-width="0"/><rect x="1101.82" y="872.16" width="8.7" height="15.17" fill="#fffeff" stroke-width="0"/><rect x="1115.48" y="872.16" width="8.7" height="15.17" fill="#fffeff" stroke-width="0"/><rect x="998.71" y="714.18" width="8.7" height="15.17" fill="#fffeff" stroke-width="0"/><rect x="1012.37" y="714.18" width="8.7" height="15.17" fill="#fffeff" stroke-width="0"/><rect x="1026.04" y="714.18" width="8.7" height="15.17" fill="#fffeff" stroke-width="0"/><rect x="1039.7" y="714.18" width="8.7" height="15.17" fill="#fffeff" stroke-width="0"/><rect x="998.71" y="739.45" width="8.7" height="15.17" fill="#fffeff" stroke-width="0"/><rect x="1012.37" y="739.45" width="8.7" height="15.17" fill="#fffeff" stroke-width="0"/><rect x="1026.04" y="739.45" width="8.7" height="15.17" fill="#fffeff" stroke-width="0"/><rect x="1039.7" y="739.45" width="8.7" height="15.17" fill="#fffeff" stroke-width="0"/><rect x="998.71" y="764.73" width="8.7" height="15.17" fill="#fffeff" stroke-width="0"/><rect x="1012.37" y="764.73" width="8.7" height="15.17" fill="#fffeff" stroke-width="0"/><rect x="1026.04" y="764.73" width="8.7" height="15.17" fill="#fffeff" stroke-width="0"/><rect x="1039.7" y="764.73" width="8.7" height="15.17" fill="#fffeff" stroke-width="0"/><rect x="998.71" y="790.01" width="8.7" height="15.17" fill="#fffeff" stroke-width="0"/><rect x="1012.37" y="790.01" width="8.7" height="15.17" fill="#fffeff" stroke-width="0"/><rect x="1026.04" y="790.01" width="8.7" height="15.17" fill="#fffeff" stroke-width="0"/><rect x="1039.7" y="790.01" width="8.7" height="15.17" fill="#fffeff" stroke-width="0"/><rect x="998.71" y="815.29" width="8.7" height="15.17" fill="#fffeff" stroke-width="0"/><rect x="1012.37" y="815.29" width="8.7" height="15.17" fill="#fffeff" stroke-width="0"/><rect x="1026.04" y="815.29" width="8.7" height="15.17" fill="#fffeff" stroke-width="0"/><rect x="1039.7" y="815.29" width="8.7" height="15.17" fill="#fffeff" stroke-width="0"/><rect x="998.71" y="840.57" width="8.7" height="15.17" fill="#fffeff" stroke-width="0"/><rect x="1012.37" y="840.57" width="8.7" height="15.17" fill="#fffeff" stroke-width="0"/><rect x="1026.04" y="840.57" width="8.7" height="15.17" fill="#fffeff" stroke-width="0"/><rect x="1039.7" y="840.57" width="8.7" height="15.17" fill="#fffeff" stroke-width="0"/><rect x="998.71" y="865.84" width="8.7" height="15.17" fill="#fffeff" stroke-width="0"/><rect x="1012.37" y="865.84" width="8.7" height="15.17" fill="#fffeff" stroke-width="0"/><rect x="1026.04" y="865.84" width="8.7" height="15.17" fill="#fffeff" stroke-width="0"/><rect x="1039.7" y="865.84" width="8.7" height="15.17" fill="#fffeff" stroke-width="0"/><rect x="998.71" y="891.12" width="8.7" height="15.17" fill="#fffeff" stroke-width="0"/><rect x="1012.37" y="891.12" width="8.7" height="15.17" fill="#fffeff" stroke-width="0"/><rect x="1026.04" y="891.12" width="8.7" height="15.17" fill="#fffeff" stroke-width="0"/><rect x="1039.7" y="891.12" width="8.7" height="15.17" fill="#fffeff" stroke-width="0"/><rect x="998.71" y="916.4" width="8.7" height="15.17" fill="#fffeff" stroke-width="0"/><rect x="1012.37" y="916.4" width="8.7" height="15.17" fill="#fffeff" stroke-width="0"/><rect x="1026.04" y="916.4" width="8.7" height="15.17" fill="#fffeff" stroke-width="0"/><rect x="1039.7" y="916.4" width="8.7" height="15.17" fill="#fffeff" stroke-width="0"/><rect x="219.8" y="678.79" width="8.7" height="15.17" fill="#fffeff" stroke-width="0"/><rect x="233.46" y="678.79" width="8.7" height="15.17" fill="#fffeff" stroke-width="0"/><rect x="247.13" y="678.79" width="8.7" height="15.17" fill="#fffeff" stroke-width="0"/><rect x="260.79" y="678.79" width="8.7" height="15.17" fill="#fffeff" stroke-width="0"/><rect x="219.8" y="704.06" width="8.7" height="15.17" fill="#fffeff" stroke-width="0"/><rect x="233.46" y="704.06" width="8.7" height="15.17" fill="#fffeff" stroke-width="0"/><rect x="247.13" y="704.06" width="8.7" height="15.17" fill="#fffeff" stroke-width="0"/><rect x="260.79" y="704.06" width="8.7" height="15.17" fill="#fffeff" stroke-width="0"/><rect x="219.8" y="729.34" width="8.7" height="15.17" fill="#fffeff" stroke-width="0"/><rect x="233.46" y="729.34" width="8.7" height="15.17" fill="#fffeff" stroke-width="0"/><rect x="247.13" y="729.34" width="8.7" height="15.17" fill="#fffeff" stroke-width="0"/><rect x="260.79" y="729.34" width="8.7" height="15.17" fill="#fffeff" stroke-width="0"/><rect x="219.8" y="754.62" width="8.7" height="15.17" fill="#fffeff" stroke-width="0"/><rect x="233.46" y="754.62" width="8.7" height="15.17" fill="#fffeff" stroke-width="0"/><rect x="247.13" y="754.62" width="8.7" height="15.17" fill="#fffeff" stroke-width="0"/><rect x="260.79" y="754.62" width="8.7" height="15.17" fill="#fffeff" stroke-width="0"/><rect x="219.8" y="779.9" width="8.7" height="15.17" fill="#fffeff" stroke-width="0"/><rect x="233.46" y="779.9" width="8.7" height="15.17" fill="#fffeff" stroke-width="0"/><rect x="247.13" y="779.9" width="8.7" height="15.17" fill="#fffeff" stroke-width="0"/><rect x="260.79" y="779.9" width="8.7" height="15.17" fill="#fffeff" stroke-width="0"/><rect x="219.8" y="805.18" width="8.7" height="15.17" fill="#fffeff" stroke-width="0"/><rect x="233.46" y="805.18" width="8.7" height="15.17" fill="#fffeff" stroke-width="0"/><rect x="247.13" y="805.18" width="8.7" height="15.17" fill="#fffeff" stroke-width="0"/><rect x="260.79" y="805.18" width="8.7" height="15.17" fill="#fffeff" stroke-width="0"/><rect x="219.8" y="830.46" width="8.7" height="15.17" fill="#fffeff" stroke-width="0"/><rect x="233.46" y="830.46" width="8.7" height="15.17" fill="#fffeff" stroke-width="0"/><rect x="247.13" y="830.46" width="8.7" height="15.17" fill="#fffeff" stroke-width="0"/><rect x="260.79" y="830.46" width="8.7" height="15.17" fill="#fffeff" stroke-width="0"/><rect x="219.8" y="855.73" width="8.7" height="15.17" fill="#fffeff" stroke-width="0"/><rect x="233.46" y="855.73" width="8.7" height="15.17" fill="#fffeff" stroke-width="0"/><rect x="247.13" y="855.73" width="8.7" height="15.17" fill="#fffeff" stroke-width="0"/><rect x="260.79" y="855.73" width="8.7" height="15.17" fill="#fffeff" stroke-width="0"/><rect x="219.8" y="881.01" width="8.7" height="15.17" fill="#fffeff" stroke-width="0"/><rect x="233.46" y="881.01" width="8.7" height="15.17" fill="#fffeff" stroke-width="0"/><rect x="247.13" y="881.01" width="8.7" height="15.17" fill="#fffeff" stroke-width="0"/><rect x="260.79" y="881.01" width="8.7" height="15.17" fill="#fffeff" stroke-width="0"/><rect x="352.72" y="615.59" width="8.7" height="15.17" fill="#fffeff" stroke-width="0"/><rect x="366.39" y="615.59" width="8.7" height="15.17" fill="#fffeff" stroke-width="0"/><rect x="352.72" y="640.87" width="8.7" height="15.17" fill="#fffeff" stroke-width="0"/><rect x="366.39" y="640.87" width="8.7" height="15.17" fill="#fffeff" stroke-width="0"/><rect x="352.72" y="666.15" width="8.7" height="15.17" fill="#fffeff" stroke-width="0"/><rect x="366.39" y="666.15" width="8.7" height="15.17" fill="#fffeff" stroke-width="0"/><rect x="352.72" y="691.43" width="8.7" height="15.17" fill="#fffeff" stroke-width="0"/><rect x="366.39" y="691.43" width="8.7" height="15.17" fill="#fffeff" stroke-width="0"/><rect x="352.72" y="716.7" width="8.7" height="15.17" fill="#fffeff" stroke-width="0"/><rect x="366.39" y="716.7" width="8.7" height="15.17" fill="#fffeff" stroke-width="0"/><rect x="352.72" y="741.98" width="8.7" height="15.17" fill="#fffeff" stroke-width="0"/><rect x="366.39" y="741.98" width="8.7" height="15.17" fill="#fffeff" stroke-width="0"/><rect x="352.72" y="767.26" width="8.7" height="15.17" fill="#fffeff" stroke-width="0"/><rect x="366.39" y="767.26" width="8.7" height="15.17" fill="#fffeff" stroke-width="0"/><rect x="352.72" y="792.54" width="8.7" height="15.17" fill="#fffeff" stroke-width="0"/><rect x="366.39" y="792.54" width="8.7" height="15.17" fill="#fffeff" stroke-width="0"/><rect x="352.72" y="817.82" width="8.7" height="15.17" fill="#fffeff" stroke-width="0"/><rect x="366.39" y="817.82" width="8.7" height="15.17" fill="#fffeff" stroke-width="0"/><rect x="121.66" y="645.93" width="8.7" height="15.17" fill="#fffeff" stroke-width="0"/><rect x="135.32" y="645.93" width="8.7" height="15.17" fill="#fffeff" stroke-width="0"/><rect x="148.99" y="645.93" width="8.7" height="15.17" fill="#fffeff" stroke-width="0"/><rect x="162.65" y="645.93" width="8.7" height="15.17" fill="#fffeff" stroke-width="0"/><rect x="121.66" y="671.2" width="8.7" height="15.17" fill="#fffeff" stroke-width="0"/><rect x="135.32" y="671.2" width="8.7" height="15.17" fill="#fffeff" stroke-width="0"/><rect x="148.99" y="671.2" width="8.7" height="15.17" fill="#fffeff" stroke-width="0"/><rect x="162.65" y="671.2" width="8.7" height="15.17" fill="#fffeff" stroke-width="0"/><rect x="121.66" y="696.48" width="8.7" height="15.17" fill="#fffeff" stroke-width="0"/><rect x="135.32" y="696.48" width="8.7" height="15.17" fill="#fffeff" stroke-width="0"/><rect x="148.99" y="696.48" width="8.7" height="15.17" fill="#fffeff" stroke-width="0"/><rect x="162.65" y="696.48" width="8.7" height="15.17" fill="#fffeff" stroke-width="0"/><rect x="121.66" y="721.76" width="8.7" height="15.17" fill="#fffeff" stroke-width="0"/><rect x="135.32" y="721.76" width="8.7" height="15.17" fill="#fffeff" stroke-width="0"/><rect x="148.99" y="721.76" width="8.7" height="15.17" fill="#fffeff" stroke-width="0"/><rect x="162.65" y="721.76" width="8.7" height="15.17" fill="#fffeff" stroke-width="0"/><rect x="121.66" y="747.04" width="8.7" height="15.17" fill="#fffeff" stroke-width="0"/><rect x="135.32" y="747.04" width="8.7" height="15.17" fill="#fffeff" stroke-width="0"/><rect x="148.99" y="747.04" width="8.7" height="15.17" fill="#fffeff" stroke-width="0"/><rect x="162.65" y="747.04" width="8.7" height="15.17" fill="#fffeff" stroke-width="0"/><rect x="121.66" y="772.32" width="8.7" height="15.17" fill="#fffeff" stroke-width="0"/><rect x="135.32" y="772.32" width="8.7" height="15.17" fill="#fffeff" stroke-width="0"/><rect x="148.99" y="772.32" width="8.7" height="15.17" fill="#fffeff" stroke-width="0"/><rect x="162.65" y="772.32" width="8.7" height="15.17" fill="#fffeff" stroke-width="0"/><rect x="121.66" y="797.59" width="8.7" height="15.17" fill="#fffeff" stroke-width="0"/><rect x="135.32" y="797.59" width="8.7" height="15.17" fill="#fffeff" stroke-width="0"/><rect x="148.99" y="797.59" width="8.7" height="15.17" fill="#fffeff" stroke-width="0"/><rect x="162.65" y="797.59" width="8.7" height="15.17" fill="#fffeff" stroke-width="0"/><rect x="121.66" y="822.87" width="8.7" height="15.17" fill="#fffeff" stroke-width="0"/><rect x="135.32" y="822.87" width="8.7" height="15.17" fill="#fffeff" stroke-width="0"/><rect x="148.99" y="822.87" width="8.7" height="15.17" fill="#fffeff" stroke-width="0"/><rect x="162.65" y="822.87" width="8.7" height="15.17" fill="#fffeff" stroke-width="0"/><rect x="121.66" y="848.15" width="8.7" height="15.17" fill="#fffeff" stroke-width="0"/><rect x="135.32" y="848.15" width="8.7" height="15.17" fill="#fffeff" stroke-width="0"/><rect x="148.99" y="848.15" width="8.7" height="15.17" fill="#fffeff" stroke-width="0"/><rect x="162.65" y="848.15" width="8.7" height="15.17" fill="#fffeff" stroke-width="0"/><rect x="47.12" y="707.86" width="8.7" height="15.17" fill="#fffeff" stroke-width="0"/><rect x="60.79" y="707.86" width="8.7" height="15.17" fill="#fffeff" stroke-width="0"/><rect x="74.45" y="707.86" width="8.7" height="15.17" fill="#fffeff" stroke-width="0"/><rect x="88.12" y="707.86" width="8.7" height="15.17" fill="#fffeff" stroke-width="0"/><rect x="47.12" y="733.13" width="8.7" height="15.17" fill="#fffeff" stroke-width="0"/><rect x="60.79" y="733.13" width="8.7" height="15.17" fill="#fffeff" stroke-width="0"/><rect x="74.45" y="733.13" width="8.7" height="15.17" fill="#fffeff" stroke-width="0"/><rect x="88.12" y="733.13" width="8.7" height="15.17" fill="#fffeff" stroke-width="0"/><rect x="47.12" y="758.41" width="8.7" height="15.17" fill="#fffeff" stroke-width="0"/><rect x="60.79" y="758.41" width="8.7" height="15.17" fill="#fffeff" stroke-width="0"/><rect x="74.45" y="758.41" width="8.7" height="15.17" fill="#fffeff" stroke-width="0"/><rect x="88.12" y="758.41" width="8.7" height="15.17" fill="#fffeff" stroke-width="0"/><rect x="47.12" y="783.69" width="8.7" height="15.17" fill="#fffeff" stroke-width="0"/><rect x="60.79" y="783.69" width="8.7" height="15.17" fill="#fffeff" stroke-width="0"/><rect x="74.45" y="783.69" width="8.7" height="15.17" fill="#fffeff" stroke-width="0"/><rect x="88.12" y="783.69" width="8.7" height="15.17" fill="#fffeff" stroke-width="0"/><rect x="47.12" y="808.97" width="8.7" height="15.17" fill="#fffeff" stroke-width="0"/><rect x="60.79" y="808.97" width="8.7" height="15.17" fill="#fffeff" stroke-width="0"/><rect x="74.45" y="808.97" width="8.7" height="15.17" fill="#fffeff" stroke-width="0"/><rect x="88.12" y="808.97" width="8.7" height="15.17" fill="#fffeff" stroke-width="0"/><rect x="47.12" y="834.25" width="8.7" height="15.17" fill="#fffeff" stroke-width="0"/><rect x="60.79" y="834.25" width="8.7" height="15.17" fill="#fffeff" stroke-width="0"/><rect x="74.45" y="834.25" width="8.7" height="15.17" fill="#fffeff" stroke-width="0"/><rect x="88.12" y="834.25" width="8.7" height="15.17" fill="#fffeff" stroke-width="0"/><rect x="47.12" y="859.52" width="8.7" height="15.17" fill="#fffeff" stroke-width="0"/><rect x="60.79" y="859.52" width="8.7" height="15.17" fill="#fffeff" stroke-width="0"/><rect x="74.45" y="859.52" width="8.7" height="15.17" fill="#fffeff" stroke-width="0"/><rect x="88.12" y="859.52" width="8.7" height="15.17" fill="#fffeff" stroke-width="0"/><rect x="47.12" y="884.8" width="8.7" height="15.17" fill="#fffeff" stroke-width="0"/><rect x="60.79" y="884.8" width="8.7" height="15.17" fill="#fffeff" stroke-width="0"/><rect x="74.45" y="884.8" width="8.7" height="15.17" fill="#fffeff" stroke-width="0"/><rect x="88.12" y="884.8" width="8.7" height="15.17" fill="#fffeff" stroke-width="0"/><rect x="47.12" y="910.08" width="8.7" height="15.17" fill="#fffeff" stroke-width="0"/><rect x="60.79" y="910.08" width="8.7" height="15.17" fill="#fffeff" stroke-width="0"/><rect x="74.45" y="910.08" width="8.7" height="15.17" fill="#fffeff" stroke-width="0"/><rect x="88.12" y="910.08" width="8.7" height="15.17" fill="#fffeff" stroke-width="0"/><rect x="1166.42" y="686.37" width="10.92" height="19.05" fill="#fffeff" stroke-width="0"/><rect x="1183.58" y="686.37" width="10.92" height="19.05" fill="#fffeff" stroke-width="0"/><rect x="1200.74" y="686.37" width="10.92" height="19.05" fill="#fffeff" stroke-width="0"/><rect x="1217.9" y="686.37" width="10.92" height="19.05" fill="#fffeff" stroke-width="0"/><rect x="1166.42" y="718.11" width="10.92" height="19.05" fill="#fffeff" stroke-width="0"/><rect x="1183.58" y="718.11" width="10.92" height="19.05" fill="#fffeff" stroke-width="0"/><rect x="1200.74" y="718.11" width="10.92" height="19.05" fill="#fffeff" stroke-width="0"/><rect x="1217.9" y="718.11" width="10.92" height="19.05" fill="#fffeff" stroke-width="0"/><rect x="1166.42" y="749.86" width="10.92" height="19.05" fill="#fffeff" stroke-width="0"/><rect x="1183.58" y="749.86" width="10.92" height="19.05" fill="#fffeff" stroke-width="0"/><rect x="1200.74" y="749.86" width="10.92" height="19.05" fill="#fffeff" stroke-width="0"/><rect x="1217.9" y="749.86" width="10.92" height="19.05" fill="#fffeff" stroke-width="0"/><rect x="1166.42" y="781.6" width="10.92" height="19.05" fill="#fffeff" stroke-width="0"/><rect x="1183.58" y="781.6" width="10.92" height="19.05" fill="#fffeff" stroke-width="0"/><rect x="1200.74" y="781.6" width="10.92" height="19.05" fill="#fffeff" stroke-width="0"/><rect x="1217.9" y="781.6" width="10.92" height="19.05" fill="#fffeff" stroke-width="0"/><rect x="1166.42" y="813.35" width="10.92" height="19.05" fill="#fffeff" stroke-width="0"/><rect x="1183.58" y="813.35" width="10.92" height="19.05" fill="#fffeff" stroke-width="0"/><rect x="1200.74" y="813.35" width="10.92" height="19.05" fill="#fffeff" stroke-width="0"/><rect x="1217.9" y="813.35" width="10.92" height="19.05" fill="#fffeff" stroke-width="0"/><rect x="1166.42" y="845.09" width="10.92" height="19.05" fill="#fffeff" stroke-width="0"/><rect x="1183.58" y="845.09" width="10.92" height="19.05" fill="#fffeff" stroke-width="0"/><rect x="1200.74" y="845.09" width="10.92" height="19.05" fill="#fffeff" stroke-width="0"/><rect x="1217.9" y="845.09" width="10.92" height="19.05" fill="#fffeff" stroke-width="0"/><rect x="1166.42" y="876.84" width="10.92" height="19.05" fill="#fffeff" stroke-width="0"/><rect x="1183.58" y="876.84" width="10.92" height="19.05" fill="#fffeff" stroke-width="0"/><rect x="1200.74" y="876.84" width="10.92" height="19.05" fill="#fffeff" stroke-width="0"/><rect x="1217.9" y="876.84" width="10.92" height="19.05" fill="#fffeff" stroke-width="0"/><rect x="1166.42" y="908.58" width="10.92" height="19.05" fill="#fffeff" stroke-width="0"/><rect x="1183.58" y="908.58" width="10.92" height="19.05" fill="#fffeff" stroke-width="0"/><rect x="1200.74" y="908.58" width="10.92" height="19.05" fill="#fffeff" stroke-width="0"/><rect x="1217.9" y="908.58" width="10.92" height="19.05" fill="#fffeff" stroke-width="0"/><rect x="1166.42" y="940.33" width="10.92" height="19.05" fill="#fffeff" stroke-width="0"/><rect x="1183.58" y="940.33" width="10.92" height="19.05" fill="#fffeff" stroke-width="0"/><rect x="1200.74" y="940.33" width="10.92" height="19.05" fill="#fffeff" stroke-width="0"/><rect x="1217.9" y="940.33" width="10.92" height="19.05" fill="#fffeff" stroke-width="0"/><rect y="886.17" width="1280" height="193.83" fill="#f38f91" stroke-width="0"/><polygon points="513.8 1058.9 234.25 1058.9 234.25 809.47 376.54 672.21 513.8 809.47 513.8 1058.9" fill="#e2884b" stroke-width="0"/><polyline points="219.18 816.17 377.42 666.34 528.07 817" fill="none" stroke="#fff" stroke-linecap="round" stroke-linejoin="round" stroke-width="20"/><rect x="258.52" y="829.28" width="19.25" height="29.29" fill="#72b2cb" stroke-width="0"/><rect x="293.68" y="829.28" width="19.25" height="29.29" fill="#72b2cb" stroke-width="0"/><rect x="293.68" y="867.78" width="19.25" height="29.29" fill="#72b2cb" stroke-width="0"/><rect x="258.52" y="867.78" width="19.25" height="29.29" fill="#72b2cb" stroke-width="0"/><rect x="432.62" y="829.28" width="19.25" height="29.29" fill="#72b2cb" stroke-width="0"/><rect x="467.77" y="829.28" width="19.25" height="29.29" fill="#72b2cb" stroke-width="0"/><rect x="467.77" y="867.78" width="19.25" height="29.29" fill="#72b2cb" stroke-width="0"/><rect x="432.62" y="867.78" width="19.25" height="29.29" fill="#72b2cb" stroke-width="0"/><rect x="345.57" y="829.28" width="19.25" height="29.29" fill="#72b2cb" stroke-width="0"/><rect x="380.72" y="829.28" width="19.25" height="29.29" fill="#72b2cb" stroke-width="0"/><rect x="380.72" y="867.78" width="19.25" height="29.29" fill="#72b2cb" stroke-width="0"/><rect x="345.57" y="867.78" width="19.25" height="29.29" fill="#72b2cb" stroke-width="0"/><rect x="258.52" y="909.63" width="19.25" height="29.29" fill="#72b2cb" stroke-width="0"/><rect x="293.68" y="909.63" width="19.25" height="29.29" fill="#72b2cb" stroke-width="0"/><rect x="293.68" y="948.14" width="19.25" height="29.29" fill="#72b2cb" stroke-width="0"/><rect x="258.52" y="948.14" width="19.25" height="29.29" fill="#72b2cb" stroke-width="0"/><rect x="432.62" y="909.63" width="19.25" height="29.29" fill="#72b2cb" stroke-width="0"/><rect x="467.77" y="909.63" width="19.25" height="29.29" fill="#72b2cb" stroke-width="0"/><rect x="467.77" y="948.14" width="19.25" height="29.29" fill="#72b2cb" stroke-width="0"/><rect x="432.62" y="948.14" width="19.25" height="29.29" fill="#72b2cb" stroke-width="0"/><rect x="345.57" y="909.63" width="19.25" height="29.29" fill="#72b2cb" stroke-width="0"/><rect x="380.72" y="909.63" width="19.25" height="29.29" fill="#72b2cb" stroke-width="0"/><rect x="380.72" y="948.14" width="19.25" height="29.29" fill="#72b2cb" stroke-width="0"/><rect x="345.57" y="948.14" width="19.25" height="29.29" fill="#72b2cb" stroke-width="0"/><rect x="744.38" y="946.41" width="367.51" height="133.59" fill="#e4985c" stroke-width="0"/><polygon points="1156.51 1080 1111.89 1080 1111.97 958.11 1111.98 950.54 1111.98 946.13 1123.38 910.5 1123.38 910.49 1131.17 886.17 1132.87 880.85 1139.58 859.89 1149.02 830.39 1152.54 819.39 1153.49 882.04 1153.56 886.17 1154.72 962.85 1155.06 984.65 1156.51 1080" fill="#b2573b" stroke-width="0"/><polygon points="1152.54 819.39 1101.73 983.67 724.05 983.67 779.94 817.69 1152.54 819.39" fill="#f4f9fb" stroke-width="0"/><polygon points="735.77 966.73 780.24 834.68 1128.83 834.63 1093.26 968.43 735.77 966.73" fill="#72b2cb" stroke-width="0"/><path d="M1178.57,879.52l-26.03-61.83v64.36l24.35-.14c1.27.06,2.17-1.22,1.68-2.39Z" fill="#b2573b" stroke-width="0"/><line x1="800.27" y1="829.55" x2="757.92" y2="970.12" fill="none" stroke="#ebfeff" stroke-miterlimit="10" stroke-width="2"/><line x1="822.28" y1="831.24" x2="781.64" y2="970.12" fill="none" stroke="#ebfeff" stroke-miterlimit="10" stroke-width="2"/><line x1="845.99" y1="831.24" x2="805.35" y2="970.12" fill="none" stroke="#ebfeff" stroke-miterlimit="10" stroke-width="2"/><line x1="869.7" y1="831.24" x2="829.06" y2="970.12" fill="none" stroke="#ebfeff" stroke-miterlimit="10" stroke-width="2"/><line x1="893.41" y1="831.24" x2="852.77" y2="970.12" fill="none" stroke="#ebfeff" stroke-miterlimit="10" stroke-width="2"/><line x1="917.13" y1="831.24" x2="876.48" y2="970.12" fill="none" stroke="#ebfeff" stroke-miterlimit="10" stroke-width="2"/><line x1="940.84" y1="831.24" x2="900.19" y2="970.12" fill="none" stroke="#ebfeff" stroke-miterlimit="10" stroke-width="2"/><line x1="964.55" y1="831.24" x2="923.9" y2="970.12" fill="none" stroke="#ebfeff" stroke-miterlimit="10" stroke-width="2"/><line x1="988.26" y1="831.24" x2="947.61" y2="970.12" fill="none" stroke="#ebfeff" stroke-miterlimit="10" stroke-width="2"/><line x1="1011.97" y1="831.24" x2="971.32" y2="970.12" fill="none" stroke="#ebfeff" stroke-miterlimit="10" stroke-width="2"/><line x1="1035.68" y1="831.24" x2="995.03" y2="970.12" fill="none" stroke="#ebfeff" stroke-miterlimit="10" stroke-width="2"/><line x1="1059.39" y1="831.24" x2="1018.74" y2="970.12" fill="none" stroke="#ebfeff" stroke-miterlimit="10" stroke-width="2"/><line x1="1083.1" y1="831.24" x2="1042.45" y2="970.12" fill="none" stroke="#ebfeff" stroke-miterlimit="10" stroke-width="2"/><line x1="1106.81" y1="831.24" x2="1067.86" y2="970.12" fill="none" stroke="#ebfeff" stroke-miterlimit="10" stroke-width="2"/><line x1="1122.05" y1="876.97" x2="759.62" y2="876.97" fill="none" stroke="#ebfeff" stroke-miterlimit="10" stroke-width="2"/><line x1="1110.2" y1="917.62" x2="749.46" y2="917.62" fill="none" stroke="#ebfeff" stroke-miterlimit="10" stroke-width="2"/><rect x="784.18" y="983.67" width="123.87" height="96.33" fill="#b2573b" stroke-width="0"/><rect x="792.71" y="990.56" width="106.79" height="89.44" fill="#f07b31" stroke-width="0"/><path d="M890.49,1080h-11.89c.95-2.35,3.26-4.01,5.95-4.01s4.99,1.66,5.94,4.01Z" fill="#b2573b" stroke-width="0"/><path d="M735.94,123.75l-45.23,45.22c-26.83,26.46-33.12,33.17-66.66-.02l-45.3-45.3c-18.38-18.37-18.38-48.16,0-66.54h0c19.46-19.46,51.01-19.46,70.47,0l6.21,6.21c1.09,1.09,2.85,1.09,3.93,0l8.06-8.07c18.37-18.36,48.15-18.36,66.51,0l2.01,2.01c18.36,18.36,18.36,48.14,0,66.51Z" fill="url(#linear-gradient-2)" stroke-width="0"/><path d="M683.44,135.36c-.1,0-.21,0-.31-.01-1.4-.13-2.56-1.17-2.85-2.55l-7.73-36.87-12.59,23.38c-.56,1.04-1.65,1.7-2.84,1.7h-40.48c-1.26,0-2.4-.73-2.93-1.88l-1.46-3.18-4.3,12.52c-.44,1.28-1.63,2.15-2.98,2.18-1.37.03-2.58-.78-3.07-2.04l-7.33-18.58-5.12,9.72c-.56,1.06-1.66,1.72-2.85,1.72h-36.91c-1.78,0-3.22-1.44-3.22-3.22s1.44-3.22,3.22-3.22h34.96l7.48-14.22c.59-1.12,1.78-1.78,3.03-1.72,1.26.07,2.36.86,2.82,2.04l6.7,16.98,4.08-11.87c.43-1.25,1.57-2.11,2.89-2.17,1.32-.06,2.54.68,3.09,1.87l3.96,8.61h36.48l15.86-29.45c.64-1.19,1.96-1.86,3.3-1.66,1.34.19,2.42,1.2,2.69,2.53l7.42,35.39,5.43-12.91c.47-1.11,1.52-1.87,2.72-1.96,1.2-.09,2.36.49,2.99,1.52l3.46,5.6h7.11l6.49-19.2c.44-1.3,1.66-2.18,3.03-2.19,1.38,0,2.6.86,3.06,2.15l6.37,18.08h26.55c1.78,0,3.22,1.44,3.22,3.22s-1.44,3.22-3.22,3.22h-28.84c-1.37,0-2.59-.86-3.04-2.15l-4.03-11.43-4.24,12.54c-.44,1.31-1.67,2.19-3.05,2.19h-11.22c-1.12,0-2.16-.58-2.74-1.53l-1.11-1.81-7.01,16.67c-.51,1.2-1.68,1.97-2.97,1.97Z" fill="#f2f2f2" stroke-width="0"/><path d="M1113.01,522.23c3.75-2.97,7.62-5.8,11.63-8.43,2.46-1.62,5.03-3.18,7.69-4.43,22.63,13.56,52.38,8.96,69.73-11.99h0c-22.66-18.77-56.02-16.03-75.36,5.87-2.28,1.21-4.44,2.54-6.45,3.86-9.58,6.28-18.37,13.53-26.51,21.4,2.43-22.79-9.83-45.52-31.88-55.37h0c-11.06,24.78-2.06,53.43,20.03,67.73-8.5,9.51-16.27,19.62-23.55,29.87,2.59-22.9-9.69-45.81-31.85-55.71h0c-11.47,25.7-1.37,55.56,22.53,69.26-4.81,7.19-9.42,14.34-13.91,21.31-1.2,1.86-.66,4.33,1.2,5.53.18.11.36.21.54.29,1.77.79,3.9.19,4.99-1.49,9.31-14.45,19.16-29.73,30.17-44.33,16.14,22.07,46.63,28.93,70.89,15h0c-12.91-22.47-39.43-32.22-63.19-24.84,3.04-3.73,6.17-7.4,9.41-10.97.07.03.14.07.21.1h0c.09-.2.16-.4.25-.6,4.14-4.54,8.45-8.93,12.95-13.1,18.05,22.32,50.61,26.83,74.12,9.79h0c-14.81-20.42-41.17-27.5-63.63-18.78Z" fill="url(#linear-gradient-3)" stroke-width="0"/><circle cx="999.71" cy="247" r="62.05" fill="url(#linear-gradient-4)" stroke-width="0"/><rect x="990.05" y="131.1" width="19.32" height="39.22" rx="9.66" ry="9.66" fill="url(#linear-gradient-5)" stroke-width="0"/><rect x="990.05" y="323.68" width="19.32" height="39.22" rx="9.66" ry="9.66" fill="url(#linear-gradient-6)" stroke-width="0"/><rect x="1086.35" y="227.39" width="19.32" height="39.22" rx="9.66" ry="9.66" transform="translate(1343.01 -849) rotate(90)" fill="url(#linear-gradient-7)" stroke-width="0"/><rect x="893.76" y="227.39" width="19.32" height="39.22" rx="9.66" ry="9.66" transform="translate(1150.42 -656.42) rotate(90)" fill="url(#linear-gradient-8)" stroke-width="0"/><rect x="1058.14" y="159.3" width="19.32" height="39.22" rx="9.66" ry="9.66" transform="translate(439.26 -702.65) rotate(45)" fill="url(#linear-gradient-9)" stroke-width="0"/><rect x="921.96" y="295.48" width="19.32" height="39.22" rx="9.66" ry="9.66" transform="translate(495.67 -566.47) rotate(45)" fill="url(#linear-gradient-10)" stroke-width="0"/><rect x="1058.14" y="295.48" width="19.32" height="39.22" rx="9.66" ry="9.66" transform="translate(2045.65 -217.16) rotate(135)" fill="url(#linear-gradient-11)" stroke-width="0"/><rect x="921.96" y="159.3" width="19.32" height="39.22" rx="9.66" ry="9.66" transform="translate(1716.89 -353.33) rotate(135)" fill="url(#linear-gradient-12)" stroke-width="0"/><path d="M244.67,312.97h0c-11.34-11.34-10.93-31.39-4.25-45.3,3.27-6.8,7.76-15.52,11.06-21.83l12.44-23.84c1.78-3.4,6.65-3.4,8.42,0l12.44,23.84c3.29,6.31,7.79,14.68,11.06,21.83,6.41,14.04,7.09,33.96-4.25,45.3h0c-12.96,12.96-33.97,12.96-46.93,0Z" fill="url(#radial-gradient)" stroke-width="0"/><path d="M310.54,249.07h0c-8.26-7.53-8.62-21.5-4.42-31.41,2.05-4.84,4.91-11.06,7-15.56l7.9-17c1.13-2.43,4.52-2.58,5.87-.27l9.43,16.2c2.5,4.29,5.9,9.97,8.4,14.84,4.92,9.57,6.03,23.42-1.5,31.68h0c-8.61,9.44-23.23,10.12-32.68,1.51Z" fill="url(#radial-gradient-2)" stroke-width="0"/><circle cx="195.2" cy="498.58" r="64.26" fill="#ffce84" stroke-width="0"/><circle cx="195.2" cy="498.58" r="56.71" fill="#db9b5f" stroke-width="0"/><circle cx="195.2" cy="498.58" r="49.41" fill="#ffce84" stroke-width="0"/><circle cx="232.79" cy="532.32" r="54.67" fill="#ffce84" stroke-width="0"/><circle cx="232.79" cy="532.32" r="48.25" fill="#db9b5f" stroke-width="0"/><circle cx="232.79" cy="532.32" r="42.04" fill="#ffce84" stroke-width="0"/></g></g></svg>