<?xml version="1.0" encoding="UTF-8"?><svg id="Layer_2" xmlns="http://www.w3.org/2000/svg" xmlns:xlink="http://www.w3.org/1999/xlink" viewBox="0 0 1280 1080"><defs><radialGradient id="radial-gradient" cx="640" cy="540" fx="640" fy="540" r="592.11" gradientUnits="userSpaceOnUse"><stop offset="0" stop-color="#57bf8c"/><stop offset="1" stop-color="#3aa068"/></radialGradient><linearGradient id="linear-gradient" x1="0" y1="248.58" x2="1280" y2="248.58" gradientUnits="userSpaceOnUse"><stop offset="0" stop-color="#6ebac1"/><stop offset=".07" stop-color="#74babe"/><stop offset=".32" stop-color="#85bab7"/><stop offset=".5" stop-color="#8cbbb5"/><stop offset=".66" stop-color="#84bab7"/><stop offset=".91" stop-color="#6fbac0"/><stop offset=".92" stop-color="#6ebac1"/></linearGradient><radialGradient id="radial-gradient-2" cx="865.64" cy="613.41" fx="865.64" fy="613.41" r="156.74" xlink:href="#radial-gradient"/><linearGradient id="linear-gradient-2" x1="1007.86" y1="517.11" x2="1205.95" y2="517.11" gradientUnits="userSpaceOnUse"><stop offset="0" stop-color="#266d4f"/><stop offset="1" stop-color="#2e7d5d"/></linearGradient><linearGradient id="linear-gradient-3" x1="895.82" y1="595.93" x2="980.19" y2="595.93" xlink:href="#linear-gradient-2"/><linearGradient id="linear-gradient-4" x1="892.25" y1="483" x2="954.7" y2="483" xlink:href="#linear-gradient-2"/><linearGradient id="linear-gradient-5" x1="894.55" y1="547.86" x2="899.53" y2="547.86" xlink:href="#linear-gradient-2"/><linearGradient id="linear-gradient-6" x1="956.97" y1="425.94" x2="1021.16" y2="425.94" xlink:href="#linear-gradient-2"/><linearGradient id="linear-gradient-7" x1="932.48" y1="414.79" x2="943.52" y2="414.79" xlink:href="#linear-gradient-2"/><linearGradient id="linear-gradient-8" x1="938.43" y1="397.24" x2="976.27" y2="397.24" xlink:href="#linear-gradient-2"/><linearGradient id="linear-gradient-9" x1="924.97" y1="439.97" x2="955.52" y2="439.97" xlink:href="#linear-gradient-2"/><linearGradient id="linear-gradient-10" x1="1094.71" y1="424.72" x2="1108.37" y2="424.72" xlink:href="#linear-gradient-2"/><linearGradient id="linear-gradient-11" x1="1184.93" y1="575.68" x2="1195.35" y2="575.68" xlink:href="#linear-gradient-2"/><linearGradient id="linear-gradient-12" x1="1002.83" y1="457.11" x2="1015.55" y2="457.11" xlink:href="#linear-gradient-2"/><linearGradient id="linear-gradient-13" x1="107.33" y1="782.44" x2="1214.26" y2="782.44" gradientUnits="userSpaceOnUse"><stop offset=".26" stop-color="#fcf0d6"/><stop offset="1" stop-color="#ffa"/></linearGradient><linearGradient id="linear-gradient-14" x1="532.52" y1="615.6" x2="596.35" y2="615.6" gradientUnits="userSpaceOnUse"><stop offset="0" stop-color="#57bf8c"/><stop offset="1" stop-color="#3aa068"/></linearGradient><linearGradient id="linear-gradient-15" x1="393.15" y1="668.78" x2="439.8" y2="668.78" xlink:href="#linear-gradient-2"/><linearGradient id="linear-gradient-16" x1="72.1" y1="977.87" x2="152.99" y2="977.87" xlink:href="#linear-gradient-14"/><linearGradient id="linear-gradient-17" x1="399.29" y1="693.95" x2="431.2" y2="693.95" xlink:href="#linear-gradient-14"/><linearGradient id="linear-gradient-18" x1="1140.71" y1="912.96" x2="1223.22" y2="912.96" xlink:href="#linear-gradient-2"/><linearGradient id="linear-gradient-19" x1="1151.57" y1="957.47" x2="1208.02" y2="957.47" xlink:href="#linear-gradient-14"/><linearGradient id="linear-gradient-20" x1="1120.73" y1="614.56" x2="1236.37" y2="614.56" xlink:href="#linear-gradient-2"/><linearGradient id="linear-gradient-21" x1="719.42" y1="542.18" x2="822.85" y2="542.18" xlink:href="#linear-gradient-2"/><linearGradient id="linear-gradient-22" x1="43.66" y1="475.78" x2="137.2" y2="475.78" xlink:href="#linear-gradient-2"/></defs><g id="Layer_1-2"><g opacity=".07"><rect width="1280" height="1080" fill="url(#radial-gradient)" stroke-width="0"/><path d="M1280,0v497.16h-386.18c.59-4.15,1.35-8.24,2.27-12.28-13.96,4.21-27.22,8.29-39.81,12.28H0V0h1280Z" fill="url(#linear-gradient)" stroke-width="0"/><path d="M896.09,484.88c-.92,4.04-1.68,8.13-2.27,12.28h-37.54c12.59-3.99,25.85-8.07,39.81-12.28Z" fill="#9dc1be" stroke-width="0"/><path d="M1048.68,432.41c0,35.18-4.71,69.25-13.53,101.63H290.56c-8.82-32.38-13.53-66.45-13.53-101.63,0-213.09,172.74-385.83,385.83-385.83s385.82,172.74,385.82,385.83Z" fill="#a5ba97" stroke-width="0"/><path d="M1006.17,443.61c0,31.3-4.19,61.62-12.04,90.43H331.58c-7.85-28.81-12.04-59.13-12.04-90.43,0-189.61,153.71-343.32,343.32-343.32s343.31,153.71,343.31,343.32Z" fill="#f2c25c" stroke-width="0"/><path d="M322.65,138.67c-10.27,0-19.1,6.18-22.97,15.03-.07.17-.25.25-.42.2-1.65-.46-3.39-.7-5.17-.7-4.37,0-8.41,1.43-11.66,3.87-.15.11-.36.09-.48-.05-4.03-4.5-9.89-7.33-16.42-7.33-1.9,0-3.74.24-5.49.69-.15.04-.3-.02-.38-.14-5.11-7.42-14.63-11.56-24.79-8.61-8.97,2.61-15.09,10.91-15.42,20.24-.03.87-.01,1.69.05,2.51.01.19.18.34.37.34h127.47c.15-.14.23-.23.38-.37.35-14.13-11-25.69-25.05-25.69Z" fill="#4dc2e7" stroke-width="0"/><path d="M1025.6,304.2c.32,0,.64,0,.96.02.14,0,.27-.08.33-.21,6.63-16.25,22.6-27.71,41.24-27.71,16.18,0,30.35,8.64,38.14,21.55.07.12.21.18.35.16,1.75-.3,3.53-.45,5.37-.45,17.98,0,32.55,14.58,32.55,32.55,0,.55-.02,1.12-.05,1.66,0,.19-.17.33-.35.33h-32.94s-31.7,0-31.7,0h-21.66s-32.77,0-32.77,0h-31.27c-.22,0-.38-.2-.35-.41,2.43-15.57,15.91-27.5,32.16-27.5Z" fill="#bdeaf6" stroke-width="0"/><path d="M485.26,155.89c.28,0,.57,0,.85.02,4.68-11.65,16.09-19.88,29.42-19.88,11.5,0,21.56,6.13,27.11,15.29.07.12.21.18.35.16,1.22-.21,2.47-.31,3.75-.31,12.8,0,23.17,10.38,23.17,23.17,0,.36-.01.73-.03,1.09,0,.19-.16.33-.35.33h-23.35s-22.57,0-22.57,0h-15.42s-23.33,0-23.33,0h-22.14c-.22,0-.39-.2-.35-.41,1.78-11.03,11.35-19.45,22.88-19.45Z" fill="#bdeaf6" stroke-width="0"/><path d="M329.53,217.86c3.63,0,7.08.74,10.21,2.08.15.06.32.01.41-.12,4.68-6.9,12.57-11.42,21.53-11.42,14.41,0,26.07,11.71,26.01,26.13l-.36.36h-33.4s-18.26,0-18.26,0h-30.06c-.25,0-.42-.25-.33-.48,3.78-9.69,13.2-16.54,24.23-16.54Z" fill="#bdeaf6" stroke-width="0"/><path d="M991.38,94.03c9.69,0,18.03,5.83,21.68,14.18.07.16.24.24.4.19,1.55-.43,3.2-.66,4.88-.66,4.13,0,7.94,1.35,11.01,3.65.14.11.34.09.46-.05,3.81-4.24,9.34-6.92,15.49-6.92,1.79,0,3.53.22,5.18.65.14.04.28-.02.36-.14,4.82-7,13.81-10.91,23.4-8.12,8.46,2.46,14.24,10.29,14.56,19.1.03.82.01,1.6-.04,2.37-.01.18-.17.32-.35.32h-23.37s-17.75,0-17.75,0h-12.12s-9.59,0-9.59,0h-10.56s-13.49,0-13.49,0h-33.42c-.14-.13-.22-.21-.36-.35-.33-13.34,10.38-24.25,23.64-24.25Z" fill="#bdeaf6" stroke-width="0"/><path d="M93.38,83c9.69,0,18.03,5.83,21.68,14.18.07.16.24.24.4.19,1.55-.43,3.2-.66,4.88-.66,4.13,0,7.94,1.35,11.01,3.65.14.11.34.09.46-.05,3.81-4.24,9.34-6.92,15.49-6.92,1.79,0,3.53.22,5.18.65.14.04.28-.02.36-.14,4.82-7,13.81-10.91,23.4-8.12,8.46,2.46,14.24,10.29,14.56,19.1.03.82.01,1.6-.04,2.37-.01.18-.17.32-.35.32h-23.37s-17.75,0-17.75,0h-12.12s-9.59,0-9.59,0h-10.56s-13.49,0-13.49,0h-33.42c-.14-.13-.22-.21-.36-.35-.33-13.34,10.38-24.25,23.64-24.25Z" fill="#bdeaf6" stroke-width="0"/><path d="M1217.19,210.83c-.3,0-.6,0-.9.02-4.96-12.35-17.05-21.07-31.17-21.07-12.18,0-22.85,6.49-28.73,16.2-.08.13-.22.19-.37.17-1.3-.22-2.62-.33-3.98-.33-13.56,0-24.56,10.99-24.56,24.56,0,.38.01.77.03,1.15,0,.2.17.35.37.35h113.17c.23,0,.41-.21.37-.43-1.89-11.68-12.02-20.61-24.24-20.61Z" fill="#4dc2e7" stroke-width="0"/><path d="M873.41,167.73c-3.84,0-7.5.79-10.82,2.21-.16.07-.34.01-.44-.13-4.95-7.31-13.32-12.1-22.82-12.1-15.27,0-27.63,12.4-27.56,27.69l.38.38h35.39s19.34,0,19.34,0h31.85c.26,0,.45-.27.35-.51-4-10.27-13.99-17.53-25.68-17.53Z" fill="#4dc2e7" stroke-width="0"/><path d="M712.54,92.56c-10.27,0-19.1,6.18-22.97,15.03-.07.17-.25.25-.42.2-1.65-.46-3.39-.7-5.17-.7-4.37,0-8.41,1.43-11.66,3.87-.15.11-.36.09-.48-.05-4.03-4.5-9.89-7.33-16.42-7.33-1.9,0-3.74.24-5.49.69-.15.04-.3-.02-.38-.14-5.11-7.42-14.63-11.56-24.79-8.61-8.97,2.61-15.09,10.91-15.42,20.24-.03.87-.01,1.69.05,2.51.01.19.18.34.37.34h127.47c.15-.14.23-.23.38-.37.35-14.13-11-25.69-25.05-25.69Z" fill="#4dc2e7" stroke-width="0"/><rect x="533.79" y="237.12" width="64.61" height="299.1" transform="translate(1132.19 773.35) rotate(-180)" fill="#c66f66" stroke-width="0"/><rect x="387.96" y="280.24" width="64.61" height="255.41" transform="translate(840.52 815.89) rotate(-180)" fill="#c66f66" stroke-width="0"/><rect x="229.95" y="229.86" width="92.12" height="299.1" transform="translate(552.02 758.82) rotate(-180)" fill="#c66f66" stroke-width="0"/><rect x="984.09" y="247.64" width="64.61" height="299.1" transform="translate(2032.79 794.38) rotate(-180)" fill="#c66f66" stroke-width="0"/><rect x="721.14" y="207.99" width="33.5" height="348.15" transform="translate(1475.78 764.14) rotate(-180)" fill="#c66f66" stroke-width="0"/><rect x="1044.9" y="256.32" width="64.61" height="299.1" transform="translate(2154.4 811.74) rotate(-180)" fill="#c66f66" stroke-width="0"/><rect x="770.32" y="235.08" width="92.12" height="299.1" transform="translate(1632.76 769.26) rotate(-180)" fill="#c66f66" stroke-width="0"/><rect x="818.21" y="272.87" width="71.53" height="331.16" fill="#c85746" stroke-width="0"/><rect x="899.01" y="210.61" width="71.53" height="331.16" fill="#c85746" stroke-width="0"/><rect x="987.76" y="238.43" width="102" height="331.16" fill="#c85746" stroke-width="0"/><rect x="259.09" y="271.33" width="71.53" height="331.16" fill="#c85746" stroke-width="0"/><rect x="587.6" y="174.63" width="37.09" height="385.47" fill="#c85746" stroke-width="0"/><rect x="339.89" y="209.07" width="71.53" height="331.16" fill="#c85746" stroke-width="0"/><rect x="428.64" y="236.89" width="102" height="331.16" fill="#c85746" stroke-width="0"/><rect x="908.29" y="239.76" width="9.27" height="15.9" fill="#fffeff" stroke-width="0"/><rect x="922.86" y="239.76" width="9.27" height="15.9" fill="#fffeff" stroke-width="0"/><rect x="937.43" y="239.76" width="9.27" height="15.9" fill="#fffeff" stroke-width="0"/><rect x="952" y="239.76" width="9.27" height="15.9" fill="#fffeff" stroke-width="0"/><rect x="908.29" y="266.25" width="9.27" height="15.9" fill="#fffeff" stroke-width="0"/><rect x="922.86" y="266.25" width="9.27" height="15.9" fill="#fffeff" stroke-width="0"/><rect x="937.43" y="266.25" width="9.27" height="15.9" fill="#fffeff" stroke-width="0"/><rect x="952" y="266.25" width="9.27" height="15.9" fill="#fffeff" stroke-width="0"/><rect x="908.29" y="292.74" width="9.27" height="15.9" fill="#fffeff" stroke-width="0"/><rect x="922.86" y="292.74" width="9.27" height="15.9" fill="#fffeff" stroke-width="0"/><rect x="937.43" y="292.74" width="9.27" height="15.9" fill="#fffeff" stroke-width="0"/><rect x="952" y="292.74" width="9.27" height="15.9" fill="#fffeff" stroke-width="0"/><rect x="908.29" y="319.23" width="9.27" height="15.9" fill="#fffeff" stroke-width="0"/><rect x="922.86" y="319.23" width="9.27" height="15.9" fill="#fffeff" stroke-width="0"/><rect x="937.43" y="319.23" width="9.27" height="15.9" fill="#fffeff" stroke-width="0"/><rect x="952" y="319.23" width="9.27" height="15.9" fill="#fffeff" stroke-width="0"/><rect x="908.29" y="345.73" width="9.27" height="15.9" fill="#fffeff" stroke-width="0"/><rect x="922.86" y="345.73" width="9.27" height="15.9" fill="#fffeff" stroke-width="0"/><rect x="937.43" y="345.73" width="9.27" height="15.9" fill="#fffeff" stroke-width="0"/><rect x="952" y="345.73" width="9.27" height="15.9" fill="#fffeff" stroke-width="0"/><rect x="908.29" y="372.22" width="9.27" height="15.9" fill="#fffeff" stroke-width="0"/><rect x="922.86" y="372.22" width="9.27" height="15.9" fill="#fffeff" stroke-width="0"/><rect x="937.43" y="372.22" width="9.27" height="15.9" fill="#fffeff" stroke-width="0"/><rect x="952" y="372.22" width="9.27" height="15.9" fill="#fffeff" stroke-width="0"/><rect x="908.29" y="398.71" width="9.27" height="15.9" fill="#fffeff" stroke-width="0"/><rect x="922.86" y="398.71" width="9.27" height="15.9" fill="#fffeff" stroke-width="0"/><rect x="937.43" y="398.71" width="9.27" height="15.9" fill="#fffeff" stroke-width="0"/><rect x="952" y="398.71" width="9.27" height="15.9" fill="#fffeff" stroke-width="0"/><rect x="908.29" y="425.2" width="9.27" height="15.9" fill="#fffeff" stroke-width="0"/><rect x="922.86" y="425.2" width="9.27" height="15.9" fill="#fffeff" stroke-width="0"/><rect x="937.43" y="425.2" width="9.27" height="15.9" fill="#fffeff" stroke-width="0"/><rect x="952" y="425.2" width="9.27" height="15.9" fill="#fffeff" stroke-width="0"/><rect x="908.29" y="451.7" width="9.27" height="15.9" fill="#fffeff" stroke-width="0"/><rect x="922.86" y="451.7" width="9.27" height="15.9" fill="#fffeff" stroke-width="0"/><rect x="937.43" y="451.7" width="9.27" height="15.9" fill="#fffeff" stroke-width="0"/><rect x="952" y="451.7" width="9.27" height="15.9" fill="#fffeff" stroke-width="0"/><rect x="827.48" y="286.12" width="9.27" height="15.9" fill="#fffeff" stroke-width="0"/><rect x="842.05" y="286.12" width="9.27" height="15.9" fill="#fffeff" stroke-width="0"/><rect x="856.62" y="286.12" width="9.27" height="15.9" fill="#fffeff" stroke-width="0"/><rect x="871.2" y="286.12" width="9.27" height="15.9" fill="#fffeff" stroke-width="0"/><rect x="827.48" y="312.61" width="9.27" height="15.9" fill="#fffeff" stroke-width="0"/><rect x="842.05" y="312.61" width="9.27" height="15.9" fill="#fffeff" stroke-width="0"/><rect x="856.62" y="312.61" width="9.27" height="15.9" fill="#fffeff" stroke-width="0"/><rect x="871.2" y="312.61" width="9.27" height="15.9" fill="#fffeff" stroke-width="0"/><rect x="827.48" y="339.1" width="9.27" height="15.9" fill="#fffeff" stroke-width="0"/><rect x="842.05" y="339.1" width="9.27" height="15.9" fill="#fffeff" stroke-width="0"/><rect x="856.62" y="339.1" width="9.27" height="15.9" fill="#fffeff" stroke-width="0"/><rect x="871.2" y="339.1" width="9.27" height="15.9" fill="#fffeff" stroke-width="0"/><rect x="827.48" y="365.59" width="9.27" height="15.9" fill="#fffeff" stroke-width="0"/><rect x="842.05" y="365.59" width="9.27" height="15.9" fill="#fffeff" stroke-width="0"/><rect x="856.62" y="365.59" width="9.27" height="15.9" fill="#fffeff" stroke-width="0"/><rect x="871.2" y="365.59" width="9.27" height="15.9" fill="#fffeff" stroke-width="0"/><rect x="827.48" y="392.09" width="9.27" height="15.9" fill="#fffeff" stroke-width="0"/><rect x="842.05" y="392.09" width="9.27" height="15.9" fill="#fffeff" stroke-width="0"/><rect x="856.62" y="392.09" width="9.27" height="15.9" fill="#fffeff" stroke-width="0"/><rect x="871.2" y="392.09" width="9.27" height="15.9" fill="#fffeff" stroke-width="0"/><rect x="827.48" y="418.58" width="9.27" height="15.9" fill="#fffeff" stroke-width="0"/><rect x="842.05" y="418.58" width="9.27" height="15.9" fill="#fffeff" stroke-width="0"/><rect x="856.62" y="418.58" width="9.27" height="15.9" fill="#fffeff" stroke-width="0"/><rect x="871.2" y="418.58" width="9.27" height="15.9" fill="#fffeff" stroke-width="0"/><rect x="827.48" y="445.07" width="9.27" height="15.9" fill="#fffeff" stroke-width="0"/><rect x="842.05" y="445.07" width="9.27" height="15.9" fill="#fffeff" stroke-width="0"/><rect x="856.62" y="445.07" width="9.27" height="15.9" fill="#fffeff" stroke-width="0"/><rect x="871.2" y="445.07" width="9.27" height="15.9" fill="#fffeff" stroke-width="0"/><rect x="827.48" y="471.56" width="9.27" height="15.9" fill="#fffeff" stroke-width="0"/><rect x="842.05" y="471.56" width="9.27" height="15.9" fill="#fffeff" stroke-width="0"/><rect x="856.62" y="471.56" width="9.27" height="15.9" fill="#fffeff" stroke-width="0"/><rect x="871.2" y="471.56" width="9.27" height="15.9" fill="#fffeff" stroke-width="0"/><rect x="827.48" y="498.06" width="9.27" height="15.9" fill="#fffeff" stroke-width="0"/><rect x="842.05" y="498.06" width="9.27" height="15.9" fill="#fffeff" stroke-width="0"/><rect x="856.62" y="498.06" width="9.27" height="15.9" fill="#fffeff" stroke-width="0"/><rect x="871.2" y="498.06" width="9.27" height="15.9" fill="#fffeff" stroke-width="0"/><rect x="452.48" y="258.08" width="9.27" height="15.9" fill="#fffeff" stroke-width="0"/><rect x="467.06" y="258.08" width="9.27" height="15.9" fill="#fffeff" stroke-width="0"/><rect x="481.63" y="258.08" width="9.27" height="15.9" fill="#fffeff" stroke-width="0"/><rect x="496.2" y="258.08" width="9.27" height="15.9" fill="#fffeff" stroke-width="0"/><rect x="452.48" y="284.57" width="9.27" height="15.9" fill="#fffeff" stroke-width="0"/><rect x="467.06" y="284.57" width="9.27" height="15.9" fill="#fffeff" stroke-width="0"/><rect x="481.63" y="284.57" width="9.27" height="15.9" fill="#fffeff" stroke-width="0"/><rect x="496.2" y="284.57" width="9.27" height="15.9" fill="#fffeff" stroke-width="0"/><rect x="452.48" y="311.06" width="9.27" height="15.9" fill="#fffeff" stroke-width="0"/><rect x="467.06" y="311.06" width="9.27" height="15.9" fill="#fffeff" stroke-width="0"/><rect x="481.63" y="311.06" width="9.27" height="15.9" fill="#fffeff" stroke-width="0"/><rect x="496.2" y="311.06" width="9.27" height="15.9" fill="#fffeff" stroke-width="0"/><rect x="452.48" y="337.56" width="9.27" height="15.9" fill="#fffeff" stroke-width="0"/><rect x="467.06" y="337.56" width="9.27" height="15.9" fill="#fffeff" stroke-width="0"/><rect x="481.63" y="337.56" width="9.27" height="15.9" fill="#fffeff" stroke-width="0"/><rect x="496.2" y="337.56" width="9.27" height="15.9" fill="#fffeff" stroke-width="0"/><rect x="452.48" y="364.05" width="9.27" height="15.9" fill="#fffeff" stroke-width="0"/><rect x="467.06" y="364.05" width="9.27" height="15.9" fill="#fffeff" stroke-width="0"/><rect x="481.63" y="364.05" width="9.27" height="15.9" fill="#fffeff" stroke-width="0"/><rect x="496.2" y="364.05" width="9.27" height="15.9" fill="#fffeff" stroke-width="0"/><rect x="452.48" y="390.54" width="9.27" height="15.9" fill="#fffeff" stroke-width="0"/><rect x="467.06" y="390.54" width="9.27" height="15.9" fill="#fffeff" stroke-width="0"/><rect x="481.63" y="390.54" width="9.27" height="15.9" fill="#fffeff" stroke-width="0"/><rect x="496.2" y="390.54" width="9.27" height="15.9" fill="#fffeff" stroke-width="0"/><rect x="452.48" y="417.03" width="9.27" height="15.9" fill="#fffeff" stroke-width="0"/><rect x="467.06" y="417.03" width="9.27" height="15.9" fill="#fffeff" stroke-width="0"/><rect x="481.63" y="417.03" width="9.27" height="15.9" fill="#fffeff" stroke-width="0"/><rect x="496.2" y="417.03" width="9.27" height="15.9" fill="#fffeff" stroke-width="0"/><rect x="452.48" y="443.53" width="9.27" height="15.9" fill="#fffeff" stroke-width="0"/><rect x="467.06" y="443.53" width="9.27" height="15.9" fill="#fffeff" stroke-width="0"/><rect x="481.63" y="443.53" width="9.27" height="15.9" fill="#fffeff" stroke-width="0"/><rect x="496.2" y="443.53" width="9.27" height="15.9" fill="#fffeff" stroke-width="0"/><rect x="452.48" y="470.02" width="9.27" height="15.9" fill="#fffeff" stroke-width="0"/><rect x="467.06" y="470.02" width="9.27" height="15.9" fill="#fffeff" stroke-width="0"/><rect x="481.63" y="470.02" width="9.27" height="15.9" fill="#fffeff" stroke-width="0"/><rect x="496.2" y="470.02" width="9.27" height="15.9" fill="#fffeff" stroke-width="0"/><rect x="594.22" y="191.85" width="9.27" height="15.9" fill="#fffeff" stroke-width="0"/><rect x="608.79" y="191.85" width="9.27" height="15.9" fill="#fffeff" stroke-width="0"/><rect x="594.22" y="218.34" width="9.27" height="15.9" fill="#fffeff" stroke-width="0"/><rect x="608.79" y="218.34" width="9.27" height="15.9" fill="#fffeff" stroke-width="0"/><rect x="594.22" y="244.83" width="9.27" height="15.9" fill="#fffeff" stroke-width="0"/><rect x="608.79" y="244.83" width="9.27" height="15.9" fill="#fffeff" stroke-width="0"/><rect x="594.22" y="271.33" width="9.27" height="15.9" fill="#fffeff" stroke-width="0"/><rect x="608.79" y="271.33" width="9.27" height="15.9" fill="#fffeff" stroke-width="0"/><rect x="594.22" y="297.82" width="9.27" height="15.9" fill="#fffeff" stroke-width="0"/><rect x="608.79" y="297.82" width="9.27" height="15.9" fill="#fffeff" stroke-width="0"/><rect x="594.22" y="324.31" width="9.27" height="15.9" fill="#fffeff" stroke-width="0"/><rect x="608.79" y="324.31" width="9.27" height="15.9" fill="#fffeff" stroke-width="0"/><rect x="594.22" y="350.8" width="9.27" height="15.9" fill="#fffeff" stroke-width="0"/><rect x="608.79" y="350.8" width="9.27" height="15.9" fill="#fffeff" stroke-width="0"/><rect x="594.22" y="377.3" width="9.27" height="15.9" fill="#fffeff" stroke-width="0"/><rect x="608.79" y="377.3" width="9.27" height="15.9" fill="#fffeff" stroke-width="0"/><rect x="594.22" y="403.79" width="9.27" height="15.9" fill="#fffeff" stroke-width="0"/><rect x="608.79" y="403.79" width="9.27" height="15.9" fill="#fffeff" stroke-width="0"/><rect x="347.84" y="223.64" width="9.27" height="15.9" fill="#fffeff" stroke-width="0"/><rect x="362.41" y="223.64" width="9.27" height="15.9" fill="#fffeff" stroke-width="0"/><rect x="376.98" y="223.64" width="9.27" height="15.9" fill="#fffeff" stroke-width="0"/><rect x="391.55" y="223.64" width="9.27" height="15.9" fill="#fffeff" stroke-width="0"/><rect x="347.84" y="250.13" width="9.27" height="15.9" fill="#fffeff" stroke-width="0"/><rect x="362.41" y="250.13" width="9.27" height="15.9" fill="#fffeff" stroke-width="0"/><rect x="376.98" y="250.13" width="9.27" height="15.9" fill="#fffeff" stroke-width="0"/><rect x="391.55" y="250.13" width="9.27" height="15.9" fill="#fffeff" stroke-width="0"/><rect x="347.84" y="276.62" width="9.27" height="15.9" fill="#fffeff" stroke-width="0"/><rect x="362.41" y="276.62" width="9.27" height="15.9" fill="#fffeff" stroke-width="0"/><rect x="376.98" y="276.62" width="9.27" height="15.9" fill="#fffeff" stroke-width="0"/><rect x="391.55" y="276.62" width="9.27" height="15.9" fill="#fffeff" stroke-width="0"/><rect x="347.84" y="303.12" width="9.27" height="15.9" fill="#fffeff" stroke-width="0"/><rect x="362.41" y="303.12" width="9.27" height="15.9" fill="#fffeff" stroke-width="0"/><rect x="376.98" y="303.12" width="9.27" height="15.9" fill="#fffeff" stroke-width="0"/><rect x="391.55" y="303.12" width="9.27" height="15.9" fill="#fffeff" stroke-width="0"/><rect x="347.84" y="329.61" width="9.27" height="15.9" fill="#fffeff" stroke-width="0"/><rect x="362.41" y="329.61" width="9.27" height="15.9" fill="#fffeff" stroke-width="0"/><rect x="376.98" y="329.61" width="9.27" height="15.9" fill="#fffeff" stroke-width="0"/><rect x="391.55" y="329.61" width="9.27" height="15.9" fill="#fffeff" stroke-width="0"/><rect x="347.84" y="356.1" width="9.27" height="15.9" fill="#fffeff" stroke-width="0"/><rect x="362.41" y="356.1" width="9.27" height="15.9" fill="#fffeff" stroke-width="0"/><rect x="376.98" y="356.1" width="9.27" height="15.9" fill="#fffeff" stroke-width="0"/><rect x="391.55" y="356.1" width="9.27" height="15.9" fill="#fffeff" stroke-width="0"/><rect x="347.84" y="382.59" width="9.27" height="15.9" fill="#fffeff" stroke-width="0"/><rect x="362.41" y="382.59" width="9.27" height="15.9" fill="#fffeff" stroke-width="0"/><rect x="376.98" y="382.59" width="9.27" height="15.9" fill="#fffeff" stroke-width="0"/><rect x="391.55" y="382.59" width="9.27" height="15.9" fill="#fffeff" stroke-width="0"/><rect x="347.84" y="409.09" width="9.27" height="15.9" fill="#fffeff" stroke-width="0"/><rect x="362.41" y="409.09" width="9.27" height="15.9" fill="#fffeff" stroke-width="0"/><rect x="376.98" y="409.09" width="9.27" height="15.9" fill="#fffeff" stroke-width="0"/><rect x="391.55" y="409.09" width="9.27" height="15.9" fill="#fffeff" stroke-width="0"/><rect x="347.84" y="435.58" width="9.27" height="15.9" fill="#fffeff" stroke-width="0"/><rect x="362.41" y="435.58" width="9.27" height="15.9" fill="#fffeff" stroke-width="0"/><rect x="376.98" y="435.58" width="9.27" height="15.9" fill="#fffeff" stroke-width="0"/><rect x="391.55" y="435.58" width="9.27" height="15.9" fill="#fffeff" stroke-width="0"/><rect x="268.36" y="288.55" width="9.27" height="15.9" fill="#fffeff" stroke-width="0"/><rect x="282.93" y="288.55" width="9.27" height="15.9" fill="#fffeff" stroke-width="0"/><rect x="297.5" y="288.55" width="9.27" height="15.9" fill="#fffeff" stroke-width="0"/><rect x="312.07" y="288.55" width="9.27" height="15.9" fill="#fffeff" stroke-width="0"/><rect x="268.36" y="315.04" width="9.27" height="15.9" fill="#fffeff" stroke-width="0"/><rect x="282.93" y="315.04" width="9.27" height="15.9" fill="#fffeff" stroke-width="0"/><rect x="297.5" y="315.04" width="9.27" height="15.9" fill="#fffeff" stroke-width="0"/><rect x="312.07" y="315.04" width="9.27" height="15.9" fill="#fffeff" stroke-width="0"/><rect x="268.36" y="341.53" width="9.27" height="15.9" fill="#fffeff" stroke-width="0"/><rect x="282.93" y="341.53" width="9.27" height="15.9" fill="#fffeff" stroke-width="0"/><rect x="297.5" y="341.53" width="9.27" height="15.9" fill="#fffeff" stroke-width="0"/><rect x="312.07" y="341.53" width="9.27" height="15.9" fill="#fffeff" stroke-width="0"/><rect x="268.36" y="368.02" width="9.27" height="15.9" fill="#fffeff" stroke-width="0"/><rect x="282.93" y="368.02" width="9.27" height="15.9" fill="#fffeff" stroke-width="0"/><rect x="297.5" y="368.02" width="9.27" height="15.9" fill="#fffeff" stroke-width="0"/><rect x="312.07" y="368.02" width="9.27" height="15.9" fill="#fffeff" stroke-width="0"/><rect x="268.36" y="394.52" width="9.27" height="15.9" fill="#fffeff" stroke-width="0"/><rect x="282.93" y="394.52" width="9.27" height="15.9" fill="#fffeff" stroke-width="0"/><rect x="297.5" y="394.52" width="9.27" height="15.9" fill="#fffeff" stroke-width="0"/><rect x="312.07" y="394.52" width="9.27" height="15.9" fill="#fffeff" stroke-width="0"/><rect x="268.36" y="421.01" width="9.27" height="15.9" fill="#fffeff" stroke-width="0"/><rect x="282.93" y="421.01" width="9.27" height="15.9" fill="#fffeff" stroke-width="0"/><rect x="297.5" y="421.01" width="9.27" height="15.9" fill="#fffeff" stroke-width="0"/><rect x="312.07" y="421.01" width="9.27" height="15.9" fill="#fffeff" stroke-width="0"/><rect x="268.36" y="447.5" width="9.27" height="15.9" fill="#fffeff" stroke-width="0"/><rect x="282.93" y="447.5" width="9.27" height="15.9" fill="#fffeff" stroke-width="0"/><rect x="297.5" y="447.5" width="9.27" height="15.9" fill="#fffeff" stroke-width="0"/><rect x="312.07" y="447.5" width="9.27" height="15.9" fill="#fffeff" stroke-width="0"/><rect x="268.36" y="473.99" width="9.27" height="15.9" fill="#fffeff" stroke-width="0"/><rect x="282.93" y="473.99" width="9.27" height="15.9" fill="#fffeff" stroke-width="0"/><rect x="297.5" y="473.99" width="9.27" height="15.9" fill="#fffeff" stroke-width="0"/><rect x="312.07" y="473.99" width="9.27" height="15.9" fill="#fffeff" stroke-width="0"/><rect x="268.36" y="500.49" width="9.27" height="15.9" fill="#fffeff" stroke-width="0"/><rect x="282.93" y="500.49" width="9.27" height="15.9" fill="#fffeff" stroke-width="0"/><rect x="297.5" y="500.49" width="9.27" height="15.9" fill="#fffeff" stroke-width="0"/><rect x="312.07" y="500.49" width="9.27" height="15.9" fill="#fffeff" stroke-width="0"/><rect x="1006.31" y="256.98" width="11.64" height="19.96" fill="#fffeff" stroke-width="0"/><rect x="1024.61" y="256.98" width="11.64" height="19.96" fill="#fffeff" stroke-width="0"/><rect x="1042.9" y="256.98" width="11.64" height="19.96" fill="#fffeff" stroke-width="0"/><rect x="1061.2" y="256.98" width="11.64" height="19.96" fill="#fffeff" stroke-width="0"/><rect x="1006.31" y="290.25" width="11.64" height="19.96" fill="#fffeff" stroke-width="0"/><rect x="1024.61" y="290.25" width="11.64" height="19.96" fill="#fffeff" stroke-width="0"/><rect x="1042.9" y="290.25" width="11.64" height="19.96" fill="#fffeff" stroke-width="0"/><rect x="1061.2" y="290.25" width="11.64" height="19.96" fill="#fffeff" stroke-width="0"/><rect x="1006.31" y="323.51" width="11.64" height="19.96" fill="#fffeff" stroke-width="0"/><rect x="1024.61" y="323.51" width="11.64" height="19.96" fill="#fffeff" stroke-width="0"/><rect x="1042.9" y="323.51" width="11.64" height="19.96" fill="#fffeff" stroke-width="0"/><rect x="1061.2" y="323.51" width="11.64" height="19.96" fill="#fffeff" stroke-width="0"/><rect x="1006.31" y="356.78" width="11.64" height="19.96" fill="#fffeff" stroke-width="0"/><rect x="1024.61" y="356.78" width="11.64" height="19.96" fill="#fffeff" stroke-width="0"/><rect x="1042.9" y="356.78" width="11.64" height="19.96" fill="#fffeff" stroke-width="0"/><rect x="1061.2" y="356.78" width="11.64" height="19.96" fill="#fffeff" stroke-width="0"/><rect x="1006.31" y="390.05" width="11.64" height="19.96" fill="#fffeff" stroke-width="0"/><rect x="1024.61" y="390.05" width="11.64" height="19.96" fill="#fffeff" stroke-width="0"/><rect x="1042.9" y="390.05" width="11.64" height="19.96" fill="#fffeff" stroke-width="0"/><rect x="1061.2" y="390.05" width="11.64" height="19.96" fill="#fffeff" stroke-width="0"/><rect x="1006.31" y="423.32" width="11.64" height="19.96" fill="#fffeff" stroke-width="0"/><rect x="1024.61" y="423.32" width="11.64" height="19.96" fill="#fffeff" stroke-width="0"/><rect x="1042.9" y="423.32" width="11.64" height="19.96" fill="#fffeff" stroke-width="0"/><rect x="1061.2" y="423.32" width="11.64" height="19.96" fill="#fffeff" stroke-width="0"/><rect x="1006.31" y="456.59" width="11.64" height="19.96" fill="#fffeff" stroke-width="0"/><rect x="1024.61" y="456.59" width="11.64" height="19.96" fill="#fffeff" stroke-width="0"/><rect x="1042.9" y="456.59" width="11.64" height="19.96" fill="#fffeff" stroke-width="0"/><rect x="1061.2" y="456.59" width="11.64" height="19.96" fill="#fffeff" stroke-width="0"/><rect x="1006.31" y="489.86" width="11.64" height="19.96" fill="#fffeff" stroke-width="0"/><rect x="1024.61" y="489.86" width="11.64" height="19.96" fill="#fffeff" stroke-width="0"/><rect x="1042.9" y="489.86" width="11.64" height="19.96" fill="#fffeff" stroke-width="0"/><rect x="1061.2" y="489.86" width="11.64" height="19.96" fill="#fffeff" stroke-width="0"/><rect x="1006.31" y="523.13" width="11.64" height="19.96" fill="#fffeff" stroke-width="0"/><rect x="1024.61" y="523.13" width="11.64" height="19.96" fill="#fffeff" stroke-width="0"/><rect x="1042.9" y="523.13" width="11.64" height="19.96" fill="#fffeff" stroke-width="0"/><rect x="1061.2" y="523.13" width="11.64" height="19.96" fill="#fffeff" stroke-width="0"/><path d="M1043.15,495.8c-30.5-14.83-65.77-17.57-99.42-13.37-33.65,4.2-66.09,14.98-98.09,26.2-33.07,11.59-66.36,23.92-95.12,43.94-28.76,20.02-52.91,48.81-60.33,83.06-2.92,13.45-3.12,27.85,1.98,40.63,5.51,13.82,16.69,24.61,28.68,33.42,42.49,31.23,98.26,41.96,150.38,33.9,52.12-8.06,100.55-33.88,140.15-68.71-35.14,5.98-72.89-6.27-97.82-31.75-24.93-25.48-4.27,11.08,2.47-23.92" fill="url(#radial-gradient-2)" stroke-width="0"/><path d="M1206.38,519.76c0,16.12-2.43,31.68-6.94,46.32-4.2-1.28-7.96-1.55-10.12-.73,12.53,57.38-52.21,35.72-181.34,106.01-66.72-18.13-115.78-79.14-115.78-151.6,0-6.53.4-12.97,1.17-19.29.65-5.28,1.56-10.48,2.72-15.59,15.86-69.97,78.43-122.22,153.2-122.22,86.76,0,157.09,70.34,157.09,157.1Z" fill="#108a9e" stroke-width="0"/><path d="M1199.44,566.08c-19.77,64.15-79.51,110.77-150.15,110.77-14.3,0-28.15-1.91-41.31-5.49,129.13-70.29,193.87-48.63,181.34-106.01,2.16-.82,5.92-.55,10.12.73Z" fill="#108a9e" stroke-width="0"/><path d="M1189.39,565.65s.02.05.02.08c.08-2.29-.27-4.47-.57-6.67-.56,2.26.1,4.41.55,6.59Z" fill="none" stroke-width="0"/><path d="M1003.03,455.77c.83.26,1.14-.09,1.37-.52-.64-.04-1.39-.36-1.37.52Z" fill="none" stroke-width="0"/><path d="M1193.19,575.27c-.36-.37-.76-.67-1.19-.93.34.38.71.72,1.19.93Z" fill="none" stroke-width="0"/><path d="M1195.55,577.19s0-.02-.02-.02c0,0,.02.01.02.02Z" fill="none" stroke-width="0"/><path d="M1191.8,584.44c-2.67-4.89-4.72-10.07-9.79-13.08,1.15-2.09,6.79-1.06,8.3,1.55-3.66-6.08-3.74-12.18-5.29-19.24-4.5.56-6.26-.39-5.85-5.63-2.83-.13-4.15-2.56-5.41-4.92-4.73,1.28-6.29,7.72-11.44,9.21-4,5.02.28,15.93-9.55,12.96-7.87-18.24-10.18-29.66-31.86-27.96,2.76,5.98,10.8,2.02,3.4,9.73-1.86,3.75-5.22,4.4-8.37,6.53-3.56,2.8-8.91,5.05-13.38,5.23-5.4,7.25,15.1-2.01,11.6,4.55-6.88,16.38-22.58,15.64-16.82,36.53.35,7.74-4.2,4.16-8.46,10.9-2.32,11.53-9.27,28.38-29.95,23.53-1.76-.23-.95-2.04-1.34-3.38-1.17.27-2.63-.77-2.18-1.92,2.67-8.24-4.97-14.29-5.98-21.99.28-6.29,5.91-13.38.12-19.32-4.78-4.34-.68-12.1-5.91-15.62-6.57-2.24-14.64-.29-20.52-.51-11.9.59-21.77-15.26-16.65-27.53,1.2-8.44,9.27-10.38,11.44-17.44,2.71-1.69,1.21-5.03,5.08-5.63,4.44,1.37,6.12-1.86,10.37-1.71,13.05-2.02,13.36-5.07,17.08,5.25,3.36-.87,10.58,6.59,11.14,2.61-.36-2.3,1.75-2.52,3.43-2.21,7.45.89,21.02,7.48,20.71-5.66-2.2-2.93-8.53,3.18-11.6-.44-3.53-.97-5.39-8.17-1.03-7.96-5.47-.14-3.12,4.35-4.38,7.55-.17,1.92-2.03-.57-2.84-.89-1.03,5.41-4.8-5.93-6.62-6.66,1.86,6.52-4.89,7.86-9.5,5.26,9.32-3.35-.65-5.51-1.93-8.84-1.88-4.88-5.35-.28-9.08-1.15.24,3.6-5.34,4.82-3.3,9.24-4.82-.09-7.7,4.45-13.01,3.18-5.75.4-5.21-6.87-5.86-10.91,1.29-4.4,8.14-.89,11.81-3.19,5.97-7.44-14.37-5.06,5.28-12.95,3.7-2.25,3.53-7.35,9.01-6.97-4.98-9.2,11.53-1.64,2.5-7.78-2.1-4.46-12.84-1.96-6.14-12.99,6.27-4.21,9.54-11.16,11.3-17.05,5.63-4.35,12.34-11.93,20.35-5.35,2.17,4.63,17.33,2.52,13.96,10.39,4.47,1.14,1.4-4.58-.14-7.06,3.4,1.38,7.99-1.22,6.47,4.4.8-8.21,22.06-3.82,11.51-10.15-1.44-2.34,1.42-1.13,2.52-.27.58-2.12,8.9,1.29,11.43,3.12-2.88-4.04-5.61-7.93-4.41-13.47,1.31-3.42,6.15.77,7.62-3.17.82,2.08-.08,5.38,2.09,6.48-2.01-7.82,2.74-5.8,8.09-3.25,3.35.77-5.83-3.31-5.94-5.97,2.03-.17,5.14-4.23,6.29-1.67,3.19-1.21-.37-3.26-1.46-4.94,1.41-5.47,5.96-6.66,9.12-8.03,3.58-.07.63-.77,3.44-3.13-1.84-1.29-1.7-4.57-.56-6.42,2.11,1.56,4.35-1.46,5.31,1.98-14.74-36.06-146.97-56.79-170.79-11.64-3.73,3.47-8.75,4.51-13.3,8.28-1.16,2.8-5.56-.28-6.16,3.05-.95,3.57-4.29,6.38-7.64,7.7,1.48,6.53-7.65,2.87-11.1,2.29-4.49,3.66,4.17,1.61,6.15,3.56.7,8.97-13.32-.67-15.35,6.7,1.47-1.4,9.97-1.39,5.55.9,5.11-1.01,5.69-.21,5.14,4.85,5.48-.76,14.07,8.75,11.81,13.65-2.71,2.39,4.32,5.41,5.2,8.4-3.77,3.79-6.95,5.15-9.71.58,2.19,4.32,5.61,9.89-.48,9.68-.85.16,1.23,5.61-2.81,1.17.84,4.72-7.82-3.37-7.19-6.04-1.98-.69-3.98.22-6.14-.55-.73-4.83,12.52-2.71,8.91-11.06-1.56-3.23-1.08-2.57-2.71-5.94-6.05-1.9-1.6,8.6-7.35,8.96-6.85,3.2-4.92-.02-.14,8.05-1.55,3.39-2.4-.77-3.36-.47,1.22.94-.53,2.34-1.83,1.37-.8,1.98-2.05.61-2.33-.6-1.53,3.69-4.38-.53-2.35-2.55-6.07,2.12-8.79,4.98-13.12,10.91-3.21,7.75,4.11.73-.59,8.57,6.38-1.26,7.64,5.74,13.29,6.83,1.64,1.36-1.66,3.85.1,6.29.52,1.64,1.76-7.71,6.46-8.75,1.56-2.3-1.99-5.6-.06-7.8,2.9-2,.17-9.71,5.22-8.35,6.8-2.09,10.99,4.1,10.16,11.32,3.16-.94,4.25-8.83,5.18-2.07,3.1-7.25,3.41,2.15,2.34,8.88,2.11,1.9,1.16,2.71,5.65,3.09-5.88,4.19,1.56-.15,1.95,3.88-.69,9.48-15.56,3-20.24,8.85,7.11-.56,4.07.91,5.65,5.28,2.99.47,3.65,1.01,6.23-.86.94,4.42-6.86,3.7-9,6.53.17-4.26-4.28,3.16-2.62-2.31-2.26.94-4.46,2.15-5.19,4.72-1.29,3.58-6.53,1.86-7.64,6.65-3.05.23-2.79,10.59-10.13,12.26-4.27,1.37,2.3,16.37-3.57,11.07-3.47,5.24-3.04-6.03-5.7-6.71-1.74,1.39-5.1-2.3-6.05.82-.38,2.21-2.81-.59-3.23.82-.76,5.3-1.1,14.62,6.33,13.74-1.05,5.54-7.95,10.52,2.96,9.44,4.23,1.22-1.47,8.39,3.75,10.45,3.78-.99,6.79,1.87,8.28-2.56,1.81.84,4.71-3.61,5.95-1.55-2.16,2.61,2.51-2.32,2.78,0-.72,1.65,1.75.92,2.15-.36.8,3.61,8.71,1.63,8.12,2.93,5.55-2.13,7.79,6.88,14.14,7.07,4.81-.74,11.26,6.4,7.1,9.96,1.13.57,4.26-.87,4.1,1.05,2.01.13,6.02.17,6.25,2.67,3.72.25,8.36-.07,11.23,3.01,9.23,3.58-.4,10.51-2.54,15.6,2.79,11.19-6.22,13.79-13.37,19-.53,4.05-.63,8.56-4.68,11.39,1.98-1.64,2.01-5.04.24-1.74-1.27,4.49-2.71,8.54-8.48,7.3,70.44,70.72,208.72,39.53,244.38-53.42ZM1092.63,430.99c.03-5.46.89-14.86,7.71-16.74,2,.11,1.71-2.78,3.96-2.68,1.59.78,3.44-.88,4.53,1.26-20.49,17.51,1.34,25.94-11.92,24.68-1.41-.74-3.12-.68-2.33-2.8-1.06-.19-2.52.17-2.64-1.67,1.15-.74,1.95-.75.7-2.05ZM992.76,449.32c-15.85,5.86-12.86,15.21-20.44,19.66-5.38-3.68-9.65-7.83-9.28-15.32-3.46-6.51,4.44-7.48,4.49-12.48-8.13-3.22,5.84-27.17-9.32-25.79-3.75,3.01-6.35-7.81-1.05-5.56,4.83-1.33-3.17-1.97-2.61-4.39.25-5.33,8.01-1.27,10.33-4.48,1.05-3.75-2.43-5.87,4.02-6.92,4.12-2.04,10.46-8.94,15.43-4.02.14-1.07.27-2.19.69-3.34.61,2.03,1.17,3.78,1.65,5.53.54-1.68.41-3.57,1.13-5.53.5,1.67.97,3.16,1.39,4.6-1.37-14.64,35.9-5.38,12.13-3.99,2.54-.11,14.4-.2,8.15,1.8,1.77.67,3.43-.02,5.03,1.41,1.74,4.42-11.57-.01-12.91,4.09,2.19-.62,9.48-2.25,9,1.29,2.92-3.57,4.04-.08.9,2.04,15.66-6.61,9.66,5.39,3.19,12.76.25,9.56-3.6,17.06-7.13,25.28,1,9.92-8.96,9.14-14.79,13.37ZM1000.9,459.85c1.63-1.52,1.66-2.46-.85-2.72.72-1.04,2.07-.55,2.42-1.81-4.71.74-.72-4.1.96-1.27.85-1.55,1.72-1.04,2.81-.14,1.02.77,1.04,1.01,1.7-.66-.1,2.79,1.58-.45,2.78,0,1.07,1.06,2.21-.28,3.6.26,5.16,7.94-8.52,9.06-13.42,6.33Z" fill="none" stroke-width="0"/><path d="M1191.82,568.82c-.23-.71-1.17-.95-1.77-1.39.38.63.95,1.1,1.77,1.39Z" fill="none" stroke-width="0"/><path d="M1119.49,535.66c-5.94.26-12.3-7.35-11.8-4.56,2.78,3.01,7.34,12.39,10.12,6.06.99,1.97,1.9,2.43,2.83.02-.46-.32-.84-.79-1.15-1.52Z" fill="none" stroke-width="0"/><path d="M1199.6,564.15c.1-1.49-.78-.61-.93.36-2.07,2.81-1.72-3.26-4.1-3.2-4.94-4.83-3.02.85-2.21,4.88.32,3.04,4.66,2.53,5.25,5.42.64-2.47,2.19-4.96,1.99-7.47Z" fill="none" stroke-width="0"/><path d="M1085.06,532.91c.18-.55-.11-.96-.54-1.32-.18.64-.17,1.08.54,1.32Z" fill="none" stroke-width="0"/><path d="M1130.74,442.93c.06.04.03.02,0,0,.01.06.02.12,0,0Z" fill="none" stroke-width="0"/><path d="M1158.33,411.98c.56,1.62,1.88.3,2.77-.43,4.2,1.42-2.72-7.35-2.77.43Z" fill="none" stroke-width="0"/><path d="M1157.99,413.92c-.28.09-.39.55-.54.81.26-.14.47-.36.54-.81Z" fill="none" stroke-width="0"/><path d="M1098.53,555.13c-2.4-8.32-8.26-14.16-12.94-21.38,4.58,8.08,6.54,16.53,13.26,22.44-.11-.35-.32-.71-.32-1.06Z" fill="none" stroke-width="0"/><path d="M1203.61,544.76c-2.07-2.41-4.96,2.7-2.28,4.85,2.43,3.8,3.77-4.77,2.28-4.85Z" fill="none" stroke-width="0"/><path d="M1196.15,575.65c.02-.06.08-.13.01-.17,0,.06,0,.12-.01.17Z" fill="none" stroke-width="0"/><path d="M1123.28,438.49c.92,2.35,1.13.9,2.85.31-.91-.4-1.64-.99-2.85-.31Z" fill="none" stroke-width="0"/><path d="M1082.56,455.43c-1-1.45,1.08-2.01,1.66-3.24-3.01,1.13-6.72.76-9.67-.42,1.65,1.92,3.2.98,3.34,3.9,1.58-.1,5.79,1.05,4.67-.24Z" fill="none" stroke-width="0"/><path d="M911.51,566.45c.1-.45.16-.68.27-1.03-1.1-.24-1.21.34-.27,1.03Z" fill="none" stroke-width="0"/><path d="M1083.02,508.67c7.61,1.47,15.25,2.37,5.66-4.8-2.95-2.2-6.66.53-8.19-1.82-5.45-5.06-8.73,11.38,2.53,6.62Z" fill="none" stroke-width="0"/><path d="M1124.46,431c-1.87-.44.25,1.05,1.39.97-.31-.64-.81-.87-1.39-.97Z" fill="none" stroke-width="0"/><path d="M1123.64,447.75c1.63-1.67-3.09-.69-2.3-.08.72-.03,1.85.73,2.3.08Z" fill="none" stroke-width="0"/><path d="M1126.23,438.84c.38.38.65.8.87,1.25,1.14-.82.19-1.23-.87-1.25Z" fill="none" stroke-width="0"/><path d="M902.65,563.66c-.43-.56-.8-1.17-1.15-1.77.31.61.58,1.32,1.15,1.77Z" fill="none" stroke-width="0"/><path d="M1078.69,457.2c-.27.24,1.27,2.44,2.08.94-.88-.4-1.48-.67-2.08-.94Z" fill="none" stroke-width="0"/><path d="M1045.51,483.72c-.08-1.14-.81-2.06-1.33-3.11.17,1.14.21,2.4,1.33,3.11Z" fill="none" stroke-width="0"/><path d="M1058.02,507.62c-2.22-1.23-4.53-3.29-6.57-4.32,1.31,2.85,11.1,10.12,6.57,4.32Z" fill="none" stroke-width="0"/><path d="M1008.74,395.24c-.45.14-.99.12-1.4.35.12.79,1.09-.02,1.4-.35Z" fill="none" stroke-width="0"/><path d="M1047.48,481.48c-1.53.72,1.92,2.81,2.89,1.62l-.05.04c2.58.83,4.6-1.67,6.82-.65,3.93-.44,6.38,1.14,1.98-2.92.55-2.92,2.87-4,4.54-2.88.4-2.95-2.39-7.37,2.43-5.64,5.97.3,3.21-4.09-1.36-1.25-8.41.23-6.94-8.85-1.46-12.97-2.56-4.64-1.81,3.19-4.03,4.02-3.45,1.85-4.45,6.59-.91,8.72,2.21,2.38-4.97,5.11-1.67,7.55-1,5.61-8.77,2.15-9.19,4.37Z" fill="none" stroke-width="0"/><path d="M921.69,607.72c-.72-1.49-1.68-.67-2.76-.28,1.27,1.9,2.59,3.77,3.95,5.6.07-1.86-.21-3.69-1.2-5.32Z" fill="none" stroke-width="0"/><path d="M908.18,577.53c9.92-15.32-6.44-6.7-10.7-17.24,2.06,7.78,4.73,15.34,7.92,22.59.28-2.32-.32-4.75,2.78-5.36Z" fill="none" stroke-width="0"/><path d="M1088.2,447.71c-.64,1.32.05,2.28,1.3,2.16-1.43.12.37-4.32-1.3-2.16Z" fill="none" stroke-width="0"/><path d="M920.16,431.51c-2,9.66,3.91,1.78,2.66,6.24-.64,4.21,2.96-6.97,7.92-2.73-2.13-1.72-5.29-.91-7.41-2.9-2.21-1.86-1.17-3.68,1.48-2.31-.88-3.73-4.16-1.91-4.65,1.71Z" fill="none" stroke-width="0"/><path d="M921.97,448.52c.13-.52.25-1.07.71-1.59-1.24.31-1.6.56-.71,1.59Z" fill="none" stroke-width="0"/><path d="M1133,420.94c4.41-.08-3.88-4.77.59-9.46,8.41-7.58-12.21,2.11-.59,9.46Z" fill="#58cc02" stroke-width="0"/><path d="M1123.08,429.27c-.14,3.86,9.7,2.6,2.54,1.52-1.17-.13-1.2-.15-1.24-1.58,3.5-1.67-3.43-4.91-1.31.06Z" fill="#58cc02" stroke-width="0"/><path d="M1131.68,428.38c7.01,1.74-11.71-5.64-1.52-7.61-1.1-2.55-4.32,1.48-6.29,1.67,1.63,2.9,5.28,5.9,7.81,5.94Z" fill="#58cc02" stroke-width="0"/><path d="M1139.97,409.32c-.06-2.6,4.37-.71,2.15-2.98.5-.68,1.83-.38,1.92-1.67-2.95-1.64.79-6.24-3.34-6.42-1.1,1.85-1.34,5.13.56,6.42-1.98,4.57-5.91,2.27-1.29,4.64Z" fill="#58cc02" stroke-width="0"/><path d="M1119.83,431.29c1.01,2.93,6.12,11.27,4.27,3.86-3.98-3.95-6.32-15.21-4.27-3.86Z" fill="#58cc02" stroke-width="0"/><path d="M1065.38,516.18c.2-4.4-14.81-18.87-13.21-12.51,3.26,2.47,8.4,4.67,8.66,8.77.89,2.68,5.91,10.83,4.56,3.74Z" fill="#58cc02" stroke-width="0"/><path d="M1046.72,503.57c-2.39,1,2.24,4.77,2.93,7,3.95-1.3-.54-5.93-2.93-7Z" fill="#58cc02" stroke-width="0"/><path d="M1052.81,516.44c3.99-.47,4.73-8.53-.51-6.02,2.58,2.67.67,5.24-2.55,5.72,1.43,1.41,7.4,1.44,3.07.3Z" fill="#58cc02" stroke-width="0"/><path d="M1038.74,506.15c.6.09,1.19-.04,1.75-.36-.66-.51-1.47-.39-1.75.36Z" fill="#58cc02" stroke-width="0"/><path d="M1031.47,515.79c.39.02.79-.07,1.17-.39-.43-.02-.8.12-1.17.39Z" fill="#58cc02" stroke-width="0"/><path d="M1143.56,541.57c-3.62-1.46-5.47-4.63-9.84-4.02,2.72,1.15,4.19,2.79,7.06,4.01-1.62,3.5,3.06,4.55,2.78,0Z" fill="#58cc02" stroke-width="0"/><path d="M1182.05,549.81c.24-2.19-1.96-2.39-3.83-3.25-.79-1.02-.87-4.37-2.74-3.63-3.62.4,1.64,5.47,3.69,5.13-1.14,4.91,4.31,8.89,2.88,1.75Z" fill="#58cc02" stroke-width="0"/><path d="M1153.5,560.47c-2.81-5.44-8.2-21.6-8.61-13.63.75,4.99,12.07,27.52,8.61,13.63Z" fill="#58cc02" stroke-width="0"/><path d="M1063.27,456.83c-4.57,2.68-7.42,13.98.35,12.28-4.58-3.29-1.14-9.23,2.43-12.28-.31-2.51-4.73-2.62-2.78,0Z" fill="#58cc02" stroke-width="0"/><path d="M1024.82,505.91c12.07-2.01,7.25-3.36,2.64-9.97,6.47-2.01,10.55-5.75,14.65-10.69,4.89,0,2.37-2.1,1.98-5.11-4.29-1.91-1.26,2.05-1.41,4.42-7.65,1.36-7.06,8.67-17.99,11.37,3.58,5.93,10.21,7.86-1.83,9.8.67.3,1.3.33,1.98.18Z" fill="#58cc02" stroke-width="0"/><path d="M1105.14,562.56c1.46-.67,6.69-.62,6.1-1.83-1.59.25-10.05,1.88-6.1,1.83Z" fill="#58cc02" stroke-width="0"/><path d="M1121.82,429.55c-.24-1.14-.25,1.03,0,.95,0-.32,0-.63,0-.95Z" fill="#58cc02" stroke-width="0"/><path d="M1203.21,543.48c-.63.17-.31,1.31.4,1.28,1.49.32,1.22-2.32-.4-1.28Z" fill="#58cc02" stroke-width="0"/><path d="M1195.06,574.52c-7.74-5.72-4.12-15.77-8.84-23.35-1.93,6.66.55,14.47,3.56,20.15.05,2.84,9.05,8.17,5.28,3.19Z" fill="#58cc02" stroke-width="0"/><path d="M1194.57,561.32c2.26.35,1.67,3.06,2.99,3.92,1.73-.18,2.27-2.87.46-3.62-2.63-1.11-3.25-2.56-5.11-4.13-2.26.61-.18,3.26,1.66,3.83Z" fill="#58cc02" stroke-width="0"/><path d="M1021.29,517.16c-.92-2.71-3.16-8.8-1.02-11.36-7.54-1.91-2.79,16.18,4.37,12.81-1.29-.01-2.32-.73-3.35-1.45Z" fill="#58cc02" stroke-width="0"/><path d="M1047.08,481.41c6.32-2.28.59-2.96.4-8.66-5.8,3.6,1.85,4.62-.4,8.66Z" fill="#58cc02" stroke-width="0"/><path d="M1108.39,529.96c1.19,3.4,11.33,7.54,5.79,2.86-2.01-.4-4.29-6.02-5.79-2.86Z" fill="#58cc02" stroke-width="0"/><path d="M1026.45,571.19c.9.14,1.8.04,2.7-.01-.89-.12-1.87-.38-2.7.01Z" fill="#58cc02" stroke-width="0"/><path d="M1015.39,567.72c-9.83-7.35-8.71-21.75-2.64-31.89,2.19-2.9,7.28-2.51,6.78-7.33,1.6-2.16,3.02-5.86,5.28-7.12-7.97-1.59-5.69,10.58-11.91,12.37-8.61,5.38-8.08,18.28-6.18,27.17,1.99,8.07,26.18,15.61,8.67,6.8Z" fill="#58cc02" stroke-width="0"/><path d="M1040.88,569.88c-4.37-2.85-1.76,4.09,2.39,2.14-.97-.32-1.74-1.09-2.39-2.14Z" fill="#58cc02" stroke-width="0"/><path d="M1105.94,557.65s0,0,0,0c.02,0,.05-.02,0,0Z" fill="#58cc02" stroke-width="0"/><path d="M1101.31,555.13c-2.32-9.42-10.41-15.2-13.93-24.09-2.69,4.49,4.88,12.28,9,18.08.48,2.79,7.43,15.77,4.92,6Z" fill="#58cc02" stroke-width="0"/><path d="M1061.71,634.34c-1.75-.24-.96-2.03-1.34-3.39-1.17.27-2.63-.77-2.18-1.92,3.51-9.52-8.92-17.05-5.37-26.21,5.55-7.18-.7-14.49-3.52-21.43.35-3.73,0-10.53-5.65-9.28,5.23,3.51,1.13,11.28,5.91,15.61,5.78,5.97.18,12.99-.12,19.32,1.01,7.69,8.64,13.76,5.98,21.99,2.2,6.02,6.54,6.17,13.49,5.81-2.39-.17-4.84,0-7.18-.5Z" fill="#58cc02" stroke-width="0"/><path d="M1032.45,520.01c.29-.31.57-.56.89-.72-6.05-1.58-5.67,6.97-.89.72Z" fill="#58cc02" stroke-width="0"/><path d="M1122.27,535.66c-4.84-4.84-2.43,4.5,2.82,2.08-1.22-.14-2.2-.59-2.82-2.08Z" fill="#58cc02" stroke-width="0"/><path d="M1117.8,537.15c-.31,1.72-1.88,2.03-3.23,2.66,2.16.01,5.87.19,3.23-2.66Z" fill="#58cc02" stroke-width="0"/><path d="M1076.88,518.84c-8.14-4.74-.69-10.26,6.62-10.1-4.72.04-10.77.84-13.3,4.14,2.39.52-.77,5.08,2.92,5.39.92,1.05,5.49,2.72,3.75.57Z" fill="#58cc02" stroke-width="0"/><path d="M1086.36,525.54c2.59-2.35,3.55-10.14-1.49-7.55,2.78,3.32-1.34,9.4-5.15,9.86,2.49.26,5.23-.05,6.63-2.3Z" fill="#58cc02" stroke-width="0"/><path d="M1064.35,527.14c1.12-4.72-3.48-1.71-3.1,1.6,1.45.58,3.67.56,3.1-1.6Z" fill="#58cc02" stroke-width="0"/><path d="M1080.49,502.05c.49,2.16,1.71.53,2.94.38-1.96-3.2-9.39-4.45-2.94-.38Z" fill="#58cc02" stroke-width="0"/><path d="M1040.29,518.54c10.93-2.02-.92-.68-5.65.6,1.92.47,3.77-.3,5.65-.6Z" fill="#58cc02" stroke-width="0"/><path d="M1088.68,503.87c3.99,2.95,8.09,6.96.61,6.13,20.14,1.65-10.71-11.94-.61-6.13Z" fill="#58cc02" stroke-width="0"/><path d="M1079.72,452.65c.08-.01.17.01.25,0-6.02-3.41-6.91.35-.25,0Z" fill="#58cc02" stroke-width="0"/><path d="M1135.21,432.39c-1.13-4.98-4.32-.63-.99,1.93,2.71,2.29,2.12.1.99-1.93Z" fill="#58cc02" stroke-width="0"/><path d="M1149.29,400.21c-.62.58.03,1.85-.06,2.82,2.36-.68,3.26-3.98.06-2.82Z" fill="#58cc02" stroke-width="0"/><path d="M1077.88,455.67c1.73,2.17,2.73,5.12,5.67,2.47-2.3-.63-3.41-2.38-5.67-2.47Z" fill="#58cc02" stroke-width="0"/><path d="M1131.02,441.25c-1.14-4.89-1.83-.98-.19,1.75,2.43,1.74,3.2-.7.19-1.75Z" fill="#58cc02" stroke-width="0"/><path d="M1084.22,452.19c-3.25,1.67-.99,6.93,1.67,4.13-.66-1.08-1.45-1.91-.03-2.77.95-2.21,6.98-1.97,2.62-3.86-.53-2.72.31-4.7-3.99-4.97,1.93,3.37,4.37,7.38-.28,7.48Z" fill="#58cc02" stroke-width="0"/><path d="M1107.56,444.08c5.03-2.63-6.97-8.79-5.08-5.11,2.85.94,3.51,2.94,5.08,5.11Z" fill="#58cc02" stroke-width="0"/><path d="M1124.27,440.13c2.05,2.47,1,5.4-.63,7.61,3.02,2.82,5.15-4.66,2.97-7.29,1.43-.42-1.49-2.03.39-1.52,4.34-.25-1.66-1.85-2.74,1.2Z" fill="#58cc02" stroke-width="0"/><path d="M1118.63,443.28c1.67-4.37-6.08-6.13-3.83-14.94,2.62-3.25-4.69-1.15-2.8,2.69-.73,5.04,2.95,9.35,6.63,12.25Z" fill="#58cc02" stroke-width="0"/><path d="M1158.76,412.83c-3.08,3.81-.62,4.66,2.01,1.09-1.24.15-2.49-.05-1.16-1.23-.28.11-.58.17-.85.14Z" fill="#58cc02" stroke-width="0"/><path d="M1091.27,449.69c2.94.9,3.63-3.33,5.56-4.8,2.88-3.45-7.52,2.13-5.56,4.8Z" fill="#58cc02" stroke-width="0"/><path d="M1102.41,444.14c3.88-2.36-1.06-1.74-2.21-.33.75,1.25,1.16,1.35,2.21.33Z" fill="#58cc02" stroke-width="0"/><path d="M1039.95,469.41c-.75-6.98,7.71-7.81,9.24-13.28.61-3.89,3.73-6.33,3.92-9.39,15.62-11.96,6.55-8.46-2.78,0-.18,3.05-3.31,5.5-3.92,9.39-1.53,5.46-10,6.32-9.24,13.28.92,5.55,7.68,8.85,2.78,0Z" fill="#58cc02" stroke-width="0"/><path d="M1069.43,470.9c-.11.07-.21.13-.32.18,7.49,1.67-.81-6.75.32-.18Z" fill="#58cc02" stroke-width="0"/><path d="M1162.15,412.05c-1.26-1.04-2.21.29-.7.77,1.9.44,2.52-2.38.7-.77Z" fill="#58cc02" stroke-width="0"/><path d="M1085.47,533.12c-.05-.32-.18-.59-.35-.83-.09.44-.13.71.35.83Z" fill="#58cc02" stroke-width="0"/><path d="M1060.23,477.25c-2.9,2.85.99,2.95,1.43,5.36-1.45-.36-2.99.85-.83.52,4.61-1.05,4.1-.51,1.08-3.55,1.46-2.58,1.3-5.09-1.68-2.33Z" fill="#58cc02" stroke-width="0"/><path d="M1065.02,471.08c-4.77-1.78.03,6.28,1.39,6.49-.07-2.05.3-6.58-1.39-6.49Z" fill="#58cc02" stroke-width="0"/><path d="M1050.13,480.5c0,.07.08.01.12.01-.04,0-.08,0-.12-.01Z" fill="#58cc02" stroke-width="0"/><path d="M1084.38,532.47c.33-.79-.16-1.19-.64-1.75-.12.83.17,1.36.64,1.75Z" fill="#58cc02" stroke-width="0"/><path d="M1047.66,483.13c.39.54,1.24,1.23,1.92.48-.53-.48-1.19-.57-1.92-.48Z" fill="#58cc02" stroke-width="0"/><path d="M1056.21,482.08c-1.93-.36-5.68,2.82-1.97,2.09.62-.62,3.4-1.31,1.97-2.09Z" fill="#58cc02" stroke-width="0"/><path d="M925.48,434.17c-.27,2.81-3.48,4.03-2.52,6.91,2.53-.07,7.48-7.37,2.52-6.91Z" fill="#58cc02" stroke-width="0"/><path d="M910.41,454.1c.25-.02.25-.44.06-.51-.02.18-.04.35-.06.51Z" fill="#58cc02" stroke-width="0"/><path d="M922.32,561.95c-1.2,2.46.82,3.88,1.04-.37,2.52-.54-1.89-2.05-1.04.37Z" fill="#58cc02" stroke-width="0"/><path d="M922.72,453.71c1.44.61,1.71.48,2.4-.9-.79-.94-1.9.09-2.4.9Z" fill="#58cc02" stroke-width="0"/><path d="M919.9,452.6c3.51-5.41.36-6.51-2.32-1.09-1.83,2.33,3.5,4.77,2.32,1.09Z" fill="#58cc02" stroke-width="0"/><path d="M905.7,470.28c-.45-.16-1.5-.6-1.43.19.52-.07.99-.13,1.43-.19Z" fill="#58cc02" stroke-width="0"/><path d="M923.2,444.92s-.14.14-.12.15c-.58,3.2,2.85-.55.12-.15Z" fill="#58cc02" stroke-width="0"/><path d="M965.43,584.33c.28-.38.59-.63.92-.8-1.03-.55-1.93.26-.92.8Z" fill="#58cc02" stroke-width="0"/><path d="M893.13,530.45c.65-.75.26-.89-.62-.9.03.55-.09,1.04.62.9Z" fill="#58cc02" stroke-width="0"/><path d="M933.44,562.56c1.7-1.14-1.9-.55-1.84-.23.66.34,1.23.38,1.84.23Z" fill="#58cc02" stroke-width="0"/><path d="M895.46,543.63c-.9.02-1.71-.03-1.28,1.07.78-.45,3.49-1,1.28-1.07Z" fill="#58cc02" stroke-width="0"/><path d="M953.64,581.36c.73-.45,1.5-.84,2.1-1.46-.96-.71-2.21.32-2.1,1.46Z" fill="#58cc02" stroke-width="0"/><path d="M928.82,562.32c-.1-.05-.21-.08-.33-.1.11.06.22.1.37.12-.01,0-.02,0-.04-.02Z" fill="#58cc02" stroke-width="0"/><path d="M956.02,582.35c2-.31.17,3.41,1.6.97,1.73-3.55,1.7-2.48-1.6-.97Z" fill="#58cc02" stroke-width="0"/><path d="M948.7,637.28c-1.03.09-1.78-.44-2.6-1.32-.57,2.41,4.66,2.12,2.6,1.32Z" fill="#58cc02" stroke-width="0"/><path d="M913.86,566.05c.9.22,2.23-3.25,3.37-4.52,1.18.26,2.23-.7,3.16-1.55-1.5-1.58-10.4,3.62-6.53,6.07Z" fill="#58cc02" stroke-width="0"/><path d="M907.01,530.7c-.91-3.54-12.1-1.82-4.59-1.89,2.57,1.15,1.21,3.64,2.48,5.59,3.33,6.28,2.81-.63,2.12-3.7Z" fill="#58cc02" stroke-width="0"/><path d="M901.33,565.39c7.35,4.62-.5-4.73-3.17-7.07-3.23-.23,2.05,5.64,3.17,7.07Z" fill="#58cc02" stroke-width="0"/><path d="M925.04,608.92c-5.49-3.44-12.07-8.61-14.31-16.71-10.03-9.95,8.58-17.64,1.04-26.79-4.24,1.58,2.42,6.16-3.6,12.11-8.36,12.43,14.06,28.39,17.63,39.35-.3-2.65.29-5.45-.77-7.96Z" fill="#58cc02" stroke-width="0"/><path d="M908.33,564.29c1.5-.41-1.34-.61-2.17-.2.71.3,1.55.4,2.17.2Z" fill="#58cc02" stroke-width="0"/><path d="M935.46,500.35c-2.38.49-1.27,4.33.35,1.99,2.05-1.78,3.24-3.8-.35-1.99Z" fill="#58cc02" stroke-width="0"/><path d="M939.41,488.84c-1.45.53-1.71,1.23.01.46.53-.16.36-.33-.01-.46Z" fill="#58cc02" stroke-width="0"/><path d="M944.68,467.5c.18-6.52-4.64,1.55-4.76,3.24,1.94-.78,3.58-1.78,4.76-3.24Z" fill="#58cc02" stroke-width="0"/><path d="M942.92,498.91c1.33-.02.52-1.38.55-2.3-1.14,1.04-3.48,2.45-.55,2.3Z" fill="#58cc02" stroke-width="0"/><path d="M932.63,458.42c-.35-.66-.76-.94-1.41-.46.43-.02.95.39,1.41.46Z" fill="#58cc02" stroke-width="0"/><path d="M948.7,482.5c.96.21,1.69-.11,2.41-.51-.92-1.17-1.75-.68-2.41.51Z" fill="#58cc02" stroke-width="0"/><path d="M942.2,489.3c-.76.51,3.37.46,2.27.05-.79-.26-1.53-.49-2.27-.05Z" fill="#58cc02" stroke-width="0"/><path d="M930.83,495.98c2.04-.89,3.2-3,5.38-3.63-1.58-1.26-7.52,3.95-5.38,3.63Z" fill="#58cc02" stroke-width="0"/><path d="M920.9,486.06c-1.16-7.22,4.1-8.38,6.4-13.43-1.74-4.92.98-9.65,2.64-14.19-5.61-2.22-2.9,6-5.82,8.17-1.93,2.2,1.61,5.5.05,7.8-3.8,2.11-9.51,9.17-3.27,11.65Z" fill="#58cc02" stroke-width="0"/><path d="M968.53,464.09c-5.07-9.51-3.12-15.67,1.78-22.91-7.9-2.25,5.33-28.2-8.85-25.63,10.63,3.99-1.99,22.8,6.07,25.63-4.12,7.35-7.01,9.64-3.09,19.81,1.1,6.53,15.47,10.14,4.1,3.1Z" fill="#58cc02" stroke-width="0"/><path d="M1008.29,400.21c-2.77,3.37,6.96-2.98,8.76-3.96-3.65-.87-5.68,2.71-8.76,3.96Z" fill="#58cc02" stroke-width="0"/><path d="M1008.49,387.71c-.17-.74-.92-.22-1.39-.2.46.14.89.28,1.39.2Z" fill="#58cc02" stroke-width="0"/><path d="M1007.38,392.58c.83.02,1.75.22,2.53-.01-.84-.03-1.69-.02-2.53.01Z" fill="#58cc02" stroke-width="0"/><path d="M1006.27,393.98c-1.39-.23-5.58-.34-4.21,1.67,1.4-.69,2.78-1.38,4.21-1.67Z" fill="#58cc02" stroke-width="0"/><path d="M1008.74,395.24c-2.56,1.57.49,1.08,1.84.63.53-2.35-.93-1.8-1.84-.63Z" fill="#58cc02" stroke-width="0"/><path d="M1001.13,388.16c.86-.2,1.68-.64,2.53-.8-1.51-.34-2.88-.16-3.94,1.12.66-.14,1.04-.21,1.41-.31Z" fill="#58cc02" stroke-width="0"/><path d="M991.68,393.96c-.4-6.29,2.6-9.27,8.91-11.17-6.29-1.53-16.61,8.26-8.91,11.17Z" fill="#58cc02" stroke-width="0"/><path d="M956.96,410.69c-3.15-3.93-3.16,2.72-1.26,5.5,4.09-.34,1.06-2.83,1.26-5.5Z" fill="#58cc02" stroke-width="0"/><path d="M961.4,409.58c-8.22-6.48-1.99-6.89,5.49-7.81,3.68-3.14-2.87-5.66,3.12-7.28,4.82-.66,6.02-5.21,10.78-5.66-6.91-.81-9.85,5.43-16.51,7.24.21,1.87,2.96,5.31-1.59,6.06-9.58.47-9.76,2.05-4.33,7.52,1.04.39,2.01.17,3.05-.06Z" fill="#58cc02" stroke-width="0"/><path d="M986.33,393.05c.73-2-.92-4.05-1.32-6.37-.63,2.25-1.64,5.5,1.32,6.37Z" fill="#58cc02" stroke-width="0"/><path d="M1004.6,386.1c-.72.48,2.45.84,2.63.19-.85-.47-1.73-.57-2.63-.19Z" fill="#58cc02" stroke-width="0"/><path d="M943.1,404.01c-.12.13-.35.22-.16.4.06-.15.11-.27.16-.4Z" fill="#58cc02" stroke-width="0"/><path d="M940.31,410.75c.66.88,4.36.71,2.78,0-2.87-1.2-8.94-1.75-2.78,0Z" fill="#58cc02" stroke-width="0"/><path d="M937.05,417.46c-1.82-.27-3.62-1.19-5.35-1.86-1.9,1.8,4.11,2.12,5.35,1.86Z" fill="#58cc02" stroke-width="0"/><path d="M931.8,451.78c2.65-6.11-8.16,2.84.38,1.08-.55-.06-.69-.58-.38-1.08Z" fill="#58cc02" stroke-width="0"/><path d="M939.56,456.43c-1.3-2.02-2.06-4.68-5.11-3.37,1.47,4.25,13.32,13.34,5.11,3.37Z" fill="#58cc02" stroke-width="0"/><path d="M938.5,425.9c.13.11.32.15.59.14-.19-.06-.39-.11-.59-.14Z" fill="#58cc02" stroke-width="0"/><path d="M937.68,449.98c3.1-4.26,4.46-5.98,2.59-11.1-2.33,1.54-.74-5.22-3.34-5.46.77,1.38-.13,2.29-1.53,2.38.34,1.38,2.11,2.14.5,3.47,4.89,1.17,1.94,7.34-1.11,10.73.99.21,1.97.16,2.89-.02Z" fill="#58cc02" stroke-width="0"/><path d="M924.36,428.54c2.08,1.29-1.03,1.65-1.72.28-1.42,2.26.64,3.35,2.27,4.27,2.27,1.07,5.25.74,7.12,2.67,4.47-.15-1.76-2.5-3.61-2.22-2.94-.87-5.64-5.73-.83-3.73.94-1.6-2.25-1.4-2.48-2.93,1.3-2.96,3.41-6.16,6.65-7.3-3.41-1.98-11.76,7.7-7.41,8.96Z" fill="#58cc02" stroke-width="0"/><path d="M945.2,456.64c-.38-.74-.59-1.53-1.44-1.84-2.01,1.95,3.18,5.3,1.44,1.84Z" fill="#58cc02" stroke-width="0"/><path d="M930.53,425.26c-.24,1.42.26,2.35.54,4.01,2.14-6.62,6.74-13.59-.54-4.01Z" fill="#58cc02" stroke-width="0"/><path d="M949.07,449.03c-5.27-5.31-2.01,5.84.64,1.41.39-.15-.53-1.03-.64-1.41Z" fill="#58cc02" stroke-width="0"/><path d="M1092.24,432.82c-1.11,1.52,1.44,1.92,2.33,1.89-1.12,2.31,3.1,3.59,4.41,2.51-1.37-.68-2.23-.63-1.63-2.51-1.06-.19-2.52.17-2.64-1.67,1.14-.74,1.95-.75.7-2.05-1.31-1.63,1.35-3.11.26-4.97.16-7.06,4.97-10.36,9.82-13.86-1.89-1.84-9.3,4.5-10.52,6.72-2.92,4.03-1.29,10.94-2.72,13.94Z" fill="#58cc02" stroke-width="0"/><path d="M1191.23,578.51c-1.22-2.89-7.22-10.36-9.21-7.14,4.81,2.75,14.58,20.88,9.21,7.14Z" fill="#58cc02" stroke-width="0"/><path d="M1005.56,461.22c5.17.36.31-.8-1.88-1.37,1.63-1.52,1.66-2.46-.85-2.72.57-.76,3.79-1.6,1.57-1.88-1.02,1.54-2.28-.33-.94-1.33-2.15-2.45-5.42,2.13-.99,1.41-4.25,3.17.22.71-.54,3.43-2.83,2.07,2.45,1.3,3.63,2.47Z" fill="#58cc02" stroke-width="0"/><path d="M1011.97,453.9c-.46-.68-.9.07-1.24-.58.03,1.4.28,1.28,1.24.58Z" fill="#58cc02" stroke-width="0"/><path d="M1010.7,453.29c-.48-.43-1.04.44-1.54.62.91,1.21.98.65,1.54-.62Z" fill="#58cc02" stroke-width="0"/><path d="M1007.48,454.67c.73.59.93,0,1.41-.58-.94.77-.84.24-.95-.82-.59,1.37-.67,1.82-1.63.58-1.07,1.92.44,2.85,1.17.83Z" fill="#58cc02" stroke-width="0"/><path d="M1149.23,403.03c-.56-5.51-10.77-5.58-5.19,1.65-.38,1.81-3.06.9-.98,2.89-6.43.71-14.69,4.98-8.68,12.72-.59,2.72-1.79-1.14-2.79-.41-12.78,3.51,6.73,9.4.08,8.5-4.14,1.51-4.61-5.57-7.3.83-.32,2.93,3.34.61,4.25,2.78-5.22,1.07-5.8-2.67-6.21-6.82-3.45,4.02,1.33,8.09,2.24,11.66-.51,3.7,3.34-.31,4.24,1.96-3.97,1.75,1.08,13.5-7.87,8.42,11.79,1.54-6.72-30.99-6.25-16.19-1.96,5.4,5.29,7.75,3.85,12.25-3.74-3.96-9.05-3.38-13.22-6.03-2.12,2.83,6.85,3.23,2.15,6.83-1.07-2.76-3.26-1.2-5.15.06-8.6-1.36-5.22,5.02-11.14,5.55-1.66-3.89,3.78-3.12-3.98-4.97,1.01,1.48,2.45,2.83,1.42,4.81,3.9,2.62-1.95,1.58-2.84,4.02-2.12,1.19,1.12,2.63-.93,3.82-3.59-2.53-7.55-1.63-1.38.77-2.81,3.43-7.13-2.08-5.68-4.7-1.68-.54-3.74-.51-3.42-2.71,3.08.24,7.07,3.98,10.19,1.05,4.06-7.32-12.55-6.21-13.97-10.39-6.54-6.93-15.24,3.46-18.89,7.63-.33,5.64-5.3,11.25-9.98,14.78-4.44,4.4.05,15.06,5.68,8.95-.31,3.68,1.52,4.03,3.48,6.48-6.11,3.05,5.73,1.97,5.7-2.12-1.61-.78-.16-2.33-.09-3.88,5.66-2.79-5.24-8.78,2.68-12.38,3.05-9.21,9.58-6.2,4.4-1.36-5.62,6.68-.18,11.97,8.01,8.97,2.36,3.46-2.32,3.06-4.19,2.36-4-2.01,1.5,10.57-2.24,4.93-6.88,4.55-1.23,3.91-.8,6.85-1.65-.5-4.22,1.36-4.91.06-.4-1.04-1.64-.4-2.38-.18-4.37,2.98-3.03,1.36-6.77.61-4.54,3.43-1.59-5.87-6.39-2.94,3.26,5.28.72,4.13-3.3,5.67-1.35,9-20.72,7.65-8.45,15.35-.5,10.74-19.44-4.18-10.94,15.99,3.28,2.76,7.45,1.45,10.18-1.37,1.14-1.17,4.71,1.44,3.71-1.55-1.06-3.94,4.02-4.67,3.56-8.09,2.38-.77,5.54.27,7.98-2.59,4.06.49,3.89,9.16,7.68,5.78,2.71,2.93,2.44,6.17-1.87,6.8,4.02,2.97,8.2-.45,6.72-5.26,7.14,3.61-12.76-6.91-5.9-9.67.76,4.07,6.88,4.42,8.72,7.85,1.37,2.43,3.71,11.43,6.64,9.37,1.32-8.42-.66-6.02,8.04-8.78-3.96-4.3,1.8-14.42,6.53-7.61.27.59.41,1.25,1.29,1.31,4.87-3.43,9.55,3.52,12.67,5.85-8.29,2.68-13.88-3.24-23.24,2.12-2.88,7.94,6.28,10.26,13.04,5.77,6.49,14.89-14.33,9.83-22.03,7.84-.91,9.56-8.87-.93-16.93-.98,5.35-13.77-15.42-1.62-20.02-2.3-2.38-1.68-5.11-.05-5.82,2.99-3.82,9.7-9.94,8.52-12.16,17.22-6.29,13.8,1.61,25.85,14.3,30.8,8.01-3.08,25.24-5.23,25.06,6.49,11.74,25.59-3.85,20.32,8.03,40.54-.62,22.4,19.24,18.03,28.42,2.39-8.62-4.71,2.94-.19,2.56-4.76-1.47-7.15,1.17-5.34,3.31-10.66,14.18-4.5-6.96-20.09,19.86-37.06,8.04-19.17-5.54.29-10.33-10.62-3.57-3.64-6.56-7.61-9.37-11.17-.08-2.37-.12-4.76-2.76-5.62-1.16-5.66-4.6-7.02-1.78-11.17,3.53,6.56,7.18,12.56,11.78,18.08,2.34,2.42,1.97,13.85,6.78,8.5,3.72,2.38,28.51-15.26,19.34-16.83-6.91-3.93-3.49-1.56-11.09-.85.24-4.39-7.92-5.73-6.03-10.29,2.67-1.68,5.78,3.35,7.58,4.87,2.42,1.63,5.55-2.12,6.52,1.13,3.47,5.98,14.42-2.24,17.31,4.41,6.65,1.11.95,1.57,5.71,5.31,5.36-3.67,6.2,29.17,15.52,16.95-4.69-6.1,12.26-22.44,16.13-18.74.75,2.66,2.66,4.15,5.01,4.47-.68,3.66,2.18,8.96,4.27,3.12,5.25,8.27.94,18.07,9.98,24.34,4.61-8.28-7.22-4.72-4.48-16.83.17-3.2,8.55,4.43,8.07,6.25,14.28-47.93,4.38-112.53-36.29-153.03-.92,1.04-2.21,1.32-3.13.11-3.13,2.71,2.34.91-2.66,5.06,1.1-10.77,4.16-8.04-6.03-16.46-.7.87-1.06,2.11-2.45,2.41ZM1083.74,530.72c.55.83,1.57,1.34,1.73,2.4-1-.48-1.94-1.04-1.73-2.4ZM1130.85,443.4c-1.64-6.6-1.46-3.79,2.75-.41q-1.15.61-2.75.41ZM1134.22,434.32c-1.27-1.92-2.91-3.05-.14-4.72.92,2.45,4.11,7.86.14,4.72Z" fill="url(#linear-gradient-2)" stroke-width="0"/><path d="M948.38,638.8c-.56-1.25-2.36-1.02-2.28-2.83,10.69,7.52,7.61-8.28,11.57-6.48-.63.9-1.22,1.72-2,2.82,11.83-28.06,16.21-4.82,18.71-32.02,2.77-3.6,8.04-8.06,4.79-12.68-4.12-1.07-9.24-6.79-13.73-3.27-1.06-.63.4-3.28-2.06-2.41-3.05-3.59-5.01.37-6.73,2.36.52-1.16.89-1.79-.62-1.93,5.96-2.54.45-4.02-2.38-.99,6.69-6.79-2.39-11.91-8.91-12.48-.45-.43-1.01-.89-1.92-.41.59-3.86-7.02-3.81-5.98-6.52-9.09,3.02-11.1-6.2-14.64,2.58-1.3-1.33,2.51-6.46-.37-5-3.39,1.99-6.46,2.84-7.53,6.91-1.51-2.08-3.29-3.34-5.95-2.17-10.18-1.04,2.27-13.56-12.51-10.84,9.21,22.54,17.25,4.52,18.2,18.52-11.17,11.12-3.35,26.06,7.76,35.53,1.07-.71,2.01-1.1,2.68.22.74,12.36,15.59,27.55,23.9,31.08Z" fill="url(#linear-gradient-3)" stroke-width="0"/><path d="M893.63,529.84c3.38,2.07,3.18-4.65,12.66-.17,1.16,6.4,5.08,11.36,4.22.96-2.17-10.38,6.51-2.64,10.3-18.89.12.42.23.81.39,1.36,3.59-7.92,6.86-3.1,8.25-7.55,1.27-3.42,5.44-5.7,8.89-5.8-1.96,1-1.82,4.96.26,2.6,1.41-2.7,9.14-1.24,7.67-5.73-3.05,5.26-9.88-.88-5.85-3.61-3.59-2.62-6.71,1.21-9.57,2.98,2.37-8.42,17.1-5.19,23.81-9.76.46-6.16-1.69-4.63-5.94-3.72,3.81-3.17,4.79-3.42-.88-3.74-1.63-10.36,3.2-17.55-7.9-8.01-1.99-3.07,1.43-7.47-2.18-9.7-1.71-.67-2.19-4.37-4.08-2.9-1.88.44-4.31-.95-4.82,2.09.3,4.93-2.81,5.74-2.42,8.8,3.16,7.67-7.62,8.61-5.52,17.02-5.68-.91-2.17-7.15-3.29-9.19-5.66-.82-6.94-8.73-13.36-6.4.56-2.12,4-7.02-.4-4.04-.65-5.97,5.4-8.04,6.6-12.84,1.44.64,3.52,1.28,2.71-1.06,2.42-1.61,5-1.38,6.65-3.91,5.57-4.65-1.07,2.97.83,5.84,2.24.96,2.3-2.35,4.64-2.35-.49,2.08,1.99,2.77,2.61.71-1.09-2.28-4.84-5.11-4.7-7.9,5.56,3.78,8.27-3.64,9.28-7.99-4.31-10.61-10.14,15.26-9.62-1.28-4.27,4.5-3.06-4.03-2.05-6.28-19.45,28.19-33.04,67.52-27.17,100.47Z" fill="url(#linear-gradient-4)" stroke-width="0"/><path d="M896.45,552.34c1.35-1.28-1.48-4.83,1.7-2.98-1.13-2.34,1.86-3.14,1.31-5.16-6.52-4.09-5.47,8.41-3.01,8.14Z" fill="url(#linear-gradient-5)" stroke-width="0"/><path d="M1006.12,442.38c2.26-11.43,8.99-19.84,8.55-31.71,10.93-11.73,7.68-20.17-6.94-8.82-.41-1.14-.47-1.3.56-1.64,1.82-.46,8.04-5.99,3.69-5.99-.23,1.81-3.93,3.01-4.64,1.37,6.17-2.29-3.41-2.01-5.28.07-2.96-5.04,24.43-2.38,7.41-6.57,6.29-2.19-7.35-2.14-9.75-.61,2.96-3.09,6.67-2.17,10.25-1.99-6.16-7.7-20.06-1.94-18.29,7.48-3.36.43-2.47-4.96-3.89-7.28-2.26,16.13-3.46-5.74-10.46,4.19-3.24-.55-2.77,3.16-5.67,3.17-2.09.08-7.42,3.25-3.16,3.95.27,7.63-10.47,1.34-11.19,7.45,10.19,9.07-4.95-1.62,1.16,10.75,18.18-6.59,3.82,22.04,11.82,24.99-6.78,8.59-6.85,21.11,4.79,27.8,3.92-18.39,18.66-17.76,31.03-26.59Z" fill="url(#linear-gradient-6)" stroke-width="0"/><path d="M937.05,417.46c2.22.29,6.59.02,6.48-3.16-3.78-5.89-18.34,1.31-6.48,3.16Z" fill="url(#linear-gradient-7)" stroke-width="0"/><path d="M938.43,409.77c3.39-.04,11.21,4.5,9.69-2.15,5.15-1.04,6.22-6.9,9.39-9.37,4.83.09,7.63-4.92,12.71-5.86,1.45-.64,1.49-.75,1.23-2.35,2,.14,3.19-.72,4.63-2.02,3.33-17.21-36.87,17.18-37.65,21.74Z" fill="url(#linear-gradient-8)" stroke-width="0"/><path d="M928.02,422.11c-1.14,2.05-4.92,5.34-.88,6.43,2.09,1.3-1.03,1.64-1.72.28-3.41,3.78,13.79,9.74,11.51,4.6,2.6.25,1.01,6.99,3.35,5.46,1.86,5.12.51,6.85-2.6,11.1-2.4.05-7.2-.65-5.5,2.88,2.17.83,3.86-.77,5.93.49-.43,4.47,11.39,11.74,5.63,3.63-.67-.85-.37-2.97.79-1.65,7.88,8.86,1.55-5.81,1.76-7.37,5.19.38,3.12,7.05,9.23,0-3.52-6.35-7.56-4.18-4.53-10.31-1.93-5.14-6.43-12.31-12.49-11.74,1.72-9.87-7.09-3.54-7.44,3.36-1.62-4.06.63-7.48,4.13-9.43-2.92-1.49-5.24.36-7.18,2.27Z" fill="url(#linear-gradient-9)" stroke-width="0"/><path d="M1104.95,412.93c-7.24,2.87-10.04,10.79-9.54,18.06,1.25,1.29.44,1.32-.7,2.05.12,1.85,1.58,1.48,2.64,1.67-.79,2.12.92,2.07,2.33,2.8,5.88,1.55-3.96-8.26.93-14.9,1.87-2.24,13.38-14.64,4.34-9.68Z" fill="url(#linear-gradient-10)" stroke-width="0"/><path d="M1195.35,577.07c-3.15-1.61-6.62-8.08-10.42-6.32,4.29,2.8,9.18,16.78,10.42,6.32Z" fill="url(#linear-gradient-11)" stroke-width="0"/><path d="M1003.18,455.14c3.27.12,1.41.81-.35,1.99,4.41.19-.24,2.36,1.67,3.17,4.66,1.91,14.5-.36,9.82-6.79-1.63-1.05-3.57,2.41-3.6-.25-.69,2.17-.84.73-1.83.82-1.15.81-1.43,1.52-3.08,1.69,1.94-4.21-4.11-2.14-2.63-.63Z" fill="url(#linear-gradient-12)" stroke-width="0"/><path d="M1204.64,620.38c-40.86,38.63-93.99,42.49-120.55,55.04l-26.56,12.55s-64.36,50.21-115.43,72.42c-22.53,9.79-98.72,33.67-183.42-11.22l181.34,330.83H390.67c26.06-48.91,63.97-120.03,102.29-191.79-32.98-7.36-64.96-19.31-95.28-33.55-39.37-18.66-76.76-39.89-112.54-64.16-86.34-58.76-159.83-141.52-169.9-243.8-1.52-16.53-1.1-33.2,1.46-49.54h42.16c-6.46,60.25,23.47,120.79,66.28,165.8,16.39,17.37,35.03,33.12,54.62,47.29,35.32,25.34,74.11,45.89,114.14,63.84,33.43,14.8,67.65,27.8,103.62,34.53,11.89,2.27,23.84,3.7,35.73,4.18,45.72-85.5,85.92-160.43,99.31-184.69,32.17-58.28,91.7-89.22,223.72-130.95,12.59-3.99,25.85-8.07,39.81-12.28-.92,4.04-1.68,8.13-2.27,12.28-.17,1.1-.31,2.2-.45,3.31-20.61,6.41-42.85,15.27-66.71,27.22-144.78,66.35-113.17,133.96-113.17,133.96l15.19,32.77c36.78,19.28,139.53,60,255.3-9.34,8.23-4.93,16.23-9.49,24-13.72,129.13-70.29,177.58-55.37,191.24-105.12.37,1.32,1.44.88.22-.16,15.65,4.81,37.42,23.85,5.2,54.3Z" fill="url(#linear-gradient-13)" stroke-width="0"/><path d="M316.52,265.06c-.19,3.61-.61,17.17,3.04,27.29.11.32-.17.63-.49.55-3.02-.77-6.15-1.34-6.02,1.31.14,2.87,7.21,8.63,11.57,10.79,2.36,1.17,15.38,3.18,19.39,3.06.4-.01.56-.52.24-.76-2.96-2.15-10.98-7.43-12.45-8.39-.14-.09-.22-.26-.18-.43.38-1.76,3.3-11.53,22.35-20.75.4-.19.26-.79-.19-.79-5.28-.01-21.69,3.53-24.5,7.41-.19.27-.6.21-.72-.1-1.88-4.74-8.99-16.45-11.28-19.42-.24-.31-.73-.16-.75.23Z" fill="#fff" stroke-width="0"/><path d="M269.56,189.23c-.09,3.76-.13,17.85,3.96,28.27.13.33-.15.66-.5.58-3.16-.72-6.43-1.21-6.22,1.54.23,2.98,7.74,8.76,12.34,10.87,2.49,1.15,16.08,2.85,20.23,2.61.42-.02.57-.56.22-.79-3.14-2.14-11.63-7.39-13.18-8.35-.15-.09-.23-.27-.2-.44.34-1.84,3.08-12.08,22.61-22.22.41-.21.25-.83-.22-.82-5.48.14-22.43,4.3-25.24,8.42-.19.28-.62.24-.75-.08-2.09-4.87-9.82-16.83-12.29-19.85-.26-.31-.76-.14-.77.26Z" fill="#fff" stroke-width="0"/><path d="M213.09,157.9c-.36,3.48-1.43,16.54,1.6,26.49.09.31-.19.6-.5.5-2.88-.9-5.87-1.59-5.88.97,0,2.78,6.53,8.68,10.64,10.98,2.22,1.24,14.69,3.82,18.56,3.91.39,0,.57-.48.26-.72-2.75-2.22-10.23-7.7-11.6-8.71-.13-.1-.2-.27-.15-.43.45-1.68,3.75-10.97,22.59-18.94.4-.17.29-.75-.14-.78-5.09-.27-21.1,2.34-24.01,5.96-.2.25-.59.17-.69-.13-1.58-4.67-7.87-16.32-9.94-19.3-.21-.31-.69-.19-.73.19Z" fill="#fff" stroke-width="0"/><path d="M126.05,202.33c.03,3.12.38,14.82,4.05,23.34.12.27-.11.55-.4.5-2.64-.51-5.37-.83-5.12,1.44.27,2.47,6.66,7.06,10.53,8.69,2.09.88,13.42,1.93,16.86,1.62.34-.03.45-.48.16-.66-2.66-1.69-9.85-5.82-11.16-6.57-.13-.07-.2-.22-.18-.36.23-1.54,2.23-10.1,18.16-19.05.34-.19.18-.7-.2-.67-4.55.26-18.49,4.18-20.71,7.67-.15.24-.51.21-.63-.05-1.86-3.99-8.61-13.7-10.74-16.13-.22-.25-.64-.1-.63.24Z" fill="#fff" stroke-width="0"/><path d="M71.5,174.89c-.4,3.42-1.64,16.25,1.2,26.08.09.31-.2.59-.5.49-2.82-.92-5.75-1.65-5.8.87-.05,2.73,6.31,8.63,10.31,10.95,2.17,1.25,14.4,3.96,18.2,4.1.38.01.56-.46.27-.7-2.68-2.22-9.96-7.72-11.29-8.73-.13-.1-.19-.26-.14-.42.47-1.65,3.84-10.74,22.48-18.31.39-.16.3-.74-.13-.77-5.01-.34-20.79,2.01-23.7,5.53-.2.24-.58.16-.68-.14-1.49-4.61-7.52-16.16-9.51-19.12-.21-.31-.68-.19-.72.17Z" fill="#fff" stroke-width="0"/><path d="M327.67,103.03c-.24,4.11-.78,19.54,3.32,31.09.13.36-.19.72-.56.62-3.44-.9-7-1.56-6.87,1.46.14,3.27,8.16,9.87,13.12,12.35,2.68,1.34,17.5,3.7,22.06,3.59.46-.01.64-.59.27-.86-3.36-2.46-12.46-8.51-14.13-9.62-.16-.11-.25-.3-.2-.49.44-2,3.81-13.11,25.55-23.52.46-.22.3-.9-.21-.91-6.01-.04-24.71,3.91-27.93,8.32-.22.3-.69.24-.82-.12-2.11-5.41-10.15-18.78-12.74-22.17-.27-.35-.83-.18-.85.26Z" fill="#fff" stroke-width="0"/><path d="M249.2,126.26c.04,3.67.5,17.4,4.84,27.4.14.31-.13.65-.46.58-3.11-.59-6.31-.96-6.01,1.71.33,2.9,7.85,8.26,12.4,10.16,2.46,1.03,15.76,2.22,19.8,1.84.4-.04.53-.56.19-.78-3.13-1.98-11.58-6.8-13.13-7.68-.15-.09-.24-.25-.21-.43.27-1.81,2.59-11.88,21.26-22.44.39-.22.21-.82-.24-.79-5.34.33-21.7,4.97-24.3,9.09-.18.28-.59.25-.74-.05-2.2-4.67-10.16-16.06-12.67-18.91-.26-.3-.75-.11-.74.28Z" fill="#fff" stroke-width="0"/><path d="M206.44,88.59c-.17,3.53-.51,16.76,3.11,26.63.11.31-.16.62-.48.54-2.95-.74-6.01-1.28-5.88,1.31.15,2.8,7.08,8.39,11.35,10.48,2.31,1.13,15.03,3.03,18.94,2.89.39-.01.54-.51.23-.74-2.9-2.08-10.76-7.19-12.19-8.13-.14-.09-.21-.26-.18-.42.36-1.72,3.16-11.28,21.72-20.38.39-.19.25-.78-.19-.78-5.15.01-21.15,3.56-23.88,7.36-.19.26-.59.21-.71-.09-1.86-4.62-8.86-16.02-11.11-18.9-.23-.3-.71-.15-.73.23Z" fill="#fff" stroke-width="0"/><path d="M451.66,341.61c-.25,4.09-.87,19.41,3.16,30.9.13.36-.19.71-.56.61-3.41-.91-6.94-1.58-6.83,1.42.13,3.25,8.07,9.84,12.98,12.33,2.66,1.35,17.37,3.75,21.9,3.66.45,0,.64-.58.27-.85-3.33-2.46-12.34-8.51-13.99-9.62-.16-.11-.24-.3-.2-.49.45-1.99,3.85-13.01,25.49-23.25.46-.22.3-.89-.2-.9-5.97-.07-24.57,3.77-27.79,8.13-.22.3-.68.23-.82-.12-2.07-5.38-10-18.7-12.56-22.08-.27-.35-.82-.18-.85.25Z" fill="#fff" stroke-width="0"/><path d="M383.12,376.1c-.1,3.73-.17,17.7,3.86,28.04.13.32-.15.65-.49.58-3.13-.72-6.37-1.21-6.17,1.51.22,2.96,7.66,8.7,12.21,10.81,2.46,1.14,15.93,2.86,20.06,2.64.41-.02.56-.55.22-.79-3.11-2.13-11.51-7.36-13.05-8.31-.15-.09-.23-.27-.2-.44.34-1.82,3.09-11.97,22.47-21.98.41-.21.25-.82-.21-.81-5.44.13-22.25,4.22-25.04,8.3-.19.28-.61.23-.75-.08-2.06-4.84-9.7-16.71-12.14-19.71-.25-.31-.75-.14-.76.26Z" fill="#fff" stroke-width="0"/><path d="M324.47,361.81c-.24,3.37-.84,15.99,2.39,25.48.1.3-.16.58-.47.5-2.8-.77-5.71-1.35-5.64,1.12.08,2.68,6.58,8.16,10.61,10.24,2.18,1.13,14.28,3.21,18.02,3.17.37,0,.53-.48.23-.7-2.72-2.05-10.11-7.1-11.46-8.02-.13-.09-.2-.25-.16-.41.38-1.63,3.26-10.69,21.16-18.98.38-.17.25-.74-.16-.74-4.92-.1-20.26,2.94-22.95,6.52-.19.25-.56.19-.67-.1-1.67-4.45-8.11-15.48-10.2-18.28-.22-.29-.68-.16-.7.2Z" fill="#fff" stroke-width="0"/><path d="M273.04,313.12c-.24,3.43-.84,16.31,2.48,26,.1.3-.17.6-.48.51-2.86-.78-5.83-1.37-5.75,1.15.09,2.73,6.72,8.32,10.84,10.44,2.23,1.15,14.58,3.26,18.39,3.21.38,0,.54-.49.24-.72-2.78-2.08-10.33-7.23-11.71-8.17-.14-.09-.2-.25-.16-.41.39-1.67,3.31-10.92,21.57-19.4.38-.18.26-.75-.16-.76-5.02-.09-20.67,3.03-23.41,6.68-.19.25-.57.19-.69-.1-1.71-4.54-8.3-15.78-10.43-18.64-.22-.3-.69-.16-.72.21Z" fill="#fff" stroke-width="0"/><path d="M228.18,306.47c-.49,4.04-2,19.21,1.32,30.85.1.36-.23.69-.59.58-3.33-1.1-6.8-1.97-6.86,1.01-.06,3.23,7.43,10.23,12.15,12.99,2.56,1.49,17.01,4.74,21.51,4.92.45.02.67-.54.32-.83-3.16-2.63-11.75-9.17-13.32-10.37-.15-.12-.22-.31-.17-.5.56-1.95,4.58-12.68,26.66-21.57.46-.19.35-.87-.15-.91-5.92-.42-24.6,2.3-28.05,6.44-.24.29-.69.19-.8-.17-1.74-5.46-8.82-19.14-11.17-22.65-.24-.36-.8-.23-.86.2Z" fill="#fff" stroke-width="0"/><path d="M596.35,626.65c0,6.4-1.2,12.45-3.35,17.8h-57.13c-2.15-5.35-3.35-11.4-3.35-17.8,0-22.03,14.29-39.89,31.91-39.89s31.91,17.86,31.91,39.89Z" fill="url(#linear-gradient-14)" stroke-width="0"/><path d="M439.8,681.95c0,7.62-.88,14.83-2.45,21.21h-41.75c-1.57-6.38-2.45-13.59-2.45-21.21,0-26.25,10.44-47.53,23.32-47.53s23.32,21.28,23.32,47.53Z" fill="url(#linear-gradient-15)" stroke-width="0"/><path d="M586.53,653.04s-13.5-11.05-13.5-22.09c7.36,3.68,13.5,13.5,13.5,13.5,0,0,1.23-11.05,2.45-14.73,2.45,3.68,3.68,17.18,3.68,17.18,0,0,8.59-6.14,12.27-6.14-1.23,7.36-8.59,12.27-8.59,12.27h-9.82Z" fill="#307759" stroke-width="0"/><path d="M152.99,991.87c0,8.1-1.52,15.77-4.25,22.55h-72.39c-2.72-6.78-4.25-14.45-4.25-22.55,0-27.92,18.11-50.55,40.44-50.55s40.44,22.63,40.44,50.55Z" fill="url(#linear-gradient-16)" stroke-width="0"/><path d="M140.54,1025.31s-17.11-14-17.11-28c9.33,4.67,17.11,17.11,17.11,17.11,0,0,1.56-14,3.11-18.67,3.11,4.67,4.67,21.78,4.67,21.78,0,0,10.89-7.78,15.55-7.78-1.56,9.33-10.89,15.55-10.89,15.55h-12.44Z" fill="#307759" stroke-width="0"/><path d="M412.79,705.61s-13.5-11.05-13.5-22.09c7.36,3.68,13.5,13.5,13.5,13.5,0,0,1.23-11.05,2.45-14.73,2.45,3.68,3.68,17.18,3.68,17.18,0,0,8.59-6.14,12.27-6.14-1.23,7.36-8.59,12.27-8.59,12.27h-9.82Z" fill="url(#linear-gradient-17)" stroke-width="0"/><path d="M1223.22,936.24c0,13.48-1.56,26.23-4.33,37.51h-73.85c-2.78-11.28-4.33-24.04-4.33-37.51,0-46.44,18.47-84.09,41.26-84.09s41.26,37.64,41.26,84.09Z" fill="url(#linear-gradient-18)" stroke-width="0"/><path d="M1175.45,978.1s-23.89-19.54-23.89-39.09c13.03,6.51,23.89,23.89,23.89,23.89,0,0,2.17-19.54,4.34-26.06,4.34,6.51,6.51,30.4,6.51,30.4,0,0,15.2-10.86,21.71-10.86-2.17,13.03-15.2,21.71-15.2,21.71h-17.37Z" fill="url(#linear-gradient-19)" stroke-width="0"/><path d="M1226.09,603.77c-1.06-.61-2.18-1.1-3.32-1.48.02-.7.04-1.4.04-2.11,0-27.72-15.21-50.19-33.97-50.19-15.72,0-28.93,15.77-32.81,37.19-8.57-2.4-16.89-1.7-23.5,2.72-15.59,10.43-15.73,37.57-.32,60.61,15.42,23.04,31.43,35.29,47.02,24.85,1.04-.69,2-1.47,2.9-2.3,12.14,4.12,37.61-6.83,47.24-23.51,10.5-18.18,9.03-38.68-3.27-45.78Z" fill="url(#linear-gradient-20)" stroke-width="0"/><path d="M1200.15,611.38c-1.15-.59-2.57-.35-3.56.48l-11.99,11,1.01-33.83c0-1.82-1.36-3.44-3.17-3.54-1.93-.1-3.53,1.44-3.53,3.35l-1.01,55.74-23.41-28.26c-.97-1.58-3.03-2.08-4.61-1.11-1.58.97-2.08,3.03-1.11,4.61l28.95,37.33c.05.08.12.14.18.22v73.63c0,1.82,1.36,3.44,3.17,3.54,1.93.1,3.53-1.44,3.53-3.35v-99.6l16.28-14.58c1.78-1.48,1.64-4.42-.73-5.64Z" fill="#4d4948" stroke-width="0"/><path d="M813.66,532.54c-.95-.55-1.95-.98-2.97-1.32.02-.63.03-1.25.03-1.88,0-24.8-13.6-44.9-30.38-44.9-14.06,0-25.88,14.11-29.35,33.26-7.66-2.15-15.11-1.52-21.02,2.44-13.95,9.33-14.07,33.6-.28,54.21,13.79,20.61,28.11,31.56,42.06,22.23.93-.62,1.79-1.31,2.59-2.06,10.85,3.68,33.64-6.11,42.25-21.03,9.39-16.26,8.08-34.6-2.93-40.95Z" fill="url(#linear-gradient-21)" stroke-width="0"/><path d="M790.46,539.34c-1.03-.53-2.29-.31-3.19.43l-10.72,9.84.91-30.26c0-1.62-1.22-3.08-2.84-3.16-1.73-.09-3.16,1.29-3.16,3l-.91,49.86-20.94-25.27c-.86-1.41-2.71-1.86-4.12-1-1.41.86-1.86,2.71-1,4.12l25.9,33.39c.05.07.11.13.16.2v65.86c0,1.62,1.22,3.08,2.84,3.16,1.73.09,3.16-1.29,3.16-3v-89.09l14.56-13.04c1.59-1.33,1.46-3.95-.65-5.04Z" fill="#4d4948" stroke-width="0"/><path d="M128.88,467.06c-.86-.5-1.76-.89-2.69-1.2.02-.57.03-1.13.03-1.7,0-22.42-12.3-40.6-27.48-40.6-12.71,0-23.4,12.76-26.54,30.08-6.93-1.94-13.66-1.37-19.01,2.2-12.61,8.44-12.73,30.39-.26,49.03,12.47,18.64,25.42,28.54,38.04,20.1.84-.56,1.62-1.19,2.35-1.86,9.82,3.33,30.42-5.53,38.21-19.02,8.49-14.71,7.31-31.29-2.65-37.03Z" fill="url(#linear-gradient-22)" stroke-width="0"/><path d="M107.9,473.21c-.93-.48-2.08-.28-2.88.39l-9.7,8.9.82-27.37c0-1.47-1.1-2.79-2.57-2.86-1.56-.08-2.86,1.16-2.86,2.71l-.82,45.09-18.93-22.86c-.78-1.28-2.45-1.68-3.73-.9-1.28.78-1.68,2.45-.9,3.73l23.42,30.2c.04.07.1.12.14.18v59.56c0,1.47,1.1,2.79,2.57,2.86,1.56.08,2.86-1.16,2.86-2.71v-80.57l13.17-11.79c1.44-1.2,1.32-3.58-.59-4.56Z" fill="#4d4948" stroke-width="0"/><path d="M371.02,551.96c-1.02-.59-2.09-1.06-3.2-1.42.02-.67.03-1.35.03-2.02,0-26.64-14.62-48.24-32.65-48.24-15.1,0-27.81,15.16-31.53,35.74-8.23-2.3-16.23-1.63-22.58,2.62-14.98,10.03-15.12,36.1-.3,58.24,14.82,22.14,30.2,33.91,45.19,23.88,1-.67,1.92-1.41,2.79-2.21,11.66,3.96,36.14-6.57,45.39-22.59,10.09-17.47,8.68-37.17-3.15-44Z" fill="#3ca281" stroke-width="0"/><path d="M346.09,559.27c-1.11-.57-2.47-.33-3.42.46l-11.52,10.57.97-32.51c0-1.75-1.31-3.31-3.05-3.4-1.86-.1-3.4,1.38-3.4,3.22l-.97,53.57-22.5-27.15c-.93-1.52-2.91-2-4.43-1.07-1.52.93-2,2.91-1.07,4.43l27.82,35.87c.05.08.12.14.17.21v70.76c0,1.75,1.31,3.31,3.05,3.4,1.86.1,3.4-1.38,3.4-3.22v-95.72l15.64-14.01c1.71-1.42,1.57-4.25-.7-5.42Z" fill="#4d4948" stroke-width="0"/><path d="M278.39,708.15c-1.62-.94-3.32-1.68-5.07-2.26.03-1.07.06-2.14.06-3.22,0-42.31-23.21-76.62-51.85-76.62-23.99,0-44.16,24.08-50.08,56.77-13.08-3.66-25.78-2.59-35.86,4.16-23.8,15.93-24.02,57.34-.48,92.51,23.53,35.17,47.97,53.86,71.77,37.93,1.58-1.06,3.05-2.24,4.42-3.51,18.52,6.29,57.4-10.43,72.1-35.89,16.02-27.75,13.79-59.04-5-69.88Z" fill="#3ca281" stroke-width="0"/><path d="M238.8,719.75c-1.76-.91-3.92-.53-5.44.74l-18.3,16.79,1.55-51.64c0-2.77-2.08-5.26-4.84-5.4-2.95-.15-5.39,2.19-5.39,5.11l-1.55,85.08-35.73-43.13c-1.47-2.41-4.63-3.17-7.04-1.7-2.41,1.47-3.17,4.63-1.7,7.04l44.19,56.98c.08.13.19.22.27.34v112.39c0,2.77,2.08,5.26,4.84,5.4,2.95.15,5.39-2.19,5.39-5.11v-152.03l24.85-22.25c2.72-2.26,2.5-6.75-1.11-8.61Z" fill="#4d4948" stroke-width="0"/><path d="M1066.29,733.08c-2.71-1.57-5.55-2.81-8.48-3.77.05-1.78.09-3.57.09-5.38,0-70.73-38.8-128.07-86.67-128.07-40.1,0-73.82,40.25-83.72,94.89-21.86-6.12-43.09-4.33-59.95,6.95-39.78,26.62-40.14,95.85-.81,154.63,39.33,58.78,80.19,90.03,119.97,63.41,2.64-1.77,5.1-3.74,7.4-5.87,30.96,10.51,95.95-17.43,120.52-59.99,26.78-46.39,23.04-98.68-8.35-116.81Z" fill="#3ca281" stroke-width="0"/><path d="M1000.12,752.48c-2.94-1.52-6.55-.89-9.09,1.23l-30.59,28.07,2.59-86.32c0-4.63-3.47-8.79-8.1-9.03-4.93-.26-9.02,3.67-9.02,8.54l-2.59,142.21-59.72-72.09c-2.47-4.03-7.73-5.3-11.76-2.84-4.03,2.47-5.3,7.73-2.84,11.76l73.87,95.24c.13.21.31.37.46.56v187.87c0,4.63,3.47,8.79,8.1,9.03,4.93.26,9.02-3.67,9.02-8.54v-254.13l41.53-37.19c4.55-3.78,4.17-11.28-1.85-14.39Z" fill="#4d4948" stroke-width="0"/><path d="M77.51,927.14h-44.72c.17-13.73,10.11-24.79,22.36-24.79s22.18,11.05,22.36,24.79Z" fill="#729a96" stroke-width="0"/><path d="M134.18,879.39h-30.45c.12-11.07,6.89-19.98,15.22-19.98s15.11,8.91,15.22,19.98Z" fill="#0b322e" stroke-width="0"/><path d="M1228.23,793h-30.45c.12-11.07,6.89-19.98,15.22-19.98s15.11,8.91,15.22,19.98Z" fill="#0b322e" stroke-width="0"/><path d="M1143.93,734.17h-30.45c.12-11.07,6.89-19.98,15.22-19.98s15.11,8.91,15.22,19.98Z" fill="#0b322e" stroke-width="0"/><path d="M77.99,649.34h-30.45c.12-11.07,6.89-19.98,15.22-19.98s15.11,8.91,15.22,19.98Z" fill="#0b322e" stroke-width="0"/><path d="M285.78,945.43c-.17-12.66-9.95-22.85-22.01-22.85-3.99,0-7.73,1.14-10.96,3.1-3.06-3.77-7.13-6.09-11.61-6.09-9.43,0-17.08,10.19-17.22,22.85h18.02c-.13.98-.23,1.98-.25,2.99h44.02Z" fill="#d4490d" stroke-width="0"/><path d="M1067.25,955.97c-.17-12.66-9.95-22.85-22.01-22.85-3.99,0-7.73,1.14-10.96,3.1-3.06-3.77-7.13-6.09-11.61-6.09-9.43,0-17.08,10.19-17.22,22.85h18.02c-.13.98-.23,1.98-.25,2.99h44.02Z" fill="#d4490d" stroke-width="0"/><path d="M518.26,730.38c-.17-12.66-9.95-22.85-22.01-22.85-3.99,0-7.73,1.14-10.96,3.1-3.06-3.77-7.13-6.09-11.61-6.09-9.43,0-17.08,10.19-17.22,22.85h18.02c-.13.98-.23,1.98-.25,2.99h44.02Z" fill="#d4490d" stroke-width="0"/></g></g></svg>