<?xml version="1.0" encoding="UTF-8"?><svg id="Layer_2" xmlns="http://www.w3.org/2000/svg" xmlns:xlink="http://www.w3.org/1999/xlink" viewBox="0 0 376 812"><defs><linearGradient id="linear-gradient" x1="110.42" y1="475.62" x2="376" y2="475.62" gradientUnits="userSpaceOnUse"><stop offset="0" stop-color="#266d4f"/><stop offset="1" stop-color="#2e7d5d"/></linearGradient><linearGradient id="linear-gradient-2" x1=".52" y1="643.14" x2="57.47" y2="643.14" xlink:href="#linear-gradient"/><linearGradient id="linear-gradient-3" x1=".52" y1="405.17" x2="3.91" y2="405.17" xlink:href="#linear-gradient"/><linearGradient id="linear-gradient-4" x1=".52" y1="413.88" x2="7.76" y2="413.88" xlink:href="#linear-gradient"/><linearGradient id="linear-gradient-5" x1="11.97" y1="301.58" x2="136.99" y2="301.58" xlink:href="#linear-gradient"/><linearGradient id="linear-gradient-6" x1=".37" y1="240.67" x2="50.87" y2="240.67" xlink:href="#linear-gradient"/><linearGradient id="linear-gradient-7" x1=".52" y1="325.46" x2="1.06" y2="325.46" xlink:href="#linear-gradient"/><linearGradient id="linear-gradient-8" x1=".52" y1="342.77" x2="9.36" y2="342.77" xlink:href="#linear-gradient"/><linearGradient id="linear-gradient-9" x1="276" y1="299.36" x2="303.03" y2="299.36" xlink:href="#linear-gradient"/><linearGradient id="linear-gradient-10" x1="99.44" y1="361.61" x2="124.64" y2="361.61" xlink:href="#linear-gradient"/><linearGradient id="linear-gradient-11" x1="275.73" y1="703.42" x2="380.63" y2="778.99" gradientUnits="userSpaceOnUse"><stop offset=".39" stop-color="#6db247"/><stop offset=".56" stop-color="#6aac44"/><stop offset=".77" stop-color="#619c3e"/><stop offset="1" stop-color="#548435"/></linearGradient><linearGradient id="linear-gradient-12" x1="225.78" y1="705.45" x2="376" y2="705.45" xlink:href="#linear-gradient-11"/><linearGradient id="linear-gradient-13" x1=".52" y1="730.27" x2="119.42" y2="730.27" xlink:href="#linear-gradient-11"/><linearGradient id="linear-gradient-14" x1=".52" y1="707.88" x2="130.36" y2="707.88" xlink:href="#linear-gradient-11"/><linearGradient id="linear-gradient-15" x1="81.77" y1="744.29" x2="230.44" y2="567.96" gradientUnits="userSpaceOnUse"><stop offset="0" stop-color="#cc8e5a"/><stop offset=".07" stop-color="#d3945c"/><stop offset=".25" stop-color="#e29f61"/><stop offset=".47" stop-color="#eba665"/><stop offset=".81" stop-color="#eea966"/><stop offset=".87" stop-color="#e8a464"/><stop offset=".95" stop-color="#d8985e"/><stop offset="1" stop-color="#cc8e5a"/></linearGradient><linearGradient id="linear-gradient-16" x1="201.7" y1="637.97" x2="344.6" y2="568.54" gradientUnits="userSpaceOnUse"><stop offset=".34" stop-color="#e0b177"/><stop offset=".55" stop-color="#dcab72"/><stop offset=".83" stop-color="#d39b65"/><stop offset="1" stop-color="#cc8e5a"/></linearGradient><linearGradient id="linear-gradient-17" x1="129.9" y1="725.43" x2="86.06" y2="773.31" gradientUnits="userSpaceOnUse"><stop offset=".39" stop-color="#e0b177"/><stop offset=".59" stop-color="#dcab72"/><stop offset=".84" stop-color="#d39b65"/><stop offset="1" stop-color="#cc8e5a"/></linearGradient></defs><g id="Layer_1-2"><g opacity=".07"><path d="M376,0v812H.52V246.94s-.1.07-.15.11c.05-.04.1-.08.15-.12V0h375.48Z" fill="#fdfffe" stroke-width="0"/><path d="M376,57.92v694.87c-14.77,8.79-30.14,16.67-46.04,23.54-49.09,21.25-103.23,33.02-160.11,33.02-60.47,0-117.83-13.3-169.32-37.14V246.94s-.1.07-.15.11c.05-.04.1-.08.15-.12V38.5c.11-.06.22-.11.33-.15,2.57-1.2,5.16-2.36,7.76-3.49C57.99,13.31,112.52,1.36,169.85,1.36c75.31,0,145.81,20.63,206.15,56.56Z" fill="#ccecf7" stroke-width="0"/><rect x="109.29" y="83.65" width="51.92" height="353" transform="translate(270.49 520.31) rotate(-180)" fill="#8fccf8" stroke-width="0"/><path d="M7.05,134.54v140.7s0,.01,0,.01v152.49l-6.53,1.79v-182.59c-.05.03-.1.07-.15.11.05-.04.1-.08.15-.12v-110.6l6.53-1.79Z" fill="#8fccf8" stroke-width="0"/><rect x="222.56" y="59.96" width="35.41" height="410.89" transform="translate(480.53 530.8) rotate(-180)" fill="#8fccf8" stroke-width="0"/><polygon points="274.54 444.92 371.92 463.64 371.92 95.04 274.54 91.93 274.54 444.92" fill="#8fccf8" stroke-width="0"/><path d="M376,92.1v10.74c-1.28,1.31-2.65,2.56-4.08,3.71-3.08,2.52-6.44,4.69-10.04,6.45l-8.13,3.98c-1.81.88-3.38-1.07-2.13-2.63l6.49-8.06c3.57-4.43,7.87-8.25,12.66-11.29,1.69-1.07,3.43-2.04,5.23-2.9Z" fill="#e77d44" stroke-width="0"/><polygon points=".52 131.15 .52 101.55 .52 87.75 .62 85.94 1.5 70.37 2.46 53.22 2.62 50.4 7.27 50.4 7.44 53.34 8.4 70.47 9.25 85.69 10.15 101.55 10.53 108.38 11.58 127.14 11.81 131.15 .52 131.15" fill="#fdfffe" stroke-width="0"/><path d="M8.62,34.86c-.22,1.73-.53,3.46-.93,5.16l-.9,3.86-.33,1.4c-.43,1.83-2.73,1.96-3.32.17l-.43-1.31-1.22-3.69c-.23-.69-.44-1.39-.64-2.1-.12-.41-.23-.84-.33-1.26V10.94l1.04-5.41c.38-1.97,2.89-2.06,3.38-.12l2.53,10.03c1.6,6.33,1.99,12.95,1.15,19.42Z" fill="#e77d44" stroke-width="0"/><path d="M43.14,72.16l-6.19-6.6c-6.04-6.44-13.67-11.27-22.02-13.94l-5.02-1.61c-1.79-.57-3.04,1.37-1.8,2.79l3.54,4.08c5.42,6.26,12.33,11.18,20.01,14.25l9.6,3.83c1.86.74,3.26-1.34,1.89-2.81Z" fill="#e77d44" stroke-width="0"/><path d="M10.23,48.75c0,.45-.06.89-.17,1.3-.29,1.15-.97,2.14-1.89,2.82-.23.18-.47.34-.73.47-.71.37-1.52.58-2.38.58-.95,0-1.84-.25-2.6-.7-.25-.14-.48-.3-.69-.48-.5-.41-.92-.82-1.25-1.23v-5.76c.59-.67,1.36-1.22,2.19-1.61.7-.36,1.5-.56,2.35-.56.61,0,1.19.11,1.73.3,2,.71,3.44,2.62,3.44,4.87Z" fill="#343645" stroke-width="0"/><path d="M376,155.24v74.7l-.09,22.72-.12,30.63-.36,88.57-3.51,12.17-21.76,75.43-16.34,56.63h0s-.05.16-.05.16l-1.43,4.98-5.39,18.69-1.78,6.15v-236.71s-.01-.01,0-.02v-154.1h50.83Z" fill="#4f8cb8" stroke-width="0"/><rect x="149.79" y="9.89" width="39.21" height="454.93" fill="#4f8cb8" stroke-width="0"/><path d="M89.58,83.37v390.83L.52,489.66v-242.72c-.05.03-.1.07-.15.11.05-.04.1-.08.15-.12V85.95h.1s8.63-.26,8.63-.26l38.56-1.11,34.37-1,7.41-.21Z" fill="#4f8cb8" stroke-width="0"/><rect x="334.97" y="170.87" width="9.8" height="18.76" fill="#fffeff" stroke-width="0"/><rect x="350.37" y="170.87" width="9.8" height="18.76" fill="#fffeff" stroke-width="0"/><rect x="365.77" y="170.87" width="9.8" height="18.76" fill="#fffeff" stroke-width="0"/><rect x="334.97" y="202.14" width="9.8" height="18.76" fill="#fffeff" stroke-width="0"/><rect x="350.37" y="202.14" width="9.8" height="18.76" fill="#fffeff" stroke-width="0"/><rect x="365.77" y="202.14" width="9.8" height="18.76" fill="#fffeff" stroke-width="0"/><rect x="334.97" y="233.41" width="9.8" height="18.76" fill="#fffeff" stroke-width="0"/><rect x="350.37" y="233.41" width="9.8" height="18.76" fill="#fffeff" stroke-width="0"/><rect x="365.77" y="233.41" width="9.8" height="18.76" fill="#fffeff" stroke-width="0"/><rect x="6.97" y="108.38" width="9.8" height="18.76" fill="#fffeff" stroke-width="0"/><rect x="22.37" y="108.38" width="9.8" height="18.76" fill="#fffeff" stroke-width="0"/><rect x="37.77" y="108.38" width="9.8" height="18.76" fill="#fffeff" stroke-width="0"/><rect x="53.17" y="108.38" width="9.8" height="18.76" fill="#fffeff" stroke-width="0"/><rect x="6.97" y="139.65" width="9.8" height="18.76" fill="#fffeff" stroke-width="0"/><rect x="22.37" y="139.65" width="9.8" height="18.76" fill="#fffeff" stroke-width="0"/><rect x="37.77" y="139.65" width="9.8" height="18.76" fill="#fffeff" stroke-width="0"/><rect x="53.17" y="139.65" width="9.8" height="18.76" fill="#fffeff" stroke-width="0"/><rect x="6.97" y="170.92" width="9.8" height="18.76" fill="#fffeff" stroke-width="0"/><rect x="22.37" y="170.92" width="9.8" height="18.76" fill="#fffeff" stroke-width="0"/><rect x="37.77" y="170.92" width="9.8" height="18.76" fill="#fffeff" stroke-width="0"/><rect x="53.17" y="170.92" width="9.8" height="18.76" fill="#fffeff" stroke-width="0"/><rect x="6.97" y="202.19" width="9.8" height="18.76" fill="#fffeff" stroke-width="0"/><rect x="22.37" y="202.19" width="9.8" height="18.76" fill="#fffeff" stroke-width="0"/><rect x="37.77" y="202.19" width="9.8" height="18.76" fill="#fffeff" stroke-width="0"/><rect x="53.17" y="202.19" width="9.8" height="18.76" fill="#fffeff" stroke-width="0"/><rect x="6.97" y="233.45" width="9.8" height="18.76" fill="#fffeff" stroke-width="0"/><rect x="22.37" y="233.45" width="9.8" height="18.76" fill="#fffeff" stroke-width="0"/><rect x="156.79" y="30.22" width="9.8" height="18.76" fill="#fffeff" stroke-width="0"/><rect x="172.19" y="30.22" width="9.8" height="18.76" fill="#fffeff" stroke-width="0"/><rect x="156.79" y="61.48" width="9.8" height="18.76" fill="#fffeff" stroke-width="0"/><rect x="172.19" y="61.48" width="9.8" height="18.76" fill="#fffeff" stroke-width="0"/><rect x="156.79" y="92.75" width="9.8" height="18.76" fill="#fffeff" stroke-width="0"/><rect x="172.19" y="92.75" width="9.8" height="18.76" fill="#fffeff" stroke-width="0"/><rect x="156.79" y="124.02" width="9.8" height="18.76" fill="#fffeff" stroke-width="0"/><rect x="172.19" y="124.02" width="9.8" height="18.76" fill="#fffeff" stroke-width="0"/><rect x="156.79" y="155.29" width="9.8" height="18.76" fill="#fffeff" stroke-width="0"/><rect x="172.19" y="155.29" width="9.8" height="18.76" fill="#fffeff" stroke-width="0"/><polygon points="216.4 221.93 200.95 221.93 206.06 130.92 211.29 130.92 216.4 221.93" fill="#fdfffe" stroke-width="0"/><path d="M204.86,80.36l-1.93,10.02c-1.88,9.77-1.24,19.94,1.85,29.32l1.86,5.64c.66,2.01,3.26,1.87,3.74-.2l1.38-5.93c2.12-9.09,2.04-18.65-.24-27.69l-2.85-11.3c-.55-2.19-3.38-2.09-3.81.13Z" fill="#e77d44" stroke-width="0"/><path d="M251.72,155.44l-6.98-7.44c-6.81-7.26-15.41-12.7-24.81-15.71l-5.66-1.81c-2.01-.64-3.42,1.54-2.03,3.15l3.99,4.6c6.11,7.06,13.89,12.59,22.55,16.05l10.82,4.32c2.1.84,3.68-1.51,2.13-3.16Z" fill="#e77d44" stroke-width="0"/><path d="M170.48,161.67l9.16-4.48c8.94-4.37,16.67-11,22.31-19.11l3.39-4.88c1.21-1.73-.47-3.73-2.41-2.87l-5.57,2.46c-8.54,3.77-16.12,9.58-21.97,16.84l-7.31,9.08c-1.42,1.76.36,3.96,2.39,2.96Z" fill="#e77d44" stroke-width="0"/><circle cx="208.8" cy="129.06" r="5.83" fill="#343645" stroke-width="0"/><path d="M374.8,534.56c-.07,12.61-.09,24.8-.04,36.35.09,22.67.45,42.9,1.24,59.05v16c-.25,7.98-.18,15.12,0,21.57v36.7c-2.75,18.38-14.49,29.79-56.53,48.9h0c-2.19,1.03-4.39,2.12-6.62,3.1h0c-1.11.49-2.22,1.01-3.35,1.49h0c-1.12.48-2.24.97-3.36,1.44h0c-5.08,2.13-10.2,4.17-15.4,6.02h0c-4.04,1.46-8.11,2.83-12.21,4.11-6.41,1.99-12.88,3.76-19.41,5.32-8.22,1.96-16.52,3.57-24.87,4.82-18.39,2.78-37.04,3.86-55.63,3.23-3.64-.13-7.27-.32-10.9-.57-10.05-.7-20.07-1.91-30.01-3.62h0s-.01-.01-.01-.01c-.37-.06-.73-.13-1.1-.19-10.36-1.8-20.62-4.18-30.74-7.08-2.85-.82-5.68-1.68-8.5-2.58-.02,0-.04-.01-.07-.02-.72-.23-1.45-.46-2.17-.7h0c-3.46-1.15-6.91-2.35-10.33-3.61-2.97-1.1-5.93-2.24-8.87-3.44-22.25-9.03-43.41-20.75-62.86-34.82-.01,0-.01-.01-.02-.01-.38-.28-.77-.55-1.14-.84t-.02-.01h-.01c-7.09-4.43-8.26-6.36-9.45-17.23v-.03c-.31-5.85-.57-11.97-.81-18.33-.1-2.49-.18-5.02-.26-7.59-.18-5.26-.33-10.67-.47-16.22-.12-5.22-.23-10.57-.33-16.03,0-.33,0-.67-.02-1-.86-49.97-.51-108.86,0-167.65.15-17.31.32-34.61.47-51.68.03-3.18.06-6.35.08-9.51.03-3.59.06-7.17.09-10.73.01-.88.02-1.76.02-2.64l.03-3c.14-18.01.25-35.61.3-52.52.02-5.57.03-11.07.03-16.48,0-25.88-.18-49.8-.66-70.64-.11-4.32-.23-8.51-.36-12.56-.04-1.43-.09-2.85-.14-4.24.05-.04.09-.07.14-.1,0,0,.01,0,.01,0h0c.42-.34.84-.69,1.27-1.01h0s.04-.05.06-.05c1.39-1.12,2.78-2.22,4.21-3.29h0c.31-.23.61-.46.9-.69h0s.05-.04.07-.05c3.18-2.44,6.44-4.8,9.72-7.11.24-.18.49-.35.73-.52.01,0,.01,0,.02,0,.07-.05.15-.1.23-.16h.01c.5-.33.98-.7,1.49-1.02h0c1-.69,1.99-1.38,3-2.03h0c5.28-3.53,10.66-6.88,16.14-10.06h.01s.02-.01.03-.02c2.2-1.27,4.42-2.53,6.66-3.74.15-.08.31-.17.46-.25h0c.67-.37,1.35-.74,2.02-1.09,1.86-.99,3.72-1.97,5.6-2.91,1.78-.91,3.56-1.79,5.36-2.65h0c1.47-.72,2.95-1.43,4.44-2.11,8.69-4.04,17.57-7.63,26.61-10.78,6.49-2.28,13.07-4.32,19.7-6.13,13.29-3.63,26.83-6.34,40.5-8.12,3.8-.5,7.61-.93,11.42-1.28,9.24-.85,18.51-1.28,27.79-1.29,4.75-.01,9.5.1,14.25.33,3.63.16,7.27.4,10.89.7,2.81.23,5.62.5,8.42.82,7.29.8,14.55,1.88,21.76,3.23h.01c4.57.85,9.12,1.81,13.64,2.87.69.16,1.37.32,2.05.49,4.88,1.18,9.72,2.48,14.53,3.91,17.44,5.17,34.41,11.94,50.62,20.19,3.3,1.67,6.57,3.41,9.8,5.2,0,.01.01.01.01.01h0c1.51.83,3.02,1.69,4.49,2.55.02.01.03.02.05.03h0c6.73,3.91,13.32,8.05,19.72,12.48,0,.01.02.01.03.02h.02c.3.27.59.55.87.83,2.2,2.16,4.05,4.58,5.6,7.19,1.41,2.36,2.58,4.87,3.57,7.49.4,1.06.77,2.14,1.12,3.23.55,1.76,1.03,3.55,1.46,5.37,1.99,8.44,2.82,17.44,3.87,25.75.06.57.13,1.14.21,1.7v144.05c-.43,31.8-.9,64.53-1.13,95.2-.01,1.68-.03,3.36-.04,5.03-.01,1.77-.02,3.53-.03,5.29Z" fill="#108a9e" stroke-width="0"/><path d="M100.37,359.04c1.59.5,2.19-.18,2.62-1-.78-.07-1.55-.14-2.34-.21-.09.4-.19.8-.28,1.21Z" fill="none" stroke-width="0"/><path d="M323.46,512.17c-.25-.59-.53-1.13-.84-1.58-.23.18-.48.38-.73.6-1.07-.2-2.18-.4-3.29-.63-.32-.07-.64-.14-.96-.22-.34.24-.69.52-1.08.85-1.07-.2-2.18-.4-3.29-.63-.74-.15-1.46-.35-2.31-.56-.25-1.76-1.37-2.64-3-3.28-2.61-1.03-4.38-3.05-5.77-5.48-.12-.22-.27-.41-.42-.58-.76.65-1.15,1.59-.93,2.77.23,1.19.99,2.42,1.84,3.33,2.44,2.6,5.05,5.04,7.84,7.77-.02,0,.38-.16,1-.43.59,2.05,1.17,4.07,1.8,6.28.25-.09.49-.17.71-.24.69-.31,1.37-.72,2.05-.91,2.11-.59,3.62-1.96,4.14-4.2.32.15.57.19.6.29.38,1.41.96,2.55,1.72,3.48,1.51-.72,2.59-1.95,3.01-3.76.03.02.06.03.1.04-.87-.61-1.61-1.52-2.2-2.91Z" fill="none" stroke-width="0"/><path d="M257.51,506.9c.01-.36.09-.76.13-1.2-.33-.48-.74-.91-1.16-1.33-.09.56-.18,1.12-.27,1.68.38.32.83.6,1.3.85Z" fill="none" stroke-width="0"/><path d="M345.02,334.44c.01.06.03.12.04.18.04-.02.08-.04.12-.07-.06-.04-.11-.07-.17-.11Z" fill="none" stroke-width="0"/><path d="M283.32,549.49c.06-4.35-2.51-7.77-4.1-11.51-.52-1.21-1.65-2.22-2.66-3.15-1.32-1.21-2.96-2.1-4.14-3.4-.82-.91-1.25-2.25-1.61-3.48-.25-.88,0-1.89-.13-2.82-.31-2.34-1.05-4.32-3.57-5.3-.94-.36-1.72-1.4-2.33-2.29-1.44-2.09-2.68-4.32-4.12-6.42-.61-.88-1.33-1.69-2.13-2.61.55,2.78,2.4,5.01,3.57,7.53.51,1.11,1.17,2.16,1.86,3.18,1.13,1.68,2.03,3.39,1.41,5.5.44.29.72.57,1.06.68,2.77.85,3.65,3,3.88,5.59.13,1.5.23,3.01.35,4.51.1,1.29.42,2.15,1.98,2.56,1.73.45,3.09,1.79,3.78,3.56.62,1.58,1.16,3.19,1.7,4.8.53,1.57,1.07,3.07,3.17,3.02.34,0,.81.14,1.02.39.5.59,1.05,1.15,1.61,1.69-.02-.04-.03-.09-.05-.13-.22-.62-.57-1.26-.56-1.89Z" fill="none" stroke-width="0"/><path d="M330.73,325.91c.54,1.08,1.17,2.13,1.9,3.15,1.01-.98,1.79-2.43,3.55-2.56-.1-.2-.21-.37-.33-.54-.38.11-.76.21-1.12.33-.53-.42-.91-.87-1.16-1.36-.32.05-.65.15-1.02.33-.59.28-1.21.47-1.83.65Z" fill="none" stroke-width="0"/><path d="M252.72,358.39c-.93-1.96-.81-2.16,1-3.61.65-.51,1.12-1.26,1.64-1.92.2-.26.38-.48.54-.68-.81.59-1.82.9-3,.87-.09,0-.2-.03-.28,0-1.69.54-3.29.39-4.85,0-.07,0-.13.01-.19,0-.09,0-.2-.03-.28,0-3.18,1.01-6.03-.4-8.92-1.3-.34-.1-.67-.24-1.01-.38.37,1.43,1.38,2.08,3.29,2.34.96.13,1.89.52,3.09.87-.5.89-.81,1.43-1.11,1.97.05.17.05.38.15.51.44.56.74,1.17.99,1.8,1.76-.19,3.19.63,4.63,1.51-.11-.34-.1-.79.07-1.4,2-.48,3.56.37,5.13,1.32.06-.06.11-.12.17-.19-.39-.63-.78-1.14-1.05-1.71Z" fill="none" stroke-width="0"/><path d="M253.61,460.44c.3,0,.62.06.93.12,1.46-.12,2.92-.17,4.4-.12,1.14.04,2.39.53,3.37,1.16,1.07.69,2.16,1.15,3.31,1.39,2.47-.13,4.95-.22,7.42-.36.7-.04,1.39-.29,2.08-.44.13-.24.27-.48.4-.72-.36-.12-.71-.28-1.08-.37-1.7-.38-2.46-1.42-2.7-3.16-.11-.82-.74-1.73-1.4-2.28-1.89-1.57-3.91-2.97-5.89-4.43-.37-.27-.79-.55-1.23-.67-1.86-.51-3.74-.93-5.6-1.45-.38.27-.74.64-1.05,1.13-1.33-.07-1.8-.92-2.17-1.78-1.22,0-2.31.47-3.15,1.78-1.71-.09-2.01-1.47-2.48-2.5-.55-1.21-1.28-1.84-2.58-2.31-1.07-.39-2.12-.85-3.19-1.34-.44,1.32-.87,2.62-1.32,3.92-.73,2.13-1.39,4.3-2.28,6.37-1.56,3.64-1.35,4.8,1.67,7.24.04.03.07.07.11.12,4.1-.81,8.22-1.44,12.42-1.31Z" fill="none" stroke-width="0"/><path d="M332.98,311.56c-.57-.1-1.14-.18-1.71-.25.88,1.29,2.37,1.94,4.37,2.12-.59-1.23-1.56-1.67-2.66-1.86Z" fill="none" stroke-width="0"/><path d="M331.43,343.66c.28-.65.54-1.32.77-2-.2.09-.4.16-.59.21-1.6.41-3.28.52-5.19.78.33.48.43.82.59.84,1.32.24,2.64.49,3.97.72.2-.18.36-.38.44-.56Z" fill="none" stroke-width="0"/><path d="M336.38,326.58c.72.73,1.25,1.54,1.67,2.39.44-.45.85-.97,1.32-1.43-.38-.29-.86-.54-1.49-.77-.46-.17-.99-.15-1.5-.19Z" fill="none" stroke-width="0"/><path d="M245.31,361.79c-.13-.06-.26-.11-.4-.16.69,1.25,1.67,2.4,2.74,3.28.49-.39,1.02-.88,1.66-1.33-1.69-.76-2.84-1.28-3.99-1.79Z" fill="none" stroke-width="0"/><path d="M181.74,412.61c-.15-2.18-1.55-3.94-2.54-5.96.05.3.1.63.15,1.01.25,1.9.58,3.77,2.39,4.95Z" fill="none" stroke-width="0"/><path d="M205.72,458.43c-3.85-2.34-7.51-5.01-11.23-7.57-.41-.28-.81-.58-1.26-.92-.03.07-.06.14-.09.22,1.39,1.62,2.89,3.38,4.4,5.12.43.5,1.04.87,1.35,1.43,1.16,2.07,2.91,3.14,5.41,3.4-.01,1.51.8,2.33,2.25,2.69.74.18,1.46.45,2.16.76-.23-.77-.41-1.57-.6-2.35-.35-1.43-1.18-2.03-2.4-2.77Z" fill="none" stroke-width="0"/><path d="M111.31,243.02c-.85.26-1.9.23-2.69.66.08.27.18.52.31.73.93-.26,1.77-.65,2.38-1.39Z" fill="none" stroke-width="0"/><path d="M185.52,408.32c-.3-.05-.55-.09-.77-.13.17,1.19.43,2.34,1.12,3.29,1.39-.17,2.66,0,3.67.92.49-.31,1.01-.65,1.53-.98l-.09.08c1.49-.22,2.85-.08,3.92.92,1.25-.77,2.5-1.53,3.81-2.17,1.06-.52,2.34-.66,3.54-.78.3-.03.78.64.99,1.07.02.03.04.06.05.09.25-.13.49-.27.74-.39,1.06-.52,2.34-.66,3.54-.78.3-.03.78.64.99,1.07,0,.01.02.02.02.04.36.02.72.04,1.09.02,1-.05,2-.09,3-.13.21-1.95-1.04-2.55-2.1-3.31-1.03-.74-2.96-.99-2.75-2.5.22-1.57,1.05-3.26,2.11-4.46,1.07-1.21,2.74-1.89,4.26-2.87.5.77.98,1.51,1.55,2.39.24-.21.5-.41.78-.59.12-2.75.23-5.22-.97-7.63-.38-.77-.17-2.04.18-2.91.65-1.63,1.23-1.69,2.75-.71.23.15.48.55.64.51.68-.17,1.37-.16,2.06-.07.61-1.35,1.21-1.37,2.63-.44.23.15.48.55.64.51.83-.21,1.67-.14,2.52,0,.2-.1.41-.21.61-.35.22-1.44.02-2.86-.79-4.23-2.94.25-5.77.65-8.2,2.11-.74-.46-1.44-.89-2.14-1.32-1.12.31-2.19.72-3.19,1.32-1.9-1.18-3.58-2.22-5.44-3.37.06-2.81.15-5.8-1.07-8.7-.34-.8.26-1.99.47-3.25,1.21.33,1.93-.22,2.07-1.43.15-1.31.82-2.26,1.87-3.02,1.15-.82,2.16-1.67,2.61-3.19.23-.76,1.3-1.28,2-1.91-.32-1.3-.86-2.26-1.61-2.86-.88.33-1.78.68-2.76,1.06-.08,1.26-.22,2.47-.21,3.67.02,2.54-.99,4.32-3.13,5.84-2.22,1.58-4.06,3.71-5.77,5.32,0,2.29-.19,4.16.07,5.97.17,1.22.81,2.46,1.54,3.48.58.81,1.64,1.25,2.42,1.93,1.52,1.31,1.47,3.29-.11,4.55-1.24.99-2.53,1.92-3.27,2.47-.45,1.98-.79,3.38-1.09,4.79-.36,1.71-.35,1.72,1.26,2.66-.33.91-.6,1.9-1.05,2.79-.45.91-.62,2.41-2.33,1.59-.11-.05-.38.07-.48.19-2.32,2.74-5.39,2.25-8.44,1.96-.07.02-.14.03-.22.05.08.63.16,1.2.24,1.8-1.74-.28-2.03-.35-2.13-1.62-1.13,0-2.29-.15-3.45-.25.09.67.17,1.25.25,1.87Z" fill="none" stroke-width="0"/><path d="M263.54,343.6c-.78,1.53-.52,3.28.54,3.79.54.26,1.25.37,1.95.35-.49-.21-.97-.41-1.54-.65.98-1.92.8-3.5.14-4.94-.13.24-.31.5-.61.76-.21.18-.34.45-.47.7Z" fill="none" stroke-width="0"/><path d="M349.35,292.27c6.82,1.43-.61-7.75-2.9-9.79,3.22-5.2,4.06-10.72,10.4-12.9-9.36-3.19-11.22,5.59-15.72,12.9,3.24,4.16,5.67,6.14,8.23,9.79Z" fill="#58cc02" stroke-width="0"/><path d="M330.35,308.24c.44,4.62,6.58,5.25,10.64,5.22-1.73-4.17-8.75.29-8.14-5.33,6.7-3.2-6.57-9.42-2.5.11Z" fill="#58cc02" stroke-width="0"/><path d="M346.83,306.53c15.72,4.67-22.85-10.34-2.92-14.58-2.1-4.89-8.29,2.84-12.06,3.19,1.32,2.79,4.27,4.1,4.39,7.29,3.47-1.37,9.01,6.39,10.58,4.1Z" fill="#58cc02" stroke-width="0"/><path d="M362.71,270c.74-3.48,2.48-3.09,5.92-3.36-4-3.82,1.14-2.06,1.87-5.54-5.65-3.13,1.51-11.96-6.4-12.31-2.11,3.54-2.57,9.84,1.07,12.31-.73,3.47-5.87,1.73-1.87,5.54-2.76.47-5-.47-5.53,2.41,2.08-1.71,2.82-.84,4.93.95Z" fill="#58cc02" stroke-width="0"/><path d="M324.12,312.11c2.4,4.47,5.05,8.82,6.6,13.8,3.21-.08,3.77-4.32,1.58-6.4-5-5.64-8.06-10.79-8.54-19.12-4.27,3.56.56,6.68.36,11.72Z" fill="#58cc02" stroke-width="0"/><path d="M219.81,474.82c-3.77-12.29-11.76-19.35-22.68-25.98.23-4.25-3.02-1.92-3.89,1.09,6.51,5.2,17.36,9.56,17.84,17.73,1.86,2.29,3.57,6.21,3.45,9.19,5,3.94,7.72,5.65,5.29-2.03Z" fill="#58cc02" stroke-width="0"/><path d="M184.06,450.66c-4.56,1.91,4.29,9.14,5.62,13.41,7.56-2.49-1.03-11.37-5.62-13.41Z" fill="#58cc02" stroke-width="0"/><path d="M195.73,475.34c-.15-.05-.26-.26-.55-.57,10.74-.11,7.62-16.27-.43-10.97,4.94,5.11,1.29,10.04-4.89,10.97,2.18,1.6,7.92,3.06,9.33,1.6-1.16-.31-2.32-.66-3.46-1.03Z" fill="#58cc02" stroke-width="0"/><path d="M168.78,455.61c1.16.17,2.27-.09,3.35-.69-1.26-.98-2.81-.74-3.35.69Z" fill="#58cc02" stroke-width="0"/><path d="M154.85,474.09c.74.05,1.5-.13,2.25-.75-.81-.04-1.53.23-2.25.75Z" fill="#58cc02" stroke-width="0"/><path d="M369.58,523.5c-1.82-2.98-5.2-1.75-7.63-2.88-1.2-5.38-6.79-4.98-11.22-4.82,2.99.2,5.05,1.83,5.9,4.82,2.43,1.13,5.81-.1,7.63,2.88-4.69,6.24,2.61,2.7,3.31,7.31,1.08-.86,1.99-1.58,3.16-2.5-4.25.02-2.45-2.25-1.15-4.8Z" fill="#58cc02" stroke-width="0"/><path d="M376,528.35v1.26c-.28,1.32-.72,3.28-1.2,4.95-.64,2.21-1.34,3.91-1.83,2.84-1.09-2.18-2.26-13.08-.08-6.6.68-.54,1.29-1.02,1.94-1.53.23-.18.46-.36.71-.55h0c.15-.13.3-.25.46-.37Z" fill="#58cc02" stroke-width="0"/><path d="M215.78,361.07c-2.29,1.28-2.39,3.92-4.62,5.09-2.3.86-1.06,5.15-3.94,4.45-.97,6.42.81,18.02,9.22,13.99-4.78-2.02-4.02-9.14-3.9-13.99,2.88.7,1.64-3.59,3.94-4.45,5.31-3.1,5.43-11.23-2.32-7.96.74.6,1.29,1.56,1.61,2.86Z" fill="#58cc02" stroke-width="0"/><path d="M142.11,455.14c4.63-1.84,18.55-.97,14.2-9.06-4.16-6.21-8.02-2.33-9.15-10.06,7.54-4.83,17.76-5.07,22.49-13.91,3.21-12.65,16.57-.75,9.17-16.32.07-.02.12-.04.19-.06-10.01-3.16-1.62,3.96-2.71,8.48-18.41,2.65-3.16,10.98-34.47,21.8,1.6,9.03,24.73,13.51-3.51,18.78,1.28.57,2.48.64,3.79.34Z" fill="#58cc02" stroke-width="0"/><path d="M295.98,563.74c4.19-.86,8.36-1.79,12.56-2.64-4.42-1.83-10.51,1.85-15.49,2.13.75,1.04,1.6.92,2.93.5Z" fill="#58cc02" stroke-width="0"/><path d="M327.94,308.79c-.45-2.18-.49,1.96,0,1.81.02-.6.02-1.21,0-1.81Z" fill="#58cc02" stroke-width="0"/><path d="M135.35,476.71c-1.78-4.23-5.95-18.14-1.95-21.77-12.38-3.95-4.71,12.41-4.79,18.09-.27,6.22,8.53,6.82,13.16,6.46-2.48-.02-4.44-1.41-6.42-2.78Z" fill="#58cc02" stroke-width="0"/><path d="M184.75,408.18c14.62-6.9.08-4.15.78-16.6-12.55,9.49,3.98,5.48-.78,16.6Z" fill="#58cc02" stroke-width="0"/><path d="M302.2,501.24c3.6,4.3,9.91,11.48,15.44,9.1-3.19-.75-13.7-15.62-15.44-9.1Z" fill="#58cc02" stroke-width="0"/><path d="M145.24,580.28c1.72.28,3.44.07,5.17-.02-1.7-.23-3.59-.74-5.17.02Z" fill="#58cc02" stroke-width="0"/><path d="M124.05,573.62c-4.88-9.65-10.31-3.77-11.29-13.03-4.11-16.81-3.24-33.11,6.22-48.1,4.42-6.25,13.13-3.29,12.99-14.05-.34-3.87,4.8-3.49,5.08-7.12,1.39-4.26,1.78-5.25,5.03-6.52-8.73-4-8.44,6.77-13.24,10.06-4.82,3.08.3,11.09-9.58,13.64-16.26,9.71-15.57,35.46-11.84,52.07-.6,7.31,8.63,5.61,10.07,11.63,4.5,3.98,18.97,12.4,21.69,8.54-5.33-1.8-10.49-3.92-15.15-7.13Z" fill="#58cc02" stroke-width="0"/><path d="M172.88,577.76c-8.45-5.43-3.72,7.58,4.57,4.09-1.86-.62-3.33-2.09-4.57-4.09Z" fill="#58cc02" stroke-width="0"/><path d="M297.51,554.32s.05-.02.08-.03c-.04-.02-.06-.02-.08.03Z" fill="#58cc02" stroke-width="0"/><path d="M288.65,549.49c-1.12-13.38-9.17-13.48-12.51-21.54.11-7.48-1.93-5.87-6.03-10.41-3.16-5.16-6.46-8.52-8.14-14.21-.65,2.8.08,6.68-3.58,4.1,4.49,8.88,12.42,14.18,14.02,24,5.94,4.21,10.33,10.59,10.91,18.06,2.84,6.92,10.41,11.26,5.33,0Z" fill="#58cc02" stroke-width="0"/><path d="M212.78,701.33c-3.35-.47-1.84-3.89-2.57-6.49-2.24.51-5.03-1.47-4.18-3.69,6.72-18.23-17.09-32.69-10.3-50.24,10.63-13.77-1.34-27.78-6.75-41.08.49-7.27.32-20.1-10.83-17.79,10.02,6.74,2.16,21.62,11.32,29.93,5.8,5.26,4.27,14.78,5.05,21.5-2.24,4.98-7.17,9.68-5.28,15.52,1.94,14.74,16.56,26.39,11.46,42.15-1.12,4.34,5.83,2.59,4.52,6.98,1.88,7.16,15.27,2.88,21.32,4.15-4.57-.32-9.27.02-13.76-.95Z" fill="#58cc02" stroke-width="0"/><path d="M156.74,482.17c.55-.59,1.09-1.07,1.7-1.38-11.57-3.03-10.86,13.37-1.7,1.38Z" fill="#58cc02" stroke-width="0"/><path d="M328.79,512.17c-8.34-9.59-7.4,7.44,5.41,3.99-2.35-.26-4.21-1.13-5.41-3.99Z" fill="#58cc02" stroke-width="0"/><path d="M320.24,515.03c-.6,3.3-3.61,3.9-6.19,5.11,4.15.02,11.24.36,6.19-5.11Z" fill="#58cc02" stroke-width="0"/><path d="M241.85,479.93c-9.59-2.47-2.66-8.24-7.46-11.43-.17-4.51,15.85-7.6,20.15-7.93-4.48-.49-8.96.38-13.35,1.18.09.12.18.3.38.6-1,.09-1.86.16-2.93.26-1.2,4.65-10.09.03-9.58,5.9,4.57,1.01-1.47,9.73,5.6,10.34,2.97,1.56,4.98,4.6,8.68,2.38-.51-.32-1-.75-1.49-1.28Z" fill="#58cc02" stroke-width="0"/><path d="M260.01,492.78c4.96-4.5,6.81-19.44-2.85-14.47,5.43,6.1-2.72,18.22-9.86,18.89,4.78.49,10.02-.1,12.71-4.42Z" fill="#58cc02" stroke-width="0"/><path d="M217.84,495.85c.91-4.61,1.05-4.75-4.08-4.23-1.99,1.98-.37,5.5-1.85,7.29,2.78,1.11,7.04,1.07,5.94-3.06Z" fill="#58cc02" stroke-width="0"/><path d="M248.76,447.75c.93,4.14,3.27,1.01,5.63.72-3.75-6.14-17.99-8.52-5.63-.72Z" fill="#58cc02" stroke-width="0"/><path d="M171.75,479.36c20.95-3.88-1.77-1.31-10.82,1.15,3.68.91,7.23-.58,10.82-1.15Z" fill="#58cc02" stroke-width="0"/><path d="M264.45,451.24c10.29,5.97,5.16,8.71,11.06,10.22-2.21,2.33-6.82.88-9.9,1.53,4.71-.23,11.38.97,15.23-1.53-6.35-5.01-12.85-15.41-23.21-12.34,2.24.78,4.82.81,6.83,2.12Z" fill="#58cc02" stroke-width="0"/><path d="M247.29,353.05c.15-.03.32.02.48,0-14.26-7.61-13.63.83-.48,0Z" fill="#58cc02" stroke-width="0"/><path d="M353.59,314.22c-5.62-15.08-6.79,10.18,3.39,4.42-2.5-.54-2.88-2.44-3.39-4.42Z" fill="#58cc02" stroke-width="0"/><path d="M243.77,358.85c.57,3.14,2.6,3.4,5.53,4.73-4.08,2.72,3.68,2.8,5.33,0-4.4-1.21-6.54-4.57-10.86-4.73Z" fill="#58cc02" stroke-width="0"/><path d="M345.56,331.2c.72-3.07-1.11-4.55-3.86-4.62,2.34,2.17,2.47,5.36,3.48,7.97.66,2.1,3.93.79,5.33,0-1.75-1.19-3.33-2.26-4.95-3.35Z" fill="#58cc02" stroke-width="0"/><path d="M255.9,352.18c-9.57,6.02,4.71,14.51,2.15,6.2-1.84-2.65,1.49-3.36,2.64-5.53,1.55-1.97,1.62-2.01,4.06-1.3,2.91,1.35,2.86-4.87-.67-4.18-2.37-6.59,4.28-7.11-7.63-9.53,3.49,4.8,4.56,9.15,4.58,14.21-2.13-.64-3.95-1.62-5.12.12Z" fill="#58cc02" stroke-width="0"/><path d="M300.62,336.63c9.82-4.96-13.96-17.07-9.73-9.8,5.47,1.8,6.71,5.64,9.73,9.8Z" fill="#58cc02" stroke-width="0"/><path d="M332.63,329.06c4.09,4.95,1.76,10.86-1.64,15.16,10.16,3.44,8.45-13.53,5.39-17.64,2.3.37,2.98,1.01,5.13-.07-.54-2.53-5.57-1.43-5.33,0-1.77.13-2.54,1.58-3.55,2.56Z" fill="#58cc02" stroke-width="0"/><path d="M321.83,335.1c3.63-6.31-5.54-9.24-7.1-15.11-2.15-2.83,1.37-5.57-.28-8.37-.46-2.32-.78-7.89,2.65-7.72-10.08-1.7-7.83,4.11-7.89,11.21-1.22,7.99,7.55,15.35,12.61,19.99Z" fill="#58cc02" stroke-width="0"/><path d="M269.4,347.38c5.63,1.73,6.95-6.37,10.64-9.2,5.51-6.6-14.39,4.08-10.64,9.2Z" fill="#58cc02" stroke-width="0"/><path d="M290.75,336.75c6.91-4.39-1.02-3.38-4.42-.77,1.59,2.25,2.25,2.92,4.42.77Z" fill="#58cc02" stroke-width="0"/><path d="M171.1,385.19c-.16-15.97,14.97-14.26,17.7-25.46,1.16-7.47,7.15-12.13,7.51-18,2.14,3.28,9.52-12.77,19.04-14.2-12.91-3.56-21.8,17.9-24.36,14.2.95,2.44-.89,2.84-2.54,4.36,1.88,1.08.71,1.93.14,2.69-5.46,5.49-3.6,15.07-10.79,18.81-9.46,3.59-18.29,20.67-6.53,26.55,11.24,4.07-1.73-3.21-.15-8.96Z" fill="#58cc02" stroke-width="0"/><path d="M227.57,388.04c-.2.14-.41.25-.61.35,7.98,3.08,7.81-7.39-.17-4.57.8,1.36,1,2.79.79,4.23Z" fill="#58cc02" stroke-width="0"/><path d="M258.3,507.3c-.1-.62-.34-1.13-.66-1.6-.16.85-.25,1.36.66,1.6Z" fill="#58cc02" stroke-width="0"/><path d="M209.94,400.2c-7.7,6.29,10.52,10.18-1.35,10.39.58,1.16,1.8,1.59,2.49.88,2.64-1.93,10.77.31,4.83-4.31-4.31-1.11-2.5-5.18-.16-7.43-1.27-3.72-3.84-1.21-5.81.48Z" fill="#58cc02" stroke-width="0"/><path d="M219.12,388.39c-6.81-4.08-1.55,7.61-2.6,10.74,2.78-2.31,3.56-1.48,5.27,1.7-.14-3.92.58-12.61-2.67-12.44Z" fill="#58cc02" stroke-width="0"/><path d="M190.6,406.45c0,.13.14.02.22.02-.07,0-.15-.01-.22-.02Z" fill="#58cc02" stroke-width="0"/><path d="M256.2,506.05c.63-1.53-.3-2.26-1.22-3.36-.23,1.59.33,2.6,1.22,3.36Z" fill="#58cc02" stroke-width="0"/><path d="M185.87,411.48c.75,1.04,2.37,2.36,3.67.92-1.01-.93-2.28-1.09-3.67-.92Z" fill="#58cc02" stroke-width="0"/><path d="M202.24,409.47c-1.99.14-7.78,1.73-6.76,3.62,1.32,2.5,9.53-2.48,6.76-3.62Z" fill="#58cc02" stroke-width="0"/><path d="M28.34,605.46c.53-.72,1.12-1.21,1.76-1.53-1.96-1.04-3.7.48-1.76,1.53Z" fill="#58cc02" stroke-width="0"/><path d="M5.77,599.77c1.4-.87,2.87-1.61,4.03-2.8-1.84-1.35-4.23.61-4.03,2.8Z" fill="#58cc02" stroke-width="0"/><path d="M10.32,601.67c2.92.28,2.18,1.44,1.19,3.69,3.2-.96,1.7-5.72,5.35-6.45-1.73-.65-4.4,1.77-6.54,2.76Z" fill="#58cc02" stroke-width="0"/><path d="M.91,409.3c-.12.07-.26.14-.39.21v-.55c.13.11.26.22.39.34Z" fill="#58cc02" stroke-width="0"/><path d="M34.27,374.98c-4.56-10.6-8.19-23.32-4.56-34.54,5.59-.96,8.44-4.24,7.95-9.37-15.76-4.58,11.38-52.46-17.58-49.53,21.34,7.52-3.26,43.83,12.25,49.53.49,5.12-2.36,8.41-7.95,9.36-3.63,11.21,0,23.95,4.55,34.54,4.69,4.87,7.73,2.81,12.57,9.38,4.6-6.91-4.59-4.62-7.25-9.38Z" fill="#58cc02" stroke-width="0"/><path d="M110.45,252.53c-8.1,7.77,14.88-6.41,16.78-7.59-6.99-1.67-10.88,5.19-16.78,7.59Z" fill="#58cc02" stroke-width="0"/><path d="M110.84,228.58c-.32-1.42-1.77-.41-2.67-.38.88.27,1.7.53,2.67.38Z" fill="#58cc02" stroke-width="0"/><path d="M108.7,237.91c1.58.04,3.35.41,4.84-.02-1.61-.06-3.23-.05-4.84.02Z" fill="#58cc02" stroke-width="0"/><path d="M106.57,240.6c-2.66-.44-10.68-.65-8.07,3.21,2.69-1.33,5.32-2.64,8.07-3.21Z" fill="#58cc02" stroke-width="0"/><path d="M111.31,243.02c-4.91,3.01.94,2.06,3.53,1.21.89-4.78-1.61-3.48-3.53-1.21Z" fill="#58cc02" stroke-width="0"/><path d="M96.73,229.45c1.64-.38,3.21-1.23,4.84-1.54-2.9-.65-5.52-.31-7.54,2.14,1.27-.28,1.99-.4,2.7-.6Z" fill="#58cc02" stroke-width="0"/><path d="M78.64,240.56c1.47-5.64-2.49-11.7,4.69-12.58-1.14-6.62,8.2-6.1,12.37-8.83-5.44-1.69-10.42,2.77-15.56,3.97-3.54,2.32-1.38,6.3-7.37,6.9,2.69,3.28-.68,11.95,5.87,10.54Z" fill="#58cc02" stroke-width="0"/><path d="M12.12,272.62c-.08-.71.07-1.26.37-1.64-9.46-2.78-4.64,6.99-2.78,12.18,7.85-.66,2.03-5.44,2.42-10.55Z" fill="#58cc02" stroke-width="0"/><path d="M20.62,270.5c.8-4.64-8.47-2.99-7.81-7.93.14-7.92,10.3-4.96,15.59-6.37,4.59.15,4.85-4.46,5.84-7.91-2.46-.22-3.66-1.12-2.79-3.69,7.78-5.76,12.21-1.38,14.77-9.28,5.48.46,5.78-4.89,11.53-4.59-7.38-2.65-10.86,4.33-16.86,4.59-2.54,7.88-7.04,3.54-14.77,9.28-.86,2.57.32,3.47,2.79,3.69-.99,3.46-1.24,8.07-5.84,7.92-5.29,1.41-15.45-1.55-15.59,6.37-1.14,4.67,10.29,4,7.3,8.04,1.98.74,3.85.33,5.84-.11Z" fill="#58cc02" stroke-width="0"/><path d="M68.39,238.81c1.41-3.84-1.77-7.76-2.52-12.21-1.2,4.3-3.13,10.55,2.52,12.21Z" fill="#58cc02" stroke-width="0"/><path d="M103.38,225.5c-.19.08-.38.15-.57.23,5.37,2.78,6.94-2.1.57-.23Z" fill="#58cc02" stroke-width="0"/><path d="M271.28,315.04c-2.13,2.92,2.77,3.68,4.45,3.63-2.14,4.44,5.95,6.89,8.45,4.82-2.62-1.28-4.27-1.22-3.12-4.82-2.03-.37-4.83.33-5.06-3.21,2.19-1.42,3.73-1.44,1.34-3.93-2.51-3.12,2.58-5.96.49-9.53,1.45-7.98,4.41-20.69,14.28-22.55,2.78.17,3.01-2.21,4.54-4.02-4.44-4.46-6.19,4.2-9.86,4.02-5.23.43-7.41,5.2-10.28,8.86-3.27,3.76-2.16,9.34-4,13.68,2.09,3.57-3,6.41-.49,9.53,1.81,2.13,1.71,2.36-.73,3.51Z" fill="#58cc02" stroke-width="0"/><path d="M105.22,369.49c9.94.7.59-1.54-3.6-2.62,3.27-3.64,3.89-4.12-1.62-5.21,1.08-1.46,7.27-3.07,3.01-3.61-1.58,2.84-2.16-.2-3.55-.32,4.16-4.67-3.65-4.76-5.33,0,6.28.23,5.36,1.13.55,3.93,5.53,1.09,4.88,1.57,1.62,5.21,2.82,1.62,6.05.54,8.93,2.63Z" fill="#58cc02" stroke-width="0"/><path d="M117.49,355.45c-.89-1.3-1.73.14-2.38-1.11.13,1.08.19,1.57.3,2.43.73-.46,1.41-.9,2.07-1.32Z" fill="#58cc02" stroke-width="0"/><path d="M115.07,354.29c-.9-.83-2.01.86-2.95,1.18,1.75,2.32,1.87,1.24,2.95-1.18Z" fill="#58cc02" stroke-width="0"/><path d="M108.9,356.93c1.41,1.13,1.78,0,2.71-1.12-.49.31-.99.63-1.51.96-.11-.9-.17-1.38-.32-2.54-1.14,2.63-1.27,3.5-3.12,1.1-2.06,3.68.84,5.46,2.24,1.59Z" fill="#58cc02" stroke-width="0"/><path d="M375.91,252.66c-.51-.04-1.06-.07-1.63-.09,0-.15,0-.27,0-.4h0s-.01-.01-.01-.01c0-1.56-1.09-2.17-2.34-2.58-.85-.28-1.77-.46-2.5-.79-.03.05-.06.1-.08.15-.57.95-.94,2.09-1.21,3.23-.01.01-.01.02-.01.03-.03.13-.06.26-.09.39-.31,1.74-.33,3.69.22,5.39,0,.01,0,.03,0,.04.4,1.23,1.12,2.32,2.24,3.08-.03.16-.08.3-.13.44,0,0,0,.01-.01.01-.37.92-1.18,1.43-1.9,1.86-.03.02-.06.03-.09.05-.71.43-1.29.77-1.18,1.39.07.43.49.98,1.44,1.78-.82.02-1.71.04-2.53.18-1.08.17-2.05.53-2.69,1.3t-.01.02c-.37.46-.62,1.07-.69,1.87-1.66-1.05-3.19-1.4-4.59-1.22-.1,0-.2.02-.3.04-.59.09-1.15.28-1.69.54-1.08.52-2.08,1.33-2.99,2.31-1.68,1.78-3.11,4.12-4.33,6.36-.89,1.63-1.67,3.2-2.36,4.45.71,1.03,1.81,2.08,2.85,3.19,1.36,1.45,2.61,2.99,2.75,4.73v.02c.03.4,0,.81-.1,1.23-.15.28-.4.53-.76.71-.38.21-.9.35-1.57.4-.05-.17-.11-.33-.17-.47-.1-.25-.21-.47-.32-.66,0-.01-.01-.03-.02-.04,0,0,0-.01-.01-.01-.23-.23-.46-.43-.69-.59-1.55-1.07-3.14-.51-4.73.5-.38.24-.77.51-1.15.79-1.44,1.06-2.88,2.25-4.3,2.68-.35.12-.7.18-1.05.18.34.62.7,1.23,1.09,1.81.91,1.4,1.94,2.67,3.13,3.78.73.7,1.51,1.33,2.36,1.9,0,0,.02,0,.02.01.5.42,1.05.75,1.62,1.05,0,0,.01.01.02.01,1.74.9,3.7,1.5,4.96,3.02h0c2.43,3.57-3.79-1.58-4.75.83-3.65-1.36-10.9-7.09-11.12-2.59-.02.43.02.95.14,1.58.04.26.11.55.18.85-.57.45-1.61.94-2.01,1.54-.26.38-.27.8.24,1.28h0s.08.06.12.07c1.12.63,2.7.81,4.18,1.13t.02.01c1.51.32,2.92.8,3.61,2.04-2.43.79-4.44.65-6.07-.13h-.01c-.67-.32-1.29-.75-1.83-1.27t-.01-.01c-.2-.18-.38-.37-.55-.57-1.48-1.67-2.44-4-2.96-6.44-.32-1.55-.48-3.15-.47-4.65-2.97,1.87-2.28,5.13-1.47,7.99.11.39.22.78.33,1.15-.01.01,0,.02,0,.02.34,1.31-.28,2.92-.01,4.29.11.56.37,1.08.91,1.52h0c.15.17.31.33.47.49.61.6,1.3,1.18,1.89,1.85h0c.45.54.84,1.12,1.09,1.81.58.44.89.99,1.03,1.58.23.89.11,1.89.1,2.82-.01.37-.01.72.04,1.05.14.5.41.77.77.89.63.23,1.54.02,2.51-.24,1.49-.41,3.11-.92,4.06-.09.01,0,.01.01.01.01.28.22.51.53.68.96h0s-.04.03-.06.05c-1.89,1.08-2.82,2.76-3.27,4.68-.82,3.52-.02,7.85-.52,10.71-.49,2.86-2.27,4.27-8.22,2.01-.89-.34-1.89-.76-2.99-1.28-.01,0-.01-.01-.02-.01h.08c1,.01,2.05-.13,3.06-.39,1.68-.44,3.22-1.26,4.12-2.44.39-.5.66-1.07.77-1.7.02-.24.03-.47.04-.7.1-2.63-.42-5.15-1.3-7.6-.11-.33-.23-.65-.36-.97-.4-1.02-.86-2.03-1.35-3.04-.02-.04-.04-.07-.05-.11-.96-1.94-2.05-3.85-3.14-5.77-1.07-1.9-2.13-3.81-3.06-5.75-.02-.05-.04-.11-.07-.16-.38-.8-.73-1.61-1.05-2.42-.66-1.7-1.18-3.44-1.45-5.22-.14-.82-.22-1.65-.24-2.49-.14-.04-.28-.07-.43-.1-2.91-.66-6.62.24-7.7,3.18h0v.04c-.47,1.1-.35,2.72.06,4.07.01.04.02.07.03.11.07.25.15.51.23.76.13.45.26.91.3,1.37.03.44,0,.88-.17,1.31,0,.02-.02.03-.02.05-.37.73-.55,1.44-.59,2.14v.02c-.15,2.76,1.88,5.32,3.46,7.75.42.65.81,1.3,1.12,1.94h0c5.91,7.38,4.23,7.71.44,6.12-3.81-1.6-9.76-5.16-12.27-5.45-3.65,1.38-12.71-6.3-10.94-1.17.09.25.2.53.34.84,1.19.51,2.58,1.14,3.78,1.94,1.3.86,2.38,1.94,2.77,3.32.04.18.06.36.07.54.08,1.53-.9,2.77-2.25,3.93-.01,0-.01.01-.02.02h-.01c-.48-1.2-1.04-1.98-1.64-2.45-2.56-1.97-6.02,1.65-8.76,3.08-.96.5-1.83.74-2.54.37-.4-.2-.76-.58-1.04-1.22-.05-.09-.09-.19-.13-.3h-.09c-.75-.05-1.5.04-2.22.23h-.01c-1.01.26-1.97.72-2.86,1.27-1.08.39-2.02,1.22-2.87,2.25,0,0-.01,0-.01.01-1.44,1.74-2.64,4.05-3.9,5.73-.14.18-.27.35-.41.51-.04.04-.08.09-.13.14-1.08,1.25-2.24,1.93-3.65,1.34-.41-.17-.85-.45-1.31-.86-.08-.07-.17-.15-.26-.24h0c-.76-1.04-.63-2.05.32-3.32,2.7-3.56-1.68-3.97-4.38-4.49-1.22-.21-2.34-.43-2.96-.82.3.53.68,1.16,1.1,1.87.31.53.64,1.09.98,1.69.19.34.38.69.57,1.05.25.47.49.96.71,1.45.74,1.58,1.31,3.21,1.38,4.64.08,1.27-.22,2.38-1.12,3.19h-.01s-.01,0-.02,0c-.67-.4-1.33-.57-1.95-.54-.76.04-1.47.35-2.08.86,0,.01-.01.01-.02.02-.47.4-.88.93-1.2,1.53h0c-.76.69-1.35,1.25-1.78,1.76l-.05.05c-.12.14-.23.29-.31.43-.43.7-.41,1.42-.16,2.14,0,0,.01,0,.01.02.04.12.09.23.15.35.04.11.1.21.16.32.26.48.61.95.97,1.41-.37.62-.67,1-1.1,1.29-.01.01-.02.02-.03.02-.04.03-.09.06-.14.09-.82.3-1.58.24-2.31-.02-.01,0-.01-.01-.02-.01-1.31-.47-2.51-1.54-3.81-2.2,0,0-.01,0-.02-.01-.99-.5-2.03-.75-3.2-.29-.09.62-.03,1.12.15,1.52h0c.48,1.06,1.73,1.47,3.04,1.85,1.1.32,2.24.62,2.97,1.25-.32.39-.64.72-.98.99-.43.36-.87.62-1.33.79-.69.29-1.4.36-2.11.28s-1.42-.33-2.07-.68c-.11-.06-.22-.12-.32-.19-.53-.31-1.02-.69-1.45-1.1h-.01s0-.02-.01-.02c-1.54-1.53-2.88-3.7-3.11-5.92-.13-1.06.01-2.14.5-3.16-.51-.24-1.06-.39-1.63-.51-.9-.19-1.83-.31-2.67-.61-.27-.09-.52-.2-.77-.33-.01,0-.01-.01-.02-.01-.65-.44-1.08-1.09-1.23-1.72-.05-.2-.07-.4-.07-.58.01-.31.11-.59.29-.81.43-.52,1.36-.67,2.9.02.36.1.76.24,1.17.39.01.01.02.01.04.01,1.29.5,2.79,1.18,4.37,1.77.01.01.02.02.03.02,1.33.51,2.72.96,4.07,1.18,1.57.28,3.09.25,4.46-.32h.01c.3-.14.58-.28.86-.46.08-.12.17-.24.24-.36h0c5.11-7.63-.56-10.84-8.09-12.92-9.53-2.48-14.26-3.07-20.38-10.5h-.01c-1.73-.48-3.31-.83-4.76-1.06-3.6-.6-6.39-.49-8.66.09-.08.03-.17.05-.25.08-3.15.86-5.25,2.65-7.05,4.69-2.09,2.33-3.79,4.99-6.29,6.94v.02c-1.14.88-2.43,1.63-4,2.13h0s.01.02.01.02c.57,1.18.14,2.03-.58,2.75-.58.58-1.35,1.08-1.97,1.6.29.67.39,1.29.34,1.89-.15,2.35-2.48,4.27-3.67,6.57-.01.01-.02.03-.02.04-.03.05-.06.1-.08.15-.58,1.22-.98,2.49-1.34,3.75-.39,1.38-.75,2.76-1.27,4.06-.01.03-.02.05-.03.08-.71,2.06-2.28,3.45-4.13,4.66-.02.01-.04.03-.07.05-3.1,2.01-6.95,3.54-8.72,6.9,0,0,0,.02-.02.03-3.71,5.16-4.93,12.01-1.87,16.62.09.14.19.29.31.43.08.1.15.2.23.3,0,.01.01.01.01.01.87,1.09,2.03,2.01,3.48,2.73,1.82,1.13,3.64.89,5.68-.31.03-.02.05-.03.08-.05,0,0,.01,0,.01,0,0-.01.01-.01.01-.01.92-.56,1.87-1.35,2.83-2.4-1.22,2.01-.46,3.74.83,5.34.79.98,1.79,1.92,2.64,2.85.82.87,1.5,1.74,1.77,2.63.27.85.14,1.73-.63,2.66-.01,0-.01.01-.02.01,0,0-.01.01-.02.01-.28.2-.7.41-1.1.59-.11.05-.22.1-.33.14-.02.13-.02.25-.02.37-.01.18.01.36.04.52.02.11.04.21.07.31.06.19.14.35.24.5.18.27.43.48.75.61.29.13.64.2,1.04.19h.06s-.01-.02-.01-.03c-.02-.1-.03-.2-.03-.29-.06-.71.28-1.3.88-1.44h.01c1.35-.27,3.16.06,4.72-.15,1.2-.16,2.25-.63,2.85-1.89.29,0,.61,0,.92-.02.52-.05,1.02-.17,1.34-.54.01-.01.02-.02.03-.03v-.02c-.15-1.96-.08-3.65.16-5.11.64-4.21,2.54-6.58,3.92-8.32,1.64-2.08,2.55-3.28-.21-5.65-.02-.01-.04-.03-.06-.04-1.32-.9-2.28-2.3-2.81-3.85-.01-.02-.02-.04-.02-.06-.51-1.5-.62-3.13-.29-4.6t0-.02c.27-1.33.84-2.61,1.69-3.78,0-.01.01-.01.01-.02,1.2-1.13,2.44-2.18,3.56-3.26,1.6-1.55,2.96-3.18,3.62-5.21.45-1.35.58-2.89.27-4.72.98-.5,2.22-1.01,3.49-1.33t.02-.01c1.63-.41,3.3-.49,4.5.22.86.51,1.48,1.43,1.68,2.92-.43.51-.88,1-1.34,1.48-1.16,1.2-2.38,2.37-3.39,3.67-.04.04-.07.08-.1.12h0c-.57.73-1.06,1.51-1.43,2.34-.01.01-.02.02-.02.03v.02s-.04.11-.06.16c0,.01,0,.02,0,.03-.28.69-.65,1.32-1.27,1.74,0,.01-.01.01-.01.01t-.02.01h-.01c-.38.4-.7.87-.94,1.4-1.96,4.19.27,11.84,3.95,12.53h.01c1.75.51,3.91.12,6.1-.34,2.01-.43,4.03-.92,5.76-.84,2.06.09,3.69.98,4.39,3.72.09.28.15.57.2.89-.27.02-.53.03-.79.05-1.89.1-3.47.12-4.79.11-1.34-.01-2.41-.06-3.26-.08-.61-.02-1.11-.03-1.51-.01-1.33.09-1.6.51-1.5,2.03.1,1.58.6,4.35.71,9.17h0c0,.5.02,1,.02,1.53-.42-1.26-.96-2.05-1.59-2.48,0,0-.01,0-.01-.01h-.01s-.01-.01-.02-.01c-.88-.38-1.77-.32-2.6.03-.33.13-.66.31-.97.53-.02.01-.04.02-.05.04-.29.2-.57.44-.83.69t-.01.02c-.69.67-1.27,1.49-1.67,2.29-.03.04-.05.08-.07.13-.21.42-.36.83-.46,1.22-.58,1.52.41,2.64,1.61,3.6,0,.01.01.01.01.01,1.09.87,2.36,1.62,2.81,2.41,0,0,0,.01.01.01.05.17.06.31.04.44-.13.99-2.11.85-3.43.8-.47-.03-.85-.03-1.05.02-.21.07-.42.14-.63.21-.47.16-.93.33-1.38.44h0c-.92.25-1.79.33-2.55-.11-.01,0-.01-.01-.01-.01-.5-.29-.95-.8-1.35-1.63-1.55-.31-2.93.31-4.25,1.16,0,0-.01.01-.02.01-.52.34-1.04.71-1.55,1.08-.01,0-.03.02-.04.03-.54.39-1.09.76-1.64,1.08-.1.06-.21.12-.31.16-.43.24-.86.42-1.31.53-.93.24-1.9.18-2.94-.41,0,0,0-.01-.02-.01-.17-.24-.36-.48-.59-.68h-.01c-.11-.11-.22-.21-.34-.29-.4-.31-.84-.51-1.31-.6-.1-.02-.21-.04-.32-.06-.05-.01-.1-.02-.16-.02-.93-.08-1.9.18-2.72.62-.18.1-.36.2-.53.31-.11.08-.21.15-.31.23-.07.02-.13.03-.2.04-1.36.3-2.24-.26-2.89-1.19-.56-.83-.95-1.95-1.32-3.05-.98-2.88-1.89-5.64-5.78-2.68,1.5,2.4,2.28,4.14,2.46,5.44.07.46.06.87-.01,1.23-.11.49-.34.9-.68,1.25-.56.57-1.43,1-2.54,1.38-1.26.44-2.84.82-4.65,1.31-.36.1-.72.2-1.09.31-.06.21-.13.41-.21.62-.76,2.18-1.88,4.17-3.3,5.93-1.49,1.87-3.3,3.48-5.34,4.8-.01,0-.01.01-.02.01-.43.3-.85.58-1.3.84-.32.27-.7.52-1.12.77-3.07,1.78-8.37,2.97-11.26,4.85-.05.03-.11.07-.16.11-.89.6-1.53,1.28-1.76,2.07-.35,1.11.11,2.44,1.76,4.12.29.3.62.6.99.92t.01.01h0c1.45,1.49,3.45,3.32,6.05,5.6.46,1.44.27,2.58-.38,3.48-.02.04-.05.07-.09.11-1.16,1.5-3.65,2.33-6.59,2.81-.84.14-1.72.25-2.62.33-2.31.23-4.74.32-6.95.39h-.01c-2.92.1-5.45.18-6.8.52-.22.24-.42.48-.61.72,0,.02-.02.04-.04.06-1.6,2.22-1.49,4.72-.89,7.31.73,3.21,2.21,6.55,2.05,9.61v.12c.01,1.6.55,2.89,1.42,3.9.02.03.05.06.08.09,1.2,1.35,3.02,2.2,5.01,2.6.32.07.65.13.98.17,2.63.36,5.43.01,7.45-.88,4.14-4.43,7.98-5.03,13.59-5.31-1.19-2.85-.7-5.95.81-8.5.66-1.13,1.52-2.14,2.52-2.99.87-.78,1.84-1.43,2.88-1.94-.49-1.23-.31-3.04.36-4.26.4-.7.96-1.21,1.66-1.29.58-.07,1.26.17,2.01.84,3.3.49,6.31-1.48,9.32-2.55h0c.27-.14.52-.26.77-.36,1.33-.53,2.46-.6,3.45-.35,1.09.28,1.99.95,2.77,1.85.54.61,1.02,1.32,1.46,2.08.82,1.42,1.51,3.03,2.19,4.47.22.48.44.94.67,1.37.67,1.05,1.42,1.56,2.21,1.64.64.07,1.32-.15,2-.59.41-.26.83-.61,1.24-1.02.6.61,1.17,1.33,1.67,2.1.84,1.31,1.47,2.8,1.63,4.26.18,1.57-.2,3.11-1.45,4.35t-.01.01c-.24.24-.51.47-.82.69-.01,0-.02.02-.03.01-1.11.77-2.63,1.33-4.58,1.61.28.25.56.47.84.67.87.63,1.78,1.04,2.68,1.26,6.07,1.52,12.26-5.3,9.35-12.02,1.19,1.49,1.97,2.48,2.8,3.52.1-.17.18-.34.25-.5h.01c.67-1.43.19-2.4-.77-3.16-.61-.48-1.42-.87-2.25-1.24h-.01c-1.32-.59-2.71-1.11-3.45-1.81h-.01s-.01,0-.01,0c-.8-.58-1.59-1.19-2.36-1.84-1.2-.97-2.35-2.01-3.45-3.1h0s-.01-.03-.01-.03c-.24-.23-.47-.46-.69-.7,0,0-.02-.01-.01-.01-.23-.21-.44-.43-.64-.65-1.52-1.58-2.94-3.25-4.29-4.99.07-.59.37-1.22.77-1.78.01-.02.02-.03.03-.04.87-1.18,2.19-2.04,2.83-1.46.03.03.06.05.08.09.26.31.38.9.27,1.88,2.53,2.38,5.66,4.08,8.61,5.91.18.11.36.22.54.33,2.7,1.67,5.42,3.61,7.2,6.25.22.59.39,1.23.56,1.86,0,0,0,.01,0,.02.52,1.88,1.05,3.78,2.88,4.89.61,1.23,1.31,2.5,1.88,3.82.25.58.48,1.16.65,1.76.02.05.04.11.05.17.28.97.43,1.98.36,3,.2.08.4.19.6.32,1.21.77,2.48,2.2,3.5,2.82.02,0,.03,0,.03.02,3,2.06,1.9-3.37,3-4.31,1.15-1.76,1.16-3.5.18-4.85-.37-.53-.9-1-1.56-1.39,9.57-9.14,6.4-2.07,12.57-5.89.01,0,.01-.01.02-.01.51-.41,1.03-.81,1.59-1.06.53-.23,1.11-.33,1.78-.16-1.07-.65-1.8-1.45-2.24-2.36-.73-1.47-.7-3.21-.19-4.93.2-.71.49-1.41.84-2.09.65-3.56,1.53-6.19,2.69-7.86.21-.32.44-.61.68-.84.18-.21.37-.38.57-.52.6-.47,1.27-.73,1.99-.78,1.54-.13,3.35.68,5.44,2.46.93.79,1.92,1.77,2.97,2.95l.05.05s0,.01.01.02v.02s.01.02.01.02c.18.46.39.93.73,1.19.01.02.02.01.02.01.52.48,1.16.49,1.69.21.32-.16.59-.42.78-.75h.01v-.02c.05-.01.11-.03.16-.04.06-.02.12-.03.19-.04h0c3.73-.97,7.49-.04,10.78,1.85.1.06.2.12.3.18.06.03.11.07.17.1.01,0,.02,0,.02.01,3.24,1.96,5.93,4.61,8.36,7.38.74.84,1.46,1.69,2.16,2.54-.82.76-1.7,1.31-2.64,1.69-2.62,1.08-5.66.84-8.85.19-.14-.03-.29-.06-.44-.1-.1-.01-.2-.03-.31-.06-1.78-.39-3.61-.9-5.43-1.35-1.38-.35-2.76-.66-4.12-.88-.36-.06-.73-.11-1.09-.15-1.51-.19-2.98-.23-4.38-.02h-.02s-.02,0-.03.01c-.85.12-1.67.34-2.46.66-.08.07-.2.13-.36.2-1.43.63-5.82,1.42-9.47,2.58-.04.02-.09.03-.14.05-2.73.87-5.01,1.96-5.26,3.33-.08.48.08.99.55,1.54h0c.21.44.37.84.5,1.22.1.3.18.58.25.84.74,3.17-1.15,4.19.87,6.14.75.73,2.07,1.6,4.28,2.76t.02.01c.29.16.6.32.92.48.01,0,.01,0,.02,0l.24.24c.18.17.37.33.55.46.13.09.25.18.38.26,2.58,1.6,5.54.26,7.91-1.6,2.23.55,4.17.15,5.91-1.31h.02c3.42-.25,5.51.43,6.58,1.66,1.52,1.73,1.02,4.56-.57,7.45h0c-2.55,4.61-7.88,9.33-12.32,9.91-.64.09-1.25.09-1.84-.01h0c-9.52,3.75-21.53-8.56-30.37-4.8t-.01.01c-.12.11-.22.23-.32.37-.53.79-.64,2.02-.48,2.95h0c-.97,2.63-2.78,3.5-5.03,3.37-5.17-.28-12.64-5.84-17.33-7.42h-.01c-3.58-1.64-6.77-2.7-8.82-2.05,5.03-11.1-.19-12.67-7.74-11.83-.01,0-.02,0-.03.01-5.26.58-11.65,2.33-16.47,2.83-1.5.16-2.85.2-3.97.04,0,0,0,.01-.01.01h0c-1.88,2.93-3.43,4.27-4.9,4.77-1.23.43-2.39.28-3.64-.02-2.25-.53-4.77-1.54-8.38-.51-.89.26-1.55.7-2.07,1.26-.06.06-.12.13-.17.19-1.12,1.33-1.55,3.21-2.22,4.93-.3.8-.66,1.56-1.16,2.2-1.2.67-2.03,1.29-2.6,1.88-2.48,2.59-.09,4.72-2.41,8.38h0s-.02.04-.03.05c-1.43,2-3.92,3.18-6.37,4.47-.01,0-.01.01-.02.01-2.56,1.18-4.54,2.98-6.12,5.14-1.73,2.36-2.97,5.14-3.99,7.98-.01.04-.03.08-.04.12-.86,2.44-1.56,4.91-2.25,7.2-.96,4.01-1.48,8.11-1.61,12.23-.01.46-.02.92-.02,1.38-.02,2.06.06,4.11.23,6.16.34,4.17,1.07,8.31,2.14,12.34.33,1.23.68,2.44,1.07,3.65,1.11,1.31,2.85,2.1,4.51,2.98.31.16.61.32.91.49.56.32,1.1.67,1.58,1.05.58.48,1.08,1.02,1.44,1.68.24.41.42.88.53,1.4.26.21.52.41.79.62,1.59,1.23,3.28,2.42,5.37,3.73.02.01.04.03.06.04,2.86,1.49,6.28,3.77,9.6,4.63h0s.02.02.03.02c2.22.6,4.66.49,6.55-.97,1.58-.08,3.21-.08,4.85-.07,6.3.03,12.85.26,18.34-2.7.58-.3,1.14-.65,1.69-1.03.33-.23.66-.47.98-.73.35.56.74,1.11,1.15,1.63.49.62,1.02,1.2,1.59,1.73,1.39,1.33,3,2.37,4.78,2.85,1.3.37,2.7.43,4.15.09.14-.03.28-.06.42-.1.61.24,1.2.62,1.76,1.11.02.02.04.04.07.06.57.52,1.12,1.16,1.61,1.87.01,0,.01,0,.01,0,.45.75.82,1.5,1.13,2.25.32.77.58,1.55.77,2.32,1.08,4.12.69,8.24,1.34,12.35.51,3.33,1.71,6.65,4.91,9.97.15.16.3.31.46.47,0,.01,0,.01,0,.02,2.84,3.15,3.74,7.1,4.08,11.21.25,2.81.23,5.68.4,8.43.04.49.07.98.12,1.46-.03.04-.05.07-.06.1-.2.24-.4.48-.59.72-1.58,2.01-2.69,4.21-3.41,6.51-1.36,4.33-1.29,9.02-.16,13.5.01.05.02.09.04.14.71,2.78,1.83,5.47,3.28,7.94.52.94,1.06,1.88,1.59,2.82.01.02.02.03.02.04,1.6,2.82,3.2,5.69,4.41,8.67,1.25,1.98,1.74,4.22,1.86,6.48.21,3.66-.55,7.38-.6,10.13-.04,1.77.21,3.14,1.21,3.83.25.17.54.3.89.39.33.08.72.12,1.17.11.03.02.06.03.09.05.42.23.66.58.79.99,0,0,.01,0,.01.01.36,1.1-.01,2.66.28,3.84t.01.02c.06.28.17.53.33.75,0,0,0,0,0,.01.03.01.07.02.1.03,1.93.63,4.02,1.07,6.19,1.38.73.1,1.47.18,2.21.24,4.76.46,9.75.29,14.2-.16,6.56-1.39,10.07-6.86,15.1-11.76,5.01-4.29,13.68-12.83,3.96-16.84,20.08-.09,4.56-7.55,13.5-18.34,1.35-1.62,2.78-3.26,3.56-6.3,2.79-.46,4.97-1.27,6.63-2.38,0,0,0,0,0-.01,10.16-8.06,1.68-22.61.9-33.14.3-.51.6-1.03.89-1.55h.01c3.69-6.39,7.72-13.04,12.92-18.26,2.13-2.15,4.49-4.06,7.08-5.59.69-.42,1.4-.81,2.13-1.17,2.23-3.54,3.19-8.55,7.98-9.42-2.65-6.45,8.99-10.75,4.6-17.02-6.24,2.01-10.73,3.06-14.35,2.94-.99-.04-1.92-.16-2.79-.38-4.88-1.19-8.36-5.25-13.54-12.98-.6-.06-1.12-.2-1.58-.41,0,0,0-.01,0-.01-1.21-.55-1.97-1.59-2.54-2.82h-.01c-1.03-2.22-1.48-5.05-2.93-6.86-.05-.08-.11-.15-.18-.22-.04-.06-.09-.11-.15-.16-.61-.65-1.4-1.13-2.45-1.33-.03-.01-.06-.01-.09-.02,0-.01-.01-.01-.02-.01-1.01-.81-1.48-1.99-1.76-3.31-.55-2.61-.33-5.78-1.85-7.89-.69-.96-1.74-1.69-3.37-2.06.15-1.57-.15-2.99-.69-4.34h0c-.75-1.86-1.94-3.56-3.05-5.27-.01-.01-.01-.02-.02-.03-1.56-2.4-3.06-4.84-3.22-7.66.69.59,1.23.83,1.66.83h.01c.85,0,1.27-.97,1.51-2.12.21-.96.29-2.06.4-2.81.1.36.22.7.33,1.04.12.34.24.67.37.99.13.32.26.64.4.95.14.31.29.61.43.91.42.87.9,1.71,1.41,2.52,0,.01.01.01.01.02.01,0,.01.01.01.01.21.33.42.66.63.99,1.17,1.81,2.36,3.67,3.68,5.42.02.02.03.05.05.07.84,1.1,1.74,2.16,2.71,3.14.86.86,1.77,1.65,2.77,2.35.01.01.02.01.03.02.72.62.98,1.47,1.08,2.4.01.01.01.03.01.05.17,1.66-.2,3.57.5,4.8.23.29.46.57.69.84,1.92,2.31,3.86,4.28,5.6,6.32,2.19,2.56,4.05,5.24,5.12,8.86.35,1.16.61,2.41.77,3.79t.01.02c.11.42.22.84.33,1.26.41,1.55.83,3.05,1.42,4.51.06.15.12.29.18.44,7.36,5.24,15.04-4.97,22.69-4.83-.01-.16-.01-.31.01-.45.16-1.18,1.28-1.76,2.3-2.34,0,.01,0,0,.02,0,1.34-.65,1.74-2.39,3.15-2.8,1.91-.86,4.47-.63,6.48-1.4.11-.04.21-.08.32-.13-.09-1.45.55-2.4,1.46-3.17,1.47-1.27,3.64-2.09,4.56-3.85,2.09-2.22,1.28-6.43,5.07-6.88,5.3-4.72.46-6.09-4.24-7.96-3.25-1.29-6.43-2.81-6.15-5.83-.35.05-.63.2-.86.4-.06.05-.11.1-.16.15-.6.64-.94,1.66-1.62,2.23,0,0,0,0,0,.01-.02.02-.04.04-.05.06-.56.6-1.21,1.03-2.07.98-1.27,1.13-2.64,1.07-4.12.89-.29-.03-.59-.06-.9-.1-.69-.22-1.58.11-2.33.11-.33,0-.63-.07-.88-.27-.45-.57-.62-1.66-.78-2.73-.16-1.01-.32-2.01-.72-2.52h0s-.01-.02-.01-.02c-.17-.22-.41-.3-.64-.27-.17.01-.33.09-.48.19-.01,0-.01.01-.02.01-.88-1.16-2.36-2.45-3.9-3.79-2.41-2.11-4.97-4.38-5.57-6.55-.01-.04-.02-.07-.03-.11-.41-1.2.04-2.4.89-3.24.2-.21.43-.4.68-.56.51-.34,1.1-.56,1.7-.64.73-.1,1.49.04,2.16.48.53.38.9.92,1.23,1.49.61,1.05,1.08,2.23,2.16,2.79.82.64,1.74,1.16,2.63,1.69.51.3,1.01.6,1.47.93,0,.01.01.01.01.01.9.64,1.67,1.39,2.11,2.41h.01c.08.19.15.37.21.57.28.22.57.38.86.52.05.02.11.04.16.06.81.32,1.64.34,2.5.22,1.23-.17,2.49-.64,3.74-.94.54-.13,1.08-.23,1.61-.26.24-.02.49-.02.73.01.55.04,1.1.17,1.63.44,1.56,2.38,3.26,5.53,6.24,6.04h.05s.05.02.08.02c.07.02.13.04.2.06,6.63,2.04,16.56-2.78,23.14-.12,0,0,.01,0,.02.01,1.9.77,3.53,2.17,4.7,4.56,1.35.09,2.74.33,3.93.74,1.78.61,3.12,1.6,3.22,3.02.04.51-.09,1.07-.4,1.69-.16.31-.37.63-.64.97-.15.21-.33.42-.53.64.3.08.63.15.98.2,2,.3,4.48.34,4.37,2.92.68-.54,1.29-1.02,1.94-1.53.23-.18.46-.36.71-.55h0c.15-.13.3-.25.46-.37V252.67s-.06-.01-.09-.01ZM257.75,507.02c-.08-.04-.16-.08-.24-.12-.24-.12-.47-.25-.69-.4-.15-.09-.29-.2-.43-.32-.06-.04-.12-.09-.18-.14h-.01c-.58-.54-1.02-1.2-1.2-1.94-.02-.09-.04-.18-.05-.28-.06-.36-.05-.74.03-1.13.26.39.58.75.92,1.1.02.02.04.04.06.07.17.16.35.34.52.52.15.15.3.3.44.45.08.09.16.18.24.27.08.09.16.18.23.27.09.12.17.23.25.35.05.07.1.14.15.22.03.05.07.11.1.17.05.09.09.18.14.28.13.28.22.58.27.9-.18-.09-.36-.18-.55-.27ZM348.82,311.27c.15-.33.43-.67.76-1,.32-.31.69-.61,1.06-.88.27-.19.54-.37.78-.51.83,1.13,1.22,2.51,1.58,3.87.33,1.3.64,2.58,1.25,3.65.56.98,1.39,1.77,2.73,2.24-1.27.97-2.49,1.2-3.53.81-.88-.32-1.64-1.07-2.2-2.19-.42-.71-.98-1.36-1.48-2.02h-.01c-.9-1.19-1.59-2.4-.94-3.97ZM345.67,329.37c.6,1.02,1.11,2.16,1.78,3.11.73,1.02,1.63,1.83,3.03,2.05,0,.01.03.01.04.01,0,0-.01,0-.01.01,0,.01-.03.01-.04.02-.64.44-1.3.71-1.98.85h-.02c-.84.17-1.7.14-2.6.02h-.01c-.21-.03-.41-.07-.62-.11l-.18-.72c-.01-.06-.03-.12-.04-.18-.1-.41-.19-.81-.28-1.22-.02-.06-.03-.12-.05-.18-.15-.64-.31-1.29-.49-1.93-.17-.56-.36-1.11-.6-1.65-.35-.8-.78-1.57-1.34-2.25h0c-.16-.21-.35-.42-.55-.62,2.04.04,3.1,1.29,3.97,2.79Z" fill="url(#linear-gradient)" stroke-width="0"/><path d="M56.69,620.58c-1.85,2.63-3.72,5.24-5.55,7.88-.69,1.01-1.36,2.04-1.95,3.12-.94,1.73-1.75,3.5-3.72,4.44-1.2.58-1.69,1.74-1.27,3.13,1.61,5.23.81,10.18-1.43,15.1-1,2.19-1.4,4.68-1.92,7.07-.56,2.58-2.06,4.17-4.68,4.6-.93.14-1.89.13-2.83.23-.65.06-1.4,0-1.92.31-1.66.97-3.33,1.91-4.96,2.91-.74.45-1.47.91-2.18,1.4-.27.18-.54.37-.81.56-.73.51-1.45,1.05-2.14,1.63-.31.25-.61.51-.9.77-.64.58-1.26,1.19-1.85,1.84-.1.11-.19.22-.27.33-.16.22-.3.44-.41.67-.05.09-.09.19-.13.29-.05.13-.09.27-.13.41-.03.11-.05.22-.07.34-.02.1-.03.21-.05.32h0c-.08,1.03.21,2.05.63,2.97.91,1.98.3,3.35-.67,4.97-1.49,2.5-2.87,5.09-4.11,7.72-.06.13-.12.26-.19.38-.07.13-.14.25-.21.38-.14.24-.29.47-.46.7-.32.44-.7.85-1.17,1.23-.11.09-.22.19-.35.28-.39.29-.85.57-1.38.85.41-.58.79-1.12,1.16-1.64.29-.41.56-.8.84-1.18.62-.89,1.21-1.72,1.83-2.59-.77-.39-1.25-.64-1.68-.85-.25.21-.45.3-.52.45-.22.47-.38.99-.59,1.47-.04.09-.08.19-.13.28-.04.09-.09.18-.14.27s-.1.18-.16.26c-.05.07-.1.14-.15.2-.99,1.17-1.83,2.11-1.44,3.94.24,1.13-.48,2.57-1.04,3.75-.78,1.66-1.66,3.33-2.78,4.77-.57.74-1.74,1.37-2.67,1.39-.54.02-1.09.08-1.65.13v-129.85s.09.04.14.07c.27.11.53.23.78.37.23.11.45.24.67.37.18.1.35.2.51.31.56.36,1.1.76,1.62,1.2.2.16.4.33.59.51.21.18.42.38.62.58.14.13.28.27.41.41l.12.12c.18.19.36.38.53.57.2.22.4.44.59.67.08.1.15.2.21.31.27.45.4.99.58,1.51.06.18.12.35.2.51.54,1.21,1.07,2.42,1.69,3.58.41.77,1.87,1.02,1.37,2.21-.45,1.1-1.14,2.13-1.88,3.07-.48.62-1,1.2-1.53,1.78-.6.66-1.21,1.32-1.79,1.99-.23.27-.31.67-.18,1.41.95-.58,1.92-1.13,2.84-1.76.42-.28.79-.7,1.19-1.04.28-.25.58-.45.91-.52,1.87-.41,3.73.06,5.1.88-.03.41-.1.75-.22,1.05-.83,2.11-3.81,1.63-5.27,3.29.85.23,1.51.41,2.38.65-.4,1.04-.75,1.93-1.19,3.05,1.61-.12,1.79-1.1,1.87-1.84.27-2.36,1.75-3.78,3.48-4.61.46-.22.93-.41,1.41-.55,2.25-.67,4.57.48,6.14,2.48.75-.12,1.32-.19,1.75-.19.09,0,.17.01.25.02.06,0,.1.01.15.02.18.03.33.09.44.18.04.03.08.07.11.11.1.11.18.25.23.43.02.04.03.09.05.15.11.43.15,1.04.18,1.88v.04c.03.64.11,1.27.16,1.87.29.05.58.17.63.1.53-.72,1.12-1.2,1.76-1.52,1.22-.62,2.64-.59,4.21-.22,1.83.44,3.75.5,5.6.85,3.51.66,6.69,2.02,9.17,4.69,1.46,1.57,3.09,2.74,5.57,2.47.89,2.14,1.69,4.25,2.63,6.29.5,1.09-.05,1.8-.59,2.57Z" fill="url(#linear-gradient-2)" stroke-width="0"/><path d="M2.55,405.71c-.64.45-1.34.81-2.03,1.16v-3.4c.14,0,.28.01.43.03.29.02.58.06.86.12.14.03.29.06.43.1.13.03.25.07.38.12.02,0,.05.01.07.02.12.05.25.09.37.15.12.05.24.11.35.17.17.08.34.18.5.29-.28.35-.59.65-.93.92-.14.11-.29.22-.43.32Z" fill="url(#linear-gradient-3)" stroke-width="0"/><path d="M7.68,417.4c-.2.12-.41.23-.63.34-.92.46-1.98.84-3.08,1.2-.02.01-.03.01-.05.02-1.12.37-2.28.72-3.4,1.13v-10.58c.13-.07.27-.14.39-.21.14-.08.27-.15.4-.22.23-.13.46-.26.69-.39.18-.1.35-.2.53-.29.18-.1.36-.18.55-.27.09-.05.19-.09.29-.13.14-.07.29-.12.44-.18.15-.05.3-.1.45-.15.98.53,1.7,1.15,2.21,1.85,0,0,.01,0,.01.01.23.3.42.62.57.95.36.75.55,1.58.64,2.47v.05c.14,1.34.06,2.81-.01,4.4Z" fill="url(#linear-gradient-4)" stroke-width="0"/><path d="M106.29,333.38c.78-4.06,3.02-8.2,2.73-12.33-.84-2.24-.04-4.02,1.26-5.78,2.66-3.77,6.07-7.53,6.67-12.25.21-1.92.78-3.46,2.12-4.76,6.25-7.05-.69-17.73,3.6-25.66,2.96-8.51,11.99-12.15,14.01-21.29,1.94-5.59-6.12-8.12-10.06-5.95-1.92,2.4-4.79,2.69-7.42,3.56-3.48,1.88-6.25,4.87-9.83,6.76-.8-2.18-.9-2.48,1.06-3.15,3.09-.34,15.84-12.6,7.06-11.48.1,3.17-8.29,5.87-8.9,2.63,1.68-.83,4.1-.03,4.21-2.83-5.2-1.6-9.68.67-14.33,2.96-.47-1.08-.8-1.84-1.22-2.81,8.29-6.23,19,.33,26.94-5.81-3.15-1.97-5.98-4.49-9.95-3.13-.26.1-.76-.39-1.57-.84,1.68-.4,2.83-.68,4.3-1.03-.52-.99-.92-1.76-1.28-2.44-10.48,2.21-8.46-2.43-21.69,2.31,9.15-7.3,10.72-3.62,19.64-3.83.44-1.7-.56-2.08-1.69-2.53-5.34-1.46-10.6-6.23-16.28-4.54-3.44,1.24-6.75,2.9-10.24,3.97-2.59.75-2.1,2.59-2.14,4.85-1.62.63-3.3,1.29-5.24,2.05,2.39,3.32.4,6.96.55,10.54-2.95.47-3.32.15-4.03-2.45-1.07-3.91-2.16-7.29-3.42-11.51-1.62,4.41-.96,8.42-2.8,12.21-9.18-4.05,3.4-11.64-16.06-7.1-.49,1.24-.84,2.09-1.17,2.92-1.72.24-3.3.45-4.93.67-2.54,7.89-7.04,3.55-14.77,9.28-.1.85-.22,1.84-.35,2.91,1.21.3,2.19.54,3.14.78-.95,15.9-19.93,1.79-21.43,14.29-.66,4.94,8.61,3.28,7.81,7.93-1.99.44-3.85.85-5.84.11-6.1-.71-.48,9.55.25,12.56,8.76-3.47,9.99-2.69,17.25,3.05,4.43,13.94.13,29.53.14,43.84,1.89.36,3.61.7,5.25,1.01.49,5.13-2.36,8.41-7.95,9.37-3.63,11.21,0,23.95,4.55,34.54,2.06,4.08,8.09,2.72,10.01,6.57.36,1.11.87,2.26,2.57,2.81,5.28-12.32,8.93-28.83,24.07-32.07,6.78-.26,9.52-7.51,15.7-9.29,6.2-3.23,16.46-2.76,19.67-9.61Z" fill="url(#linear-gradient-5)" stroke-width="0"/><path d="M50.87,222.24c-.07,1.46.07,3.07-.29,4.55-.21.9-1.14,1.66-1.85,2.38-.45.46-1.31.59-1.62,1.09-1.53,2.48-3.91,2.69-6.43,2.64-.27,0-.55.1-.82.15.02.14.04.27.06.4.05.28.08.53.11.75,0,.08.02.16.03.24.01.1.02.2.02.29.02.19.02.35.01.51,0,.16-.03.3-.06.42-.01.06-.03.12-.05.17-.02.05-.05.1-.07.15,0,0,0,.02-.01.03-.06.09-.11.18-.18.26-.34.4-.96.72-1.96,1.17-.08.03-.16.07-.25.11-1.78.78-3.56,1.59-5.35,2.34-.66.28-1.32.55-1.99.81-.67.26-1.33.51-2.01.75-.58.2-1.13.43-1.66.68-.25.11-.49.23-.72.36-.03.01-.07.03-.1.05-.24.13-.48.26-.71.42-.48.3-.95.63-1.39,1-.21.18-.42.37-.62.58t-.02.01c-.2.19-.39.39-.57.61-.01,0-.02.01-.02.02-.26.3-.51.61-.74.95-.07.1-.13.19-.2.28-.27.38-.55.72-.85,1.03-.81.84-1.75,1.39-2.99,1.39-.13,0-.26-.01-.39-.02-.14-.01-.28-.03-.43-.06-.05,0-.1-.01-.16-.03-.11-.02-.23-.05-.35-.08-.95-.26-2.06.03-3.1.14-1.93.22-3,1.18-3.34,3.2-.01.08-.03.16-.05.23-.09.53-.22,1.03-.38,1.52-.15.49-.33.96-.56,1.41-.1.23-.23.45-.36.67-.13.21-.26.43-.41.63-.15.21-.31.41-.48.61-.15.18-.32.36-.49.53-.01.02-.03.04-.05.05-.09.09-.18.18-.27.26-1.04.95-1.9,2.1-2.89,3.11-.53.54-1.05,1.08-1.59,1.61-.02.01-.03.03-.05.04-.28.27-.56.53-.85.78-.29.27-.58.51-.88.73v-17.22c-.05.03-.1.07-.15.11.05-.04.1-.08.15-.12.05-.04.09-.07.14-.11.33-.27.67-.54,1.01-.8.04-.04.08-.07.12-.1.02-.01.04-.03.06-.04.45-.36.9-.72,1.35-1.08.74-.59,1.49-1.16,2.24-1.74.2-.16.41-.32.62-.48.3-.23.6-.46.9-.68,0-.01.01-.01.01-.01.03-.02.05-.04.08-.06.12-.09.24-.18.36-.28.03-.02.07-.05.1-.06.19-.15.37-.29.56-.43l.87-.66c1.93-1.44,3.88-2.87,5.86-4.27.25-.18.5-.35.75-.53.41-.29.82-.58,1.23-.86.05-.04.1-.08.16-.11.27-.2.54-.38.81-.58h0c.27-.18.53-.37.8-.55.16-.11.32-.22.48-.34.07-.04.14-.09.21-.14.5-.34,1-.68,1.5-1.01.39-.27.79-.54,1.18-.8.11-.07.21-.15.32-.22.5-.33,1-.67,1.51-1,.64-.42,1.27-.83,1.9-1.23.38-.25.76-.5,1.14-.74.43-.28.85-.55,1.28-.82.23-.15.46-.3.69-.44.13-.08.26-.17.39-.24.32-.21.64-.41.96-.6.1-.07.2-.13.3-.19.21-.13.42-.26.63-.38.16-.11.32-.21.48-.3.1-.07.21-.14.31-.19.09-.07.19-.12.28-.17.01-.02.03-.03.04-.03.02-.02.05-.03.07-.03.24-.16.49-.31.73-.46h.01c.31-.2.62-.39.94-.57.28-.18.57-.35.85-.51.3-.18.59-.36.89-.53.14-.08.29-.17.43-.25.17-.1.35-.21.52-.31.08-.04.15-.09.23-.13.14-.08.28-.16.42-.25.24-.15.48-.29.72-.43.02-.01.03-.01.04-.02.02-.01.03-.02.04-.02.11-.07.21-.13.32-.19.01-.01.02-.01.03-.02h.01c.22-.13.45-.26.67-.39.05-.03.1-.06.16-.09.16-.1.33-.19.49-.28.02-.01.03-.02.05-.03t.02-.02s.05-.02.08-.04l.06-.03c.16-.1.32-.19.48-.27.04-.03.09-.06.14-.08.21-.12.42-.23.63-.36.4-.23.8-.45,1.2-.67.44-.26.9-.5,1.35-.75.12-.07.25-.14.38-.21.13-.07.27-.14.4-.22.07-.04.15-.09.22-.12.12-.07.23-.14.35-.2h.01c.65.53,1.26,1.07,1.86,1.65.26.25.45.58.64.91.22.4.44.81.76,1.1.61.55,1.46.83,2.54,1.4Z" fill="url(#linear-gradient-6)" stroke-width="0"/><path d="M.86,326.67c-.08.13-.19.27-.34.41v-3.25c.06.15.12.31.17.46.31.89.44,1.47.34,1.94-.02.08-.04.15-.07.22-.03.08-.06.15-.1.22Z" fill="url(#linear-gradient-7)" stroke-width="0"/><path d="M9.36,344.06c-.22.16-.43.33-.62.51-.15.12-.28.25-.42.38-.03.03-.07.06-.1.09-.23.23-.45.47-.66.7-.08.09-.17.18-.25.27-.08.1-.17.19-.26.29-.46.51-.91,1-1.43,1.42-.09.07-.18.14-.27.21s-.19.14-.3.21c-.09.06-.18.12-.28.17-.09.05-.18.1-.27.15-.13.06-.26.12-.39.17-.18.07-.36.14-.56.19-1.01.28-1.68,1.85-2.7,3.06-.11-.16-.22-.31-.33-.47v-17.75c.75.62,1.49,1.26,2.21,1.92.19.16.37.33.55.51.39.36.77.73,1.14,1.11.95.98,1.4,2.44,2.21,3.58.11.16.22.31.34.47.02.03.05.06.08.1.66.85,1.43,1.68,2.31,2.71Z" fill="url(#linear-gradient-8)" stroke-width="0"/><path d="M295.61,276.92c-.6,2.06-1.86,2.31-3.5,2.53-3.31.44-5.72,2.25-7.5,5.01-.86,1.33-1.76,2.65-2.78,3.85-1.52,1.79-2.6,3.69-2.33,6.14.21,1.85-.22,3.53-1.13,5.16-.39.7-.8,1.76-.54,2.38.95,2.3.2,4.21-.88,6.16-.66,1.18-.55,2.26.39,3.37,1.81,2.13,1.71,2.36-.73,3.51-.24.11-.45.31-.61.42.24,3.54,3.03,2.84,5.06,3.21q-.65,3.06,1.86,4.24c.42.2.84.39,1.26.58.44.2.88.38,1.33.55,2.51.93,4.1.17,5.38-2.66-2.55-2.14-5.14-4.38-5.63-8.03-1.84-1.97-1.36-4.24-.66-6.41.99-3.06,1.66-6.14,1.72-9.37.01-.72.43-1.69.98-2.1,2.52-1.88,3.98-4.57,5.25-7.25.95-2.01,2.2-3.4,4.03-4.51,2.73-1.66,5.26-3.56,6.45-6.98-1-.87-1.39-2.59-3.35-2.41-1.13.1-2.25.48-3.04,1.12-.49.39-.86.89-1.03,1.48Z" fill="url(#linear-gradient-9)" stroke-width="0"/><path d="M100.66,357.83c.79.07,1.56.14,2.34.21.54.05,1.07.1,1.63.15-.67,2.41-3.27,1.47-4.64,3.46,1.19.28,2.16.46,3.1.75,1.24.39,1.46,1.48.51,2.35-.28.25-.69.36-.93.64-.4.45-.71.97-1.05,1.46.52.3,1.03.83,1.57.87,2.18.16,4.48-.38,6.28,1.46.21.21.63.25.99.28.03,0,.06,0,.09,0,1.67.15,3.34.27,5.06.4.39-.9.76-1.74.93-2.12,1.71-.71,3.02-1.16,4.24-1.79,1.2-.62,2.3-1.42,3.59-2.24.9-2.55-.67-4.99-1.11-7.56-.1-.57-1.21-1.5-1.26-1.46-1.33.99-1.5-1.18-2.35-.64-.71.45-1.42.9-2.15,1.37-.66.42-1.35.86-2.07,1.32-.11-.87-.17-1.35-.3-2.43,0-.04,0-.07-.01-.11-.01.02-.02.04-.03.06-.59,1.26-.92,1.96-1.34,2.87-.59-.62-1.04-1.09-1.61-1.69-.05-.05-.09-.09-.14-.14-.13.16-.26.32-.38.47-.51.64-.96,1.2-1.42,1.77-.41-.21-.82-.41-1.29-.65-.68,1.09-.89,2.84-3.2,2.12.27-1.16.53-2.26.83-3.55,0,0,0,0,0,0-.98-.65-2.07-1.36-3.29-2.16-.71.82-1.39,1.61-2.1,2.43-.54.63-1.1,1.27-1.7,1.96.41.04.82.07,1.21.11Z" fill="url(#linear-gradient-10)" stroke-width="0"/><path d="M376,685.06v84.57c-12.98,2.76-26.14,4.8-39.39,6.11-2.21.22-4.43.42-6.65.59-19.85,1.59-39.86,1.51-59.73-.32-2.41-.23-6.55-.65-11.11-1.4-.02,0-.03-.01-.05-.01h-.03s-.03-.01-.03-.01c-3.64-.61-7.54-1.44-11.04-2.57h-.01c-.42-.14-.85-.28-1.26-.42t-.02-.01c-9.14-3.21-14.81-8.62-4.25-17.69,7.66-6.57,23.68-8.94,33.08-13.47,11.88-5.72,23.24-12.44,34.1-19.81,3.54-2.4,7.22-4.73,11.01-6.99,17.09-10.24,36.53-19.32,55.38-28.57Z" fill="url(#linear-gradient-11)" stroke-width="0"/><path d="M376,638.87v100.56c-16.93,8.1-34.5,14.83-52.51,20.08-14.74,4.29-29.77,7.58-44.96,9.78-.07.01-.14.02-.21.03-.02.01-.04.01-.06.01,0,0,0,.01-.02,0-5.81.85-11.62,1.53-17.47,2.05-.21.02-.43.04-.64.06-2.4.21-6.57.53-11.19.57h-.04c-.31.01-.62.01-.93.01h-.01c-3.44,0-7.09-.17-10.4-.67-9.63-1.46-16.5-5.74-7.75-16.79,6.2-7.81,21.1-12.96,29.3-19.07,10.38-7.73,20.08-16.33,29.19-25.5,16.37-16.47,37.43-31.62,57.58-46.86.4-.3.8-.6,1.2-.9,10.14-7.69,20.02-15.42,28.92-23.36Z" fill="url(#linear-gradient-12)" stroke-width="0"/><path d="M108.19,766.05h-.01c-1.11.36-2.26.69-3.43.99-2.38.61-4.85,1.1-7.21,1.5h-.02c-.06.02-.12.03-.18.03h0s-.02.01-.02.01c-2.18.37-4.28.66-6.14.89,0,0,0,.01-.01,0-2.13.26-3.95.44-5.27.56-22.09,2.05-44.35,1.92-66.38-.26-6.36-.63-12.7-1.43-19.01-2.4v-78.33c3.27,1.6,6.51,3.21,9.72,4.84.47.24.93.47,1.39.71.3.15.6.3.9.46,10.24,5.24,20.16,10.65,29.24,16.47,1.62,1.02,3.21,2.07,4.77,3.13,10.85,7.37,22.22,14.08,34.09,19.81,9.4,4.52,25.43,6.9,33.08,13.47,11.04,9.49,4.34,14.97-5.53,18.12Z" fill="url(#linear-gradient-13)" stroke-width="0"/><path d="M108.19,766.05h-.01c-1.25,0-2.47-.02-3.63-.06h-.01c-.99-.03-1.94-.07-2.84-.12-2.32-.12-4.3-.28-5.69-.4-3.71-.32-7.41-.71-11.09-1.17-.01.01-.02,0-.03,0h-.02s-.02-.01-.03-.01c-2.13-.25-4.26-.53-6.39-.84-15.48-2.22-30.79-5.55-45.8-9.92-10.88-3.17-21.62-6.89-32.13-11.12v-92.7c2.85,2.21,5.73,4.42,8.63,6.62,5.74,4.34,11.55,8.68,17.32,13.04,10.55,7.97,20.95,16.02,30.38,24.35,3.84,3.38,7.52,6.81,10.98,10.3,9.12,9.17,18.83,17.77,29.19,25.49,8.22,6.11,23.12,11.27,29.3,19.08,2.35,2.97,3.58,5.45,3.92,7.52,1.39,8.28-11.3,9.94-22.07,9.94Z" fill="url(#linear-gradient-14)" stroke-width="0"/><path d="M356.38,680.41c-.18,2.18-.88,4.53-2.26,7.11-4.24,7.91-14.62,11.88-23.05,8.81-2.46-.9-5.04-2.33-7.53-1.51-4.67,1.53-3.76,8.22-3.1,13.09.26,1.9.31,3.82.17,5.72-.58,8.07-4.59,15.89-10.94,20.9-7.88,6.2-19.08,7.86-28.4,4.21,2.02,10.72-2.77,22.41-11.72,28.63-2.67,1.85-5.66,3.19-8.78,4.01-3.85,1-7.9,1.21-11.83.63h-.04c-.74-.11-1.47-.25-2.2-.41t-.02-.01c-2.82-.65-5.54-1.72-8.03-3.22-.35.99-.71,1.98-1.09,2.98-1,2.68-2.09,5.4-3.31,8.05h0s-.01.01-.01.01v.02c-4.74,10.27-11.36,19.54-21.96,21.94-11.82,2.67-23.39-4.58-33.34-11.49-1.04-.72-2.09-1.45-3.13-2.17-2.72-1.88-5.43-3.77-8.15-5.65-.01,0-.01-.01-.02-.01h-.01c-12.46-8.65-24.93-17.3-37.39-25.94-26.98-18.71-53.96-37.42-80.93-56.13-10.59-7.35-21.19-14.7-31.78-22.04h0c-3.07-2.13-6.14-4.26-9.2-6.39-1.05-.73-2.1-1.46-3.14-2.23-1.64-1.21-3.24-2.48-4.68-3.89v-55.93c1.93-8.68,4.2-17.29,6.79-25.8,2.14-7.07,4.51-14.07,7.1-20.99,2.86-7.65,6.59-15.88,13.99-19.33,4.92-2.29,10.14-1.99,15.41-.64,5.59,1.43,11.22,4.03,16.61,6,14.53,5.29,30.75,5.65,45.6,1.37,1.58-.44,3.14-.95,4.69-1.51.11-.04.21-.07.32-.11,4.49-1.65,8.8-3.73,12.87-6.24,13.21-8.15,23.85-20.5,38.23-26.37,16.44-6.7,34.31-3.71,50.98,3.44,9.01,3.87,17.67,8.95,25.57,14.37,22.31,15.3,42.31,33.58,59.58,54.14.16.18.31.35.45.53,16.52,19.7,30.57,41.49,41.83,64.74,1.59,3.29,4.04,6.24,6.54,9.13,4.86,5.6,9.9,10.97,9.3,18.18Z" fill="url(#linear-gradient-15)" stroke-width="0"/><path d="M376,573.23v99.87c-3.73,1.5-7.46,2.99-11.21,4.5-3.16,1.84-6.03,2.77-8.41,2.81-4.62.07-7.41-3.19-7.05-9.6-.41-2.87-1.69-5.4-3.45-7.68-2.53-3.29-6.07-6.04-9.45-8.53-19.38-14.3-38.75-28.6-58.14-42.9h-.01s-.04-.03-.06-.05c-8.58-6.33-17.18-12.66-25.76-19-7.82-5.77-16.02-11.71-25.59-13.42-13.38-1.13-26.5,2.44-38.97,7.96-.01,0-.02.01-.03.01-.03.02-.07.03-.1.05-.07.03-.13.06-.2.09-1.48.66-2.96,1.35-4.42,2.06l-.06.03c-9.32,4.53-18.23,9.99-26.58,15.18-12.17,9.16-29.38,21.17-44.71,17.92-7.08-1.51-11.49-8.75-9.82-15.81,3-12.75,8.54-24,15.92-33.84.05-.07.1-.13.16-.2.89-1.18,1.81-2.35,2.76-3.48.01-.02.03-.05.05-.07.03-.04.05-.07.08-.1,17.77-21.4,44.48-35.62,72.16-43.69,6.53-2.37,13.2-4.76,20-6.02,4.19-.77,8.41-1.11,12.67-.74,17.6,3.1,33.13,13.32,49.47,21.14,0,0,.02,0,.03,0h.01s.09.05.14.07c1.99.95,3.97,1.86,5.99,2.72h.02c.06.03.13.06.2.09h.01c1.97.83,3.94,1.62,5.94,2.33.06.03.13.05.19.07.01,0,.02.01.03.01.04.01.08.03.12.04,6.27,2.21,12.75,3.77,19.58,4.18,1.89.24,3.8.41,5.71.52h.09c9.65.54,19.45-.56,28.6-3.69.45-.15.9-.31,1.35-.47,1.43-.53,3.1-1.51,4.83-2.39,2.67-1.39,5.46-2.57,7.72-1.57,1.13,1.46,2.24,2.93,3.33,4.43,5.74,7.84,10.93,16.17,15.62,24.84.42.77.83,1.54,1.24,2.32Z" fill="url(#linear-gradient-16)" stroke-width="0"/><path d="M43.35,708.44c-10.88,17.47,9.28,45.1,27.33,31.24-6.61,17.9,20.59,41.37,33.45,23.43,2.2,19.96,16.58,29.51,33.63,14.15-2.96,48.73,42.24,23.46,44.69-8.72,4.18-12.27-17.29-31.85-27.18-18.82.78-19.46-18.46-36.2-32.02-19.61,9.34-24.96-11.73-36.45-30.85-17.3,10.16-40.93-37.94-27.68-49.05-4.38Z" fill="url(#linear-gradient-17)" stroke-width="0"/><polygon points="376 523.91 376 634.7 348.96 546.07 348.09 543.21 345 533.09 362.85 527.8 363.52 527.6 368.24 526.2 368.25 526.2 368.56 526.11 368.71 526.07 374.87 524.24 376 523.91" fill="#fefeff" stroke-width="0"/><polygon points="46.53 533.81 43.81 542.74 26.15 600.65 9.16 656.33 5.2 669.32 .52 684.65 .52 520.18 9.91 522.96 46.53 533.81" fill="#fefeff" stroke-width="0"/><polygon points="10.22 522.09 9.91 522.96 .52 549.34 .52 517.97 10.22 522.09" fill="#2c3d69" stroke-width="0"/><path d="M324.47,165.53c-5,0-9.76,1.03-14.09,2.88-.21.09-.44.02-.57-.17-6.45-9.52-17.34-15.76-29.71-15.76-19.88,0-35.97,16.16-35.89,36.07l.5.49h46.08s25.19,0,25.19,0h41.47c.34,0,.58-.35.46-.66-5.21-13.37-18.22-22.84-33.43-22.84Z" fill="#4dc2e7" stroke-width="0"/><path d="M142.84,101.07c-.19.19-.3.3-.49.48L.52,87.75v-17.26c.33-.05.65-.09.98-.12,2.36-.24,4.67-.2,6.9.1,8.22,1.11,15.31,5.69,19.8,12.21.11.16.31.23.5.18,2.28-.58,4.68-.89,7.15-.89,4.27,0,8.33.93,11.96,2.61,3.61,1.65,6.81,4.02,9.41,6.93.17.19.43.21.63.07,4.24-3.18,9.49-5.04,15.19-5.04,2.32,0,4.59.31,6.73.9.23.07.46-.05.56-.26.54-1.24,1.16-2.44,1.85-3.6,5.68-9.57,16.12-15.98,28.05-15.98s22.43,6.44,28.1,16.05c3,5.08,4.67,11.05,4.51,17.42Z" fill="#4dc2e7" stroke-width="0"/><rect x="298.34" y="516.2" width="0" height="3.51" fill="none" opacity=".07" stroke-width="0"/></g></g></svg>