<?xml version="1.0" encoding="UTF-8"?><svg id="Layer_2" xmlns="http://www.w3.org/2000/svg" xmlns:xlink="http://www.w3.org/1999/xlink" viewBox="0 0 376 812"><defs><radialGradient id="radial-gradient" cx="187.87" cy="406" fx="187.87" fy="406" r="315.79" gradientTransform="translate(-1.86) scale(1.01 1)" gradientUnits="userSpaceOnUse"><stop offset="0" stop-color="#57bf8c"/><stop offset="1" stop-color="#3aa068"/></radialGradient><linearGradient id="linear-gradient" x1="0" y1="186.04" x2="375.94" y2="186.04" gradientUnits="userSpaceOnUse"><stop offset="0" stop-color="#6ebac1"/><stop offset=".07" stop-color="#74babe"/><stop offset=".32" stop-color="#85bab7"/><stop offset=".5" stop-color="#8cbbb5"/><stop offset=".66" stop-color="#84bab7"/><stop offset=".91" stop-color="#6fbac0"/><stop offset=".92" stop-color="#6ebac1"/></linearGradient><radialGradient id="radial-gradient-2" cx="285.75" cy="466.78" fx="285.75" fy="466.78" r="95.15" xlink:href="#radial-gradient"/><linearGradient id="linear-gradient-2" x1="298.44" y1="450.57" x2="366.03" y2="450.57" gradientUnits="userSpaceOnUse"><stop offset="0" stop-color="#266d4f"/><stop offset="1" stop-color="#2e7d5d"/></linearGradient><linearGradient id="linear-gradient-3" x1="295.55" y1="361.07" x2="345.32" y2="361.07" xlink:href="#linear-gradient-2"/><linearGradient id="linear-gradient-4" x1="297.12" y1="412.42" x2="301.47" y2="412.42" xlink:href="#linear-gradient-2"/><linearGradient id="linear-gradient-5" x1="347.15" y1="317.38" x2="375.94" y2="317.38" xlink:href="#linear-gradient-2"/><linearGradient id="linear-gradient-6" x1="327.02" y1="306.98" x2="336.45" y2="306.98" xlink:href="#linear-gradient-2"/><linearGradient id="linear-gradient-7" x1="331.64" y1="292.73" x2="363.28" y2="292.73" xlink:href="#linear-gradient-2"/><linearGradient id="linear-gradient-8" x1="321.66" y1="327.01" x2="346.01" y2="327.01" xlink:href="#linear-gradient-2"/><linearGradient id="linear-gradient-9" x1="-2.39" y1="587.2" x2="373.55" y2="587.2" gradientUnits="userSpaceOnUse"><stop offset=".26" stop-color="#fcf0d6"/><stop offset="1" stop-color="#ffa"/></linearGradient><linearGradient id="linear-gradient-10" x1="73.81" y1="465.48" x2="124.68" y2="465.48" gradientUnits="userSpaceOnUse"><stop offset="0" stop-color="#57bf8c"/><stop offset="1" stop-color="#3aa068"/></linearGradient><linearGradient id="linear-gradient-11" x1="222.77" y1="407.58" x2="305.2" y2="407.58" xlink:href="#linear-gradient-2"/></defs><g id="Layer_1-2"><g opacity=".07"><path d="M376,505.61s-.04,0-.06-.02v306.41H0V0h375.94v505.58s.04.02.06.03Z" fill="url(#radial-gradient)" stroke-width="0"/><path d="M375.94,0v372.07h-14.18c.09-.63.18-1.26.28-1.88.08-.53.17-1.05.27-1.58.18-1.04.37-2.09.59-3.12.2-1.04.42-2.08.67-3.1-1.7.51-3.39,1.01-5.06,1.52-7.51,2.25-14.76,4.45-21.76,6.63-1.14.35-2.27.7-3.4,1.06-.51.15-1.01.31-1.52.47H0V0h375.94Z" fill="url(#linear-gradient)" stroke-width="0"/><path d="M363.57,362.39c-.73,3.19-1.34,6.41-1.81,9.68h-29.92c10.03-3.15,20.6-6.36,31.73-9.68Z" fill="#9dc1be" stroke-width="0"/><path d="M375.94,88.4v312.75H0V72.65C50.18,37.43,111.49,16.73,177.69,16.73c7.63,0,15.2.28,22.7.82,66.67,4.81,127.43,30.66,175.55,70.85Z" fill="#a5ba97" stroke-width="0"/><path d="M375.94,143.24v257.91H0V123.94c11.64-9.85,24.13-18.75,37.34-26.56,1.28-.77,2.58-1.53,3.88-2.27.52-.3,1.01-.59,1.53-.84.01-.02.02-.03.03-.03,3.95-2.23,7.97-4.36,12.05-6.38,0,0,0,0,.01,0,25.72-12.81,53.74-21.72,83.31-25.95h0c8.72-1.25,17.57-2.1,26.55-2.51,4.3-.2,8.63-.3,12.98-.3,7.65,0,15.22.31,22.71.92.52.04,1.02.09,1.53.13,11.5,1,22.78,2.7,33.82,5.06h.01c38.84,8.3,74.61,24.77,105.39,47.5,5.92,4.36,11.66,8.97,17.2,13.8,6.11,5.32,11.99,10.9,17.59,16.74Z" fill="#f2c25c" stroke-width="0"/><path d="M36.14,102.93c.23,0,.45,0,.68.01,3.73-9.19,12.82-15.68,23.45-15.68,9.16,0,17.19,4.83,21.61,12.06.06.09.17.14.28.12.98-.16,1.97-.24,2.99-.24,10.2,0,18.47,8.18,18.47,18.28,0,.29,0,.57-.02.86,0,.15-.13.26-.28.26h-18.61s-17.99,0-17.99,0h-12.29s-18.59,0-18.59,0h-17.64c-.17,0-.31-.16-.28-.32,1.42-8.7,9.04-15.34,18.23-15.34Z" fill="#bdeaf6" stroke-width="0"/><path d="M345.49,112.27c-3.06,0-5.98.62-8.63,1.74-.13.05-.27.01-.35-.1-3.95-5.76-10.62-9.54-18.18-9.54-12.17,0-22.02,9.78-21.97,21.83l.3.3h28.21s15.42,0,15.42,0h25.38c.21,0,.36-.21.28-.4-3.19-8.1-11.15-13.83-20.46-13.83Z" fill="#4dc2e7" stroke-width="0"/><path d="M217.28,52.99c-8.19,0-15.22,4.87-18.31,11.85-.06.13-.2.2-.34.16-1.31-.36-2.7-.55-4.12-.55-3.48,0-6.7,1.13-9.3,3.05-.12.09-.28.07-.39-.04-3.22-3.55-7.88-5.78-13.09-5.78-1.51,0-2.98.19-4.38.54-.12.03-.24-.02-.3-.11-4.07-5.85-11.66-9.12-19.76-6.79-7.15,2.06-12.03,8.6-12.29,15.96-.02.69-.01,1.33.04,1.98.01.15.14.27.3.27h101.59c.12-.11.19-.18.3-.29.28-11.14-8.76-20.26-19.96-20.26Z" fill="#4dc2e7" stroke-width="0"/><rect x="74.82" y="167" width="51.49" height="235.88" transform="translate(201.14 569.87) rotate(-180)" fill="#c66f66" stroke-width="0"/><rect y="201" width="10.09" height="201.43" fill="#c66f66" stroke-width="0"/><rect x="224.14" y="144.02" width="26.7" height="274.56" transform="translate(474.97 562.61) rotate(-180)" fill="#c66f66" stroke-width="0"/><rect x="263.33" y="165.39" width="73.42" height="235.88" transform="translate(600.08 566.65) rotate(-180)" fill="#c66f66" stroke-width="0"/><rect x="301.5" y="195.19" width="57.01" height="261.16" fill="#c85746" stroke-width="0"/><rect x="365.89" y="146.09" width="10.05" height="261.16" fill="#c85746" stroke-width="0"/><rect x="117.7" y="117.71" width="29.56" height="303.99" fill="#c85746" stroke-width="0"/><rect y="166.81" width="72.31" height="261.16" fill="#c85746" stroke-width="0"/><rect x="373.29" y="169.07" width="2.65" height="12.54" fill="#fffeff" stroke-width="0"/><rect x="373.29" y="189.97" width="2.65" height="12.53" fill="#fffeff" stroke-width="0"/><rect x="373.29" y="210.86" width="2.65" height="12.53" fill="#fffeff" stroke-width="0"/><rect x="373.29" y="231.75" width="2.65" height="12.54" fill="#fffeff" stroke-width="0"/><rect x="373.29" y="252.64" width="2.65" height="12.54" fill="#fffeff" stroke-width="0"/><rect x="373.29" y="273.54" width="2.65" height="12.53" fill="#fffeff" stroke-width="0"/><rect x="373.29" y="294.43" width="2.65" height="12.54" fill="#fffeff" stroke-width="0"/><rect x="373.29" y="315.32" width="2.65" height="12.54" fill="#fffeff" stroke-width="0"/><rect x="373.29" y="336.22" width="2.65" height="12.53" fill="#fffeff" stroke-width="0"/><rect x="308.89" y="205.64" width="7.39" height="12.54" fill="#fffeff" stroke-width="0"/><rect x="320.5" y="205.64" width="7.39" height="12.54" fill="#fffeff" stroke-width="0"/><rect x="332.12" y="205.64" width="7.39" height="12.54" fill="#fffeff" stroke-width="0"/><rect x="343.73" y="205.64" width="7.39" height="12.54" fill="#fffeff" stroke-width="0"/><rect x="308.89" y="226.53" width="7.39" height="12.54" fill="#fffeff" stroke-width="0"/><rect x="320.5" y="226.53" width="7.39" height="12.54" fill="#fffeff" stroke-width="0"/><rect x="332.12" y="226.53" width="7.39" height="12.54" fill="#fffeff" stroke-width="0"/><rect x="343.73" y="226.53" width="7.39" height="12.54" fill="#fffeff" stroke-width="0"/><rect x="308.89" y="247.42" width="7.39" height="12.54" fill="#fffeff" stroke-width="0"/><rect x="320.5" y="247.42" width="7.39" height="12.54" fill="#fffeff" stroke-width="0"/><rect x="332.12" y="247.42" width="7.39" height="12.54" fill="#fffeff" stroke-width="0"/><rect x="343.73" y="247.42" width="7.39" height="12.54" fill="#fffeff" stroke-width="0"/><rect x="308.89" y="268.31" width="7.39" height="12.54" fill="#fffeff" stroke-width="0"/><rect x="320.5" y="268.31" width="7.39" height="12.54" fill="#fffeff" stroke-width="0"/><rect x="332.12" y="268.31" width="7.39" height="12.54" fill="#fffeff" stroke-width="0"/><rect x="343.73" y="268.31" width="7.39" height="12.54" fill="#fffeff" stroke-width="0"/><rect x="308.89" y="289.21" width="7.39" height="12.54" fill="#fffeff" stroke-width="0"/><rect x="320.5" y="289.21" width="7.39" height="12.54" fill="#fffeff" stroke-width="0"/><rect x="332.12" y="289.21" width="7.39" height="12.54" fill="#fffeff" stroke-width="0"/><rect x="343.73" y="289.21" width="7.39" height="12.54" fill="#fffeff" stroke-width="0"/><rect x="308.89" y="310.1" width="7.39" height="12.54" fill="#fffeff" stroke-width="0"/><rect x="320.5" y="310.1" width="7.39" height="12.54" fill="#fffeff" stroke-width="0"/><rect x="332.12" y="310.1" width="7.39" height="12.54" fill="#fffeff" stroke-width="0"/><rect x="343.73" y="310.1" width="7.39" height="12.54" fill="#fffeff" stroke-width="0"/><rect x="308.89" y="330.99" width="7.39" height="12.54" fill="#fffeff" stroke-width="0"/><rect x="320.5" y="330.99" width="7.39" height="12.54" fill="#fffeff" stroke-width="0"/><rect x="332.12" y="330.99" width="7.39" height="12.54" fill="#fffeff" stroke-width="0"/><rect x="343.73" y="330.99" width="7.39" height="12.54" fill="#fffeff" stroke-width="0"/><rect x="308.89" y="351.88" width="7.39" height="12.54" fill="#fffeff" stroke-width="0"/><rect x="320.5" y="351.88" width="7.39" height="12.54" fill="#fffeff" stroke-width="0"/><rect x="332.12" y="351.88" width="7.39" height="12.54" fill="#fffeff" stroke-width="0"/><rect x="343.73" y="351.88" width="7.39" height="12.54" fill="#fffeff" stroke-width="0"/><rect x="308.89" y="372.78" width="7.39" height="12.54" fill="#fffeff" stroke-width="0"/><rect x="320.5" y="372.78" width="7.39" height="12.54" fill="#fffeff" stroke-width="0"/><rect x="332.12" y="372.78" width="7.39" height="12.54" fill="#fffeff" stroke-width="0"/><rect x="343.73" y="372.78" width="7.39" height="12.54" fill="#fffeff" stroke-width="0"/><rect x="10.02" y="183.52" width="7.39" height="12.54" fill="#fffeff" stroke-width="0"/><rect x="21.64" y="183.52" width="7.39" height="12.54" fill="#fffeff" stroke-width="0"/><rect x="33.25" y="183.52" width="7.39" height="12.54" fill="#fffeff" stroke-width="0"/><rect x="44.86" y="183.52" width="7.39" height="12.54" fill="#fffeff" stroke-width="0"/><rect x="10.02" y="204.42" width="7.39" height="12.54" fill="#fffeff" stroke-width="0"/><rect x="21.64" y="204.42" width="7.39" height="12.54" fill="#fffeff" stroke-width="0"/><rect x="33.25" y="204.42" width="7.39" height="12.54" fill="#fffeff" stroke-width="0"/><rect x="44.86" y="204.42" width="7.39" height="12.54" fill="#fffeff" stroke-width="0"/><rect x="10.02" y="225.31" width="7.39" height="12.54" fill="#fffeff" stroke-width="0"/><rect x="21.64" y="225.31" width="7.39" height="12.54" fill="#fffeff" stroke-width="0"/><rect x="33.25" y="225.31" width="7.39" height="12.54" fill="#fffeff" stroke-width="0"/><rect x="44.86" y="225.31" width="7.39" height="12.54" fill="#fffeff" stroke-width="0"/><rect x="10.02" y="246.2" width="7.39" height="12.54" fill="#fffeff" stroke-width="0"/><rect x="21.64" y="246.2" width="7.39" height="12.54" fill="#fffeff" stroke-width="0"/><rect x="33.25" y="246.2" width="7.39" height="12.54" fill="#fffeff" stroke-width="0"/><rect x="44.86" y="246.2" width="7.39" height="12.54" fill="#fffeff" stroke-width="0"/><rect x="10.02" y="267.1" width="7.39" height="12.54" fill="#fffeff" stroke-width="0"/><rect x="21.64" y="267.1" width="7.39" height="12.54" fill="#fffeff" stroke-width="0"/><rect x="33.25" y="267.1" width="7.39" height="12.54" fill="#fffeff" stroke-width="0"/><rect x="44.86" y="267.1" width="7.39" height="12.54" fill="#fffeff" stroke-width="0"/><rect x="10.02" y="287.99" width="7.39" height="12.54" fill="#fffeff" stroke-width="0"/><rect x="21.64" y="287.99" width="7.39" height="12.54" fill="#fffeff" stroke-width="0"/><rect x="33.25" y="287.99" width="7.39" height="12.54" fill="#fffeff" stroke-width="0"/><rect x="44.86" y="287.99" width="7.39" height="12.54" fill="#fffeff" stroke-width="0"/><rect x="10.02" y="308.88" width="7.39" height="12.54" fill="#fffeff" stroke-width="0"/><rect x="21.64" y="308.88" width="7.39" height="12.54" fill="#fffeff" stroke-width="0"/><rect x="33.25" y="308.88" width="7.39" height="12.54" fill="#fffeff" stroke-width="0"/><rect x="44.86" y="308.88" width="7.39" height="12.54" fill="#fffeff" stroke-width="0"/><rect x="10.02" y="329.77" width="7.39" height="12.54" fill="#fffeff" stroke-width="0"/><rect x="21.64" y="329.77" width="7.39" height="12.54" fill="#fffeff" stroke-width="0"/><rect x="33.25" y="329.77" width="7.39" height="12.54" fill="#fffeff" stroke-width="0"/><rect x="44.86" y="329.77" width="7.39" height="12.54" fill="#fffeff" stroke-width="0"/><rect x="10.02" y="350.67" width="7.39" height="12.54" fill="#fffeff" stroke-width="0"/><rect x="21.64" y="350.67" width="7.39" height="12.54" fill="#fffeff" stroke-width="0"/><rect x="33.25" y="350.67" width="7.39" height="12.54" fill="#fffeff" stroke-width="0"/><rect x="44.86" y="350.67" width="7.39" height="12.54" fill="#fffeff" stroke-width="0"/><rect x="122.98" y="131.29" width="7.39" height="12.54" fill="#fffeff" stroke-width="0"/><rect x="134.6" y="131.29" width="7.39" height="12.54" fill="#fffeff" stroke-width="0"/><rect x="122.98" y="152.19" width="7.39" height="12.54" fill="#fffeff" stroke-width="0"/><rect x="134.6" y="152.19" width="7.39" height="12.54" fill="#fffeff" stroke-width="0"/><rect x="122.98" y="173.08" width="7.39" height="12.54" fill="#fffeff" stroke-width="0"/><rect x="134.6" y="173.08" width="7.39" height="12.54" fill="#fffeff" stroke-width="0"/><rect x="122.98" y="193.97" width="7.39" height="12.54" fill="#fffeff" stroke-width="0"/><rect x="134.6" y="193.97" width="7.39" height="12.54" fill="#fffeff" stroke-width="0"/><rect x="122.98" y="214.86" width="7.39" height="12.54" fill="#fffeff" stroke-width="0"/><rect x="134.6" y="214.86" width="7.39" height="12.54" fill="#fffeff" stroke-width="0"/><rect x="122.98" y="235.76" width="7.39" height="12.54" fill="#fffeff" stroke-width="0"/><rect x="134.6" y="235.76" width="7.39" height="12.54" fill="#fffeff" stroke-width="0"/><rect x="122.98" y="256.65" width="7.39" height="12.54" fill="#fffeff" stroke-width="0"/><rect x="134.6" y="256.65" width="7.39" height="12.54" fill="#fffeff" stroke-width="0"/><rect x="122.98" y="277.54" width="7.39" height="12.54" fill="#fffeff" stroke-width="0"/><rect x="134.6" y="277.54" width="7.39" height="12.54" fill="#fffeff" stroke-width="0"/><rect x="122.98" y="298.43" width="7.39" height="12.54" fill="#fffeff" stroke-width="0"/><rect x="134.6" y="298.43" width="7.39" height="12.54" fill="#fffeff" stroke-width="0"/><path d="M376,505.61s-.04,0-.06-.02v52.99c-10.48,3.5-21.23,6.15-32.19,7.83-18.89,2.89-38.37,2.72-57.19-.65-22.58-4.02-44.19-12.64-62.67-26.08-9.55-6.95-18.46-15.46-22.85-26.36-4.06-10.08-3.9-21.44-1.58-32.05,4.26-19.46,15.45-36.69,29.95-50.71,4.45-4.3,9.21-8.3,14.18-11.97,1.03-.76,2.07-1.51,3.11-2.23.28-.2.56-.4.84-.59,1.08-.74,2.16-1.47,3.26-2.18,0-.02.01-.02.02-.02,4.25-2.79,8.63-5.39,13.1-7.82,1.55-.84,3.1-1.67,4.67-2.47,1.34-.69,2.69-1.36,4.04-2.02.07-.04.15-.08.22-.11,7.27-3.56,14.73-6.76,22.29-9.73.13-.06.26-.11.39-.15h.01c1.97-.79,3.95-1.55,5.93-2.29,3.3-1.26,6.63-2.48,9.96-3.67,1.61-.58,3.21-1.15,4.82-1.71,1.32-.48,2.66-.94,3.98-1.4.08-.03.15-.06.23-.08.95-.34,1.91-.67,2.86-1,1.51-.52,3.02-1.05,4.54-1.57,1.4-.48,2.81-.96,4.21-1.44,1.55-.53,3.09-1.05,4.64-1.56.92-.31,1.84-.62,2.76-.92,1.4-.47,2.81-.93,4.22-1.38,1.53-.5,3.06-.99,4.6-1.47.76-.24,1.53-.48,2.28-.71,2.63-.82,5.26-1.61,7.89-2.37,1.27-.37,2.54-.73,3.81-1.09,1.19-.33,2.39-.66,3.58-.98,3.33-.9,6.69-1.74,10.05-2.52v112.98c-.52.75-1.04,1.33-1.57,1.79-1.23,1.02-2.47,1.31-3.51,1.24.51.39,1.08.87,1.75,1.44.94.82,2.04,1.84,3.32,3.1v19.92s.04.02.06.03Z" fill="url(#radial-gradient-2)" stroke-width="0"/><path d="M375.94,274.15v231.43c-4.87-1.83-9.61-3.99-14.2-6.42-2-1.05-3.98-2.18-5.91-3.34h-.01c-.85-.52-1.7-1.04-2.55-1.58h-.01c-.42-.27-.83-.54-1.25-.81h-.01c-7.95-5.18-15.31-11.27-21.87-18.08h-.01c-1.97-2.07-3.89-4.17-5.71-6.36-.02-.04-.05-.06-.08-.09-.66-.8-1.35-1.61-1.99-2.43v-.02c-.67-.79-1.27-1.63-1.91-2.45h-.01c-.14-.19-.27-.38-.41-.56h0c-1.72-2.32-3.37-4.66-4.91-7.09h-.01c-5.75-8.92-10.32-18.57-13.58-28.63,0-.01-.01-.01,0-.02-2.44-7.48-4.12-15.22-5.06-23.02-.05-.33-.09-.7-.11-1.04-.08-.58-.15-1.17-.18-1.75h-.01c-.03-.21-.04-.41-.05-.63h0c-.17-1.85-.31-3.72-.38-5.58-.07-1.41-.12-2.84-.12-4.25-.1-6.45.33-12.92,1.26-19.31-.01-.01-.01-.02,0-.02,0-.01,0-.02,0-.03,0-.01,0-.01,0-.01h0,0c2.53-17.57,8.99-34.56,18.75-49.43h.01c.22-.35.44-.71.69-1.05h0c.67-1.01,1.34-2.02,2.06-2.98h0c.43-.64.87-1.22,1.32-1.83h0c.83-1.15,1.71-2.26,2.58-3.38h.01c1.54-1.96,3.16-3.85,4.81-5.71h.01c.99-1.12,2.01-2.2,3.04-3.28h.01c.69-.72,1.38-1.42,2.09-2.12h0c.19-.18.35-.37.55-.54t.01,0c1.28-1.28,2.62-2.52,3.97-3.72h0c.22-.19.42-.41.65-.57.69-.64,1.39-1.24,2.11-1.83h0c1.38-1.18,2.78-2.32,4.22-3.42h0c1.33-1.02,2.66-2.02,4.02-2.99,0,0,0-.01.01,0,2.03-1.47,4.14-2.84,6.25-4.18,3-1.85,6.07-3.62,9.22-5.22,1.06-.55,2.16-1.09,3.24-1.6h0c2.13-1.02,4.29-1.98,6.48-2.87.99-.41,1.98-.8,2.99-1.19Z" fill="#108a9e" stroke-width="0"/><path d="M376,505.61s-.04,0-.06-.02h0s.04.01.06.02Z" fill="#108a9e" stroke-width="0"/><path d="M375.94,274.16v231.42c-.05-.01-.1-.03-.14-.05-.09-.03-.18-.06-.26-.1-.21-.08-.41-.16-.63-.24-.17-.06-.33-.13-.51-.2-.2-.08-.4-.16-.61-.24-.12-.05-.25-.1-.37-.15-.17-.07-.34-.14-.52-.21l-.42-.18c-.08-.03-.15-.06-.23-.09-.07-.03-.15-.06-.23-.09h-.01c-.08-.03-.16-.07-.24-.11-.17-.07-.34-.14-.51-.22-.6-.25-1.19-.51-1.79-.78-.12-.05-.25-.11-.37-.17-.87-.39-1.74-.79-2.61-1.2-.01,0-.01-.01-.02-.01-.54-.25-1.06-.51-1.59-.77-.18-.09-.37-.18-.57-.28-.1-.04-.19-.09-.29-.14-.09-.05-.18-.1-.27-.15,0,0-.02,0-.03-.01-.43-.22-.88-.45-1.31-.68-.08-.04-.16-.08-.24-.13-.14-.07-.28-.14-.42-.22h-.01c-.17-.09-.33-.18-.49-.28-.06-.02-.11-.05-.16-.08-1.33-.71-2.65-1.45-3.95-2.21-.43-.26-.86-.52-1.29-.77h-.01c-.06-.04-.13-.08-.19-.12-.59-.35-1.17-.71-1.75-1.08-.2-.12-.4-.25-.61-.38h-.01s-.02-.01-.03-.02c-.16-.1-.31-.2-.46-.3-.25-.16-.51-.33-.76-.49h-.01c-.1-.07-.19-.13-.29-.2-.32-.21-.65-.42-.96-.63-.18-.12-.37-.25-.56-.38-.37-.25-.75-.5-1.12-.76-.68-.47-1.34-.95-2.01-1.43-.66-.47-1.31-.96-1.96-1.44-.05-.04-.1-.08-.15-.12-.1-.07-.2-.15-.3-.22-.26-.2-.53-.4-.79-.61-.13-.1-.27-.21-.4-.31-.31-.25-.64-.5-.95-.74-.1-.08-.2-.17-.3-.25-.1-.08-.2-.16-.3-.24l-.03-.03c-.2-.16-.4-.32-.61-.48-.27-.22-.54-.44-.79-.66-.02-.02-.05-.04-.07-.05-.07-.06-.14-.12-.21-.18-.34-.29-.69-.58-1.03-.87-.07-.06-.13-.11-.2-.17-.15-.13-.31-.27-.47-.4-.15-.14-.31-.27-.46-.4-.04-.03-.08-.07-.11-.09-.15-.13-.29-.25-.42-.38-.19-.17-.38-.34-.58-.51-.11-.1-.23-.21-.34-.31-.28-.25-.56-.5-.83-.75-.03-.03-.06-.06-.09-.08-.43-.4-.86-.79-1.27-1.19-.73-.69-1.45-1.38-2.15-2.08-.71-.69-1.4-1.4-2.09-2.12h-.01c-.34-.36-.69-.73-1.03-1.09-.44-.48-.89-.96-1.33-1.44-.06-.07-.13-.14-.18-.21-.08-.08-.15-.16-.23-.24-.25-.28-.5-.56-.74-.84-.02-.02-.04-.03-.05-.05-.12-.14-.24-.28-.37-.42-.03-.04-.07-.08-.1-.12-.32-.37-.65-.75-.97-1.13-.06-.05-.11-.11-.15-.17-.1-.12-.21-.24-.31-.37-.07-.07-.13-.14-.18-.22-.02-.02-.03-.04-.05-.06,0-.01-.01-.02-.01-.02-.02-.02-.04-.05-.07-.07-.01-.03-.04-.05-.06-.08-.66-.77-1.3-1.56-1.93-2.35v-.02s-.03-.02-.04-.03c-.34-.44-.7-.89-1.04-1.33-.18-.25-.37-.5-.57-.75-.09-.11-.17-.22-.26-.34h-.01c-.14-.19-.27-.38-.41-.56h0c-.45-.63-.91-1.23-1.35-1.85-.62-.85-1.2-1.7-1.79-2.56h-.01c-.16-.26-.33-.5-.5-.75-.16-.23-.31-.47-.47-.71-.26-.4-.54-.81-.79-1.22h-.01c-.3-.48-.62-.96-.92-1.45-.43-.69-.85-1.38-1.26-2.07-.25-.43-.52-.86-.76-1.29-.1-.16-.19-.33-.28-.49-.04-.05-.06-.1-.09-.15-.28-.49-.56-.98-.83-1.47-.1-.17-.19-.34-.27-.51-.15-.27-.29-.52-.43-.79-.02-.03-.03-.07-.05-.1-.69-1.26-1.34-2.54-1.98-3.83-.13-.25-.25-.5-.37-.76-.07-.13-.13-.27-.19-.4-.18-.38-.36-.77-.55-1.15-.16-.34-.32-.69-.47-1.03-.19-.4-.36-.8-.55-1.2h0c-.35-.81-.71-1.62-1.04-2.43-.02-.03-.03-.07-.04-.1-.33-.79-.66-1.59-.97-2.39-.04-.1-.08-.2-.12-.3-.05-.14-.11-.28-.16-.43-.17-.45-.34-.89-.51-1.34-.1-.26-.2-.52-.29-.78-.18-.49-.35-.98-.53-1.48-.12-.33-.23-.66-.34-.99-.02-.05-.04-.11-.06-.16-.02-.09-.05-.18-.08-.27h-.01c-.03-.09-.05-.17-.08-.25-.05-.17-.11-.33-.16-.49-.06-.18-.12-.35-.17-.52h0s-.01-.02,0-.03c-.05-.14-.1-.28-.14-.42-.06-.17-.11-.35-.16-.52-.01-.01-.01-.03-.02-.04-.04-.13-.08-.25-.11-.37-.11-.37-.22-.73-.33-1.09-.07-.24-.14-.48-.21-.72-.09-.3-.18-.6-.26-.91-.03-.08-.05-.17-.08-.26-.04-.14-.08-.28-.11-.42-.06-.21-.12-.43-.18-.64-.04-.15-.08-.31-.12-.47-.15-.55-.29-1.1-.43-1.65-.07-.28-.14-.56-.21-.85-.24-.96-.46-1.93-.68-2.9-.01-.03-.02-.06-.02-.09-.01-.02-.01-.05-.02-.07-.01-.04-.02-.09-.02-.14-.02-.05-.03-.1-.04-.15-.06-.24-.11-.48-.15-.73-.04-.14-.07-.28-.09-.42-.07-.34-.14-.68-.2-1.02-.04-.16-.07-.33-.1-.5-.11-.57-.21-1.16-.32-1.74-.02-.11-.04-.23-.06-.34,0-.02,0-.03-.01-.05,0-.04-.01-.09-.02-.14-.01-.03-.01-.06-.02-.09-.06-.35-.12-.71-.17-1.06-.02-.12-.03-.24-.05-.36-.05-.24-.09-.48-.12-.72-.01-.09-.03-.18-.04-.27-.02-.13-.04-.25-.06-.38l-.03-.18c-.02-.14-.04-.28-.06-.41-.06-.4-.11-.8-.16-1.2-.01-.1-.03-.2-.04-.29v-.06c-.06-.38-.11-.75-.15-1.13-.02-.07-.03-.15-.03-.22-.01-.01-.01-.03-.01-.05-.02-.18-.04-.36-.06-.55-.01-.1-.02-.2-.03-.3,0-.02,0-.03,0-.05v-.09s-.01-.03-.01-.05v-.05c-.02-.1-.03-.21-.04-.31-.01-.05-.02-.09-.02-.14-.04-.34-.07-.67-.1-1.01-.01-.06-.02-.12-.03-.19,0-.04,0-.09-.01-.13,0-.06-.01-.13-.01-.19,0-.1-.02-.2-.03-.31-.01-.04-.01-.07-.01-.11,0-.05,0-.09,0-.14v-.06s-.01-.05-.01-.08c-.04-.45-.08-.91-.11-1.38-.02-.14-.03-.28-.04-.42-.02-.17-.03-.33-.04-.5,0-.09,0-.18,0-.27,0-.05-.01-.1-.01-.15-.02-.18-.03-.37-.03-.55-.01-.09-.02-.17-.02-.26-.01-.01-.01-.02-.01-.03v-.05c0-.06-.01-.12-.01-.18-.01-.13-.01-.26-.02-.39v-.05s-.01-.03-.01-.05c-.01-.05-.01-.11-.01-.16l-.03-.57c0-.06,0-.13-.01-.2v-.05c-.01-.18-.02-.37-.02-.55v-.15c-.01-.26-.02-.51-.03-.77-.01-.34-.02-.68-.03-1.03,0-.11,0-.22,0-.33-.01-.04-.01-.09-.01-.13t.01-.02s-.01-.02,0-.03c-.01-.26-.02-.53-.02-.79,0-.06-.01-.12,0-.18-.01,0-.01-.02,0-.03-.01-.02-.01-.04-.01-.06v-.09h.01s-.01-.01,0-.02c-.01-.01-.01-.02,0-.04v-.13c-.01-.13-.01-.27-.01-.4,0-.33,0-.66,0-.99,0-.85,0-1.69.03-2.54.01-.25.01-.5.02-.75.01-.17.01-.34.01-.51.02-.72.05-1.45.08-2.17,0-.02.01-.04.01-.06v-.07c.01-.23.02-.45.03-.67.01-.18.02-.35.03-.53.01-.21.03-.41.04-.61,0-.15.02-.3.03-.44.02-.38.05-.76.08-1.14.01-.21.03-.42.05-.63.02-.31.05-.62.08-.93.04-.46.08-.91.13-1.36.01-.1.02-.19.03-.29.01-.11.02-.22.03-.32.04-.46.09-.92.15-1.37.02-.15.03-.3.05-.45.04-.29.07-.58.11-.86.03-.3.07-.6.12-.9.04-.39.1-.77.16-1.15-.01-.01-.01-.02,0-.02,0-.01,0-.02,0-.03,0-.01,0-.01,0-.01,0-.01,0-.01,0-.01,0-.03,0-.06.01-.08.02-.21.05-.42.09-.62.03-.21.06-.42.1-.62.09-.62.19-1.24.3-1.85.02-.14.04-.27.07-.41.02-.14.04-.29.07-.43,0-.03,0-.06.01-.09h0c.02-.14.05-.27.08-.4.06-.38.14-.75.21-1.13.1-.51.19-1.01.3-1.51.03-.17.07-.34.11-.51.04-.21.08-.42.13-.63.07-.29.13-.58.2-.88.03-.18.07-.35.11-.52.02-.11.05-.23.08-.36,0-.02.01-.04.01-.06s.01-.04.01-.05c.12-.5.23-1,.36-1.5.07-.29.14-.58.22-.88.05-.2.1-.4.15-.61.12-.45.24-.9.36-1.34.01-.05.02-.09.03-.13h0c.02-.08.04-.14.06-.2.02-.08.04-.16.06-.23.03-.11.06-.22.09-.33.18-.66.37-1.32.58-1.97.02-.07.04-.15.06-.22.14-.48.29-.97.44-1.45.11-.34.21-.67.32-1v-.02s.01-.03.02-.05c.09-.29.18-.57.28-.85.08-.27.17-.55.27-.82.03-.1.06-.19.1-.29.03-.1.07-.2.11-.3.09-.28.18-.56.28-.84.12-.35.25-.71.38-1.07.38-1.07.79-2.13,1.22-3.19.29-.75.6-1.49.91-2.22.09-.25.2-.49.3-.74.06-.15.13-.31.2-.46.12-.31.26-.62.39-.92.04-.09.08-.19.13-.28.07-.17.14-.34.22-.51.09-.2.18-.39.27-.59.13-.28.26-.57.39-.85.07-.17.15-.34.23-.5.05-.12.1-.23.16-.35.16-.35.32-.69.5-1.03.13-.28.27-.57.42-.85.07-.17.15-.33.24-.5.11-.21.21-.41.32-.62v-.02c.37-.73.75-1.46,1.14-2.17.17-.34.35-.68.54-1.01.01-.03.03-.05.05-.08.01-.03.02-.06.04-.09.06-.12.13-.24.2-.35.17-.32.35-.64.54-.96.38-.68.77-1.35,1.16-2.01.09-.16.19-.32.28-.48.16-.27.32-.53.49-.8.39-.66.8-1.32,1.21-1.97.08-.13.16-.26.25-.39.16-.26.32-.52.49-.78.1-.15.2-.3.3-.45.09-.15.19-.31.3-.46.01-.02.02-.05.04-.07.05-.08.11-.17.16-.25.06-.09.12-.18.19-.27h0c.21-.33.42-.65.65-.97.27-.41.57-.83.85-1.23.18-.27.37-.52.57-.78h0c.1-.16.2-.3.3-.44.33-.47.68-.92,1.02-1.39h0c.18-.26.36-.51.56-.75.03-.04.06-.08.09-.13.03-.05.06-.09.1-.14l.02-.02s.04-.05.06-.07c.02-.03.04-.07.07-.1.05-.08.11-.16.18-.24.19-.25.38-.5.59-.75.3-.4.61-.79.92-1.18,0-.01.01-.02.01-.02.55-.69,1.11-1.37,1.67-2.05h.01c.04-.06.08-.11.11-.15.03-.03.05-.06.08-.1.24-.29.49-.57.73-.86.03-.04.06-.07.09-.11h.01c.05-.06.09-.11.14-.17.04-.06.08-.11.13-.16.04-.06.09-.11.14-.16.15-.18.3-.36.45-.53.08-.1.16-.19.24-.28.12-.14.24-.27.36-.41h.01c.07-.09.15-.18.23-.27.11-.13.22-.26.34-.39.02-.02.04-.03.05-.05s.03-.04.05-.06c.65-.72,1.3-1.43,1.96-2.14.1-.11.2-.21.31-.32.15-.16.3-.33.46-.49.04-.05.09-.09.14-.14.04-.04.08-.09.12-.13.14-.15.29-.3.43-.45.04-.05.08-.09.13-.14l.58-.57c.09-.1.18-.19.27-.28.03-.03.06-.06.1-.09.09-.1.19-.2.28-.3.09-.09.18-.19.29-.29.02-.02.03-.03.05-.05.16-.17.32-.33.5-.49t.01,0c.1-.11.2-.21.3-.3.42-.42.85-.83,1.28-1.24.36-.35.74-.69,1.1-1.03.15-.13.29-.26.43-.39.07-.07.13-.12.2-.18h.01c.12-.12.24-.22.35-.33.09-.09.19-.17.28-.24h0c.21-.21.42-.4.65-.58.09-.09.19-.18.28-.27.38-.33.76-.66,1.13-.98.18-.16.37-.32.56-.47.04-.03.09-.07.14-.11h0c.15-.14.3-.27.44-.39.38-.32.77-.64,1.16-.95.38-.32.77-.64,1.16-.94.38-.32.78-.62,1.17-.93.09-.07.19-.15.28-.21.01-.01.02-.01.03-.03.29-.23.59-.45.88-.67.26-.2.54-.41.81-.61.1-.07.2-.15.3-.22.03-.03.05-.05.08-.07.64-.47,1.27-.93,1.92-1.39,0,0,0-.01.01,0,.16-.13.33-.25.51-.37.41-.28.83-.57,1.23-.85.41-.28.83-.57,1.24-.84.41-.28.83-.56,1.25-.83.27-.18.55-.36.82-.53.15-.1.3-.19.45-.28.13-.08.25-.16.37-.24.11-.08.23-.15.34-.22.01,0,.03-.02.05-.03.03-.02.07-.04.11-.07.2-.13.41-.26.62-.38.35-.22.71-.44,1.06-.65.42-.26.86-.51,1.29-.76.46-.27.92-.54,1.38-.8.12-.07.25-.15.38-.22.12-.08.25-.15.37-.21.17-.09.34-.19.53-.29.35-.21.73-.4,1.08-.59.06-.04.13-.08.2-.11.03-.02.06-.03.09-.05.2-.11.41-.22.63-.33.17-.1.34-.19.53-.28.3-.16.61-.32.91-.47t.01-.01c.2-.1.4-.2.61-.3.18-.1.35-.19.54-.27.06-.04.12-.07.19-.1.26-.14.54-.27.81-.4.17-.08.34-.17.52-.25.1-.05.21-.1.31-.15.09-.04.17-.08.26-.12.16-.08.31-.16.47-.23.11-.06.22-.11.34-.16.07-.03.13-.07.2-.09.16-.08.32-.16.5-.23.22-.11.44-.21.68-.31.05-.03.1-.06.16-.08.05-.02.1-.04.15-.07.08-.04.16-.07.24-.11h.01c.21-.1.42-.19.64-.28.03,0,.05-.03.08-.04.22-.1.44-.19.67-.29.27-.12.55-.23.82-.35.01,0,.02-.01.03-.01.18-.08.37-.16.56-.23.2-.08.39-.17.6-.25.07-.04.14-.07.21-.09.04-.02.08-.04.12-.05h.01c.05-.03.11-.05.16-.07.05-.02.11-.04.17-.06.08-.04.15-.07.23-.1.03-.02.07-.04.11-.05.04-.01.08-.03.12-.04.15-.07.31-.14.47-.2h.01c.06-.03.12-.05.19-.08.03-.01.07-.03.1-.04.05-.02.1-.04.15-.06.2-.08.41-.16.63-.23.2-.09.41-.17.63-.25Z" fill="none" stroke-width="0"/><path d="M376,505.61s-.04,0-.06-.02h0s.04.01.06.02Z" fill="none" stroke-width="0"/><path d="M376,505.61s-.04,0-.06-.02c-.05-.02-.09-.04-.14-.06-.09-.03-.18-.06-.26-.1-.21-.08-.41-.16-.63-.24-.17-.06-.33-.13-.51-.2-.2-.08-.4-.16-.61-.24-.12-.05-.25-.1-.37-.15-.17-.07-.34-.14-.52-.21l-.42-.18c-.08-.03-.15-.06-.23-.09-.07-.03-.15-.06-.23-.09h0s-.01-.01-.01-.01c-.08-.03-.16-.07-.24-.1-.17-.07-.34-.14-.51-.22-.6-.25-1.19-.51-1.79-.78-.12-.05-.25-.11-.37-.17-.06-.02-.11-.04-.17-.07-.82-.37-1.63-.75-2.44-1.13-.01,0-.01-.01-.02-.01-.54-.25-1.06-.51-1.59-.77-.18-.09-.37-.18-.57-.28-.19-.1-.38-.19-.57-.29,0,0-.02,0-.03-.01-.43-.22-.88-.45-1.31-.68-.08-.04-.16-.08-.24-.13-.14-.07-.28-.14-.42-.22h-.01c-.17-.09-.33-.18-.49-.28-.06-.02-.11-.05-.16-.08-1.33-.71-2.65-1.45-3.95-2.21-.43-.26-.86-.52-1.29-.77h-.01c-.06-.04-.13-.08-.19-.12-.59-.35-1.17-.71-1.75-1.08-.2-.12-.4-.25-.61-.38h-.01s-.02-.01-.03-.02c-.16-.1-.31-.2-.46-.3-.25-.16-.51-.33-.76-.49h-.01c-.09-.07-.19-.13-.29-.2-.32-.21-.65-.42-.96-.63-.18-.12-.37-.25-.56-.38-.37-.25-.75-.5-1.12-.76-.68-.47-1.34-.95-2.01-1.43-.66-.47-1.31-.96-1.96-1.44-.05-.04-.1-.08-.15-.12-.04-.02-.07-.05-.11-.07-.06-.06-.13-.11-.19-.15-.26-.2-.53-.4-.79-.61-.13-.1-.27-.21-.4-.31-.31-.25-.64-.5-.95-.74-.1-.08-.2-.17-.3-.25-.1-.08-.2-.16-.3-.24l-.03-.03c-.2-.16-.4-.32-.61-.48-.27-.22-.54-.44-.79-.66-.02-.02-.05-.04-.07-.05-.07-.06-.14-.12-.21-.18-.34-.29-.69-.58-1.03-.87-.07-.06-.13-.11-.2-.17-.15-.13-.31-.27-.47-.4-.15-.14-.31-.27-.46-.4-.04-.03-.08-.07-.11-.09-.15-.13-.29-.25-.42-.38-.19-.17-.38-.34-.58-.51-.11-.1-.23-.21-.34-.31-.28-.25-.56-.5-.83-.75-.03-.03-.06-.06-.09-.08-.43-.4-.86-.79-1.27-1.19-.73-.69-1.45-1.38-2.15-2.08-.71-.69-1.4-1.4-2.09-2.12h-.01c-.34-.36-.69-.73-1.03-1.09-.44-.48-.89-.96-1.33-1.44-.06-.07-.13-.14-.18-.21-.08-.08-.15-.16-.23-.24-.25-.28-.5-.56-.74-.84-.02-.02-.04-.03-.05-.05-.12-.14-.24-.28-.37-.42-.03-.04-.07-.08-.1-.12-.32-.37-.65-.75-.97-1.13-.06-.05-.11-.11-.15-.17-.1-.12-.21-.24-.31-.37-.07-.07-.13-.14-.18-.22-.02-.02-.03-.04-.05-.06,0-.01-.01-.02-.01-.02-.02-.02-.04-.05-.07-.07-.01-.03-.04-.05-.06-.08-.66-.77-1.3-1.56-1.93-2.35v-.02s-.03-.02-.04-.03c-.34-.44-.7-.89-1.04-1.33-.18-.25-.37-.5-.57-.75-.09-.11-.17-.22-.26-.34h-.01c-.14-.19-.27-.38-.41-.56h0c-.45-.63-.91-1.23-1.35-1.85-.62-.85-1.2-1.7-1.79-2.56h-.01c-.16-.26-.33-.5-.5-.75-.09-.13-.17-.26-.26-.38-.07-.11-.14-.22-.21-.33-.26-.4-.54-.81-.79-1.22h-.01c-.3-.48-.62-.96-.92-1.45-.43-.69-.85-1.38-1.26-2.07-.25-.43-.52-.86-.76-1.29-.1-.16-.19-.33-.28-.49-.04-.05-.06-.1-.09-.15-.28-.49-.56-.98-.83-1.47-.1-.17-.19-.34-.27-.51-.15-.27-.29-.52-.43-.79-.02-.03-.03-.07-.05-.1-.69-1.26-1.34-2.54-1.98-3.83-.13-.25-.25-.5-.37-.76-.07-.13-.13-.27-.19-.4-.18-.38-.36-.77-.55-1.15-.16-.34-.32-.69-.47-1.03-.19-.4-.36-.8-.55-1.2h0c-.35-.81-.71-1.62-1.04-2.43-.02-.03-.03-.07-.04-.1-.33-.79-.66-1.59-.97-2.39-.04-.1-.08-.2-.12-.3-.05-.14-.11-.28-.16-.43-.17-.45-.34-.89-.51-1.34-.1-.26-.2-.52-.29-.78-.18-.49-.35-.98-.53-1.48-.12-.33-.23-.66-.34-.99-.02-.05-.04-.11-.06-.16-.03-.09-.06-.18-.09-.26h0c-.03-.1-.05-.18-.08-.26-.05-.17-.11-.33-.16-.49-.06-.18-.12-.35-.17-.52h0s-.01-.02,0-.03c-.05-.14-.1-.28-.14-.42-.06-.19-.12-.37-.18-.56-.04-.13-.08-.25-.11-.37-.11-.37-.22-.73-.33-1.09-.07-.24-.14-.48-.21-.72-.09-.3-.18-.6-.26-.91-.03-.08-.05-.17-.08-.26-.04-.14-.08-.28-.11-.42-.06-.21-.12-.43-.18-.64-.04-.15-.08-.31-.12-.47-.15-.55-.29-1.1-.43-1.65-.07-.28-.14-.56-.21-.85-.24-.96-.46-1.93-.68-2.9-.01-.03-.02-.06-.02-.09-.01-.02-.01-.05-.02-.07-.01-.04-.02-.09-.02-.14-.02-.05-.03-.1-.04-.15-.06-.24-.11-.48-.15-.73-.04-.14-.07-.28-.09-.42-.07-.34-.14-.68-.2-1.02-.04-.16-.07-.33-.1-.5-.11-.57-.21-1.16-.32-1.74-.02-.11-.04-.23-.06-.34,0-.02,0-.03-.01-.05,0-.04-.01-.09-.02-.14-.01-.03-.01-.06-.02-.09-.03-.18-.06-.36-.1-.54,0-.05-.01-.09-.02-.14l-.24-1.53c-.03-.2-.06-.39-.08-.58l-.03-.18c-.02-.14-.04-.28-.06-.41-.06-.4-.11-.8-.16-1.2-.01-.1-.03-.2-.04-.29-.06-.4-.11-.79-.15-1.19-.02-.07-.03-.15-.03-.22-.01-.01-.01-.03-.01-.05-.02-.18-.04-.36-.06-.55-.01-.1-.02-.2-.03-.3,0-.02,0-.03,0-.05-.01-.05-.01-.09-.01-.14-.02-.12-.03-.24-.04-.36-.01-.05-.02-.09-.02-.14-.04-.34-.07-.67-.1-1.01,0-.05-.01-.09-.01-.14-.01-.02-.01-.03-.01-.05-.01-.04-.01-.09-.02-.13,0-.06-.01-.13-.01-.19,0-.1-.02-.2-.03-.31-.01-.04-.01-.07-.01-.11,0-.05,0-.09,0-.14v-.06s-.01-.05-.01-.08c-.02-.13-.03-.26-.04-.39-.02-.2-.03-.39-.05-.59-.02-.27-.04-.55-.06-.82-.02-.17-.03-.33-.04-.5-.02-.33-.04-.65-.06-.97,0-.1-.02-.19-.02-.29v-.05c0-.06-.01-.12-.01-.18-.01-.13-.01-.26-.02-.39-.01-.03-.01-.07-.01-.1-.01-.05-.01-.11-.01-.16l-.03-.57c0-.06,0-.13-.01-.2v-.05c-.01-.18-.02-.37-.02-.55v-.1c-.01-.06-.01-.12-.01-.18-.01-.16-.01-.33-.02-.49v-.15c-.01-.34-.02-.68-.03-1.03,0-.11,0-.22,0-.33-.01-.04-.01-.09-.01-.13v-.11c0-.24,0-.48,0-.73,0-.06-.01-.12,0-.18-.01,0-.01-.02,0-.03-.01-.02-.01-.04-.01-.06v-.68c0-.33,0-.66,0-.99,0-.85,0-1.69.03-2.54,0-.21,0-.42.01-.63v-.13c0-.09,0-.19,0-.28,0-.07,0-.15.01-.22.02-.72.05-1.45.08-2.17,0-.02.01-.04.01-.06v-.07c.01-.23.02-.45.03-.67.01-.18.02-.35.03-.53.01-.21.03-.41.04-.61,0-.15.02-.3.03-.44.02-.38.05-.76.08-1.14.01-.21.03-.42.05-.63.02-.31.05-.62.08-.93.02-.3.05-.61.08-.92.01-.15.03-.29.05-.44.01-.1.02-.19.03-.29.01-.11.02-.22.03-.32.01-.1.02-.2.03-.31.04-.35.08-.7.12-1.06.02-.15.03-.3.05-.45.04-.29.07-.58.11-.86.03-.3.07-.6.12-.9.04-.39.1-.77.16-1.15-.01-.01-.01-.02,0-.02v-.04h0s0-.07.01-.09c.02-.21.05-.42.09-.62.03-.21.06-.42.1-.62.09-.62.19-1.24.3-1.85.02-.14.04-.27.07-.41.02-.14.04-.29.07-.43.03-.16.05-.33.09-.49.06-.38.14-.75.21-1.13.1-.51.19-1.01.3-1.51.03-.17.07-.34.11-.51.04-.21.08-.42.13-.63.02-.11.04-.21.06-.31.08-.36.16-.73.25-1.09.02-.11.05-.23.08-.36,0-.02.01-.04.01-.06s.01-.04.01-.05c.12-.5.23-1,.36-1.5.07-.29.14-.58.22-.88.05-.2.1-.4.15-.61.12-.45.24-.9.36-1.34.01-.05.02-.09.03-.13h0c.02-.08.04-.14.06-.2.02-.08.04-.16.06-.23.03-.11.06-.22.09-.33.11-.38.21-.76.32-1.14.09-.3.17-.6.26-.9.02-.05.04-.1.05-.15.14-.48.29-.97.44-1.45.11-.34.21-.67.32-1v-.02s.01-.03.02-.05c.09-.29.18-.57.28-.85.08-.27.17-.55.27-.82.03-.1.06-.19.1-.29.07-.19.13-.38.19-.57.06-.19.13-.38.2-.57.12-.35.25-.71.38-1.07.38-1.07.79-2.13,1.22-3.19.29-.75.6-1.49.91-2.22.09-.25.2-.49.3-.74.06-.15.13-.31.2-.46.12-.31.26-.62.39-.92.04-.09.08-.19.13-.28.07-.17.14-.34.22-.51.09-.2.17-.39.26-.59.13-.28.26-.57.4-.85.07-.17.15-.34.23-.5.05-.12.1-.23.16-.35.16-.35.32-.69.5-1.03.13-.28.27-.57.42-.85.07-.17.15-.33.24-.5.11-.21.21-.41.32-.62v-.02c.37-.73.75-1.46,1.14-2.17.17-.34.35-.68.54-1.01h.01s.02-.06.04-.08c.01-.03.02-.06.04-.09.03-.04.05-.08.08-.12.04-.07.08-.15.12-.23.17-.32.35-.64.54-.96.38-.68.77-1.35,1.16-2.01.09-.16.19-.32.28-.48.16-.27.32-.53.49-.8.39-.66.8-1.32,1.21-1.97.05-.08.1-.15.15-.22.03-.06.06-.12.1-.17.16-.26.32-.52.49-.78.09-.15.19-.3.29-.45h.01c.09-.15.19-.31.3-.46.01-.02.02-.05.04-.07.05-.08.11-.17.16-.25.06-.09.12-.18.19-.27h0c.21-.33.42-.65.65-.97.27-.41.57-.83.85-1.23.18-.27.37-.52.57-.78h0c.1-.16.2-.3.3-.44.33-.47.68-.92,1.02-1.39h0c.18-.26.36-.51.56-.75.03-.04.06-.08.09-.13.03-.05.06-.09.1-.14l.02-.02s.04-.05.06-.07c.02-.03.04-.07.07-.1.05-.08.11-.16.18-.24.12-.16.24-.33.37-.49.06-.09.13-.18.2-.27.23-.3.48-.6.71-.9.07-.09.14-.18.21-.27h.01s.01-.02.01-.02c.55-.69,1.11-1.37,1.67-2.05h.01c.04-.06.08-.11.11-.15.03-.03.05-.06.08-.1.24-.29.49-.57.73-.86.03-.04.06-.07.09-.11h.01c.04-.06.09-.12.13-.17h.01c.04-.06.08-.11.13-.16.04-.06.09-.11.14-.16.15-.18.3-.36.45-.53.08-.1.16-.19.24-.28.12-.14.24-.27.36-.41.08-.09.16-.18.24-.27.11-.13.22-.26.34-.39.01-.01.03-.03.04-.05h.01s.03-.04.05-.06c.65-.72,1.3-1.43,1.96-2.14.1-.11.2-.21.31-.32.08-.09.17-.18.25-.28.07-.07.14-.14.2-.21.09-.09.17-.18.26-.27.14-.15.29-.3.44-.45.04-.05.08-.09.13-.14.06-.07.12-.13.18-.19l.33-.33s.04-.04.06-.05c.09-.1.18-.19.27-.28.03-.03.06-.07.09-.1.09-.09.19-.19.29-.29.09-.09.18-.19.29-.29h0s.03-.04.05-.05c.16-.17.32-.33.5-.49t.01,0c.1-.11.2-.21.3-.3.42-.42.85-.83,1.28-1.24.36-.35.74-.69,1.1-1.03.15-.13.29-.26.43-.39.07-.07.13-.12.2-.18h.01c.12-.12.24-.22.35-.33.08-.08.16-.15.24-.22l.04-.03h0c.2-.19.4-.37.61-.55.11-.1.21-.2.32-.29.38-.33.76-.66,1.13-.98.18-.16.37-.32.56-.47.05-.05.1-.09.14-.12.15-.13.3-.26.44-.38.38-.32.77-.64,1.16-.95.38-.32.77-.64,1.16-.94.38-.32.78-.62,1.17-.93.09-.07.19-.15.28-.21h0s.02-.02.03-.03c.29-.23.59-.45.88-.67.26-.2.54-.41.81-.61.1-.07.2-.15.3-.22.03-.03.05-.05.08-.07.64-.47,1.27-.93,1.92-1.39,0,0,0-.01.01,0,.16-.13.33-.25.51-.37.41-.28.83-.57,1.23-.85.41-.28.83-.57,1.24-.84.41-.28.83-.56,1.25-.83.27-.18.55-.36.82-.53.15-.1.3-.19.45-.28.13-.08.25-.16.37-.24.11-.08.23-.15.34-.22.01-.01.02-.01.02-.02.05-.03.1-.06.14-.08.2-.13.41-.26.62-.38.35-.22.71-.44,1.06-.65.42-.26.86-.51,1.29-.76.46-.27.92-.54,1.38-.8.12-.07.25-.15.38-.22.12-.08.25-.15.37-.21.17-.09.34-.19.53-.29.35-.21.73-.4,1.08-.59.06-.04.13-.08.2-.11.03-.02.06-.03.09-.05.2-.11.41-.22.63-.33.17-.1.34-.19.53-.28.3-.16.61-.32.91-.47t.01-.01c.2-.1.4-.2.61-.3.18-.1.35-.19.54-.27.06-.04.12-.07.19-.1.26-.14.54-.27.81-.4.17-.08.34-.17.52-.25.1-.05.21-.1.31-.15.09-.04.17-.08.26-.12.16-.08.31-.16.47-.23.11-.06.22-.11.34-.16.07-.03.13-.07.2-.09.16-.08.32-.16.5-.23.22-.11.44-.21.68-.31.05-.03.1-.06.16-.08.05-.02.1-.04.15-.07.08-.04.16-.07.24-.11h.01c.21-.1.42-.19.64-.28.03,0,.05-.03.08-.04.22-.1.44-.19.67-.29.27-.12.55-.23.82-.35.01,0,.02-.01.03-.01.18-.08.37-.16.56-.23h0c.2-.09.4-.17.6-.25.07-.04.14-.07.21-.09.04-.02.08-.04.12-.05h.01c.05-.03.11-.05.16-.07.06-.03.11-.05.17-.07.04-.01.08-.03.12-.05.03-.02.07-.03.11-.04.03-.02.07-.04.11-.05.04-.01.08-.03.12-.04.15-.07.31-.14.47-.2h.01c.06-.03.12-.05.19-.08.03-.01.07-.03.1-.04.05-.02.1-.04.15-.06.2-.08.41-.16.63-.23.2-.09.41-.17.63-.25v231.42s.04.02.06.03Z" fill="none" stroke-width="0"/><path d="M374.58,285.49v-.85c0-.61.21-.94.89-1.15.16-.05.32-.1.47-.16v-9.17c-.21.08-.42.16-.63.25-.21.07-.42.15-.63.23-.05.02-.1.04-.15.06-.03.01-.07.03-.1.04-.07.03-.13.05-.19.08h-.01c-.16.06-.32.13-.47.2-.04.01-.08.03-.12.04-.04.01-.08.03-.11.05-.04.01-.08.02-.11.04-.04.02-.08.04-.12.05h0c-.06.03-.12.05-.17.07-.05.02-.11.04-.16.06h-.01s-.08.04-.12.06c-.07.02-.14.05-.21.09-.19.08-.39.16-.6.24-.19.08-.37.16-.56.24-.01,0-.02.01-.03.01-.27.12-.55.23-.82.35-.22.1-.44.19-.67.29-.03.01-.05.03-.08.04-.21.09-.42.18-.64.28h-.01c-.08.04-.16.07-.24.11-.05.03-.1.05-.15.07-.06.02-.11.05-.16.08-.02,0-.03,0-.04.01-.02.01-.04.01-.05.02-.2.09-.39.18-.59.28-.17.07-.33.15-.5.23-.07.02-.13.06-.2.09-.12.05-.23.1-.34.16-.16.07-.31.15-.47.22-.09.04-.18.08-.26.13-.1.05-.21.1-.31.15-.17.08-.34.17-.52.25-.27.13-.55.26-.81.4-.07.03-.13.06-.19.1-.17.08-.34.16-.52.25-.21.11-.42.21-.63.32t-.01.01c-.3.15-.61.31-.91.47-.18.09-.35.18-.53.28-.21.11-.42.22-.63.33-.03.02-.06.03-.09.05-.07.03-.14.07-.2.11.26.21.53.44.78.67.23.23.33.61.58.83.25.23.61.34,1.06.58-.03.6.03,1.26-.12,1.87-.09.37-.47.69-.77.98-.19.19-.55.24-.68.45-.64,1.02-1.63,1.1-2.67,1.08-.12,0-.23.04-.34.06.06.36.1.63.1.83,0,.07-.01.14-.02.2-.03.18-.12.31-.28.43-.17.13-.41.24-.78.4-1.28.56-2.57,1.14-3.89,1.6-1.11.39-2.05.97-2.72,1.93-.55.77-1.15,1.32-2.23,1.03-.39-.11-.86.01-1.28.06-.81.09-1.25.48-1.39,1.31-.16.96-.54,1.77-1.26,2.44-.43.39-.8.86-1.2,1.28h-.01c-.88.89-1.72,1.81-3.04,2.05-.18.04-.34.18-.58.3.08.74.15,1.46.22,2.21-.98.61-2.05.67-3.09.78h-.06c-.07,0-.14-.01-.21-.04-.07-.03-.14-.07-.22-.11-.04-.02-.07-.04-.11-.06-.54.11-1.07.15-1.61.21-.35.03-.75-.34-1.13-.51-.42-.19-.83-.44-1.27-.51-.44-.08-.9-.12-1.35-.16l-.58.57c-.05.05-.09.09-.13.14-.15.15-.3.3-.44.45-.09.09-.17.18-.26.27h.01c.06.02.1.04.17.06,1.2.43,2.46.53,3.71.51.93-.02,1.64.47,2.42.8.17.07.3.45.29.67-.03.46-.16.91-.25,1.39-1.58,1.07-3.22,1.36-4.91,1.1-1.41.24-2.86,0-4.34-.6-.17-.07-.33-.14-.51-.21h-.01c-.12.14-.24.27-.36.41-.08.09-.16.18-.24.28-.15.17-.3.35-.45.53-.05.05-.1.1-.14.16-.05.05-.09.1-.14.16-.05.06-.09.11-.14.17-.03.04-.06.07-.09.11-.24.29-.49.57-.73.86-.03.04-.05.07-.08.1-.03.04-.07.09-.11.14.45-.21.9-.42,1.33-.67.29-.18,1.08-.03,1.8.23.14-.08.28-.15.41-.23.09-.06.23-.08.4-.08.52,0,1.3.23,1.92.51-.22.15-.38.28-.57.39-.29.2-.63.36-.9.57.02,0,.03-.01.05-.01.68-.13,1.36-.2,2.22-.32-.02.11-.04.22-.05.33.01,0,.02-.01.04-.01.47-.09.95-.15,1.5-.22.23-.03.47-.06.73-.1-.19,1.18-.34,2.15-.52,3.12-.1.54-.07.87.13,1.03.16.03.31.06.46.11.11,0,.23-.02.38-.05.31-.06.61-.1.89-.1.53,0,1,.12,1.44.36.11.06.22.12.32.2.18.12.34.27.52.44.1.09.19.19.28.3.04.03.07.07.1.11.84.99,1.75,1.93,2.66,2.86.45.47.91.93,1.35,1.4.13.13.23.31.3.49.42,1.04.87,2.08,1.24,3.14.29.84.2,1.02-.55,1.51-.13.09-.26.17-.37.28-.67.63-.63.87.09,1.45.82.66,1.65,1.33,2.37,2.08.09.09.16.19.23.29.06.08.11.17.16.27.18.3.32.63.53.91.31.44.7.83,1.14,1.35-.15.11-.29.23-.42.36-.07.06-.13.12-.19.19-.09.09-.18.19-.27.29-.05.05-.09.1-.15.16-.06.07-.13.14-.19.2-.13.14-.26.26-.4.36-.09.07-.19.14-.3.2-.05.03-.11.06-.16.08-.06.03-.11.06-.18.07-.04.02-.08.04-.13.05-.42.11-.7.76-1.12,1.26-.31-.43-.63-.88-.94-1.32-.05.02-.1.04-.16.06-.41.11-.7.76-1.12,1.26-.24-.35-.49-.69-.75-1.05-.17-.24-.33-.48-.51-.72-.13-.19-.19-.44-.34-.61-.12-.13-.25-.26-.39-.38.42.87.81,1.72,1.24,2.55.19.38.39.75.62,1.12.78,1.32.86,2.52-.02,3.97-.21-.01-.4-.03-.6-.06-.15-.03-.28-.07-.42-.12-.07-.02-.13-.05-.19-.08-.24-.1-.45-.24-.66-.42-.09.22-.2.44-.34.68-.23-.01-.45-.03-.67-.08.17.24.34.49.51.74.23.38.38.81.63,1.34-.55.05-.92.14-1.28.12-.1,0-.21-.02-.32-.04-.04-.01-.08-.03-.12-.04-.09-.04-.17-.08-.22-.13-.02-.02-.04-.04-.05-.06-.19-.37-.43-.67-.71-.93.16.31.3.66.5,1.08-.55.05-.92.14-1.28.12-.25-.01-.63-.1-.72-.27-.07-.14-.15-.27-.23-.39-.46-.66-1.09-1.09-1.8-1.43-.29-.14-.61-.26-.92-.38-.04-.39-.03-.74-.11-1.07-.08-.28-.2-.63-.41-.76-.66-.39-.91-.92-.75-1.67-.23-.07-.46-.15-.7-.23-.02.01-.05.02-.07.04-.26.14-.65.1-1.04,0-.05-.01-.11-.02-.16-.04-.02,0-.03-.01-.05-.01-.16-.05-.33-.1-.49-.14-.15.04-.31.1-.47.19-.47.24-1.28-.06-1.91-.24-.33-.1-.32-.5-.13-.81.35-.59.72-1.19,1.12-1.86.63.34,1.25.5,1.88.55h.01c.1-.18.21-.36.32-.55.42.23.84.37,1.26.46.03,0,.06,0,.09-.02.22-.52.33-1.03.63-1.4.45-.57,1.02-1.06,1.56-1.57.13-.12.25-.25.34-.38.07-.08.13-.17.18-.25.06-.08.1-.16.14-.25.09-.17.16-.34.19-.52.05-.17.07-.36.07-.53,0-.13,0-.26-.03-.39-.02-.14-.06-.27-.11-.4-.04-.13-.1-.27-.17-.4s-.16-.27-.25-.4c-.47-.65-.82-1.31-.49-2.26-.44.11-.76.18-1.27.3.27-.36.44-.61.68-.93-.11-.18-.22-.43-.4-.62-.34-.37-.6-.76-.67-1.18-.32.02-.65-.04-.97-.26-.06-.03-.11-.07-.17-.1-.45.25-.99.46-1.54.33.18.27.26.62.35.92.13.5-.07,1.09-.13,1.72-.37.14-.8.31-1.35.52.11,1.02.21,2.08.33,3.28-.85.22-1.7.29-2.38.66-.13.07-.26.16-.37.26-.47.36-.87.87-1.29,1.28-.51-.25-.79-.75-1.15-1.09-.28.25-.54.54-.8.81-.06.06-.11.12-.17.18.04.04.1.08.17.12.38.19.56.79.84,1.2.25.34.49.7.79.99.28.26.65.43.95.62q.06,1.31.93,1.98c-.58,1.13-.79,1.2-2.08.64v-1.2c-.2.06-.4.13-.6.19.12.11.27.22.47.37-.08.17-.16.32-.24.44-.06.09-.11.17-.17.24-.03.03-.05.07-.08.09-.09.1-.18.16-.29.18-.06.02-.12.03-.18.03-.1,0-.2-.01-.32-.05-.17-.04-.37-.12-.63-.22-.05.09-.09.19-.13.31-.25.74-.91.35-1.52.27.03-.29.05-.54.07-.82-.08-.08-.18-.16-.28-.24-.2.2-.37.45-.5.79-.04.13-.1.22-.17.29-.03.03-.06.05-.09.07-.25.16-.61.05-.97-.04-.09-.02-.18-.04-.27-.05.02-.29.04-.54.07-.82-.21-.19-.51-.38-.68-.64-.25-.4.22-.59.37-.87.13-.23.24-.49.36-.74-.24.2-.53.3-.89.24-.56-.09-.94.12-1.37.47-.43.35-1.01.54-1.62.84.05.35.11.76.17,1.16-.82.49-1.48-.09-2.26-.31.02.11.03.21.05.31-.06.03-.11.06-.16.08-.02.19-.04.37-.08.54-.06.25-.13.55-.3.72-.26.27-.52.54-.79.81-.65.68-1.31,1.34-2.02,1.95-.58.51-.96,1.05-1.18,1.8-.36,1.26-.74,2.5-.84,3.91.7-.25,1.06-1.2,1.91-.67.01,1.32-1.24,2.14-1.55,3.52.39-.04.75.02,1.09.18.26-.03.53-.07.77-.13.7-.16,1.28-.04,1.88.38.38.26.78.5,1.13.78.21.17.41.35.58.57.09.11.17.23.24.36.06.11.12.24.17.37.13.35.79.51,1.33.84-.02.55.32,1.01,1.07,1.21.8.22,1.56.54,2.33.82.1.04.2.08.27.12.07.04.14.09.19.14h.01c.06.05.1.1.13.16l.03.09c.02.06.02.13,0,.2,0,.03-.01.06-.03.1-.01.03-.03.07-.05.1-.02.04-.05.07-.08.11-.02.03-.05.06-.08.09-.91.96-1.02,1.92-.43,3.05.11.22.06.53.11.8.06.36.2.69.4.98.02.03.04.06.06.09.2-1.78.4-3.57.61-5.42.26.02.51,0,.73-.05.08,0,.16-.03.23-.06.09-.02.17-.06.25-.09s.15-.07.22-.11c.14-.08.28-.17.41-.26h.01c.15-.12.31-.25.45-.38.15-.13.29-.28.43-.41.26-.27.53-.54.8-.78.17-.15.34-.29.54-.41.28-.19.33-.95.27-1.41-.04-.27-.09-.55-.15-.82-.14-.68-.33-1.35-.55-2.01-.24-.74-.14-1.31.38-1.91.47-.56.82-1.22,1.2-1.85.09-.16.21-.39.16-.54-.04-.12-.06-.24-.08-.36-.08-.57.06-1.13.17-1.68.04-.2.07-.39.09-.59.03-.32.22-.65.42-.92.55-.76,1.21-1.18,2.18-.65.16.09.31.13.47.14.3-.26.63-.4,1.02-.37.19-.09.4-.17.63-.28.18.23.35.43.5.64.04.01.09.01.13.01.23.01.47-.07.7-.23.25-.16.56-.26.9-.42.2.27.41.49.57.75.47.76,1.03,1.41,1.79,1.96,1.01.74,1.67,1.75,1.41,3.11-.08.42-.02.88-.17,1.27-.32.84-.12,1.58.15,2.34,1.57-.95,2.72-2.27,3.21-4.24.11.12.2.26.29.42.11.19.21.42.3.68.06.17.11.35.15.55.07.29.13.62.17.96.59-.72,1.03-1.57,1.29-2.61.84.92,1.17,3.21.99,6.15-.02.26-.04.53-.06.81-.03.27-.05.55-.09.83-.02.16-.04.32-.06.49-.03.2-.06.42-.09.63-.03.23-.07.46-.11.7.09.03.17.06.26.09.3.1.62.21.99.33-.2.48-.4.95-.62,1.46.19.07.38.11.59.13.6.08,1.2,0,1.8.02.14,0,.28.01.43.03.14.02.28.05.41.09.14.04.28.09.41.16.07.04.13.08.2.12,0,.01.01.01.01.01h-.01c-.55.67-1.34.92-2.05,1.33.24.2.55.41.82.66.19-.11.39-.22.6-.32.1-.06.2-.11.31-.16.1-.05.21-.09.32-.13.05-.03.1-.04.16-.06.32.27.75.56,1.08.92.18.21.3.54.32.82.04.68,0,1.36,0,2.26-.45.25-1,.45-1.58.65-.41.14-.84.28-1.25.43-.66.23-1.37.47-1.87.91-.99.87-2.04.87-3.12.56-.24.09-.49.15-.74.18-.51.04-1.02-.05-1.56-.2-.62.29-1.15.17-1.67-.24-.12.03-.23.07-.34.14-.42.25-.81.31-1.18.22-.17.09-.34.18-.52.26-.11.06-.21.11-.3.19-.68.54-1.34,1.08-2.02,1.62.5-.04,1,0,1.47.12,1.14-.29,2.46-.13,3.33.51-.53.34-1.05.68-1.58,1.01.03.08.05.15.07.23.32.06.64.12,1.01.19,0,.15.03.3.02.45-.02.31-.13.64-.13.95,0,.04,0,.08.01.12,0,.04.01.08.02.12.02.07.04.14.08.21,0,.01,0,.01,0,.02.05.08.11.16.19.23.17.16.34.33.53.48.13.12.27.23.41.33.03-.02.06-.03.08-.05.12-.09.23-.18.35-.28.28-.22.57-.46.85-.71.17-.15.34-.3.53-.45.02.16.04.31.05.45.03.24.06.48.08.71.03.15.04.3.06.45.05-.02.09-.04.14-.07.05-.03.1-.06.15-.1.12-.09.24-.18.35-.28.29-.22.57-.46.85-.71.17-.15.34-.3.53-.45.02.16.04.31.05.45.03.24.06.47.09.71.02.17.04.35.06.54-.18.08-.39.18-.6.27-.49.2-.99.41-1.49.61-.45.2-.92.39-1.37.57-.42.17-.88.41-1.32.4-.79-.03-1.27.26-1.54.97-.07.17-.16.31-.27.4-.04.03-.09.06-.13.09-.01,0-.02.01-.03.01-.08.04-.17.07-.26.09-.11.03-.23.04-.36.04-.15-.33-.31-.67-.51-1.08.14-.17.27-.33.41-.49-.52.09-.86.38-1.06.94-.17.46-.54.62-1.07.63-.15-.33-.31-.67-.5-1.08.2-.25.41-.49.63-.74-.05.02-.1.04-.15.07-.38.18-.79.34-1.17.54-.05.02-.1.05-.14.08-.12.06-.24.13-.36.21-.09.04-.18.1-.26.17-.09.05-.18.11-.26.18-.13.09-.26.19-.38.31-.13.11-.25.23-.36.35-.45.49-.81,1.08-1.03,1.81-.52,1.68-.97,1.92-2.73,1.75-.45-.04-.75.13-1.02.44-.32.36-.66.71-.98,1.07-.08.09-.16.18-.23.27-.22.26-.43.53-.62.81-.1.14-.19.29-.27.44-.08.15-.16.3-.23.46-.09.21-.25.38-.49.71-.13-.44-.21-.74-.31-1.07-.1.08-.2.13-.25.22-.85,1.19-1.13,2.54-1.07,3.97.03.95-.28,1.61-1.04,2.29-1.52,1.36-3.06,2.63-4.9,3.55-.11.06-.22.12-.31.19-.02.02-.05.03-.07.06-.09.07-.18.15-.25.23-.08.08-.14.16-.19.25-.02.03-.04.06-.05.08-.06.09-.11.19-.15.29-.08.21-.14.43-.18.67-.05.26-.06.53-.07.8-.02.53.14,1.07.23,1.61.03.23.13.46.11.68-.09.92-.18,1.81.02,2.71.01.04.02.07.03.11.01.03.02.07.03.11.04.15.09.31.15.46.26.63-.18,1.26-.73,1.72-.7-.13-1.12-.55-1.38-1.16-.01-.02-.02-.05-.03-.08-.04.46-.39.9-.8,1.24-.7-.13-1.12-.55-1.38-1.16-.14-.32-.25-.65-.38-.97-.02-.05-.05-.11-.07-.16-.01-.03-.03-.07-.05-.11-.15-.35-.3-.7-.39-1.06-.04-.14-.07-.28-.09-.42-.02-.14-.03-.28-.03-.42,0-.24.03-.48.1-.74.03-.12-.07-.29-.22-.46-.02-.03-.05-.06-.08-.09-.05-.06-.11-.12-.16-.17l-.1-.1c-.23-.25-.54-.43-.88-.68-.7.55-1.38.35-2.1-.12-.03-.02-.05-.03-.08-.05-.09-.06-.19-.12-.29-.17-.34.07-.75.03-1.11.04-.64.04-1.15.17-1.23.95-.02.21-.21.4-.35.65-.64-.05-1.26.15-1.82-.49-.02-.02-.04-.04-.07-.06-.06.18-.21.34-.32.55-.15-.02-.3-.01-.45-.01.02.26.04.52.06.77.01.14.02.28.03.42.03.47.07.93.11,1.38,0,.03.01.06.01.08v.06c0,.05,0,.09.02.14,0,.04,0,.07,0,.11.01.21.03.42.06.63v.05c0,.05.01.09.01.14.05.48.11.98.16,1.46v.05s0,.04.01.05c.09.8.18,1.59.29,2.39v.06c.01.09.03.19.04.29.05.4.1.8.16,1.2.02.13.04.27.06.41l.03.18c.02.13.04.25.06.38.01.09.03.18.04.27.36-.07.75-.11,1.13-.12.3-.01.63-.02.83.18.44-.1.91-.17,1.38-.18.4-.02.83-.03.98.45.13.44.27.88-.19,1.28-.41.35-.76.77-1.02,1.06.06.62.1,1.09.16,1.73-.52-.22-.84-.35-1.31-.55.1.75.16,1.36.25,1.97.06.37.03.67-.29.93-.18.14-.33.32-.56.57h0s.02.09.03.14c.01.02.01.05.02.07,0,.03.01.06.02.09.41.05.72.08,1.02.09.68.01,1.36.01,2.04.01h1.49c.24,0,.49-.02.71.05.27.08.5.16.69.23.1.03.18.07.26.11.06.02.11.05.15.08.06.03.11.07.16.11.02.02.04.04.06.06.04.03.07.06.08.1,0,0,.01,0,0,.01.03.04.05.08.06.12.01.03.02.06.02.09.02.05.02.1.02.16s0,.12-.02.19c-.03.21-.1.46-.21.78-.01.02-.01.04-.02.06-.11.32-.2.64-.25.96,0,.08-.02.16-.03.23-.02.08-.03.15-.03.23-.02.23-.03.45-.02.67,0,0,.01,0,0,.01,0,.14.01.29.03.43.03.28.08.56.15.84,0,.02.01.04.02.06.02.09.05.19.08.28.02.07.04.14.07.2.05.14.11.29.17.43.05.12.11.24.17.36.12.24.25.47.4.71.19.31.56.56.96.73.86-.25,1.59-.26,2.23,0,1.11-.33,2.03-.23,2.81.33.82-.54.83-1.64,1.57-2.35.31-.1.99.4,1.17-.39.01-.02.07-.03.11-.03.96-.03,1.65-.62,2.36-1.14.46-.34.87-.37,1.08.34-.28.19-.5.42-.61.69.66-.19,1.19-.63,1.75-1.03.46-.34.87-.37,1.08.34-.11.07-.2.15-.28.23.05.13.11.27.17.42.38.04.78.09,1.17.13.06-.04.12-.07.17-.12.25-.21-.25-.81.47-.94.12.27.24.57.39.93.48.05.97.11,1.45.16.29.55.45.83.69.96.09.02.18.04.26.08.01.01.02.01.03.01.23.03.55,0,1.03-.05.34-.03.74-.1,1.04,0,.61-.28,1.34-.28,2.07-.25-.14.12-.27.23-.53.45.01,0,.02.02.03.02.2-.05.41-.12.63-.22.62-.28,1.35-.28,2.08-.25-.13.12-.27.23-.53.45.86.49,1.66.95,2.5,1.43-.18.33-.28.52-.34.63.73.2,1.6.22,2.15.65.52.39,1.48.77.99,1.98.73-.38,1.16-.02,1.53.32.67.63,1.46.66,2.26.59,2.31-.21,3.99.87,5.4,2.52.21.25.26.64.4.95.22.5.44,1,.71,1.48.17.31.78.42.57.91-.18.45-.46.87-.78,1.26-.2.25-.41.49-.64.73.3.05.6.13.86.25.11-.1.24-.19.37-.22.78-.16,1.55.03,2.12.37-.01.16-.04.31-.09.43.18.05.35.12.53.22.19-.09.39-.17.59-.23.94-.27,1.9.2,2.56,1.03,1.19-.19,1.26-.13,1.31,1.06v.02c.19.02.38.05.6.1.15.03.3.06.46.09.51-.26,1.09-.25,1.75-.09.34.08.7.13,1.05.17.17.02.35.04.53.06.17.02.35.05.54.08.07,0,.14.02.21.03,1.47.28,2.79.84,3.82,1.93.61.65,1.28,1.13,2.31,1.02.37.88.71,1.75,1.1,2.59.2.45-.03.74-.25,1.06-.77,1.08-1.55,2.15-2.3,3.24-.29.41-.57.84-.81,1.28-.39.72-.73,1.44-1.55,1.83-.51.24-.71.72-.54,1.29.68,2.15.34,4.18-.6,6.21-.41.9-.58,1.93-.8,2.91-.23,1.06-.85,1.72-1.94,1.89-.38.06-.79.06-1.17.1-.27.02-.59,0-.81.12-1.89,1.1-3.83,2.12-5.34,3.75-.63.69-.49,1.52-.18,2.19.38.82.13,1.38-.27,2.05-.62,1.03-1.19,2.09-1.71,3.18-.3.62-.69,1.11-1.57,1.57.63-.87,1.09-1.52,1.6-2.23-.32-.16-.53-.26-.7-.35-.11.09-.19.13-.22.19-.16.34-.24.74-.49,1.02-.41.48-.76.86-.6,1.62.1.46-.2,1.05-.43,1.54-.32.69-.69,1.37-1.15,1.97-.24.3-.73.56-1.11.57-.6.01-1.23.18-1.8-.09-.14.05-.28.08-.41.09-.4.01-.84.09-1.24.05.31.19.62.39.75.74-.09.46-.14.74-.13.95.07.06.14.12.21.18.02.01.05.03.07.05.46.39.93.77,1.39,1.14l.03.03c.1.08.2.16.3.24.41.33.83.66,1.25.99.13.1.27.21.4.31.36.28.73.56,1.09.83.05.04.1.08.15.12.65.48,1.3.97,1.96,1.44.67.48,1.33.96,2.01,1.43.37.26.75.51,1.12.76.18.13.37.26.56.38.31.21.64.42.96.63.1.07.19.13.29.19h0s.01.01.01.01c.25.16.51.33.76.49.15.1.3.2.46.3.01.01.02.01.03.02h.01c.2.13.4.26.61.38.58.37,1.16.73,1.75,1.08.06.04.13.08.19.12h.01c.43.25.86.51,1.29.77,1.3.76,2.62,1.5,3.95,2.21.22.13.44.25.66.36h.01s.03.02.04.03c.13.07.26.13.38.19.08.05.16.09.24.13.43.23.88.46,1.31.68.01.01.02.01.03.01.09.05.18.1.27.15.1.05.19.1.29.14.19.1.38.19.57.28.53.26,1.05.52,1.59.77.01,0,.01.01.02.01.81.38,1.62.76,2.44,1.13.06.03.11.05.17.07.12.06.25.12.37.17.6.27,1.19.53,1.79.78.16.08.33.15.51.22.08.03.16.07.24.1h.01c.08.03.15.06.23.1.08.03.15.06.23.09l.42.18c.17.07.34.14.52.21.12.05.25.1.37.15.2.08.4.16.61.24.17.07.33.14.51.2.21.08.41.16.63.24.08.04.17.07.26.1.04.02.09.04.14.05v-171.56c-.09.1-.17.19-.25.3-1.02,1.41-2.53,2-4.06,2.31-2.45.49-4.17,1.92-5.67,3.71-.02.03-.04.05-.06.08-.52.61-.88,1.39-1.15,2.15-.4,1.06-.82,2.08-1.47,3.03-.38.57-.54,1.29-.78,1.94-.29.75-.59,1.5-.89,2.29-.71-.23-.92-.7-1.07-1.16-.09-.29-.25-.49-.45-.63-.22.58-.45,1.17-.69,1.79-.13-.04-.24-.09-.33-.15-.05-.03-.1-.06-.15-.1-.08-.06-.15-.12-.21-.19-.03-.03-.05-.06-.08-.1-.05-.06-.08-.12-.11-.19-.08-.14-.13-.28-.18-.43-.18-.56-.58-.75-1.08-.94-1.13-.41-2.41-.66-3.08-1.76-.46-.75-.74-1.61-1.05-2.44-.17-.47-.18-1-.37-1.47-.43-1.1-.75-2.2-.61-3.4.03-.29-.02-.63-.13-.91-.67-1.59-.57-3.18-.07-4.79.13-.4.23-.81.34-1.2,2.32-.4,3.51-1.75,3.3-3.86-.68-.13-1.4-.26-2.18-.41-.27-.84.07-1.65.17-2.48.06-.54.17-1.07.19-1.61.14-3.49.24-6.97.38-10.46.05-1.25-.44-2.35-.81-3.49-.04-.13-.18-.24-.31-.32-.76-.49-1.55-.93-2.27-1.44-.09-.06-.18-.11-.26-.16-.67.25-1.37.43-2.11.66-.08-.21-.15-.42-.21-.62-.64.23-1.31.4-2,.62-.26-.7-.41-1.32-.71-1.85-.43-.79-.4-1.65-.51-2.48-.08-.74.41-1.09,1.11-.83.42.16.84.18,1.26.15.11-.15.3-.24.53-.24.13,0,.27.03.42.09.07-.02.14-.03.21-.05.12-.61-.05-.93-.67-1.15-.08-.03-.16-.06-.23-.09-.15-.05-.3-.12-.44-.19-.24-.11-.49-.23-.72-.36-.24-.12-.47-.25-.71-.38-.41-.22-.53-.61-.47-1.09.15-1.55.49-1.97,2.04-2.18.29-.04.58-.07.87-.1.2-.03.4-.04.61-.06.79-.08,1.58-.14,2.36-.22.2-.02.39-.04.6-.06.39-.04.8-.11,1.14-.28.25-.12.52-.38.61-.64.27-.75.45-1.53.69-2.34-.39-.1-.81-.2-1.3-.32.05-.44.1-.85.14-1.2.84-.44,1.58-.88,2.35-1.24.4-.19.87-.3,1.32-.36.36-.05.72-.1,1.03-.22.08-.02.15-.05.21-.09.23-.12.43-.27.6-.49.06-.1.12-.21.17-.34.04-.1.07-.21.1-.33.05-.25.22-.48.35-.75.68-.09,1.33-.18,2.05-.27.14-.35.28-.7.49-1.21,1.17-.2,2.43-.47,3.7-.62.19-.03.36,0,.53.07.01,0,.02.01.02.01.08.04.16.08.23.13.47-.08.96-.16,1.45-.21.66-.08,1.23.48,1.37,1.15.11-.85.22-1.72.56-2.63.49,1.6.93,2.99,1.31,4.36.43-1.32.32-2.81.9-4.36.4,1.32.77,2.49,1.11,3.63.08-.76.06-1.51-.45-2.22.31-.12.62-.24.9-.35.45-.17.87-.33,1.28-.49Z" fill="none" stroke-width="0"/><path d="M310.93,426.7c.07-.28.1-.47.17-.66.02-.05.03-.1.05-.16-.26-.06-.55-.04-.86.07.1.13.2.27.3.42.06.09.16.15.34.32Z" fill="none" stroke-width="0"/><path d="M303.87,424.5c-.3-.39-.57-.8-.81-1.22-.03-.06-.07-.12-.11-.18.15.34.33.67.54,1,.09.15.22.28.38.4Z" fill="none" stroke-width="0"/><path d="M319.05,459.24c-.48-.78-.82-.87-1.64-.47-.14.07-.27.15-.5.29-.02-.02-.04-.03-.06-.05.59.86,1.18,1.72,1.79,2.57.45.62.9,1.24,1.36,1.85-.03-1.11.04-2.22-.5-3.25-.16-.31-.27-.65-.45-.95Z" fill="none" stroke-width="0"/><path d="M308.29,435.43c.5-.22.85-.48.92-1.08.11-.98.4-1.88,1.3-2.5.18-.13.28-.55.23-.81-.27-1.41-.59-2.81-.91-4.21-.06-.25-.16-.44-.29-.6-.59.21-1.2.38-1.81.52-.57.13-1.11.06-1.6-.15-.2.05-.41.1-.62.15-1.05.23-1.99-.18-2.68-.9-.75-.78-1.45-1.65-1.97-2.58-.3-.54-.68-1.01-1.09-1.44.04.16.08.32.13.47,1.63,5.97,3.71,11.77,6.19,17.34.17-1.02.15-2.1.26-3.3.56-.27,1.25-.62,1.96-.92Z" fill="none" stroke-width="0"/><path d="M317.84,320.28c-.67.62-.81,1.07-.33,1.81.35.53.42,1.03.34,1.65-.06.42.12.88.19,1.32.09.02.17.05.26.07.48-.56.95-1.12,1.43-1.68.09.03.18.06.27.08,0,.56.21,1.23-.02,1.66-.25.46-.27.88-.2,1.29.06-.07.12-.13.19-.18.61-.46.92-1,.77-1.78.3-.1.55-.19.79-.27.19-.63.38-1.25.56-1.88.84-.16,1.38.42,2.01.68.07-.23.14-.46.21-.68.83-.16,1.36.4,1.98.67-.02-.01-.04-.03-.06-.04-.49-.48-1-.71-1.73-.74-.75-.03-1.45-.52-2.27-.4-.17.03-.39-.23-.58-.36-.42-.26-.83-.53-1.26-.76-.94-.49-1.2-1.55-.55-2.6.54.29.91,1,1.73.78.25-.45.33-.92-.36-1-.82-.09-1.14-.66-1.5-1.17-.34.46-.69.92-1.03,1.39-.1.14-.2.28-.3.43-.06.42-.12.84-.18,1.26-.02.16-.19.32-.32.44Z" fill="none" stroke-width="0"/><path d="M319.27,333.7c.11-.41.2-.84.56-1.25-.4.14-.76.26-1.09.38.12.22.24.47.38.67.05.07.1.14.15.21Z" fill="none" stroke-width="0"/><path d="M322.07,322.38c-.19.63-.37,1.25-.56,1.88-.24.08-.49.17-.79.27.15.78-.16,1.32-.77,1.78-.07.05-.13.11-.19.18.07.45.24.89.31,1.34.73.18,1.18-.07,1.49-.67.16-.31.33-.65.6-.85.61-.46.92-1,.77-1.78.3-.1.55-.19.79-.27.12-.4.24-.8.36-1.2-.63-.27-1.17-.85-2.01-.68Z" fill="#58cc02" stroke-width="0"/><path d="M310.06,338.09c.05-.02.11-.05.16-.08-.01-.1-.03-.2-.04-.3-.02,0-.05-.01-.07-.02-.02.14-.03.28-.05.4Z" fill="#58cc02" stroke-width="0"/><path d="M319.55,423.14c.03.14.01.36-.08.44-.57.54-.14,1.04-.03,1.6q.69-.45.93-2.33c.3-.16.63-.29.92-.48-.39-.04-.79-.09-1.17-.13-.06-.15-.12-.29-.18-.42-.35.34-.51.77-.4,1.32Z" fill="#58cc02" stroke-width="0"/><path d="M319.87,337.79c1.15.48,1.36.38,1.92-.71-.19-.15-.34-.26-.46-.37-.61.21-1.14.47-1.46,1.08Z" fill="#58cc02" stroke-width="0"/><path d="M317.62,336.91c-.25-.4.22-.58.37-.86.26-.47.43-1.02.8-1.38.29-.28.39-.62.48-.97-.05-.07-.1-.14-.15-.21-.14-.2-.25-.44-.38-.67-.55.19-1.04.36-1.53.53.12.14.26.31.35.41-.38.41-.77.79-1.11,1.21-.1.13-.2.24-.32.33-.12.24-.23.5-.36.74-.15.28-.62.46-.37.86.17.27.47.45.67.64-.02.29-.04.54-.07.82.61.08,1.25.47,1.51-.27.12-.34.29-.59.5-.79-.15-.12-.29-.25-.39-.41Z" fill="#58cc02" stroke-width="0"/><path d="M306.3,350.85c-.35-.16-.7-.22-1.09-.18-.02.11-.04.22-.05.33.41-.06.79-.1,1.14-.15Z" fill="#58cc02" stroke-width="0"/><path d="M320.26,330.85s-.11.11-.1.12c.28.34-.26.84.16,1.2.32-.32.63-.69.97-.99-.26-.24-.57-.4-1.03-.33Z" fill="#58cc02" stroke-width="0"/><path d="M353.91,440.79c.22-.3.47-.5.73-.63-.16-.03-.31-.05-.46-.09-.2-.05-.4-.08-.59-.1.01.26.04.52.07.77.12.02.24.07.26.04Z" fill="#58cc02" stroke-width="0"/><path d="M296.29,398.31c.12-.2.27-.37.33-.54-.19-.13-.51-.15-.82-.17.01.23.03.47.04.7.15,0,.3,0,.45,0Z" fill="#58cc02" stroke-width="0"/><path d="M328.41,423.62s-.02-.01-.04-.02c.26-.22.39-.34.53-.45-.72-.03-1.46-.03-2.07.25.04.01.08.03.11.04.52.27.98.3,1.47.18Z" fill="#58cc02" stroke-width="0"/><path d="M298.14,408.7c-.39.01-.76.06-1.13.13.04.24.07.47.11.71.6-.28,1.21-.5,1.85-.65-.2-.21-.52-.2-.82-.19Z" fill="#58cc02" stroke-width="0"/><path d="M344.52,438.45c.39-.24.8-.47,1.18-.72.17-.12.33-.29.49-.43-.26-.12-.55-.2-.85-.25-.25.27-.5.54-.75.82-.1.11-.13.27-.07.58Z" fill="#58cc02" stroke-width="0"/><path d="M324.73,423.44c-.08-.04-.17-.06-.26-.08.08.05.18.08.29.09,0,0-.02,0-.03-.01Z" fill="#58cc02" stroke-width="0"/><path d="M346.41,439.23c.35.09.63.17.99.27-.17.43-.31.79-.5,1.25.67-.05.74-.45.78-.76.11-.97.73-1.56,1.45-1.9-.17-.1-.35-.17-.53-.22-.35.87-1.58.67-2.19,1.36Z" fill="#58cc02" stroke-width="0"/><path d="M340.58,482.56c-.82.07-1.42-.34-2.08-1.04-.03.91.54,1.19,1.06,1.5.41.04.84-.04,1.24-.05.13,0,.27-.04.41-.09-.11-.05-.21-.11-.32-.2-.08-.07-.22-.12-.33-.11Z" fill="#58cc02" stroke-width="0"/><path d="M312.81,426.38c.06.09.16.15.34.32.07-.28.1-.47.17-.66.09-.25.14-.66.31-.73,1.13-.44,1.05-1.72,1.86-2.5.32-.11,1,.4,1.18-.39,0-.02.07-.03.11-.03.22,0,.43-.04.62-.1.12-.27.33-.5.61-.69-.21-.71-.62-.68-1.08-.35-.72.52-1.4,1.12-2.37,1.14-.04,0-.1.02-.11.03-.18.79-.86.29-1.18.39-.74.71-.74,1.81-1.56,2.35.4.29.76.69,1.09,1.22Z" fill="#58cc02" stroke-width="0"/><path d="M307.35,398.51c.06-.21-.33-.57-.57-.82-.24-.24-.54-.42-.88-.68-.71.55-1.39.34-2.1-.12-.69-.45-1.42-.74-2.31-.31-.09.04-.19.07-.29.09.13.07.25.14.38.22.72.47,1.4.67,2.1.12.34.25.64.43.88.68.24.24.63.61.57.82-.31,1.08.12,1.99.53,2.92.14.32.25.65.39.97.26.6.68,1.03,1.38,1.15.41-.34.75-.78.8-1.24-.12-.29-.23-.59-.35-.89-.41-.93-.84-1.83-.53-2.92Z" fill="#58cc02" stroke-width="0"/><path d="M302.82,425.86c.69.72,1.64,1.13,2.68.9.21-.04.41-.09.62-.15-.4-.17-.77-.42-1.08-.75-.41-.43-.8-.88-1.16-1.36-.15-.12-.28-.25-.38-.4-.21-.33-.39-.66-.54-1-.69-1.14-1.69-1.95-2.66-2.81-.13-.12-.42-.07-.63-.08-.11,0-.23-.01-.34-.02.14.55.28,1.1.43,1.65.41.43.78.9,1.09,1.44.53.94,1.23,1.8,1.97,2.58Z" fill="#58cc02" stroke-width="0"/><path d="M321.72,460.19c-.16-.31-.27-.65-.45-.95-.48-.78-.82-.87-1.64-.47-.14.07-.27.15-.5.29-.4-.33-.85-.64-1.22-1.02-1.19-1.24-2.37-2.49-3.53-3.76-.55-.6-1.08-1.21-1.59-1.84-.86-1.06-1.26-2.3-1.49-3.62-.12-.69-.56-1.23-.97-1.81-1.44-2.04-2.76-4.14-2.13-6.87.27-1.16.23-2.39.35-3.79.56-.27,1.25-.62,1.96-.92.5-.22.85-.48.92-1.08.11-.98.4-1.88,1.3-2.5.18-.13.28-.55.23-.81-.27-1.41-.59-2.81-.91-4.21-.13-.54-.45-.86-.88-.95-.02.06-.03.11-.05.16-.06.18-.1.38-.17.66-.18-.17-.29-.23-.34-.32-.1-.15-.2-.29-.3-.42-.04.02-.09.02-.13.04-.21.09-.42.17-.64.24.13.15.23.35.29.6.33,1.4.64,2.8.91,4.21.05.25-.05.68-.23.81-.9.62-1.19,1.52-1.3,2.5-.07.6-.42.86-.92,1.08-.71.31-1.4.66-1.96.92-.1,1.2-.09,2.28-.26,3.3,2.02,4.54,4.3,8.94,6.83,13.17.41.69.83,1.38,1.26,2.06.87,1.4,1.77,2.77,2.69,4.12.02.02.04.03.06.05.23-.14.36-.22.5-.29.82-.4,1.17-.31,1.64.47.18.3.29.64.45.95.53,1.03.47,2.14.5,3.25.14.18.27.37.41.55,0,0,0,0,0,0,.63.83,1.27,1.65,1.92,2.47-.04-.99-.08-1.99-.11-2.98-.04-1.12.04-2.25-.5-3.3Z" fill="#58cc02" stroke-width="0"/><path d="M308.41,424.99c.07-.02.15-.05.22-.07.09-.03.18-.06.27-.09-.64-.26-1.37-.25-2.22,0,.57.24,1.24.31,1.73.16Z" fill="#58cc02" stroke-width="0"/><path d="M330.02,374.57c-.18.17-.42.27-.66.38-.22.25-.42.5-.63.74.19.41.35.75.5,1.08.53,0,.9-.17,1.07-.63.21-.56.55-.85,1.07-.94.29-.34.6-.7.95-1.11-.92-.09-1.65-.14-2.29.48Z" fill="#58cc02" stroke-width="0"/><path d="M333.17,365.49c-.42.21-.8.4-1.17.58.37.09.75.03,1.18-.22.11-.07.23-.11.34-.14-.05-.04-.1-.08-.15-.12-.08-.07-.2-.1-.2-.1Z" fill="#58cc02" stroke-width="0"/><path d="M337.38,348.66c-.15-1.2-.46-2.11-.92-2.62-.5,1.98-1.65,3.29-3.21,4.25.11.3.23.61.34.93,1.54-.61,2.85-1.41,3.79-2.56Z" fill="#58cc02" stroke-width="0"/><path d="M335.97,373.43c.21-.04.43-.1.63-.2-.07-.54-.13-1.04-.2-1.61-.59.51-1.13,1.01-1.72,1.44-.02.02-.05.03-.08.05.38.26.82.41,1.36.32Z" fill="#58cc02" stroke-width="0"/><path d="M327.77,341.5c-.15-.21-.32-.41-.49-.64-.23.11-.44.18-.63.28.22.02.46.09.73.23.13.07.26.11.4.13Z" fill="#58cc02" stroke-width="0"/><path d="M340.58,360.49c.76.16,1.35-.09,1.92-.4-.27-.25-.57-.46-.82-.66-.44.25-.83.56-1.1,1.06Z" fill="#58cc02" stroke-width="0"/><path d="M335.4,365.85c-.07.04-.14.07-.2.1.78.23,1.55.31,2.29.02-.09-.03-.18-.05-.28-.08-.63-.2-1.22-.39-1.81-.04Z" fill="#58cc02" stroke-width="0"/><path d="M326.34,371.12c.88-.57,1.82-1.04,2.54-1.86.43-.49,1.06-.83,1.74-1-.47-.12-.97-.16-1.46-.12-1.17.94-2.35,1.89-3.53,2.85.13.34.39.34.71.14Z" fill="#58cc02" stroke-width="0"/><path d="M318.42,363.3c.25-2.18.49-4.36.75-6.64,1.91.13,2.71-1.65,4.08-2.55.29-.19.34-.94.27-1.41-.14-.96-.39-1.91-.69-2.83-.24-.75-.14-1.31.38-1.92.48-.55.82-1.22,1.2-1.85.1-.16.21-.39.17-.54-.28-.91.09-1.76.18-2.64.03-.32.23-.65.42-.92.14-.2.29-.37.45-.51-.16,0-.32-.05-.48-.14-.97-.53-1.64-.12-2.19.65-.2.27-.39.6-.42.92-.09.87-.47,1.73-.18,2.64.05.15-.07.38-.17.54-.38.63-.72,1.3-1.2,1.85-.52.6-.62,1.17-.38,1.92.3.92.55,1.87.69,2.83.07.46.02,1.22-.27,1.41-1.36.9-2.16,2.68-4.08,2.55-.21,1.86-.41,3.64-.61,5.42.45.61,1.17,1.06,2.08,1.22Z" fill="#58cc02" stroke-width="0"/><path d="M356.38,345.97c-.46-.75-.74-1.61-1.05-2.44-.17-.47-.19-1-.37-1.46-.43-1.1-.76-2.2-.61-3.4.04-.3-.01-.64-.13-.91-.66-1.59-.57-3.18-.07-4.79.13-.4.23-.82.34-1.2,2.33-.39,3.51-1.74,3.31-3.85-.68-.13-1.4-.27-2.19-.42-.27-.83.08-1.65.17-2.48.06-.54.18-1.07.2-1.61.14-3.48.24-6.97.38-10.46.05-1.25-.44-2.35-.81-3.5-.04-.13-.19-.24-.31-.32-.76-.48-1.55-.92-2.28-1.43-.7-.49-1.37-.63-2.19-.28-.09.04-.19.07-.29.11.09.05.17.11.26.17.74.51,1.52.95,2.28,1.43.12.08.27.19.31.32.36,1.14.86,2.25.81,3.5-.15,3.48-.25,6.97-.38,10.46-.02.54-.14,1.07-.2,1.61-.09.83-.44,1.64-.17,2.48.79.15,1.5.29,2.19.42.2,2.11-.98,3.46-3.31,3.85-.11.39-.21.8-.34,1.2-.5,1.6-.59,3.2.07,4.79.12.28.16.62.13.91-.14,1.2.18,2.3.61,3.4.18.46.19.99.37,1.46.31.83.59,1.7,1.05,2.44.68,1.1,1.95,1.35,3.08,1.76.51.18.9.38,1.08.94.15.45.36.93,1.07,1.16.24-.61.46-1.2.69-1.79-.18-.13-.39-.22-.63-.31-1.13-.41-2.4-.66-3.08-1.76Z" fill="#58cc02" stroke-width="0"/><path d="M375.94,283.33v2.49c-.21.08-.43.16-.67.25-.21.09-.43.17-.67.26,1,1.37.17,2.86.23,4.34-1.23.19-1.38.06-1.68-1.01-.1-.37-.2-.74-.31-1.11.08-.76.06-1.51-.45-2.22.31-.12.62-.24.9-.35.45-.17.87-.33,1.28-.49v-.85c0-.61.21-.94.89-1.15.16-.05.32-.1.47-.16Z" fill="#58cc02" stroke-width="0"/><path d="M347.16,303.86c-.03-.29.03-.52.15-.67-.42.03-.83,0-1.26-.15-.69-.26-1.19.09-1.11.83.09.83.07,1.69.51,2.48.29.53.44,1.15.7,1.85.69-.22,1.36-.39,2-.63-.15-.45-.28-.86-.49-1.23-.43-.79-.41-1.65-.51-2.48Z" fill="#58cc02" stroke-width="0"/><path d="M350.7,302.98c.12-.62-.05-.94-.67-1.15-.73-.26-1.42-.65-2.1-1.02-.41-.23-.53-.61-.48-1.09.16-1.55.49-1.97,2.04-2.18,1.48-.2,2.96-.28,4.45-.44.39-.04.79-.11,1.14-.28.25-.12.52-.38.61-.64.27-.75.45-1.53.68-2.34-.4-.1-.8-.2-1.31-.32.05-.44.1-.85.14-1.2.84-.45,1.58-.89,2.36-1.25.41-.19.87-.3,1.32-.35.98-.12,1.86-.33,2.11-1.47.06-.26.23-.49.36-.75.68-.09,1.34-.18,2.05-.28.14-.34.28-.69.49-1.2.72-.13,1.49-.28,2.26-.41-.23-.16-.49-.25-.78-.22-1.27.15-2.53.42-3.7.63-.21.51-.35.86-.49,1.2-.71.1-1.37.19-2.05.28-.13.26-.3.49-.36.75-.25,1.14-1.13,1.35-2.11,1.47-.45.06-.92.16-1.32.35-.78.36-1.52.8-2.36,1.25-.04.35-.09.76-.14,1.2.5.12.91.22,1.31.32-.23.81-.41,1.59-.68,2.34-.09.26-.36.52-.61.64-.34.16-.75.24-1.14.28-1.48.16-2.97.24-4.45.44-1.55.21-1.88.63-2.04,2.18-.05.48.07.87.48,1.09.68.37,1.37.76,2.1,1.02.61.21.79.53.67,1.15-.07.02-.14.03-.21.05,0,0,0,0,0,0,.83.3,1.6.13,2.43-.05Z" fill="#58cc02" stroke-width="0"/><path d="M370.57,289.95c.11-.22.2-.44.27-.66-.39-1.38-.83-2.76-1.32-4.36-.34.9-.44,1.79-.55,2.63.03.15.09.3.08.45-.08,1.02.46,1.59,1.52,1.94Z" fill="#58cc02" stroke-width="0"/><path d="M336.11,298.59c-.07.06-.14.12-.21.19.03.04.05.08.08.12.05-.12.09-.22.13-.31Z" fill="#58cc02" stroke-width="0"/><path d="M333.89,303.91c.39.17.78.54,1.14.51.53-.05,1.07-.1,1.6-.21-.17-.1-.35-.22-.53-.3-.42-.19-.83-.43-1.27-.51-.81-.14-1.64-.16-2.45-.27-.26-.03-.54-.12-.75-.26,0,0,0,0,0,0-.12.12-.25.25-.37.37.46.04.91.08,1.36.16.44.08.85.33,1.27.51Z" fill="#58cc02" stroke-width="0"/><path d="M331.29,309.2c-.7-.11-1.4-.31-2.11-.6-.72-.29-1.43-.58-2.15-.87-.2.22-.39.44-.58.66.17.07.35.14.52.21,1.47.6,2.92.84,4.33.6Z" fill="#58cc02" stroke-width="0"/><path d="M327.11,336.26c.26-.43.52-.86.79-1.31-.62-.05-1.26-.21-1.88-.55-.41.67-.77,1.27-1.13,1.86-.19.31-.2.71.14.8.62.18,1.44.48,1.91.24.16-.09.32-.15.48-.19-.06-.02-.11-.03-.16-.05-.33-.1-.32-.49-.14-.8Z" fill="#58cc02" stroke-width="0"/><path d="M333.29,339.93c-.07-.28-.2-.63-.41-.76-.66-.39-.91-.92-.74-1.67-1-.31-1.85-.75-2.91-.23.23.07.46.16.7.23-.16.75.08,1.28.74,1.67.22.13.34.48.41.76.09.33.08.68.11,1.07,1.22.45,2.33,1,2.95,2.19.09.17.47.26.72.27.37.02.74-.06,1.28-.12-.19-.41-.33-.76-.49-1.08-.61-.59-1.4-.95-2.25-1.26-.04-.4-.03-.75-.11-1.07Z" fill="#58cc02" stroke-width="0"/><path d="M332.45,315.85c.11.08.26.12.47.11-.15-.05-.31-.09-.47-.11Z" fill="#58cc02" stroke-width="0"/><path d="M331.8,334.84c.23-.53.34-1.03.63-1.4.46-.58,1.03-1.07,1.56-1.58,1.09-1.03,1.24-2.3.36-3.52-.47-.65-.82-1.31-.49-2.26-.44.11-.76.18-1.27.31.27-.37.45-.62.68-.94-.11-.18-.22-.43-.4-.62-.63-.67-.96-1.4-.48-2.26-.4-.35-.74-.65-1.08-.95-.04.05-.12.12-.11.15.14.51.5,1.16-.08,1.48-.34.19-.74.37-1.15.39.08.42.33.81.68,1.18.18.19.29.44.4.62-.23.32-.41.57-.68.94.52-.12.83-.2,1.27-.31-.33.95.02,1.61.49,2.26.88,1.22.73,2.49-.36,3.52-.54.51-1.11,1-1.56,1.58-.29.37-.4.88-.63,1.4-.03,0-.06,0-.09.01.79.17,1.57.12,2.31-.01Z" fill="#58cc02" stroke-width="0"/><path d="M321.18,317.93c.69.08.61.55.36,1-.82.22-1.2-.49-1.73-.78-.65,1.05-.39,2.11.55,2.6.43.23.84.5,1.26.76.2.12.41.38.58.36.82-.12,1.52.37,2.27.4.73.03,1.25.26,1.73.74.02.02.04.03.06.04.11.05.22.09.34.12.33.07.54.25.69.46.55.13,1.08-.07,1.54-.33-.15-.09-.3-.18-.42-.29-.49-.48-1-.71-1.73-.74-.75-.03-1.45-.52-2.27-.4-.17.03-.39-.23-.58-.36-.42-.26-.83-.53-1.26-.76-.94-.49-1.2-1.55-.55-2.6.54.29.91,1,1.73.78.25-.45.33-.92-.36-1-.9-.1-1.2-.78-1.61-1.31,0-.13-.03-.23,0-.28.76-1.16,1.52-2.33,2.31-3.47.73-1.05,1.92-1.44,2.99-2-.72-.26-1.51-.41-1.81-.23-.43.26-.89.47-1.34.69-.57.68-1.13,1.37-1.68,2.06-.31.39-.62.78-.92,1.17-.31.4-.61.79-.91,1.19-.25.34-.5.68-.75,1.02.36.51.68,1.08,1.5,1.17Z" fill="#58cc02" stroke-width="0"/><path d="M337.79,340.1c-.2-.33-.31-.72-.53-1.03-.13-.19-.4-.28-.61-.42-.12.21-.35.43-.33.64.02.37.13.77.31,1.09.18.31.39.61.61.91.21.04.43.07.66.07.14-.23.26-.46.35-.68-.17-.16-.32-.35-.45-.57Z" fill="#58cc02" stroke-width="0"/><path d="M326.09,315.35c-.12.34-.05.76,0,1.13.09.58.24,1.16.42,2.03.42-1.32.82-2.4,1.09-3.52.4-1.68,1.28-2.62,2.96-2.96.02-.11.04-.22.05-.33-.86.12-1.55.2-2.23.32-.02,0-.03,0-.05.01-.05.04-.11.08-.16.13-.92.91-1.67,1.96-2.1,3.18Z" fill="#58cc02" stroke-width="0"/><path d="M340.87,334.09c-.32-.34-.67-.64-1.01-.96-.44-.4-.79.14-1.2.11-.15-.01-.3.04-.57.09.06.13.12.25.18.38.13.13.27.25.39.38.15.17.21.41.34.6.41.6.84,1.19,1.26,1.77.42-.5.7-1.15,1.12-1.26.06-.02.1-.04.15-.06-.11-.15-.21-.3-.32-.45-.13-.19-.19-.44-.34-.6Z" fill="#58cc02" stroke-width="0"/><path d="M340.32,483.75c-.13-.35-.43-.55-.76-.74-.52-.3-1.09-.59-1.06-1.5.66.7,1.25,1.12,2.08,1.04.11,0,.25.04.33.11.1.09.21.15.32.2.57.27,1.21.11,1.8.09.38-.01.87-.27,1.11-.57.47-.6.83-1.28,1.16-1.97.23-.49.53-1.08.43-1.54-.16-.75.19-1.14.6-1.62.24-.28.32-.68.49-1.02.03-.06.11-.1.22-.18.18.09.38.19.7.35-.51.71-.97,1.36-1.59,2.23.88-.46,1.27-.94,1.56-1.57.52-1.08,1.09-2.15,1.71-3.18.4-.67.66-1.23.28-2.04-.32-.68-.45-1.5.18-2.19,1.5-1.64,3.45-2.65,5.34-3.75.22-.13.53-.1.8-.13.39-.04.79-.03,1.17-.1,1.09-.17,1.71-.83,1.95-1.89.22-.98.38-2.01.8-2.91.93-2.02,1.27-4.06.6-6.21-.18-.57.03-1.05.53-1.29.82-.39,1.15-1.11,1.55-1.83.24-.44.52-.87.81-1.28.76-1.09,1.54-2.16,2.31-3.24.23-.32.46-.61.25-1.06-.39-.84-.72-1.71-1.09-2.59-1.03.11-1.71-.37-2.32-1.02-1.03-1.1-2.36-1.66-3.82-1.93-.77-.14-1.57-.17-2.33-.35-.65-.15-1.24-.17-1.75.09-.27.13-.51.33-.73.63-.02.03-.14-.02-.26-.04-.02-.25-.06-.51-.07-.77,0,0,0-.01,0-.02-.05-1.19-.12-1.25-1.31-1.07-.65-.83-1.62-1.3-2.55-1.02-.2.06-.39.14-.58.23-.72.34-1.34.93-1.45,1.9-.03.31-.11.71-.78.76.18-.46.33-.83.5-1.25-.36-.1-.64-.17-.99-.27.61-.69,1.85-.49,2.19-1.36.05-.12.08-.26.09-.43-.57-.34-1.34-.53-2.12-.36-.14.03-.26.11-.38.22-.16.14-.32.31-.49.43-.38.26-.79.48-1.18.72-.05-.31-.02-.47.07-.58.24-.28.5-.55.75-.82.22-.24.44-.48.64-.73.31-.39.59-.81.78-1.27.2-.49-.4-.59-.57-.91-.26-.48-.48-.98-.7-1.47-.14-.32-.19-.71-.41-.96-1.41-1.64-3.08-2.73-5.39-2.52-.8.07-1.6.04-2.26-.59-.36-.34-.8-.7-1.53-.32.49-1.21-.47-1.59-.99-1.98-.56-.42-1.42-.45-2.15-.65.06-.11.16-.3.34-.63-.83-.48-1.64-.94-2.5-1.42.26-.22.39-.34.53-.45-.73-.03-1.47-.03-2.08.25-.22.1-.43.17-.63.22-.49.12-.94.08-1.47-.18-.03-.02-.07-.03-.11-.04-.3-.1-.7-.03-1.04,0-.49.05-.8.08-1.03.05-.11-.01-.21-.04-.29-.09-.23-.13-.39-.42-.68-.96-.47-.05-.97-.11-1.44-.16-.15-.36-.28-.66-.4-.93-.73.13-.22.73-.48.94-.05.04-.11.08-.17.12-.29.19-.62.32-.92.48q-.24,1.88-.93,2.33c-.11-.55-.54-1.05.03-1.6.09-.09.11-.3.08-.44-.12-.55.04-.99.4-1.32.08-.08.18-.16.28-.23-.21-.71-.62-.68-1.08-.35-.56.4-1.09.84-1.75,1.04-.2.06-.4.1-.62.1-.04,0-.1.02-.11.03-.18.79-.86.29-1.18.39-.82.78-.73,2.06-1.86,2.5-.17.07-.22.47-.31.73-.06.18-.1.38-.17.66-.18-.17-.29-.23-.34-.32-.33-.53-.7-.93-1.09-1.22-.78-.56-1.69-.66-2.81-.33-.09.03-.18.05-.27.09-.07.03-.15.05-.22.07-.49.16-1.16.08-1.73-.16-.41-.17-.77-.43-.97-.73-1.07-1.68-1.45-3.45-.77-5.41.51-1.45.33-1.62-1.25-2.1-.22-.07-.47-.05-.7-.05-1.18,0-2.36,0-3.54-.01-.3,0-.6-.04-1.02-.09.21.97.44,1.94.68,2.9.07.28.14.57.21.85.11,0,.23.01.34.02.22.01.5-.04.63.08.97.86,1.96,1.68,2.66,2.81.04.06.08.12.11.18.24.42.51.83.81,1.22.36.48.75.93,1.16,1.36.31.33.68.58,1.08.75.49.2,1.03.27,1.6.15.61-.13,1.22-.31,1.81-.52.21-.08.43-.16.64-.24.04-.02.09-.03.13-.04.31-.11.6-.13.86-.07.43.1.75.42.88.95.33,1.4.64,2.8.91,4.21.05.25-.05.68-.23.81-.9.62-1.19,1.52-1.3,2.5-.07.6-.42.86-.92,1.08-.71.31-1.4.66-1.96.92-.12,1.4-.08,2.63-.35,3.79-.63,2.73.68,4.83,2.13,6.87.41.58.85,1.12.97,1.81.23,1.32.63,2.57,1.49,3.62.51.63,1.04,1.24,1.59,1.84,1.17,1.26,2.34,2.52,3.53,3.76.37.38.82.69,1.22,1.02.23-.14.36-.22.5-.29.82-.4,1.17-.31,1.64.47.18.3.29.64.45.95.54,1.05.46,2.18.5,3.3.03.99.07,1.99.11,2.98,2.14,2.69,4.39,5.29,6.75,7.8.34.36.69.72,1.04,1.09.69.72,1.39,1.43,2.1,2.12,2.55,2.52,5.21,4.93,7.97,7.23-.01-.2.04-.49.13-.95Z" fill="url(#linear-gradient-2)" stroke-width="0"/><path d="M296.69,397.82c.55.64,1.19.44,1.82.48.14-.24.34-.44.36-.65.07-.78.59-.91,1.23-.95.36-.02.77.02,1.11-.04.1-.02.2-.05.29-.09.88-.43,1.61-.14,2.31.31.72.47,1.4.67,2.1.12.34.25.64.43.88.68.24.24.63.61.57.82-.31,1.08.12,1.99.53,2.92.13.29.23.59.35.89.01.03.02.06.03.09.26.6.68,1.03,1.38,1.15.55-.45.99-1.09.73-1.72-.47-1.14-.35-2.24-.23-3.39.02-.22-.08-.46-.12-.69-.09-.54-.25-1.08-.23-1.61.03-1.03.23-2.04,1.28-2.56,1.84-.92,3.39-2.19,4.91-3.55.75-.67,1.07-1.34,1.03-2.29-.05-1.42.22-2.78,1.07-3.97.06-.08.16-.14.26-.22.1.34.18.64.31,1.08.23-.33.4-.5.49-.71.53-1.21,1.48-2.09,2.34-3.05.28-.31.56-.48,1.02-.44,1.76.17,2.22-.07,2.73-1.76.46-1.5,1.48-2.42,2.81-3.11.38-.2.79-.35,1.18-.54.05-.02.1-.05.15-.07.24-.11.48-.21.66-.38.63-.61,1.37-.56,2.29-.48-.35.41-.65.76-.95,1.11-.14.16-.28.33-.42.49.19.41.35.75.5,1.08.53,0,.9-.17,1.07-.63.26-.71.75-1,1.54-.97.44.01.89-.23,1.32-.4.96-.38,1.9-.78,2.85-1.18.21-.09.41-.18.6-.27-.07-.58-.13-1.09-.21-1.7-.59.51-1.13,1.01-1.72,1.44-.09.07-.19.12-.3.17-.2.1-.42.16-.63.2-.55.09-.98-.07-1.36-.32-.34-.23-.64-.53-.95-.81-.54-.5-.21-1.09-.18-1.65,0-.15-.02-.3-.03-.45-.37-.07-.69-.13-1.01-.19-.02-.08-.04-.15-.07-.23.52-.33,1.04-.66,1.58-1-.88-.64-2.2-.8-3.34-.51-.69.17-1.31.51-1.74,1-.72.82-1.66,1.29-2.54,1.86-.32.21-.58.2-.71-.14,1.18-.95,2.36-1.9,3.53-2.85.67-.54,1.34-1.08,2.02-1.62.09-.07.2-.13.3-.18.17-.09.35-.17.52-.26.37-.18.75-.37,1.17-.58,0,0,.12.03.2.1.05.04.1.08.15.12.52.41,1.05.53,1.68.24.07-.03.13-.06.2-.1.59-.35,1.18-.17,1.81.04.09.03.18.06.28.08,1.09.31,2.14.31,3.12-.56.5-.44,1.22-.68,1.87-.91,1.02-.36,2.07-.64,2.84-1.07,0-.9.03-1.59-.01-2.27-.02-.28-.14-.61-.33-.81-.33-.36-.75-.65-1.08-.92-.51.14-.94.42-1.39.67-.57.31-1.16.56-1.92.4.27-.51.66-.81,1.1-1.06.71-.4,1.52-.65,2.07-1.32-1.23-.8-2.6-.13-3.86-.56.21-.51.41-.98.62-1.46-.48-.16-.88-.29-1.26-.41.78-4.54.58-8.36-.57-9.62-.26,1.04-.71,1.9-1.29,2.62-.94,1.15-2.25,1.94-3.79,2.56-.11-.32-.23-.62-.34-.93-.28-.76-.48-1.5-.16-2.35.15-.39.09-.85.17-1.27.25-1.36-.4-2.37-1.42-3.11-.75-.55-1.31-1.2-1.78-1.97-.16-.26-.37-.48-.57-.74-.34.16-.64.25-.9.42-.27.18-.55.25-.83.22-.14-.02-.27-.06-.4-.13-.26-.14-.5-.22-.73-.23-.39-.03-.72.11-1.01.37-.16.14-.31.31-.45.51-.2.27-.39.6-.42.92-.09.87-.47,1.73-.18,2.64.05.15-.07.38-.17.54-.38.63-.72,1.3-1.2,1.85-.52.6-.62,1.17-.38,1.92.3.92.55,1.87.69,2.83.07.46.02,1.22-.27,1.41-1.36.9-2.16,2.68-4.08,2.55-.26,2.28-.5,4.46-.75,6.64-.91-.16-1.63-.6-2.08-1.22-.23-.32-.39-.67-.46-1.07-.05-.27,0-.58-.11-.8-.58-1.13-.47-2.09.44-3.05.47-.49.27-.87-.4-1.11-.77-.28-1.54-.6-2.33-.82-.75-.21-1.1-.66-1.08-1.21-.54-.33-1.2-.49-1.33-.84-.39-1.07-1.29-1.51-2.12-2.08-.59-.41-1.18-.53-1.88-.38-.25.06-.5.09-.77.13-.36.05-.73.09-1.14.15.01-.11.03-.22.05-.33.3-1.37,1.55-2.2,1.54-3.52-.85-.53-1.21.42-1.91.67.11-1.4.48-2.65.84-3.91.22-.75.6-1.29,1.18-1.8.99-.87,1.9-1.82,2.81-2.76.17-.18.23-.47.3-.73.04-.17.06-.35.08-.54.01-.13.03-.26.05-.4.02,0,.05.01.07.02.78.21,1.45.79,2.26.3-.06-.4-.12-.8-.17-1.15.6-.3,1.17-.49,1.61-.85.43-.35.82-.56,1.38-.46.36.06.64-.04.89-.24.11-.09.22-.2.32-.33.33-.42.72-.8,1.11-1.21-.09-.11-.23-.27-.35-.41.5-.17.98-.34,1.53-.53.33-.12.69-.24,1.09-.38-.36.41-.46.84-.56,1.25-.09.35-.19.69-.48.97-.37.36-.54.91-.8,1.38-.15.28-.62.46-.37.86.1.16.25.29.39.41.1.08.2.16.28.23-.02.29-.04.54-.07.82.61.08,1.25.47,1.51-.27.04-.11.09-.22.14-.31.32-.61.85-.87,1.46-1.08.19-.07.39-.13.59-.19,0,.46,0,.83,0,1.2,1.3.56,1.5.5,2.08-.64q-.87-.67-.93-1.98c-.3-.19-.67-.36-.95-.62-.31-.29-.54-.65-.79-.99-.29-.4-.46-1-.84-1.2-.07-.04-.13-.08-.18-.12-.42-.36.12-.86-.16-1.2,0-.01.09-.1.1-.12.47-.07.77.09,1.03.33.37.34.65.84,1.15,1.09.54-.52,1.02-1.19,1.67-1.54.69-.37,1.54-.44,2.39-.66-.12-1.2-.23-2.26-.33-3.28.55-.21.98-.38,1.35-.51.06-.64.27-1.23.13-1.72-.08-.3-.17-.65-.35-.92-.15-.22-.36-.39-.69-.46-.12-.03-.23-.07-.34-.12-.62-.27-1.15-.83-1.98-.67-.07.23-.14.46-.21.68-.12.4-.24.79-.36,1.2-.24.08-.49.17-.79.27.15.78-.16,1.32-.77,1.78-.27.2-.44.55-.6.85-.31.6-.76.85-1.49.67-.07-.45-.24-.89-.31-1.34-.06-.41-.04-.83.2-1.29.23-.44.03-1.1.02-1.66-.09-.03-.18-.06-.27-.08-.48.56-.95,1.12-1.43,1.68-.09-.02-.17-.05-.26-.07-.07-.44-.25-.9-.19-1.32.08-.62,0-1.11-.34-1.65-.47-.73-.34-1.18.33-1.81.13-.12.3-.28.32-.44.06-.42.12-.84.18-1.26-.19.26-.37.53-.56.79-.28.41-.57.82-.85,1.23-.28.41-.56.83-.84,1.24-.53.8-1.05,1.6-1.56,2.4-1.09,1.72-2.14,3.48-3.15,5.26-.25.43-.49.87-.73,1.31-.21.39-.43.78-.63,1.17-.5.93-.99,1.87-1.46,2.82-.23.45-.45.9-.67,1.35-.17.34-.33.68-.49,1.03-.27.56-.53,1.13-.79,1.7-.21.46-.42.92-.62,1.38-.2.46-.4.92-.6,1.38-1.21,2.83-2.32,5.71-3.32,8.65-.31.91-.6,1.82-.89,2.74-.16.48-.31.97-.45,1.45-.29.98-.58,1.95-.84,2.94-.27.98-.53,1.98-.77,2.97-.13.49-.24.99-.36,1.49-.01.04-.02.08-.03.12-.22.96-.44,1.93-.63,2.9-.11.5-.21,1-.3,1.51-.1.51-.19,1.01-.29,1.52-.56,3.13-1.01,6.3-1.33,9.51-.08.76-.15,1.53-.21,2.29-.02.21-.04.42-.06.63-.07.9-.13,1.81-.18,2.72-.01.22-.02.44-.03.68-.04.93-.08,1.86-.11,2.8-.03,1.1-.04,2.2-.04,3.3,0,2.59.09,5.17.25,7.72.32.02.64.04.82.17.03.02.05.04.07.06Z" fill="url(#linear-gradient-3)" stroke-width="0"/><path d="M298.93,415.57c.33-.26.36-.56.3-.93-.1-.6-.16-1.22-.26-1.97.47.2.8.33,1.32.55-.06-.64-.11-1.11-.17-1.73.27-.28.61-.71,1.02-1.06.47-.4.32-.84.19-1.28-.15-.48-.57-.46-.97-.45-.48.01-.94.08-1.39.19-.63.15-1.24.37-1.85.65.2,1.27.42,2.53.66,3.79.18.95.38,1.89.58,2.82.23-.26.38-.44.56-.58Z" fill="url(#linear-gradient-4)" stroke-width="0"/><path d="M375.94,285.82v48.2c-.09.1-.17.19-.25.3-1.02,1.41-2.53,2-4.06,2.31-2.45.49-4.17,1.92-5.67,3.71-.02.03-.04.05-.06.08-.52.61-.88,1.39-1.15,2.15-.4,1.06-.82,2.08-1.47,3.03-.38.57-.54,1.29-.78,1.94-.29.75-.59,1.5-.89,2.29-.71-.23-.92-.7-1.07-1.16-.09-.29-.25-.49-.45-.63-.17-.13-.38-.22-.63-.31-.28-.1-.58-.19-.86-.29l-.09-.03c-.25-.09-.52-.19-.76-.3-.13-.06-.26-.13-.39-.21-.13-.07-.25-.15-.36-.25-.11-.09-.21-.18-.31-.29-.02,0-.03-.02-.03-.04-.1-.11-.19-.22-.27-.35-.45-.75-.74-1.61-1.05-2.44-.17-.47-.18-1-.36-1.47-.43-1.1-.76-2.2-.62-3.4.03-.29-.01-.63-.13-.91-.66-1.59-.57-3.18-.07-4.79.13-.4.23-.81.34-1.2,2.32-.4,3.52-1.75,3.3-3.86-.68-.13-1.39-.26-2.18-.41-.27-.84.07-1.65.17-2.48.06-.54.17-1.07.2-1.61.13-3.49.23-6.97.37-10.46.06-1.25-.44-2.35-.81-3.49-.04-.13-.18-.24-.3-.32-.76-.49-1.55-.93-2.28-1.44-.7-.49-1.37-.63-2.19-.28-.09.05-.19.08-.28.12-.67.25-1.37.43-2.11.66-.08-.21-.15-.42-.21-.62-.15-.45-.28-.86-.5-1.23-.42-.79-.4-1.65-.51-2.48-.03-.29.03-.52.16-.68.11-.15.3-.24.53-.24.13,0,.27.03.42.09.83.3,1.61.13,2.43-.05.12-.61-.05-.93-.67-1.15-.08-.03-.16-.06-.23-.09-.01-.01-.03-.01-.04-.02-.15-.05-.29-.11-.43-.18-.48-.21-.93-.47-1.39-.73-.41-.22-.53-.61-.47-1.09.15-1.55.49-1.97,2.04-2.18.47-.06.97-.12,1.46-.16.06,0,.11,0,.17-.02.2-.02.39-.04.6-.05.74-.07,1.49-.13,2.22-.21.38-.04.79-.11,1.13-.28.25-.12.52-.38.62-.64.26-.75.44-1.53.68-2.34-.39-.1-.8-.2-1.3-.32.05-.44.1-.85.14-1.2.84-.44,1.58-.88,2.35-1.24.3-.14.63-.23.95-.3.12-.02.25-.04.37-.06.98-.12,1.86-.33,2.11-1.47.05-.25.23-.48.35-.75.69-.09,1.34-.18,2.05-.27.14-.35.28-.7.49-1.21.65-.11,1.32-.24,2.01-.36.08-.02.17-.03.25-.05.47-.08.96-.16,1.45-.21.66-.08,1.23.48,1.37,1.15h0c.03.16.09.31.08.46-.07,1.01.46,1.58,1.53,1.94.11-.22.19-.44.26-.67.43-1.32.32-2.81.9-4.36.4,1.32.77,2.49,1.11,3.63.11.37.21.74.31,1.11.29,1.07.44,1.2,1.68,1.01-.06-1.48.77-2.97-.23-4.34.23-.09.45-.17.67-.26.23-.09.45-.17.67-.25Z" fill="url(#linear-gradient-5)" stroke-width="0"/><path d="M331.29,309.2c1.69.26,3.33-.04,4.92-1.1.09-.48.22-.93.25-1.39.01-.23-.12-.6-.28-.67-.78-.33-1.49-.83-2.42-.81-1.25.03-2.5-.08-3.71-.5-.06-.02-.12-.04-.17-.06-.26.27-.52.54-.77.81-.68.73-1.36,1.46-2.02,2.2-.02.02-.03.04-.05.05.72.29,1.44.58,2.15.87.71.29,1.42.49,2.11.6Z" fill="url(#linear-gradient-6)" stroke-width="0"/><path d="M332.39,303.13c.82.1,1.65.13,2.45.27.44.08.85.33,1.27.51.17.08.35.2.53.3.21.12.42.23.61.21,1.03-.1,2.11-.17,3.09-.78-.07-.74-.15-1.46-.22-2.2.23-.13.39-.27.57-.3,1.33-.24,2.17-1.17,3.05-2.06.41-.42.77-.89,1.2-1.28.73-.66,1.1-1.48,1.27-2.43.14-.83.59-1.23,1.39-1.32.43-.05.89-.16,1.29-.06,1.08.29,1.69-.26,2.23-1.03.67-.96,1.6-1.54,2.72-1.93,1.32-.46,2.6-1.05,3.89-1.61,1.16-.5,1.19-.59.98-1.85.11-.02.23-.06.34-.06,1.05.02,2.04-.07,2.67-1.09.13-.21.49-.26.68-.45.3-.3.68-.61.77-.98.15-.61.09-1.27.12-1.87-.45-.23-.8-.35-1.06-.57-.25-.22-.34-.6-.58-.83-.25-.24-.51-.46-.78-.68-.38.2-.75.41-1.13.61-.35.19-.7.38-1.04.58-.53.3-1.05.6-1.58.91-.43.25-.87.5-1.29.77-.36.21-.71.42-1.06.64-.5.31-1,.62-1.5.94-.42.27-.84.54-1.26.81-.42.27-.84.55-1.25.83-.42.27-.83.56-1.24.84-.41.29-.82.57-1.23.86-.82.58-1.63,1.16-2.44,1.76-.4.3-.8.6-1.2.9-.4.3-.79.6-1.19.91-.39.31-.79.61-1.18.93-.39.31-.78.63-1.16.94-.39.32-.77.64-1.15.96-.38.32-.77.64-1.14.97-.38.32-.75.65-1.13.98-.53.46-1.05.94-1.57,1.41-.04.1-.08.2-.13.31-.03-.04-.05-.08-.08-.12-.14.13-.29.26-.43.39-.37.34-.74.68-1.1,1.03-.72.68-1.44,1.37-2.15,2.07-.2.19-.39.4-.58.59,0,0,0,0,0,0,.21.14.49.23.75.26Z" fill="url(#linear-gradient-7)" stroke-width="0"/><path d="M324.09,312.86c-.79,1.15-1.54,2.31-2.31,3.47-.04.05,0,.15,0,.28.41.53.71,1.21,1.61,1.31.69.08.61.55.36,1-.82.22-1.2-.49-1.73-.78-.65,1.05-.39,2.11.55,2.6.43.23.84.5,1.26.76.2.12.41.38.58.36.82-.12,1.52.37,2.27.4.73.03,1.25.26,1.73.74.12.12.27.21.42.29.06.03.11.07.16.1.32.22.65.28.97.26.41-.03.8-.2,1.15-.39.58-.33.22-.97.08-1.48-.01-.04.07-.1.11-.15.35.31.69.61,1.08.95-.48.86-.16,1.59.48,2.26.18.19.29.44.4.62-.23.32-.41.57-.68.94.52-.12.83-.2,1.27-.31-.33.95.02,1.61.49,2.26.88,1.22.73,2.49-.36,3.52-.54.51-1.11,1-1.56,1.58-.29.37-.4.88-.63,1.4-.73.14-1.51.18-2.31.01-.42-.09-.84-.23-1.26-.46-.11.19-.22.37-.33.55-.28.46-.54.88-.79,1.31-.19.31-.2.71.14.8.05.02.11.03.16.05.6.18,1.31.41,1.74.19.02-.01.05-.02.07-.03,1.06-.52,1.91-.08,2.91.23-.16.75.08,1.28.74,1.67.22.13.34.48.41.76.09.33.08.68.11,1.07.84.31,1.63.68,2.25,1.26.27.26.51.56.71.93.09.17.47.26.72.27.37.02.74-.06,1.28-.12-.24-.53-.4-.96-.63-1.34-.15-.25-.33-.49-.5-.73-.21-.3-.43-.59-.61-.91-.18-.32-.29-.72-.31-1.09-.01-.2.21-.42.33-.64.21.14.48.23.61.42.22.31.33.7.53,1.03.13.22.29.41.45.57.5.47,1.14.67,1.87.68.88-1.45.79-2.65.01-3.96-.69-1.16-1.24-2.41-1.85-3.68-.06-.13-.12-.25-.18-.38.27-.04.42-.1.57-.09.41.03.77-.51,1.2-.11.34.31.7.62,1.01.96.15.17.21.41.34.6.1.15.21.3.32.45.31.44.63.89.94,1.32.42-.5.7-1.15,1.12-1.26,1.1-.3,1.49-1.29,2.41-1.96-.44-.52-.83-.91-1.14-1.35-.34-.47-.52-1.07-.92-1.47-.73-.75-1.56-1.42-2.38-2.08-.72-.58-.76-.82-.09-1.45.11-.1.24-.19.37-.28.74-.5.84-.67.54-1.51-.38-1.06-.82-2.1-1.24-3.15-.07-.18-.18-.35-.31-.49-1.34-1.42-2.75-2.77-4-4.26-.98-1.17-2.04-1.63-3.56-1.3-.14.03-.27.05-.38.05-.21.01-.37-.03-.47-.11-.2-.16-.23-.49-.13-1.03.18-.97.33-1.95.52-3.13-.86.12-1.55.2-2.23.32-.02,0-.03,0-.04.01-1.68.33-2.55,1.27-2.96,2.96-.27,1.11-.67,2.19-1.09,3.52-.19-.87-.33-1.45-.42-2.03-.06-.37-.13-.79,0-1.13.43-1.22,1.18-2.27,2.1-3.18.05-.05.1-.09.16-.13.27-.22.6-.38.9-.57.17-.12.34-.24.56-.39-.82-.37-1.96-.66-2.33-.44-.13.08-.27.16-.41.23-1.07.56-2.26.95-2.99,2Z" fill="url(#linear-gradient-8)" stroke-width="0"/><path d="M375.94,544.53v42.78c-5.01,1.13-10.57,2.15-16.59,2.9-5.17.66-10.69,1.12-16.5,1.31-17.14.55-36.84-1.32-57.85-7.85-10.06-3.14-20.42-7.34-30.94-12.86l121.89,220.03v21.16H0v-53.12c13.37-24.81,27.79-51.56,42.28-78.42-14.36-3.17-28.49-7.42-42.28-12.47v-62.87c14.97,5.29,30.24,9.68,45.91,12.58,9.48,1.79,19.01,2.91,28.48,3.29,36.44-67.43,68.48-126.52,79.15-145.65,14.31-25.66,35.42-44.59,69.58-62.04.33-.18.68-.35,1.02-.53,7.76-3.92,16.19-7.78,25.37-11.62.43-.19.89-.37,1.33-.56,4.02-1.67,8.18-3.34,12.49-5.01.26-.11.53-.21.8-.31,1.57-.61,3.16-1.22,4.77-1.83,7.84-2.96,16.15-5.94,24.95-8.97.61-.21,1.22-.42,1.84-.63h.01c1.91-.65,3.84-1.31,5.8-1.96,2.43-.82,4.88-1.63,7.39-2.46,2.43-.8,4.89-1.6,7.4-2.4,1.38-.46,2.79-.91,4.21-1.36,2.43-.78,4.89-1.56,7.4-2.35,1.3-.41,2.62-.83,3.94-1.24.51-.16,1.01-.32,1.52-.47,1.12-.36,2.25-.71,3.4-1.06,6.99-2.18,14.25-4.38,21.76-6.63,1.68-.51,3.37-1.01,5.06-1.52-.24,1.02-.46,2.06-.67,3.1-.21,1.03-.4,2.08-.59,3.12-.1.53-.19,1.05-.27,1.58-.1.62-.19,1.25-.28,1.88-.14.87-.25,1.73-.36,2.61-.96.3-1.92.6-2.89.91-2.44.77-4.89,1.59-7.39,2.45-2.44.85-4.89,1.73-7.39,2.66-1.39.52-2.81,1.06-4.22,1.61-.91.35-1.83.72-2.76,1.09-1.54.6-3.08,1.23-4.64,1.88-7.21,2.98-14.62,6.32-22.24,10.07-.55.26-1.09.53-1.64.8-.73.33-1.45.66-2.15.98h-.01c-.47.22-.93.44-1.4.66-1.06.49-2.12.99-3.16,1.49-.9.43-1.8.86-2.68,1.29-.4.19-.81.39-1.2.58-.07.04-.15.08-.22.11-.42.21-.84.42-1.25.63h-.02c-7.41,3.68-14.14,7.35-20.26,11-4.37,2.59-8.43,5.18-12.2,7.75-1.51,1.02-2.96,2.04-4.38,3.06-1.49,1.07-2.92,2.13-4.31,3.19-6.77,5.17-12.42,10.23-17.12,15.14-32.17,33.63-19.83,59.76-19.83,59.76l12.11,25.84c12.46,6.46,34.41,15.98,62.62,20.59,23.9,3.9,52.28,4.29,83.18-3.69Z" fill="url(#linear-gradient-9)" stroke-width="0"/><path d="M28.57,218.47c-.15,2.85-.49,13.54,2.42,21.52.09.25-.13.5-.39.43-2.41-.61-4.9-1.06-4.8,1.03.11,2.27,5.75,6.81,9.22,8.51,1.88.92,12.26,2.51,15.45,2.42.32,0,.45-.41.19-.6-2.36-1.69-8.75-5.86-9.92-6.62-.11-.07-.17-.21-.14-.34.3-1.39,2.63-9.09,17.81-16.37.32-.15.21-.63-.15-.63-4.21-.01-17.28,2.78-19.52,5.85-.15.21-.48.17-.58-.08-1.49-3.74-7.16-12.97-8.99-15.32-.19-.24-.58-.12-.6.18Z" fill="#fff" stroke-width="0"/><path d="M4.43,185.69c-.03.14.03.28.15.35.69.42,3.04,1.86,5.45,3.36,1.96,1.22,3.94,2.48,5.06,3.23.27.18.15.61-.18.63-1.05.06-2.85-.04-4.88-.22-3.55-.33-7.8-.93-10.03-1.47v-20.5c.67,1.18,1.21,2.23,1.56,3.03.11.25.44.29.6.07,2.24-3.25,15.74-6.54,20.12-6.65.36-.01.5.48.17.65-15.56,8-17.75,16.07-18.02,17.52Z" fill="#fff" stroke-width="0"/><path d="M37.45,90.69c-.19,3.25-.62,15.41,2.65,24.52.1.29-.15.57-.45.49-2.74-.71-5.58-1.23-5.47,1.15.11,2.58,6.51,7.78,10.46,9.74,2.14,1.06,13.95,2.92,17.58,2.83.36,0,.51-.47.22-.68-2.68-1.94-9.93-6.71-11.26-7.58-.13-.09-.2-.24-.16-.39.35-1.58,3.04-10.34,20.37-18.55.36-.17.24-.71-.17-.71-4.79-.03-19.69,3.08-22.26,6.56-.18.24-.55.19-.66-.09-1.68-4.27-8.09-14.81-10.16-17.48-.21-.28-.66-.14-.68.21Z" fill="#fff" stroke-width="0"/><path d="M5.74,117.19c-2.18,1.22-4.08,2.43-5.74,3.62v-3.22c2.28-.58,4.31-.95,5.56-1.02.35-.03.5.45.18.62Z" fill="#fff" stroke-width="0"/><path d="M136.27,278.83c-.2,3.22-.69,15.31,2.52,24.37.1.28-.15.56-.45.48-2.72-.72-5.53-1.24-5.44,1.12.1,2.56,6.43,7.76,10.34,9.72,2.12,1.06,13.84,2.96,17.45,2.89.36,0,.51-.46.22-.67-2.65-1.94-9.84-6.71-11.15-7.59-.13-.09-.19-.24-.16-.39.36-1.57,3.07-10.26,20.32-18.33.36-.17.24-.71-.16-.71-4.76-.06-19.58,2.97-22.15,6.42-.18.24-.54.18-.65-.09-1.65-4.25-7.97-14.75-10.01-17.42-.21-.28-.65-.15-.68.2Z" fill="#fff" stroke-width="0"/><path d="M81.65,306.04c-.08,2.94-.13,13.96,3.08,22.11.1.26-.12.52-.39.45-2.5-.57-5.08-.96-4.92,1.19.18,2.33,6.1,6.86,9.73,8.53,1.96.9,12.7,2.26,15.98,2.08.33-.02.45-.44.18-.62-2.48-1.68-9.17-5.8-10.4-6.55-.12-.07-.18-.21-.16-.35.27-1.44,2.46-9.44,17.91-17.34.33-.17.2-.65-.17-.64-4.33.1-17.73,3.33-19.96,6.54-.15.22-.49.18-.6-.06-1.64-3.81-7.73-13.18-9.68-15.54-.2-.25-.6-.11-.61.2Z" fill="#fff" stroke-width="0"/><path d="M34.91,294.76c-.19,2.65-.67,12.61,1.91,20.09.08.23-.13.46-.37.4-2.23-.61-4.55-1.06-4.49.88.07,2.11,5.24,6.43,8.46,8.08,1.74.89,11.38,2.53,14.36,2.5.3,0,.42-.38.18-.55-2.17-1.61-8.06-5.6-9.14-6.32-.11-.07-.16-.2-.13-.32.3-1.29,2.59-8.43,16.86-14.97.3-.14.2-.58-.13-.59-3.92-.08-16.15,2.32-18.29,5.14-.15.19-.45.15-.54-.08-1.33-3.51-6.47-12.2-8.13-14.41-.17-.23-.54-.12-.56.16Z" fill="#fff" stroke-width="0"/><path d="M22.14,266.31c-1.75.8-3.31,1.61-4.73,2.42-3.18,1.82-5.56,3.63-7.33,5.3-.02.01-.04.03-.06.05-3.95,3.73-4.88,6.73-5.07,7.53-.03.12.02.25.13.32.63.42,2.81,1.9,5,3.4,1.4.97,2.81,1.95,3.8,2.66.19.14.36.26.53.38.24.18.12.56-.18.57-.91.01-2.42-.13-4.14-.36-.02,0-.04,0-.06-.01-3.68-.48-8.29-1.35-10.03-1.98v-21.37c1.22,2.22,2.29,4.33,2.81,5.68.08.23.39.28.55.08.9-1.19,3.57-2.31,6.67-3.21.02-.01.04-.01.06-.01.8-.24,1.64-.46,2.47-.66,3.73-.88,7.55-1.42,9.46-1.39.33.01.43.46.13.6Z" fill="#fff" stroke-width="0"/><path d="M124.68,474.19c0,5.04-.96,9.82-2.67,14.04h-45.53c-1.71-4.22-2.67-8.99-2.67-14.04,0-17.38,11.39-31.46,25.44-31.46s25.44,14.08,25.44,31.46Z" fill="url(#linear-gradient-10)" stroke-width="0"/><path d="M116.85,495s-10.76-8.71-10.76-17.42c5.87,2.9,10.76,10.65,10.76,10.65,0,0,.98-8.71,1.96-11.62,1.96,2.9,2.93,13.55,2.93,13.55,0,0,6.85-4.84,9.78-4.84-.98,5.81-6.85,9.68-6.85,9.68h-7.83Z" fill="#307759" stroke-width="0"/><path d="M297.87,399.97c-.76-.43-1.55-.78-2.37-1.04.01-.49.03-.99.03-1.49,0-19.55-10.84-35.41-24.22-35.41-11.2,0-20.63,11.13-23.39,26.23-6.11-1.69-12.04-1.2-16.75,1.92-11.11,7.36-11.22,26.5-.23,42.75,10.99,16.25,22.4,24.89,33.52,17.53.74-.49,1.43-1.03,2.07-1.62,8.65,2.91,26.81-4.82,33.67-16.58,7.48-12.82,6.44-27.28-2.33-32.29Z" fill="url(#linear-gradient-11)" stroke-width="0"/><path d="M279.38,405.33c-.82-.42-1.83-.25-2.54.34l-8.55,7.76.72-23.87c0-1.28-.97-2.43-2.26-2.5-1.38-.07-2.52,1.01-2.52,2.36l-.72,39.32-16.69-19.93c-.69-1.11-2.16-1.47-3.29-.79-1.13.68-1.48,2.14-.79,3.25l20.64,26.33c.04.06.09.1.13.16v51.94c0,1.28.97,2.43,2.26,2.5,1.38.07,2.52-1.01,2.52-2.36v-70.26l11.6-10.28c1.27-1.05,1.17-3.12-.52-3.98Z" fill="#4d4948" stroke-width="0"/><path d="M376,505.61s-.04,0-.06-.02v203.89c-22.66-2.58-45.46-24.51-67.63-57.31-15.21-22.49-22.97-46.92-23.31-68.5-.1-6.25.42-12.25,1.57-17.91,1.28-6.35,3.35-12.25,6.19-17.54,3.91-7.3,9.32-13.44,16.2-18,13.43-8.89,30.35-10.3,47.77-5.48,1.6-8.71,3.96-16.95,6.99-24.55,2.53-6.35,5.52-12.26,8.89-17.63.57-.91,1.15-1.81,1.76-2.68.51-.77,1.03-1.52,1.57-2.26v27.96s.04.02.06.03Z" fill="#3ca281" stroke-width="0"/><path d="M375.94,610.04v23.7l-33.1-42.22-.87-1.11c-1.96-3.18-.95-7.33,2.26-9.28,3.21-1.94,7.41-.94,9.38,2.24l5.73,6.84,16.59,19.83Z" fill="#4d4948" stroke-width="0"/><path d="M62.44,555.99c-.14-9.99-7.93-18.02-17.54-18.02-3.18,0-6.16.9-8.73,2.44-2.44-2.97-5.68-4.8-9.25-4.8-7.52,0-13.61,8.04-13.72,18.02h14.36c-.11.77-.18,1.56-.2,2.36h35.08Z" fill="#d4490d" stroke-width="0"/></g></g></svg>