<?xml version="1.0" encoding="UTF-8"?><svg id="Layer_2" xmlns="http://www.w3.org/2000/svg" xmlns:xlink="http://www.w3.org/1999/xlink" viewBox="0 0 376 812"><defs><linearGradient id="linear-gradient" x1="295.94" y1="761.43" x2="331.1" y2="761.43" gradientUnits="userSpaceOnUse"><stop offset="0" stop-color="#266d4f"/><stop offset="1" stop-color="#2e7d5d"/></linearGradient><linearGradient id="linear-gradient-2" x1="300.56" y1="780.51" x2="324.62" y2="780.51" gradientUnits="userSpaceOnUse"><stop offset="0" stop-color="#57bf8c"/><stop offset="1" stop-color="#3aa068"/></linearGradient><linearGradient id="linear-gradient-3" x1="142.2" y1="51.37" x2="225.08" y2="114.18" gradientUnits="userSpaceOnUse"><stop offset="0" stop-color="#db7157"/><stop offset="1" stop-color="#d8583f"/></linearGradient><linearGradient id="linear-gradient-4" x1="314.07" y1="320.91" x2="356.72" y2="377.29" gradientUnits="userSpaceOnUse"><stop offset="0" stop-color="#51ba78"/><stop offset="1" stop-color="#3bb764"/></linearGradient><linearGradient id="linear-gradient-5" x1="302.02" y1="152.34" x2="365.11" y2="222.75" gradientUnits="userSpaceOnUse"><stop offset="0" stop-color="#f8b857"/><stop offset="1" stop-color="#f7931e"/></linearGradient><linearGradient id="linear-gradient-6" x1="323.76" y1="119.11" x2="341.14" y2="138.51" xlink:href="#linear-gradient-5"/><linearGradient id="linear-gradient-7" x1="323.76" y1="234.09" x2="341.14" y2="253.49" xlink:href="#linear-gradient-5"/><linearGradient id="linear-gradient-8" x1="859.19" y1="-961.77" x2="876.52" y2="-942.44" gradientTransform="translate(-592.57 1138.4)" xlink:href="#linear-gradient-5"/><linearGradient id="linear-gradient-9" x1="365.77" y1="141.19" x2="376.17" y2="152.8" xlink:href="#linear-gradient-5"/><linearGradient id="linear-gradient-10" x1="839.23" y1="-252.98" x2="856.63" y2="-233.56" gradientTransform="translate(-480.02 -200.45) rotate(45)" xlink:href="#linear-gradient-5"/><linearGradient id="linear-gradient-11" x1="363.06" y1="216.4" x2="379.56" y2="234.81" xlink:href="#linear-gradient-5"/><linearGradient id="linear-gradient-12" x1="372.15" y1="-1476.91" x2="389.45" y2="-1457.59" gradientTransform="translate(-477.26 -1161.63) rotate(135)" xlink:href="#linear-gradient-5"/><radialGradient id="radial-gradient" cx="9.44" cy="218.48" fx="9.44" fy="240.91" r="30.8" gradientTransform="translate(1.15 .13)" gradientUnits="userSpaceOnUse"><stop offset=".07" stop-color="#74ceea"/><stop offset="1" stop-color="#217abe"/></radialGradient><radialGradient id="radial-gradient-2" cx="-10.65" cy="178.78" fx="-10.65" fy="197.07" r="25.12" gradientTransform="translate(42.24 -.62) rotate(-2.66) skewX(-.03)" xlink:href="#radial-gradient"/></defs><g id="Layer_1-2"><g opacity=".07"><rect x="0" y="0" width="373.69" height="811.74" fill="#dbcead" stroke-width="0"/><path d="M331.1,771.41c0,5.78-.66,11.24-1.85,16.08h-31.47c-1.18-4.83-1.85-10.3-1.85-16.08,0-19.91,7.87-36.04,17.58-36.04s17.58,16.13,17.58,36.04Z" fill="url(#linear-gradient)" stroke-width="0"/><path d="M310.74,789.35s-10.18-8.38-10.18-16.75c5.55,2.79,10.18,10.24,10.18,10.24,0,0,.93-8.38,1.85-11.17,1.85,2.79,2.78,13.03,2.78,13.03,0,0,6.48-4.65,9.25-4.65-.93,5.58-6.48,9.31-6.48,9.31h-7.4Z" fill="url(#linear-gradient-2)" stroke-width="0"/><path d="M373.69,350.79v398.29H0V246.69c6.44-4.43,13.32-7.49,20.37-8.91h0c1.16-.24,2.33-.43,3.5-.57,10.33-1.27,21.28.56,30.57-6.1,11.97-8.58,17.52-28.33,25.54-43.8,12.9-24.89,33.46-39.73,54.55-45.57,21.09-5.84,42.85-3.48,64.12.7,33.29,6.54,66.17,17.47,98.1,32.62,8.26,3.92,16.45,8.12,24.57,12.59,11.34,6.25,23.87,15.47,29.08,30.26,1.19,3.36,2,7,2.33,10.96,1.8,21.68-12.01,40.09-13.2,61.87-1,18.28,7.03,34.27,17.36,45.79,1.07,1.21,2.19,2.36,3.31,3.46.22.23.44.44.67.65,1.73,1.66,3.49,3.2,5.27,4.61,2.46,1.95,4.98,3.78,7.53,5.54Z" fill="#f1ead6" stroke-width="0"/><path d="M179.61,218.9c-.59-4.22-4.41-7.39-8.7-9.18-6.89-2.89-13.29,2.18-15.34,4.05-5.63-1.41-6.79-2.05-12.18,1.18-3.37,2.01-7.88,6.93-11.75,7.98-2.9.79-6.1.83-8.7,2.22-5.01,2.68-5.59,8.87-8.4,13.47-2.17,3.55-5.77,6.18-8.83,9.15-9.22,8.93-16,18.47-17.96,32.83-.92,4.31,2.44,9.87,1.96,14.24-2.36,3.18-4.98,5.46-5.24,10.94-.22,4.68-.79,9.18,3.27,15.06-3.93,4.82-2.6,13.53-.56,18.19,3.41,7.79,12.61,13.06,14.37,21.28,1.64,4.89-5.17,11.95-1.5,24.31,5.76,8,11.98,11.13,17.26,15.05,3.26,2.42,2.43,4.47,5.39,7.19,2.96,2.72,9.17,6.82,14.8,4.71-1.86,4.47,0,10.02,3.95,13.21,3.96,3.19,9.26,4.66,14.5,5.49,6.59,1.04,14.2.91,18.9-3.36,3.82-3.47,4.66-8.71,5.29-13.57.75-5.75.9-12.75-4.46-15.96,3.13-6.5,4.21-13.8,3.02-20.8v-76.01c-1.8-1.99-3.33-4.5-3.44-7.07-.11-2.77,1.87-5.21,2.91-7.82,1.13-2.84,1.12-6.04-.02-8.88-.59-1.47-1.48-2.85-1.8-4.38-.49-2.37.42-4.78,1.21-7.09,1.08-3.17,1.92-6.71.34-9.72-1.04-1.98-3.09-3.67-3.09-5.86,0-1.81,1.42-3.33,2.23-4.99,1.04-2.12,1.05-4.51.49-6.74s-2.66-4.36-2.77-6.53c-.1-1.97,1.52-3.22,2.6-4.79,1.64-2.37,2.63-4.99,2.24-7.81Z" fill="#f0878e" stroke-width="0"/><path d="M170.64,321.59c-.46,0-.93-.16-1.28-.48-2.74-2.51-5.57-5.1-7.53-8.35-2.29-3.79-2.84-7.89-1.51-11.26.33-.84,1.35-1.28,2.28-.98.93.3,1.42,1.21,1.09,2.05-.99,2.51-.52,5.66,1.29,8.65,1.72,2.85,4.37,5.28,6.94,7.63.69.63.68,1.65-.02,2.27-.35.31-.8.46-1.25.46Z" fill="#fc959f" stroke-width="0"/><path d="M157.44,315.17s-.02,0-.03,0c-2.83,0-5.24-1.9-5.37-4.21-.05-.89.71-1.64,1.69-1.69.99-.05,1.83.63,1.88,1.52.03.58.93,1.16,1.81,1.16,1.29.01,2.54-.8,3.37-1.47.73-.6,1.86-.54,2.53.12.66.66.6,1.68-.13,2.27-1.88,1.53-3.82,2.3-5.76,2.3Z" fill="#fc959f" stroke-width="0"/><path d="M141.22,306.61c-.11,0-.23,0-.34-.03-2.66-.46-5.04-2.01-6.37-4.13-1.32-2.13-1.55-4.76-.59-7.04.35-.83,1.38-1.25,2.3-.94.92.31,1.39,1.24,1.04,2.07-.58,1.38-.44,3.05.36,4.34s2.31,2.27,3.92,2.54c.97.17,1.61,1.01,1.42,1.88-.16.77-.91,1.3-1.76,1.3Z" fill="#fc959f" stroke-width="0"/><path d="M135.84,272.8c-.57,0-1.12-.24-1.47-.69-3.28-4.24-4.91-8.39-4.87-12.33.06-5.1,3.22-9.66,7.86-11.37,2.87-1.05,5.93-.96,8.57-.78,2.48.17,5.34.45,7.82,1.8,2.75,1.49,4.73,4.19,5.27,7.22.49,2.71-.12,5.65-1.73,8.28-1.11,1.81-2.48,3.11-4.1,3.87-2.2,1.03-4.79.92-6.6-.27-.8-.53-.97-1.53-.39-2.25.58-.72,1.7-.87,2.5-.35.7.46,1.86.46,2.84,0,.97-.45,1.85-1.31,2.61-2.56,1.22-2.01,1.7-4.22,1.33-6.22-.38-2.11-1.72-3.98-3.59-4.98-1.81-.98-4.17-1.21-6.24-1.34-2.24-.15-4.8-.24-6.95.55-3.27,1.2-5.59,4.67-5.63,8.43-.04,3.26,1.38,6.77,4.23,10.46.56.73.36,1.73-.45,2.24-.31.19-.67.29-1.02.29Z" fill="#fc959f" stroke-width="0"/><path d="M111.68,337.47h0c-.99,0-1.79-.72-1.79-1.61,0-2.02-1.14-4-2.98-5.17-1.84-1.17-4.3-1.48-6.42-.8-.93.3-1.95-.14-2.28-.98-.33-.84.16-1.76,1.09-2.05,3.2-1.01,6.91-.55,9.68,1.21,2.77,1.76,4.49,4.75,4.49,7.8,0,.89-.8,1.61-1.79,1.61Z" fill="#fc959f" stroke-width="0"/><path d="M135.31,342.43c-.48,0-.96-.17-1.31-.51-1.58-1.52-2.64-3.4-3.07-5.45-.48-2.28-.15-4.79.94-7.06,1.48-3.09,4.3-5.63,7.73-6.98.91-.36,1.96.02,2.36.83.4.81-.02,1.76-.92,2.12-2.61,1.03-4.75,2.96-5.88,5.31-.81,1.69-1.06,3.53-.71,5.18.3,1.43,1.08,2.8,2.18,3.86.67.65.63,1.67-.09,2.27-.34.29-.78.43-1.22.43Z" fill="#fc959f" stroke-width="0"/><path d="M133.26,384.14s-.04,0-.06,0c-2.74-.08-5.58-.17-8.39-.72-3.31-.65-6.02-1.85-8.04-3.58-2.5-2.13-3.82-5.06-3.52-7.84.09-.88.97-1.53,1.95-1.45.98.08,1.7.87,1.61,1.75-.19,1.77.74,3.76,2.42,5.2,1.54,1.31,3.68,2.25,6.34,2.77,2.49.49,5.16.57,7.74.64.99.03,1.76.77,1.73,1.66-.03.87-.83,1.55-1.79,1.55Z" fill="#fc959f" stroke-width="0"/><path d="M165.14,417.39c-1.73,0-3.46-.35-5.02-1.08-.88-.41-1.22-1.38-.76-2.17.46-.79,1.54-1.1,2.41-.69,2.84,1.33,6.66.76,8.87-1.33.68-.64,1.81-.67,2.53-.05.72.61.74,1.63.06,2.27-2.11,1.99-5.1,3.04-8.09,3.04Z" fill="#fc959f" stroke-width="0"/><path d="M108.04,303.26c-.48,0-.96-.17-1.31-.52-3.37-3.27-4.63-8.14-3.21-12.4.28-.85,1.28-1.34,2.23-1.08.95.25,1.49,1.15,1.2,2-1.06,3.2-.11,6.85,2.41,9.3.67.65.63,1.67-.1,2.27-.34.29-.78.43-1.22.43Z" fill="#fc959f" stroke-width="0"/><path d="M153.14,236.77c-.7,0-1.36-.37-1.65-.98-1.43-3.02-1.59-6.1-.45-8.65,1.42-3.18,4.97-5.25,8.43-4.93.98.09,1.7.88,1.6,1.76-.1.88-.98,1.53-1.96,1.44-1.88-.17-3.92,1.09-4.74,2.93-.78,1.73-.62,3.99.42,6.19.39.82-.04,1.76-.95,2.11-.23.09-.47.13-.7.13Z" fill="#fc959f" stroke-width="0"/><path d="M158.34,275.49c-.16,0-.32-.02-.47-.06-.95-.23-1.51-1.12-1.25-1.98.93-3.06,3.74-5.58,7.15-6.41.95-.23,1.94.28,2.19,1.13.26.86-.31,1.74-1.26,1.97-2.18.53-4.04,2.2-4.64,4.16-.22.71-.94,1.18-1.72,1.18Z" fill="#fc959f" stroke-width="0"/><path d="M170.73,354.42c-.6,0-1.18-.27-1.52-.76-.52-.75-.26-1.75.58-2.21,1.02-.57,1.81-1.49,2.16-2.52.65-1.91-.12-4.25-.75-6.13-.28-.85.26-1.75,1.21-2,.95-.25,1.94.23,2.23,1.08.72,2.18,1.71,5.15.74,7.99-.6,1.76-1.95,3.34-3.69,4.31-.29.16-.62.24-.94.24Z" fill="#fc959f" stroke-width="0"/><path d="M148.98,413.29c-.32,0-.63-.07-.92-.23-4.7-2.55-7.84-7.39-8-12.32-.03-.89.75-1.63,1.74-1.65.99-.03,1.81.67,1.84,1.56.13,3.87,2.59,7.66,6.28,9.67.85.46,1.12,1.45.61,2.21-.34.5-.93.78-1.53.78Z" fill="#fc959f" stroke-width="0"/><path d="M143.83,306.86c-.95,0-1.74-.67-1.79-1.52-.05-.89.71-1.64,1.69-1.69.54-.02,1.16-.62,1.46-1.39.25-.64.34-1.37.45-2.15.06-.47.13-.96.23-1.46.42-2.08,1.47-3.59,3.02-4.38,1.18-.6,2.42-.67,3.51-.73.49-.03.96-.05,1.36-.13,1.31-.24,2.55-1.12,3.6-1.92l.41-.31c1.26-.97,2.57-1.98,4.26-2.59,2.45-.89,5.08-.56,6.72.83.72.61.75,1.63.07,2.27-.68.64-1.81.67-2.53.06-.71-.6-2.01-.52-2.92-.19-1.15.42-2.18,1.21-3.27,2.05l-.42.32c-1.49,1.14-3.16,2.25-5.2,2.62-.65.12-1.26.15-1.85.19-.81.05-1.51.09-1.97.32-.8.41-1.13,1.53-1.26,2.16-.08.4-.14.82-.19,1.26-.12.92-.25,1.87-.62,2.83-.8,2.06-2.62,3.45-4.66,3.55-.03,0-.06,0-.09,0Z" fill="#d6656b" stroke-width="0"/><path d="M123.15,308.18c-.63,0-1.24-.3-1.57-.83-1.99-3.23-1.78-7.01-1.61-10.05.13-2.27.26-4.63,1.05-6.94.94-2.76,2.73-4.94,5.04-6.15.69-.36,1.39-.62,2.07-.87.8-.3,1.56-.58,2.12-.98.58-.41,1.06-1.03,1.58-1.68.4-.51.82-1.05,1.33-1.55,3.27-3.23,8.52-3.63,12.18-3.65,2.59-.01,5.62.1,8.47,1.06,3.23,1.09,5.68,3.15,6.7,5.65.34.83-.13,1.76-1.06,2.07-.93.31-1.96-.12-2.3-.95-.66-1.6-2.38-3-4.61-3.75-2.3-.78-4.92-.87-7.19-.86-2.99.02-7.23.3-9.55,2.6-.37.36-.7.79-1.06,1.25-.61.77-1.3,1.65-2.28,2.35-.95.68-2.03,1.08-2.97,1.43-.59.22-1.15.43-1.63.68-1.53.8-2.75,2.34-3.43,4.32-.66,1.93-.78,4.08-.9,6.16-.19,3.35-.22,6.09,1.17,8.33.48.78.17,1.76-.7,2.19-.27.14-.57.2-.87.2Z" fill="#d6656b" stroke-width="0"/><path d="M107.83,267.91c-.14,0-.29-.02-.43-.05-2.61-.58-5.3-.81-7.99-.69-.99.04-1.83-.64-1.88-1.53-.05-.89.71-1.64,1.7-1.69,3.04-.14,6.07.13,9.03.78.96.21,1.54,1.09,1.31,1.95-.2.73-.93,1.22-1.74,1.22Z" fill="#d6656b" stroke-width="0"/><path d="M115,245.7c-.95,0-1.74-.67-1.79-1.53-.07-1.31.76-2.46,2.48-3.42,5.5-3.09,12.28-4.14,18.62-2.9.97.19,1.58,1.05,1.37,1.91-.21.87-1.17,1.42-2.13,1.23-5.43-1.07-11.24-.16-15.96,2.48-.57.32-.75.53-.8.59.01.86-.74,1.58-1.7,1.62-.03,0-.06,0-.09,0Z" fill="#d6656b" stroke-width="0"/><path d="M153.48,220.86c-.95,0-1.74-.67-1.79-1.54-.09-1.9.57-3.77,1.86-5.27,1.29-1.5,3.14-2.55,5.2-2.94.97-.19,1.92.37,2.12,1.24.21.87-.41,1.72-1.38,1.91-1.22.23-2.36.88-3.12,1.77-.76.89-1.17,2.04-1.12,3.16.04.89-.72,1.64-1.71,1.68-.03,0-.05,0-.08,0Z" fill="#d6656b" stroke-width="0"/><path d="M131.19,234.17c-.1,0-.2,0-.31-.02-.97-.15-1.63-.98-1.46-1.86.77-4.01,3.55-7.66,7.44-9.74.85-.46,1.95-.21,2.45.56.51.76.23,1.75-.62,2.21-3.01,1.61-5.16,4.43-5.75,7.53-.15.78-.91,1.34-1.76,1.34Z" fill="#d6656b" stroke-width="0"/><path d="M137.19,367.47c-.89,0-1.66-.6-1.77-1.41-.43-3.18-2.39-6.25-5.23-8.19-2.84-1.94-6.65-2.82-10.18-2.35-.98.13-1.89-.48-2.03-1.35-.15-.88.53-1.7,1.51-1.83,4.53-.61,9.23.48,12.87,2.97,3.65,2.49,6.06,6.27,6.61,10.36.12.88-.58,1.68-1.56,1.79-.07,0-.15.01-.22.01Z" fill="#d6656b" stroke-width="0"/><path d="M139.9,360.1c-.42,0-.84-.13-1.19-.4-1.63-1.3-2.89-3.15-3.63-5.36-.64-1.91-.86-3.89-1-5.75-.07-.97-.11-1.92.24-2.91.5-1.4,1.69-2.42,3.12-2.66.96-.16,1.86.4,2.06,1.26.2.86-.44,1.71-1.4,1.9-.06.01-.27.18-.38.47-.16.45-.13,1.04-.08,1.71.15,1.93.35,3.53.86,5.04.55,1.64,1.44,2.99,2.58,3.89.74.59.81,1.6.15,2.27-.35.36-.85.54-1.34.54Z" fill="#d6656b" stroke-width="0"/><path d="M163.24,370.65c-.09,0-.17,0-.26,0-1.93-.02-4.41-.19-6.55-1.38-2.08-1.16-3.6-3.21-4.18-5.62-.45-1.87-.37-3.94.25-6.31.22-.86,1.19-1.4,2.15-1.2.96.2,1.56,1.07,1.34,1.93-.49,1.9-.57,3.5-.23,4.9.38,1.57,1.31,2.87,2.57,3.57,1.38.77,3.23.88,4.69.9,2.53.02,7.13-.35,9.38-3.07.59-.71,1.71-.86,2.5-.33.79.53.96,1.54.37,2.25-2.33,2.82-6.6,4.37-12.03,4.37Z" fill="#d6656b" stroke-width="0"/><path d="M140.46,398.54c-.95,0-1.75-.68-1.79-1.54-.09-1.96-1.27-3.86-3.07-4.95-1.81-1.1-4.2-1.38-6.26-.72-.93.3-1.95-.14-2.28-.98-.33-.84.16-1.76,1.09-2.05,3.11-.99,6.73-.57,9.46,1.09,2.73,1.66,4.51,4.53,4.64,7.48.04.89-.73,1.64-1.71,1.67-.03,0-.05,0-.08,0Z" fill="#d6656b" stroke-width="0"/><path d="M159.27,424.94c-2.23,0-4.44-.81-6.02-2.25-1.93-1.76-2.79-4.35-2.25-6.77.37-1.64,1.32-3.03,2.69-3.9,1.66-1.06,3.83-1.23,5.52-.45.88.41,1.22,1.38.77,2.17-.45.79-1.53,1.1-2.41.69-.5-.23-1.26-.14-1.81.21-.61.39-1.07,1.09-1.25,1.91-.3,1.37.2,2.89,1.29,3.88,1.09.99,2.78,1.47,4.3,1.22.97-.16,1.91.42,2.08,1.29.18.87-.46,1.71-1.44,1.87-.49.08-.99.12-1.48.12Z" fill="#d6656b" stroke-width="0"/><path d="M167.04,390.45c-1.4,0-2.81-.27-4.07-.81-2.39-1.02-4.28-2.99-5.04-5.27-.28-.85.25-1.75,1.2-2,.95-.25,1.94.23,2.23,1.08.47,1.42,1.65,2.65,3.14,3.28,1.49.63,3.29.67,4.82.1.91-.34,1.96.04,2.34.86.38.82-.05,1.76-.96,2.1-1.15.43-2.4.65-3.66.65Z" fill="#d6656b" stroke-width="0"/><path d="M96.95,351.59c-.64,0-1.26-.31-1.58-.86-1.76-3-.91-6.9,1.97-9.08.76-.57,1.89-.48,2.52.2.64.68.54,1.69-.22,2.27-1.57,1.19-2.07,3.48-1.11,5.12.46.79.13,1.76-.75,2.17-.27.13-.55.19-.83.19Z" fill="#d6656b" stroke-width="0"/><path d="M100.22,307.4c-.09,0-.18,0-.27-.02-2.38-.33-4.58-1.4-6.18-3.01-1.61-1.61-2.54-3.69-2.64-5.85-.04-.89.73-1.64,1.71-1.67.99-.03,1.82.65,1.86,1.54.06,1.4.7,2.8,1.73,3.84,1.04,1.04,2.52,1.76,4.06,1.98.98.13,1.65.96,1.5,1.83-.14.8-.9,1.36-1.77,1.36Z" fill="#d6656b" stroke-width="0"/><path d="M186.67,218.61c.59-4.22,4.41-7.39,8.7-9.18,6.89-2.89,13.29,2.18,15.34,4.05,5.63-1.41,6.79-2.05,12.18,1.18,3.37,2.01,7.88,6.93,11.75,7.98,2.9.79,6.1.83,8.7,2.22,5.01,2.68,5.59,8.87,8.4,13.47,2.17,3.55,5.77,6.18,8.83,9.15,9.22,8.93,16,18.47,17.96,32.83.92,4.31-2.44,9.87-1.96,14.24,2.36,3.18,4.98,5.46,5.24,10.94.22,4.68.79,9.18-3.27,15.06,3.93,4.82,2.6,13.53.56,18.19-3.41,7.79-12.61,13.06-14.37,21.28-1.64,4.89,5.17,11.95,1.5,24.31-5.76,8-11.98,11.13-17.26,15.05-3.26,2.42-2.43,4.47-5.39,7.19-2.96,2.72-9.17,6.82-14.8,4.71,1.86,4.47,0,10.02-3.95,13.21-3.96,3.19-9.26,4.66-14.5,5.49-6.59,1.04-14.2.91-18.9-3.36-3.82-3.47-4.66-8.71-5.29-13.57-.75-5.75-.9-12.75,4.46-15.96-3.13-6.5-4.21-13.8-3.02-20.8v-76.01c1.8-1.99,3.33-4.5,3.44-7.07.11-2.77-1.87-5.21-2.91-7.82-1.13-2.84-1.12-6.04.02-8.88.59-1.47,1.48-2.85,1.8-4.38.49-2.37-.42-4.78-1.21-7.09-1.08-3.17-1.92-6.71-.34-9.72,1.04-1.98,3.09-3.67,3.09-5.86,0-1.81-1.42-3.33-2.23-4.99-1.04-2.12-1.05-4.51-.49-6.74.54-2.17,2.66-4.36,2.77-6.53.1-1.97-1.52-3.22-2.6-4.79-1.64-2.37-2.63-4.99-2.24-7.81Z" fill="#9a9fe5" stroke-width="0"/><path d="M195.65,321.3c.46,0,.93-.16,1.28-.48,2.74-2.51,5.57-5.1,7.53-8.35,2.29-3.79,2.84-7.89,1.51-11.26-.33-.84-1.35-1.28-2.28-.98-.93.3-1.42,1.21-1.09,2.05.99,2.51.52,5.66-1.29,8.65-1.72,2.85-4.37,5.28-6.94,7.63-.69.63-.68,1.65.02,2.27.35.31.8.46,1.25.46Z" fill="#a9aff1" stroke-width="0"/><path d="M208.84,314.89s.02,0,.03,0c2.83,0,5.24-1.9,5.37-4.21.05-.89-.71-1.64-1.69-1.69-.99-.05-1.83.63-1.88,1.52-.03.58-.93,1.16-1.81,1.16-1.29.01-2.54-.8-3.37-1.47-.73-.6-1.86-.54-2.53.12-.66.66-.6,1.68.13,2.27,1.88,1.53,3.82,2.3,5.76,2.3Z" fill="#a9aff1" stroke-width="0"/><path d="M225.06,306.33c.11,0,.23,0,.34-.03,2.66-.46,5.04-2.01,6.37-4.13,1.32-2.13,1.55-4.76.59-7.04-.35-.83-1.38-1.25-2.3-.94-.92.31-1.39,1.24-1.04,2.07.58,1.38.44,3.05-.36,4.34-.8,1.29-2.31,2.27-3.92,2.54-.97.17-1.61,1.01-1.42,1.88.16.77.91,1.3,1.76,1.3Z" fill="#a9aff1" stroke-width="0"/><path d="M230.45,272.52c.57,0,1.12-.24,1.47-.69,3.28-4.24,4.91-8.39,4.87-12.33-.06-5.1-3.22-9.66-7.86-11.37-2.87-1.05-5.93-.96-8.57-.78-2.48.17-5.34.45-7.82,1.8-2.75,1.49-4.73,4.19-5.27,7.22-.49,2.71.12,5.65,1.73,8.28,1.11,1.81,2.48,3.11,4.1,3.87,2.2,1.03,4.79.92,6.6-.27.8-.53.97-1.53.39-2.25-.58-.72-1.7-.87-2.5-.35-.7.46-1.86.46-2.84,0-.97-.45-1.85-1.31-2.61-2.56-1.22-2.01-1.7-4.22-1.33-6.22.38-2.11,1.72-3.98,3.59-4.98,1.81-.98,4.17-1.21,6.24-1.34,2.24-.15,4.8-.24,6.95.55,3.27,1.2,5.59,4.67,5.63,8.43.04,3.26-1.38,6.77-4.23,10.46-.56.73-.36,1.73.45,2.24.31.19.67.29,1.02.29Z" fill="#a9aff1" stroke-width="0"/><path d="M254.6,337.18h0c.99,0,1.79-.72,1.79-1.61,0-2.02,1.14-4,2.98-5.17,1.84-1.17,4.3-1.48,6.42-.8.93.3,1.95-.14,2.28-.98.33-.84-.16-1.76-1.09-2.05-3.2-1.01-6.91-.55-9.68,1.21-2.77,1.76-4.49,4.75-4.49,7.8,0,.89.8,1.61,1.79,1.61Z" fill="#a9aff1" stroke-width="0"/><path d="M230.98,342.15c.48,0,.96-.17,1.31-.51,1.58-1.52,2.64-3.4,3.07-5.45.48-2.28.15-4.79-.94-7.06-1.48-3.09-4.3-5.63-7.73-6.98-.91-.36-1.96.02-2.36.83-.4.81.02,1.76.92,2.12,2.61,1.03,4.75,2.96,5.88,5.31.81,1.69,1.06,3.53.71,5.18-.3,1.43-1.08,2.8-2.18,3.86-.67.65-.63,1.67.09,2.27.34.29.78.43,1.22.43Z" fill="#a9aff1" stroke-width="0"/><path d="M233.03,383.85s.04,0,.06,0c2.74-.08,5.58-.17,8.39-.72,3.31-.65,6.02-1.85,8.04-3.58,2.5-2.13,3.82-5.06,3.52-7.84-.09-.88-.97-1.53-1.95-1.45-.98.08-1.7.87-1.61,1.75.19,1.77-.74,3.76-2.42,5.2-1.54,1.31-3.68,2.25-6.34,2.77-2.49.49-5.16.57-7.74.64-.99.03-1.76.77-1.73,1.66.03.87.83,1.55,1.79,1.55Z" fill="#a9aff1" stroke-width="0"/><path d="M201.14,417.1c1.73,0,3.46-.35,5.02-1.08.88-.41,1.22-1.38.76-2.17-.46-.79-1.54-1.1-2.41-.69-2.84,1.33-6.66.76-8.87-1.33-.68-.64-1.81-.67-2.53-.05-.72.61-.74,1.63-.06,2.27,2.11,1.99,5.1,3.04,8.09,3.04Z" fill="#a9aff1" stroke-width="0"/><path d="M258.25,302.98c.48,0,.96-.17,1.31-.52,3.37-3.27,4.63-8.14,3.21-12.4-.28-.85-1.28-1.34-2.23-1.08-.95.25-1.49,1.15-1.2,2,1.06,3.2.11,6.85-2.41,9.3-.67.65-.63,1.67.1,2.27.34.29.78.43,1.22.43Z" fill="#a9aff1" stroke-width="0"/><path d="M213.15,236.48c.7,0,1.36-.37,1.65-.98,1.43-3.02,1.59-6.1.45-8.65-1.42-3.18-4.97-5.25-8.43-4.93-.98.09-1.7.88-1.6,1.76.1.88.98,1.53,1.96,1.44,1.88-.17,3.92,1.09,4.74,2.93.78,1.73.62,3.99-.42,6.19-.39.82.04,1.76.95,2.11.23.09.47.13.7.13Z" fill="#a9aff1" stroke-width="0"/><path d="M207.95,275.2c.16,0,.32-.02.47-.06.95-.23,1.51-1.12,1.25-1.98-.93-3.06-3.74-5.58-7.15-6.41-.95-.23-1.94.28-2.19,1.13-.26.86.31,1.74,1.26,1.97,2.18.53,4.04,2.2,4.64,4.16.22.71.94,1.18,1.72,1.18Z" fill="#a9aff1" stroke-width="0"/><path d="M195.56,354.14c.6,0,1.18-.27,1.52-.76.52-.75.26-1.75-.58-2.21-1.02-.57-1.81-1.49-2.16-2.52-.65-1.91.12-4.25.75-6.13.28-.85-.26-1.75-1.21-2-.95-.25-1.94.23-2.23,1.08-.72,2.18-1.71,5.15-.74,7.99.6,1.76,1.95,3.34,3.69,4.31.29.16.62.24.94.24Z" fill="#a9aff1" stroke-width="0"/><path d="M217.3,413.01c.32,0,.63-.07.92-.23,4.7-2.55,7.84-7.39,8-12.32.03-.89-.75-1.63-1.74-1.65-.99-.03-1.81.67-1.84,1.56-.13,3.87-2.59,7.66-6.28,9.67-.85.46-1.12,1.45-.61,2.21.34.5.93.78,1.53.78Z" fill="#a9aff1" stroke-width="0"/><path d="M222.46,306.58c.95,0,1.74-.67,1.79-1.52.05-.89-.71-1.64-1.69-1.69-.54-.02-1.16-.62-1.46-1.39-.25-.64-.34-1.37-.45-2.15-.06-.47-.13-.96-.23-1.46-.42-2.08-1.47-3.59-3.02-4.38-1.18-.6-2.42-.67-3.51-.73-.49-.03-.96-.05-1.36-.13-1.31-.24-2.55-1.12-3.6-1.92l-.41-.31c-1.26-.97-2.57-1.98-4.26-2.59-2.45-.89-5.08-.56-6.72.83-.72.61-.75,1.63-.07,2.27.68.64,1.81.67,2.53.06.71-.6,2.01-.52,2.92-.19,1.15.42,2.18,1.21,3.27,2.05l.42.32c1.49,1.14,3.16,2.25,5.2,2.62.65.12,1.26.15,1.85.19.81.05,1.51.09,1.97.32.8.41,1.13,1.53,1.26,2.16.08.4.14.82.19,1.26.12.92.25,1.87.62,2.83.8,2.06,2.62,3.45,4.66,3.55.03,0,.06,0,.09,0Z" fill="#767bcb" stroke-width="0"/><path d="M243.14,307.89c.63,0,1.24-.3,1.57-.83,1.99-3.23,1.78-7.01,1.61-10.05-.13-2.27-.26-4.63-1.05-6.94-.94-2.76-2.73-4.94-5.04-6.15-.69-.36-1.39-.62-2.07-.87-.8-.3-1.56-.58-2.12-.98-.58-.41-1.06-1.03-1.58-1.68-.4-.51-.82-1.05-1.33-1.55-3.27-3.23-8.52-3.63-12.18-3.65-2.59-.01-5.62.1-8.47,1.06-3.23,1.09-5.68,3.15-6.7,5.65-.34.83.13,1.76,1.06,2.07.93.31,1.96-.12,2.3-.95.66-1.6,2.38-3,4.61-3.75,2.3-.78,4.92-.87,7.19-.86,2.99.02,7.23.3,9.55,2.6.37.36.7.79,1.06,1.25.61.77,1.3,1.65,2.28,2.35.95.68,2.03,1.08,2.97,1.43.59.22,1.15.43,1.63.68,1.53.8,2.75,2.34,3.43,4.32.66,1.93.78,4.08.9,6.16.19,3.35.22,6.09-1.17,8.33-.48.78-.17,1.76.7,2.19.27.14.57.2.87.2Z" fill="#767bcb" stroke-width="0"/><path d="M258.45,267.63c.14,0,.29-.02.43-.05,2.61-.58,5.3-.81,7.99-.69.99.04,1.83-.64,1.88-1.53.05-.89-.71-1.64-1.7-1.69-3.04-.14-6.07.13-9.03.78-.96.21-1.54,1.09-1.31,1.95.2.73.93,1.22,1.74,1.22Z" fill="#767bcb" stroke-width="0"/><path d="M251.29,245.42c.95,0,1.74-.67,1.79-1.53.07-1.31-.76-2.46-2.48-3.42-5.5-3.09-12.28-4.14-18.62-2.9-.97.19-1.58,1.05-1.37,1.91.21.87,1.17,1.42,2.13,1.23,5.43-1.07,11.24-.16,15.96,2.48.57.32.75.53.8.59-.01.86.74,1.58,1.7,1.62.03,0,.06,0,.09,0Z" fill="#767bcb" stroke-width="0"/><path d="M212.81,220.58c.95,0,1.74-.67,1.79-1.54.09-1.9-.57-3.77-1.86-5.27-1.29-1.5-3.14-2.55-5.2-2.94-.97-.19-1.92.37-2.12,1.24-.21.87.41,1.72,1.38,1.91,1.22.23,2.36.88,3.12,1.77.76.89,1.17,2.04,1.12,3.16-.04.89.72,1.64,1.71,1.68.03,0,.05,0,.08,0Z" fill="#767bcb" stroke-width="0"/><path d="M235.1,233.89c.1,0,.2,0,.31-.02.97-.15,1.63-.98,1.46-1.86-.77-4.01-3.55-7.66-7.44-9.74-.85-.46-1.95-.21-2.45.56-.51.76-.23,1.75.62,2.21,3.01,1.61,5.16,4.43,5.75,7.53.15.78.91,1.34,1.76,1.34Z" fill="#767bcb" stroke-width="0"/><path d="M229.09,367.18c.89,0,1.66-.6,1.77-1.41.43-3.18,2.39-6.25,5.23-8.19,2.84-1.94,6.65-2.82,10.18-2.35.98.13,1.89-.48,2.03-1.35.15-.88-.53-1.7-1.51-1.83-4.53-.61-9.23.48-12.87,2.97-3.65,2.49-6.06,6.27-6.61,10.36-.12.88.58,1.68,1.56,1.79.07,0,.15.01.22.01Z" fill="#767bcb" stroke-width="0"/><path d="M226.39,359.82c.42,0,.84-.13,1.19-.4,1.63-1.3,2.89-3.15,3.63-5.36.64-1.91.86-3.89,1-5.75.07-.97.11-1.92-.24-2.91-.5-1.4-1.69-2.42-3.12-2.66-.96-.16-1.86.4-2.06,1.26-.2.86.44,1.71,1.4,1.9.06.01.27.18.38.47.16.45.13,1.04.08,1.71-.15,1.93-.35,3.53-.86,5.04-.55,1.64-1.44,2.99-2.58,3.89-.74.59-.81,1.6-.15,2.27.35.36.85.54,1.34.54Z" fill="#767bcb" stroke-width="0"/><path d="M203.05,370.37c.09,0,.17,0,.26,0,1.93-.02,4.41-.19,6.55-1.38,2.08-1.16,3.6-3.21,4.18-5.62.45-1.87.37-3.94-.25-6.31-.22-.86-1.19-1.4-2.15-1.2-.96.2-1.56,1.07-1.34,1.93.49,1.9.57,3.5.23,4.9-.38,1.57-1.31,2.87-2.57,3.57-1.38.77-3.23.88-4.69.9-2.53.02-7.13-.35-9.38-3.07-.59-.71-1.71-.86-2.5-.33-.79.53-.96,1.54-.37,2.25,2.33,2.82,6.6,4.37,12.03,4.37Z" fill="#767bcb" stroke-width="0"/><path d="M225.82,398.25c.95,0,1.75-.68,1.79-1.54.09-1.96,1.27-3.86,3.07-4.95,1.81-1.1,4.2-1.38,6.26-.72.93.3,1.95-.14,2.28-.98.33-.84-.16-1.76-1.09-2.05-3.11-.99-6.73-.57-9.46,1.09-2.73,1.66-4.51,4.53-4.64,7.48-.04.89.73,1.64,1.71,1.67.03,0,.05,0,.08,0Z" fill="#767bcb" stroke-width="0"/><path d="M207.01,424.66c2.23,0,4.44-.81,6.02-2.25,1.93-1.76,2.79-4.35,2.25-6.77-.37-1.64-1.32-3.03-2.69-3.9-1.66-1.06-3.83-1.23-5.52-.45-.88.41-1.22,1.38-.77,2.17.45.79,1.53,1.1,2.41.69.5-.23,1.26-.14,1.81.21.61.39,1.07,1.09,1.25,1.91.3,1.37-.2,2.89-1.29,3.88-1.09.99-2.78,1.47-4.3,1.22-.97-.16-1.91.42-2.08,1.29-.18.87.46,1.71,1.44,1.87.49.08.99.12,1.48.12Z" fill="#767bcb" stroke-width="0"/><path d="M199.24,390.16c1.4,0,2.81-.27,4.07-.81,2.39-1.02,4.28-2.99,5.04-5.27.28-.85-.25-1.75-1.2-2-.95-.25-1.94.23-2.23,1.08-.47,1.42-1.65,2.65-3.14,3.28-1.49.63-3.29.67-4.82.1-.91-.34-1.96.04-2.34.86-.38.82.05,1.76.96,2.1,1.15.43,2.4.65,3.66.65Z" fill="#767bcb" stroke-width="0"/><path d="M269.33,351.31c.64,0,1.26-.31,1.58-.86,1.76-3,.91-6.9-1.97-9.08-.76-.57-1.89-.48-2.52.2-.64.68-.54,1.69.22,2.27,1.57,1.19,2.07,3.48,1.11,5.12-.46.79-.13,1.76.75,2.17.27.13.55.19.83.19Z" fill="#767bcb" stroke-width="0"/><path d="M266.06,307.11c.09,0,.18,0,.27-.02,2.38-.33,4.58-1.4,6.18-3.01,1.61-1.61,2.54-3.69,2.64-5.85.04-.89-.73-1.64-1.71-1.67-.99-.03-1.82.65-1.86,1.54-.06,1.4-.7,2.8-1.73,3.84-1.04,1.04-2.52,1.76-4.06,1.98-.98.13-1.65.96-1.5,1.83.14.8.9,1.36,1.77,1.36Z" fill="#767bcb" stroke-width="0"/><rect x="86.12" y="549.25" width="17.73" height="109.29" transform="translate(189.98 1207.79) rotate(-180)" fill="#c66f66" stroke-width="0"/><rect x="46.09" y="565.01" width="17.73" height="109.29" transform="translate(109.91 1239.3) rotate(-180)" fill="#c66f66" stroke-width="0"/><rect x="2.71" y="546.6" width="25.29" height="109.29" transform="translate(30.72 1202.48) rotate(-180)" fill="#c66f66" stroke-width="0"/><rect x="333.02" y="556.4" width="17.73" height="109.29" transform="translate(683.78 1222.09) rotate(-180)" fill="#c66f66" stroke-width="0"/><rect x="262.6" y="541.91" width="9.2" height="127.21" transform="translate(534.39 1211.04) rotate(-180)" fill="#c66f66" stroke-width="0"/><rect x="351.47" y="559.57" width="17.73" height="109.29" transform="translate(720.67 1228.43) rotate(-180)" fill="#c66f66" stroke-width="0"/><rect x="276.1" y="551.81" width="25.29" height="109.29" transform="translate(577.48 1212.91) rotate(-180)" fill="#c66f66" stroke-width="0"/><rect x="289.24" y="565.62" width="19.64" height="121" fill="#c85746" stroke-width="0"/><rect x="311.42" y="542.87" width="19.64" height="121" fill="#c85746" stroke-width="0"/><rect x="335.79" y="553.04" width="28" height="121" fill="#c85746" stroke-width="0"/><rect x="10.71" y="561.75" width="19.64" height="121" fill="#c85746" stroke-width="0"/><rect x="100.89" y="526.42" width="10.18" height="140.85" fill="#c85746" stroke-width="0"/><rect x="32.89" y="539" width="19.64" height="121" fill="#c85746" stroke-width="0"/><rect x="57.26" y="549.16" width="28" height="121" fill="#c85746" stroke-width="0"/><rect x="313.97" y="553.52" width="2.55" height="5.81" fill="#fffeff" stroke-width="0"/><rect x="317.97" y="553.52" width="2.55" height="5.81" fill="#fffeff" stroke-width="0"/><rect x="321.97" y="553.52" width="2.55" height="5.81" fill="#fffeff" stroke-width="0"/><rect x="325.97" y="553.52" width="2.55" height="5.81" fill="#fffeff" stroke-width="0"/><rect x="313.97" y="563.2" width="2.55" height="5.81" fill="#fffeff" stroke-width="0"/><rect x="317.97" y="563.2" width="2.55" height="5.81" fill="#fffeff" stroke-width="0"/><rect x="321.97" y="563.2" width="2.55" height="5.81" fill="#fffeff" stroke-width="0"/><rect x="325.97" y="563.2" width="2.55" height="5.81" fill="#fffeff" stroke-width="0"/><rect x="313.97" y="572.88" width="2.55" height="5.81" fill="#fffeff" stroke-width="0"/><rect x="317.97" y="572.88" width="2.55" height="5.81" fill="#fffeff" stroke-width="0"/><rect x="321.97" y="572.88" width="2.55" height="5.81" fill="#fffeff" stroke-width="0"/><rect x="325.97" y="572.88" width="2.55" height="5.81" fill="#fffeff" stroke-width="0"/><rect x="313.97" y="582.56" width="2.55" height="5.81" fill="#fffeff" stroke-width="0"/><rect x="317.97" y="582.56" width="2.55" height="5.81" fill="#fffeff" stroke-width="0"/><rect x="321.97" y="582.56" width="2.55" height="5.81" fill="#fffeff" stroke-width="0"/><rect x="325.97" y="582.56" width="2.55" height="5.81" fill="#fffeff" stroke-width="0"/><rect x="313.97" y="592.24" width="2.55" height="5.81" fill="#fffeff" stroke-width="0"/><rect x="317.97" y="592.24" width="2.55" height="5.81" fill="#fffeff" stroke-width="0"/><rect x="321.97" y="592.24" width="2.55" height="5.81" fill="#fffeff" stroke-width="0"/><rect x="325.97" y="592.24" width="2.55" height="5.81" fill="#fffeff" stroke-width="0"/><rect x="313.97" y="601.92" width="2.55" height="5.81" fill="#fffeff" stroke-width="0"/><rect x="317.97" y="601.92" width="2.55" height="5.81" fill="#fffeff" stroke-width="0"/><rect x="321.97" y="601.92" width="2.55" height="5.81" fill="#fffeff" stroke-width="0"/><rect x="325.97" y="601.92" width="2.55" height="5.81" fill="#fffeff" stroke-width="0"/><rect x="313.97" y="611.6" width="2.55" height="5.81" fill="#fffeff" stroke-width="0"/><rect x="317.97" y="611.6" width="2.55" height="5.81" fill="#fffeff" stroke-width="0"/><rect x="321.97" y="611.6" width="2.55" height="5.81" fill="#fffeff" stroke-width="0"/><rect x="325.97" y="611.6" width="2.55" height="5.81" fill="#fffeff" stroke-width="0"/><rect x="313.97" y="621.28" width="2.55" height="5.81" fill="#fffeff" stroke-width="0"/><rect x="317.97" y="621.28" width="2.55" height="5.81" fill="#fffeff" stroke-width="0"/><rect x="321.97" y="621.28" width="2.55" height="5.81" fill="#fffeff" stroke-width="0"/><rect x="325.97" y="621.28" width="2.55" height="5.81" fill="#fffeff" stroke-width="0"/><rect x="313.97" y="630.96" width="2.55" height="5.81" fill="#fffeff" stroke-width="0"/><rect x="317.97" y="630.96" width="2.55" height="5.81" fill="#fffeff" stroke-width="0"/><rect x="321.97" y="630.96" width="2.55" height="5.81" fill="#fffeff" stroke-width="0"/><rect x="325.97" y="630.96" width="2.55" height="5.81" fill="#fffeff" stroke-width="0"/><rect x="291.79" y="570.46" width="2.55" height="5.81" fill="#fffeff" stroke-width="0"/><rect x="295.79" y="570.46" width="2.55" height="5.81" fill="#fffeff" stroke-width="0"/><rect x="299.79" y="570.46" width="2.55" height="5.81" fill="#fffeff" stroke-width="0"/><rect x="303.79" y="570.46" width="2.55" height="5.81" fill="#fffeff" stroke-width="0"/><rect x="291.79" y="580.14" width="2.55" height="5.81" fill="#fffeff" stroke-width="0"/><rect x="295.79" y="580.14" width="2.55" height="5.81" fill="#fffeff" stroke-width="0"/><rect x="299.79" y="580.14" width="2.55" height="5.81" fill="#fffeff" stroke-width="0"/><rect x="303.79" y="580.14" width="2.55" height="5.81" fill="#fffeff" stroke-width="0"/><rect x="291.79" y="589.82" width="2.55" height="5.81" fill="#fffeff" stroke-width="0"/><rect x="295.79" y="589.82" width="2.55" height="5.81" fill="#fffeff" stroke-width="0"/><rect x="299.79" y="589.82" width="2.55" height="5.81" fill="#fffeff" stroke-width="0"/><rect x="303.79" y="589.82" width="2.55" height="5.81" fill="#fffeff" stroke-width="0"/><rect x="291.79" y="599.5" width="2.55" height="5.81" fill="#fffeff" stroke-width="0"/><rect x="295.79" y="599.5" width="2.55" height="5.81" fill="#fffeff" stroke-width="0"/><rect x="299.79" y="599.5" width="2.55" height="5.81" fill="#fffeff" stroke-width="0"/><rect x="303.79" y="599.5" width="2.55" height="5.81" fill="#fffeff" stroke-width="0"/><rect x="291.79" y="609.18" width="2.55" height="5.81" fill="#fffeff" stroke-width="0"/><rect x="295.79" y="609.18" width="2.55" height="5.81" fill="#fffeff" stroke-width="0"/><rect x="299.79" y="609.18" width="2.55" height="5.81" fill="#fffeff" stroke-width="0"/><rect x="303.79" y="609.18" width="2.55" height="5.81" fill="#fffeff" stroke-width="0"/><rect x="291.79" y="618.86" width="2.55" height="5.81" fill="#fffeff" stroke-width="0"/><rect x="295.79" y="618.86" width="2.55" height="5.81" fill="#fffeff" stroke-width="0"/><rect x="299.79" y="618.86" width="2.55" height="5.81" fill="#fffeff" stroke-width="0"/><rect x="303.79" y="618.86" width="2.55" height="5.81" fill="#fffeff" stroke-width="0"/><rect x="291.79" y="628.54" width="2.55" height="5.81" fill="#fffeff" stroke-width="0"/><rect x="295.79" y="628.54" width="2.55" height="5.81" fill="#fffeff" stroke-width="0"/><rect x="299.79" y="628.54" width="2.55" height="5.81" fill="#fffeff" stroke-width="0"/><rect x="303.79" y="628.54" width="2.55" height="5.81" fill="#fffeff" stroke-width="0"/><rect x="291.79" y="638.22" width="2.55" height="5.81" fill="#fffeff" stroke-width="0"/><rect x="295.79" y="638.22" width="2.55" height="5.81" fill="#fffeff" stroke-width="0"/><rect x="299.79" y="638.22" width="2.55" height="5.81" fill="#fffeff" stroke-width="0"/><rect x="303.79" y="638.22" width="2.55" height="5.81" fill="#fffeff" stroke-width="0"/><rect x="291.79" y="647.9" width="2.55" height="5.81" fill="#fffeff" stroke-width="0"/><rect x="295.79" y="647.9" width="2.55" height="5.81" fill="#fffeff" stroke-width="0"/><rect x="299.79" y="647.9" width="2.55" height="5.81" fill="#fffeff" stroke-width="0"/><rect x="303.79" y="647.9" width="2.55" height="5.81" fill="#fffeff" stroke-width="0"/><rect x="63.8" y="556.91" width="2.55" height="5.81" fill="#fffeff" stroke-width="0"/><rect x="67.8" y="556.91" width="2.55" height="5.81" fill="#fffeff" stroke-width="0"/><rect x="71.8" y="556.91" width="2.55" height="5.81" fill="#fffeff" stroke-width="0"/><rect x="75.8" y="556.91" width="2.55" height="5.81" fill="#fffeff" stroke-width="0"/><rect x="63.8" y="566.59" width="2.55" height="5.81" fill="#fffeff" stroke-width="0"/><rect x="67.8" y="566.59" width="2.55" height="5.81" fill="#fffeff" stroke-width="0"/><rect x="71.8" y="566.59" width="2.55" height="5.81" fill="#fffeff" stroke-width="0"/><rect x="75.8" y="566.59" width="2.55" height="5.81" fill="#fffeff" stroke-width="0"/><rect x="63.8" y="576.27" width="2.55" height="5.81" fill="#fffeff" stroke-width="0"/><rect x="67.8" y="576.27" width="2.55" height="5.81" fill="#fffeff" stroke-width="0"/><rect x="71.8" y="576.27" width="2.55" height="5.81" fill="#fffeff" stroke-width="0"/><rect x="75.8" y="576.27" width="2.55" height="5.81" fill="#fffeff" stroke-width="0"/><rect x="63.8" y="585.95" width="2.55" height="5.81" fill="#fffeff" stroke-width="0"/><rect x="67.8" y="585.95" width="2.55" height="5.81" fill="#fffeff" stroke-width="0"/><rect x="71.8" y="585.95" width="2.55" height="5.81" fill="#fffeff" stroke-width="0"/><rect x="75.8" y="585.95" width="2.55" height="5.81" fill="#fffeff" stroke-width="0"/><rect x="63.8" y="595.63" width="2.55" height="5.81" fill="#fffeff" stroke-width="0"/><rect x="67.8" y="595.63" width="2.55" height="5.81" fill="#fffeff" stroke-width="0"/><rect x="71.8" y="595.63" width="2.55" height="5.81" fill="#fffeff" stroke-width="0"/><rect x="75.8" y="595.63" width="2.55" height="5.81" fill="#fffeff" stroke-width="0"/><rect x="63.8" y="605.31" width="2.55" height="5.81" fill="#fffeff" stroke-width="0"/><rect x="67.8" y="605.31" width="2.55" height="5.81" fill="#fffeff" stroke-width="0"/><rect x="71.8" y="605.31" width="2.55" height="5.81" fill="#fffeff" stroke-width="0"/><rect x="75.8" y="605.31" width="2.55" height="5.81" fill="#fffeff" stroke-width="0"/><rect x="63.8" y="614.99" width="2.55" height="5.81" fill="#fffeff" stroke-width="0"/><rect x="67.8" y="614.99" width="2.55" height="5.81" fill="#fffeff" stroke-width="0"/><rect x="71.8" y="614.99" width="2.55" height="5.81" fill="#fffeff" stroke-width="0"/><rect x="75.8" y="614.99" width="2.55" height="5.81" fill="#fffeff" stroke-width="0"/><rect x="63.8" y="624.67" width="2.55" height="5.81" fill="#fffeff" stroke-width="0"/><rect x="67.8" y="624.67" width="2.55" height="5.81" fill="#fffeff" stroke-width="0"/><rect x="71.8" y="624.67" width="2.55" height="5.81" fill="#fffeff" stroke-width="0"/><rect x="75.8" y="624.67" width="2.55" height="5.81" fill="#fffeff" stroke-width="0"/><rect x="63.8" y="634.35" width="2.55" height="5.81" fill="#fffeff" stroke-width="0"/><rect x="67.8" y="634.35" width="2.55" height="5.81" fill="#fffeff" stroke-width="0"/><rect x="71.8" y="634.35" width="2.55" height="5.81" fill="#fffeff" stroke-width="0"/><rect x="75.8" y="634.35" width="2.55" height="5.81" fill="#fffeff" stroke-width="0"/><rect x="102.71" y="532.71" width="2.55" height="5.81" fill="#fffeff" stroke-width="0"/><rect x="106.71" y="532.71" width="2.55" height="5.81" fill="#fffeff" stroke-width="0"/><rect x="102.71" y="542.39" width="2.55" height="5.81" fill="#fffeff" stroke-width="0"/><rect x="106.71" y="542.39" width="2.55" height="5.81" fill="#fffeff" stroke-width="0"/><rect x="102.71" y="552.07" width="2.55" height="5.81" fill="#fffeff" stroke-width="0"/><rect x="106.71" y="552.07" width="2.55" height="5.81" fill="#fffeff" stroke-width="0"/><rect x="102.71" y="561.75" width="2.55" height="5.81" fill="#fffeff" stroke-width="0"/><rect x="106.71" y="561.75" width="2.55" height="5.81" fill="#fffeff" stroke-width="0"/><rect x="102.71" y="571.43" width="2.55" height="5.81" fill="#fffeff" stroke-width="0"/><rect x="106.71" y="571.43" width="2.55" height="5.81" fill="#fffeff" stroke-width="0"/><rect x="102.71" y="581.11" width="2.55" height="5.81" fill="#fffeff" stroke-width="0"/><rect x="106.71" y="581.11" width="2.55" height="5.81" fill="#fffeff" stroke-width="0"/><rect x="102.71" y="590.79" width="2.55" height="5.81" fill="#fffeff" stroke-width="0"/><rect x="106.71" y="590.79" width="2.55" height="5.81" fill="#fffeff" stroke-width="0"/><rect x="102.71" y="600.47" width="2.55" height="5.81" fill="#fffeff" stroke-width="0"/><rect x="106.71" y="600.47" width="2.55" height="5.81" fill="#fffeff" stroke-width="0"/><rect x="102.71" y="610.15" width="2.55" height="5.81" fill="#fffeff" stroke-width="0"/><rect x="106.71" y="610.15" width="2.55" height="5.81" fill="#fffeff" stroke-width="0"/><rect x="35.08" y="544.32" width="2.55" height="5.81" fill="#fffeff" stroke-width="0"/><rect x="39.08" y="544.32" width="2.55" height="5.81" fill="#fffeff" stroke-width="0"/><rect x="43.08" y="544.32" width="2.55" height="5.81" fill="#fffeff" stroke-width="0"/><rect x="47.08" y="544.32" width="2.55" height="5.81" fill="#fffeff" stroke-width="0"/><rect x="35.08" y="554" width="2.55" height="5.81" fill="#fffeff" stroke-width="0"/><rect x="39.08" y="554" width="2.55" height="5.81" fill="#fffeff" stroke-width="0"/><rect x="43.08" y="554" width="2.55" height="5.81" fill="#fffeff" stroke-width="0"/><rect x="47.08" y="554" width="2.55" height="5.81" fill="#fffeff" stroke-width="0"/><rect x="35.08" y="563.68" width="2.55" height="5.81" fill="#fffeff" stroke-width="0"/><rect x="39.08" y="563.68" width="2.55" height="5.81" fill="#fffeff" stroke-width="0"/><rect x="43.08" y="563.68" width="2.55" height="5.81" fill="#fffeff" stroke-width="0"/><rect x="47.08" y="563.68" width="2.55" height="5.81" fill="#fffeff" stroke-width="0"/><rect x="35.08" y="573.36" width="2.55" height="5.81" fill="#fffeff" stroke-width="0"/><rect x="39.08" y="573.36" width="2.55" height="5.81" fill="#fffeff" stroke-width="0"/><rect x="43.08" y="573.36" width="2.55" height="5.81" fill="#fffeff" stroke-width="0"/><rect x="47.08" y="573.36" width="2.55" height="5.81" fill="#fffeff" stroke-width="0"/><rect x="35.08" y="583.04" width="2.55" height="5.81" fill="#fffeff" stroke-width="0"/><rect x="39.08" y="583.04" width="2.55" height="5.81" fill="#fffeff" stroke-width="0"/><rect x="43.08" y="583.04" width="2.55" height="5.81" fill="#fffeff" stroke-width="0"/><rect x="47.08" y="583.04" width="2.55" height="5.81" fill="#fffeff" stroke-width="0"/><rect x="35.08" y="592.73" width="2.55" height="5.81" fill="#fffeff" stroke-width="0"/><rect x="39.08" y="592.73" width="2.55" height="5.81" fill="#fffeff" stroke-width="0"/><rect x="43.08" y="592.73" width="2.55" height="5.81" fill="#fffeff" stroke-width="0"/><rect x="47.08" y="592.73" width="2.55" height="5.81" fill="#fffeff" stroke-width="0"/><rect x="35.08" y="602.41" width="2.55" height="5.81" fill="#fffeff" stroke-width="0"/><rect x="39.08" y="602.41" width="2.55" height="5.81" fill="#fffeff" stroke-width="0"/><rect x="43.08" y="602.41" width="2.55" height="5.81" fill="#fffeff" stroke-width="0"/><rect x="47.08" y="602.41" width="2.55" height="5.81" fill="#fffeff" stroke-width="0"/><rect x="35.08" y="612.09" width="2.55" height="5.81" fill="#fffeff" stroke-width="0"/><rect x="39.08" y="612.09" width="2.55" height="5.81" fill="#fffeff" stroke-width="0"/><rect x="43.08" y="612.09" width="2.55" height="5.81" fill="#fffeff" stroke-width="0"/><rect x="47.08" y="612.09" width="2.55" height="5.81" fill="#fffeff" stroke-width="0"/><rect x="35.08" y="621.77" width="2.55" height="5.81" fill="#fffeff" stroke-width="0"/><rect x="39.08" y="621.77" width="2.55" height="5.81" fill="#fffeff" stroke-width="0"/><rect x="43.08" y="621.77" width="2.55" height="5.81" fill="#fffeff" stroke-width="0"/><rect x="47.08" y="621.77" width="2.55" height="5.81" fill="#fffeff" stroke-width="0"/><rect x="13.26" y="568.04" width="2.55" height="5.81" fill="#fffeff" stroke-width="0"/><rect x="17.26" y="568.04" width="2.55" height="5.81" fill="#fffeff" stroke-width="0"/><rect x="21.26" y="568.04" width="2.55" height="5.81" fill="#fffeff" stroke-width="0"/><rect x="25.26" y="568.04" width="2.55" height="5.81" fill="#fffeff" stroke-width="0"/><rect x="13.26" y="577.72" width="2.55" height="5.81" fill="#fffeff" stroke-width="0"/><rect x="17.26" y="577.72" width="2.55" height="5.81" fill="#fffeff" stroke-width="0"/><rect x="21.26" y="577.72" width="2.55" height="5.81" fill="#fffeff" stroke-width="0"/><rect x="25.26" y="577.72" width="2.55" height="5.81" fill="#fffeff" stroke-width="0"/><rect x="13.26" y="587.4" width="2.55" height="5.81" fill="#fffeff" stroke-width="0"/><rect x="17.26" y="587.4" width="2.55" height="5.81" fill="#fffeff" stroke-width="0"/><rect x="21.26" y="587.4" width="2.55" height="5.81" fill="#fffeff" stroke-width="0"/><rect x="25.26" y="587.4" width="2.55" height="5.81" fill="#fffeff" stroke-width="0"/><rect x="13.26" y="597.08" width="2.55" height="5.81" fill="#fffeff" stroke-width="0"/><rect x="17.26" y="597.08" width="2.55" height="5.81" fill="#fffeff" stroke-width="0"/><rect x="21.26" y="597.08" width="2.55" height="5.81" fill="#fffeff" stroke-width="0"/><rect x="25.26" y="597.08" width="2.55" height="5.81" fill="#fffeff" stroke-width="0"/><rect x="13.26" y="606.76" width="2.55" height="5.81" fill="#fffeff" stroke-width="0"/><rect x="17.26" y="606.76" width="2.55" height="5.81" fill="#fffeff" stroke-width="0"/><rect x="21.26" y="606.76" width="2.55" height="5.81" fill="#fffeff" stroke-width="0"/><rect x="25.26" y="606.76" width="2.55" height="5.81" fill="#fffeff" stroke-width="0"/><rect x="13.26" y="616.44" width="2.55" height="5.81" fill="#fffeff" stroke-width="0"/><rect x="17.26" y="616.44" width="2.55" height="5.81" fill="#fffeff" stroke-width="0"/><rect x="21.26" y="616.44" width="2.55" height="5.81" fill="#fffeff" stroke-width="0"/><rect x="25.26" y="616.44" width="2.55" height="5.81" fill="#fffeff" stroke-width="0"/><rect x="13.26" y="626.12" width="2.55" height="5.81" fill="#fffeff" stroke-width="0"/><rect x="17.26" y="626.12" width="2.55" height="5.81" fill="#fffeff" stroke-width="0"/><rect x="21.26" y="626.12" width="2.55" height="5.81" fill="#fffeff" stroke-width="0"/><rect x="25.26" y="626.12" width="2.55" height="5.81" fill="#fffeff" stroke-width="0"/><rect x="13.26" y="635.8" width="2.55" height="5.81" fill="#fffeff" stroke-width="0"/><rect x="17.26" y="635.8" width="2.55" height="5.81" fill="#fffeff" stroke-width="0"/><rect x="21.26" y="635.8" width="2.55" height="5.81" fill="#fffeff" stroke-width="0"/><rect x="25.26" y="635.8" width="2.55" height="5.81" fill="#fffeff" stroke-width="0"/><rect x="13.26" y="645.48" width="2.55" height="5.81" fill="#fffeff" stroke-width="0"/><rect x="17.26" y="645.48" width="2.55" height="5.81" fill="#fffeff" stroke-width="0"/><rect x="21.26" y="645.48" width="2.55" height="5.81" fill="#fffeff" stroke-width="0"/><rect x="25.26" y="645.48" width="2.55" height="5.81" fill="#fffeff" stroke-width="0"/><rect x="340.88" y="559.81" width="3.2" height="7.29" fill="#fffeff" stroke-width="0"/><rect x="345.9" y="559.81" width="3.2" height="7.29" fill="#fffeff" stroke-width="0"/><rect x="350.92" y="559.81" width="3.2" height="7.29" fill="#fffeff" stroke-width="0"/><rect x="355.95" y="559.81" width="3.2" height="7.29" fill="#fffeff" stroke-width="0"/><rect x="340.88" y="571.97" width="3.2" height="7.29" fill="#fffeff" stroke-width="0"/><rect x="345.9" y="571.97" width="3.2" height="7.29" fill="#fffeff" stroke-width="0"/><rect x="350.92" y="571.97" width="3.2" height="7.29" fill="#fffeff" stroke-width="0"/><rect x="355.95" y="571.97" width="3.2" height="7.29" fill="#fffeff" stroke-width="0"/><rect x="340.88" y="584.13" width="3.2" height="7.29" fill="#fffeff" stroke-width="0"/><rect x="345.9" y="584.13" width="3.2" height="7.29" fill="#fffeff" stroke-width="0"/><rect x="350.92" y="584.13" width="3.2" height="7.29" fill="#fffeff" stroke-width="0"/><rect x="355.95" y="584.13" width="3.2" height="7.29" fill="#fffeff" stroke-width="0"/><rect x="340.88" y="596.28" width="3.2" height="7.29" fill="#fffeff" stroke-width="0"/><rect x="345.9" y="596.28" width="3.2" height="7.29" fill="#fffeff" stroke-width="0"/><rect x="350.92" y="596.28" width="3.2" height="7.29" fill="#fffeff" stroke-width="0"/><rect x="355.95" y="596.28" width="3.2" height="7.29" fill="#fffeff" stroke-width="0"/><rect x="340.88" y="608.44" width="3.2" height="7.29" fill="#fffeff" stroke-width="0"/><rect x="345.9" y="608.44" width="3.2" height="7.29" fill="#fffeff" stroke-width="0"/><rect x="350.92" y="608.44" width="3.2" height="7.29" fill="#fffeff" stroke-width="0"/><rect x="355.95" y="608.44" width="3.2" height="7.29" fill="#fffeff" stroke-width="0"/><rect x="340.88" y="620.6" width="3.2" height="7.29" fill="#fffeff" stroke-width="0"/><rect x="345.9" y="620.6" width="3.2" height="7.29" fill="#fffeff" stroke-width="0"/><rect x="350.92" y="620.6" width="3.2" height="7.29" fill="#fffeff" stroke-width="0"/><rect x="355.95" y="620.6" width="3.2" height="7.29" fill="#fffeff" stroke-width="0"/><rect x="340.88" y="632.75" width="3.2" height="7.29" fill="#fffeff" stroke-width="0"/><rect x="345.9" y="632.75" width="3.2" height="7.29" fill="#fffeff" stroke-width="0"/><rect x="350.92" y="632.75" width="3.2" height="7.29" fill="#fffeff" stroke-width="0"/><rect x="355.95" y="632.75" width="3.2" height="7.29" fill="#fffeff" stroke-width="0"/><rect x="340.88" y="644.91" width="3.2" height="7.29" fill="#fffeff" stroke-width="0"/><rect x="345.9" y="644.91" width="3.2" height="7.29" fill="#fffeff" stroke-width="0"/><rect x="350.92" y="644.91" width="3.2" height="7.29" fill="#fffeff" stroke-width="0"/><rect x="355.95" y="644.91" width="3.2" height="7.29" fill="#fffeff" stroke-width="0"/><rect x="340.88" y="657.07" width="3.2" height="7.29" fill="#fffeff" stroke-width="0"/><rect x="345.9" y="657.07" width="3.2" height="7.29" fill="#fffeff" stroke-width="0"/><rect x="350.92" y="657.07" width="3.2" height="7.29" fill="#fffeff" stroke-width="0"/><rect x="355.95" y="657.07" width="3.2" height="7.29" fill="#fffeff" stroke-width="0"/><rect y="654.28" width="373.69" height="157.46" fill="#f38f91" stroke-width="0"/><polygon points="210.17 737.47 50.19 737.47 50.19 593.89 131.62 514.87 210.17 593.89 210.17 737.47" fill="#e2884b" stroke-width="0"/><polyline points="41.56 597.74 132.12 511.49 218.34 598.22" fill="none" stroke="#fff" stroke-linecap="round" stroke-linejoin="round" stroke-width="20"/><rect x="64.08" y="605.29" width="11.02" height="16.86" fill="#72b2cb" stroke-width="0"/><rect x="84.19" y="605.29" width="11.02" height="16.86" fill="#72b2cb" stroke-width="0"/><rect x="84.19" y="627.45" width="11.02" height="16.86" fill="#72b2cb" stroke-width="0"/><rect x="64.08" y="627.45" width="11.02" height="16.86" fill="#72b2cb" stroke-width="0"/><rect x="163.71" y="605.29" width="11.02" height="16.86" fill="#72b2cb" stroke-width="0"/><rect x="183.83" y="605.29" width="11.02" height="16.86" fill="#72b2cb" stroke-width="0"/><rect x="183.83" y="627.45" width="11.02" height="16.86" fill="#72b2cb" stroke-width="0"/><rect x="163.71" y="627.45" width="11.02" height="16.86" fill="#72b2cb" stroke-width="0"/><rect x="113.89" y="605.29" width="11.02" height="16.86" fill="#72b2cb" stroke-width="0"/><rect x="134.01" y="605.29" width="11.02" height="16.86" fill="#72b2cb" stroke-width="0"/><rect x="134.01" y="627.45" width="11.02" height="16.86" fill="#72b2cb" stroke-width="0"/><rect x="113.89" y="627.45" width="11.02" height="16.86" fill="#72b2cb" stroke-width="0"/><rect x="64.08" y="651.54" width="11.02" height="16.86" fill="#72b2cb" stroke-width="0"/><rect x="84.19" y="651.54" width="11.02" height="16.86" fill="#72b2cb" stroke-width="0"/><rect x="84.19" y="673.71" width="11.02" height="16.86" fill="#72b2cb" stroke-width="0"/><rect x="64.08" y="673.71" width="11.02" height="16.86" fill="#72b2cb" stroke-width="0"/><rect x="163.71" y="651.54" width="11.02" height="16.86" fill="#72b2cb" stroke-width="0"/><rect x="183.83" y="651.54" width="11.02" height="16.86" fill="#72b2cb" stroke-width="0"/><rect x="183.83" y="673.71" width="11.02" height="16.86" fill="#72b2cb" stroke-width="0"/><rect x="163.71" y="673.71" width="11.02" height="16.86" fill="#72b2cb" stroke-width="0"/><rect x="113.89" y="651.54" width="11.02" height="16.86" fill="#72b2cb" stroke-width="0"/><rect x="134.01" y="651.54" width="11.02" height="16.86" fill="#72b2cb" stroke-width="0"/><rect x="134.01" y="673.71" width="11.02" height="16.86" fill="#72b2cb" stroke-width="0"/><rect x="113.89" y="673.71" width="11.02" height="16.86" fill="#72b2cb" stroke-width="0"/><rect x="96.85" y="681.28" width="231.15" height="130.72" fill="#e4985c" stroke-width="0"/><polygon points="328 812 356.76 812 353.56 600.93 328 681.28 328 812" fill="#b2573b" stroke-width="0"/><polygon points="353.56 600.93 321.6 704.86 84.06 704.86 119.22 599.85 353.56 600.93" fill="#f4f9fb" stroke-width="0"/><polygon points="91.43 694.14 119.4 610.6 338.65 610.57 316.28 695.21 91.43 694.14" fill="#72b2cb" stroke-width="0"/><path d="M369.93,638.97l-16.37-39.11v40.71l15.32-.09c.8.04,1.37-.77,1.06-1.51Z" fill="#b2573b" stroke-width="0"/><line x1="132" y1="607.36" x2="105.37" y2="696.28" fill="none" stroke="#ebfeff" stroke-miterlimit="10" stroke-width="2"/><line x1="145.85" y1="608.43" x2="120.28" y2="696.28" fill="none" stroke="#ebfeff" stroke-miterlimit="10" stroke-width="2"/><line x1="160.76" y1="608.43" x2="135.19" y2="696.28" fill="none" stroke="#ebfeff" stroke-miterlimit="10" stroke-width="2"/><line x1="175.67" y1="608.43" x2="150.11" y2="696.28" fill="none" stroke="#ebfeff" stroke-miterlimit="10" stroke-width="2"/><line x1="190.58" y1="608.43" x2="165.02" y2="696.28" fill="none" stroke="#ebfeff" stroke-miterlimit="10" stroke-width="2"/><line x1="205.5" y1="608.43" x2="179.93" y2="696.28" fill="none" stroke="#ebfeff" stroke-miterlimit="10" stroke-width="2"/><line x1="220.41" y1="608.43" x2="194.84" y2="696.28" fill="none" stroke="#ebfeff" stroke-miterlimit="10" stroke-width="2"/><line x1="235.32" y1="608.43" x2="209.76" y2="696.28" fill="none" stroke="#ebfeff" stroke-miterlimit="10" stroke-width="2"/><line x1="250.24" y1="608.43" x2="224.67" y2="696.28" fill="none" stroke="#ebfeff" stroke-miterlimit="10" stroke-width="2"/><line x1="265.15" y1="608.43" x2="239.58" y2="696.28" fill="none" stroke="#ebfeff" stroke-miterlimit="10" stroke-width="2"/><line x1="280.06" y1="608.43" x2="254.5" y2="696.28" fill="none" stroke="#ebfeff" stroke-miterlimit="10" stroke-width="2"/><line x1="294.97" y1="608.43" x2="269.41" y2="696.28" fill="none" stroke="#ebfeff" stroke-miterlimit="10" stroke-width="2"/><line x1="309.89" y1="608.43" x2="284.32" y2="696.28" fill="none" stroke="#ebfeff" stroke-miterlimit="10" stroke-width="2"/><line x1="324.8" y1="608.43" x2="300.3" y2="696.28" fill="none" stroke="#ebfeff" stroke-miterlimit="10" stroke-width="2"/><line x1="334.39" y1="637.36" x2="106.43" y2="637.36" fill="none" stroke="#ebfeff" stroke-miterlimit="10" stroke-width="2"/><line x1="326.93" y1="663.07" x2="100.04" y2="663.07" fill="none" stroke="#ebfeff" stroke-miterlimit="10" stroke-width="2"/><rect x="121.88" y="704.86" width="77.91" height="107.05" fill="#b2573b" stroke-width="0"/><rect x="127.25" y="709.22" width="67.16" height="102.68" fill="#f07b31" stroke-width="0"/><ellipse cx="185.01" cy="767.31" rx="4.03" ry="4.05" fill="#b2573b" stroke-width="0"/><path d="M230.44,99.07l-26.84,27c-15.93,15.8-19.66,19.8-39.57-.01l-26.89-27.05c-10.91-10.97-10.91-28.75,0-39.73h0c11.55-11.62,30.28-11.62,41.83,0l3.68,3.71c.64.65,1.69.65,2.34,0l4.78-4.82c10.9-10.96,28.58-10.96,39.48,0l1.19,1.2c10.9,10.96,10.9,28.74,0,39.71Z" fill="url(#linear-gradient-3)" stroke-width="0"/><path d="M199.28,106.01c-.06,0-.12,0-.18,0-.83-.08-1.52-.7-1.69-1.52l-4.59-22.01-7.47,13.96c-.33.62-.98,1.01-1.68,1.01h-24.02c-.75,0-1.43-.44-1.74-1.12l-.87-1.9-2.56,7.48c-.26.76-.97,1.28-1.77,1.3-.81.02-1.53-.47-1.82-1.22l-4.35-11.09-3.04,5.8c-.33.63-.98,1.03-1.69,1.03h-21.91c-1.06,0-1.91-.86-1.91-1.93s.86-1.93,1.91-1.93h20.75l4.44-8.49c.35-.67,1.05-1.07,1.8-1.03.75.04,1.4.52,1.68,1.22l3.98,10.14,2.42-7.09c.25-.74.93-1.26,1.71-1.3.78-.04,1.51.4,1.83,1.12l2.35,5.14h21.66l9.42-17.58c.38-.71,1.16-1.11,1.96-.99.8.12,1.43.72,1.6,1.51l4.4,21.13,3.22-7.71c.28-.66.9-1.12,1.62-1.17.71-.06,1.4.29,1.78.91l2.05,3.34h4.22l3.85-11.46c.26-.78.98-1.3,1.8-1.31.82,0,1.55.51,1.82,1.29l3.78,10.8h15.76c1.06,0,1.91.86,1.91,1.93s-.86,1.93-1.91,1.93h-17.12c-.81,0-1.54-.52-1.81-1.29l-2.39-6.82-2.52,7.49c-.26.78-.99,1.31-1.81,1.31h-6.66c-.66,0-1.28-.35-1.63-.91l-.66-1.08-4.16,9.95c-.3.72-1,1.18-1.76,1.18Z" fill="#f2f2f2" stroke-width="0"/><path d="M376,376.39c-.76.44-1.53.84-2.31,1.2-13.98,6.66-30.7,2.33-39.77-10.16-6.54,8.72-12.38,17.83-17.91,26.47-.65,1-1.91,1.36-2.96.89-.11-.05-.22-.11-.32-.18-1.1-.71-1.42-2.19-.72-3.3,2.67-4.16,5.41-8.44,8.26-12.73-10.21-5.9-16.18-16.78-16.18-28.14,0-4.43.9-8.92,2.81-13.22,13.15,5.91,20.43,19.59,18.9,33.26,4.32-6.12,8.93-12.16,13.97-17.83-9.3-6.06-14.69-16.43-14.69-27.23,0-4.42.89-8.91,2.8-13.21,13.1,5.88,20.37,19.45,18.93,33.06,3.19-3.11,6.54-6.05,10.09-8.75,1.83-1.41,3.71-2.75,5.65-4.03,1.19-.79,2.47-1.59,3.83-2.31,2.17-2.47,4.63-4.54,7.3-6.18v11.87c-1.35-.58-2.68-1.25-3.97-2.03-1.58.74-3.1,1.68-4.56,2.64-1.69,1.11-3.33,2.28-4.94,3.5-.67.51-1.32,1.02-1.97,1.54.87-.34,1.75-.64,2.63-.89,2.95-.87,5.98-1.3,9.01-1.3,1.27,0,2.53.07,3.79.23v19.16c-8.24-.89-16.1-4.94-21.66-11.85-2.67,2.49-5.23,5.11-7.68,7.82-.05.12-.1.25-.15.36-.04,0-.08-.04-.13-.05-1.92,2.13-3.78,4.31-5.59,6.54,3.12-.97,6.33-1.45,9.51-1.45,9.85,0,19.47,4.54,25.69,12.79.83,1.1,1.6,2.27,2.31,3.5Z" fill="url(#linear-gradient-4)" stroke-width="0"/><ellipse cx="332.02" cy="185.82" rx="36.83" ry="37.05" fill="url(#linear-gradient-5)" stroke-width="0"/><rect x="326.29" y="116.63" width="11.47" height="23.42" rx="5.73" ry="5.73" fill="url(#linear-gradient-6)" stroke-width="0"/><rect x="326.29" y="231.61" width="11.47" height="23.42" rx="5.73" ry="5.73" fill="url(#linear-gradient-7)" stroke-width="0"/><rect x="269.1" y="174.19" width="11.53" height="23.28" rx="5.75" ry="5.75" transform="translate(460.69 -89.04) rotate(90)" fill="url(#linear-gradient-8)" stroke-width="0"/><path d="M373.69,136.02v16.04l-1.38,1.39c-2.24,2.25-5.86,2.25-8.1,0-2.25-2.25-2.25-5.9,0-8.16l8.35-8.4c.35-.35.73-.65,1.13-.88Z" fill="url(#linear-gradient-9)" stroke-width="0"/><path d="M283.38,234.75h0c-2.24-2.25-2.24-5.9,0-8.15l8.35-8.4c2.24-2.25,5.87-2.25,8.11,0h0c2.24,2.25,2.24,5.9,0,8.15l-8.35,8.4c-2.24,2.25-5.87,2.25-8.11,0Z" fill="url(#linear-gradient-10)" stroke-width="0"/><path d="M373.69,219.59v16.04c-.41-.24-.79-.53-1.13-.88l-8.35-8.4c-2.25-2.26-2.25-5.91,0-8.16,2.24-2.26,5.86-2.26,8.1,0l1.38,1.39Z" fill="url(#linear-gradient-11)" stroke-width="0"/><path d="M283.38,136.9h0c2.24-2.25,5.87-2.25,8.11,0l8.35,8.4c2.24,2.25,2.24,5.9,0,8.15h0c-2.24,2.25-5.87,2.25-8.11,0l-8.35-8.4c-2.24-2.25-2.24-5.9,0-8.15Z" fill="url(#linear-gradient-12)" stroke-width="0"/><path d="M20.39,237.78h0c-.91,4.35-2.82,8.37-5.95,11.52-4.05,4.08-9.14,6.46-14.42,7.14v-75.8l9.31,17.93c2.47,4.77,5.85,11.1,8.31,16.49,3.04,6.72,4.36,15.22,2.76,22.71Z" fill="url(#radial-gradient)" stroke-width="0"/><path d="M28.66,201.02h0c-6.21-5.69-6.48-16.25-3.32-23.73,1.54-3.66,3.69-8.35,5.26-11.75l5.93-12.85c.85-1.83,3.4-1.95,4.41-.21l7.09,12.24c1.88,3.24,4.43,7.53,6.31,11.22,3.69,7.23,4.53,17.7-1.13,23.94h0c-6.46,7.13-17.45,7.64-24.55,1.14Z" fill="url(#radial-gradient-2)" stroke-width="0"/><path d="M41.35,340.97c-.03,1.61-.15,3.23-.36,4.86-2.65,21.1-19.24,37.03-39.31,39.6-.56.08-1.12.14-1.68.18v-91.02c.54.04,1.08.1,1.62.17,19.28,2.45,34.22,16.73,38.49,34.7.46,1.92.8,3.89.99,5.88.2,1.86.28,3.74.24,5.64Z" fill="#ffce84" stroke-width="0"/><path d="M35.69,345.15C33.32,364.14,18.16,378.36,0,380.21v-80.23c.32.02.63.06.94.1,15.64,1.99,28.04,12.8,32.87,26.83.6,1.74,1.08,3.53,1.44,5.36.33,1.69.56,3.41.67,5.15.17,2.54.1,5.13-.23,7.74Z" fill="#db9b5f" stroke-width="0"/><path d="M30.57,344.5c-2.06,16.35-14.99,28.66-30.57,30.48v-69.79c.1.01.2.02.3.03,12.47,1.59,22.58,9.62,27.42,20.34.74,1.6,1.34,3.25,1.82,4.96.44,1.55.77,3.15.98,4.77.42,2.99.45,6.08.05,9.21Z" fill="#ffce84" stroke-width="0"/><path d="M60.85,368.97c-2.68,21.3-22.02,36.39-43.2,33.69-6.6-.84-12.59-3.31-17.64-6.95v-63.23c7.64-5.52,17.29-8.25,27.35-6.97.12.02.25.03.37.05,2.1.28,4.13.74,6.09,1.34,2.2.67,4.3,1.53,6.3,2.55,14.08,7.26,22.84,22.82,20.73,39.52Z" fill="#ffce84" stroke-width="0"/><path d="M56.34,368.39c-2.37,18.8-19.44,32.12-38.13,29.74-7.02-.89-13.27-3.87-18.21-8.24v-51.61c7.09-6.24,16.7-9.52,26.77-8.24.93.12,1.86.27,2.76.48,1.98.4,3.89.99,5.71,1.74,2.07.82,4.03,1.85,5.85,3.07,10.6,6.94,16.94,19.57,15.24,33.06Z" fill="#db9b5f" stroke-width="0"/><path d="M51.98,367.84c-2.06,16.37-16.94,27.98-33.22,25.9-6.71-.85-12.61-3.89-17.08-8.32-.59-.57-1.15-1.18-1.68-1.8v-39.09c6.29-7.31,15.98-11.42,26.23-10.12,1.47.19,2.9.48,4.29.87,1.89.53,3.7,1.24,5.4,2.12,1.95.98,3.77,2.18,5.43,3.56,7.63,6.3,11.97,16.28,10.63,26.87Z" fill="#ffce84" stroke-width="0"/><rect x="0" y="0" width="373.69" height="811.74" fill="none" stroke-width="0"/></g></g></svg>