<?xml version="1.0" encoding="UTF-8"?><svg id="Layer_2" xmlns="http://www.w3.org/2000/svg" xmlns:xlink="http://www.w3.org/1999/xlink" viewBox="0 0 1280 1080"><defs><linearGradient id="linear-gradient" x1="654.15" y1="859.13" x2="626.84" y2="1093.04" gradientUnits="userSpaceOnUse"><stop offset=".46" stop-color="#388da0"/><stop offset=".79" stop-color="#43a8c3"/></linearGradient><linearGradient id="linear-gradient-2" x1="612.52" y1="476.17" x2="612.52" y2="589.73" gradientUnits="userSpaceOnUse"><stop offset="0" stop-color="#474f7d"/><stop offset=".29" stop-color="#434a77"/><stop offset=".66" stop-color="#393f67"/><stop offset="1" stop-color="#2d3053"/></linearGradient><linearGradient id="linear-gradient-3" x1="221.1" y1="545.09" x2="497.69" y2="545.09" xlink:href="#linear-gradient-2"/><linearGradient id="linear-gradient-4" x1="403.26" y1="910.29" x2="762.47" y2="910.29" gradientUnits="userSpaceOnUse"><stop offset="0" stop-color="#d14c3e"/><stop offset=".07" stop-color="#dc5544"/><stop offset=".21" stop-color="#ef644e"/><stop offset=".36" stop-color="#fb6d54"/><stop offset=".51" stop-color="#ff7056"/><stop offset=".65" stop-color="#f96b53"/><stop offset=".82" stop-color="#e95f4a"/><stop offset="1" stop-color="#d14c3e"/></linearGradient><linearGradient id="linear-gradient-5" x1="191.44" y1="910.45" x2="468.03" y2="910.45" xlink:href="#linear-gradient-4"/><linearGradient id="linear-gradient-6" x1="598.45" y1="604.95" x2="598.45" y2="684.56" gradientUnits="userSpaceOnUse"><stop offset="0" stop-color="#5a7dce"/><stop offset=".34" stop-color="#5577c8"/><stop offset=".77" stop-color="#4967b9"/><stop offset="1" stop-color="#415cae"/></linearGradient><linearGradient id="linear-gradient-7" x1="225.78" y1="651.96" x2="489.12" y2="651.96" xlink:href="#linear-gradient-6"/><linearGradient id="linear-gradient-8" x1="396.12" y1="735.36" x2="747.2" y2="735.36" xlink:href="#linear-gradient-2"/><linearGradient id="linear-gradient-9" x1="189.1" y1="735.48" x2="459.43" y2="735.48" xlink:href="#linear-gradient-2"/><linearGradient id="linear-gradient-10" x1="588.14" y1="779.65" x2="585.8" y2="840.52" xlink:href="#linear-gradient-4"/><linearGradient id="linear-gradient-11" x1="223.83" y1="812.34" x2="480.74" y2="812.34" xlink:href="#linear-gradient-4"/><linearGradient id="linear-gradient-12" x1="929.47" y1="635.31" x2="930.64" y2="756.48" xlink:href="#linear-gradient-4"/><linearGradient id="linear-gradient-13" x1="643.54" y1="696.69" x2="846.1" y2="696.69" xlink:href="#linear-gradient-4"/><linearGradient id="linear-gradient-14" x1="776.94" y1="964.15" x2="1040.01" y2="964.15" xlink:href="#linear-gradient-2"/><linearGradient id="linear-gradient-15" x1="621.81" y1="964.27" x2="824.38" y2="964.27" xlink:href="#linear-gradient-2"/><linearGradient id="linear-gradient-16" x1="794.66" y1="774.88" x2="1045.12" y2="774.88" xlink:href="#linear-gradient-6"/><linearGradient id="linear-gradient-17" x1="646.97" y1="774.96" x2="839.82" y2="774.96" xlink:href="#linear-gradient-6"/><linearGradient id="linear-gradient-18" x1="771.72" y1="836.04" x2="1028.83" y2="836.04" xlink:href="#linear-gradient-4"/><linearGradient id="linear-gradient-19" x1="620.1" y1="836.12" x2="818.08" y2="836.12" xlink:href="#linear-gradient-4"/><linearGradient id="linear-gradient-20" x1="789.63" y1="892.35" x2="1033.98" y2="892.35" xlink:href="#linear-gradient-2"/><linearGradient id="linear-gradient-21" x1="645.54" y1="892.42" x2="833.69" y2="892.42" xlink:href="#linear-gradient-2"/><linearGradient id="linear-gradient-22" x1="1067.2" y1="809.26" x2="1261.93" y2="809.26" xlink:href="#linear-gradient-6"/><linearGradient id="linear-gradient-23" x1="952.37" y1="809.35" x2="1102.32" y2="809.35" xlink:href="#linear-gradient-6"/><linearGradient id="linear-gradient-24" x1="1051.12" y1="1007.33" x2="1245.85" y2="1007.33" xlink:href="#linear-gradient-2"/><linearGradient id="linear-gradient-25" x1="936.3" y1="1007.41" x2="1086.24" y2="1007.41" xlink:href="#linear-gradient-2"/><linearGradient id="linear-gradient-26" x1="1064.24" y1="867.23" x2="1249.63" y2="867.23" xlink:href="#linear-gradient-4"/><linearGradient id="linear-gradient-27" x1="954.91" y1="867.28" x2="1097.67" y2="867.28" xlink:href="#linear-gradient-4"/><linearGradient id="linear-gradient-28" x1="1047.25" y1="912.5" x2="1237.58" y2="912.5" xlink:href="#linear-gradient-2"/><linearGradient id="linear-gradient-29" x1="935.03" y1="912.56" x2="1081.57" y2="912.56" xlink:href="#linear-gradient-2"/><linearGradient id="linear-gradient-30" x1="1060.51" y1="954.18" x2="1241.38" y2="954.18" xlink:href="#linear-gradient-4"/><linearGradient id="linear-gradient-31" x1="953.86" y1="954.23" x2="1093.13" y2="954.23" xlink:href="#linear-gradient-4"/></defs><g id="Layer_1-2"><g opacity=".07"><rect width="1280" height="1080" fill="#f1ead6" stroke-width="0"/><path d="M1280,737.61v197.88c-9.82,1.23-19.69,1.73-28.57,2.65-30.97,3.21-61.94,6.42-92.91,9.63-124.85,12.93-249.7,25.87-374.55,38.8-158.4,16.41-317.52,32.85-476.6,25.43-31.59-1.47-63.58-3.97-93.39-14.54-29.81-10.57-57.58-30.18-71.81-58.43-24.48-48.6-.88-111.84,43.39-143.51,44.26-31.66,103.24-36.23,156.65-25.8,53.41,10.44,103.07,34.3,153.1,55.72,50.04,21.42,102.35,40.87,156.77,41.61,54.42.74,111.89-20.38,142.22-65.57,17.95-26.75,25.08-59.41,41.59-87.08,38.07-63.8,118.85-89.4,193.14-90.22,72.16-.8,146.17,17.9,203.09,62.26,19.23,14.98,35.01,32.16,47.88,51.17Z" fill="#efe2c2" stroke-width="0"/><path d="M1174.94,358.05c-21.91,57.45-81.94,94.9-143.13,100.95-61.19,6.04-122.54-15.41-174.6-48.13-42.22-26.54-81.19-61.19-129.65-72.92-44.93-10.88-92.28-.44-136.02,14.53-81.81,28-163.19,77.71-195.72,157.82-12.4,30.56-17.86,65.49-40.68,89.29-26.61,27.75-71.73,32.01-107.08,16.9-35.35-15.12-61.71-46.34-79.41-80.47-11.75-22.63-20.71-47.54-38.89-65.42-33.39-32.86-89.75-30.7-129.76-5.69v-96.55c7.49-9.59,15.68-18.64,24.53-27.01,48.8-46.18,116.83-71.37,183.93-68.11,52.61,2.55,103.39,21.63,156.01,23.88,102.92,4.4,204.93-63.41,240.71-160.02,14.73-39.8,19.47-84.06,43.25-119.22,4.34-6.42,9.23-12.37,14.58-17.88h331.97c.09.45.17.9.25,1.35,5.55,31.74-18.24,61.09-43.81,80.71-25.56,19.63-55.54,35.82-71.74,63.67-21.49,36.95-10.86,87.87,20.52,116.89,31.37,29.03,79.39,36.5,120.04,23.31,19.76-6.41,37.74-17.21,53.31-30.96,38.09-33.65,98.7-12.81,107.26,37.29,3.76,22,2.06,45.02-5.87,65.79Z" fill="#efe2c2" stroke-width="0"/><rect y="880.66" width="1280" height="199.34" fill="url(#linear-gradient)" stroke-width="0"/><path d="M432.92,477.06h320.36c21.44,0,38.85,17.41,38.85,38.85v58.02c0,21.44-17.41,38.85-38.85,38.85h-320.36v-135.71h0Z" fill="url(#linear-gradient-2)" stroke-width="0"/><path d="M497.69,526.5v37.17c0,27.16-22.02,49.17-49.18,49.17h-227.41v-13.54h110.62c17.95,0,32.5-11.55,32.5-29.5v-49.43c0-17.95-14.55-29.51-32.5-29.51h-110.62v-13.53h227.41c27.16,0,49.18,22.01,49.18,49.17Z" fill="url(#linear-gradient-3)" stroke-width="0"/><path d="M485.39,528.4v33.37c0,20.93-16.97,37.9-37.9,37.9h-213.22v-109.17h213.22c20.93,0,37.9,16.97,37.9,37.9Z" fill="#e6e6e6" stroke-width="0"/><rect x="234.27" y="497.44" width="202.37" height="3" fill="#d6d6d6" stroke-width="0"/><rect x="234.27" y="506.61" width="199.24" height="3" fill="#d6d6d6" stroke-width="0"/><rect x="262.59" y="519.5" width="206.05" height="3" fill="#d6d6d6" stroke-width="0"/><rect x="284.05" y="531.79" width="178.34" height="3" fill="#d6d6d6" stroke-width="0"/><rect x="234.27" y="552.47" width="198.85" height="3" fill="#d6d6d6" stroke-width="0"/><polygon points="468.26 565.53 468.25 568.53 432.92 568.48 364.22 568.39 234.27 568.21 234.27 565.21 364.22 565.39 432.92 565.48 468.26 565.53" fill="#d6d6d6" stroke-width="0"/><polygon points="460.14 577.82 460.13 580.82 432.92 580.78 362.22 580.68 234.27 580.5 234.27 577.5 363.21 577.68 432.92 577.78 460.14 577.82" fill="#d6d6d6" stroke-width="0"/><path d="M403.26,847.79h321.93c20.58,0,37.28,16.7,37.28,37.28v50.43c0,20.58-16.7,37.28-37.28,37.28h-321.93v-124.99h0Z" fill="url(#linear-gradient-4)" stroke-width="0"/><path d="M468.03,893.33v34.23c0,25.01-22.02,45.29-49.18,45.29h-227.41v-12.47h110.62c17.95,0,32.5-10.64,32.5-27.17v-45.53c0-16.53-14.55-27.18-32.5-27.18h-110.62v-12.46h227.41c27.16,0,49.18,20.27,49.18,45.29Z" fill="url(#linear-gradient-5)" stroke-width="0"/><path d="M455.73,895.08v30.73c0,19.28-16.97,34.91-37.9,34.91h-213.22v-100.55h213.22c20.93,0,37.9,15.63,37.9,34.91Z" fill="#e6e6e6" stroke-width="0"/><rect x="204.61" y="866.57" width="202.37" height="2.76" fill="#d6d6d6" stroke-width="0"/><rect x="204.61" y="875.01" width="199.24" height="2.76" fill="#d6d6d6" stroke-width="0"/><rect x="232.93" y="886.88" width="206.05" height="2.76" fill="#d6d6d6" stroke-width="0"/><rect x="254.39" y="898.2" width="178.34" height="2.76" fill="#d6d6d6" stroke-width="0"/><rect x="204.61" y="917.25" width="198.85" height="2.76" fill="#d6d6d6" stroke-width="0"/><polygon points="438.6 929.28 438.59 932.04 403.26 931.99 334.56 931.91 204.61 931.75 204.61 928.98 334.56 929.15 403.26 929.23 438.6 929.28" fill="#d6d6d6" stroke-width="0"/><polygon points="430.48 940.6 430.47 943.36 403.26 943.32 332.56 943.23 204.61 943.07 204.61 940.3 333.55 940.47 403.26 940.56 430.48 940.6" fill="#d6d6d6" stroke-width="0"/><path d="M427.45,610.7h312.48c16.29,0,29.52,13.23,29.52,29.52v23.26c0,16.29-13.23,29.52-29.52,29.52h-312.48v-82.29h0Z" fill="url(#linear-gradient-6)" stroke-width="0"/><path d="M489.12,640.69v22.54c0,16.47-20.96,29.81-46.82,29.81h-216.51v-8.21h105.32c17.09,0,30.94-7,30.94-17.89v-29.97c0-10.88-13.85-17.89-30.94-17.89h-105.32v-8.21h216.51c25.86,0,46.82,13.35,46.82,29.81Z" fill="url(#linear-gradient-7)" stroke-width="0"/><path d="M477.41,641.84v20.23c0,12.69-16.16,22.98-36.08,22.98h-203v-66.2h203c19.93,0,36.08,10.29,36.08,22.98Z" fill="#e6e6e6" stroke-width="0"/><rect x="238.32" y="623.07" width="192.67" height="1.82" fill="#d6d6d6" stroke-width="0"/><rect x="238.32" y="628.63" width="189.69" height="1.82" fill="#d6d6d6" stroke-width="0"/><rect x="265.28" y="636.44" width="196.17" height="1.82" fill="#d6d6d6" stroke-width="0"/><rect x="285.72" y="643.89" width="169.79" height="1.82" fill="#d6d6d6" stroke-width="0"/><rect x="238.32" y="656.43" width="189.32" height="1.82" fill="#d6d6d6" stroke-width="0"/><polygon points="461.1 664.35 461.09 666.17 427.45 666.14 362.05 666.09 238.32 665.98 238.32 664.16 362.05 664.27 427.45 664.32 461.1 664.35" fill="#d6d6d6" stroke-width="0"/><polygon points="453.37 671.8 453.36 673.62 427.45 673.6 360.14 673.54 238.32 673.43 238.32 671.61 361.08 671.72 427.45 671.78 453.37 671.8" fill="#d6d6d6" stroke-width="0"/><path d="M396.12,691.49h320.19c17.04,0,30.88,13.84,30.88,30.88v25.99c0,17.04-13.84,30.88-30.88,30.88h-320.19v-87.76h0Z" fill="url(#linear-gradient-8)" stroke-width="0"/><path d="M459.43,723.46v24.04c0,17.56-21.52,31.8-48.07,31.8h-222.26v-8.76h108.12c17.54,0,31.76-7.47,31.76-19.07v-31.96c0-11.61-14.22-19.08-31.76-19.08h-108.12v-8.75h222.26c26.55,0,48.07,14.23,48.07,31.8Z" fill="url(#linear-gradient-9)" stroke-width="0"/><path d="M447.41,724.69v21.58c0,13.53-16.59,24.51-37.04,24.51h-208.39v-70.59h208.39c20.46,0,37.04,10.97,37.04,24.51Z" fill="#e6e6e6" stroke-width="0"/><rect x="201.97" y="704.67" width="197.79" height="1.94" fill="#d6d6d6" stroke-width="0"/><rect x="201.97" y="710.6" width="194.73" height="1.94" fill="#d6d6d6" stroke-width="0"/><rect x="229.65" y="718.93" width="201.38" height="1.94" fill="#d6d6d6" stroke-width="0"/><rect x="250.63" y="726.88" width="174.3" height="1.94" fill="#d6d6d6" stroke-width="0"/><rect x="201.97" y="740.25" width="194.35" height="1.94" fill="#d6d6d6" stroke-width="0"/><polygon points="430.67 748.7 430.66 750.64 396.13 750.6 328.98 750.55 201.97 750.43 201.97 748.49 328.98 748.61 396.13 748.66 430.67 748.7" fill="#d6d6d6" stroke-width="0"/><polygon points="422.73 756.64 422.72 758.58 396.13 758.56 327.03 758.49 201.97 758.38 201.97 756.44 327.99 756.55 396.13 756.62 422.73 756.64" fill="#d6d6d6" stroke-width="0"/><path d="M420.58,776.56h306.5c14.98,0,27.15,12.17,27.15,27.15v17.08c0,14.98-12.17,27.15-27.15,27.15h-306.5v-71.38h0Z" fill="url(#linear-gradient-10)" stroke-width="0"/><path d="M480.74,802.56v19.55c0,14.28-20.45,25.86-45.68,25.86h-211.23v-7.12h102.75c16.67,0,30.19-6.07,30.19-15.51v-26c0-9.44-13.51-15.52-30.19-15.52h-102.75v-7.12h211.23c25.23,0,45.68,11.58,45.68,25.86Z" fill="url(#linear-gradient-11)" stroke-width="0"/><path d="M469.32,803.56v17.55c0,11.01-15.76,19.93-35.2,19.93h-198.05v-57.42h198.05c19.44,0,35.2,8.93,35.2,19.93Z" fill="#e6e6e6" stroke-width="0"/><rect x="236.07" y="787.28" width="187.97" height="1.58" fill="#d6d6d6" stroke-width="0"/><rect x="236.07" y="792.1" width="185.06" height="1.58" fill="#d6d6d6" stroke-width="0"/><rect x="262.37" y="798.88" width="191.39" height="1.58" fill="#d6d6d6" stroke-width="0"/><rect x="282.3" y="805.34" width="165.65" height="1.58" fill="#d6d6d6" stroke-width="0"/><rect x="236.07" y="816.22" width="184.7" height="1.58" fill="#d6d6d6" stroke-width="0"/><polygon points="453.41 823.09 453.4 824.67 420.58 824.64 356.77 824.6 236.07 824.5 236.07 822.92 356.77 823.02 420.58 823.06 453.41 823.09" fill="#d6d6d6" stroke-width="0"/><polygon points="445.86 829.55 445.85 831.13 420.58 831.11 354.91 831.06 236.07 830.96 236.07 829.39 355.83 829.48 420.58 829.53 445.86 829.55" fill="#d6d6d6" stroke-width="0"/><path d="M798.66,646.87h234.62c15.7,0,28.45,12.75,28.45,28.45v42.49c0,15.7-12.75,28.45-28.45,28.45h-234.62v-99.39h0Z" fill="url(#linear-gradient-12)" stroke-width="0"/><path d="M846.1,683.08v27.22c0,19.89-16.13,36.01-36.02,36.01h-166.55v-9.92h81.01c13.15,0,23.8-8.46,23.8-21.6v-36.2c0-13.15-10.66-21.61-23.8-21.61h-81.01v-9.91h166.55c19.89,0,36.02,16.12,36.02,36.01Z" fill="url(#linear-gradient-13)" stroke-width="0"/><path d="M837.09,684.47v24.44c0,15.33-12.43,27.76-27.76,27.76h-156.16v-79.95h156.16c15.33,0,27.76,12.43,27.76,27.76Z" fill="#e6e6e6" stroke-width="0"/><rect x="653.18" y="661.8" width="148.21" height="2.2" fill="#d6d6d6" stroke-width="0"/><rect x="653.18" y="668.51" width="145.92" height="2.2" fill="#d6d6d6" stroke-width="0"/><rect x="673.92" y="677.95" width="150.9" height="2.2" fill="#d6d6d6" stroke-width="0"/><rect x="689.64" y="686.95" width="130.61" height="2.2" fill="#d6d6d6" stroke-width="0"/><rect x="653.18" y="702.1" width="145.63" height="2.2" fill="#d6d6d6" stroke-width="0"/><polygon points="824.55 711.66 824.54 713.86 798.67 713.82 748.35 713.76 653.18 713.63 653.18 711.43 748.35 711.56 798.67 711.63 824.55 711.66" fill="#d6d6d6" stroke-width="0"/><polygon points="818.6 720.66 818.59 722.86 798.67 722.83 746.89 722.76 653.18 722.63 653.18 720.43 747.61 720.56 798.67 720.64 818.6 720.66" fill="#d6d6d6" stroke-width="0"/><path d="M776.94,918.38h235.77c15.07,0,27.3,12.23,27.3,27.3v36.94c0,15.07-12.23,27.3-27.3,27.3h-235.77v-91.54h0Z" fill="url(#linear-gradient-14)" stroke-width="0"/><path d="M824.38,951.73v25.07c0,18.32-16.13,33.17-36.02,33.17h-166.55v-9.13h81.01c13.15,0,23.8-7.79,23.8-19.9v-33.34c0-12.11-10.66-19.9-23.8-19.9h-81.01v-9.13h166.55c19.89,0,36.02,14.85,36.02,33.17Z" fill="url(#linear-gradient-15)" stroke-width="0"/><path d="M815.37,953.01v22.51c0,14.12-12.43,25.56-27.76,25.56h-156.16v-73.64h156.16c15.33,0,27.76,11.45,27.76,25.56Z" fill="#e6e6e6" stroke-width="0"/><rect x="631.46" y="932.13" width="148.21" height="2.02" fill="#d6d6d6" stroke-width="0"/><rect x="631.46" y="938.31" width="145.92" height="2.02" fill="#d6d6d6" stroke-width="0"/><rect x="652.2" y="947" width="150.9" height="2.02" fill="#d6d6d6" stroke-width="0"/><rect x="667.92" y="955.3" width="130.61" height="2.02" fill="#d6d6d6" stroke-width="0"/><rect x="631.46" y="969.25" width="145.63" height="2.02" fill="#d6d6d6" stroke-width="0"/><polygon points="802.83 978.06 802.82 980.08 776.95 980.05 726.63 979.99 631.46 979.87 631.46 977.84 726.63 977.96 776.95 978.02 802.83 978.06" fill="#d6d6d6" stroke-width="0"/><polygon points="796.88 986.35 796.87 988.37 776.95 988.34 725.17 988.28 631.46 988.16 631.46 986.13 725.89 986.25 776.95 986.32 796.88 986.35" fill="#d6d6d6" stroke-width="0"/><path d="M794.66,744.75h228.85c11.93,0,21.62,9.69,21.62,21.62v17.04c0,11.93-9.69,21.62-21.62,21.62h-228.85v-60.27h0Z" fill="url(#linear-gradient-16)" stroke-width="0"/><path d="M839.82,766.7v16.51c0,12.06-15.35,21.84-34.29,21.84h-158.57v-6.01h77.13c12.52,0,22.66-5.13,22.66-13.1v-21.95c0-7.97-10.15-13.1-22.66-13.1h-77.13v-6.01h158.57c18.94,0,34.29,9.77,34.29,21.84Z" fill="url(#linear-gradient-17)" stroke-width="0"/><path d="M831.25,767.55v14.82c0,9.29-11.83,16.83-26.43,16.83h-148.67v-48.48h148.67c14.59,0,26.43,7.54,26.43,16.83Z" fill="#e6e6e6" stroke-width="0"/><rect x="656.15" y="753.8" width="141.11" height="1.33" fill="#d6d6d6" stroke-width="0"/><rect x="656.15" y="757.87" width="138.92" height="1.33" fill="#d6d6d6" stroke-width="0"/><rect x="675.89" y="763.59" width="143.67" height="1.33" fill="#d6d6d6" stroke-width="0"/><rect x="690.86" y="769.05" width="124.35" height="1.33" fill="#d6d6d6" stroke-width="0"/><rect x="656.15" y="778.24" width="138.65" height="1.33" fill="#d6d6d6" stroke-width="0"/><polygon points="819.3 784.04 819.3 785.37 794.66 785.35 746.76 785.31 656.15 785.23 656.15 783.89 746.76 783.97 794.66 784.01 819.3 784.04" fill="#d6d6d6" stroke-width="0"/><polygon points="813.64 789.49 813.63 790.83 794.66 790.81 745.36 790.76 656.15 790.68 656.15 789.35 746.05 789.43 794.66 789.48 813.64 789.49" fill="#d6d6d6" stroke-width="0"/><path d="M771.72,803.91h234.5c12.48,0,22.62,10.13,22.62,22.62v19.04c0,12.48-10.13,22.62-22.62,22.62h-234.5v-64.27h0Z" fill="url(#linear-gradient-18)" stroke-width="0"/><path d="M818.08,827.32v17.6c0,12.86-15.76,23.29-35.2,23.29h-162.78v-6.41h79.18c12.85,0,23.26-5.47,23.26-13.97v-23.41c0-8.5-10.41-13.97-23.26-13.97h-79.18v-6.41h162.78c19.44,0,35.2,10.42,35.2,23.29Z" fill="url(#linear-gradient-19)" stroke-width="0"/><path d="M809.28,828.22v15.8c0,9.91-12.15,17.95-27.13,17.95h-152.62v-51.7h152.62c14.98,0,27.13,8.04,27.13,17.95Z" fill="#e6e6e6" stroke-width="0"/><rect x="629.53" y="813.56" width="144.85" height="1.42" fill="#d6d6d6" stroke-width="0"/><rect x="629.53" y="817.9" width="142.61" height="1.42" fill="#d6d6d6" stroke-width="0"/><rect x="649.8" y="824" width="147.49" height="1.42" fill="#d6d6d6" stroke-width="0"/><rect x="665.16" y="829.83" width="127.66" height="1.42" fill="#d6d6d6" stroke-width="0"/><rect x="629.53" y="839.62" width="142.33" height="1.42" fill="#d6d6d6" stroke-width="0"/><polygon points="797.01 845.81 797.01 847.23 771.72 847.2 722.54 847.16 629.53 847.08 629.53 845.65 722.54 845.74 771.72 845.78 797.01 845.81" fill="#d6d6d6" stroke-width="0"/><polygon points="791.2 851.63 791.2 853.05 771.72 853.03 721.11 852.98 629.53 852.9 629.53 851.48 721.82 851.56 771.72 851.61 791.2 851.63" fill="#d6d6d6" stroke-width="0"/><path d="M789.63,866.21h224.47c10.97,0,19.88,8.91,19.88,19.88v12.51c0,10.97-8.91,19.88-19.88,19.88h-224.47v-52.27h0Z" fill="url(#linear-gradient-20)" stroke-width="0"/><path d="M833.69,885.26v14.32c0,10.46-14.98,18.94-33.45,18.94h-154.7v-5.22h75.25c12.21,0,22.11-4.45,22.11-11.36v-19.04c0-6.91-9.9-11.37-22.11-11.37h-75.25v-5.21h154.7c18.48,0,33.45,8.48,33.45,18.94Z" fill="url(#linear-gradient-21)" stroke-width="0"/><path d="M825.32,885.99v12.85c0,8.06-11.54,14.6-25.78,14.6h-145.04v-42.05h145.04c14.24,0,25.78,6.54,25.78,14.6Z" fill="#e6e6e6" stroke-width="0"/><rect x="654.5" y="874.06" width="137.66" height="1.16" fill="#d6d6d6" stroke-width="0"/><rect x="654.5" y="877.6" width="135.53" height="1.16" fill="#d6d6d6" stroke-width="0"/><rect x="673.76" y="882.56" width="140.17" height="1.16" fill="#d6d6d6" stroke-width="0"/><rect x="688.36" y="887.29" width="121.32" height="1.16" fill="#d6d6d6" stroke-width="0"/><rect x="654.5" y="895.26" width="135.27" height="1.16" fill="#d6d6d6" stroke-width="0"/><polygon points="813.67 900.29 813.66 901.45 789.63 901.43 742.89 901.39 654.5 901.32 654.5 900.17 742.89 900.24 789.63 900.27 813.67 900.29" fill="#d6d6d6" stroke-width="0"/><polygon points="808.14 905.02 808.14 906.18 789.63 906.16 741.53 906.13 654.5 906.06 654.5 904.9 742.21 904.97 789.63 905.01 808.14 905.02" fill="#d6d6d6" stroke-width="0"/><path d="M1067.2,772.47h173.67c11.62,0,21.06,9.44,21.06,21.06v31.45c0,11.62-9.44,21.06-21.06,21.06h-173.67v-73.57h0Z" fill="url(#linear-gradient-22)" stroke-width="0"/><path d="M1102.32,799.28v20.15c0,14.72-11.94,26.66-26.66,26.66h-123.28v-7.34h59.97c9.73,0,17.62-6.26,17.62-15.99v-26.8c0-9.73-7.89-16-17.62-16h-59.97v-7.34h123.28c14.72,0,26.66,11.93,26.66,26.66Z" fill="url(#linear-gradient-23)" stroke-width="0"/><path d="M1095.65,800.31v18.09c0,11.35-9.2,20.55-20.55,20.55h-115.59v-59.18h115.59c11.35,0,20.55,9.2,20.55,20.55Z" fill="#e6e6e6" stroke-width="0"/><rect x="959.51" y="783.52" width="109.71" height="1.63" fill="#d6d6d6" stroke-width="0"/><rect x="959.51" y="788.49" width="108.01" height="1.63" fill="#d6d6d6" stroke-width="0"/><rect x="974.87" y="795.48" width="111.7" height="1.63" fill="#d6d6d6" stroke-width="0"/><rect x="986.5" y="802.14" width="96.68" height="1.63" fill="#d6d6d6" stroke-width="0"/><rect x="959.51" y="813.35" width="107.8" height="1.63" fill="#d6d6d6" stroke-width="0"/><polygon points="1086.36 820.43 1086.36 822.06 1067.2 822.03 1029.96 821.98 959.51 821.89 959.51 820.26 1029.96 820.36 1067.2 820.41 1086.36 820.43" fill="#d6d6d6" stroke-width="0"/><polygon points="1081.96 827.1 1081.95 828.72 1067.2 828.7 1028.88 828.65 959.51 828.55 959.51 826.92 1029.41 827.02 1067.2 827.07 1081.96 827.1" fill="#d6d6d6" stroke-width="0"/><path d="M1051.12,973.45h174.52c11.15,0,20.21,9.06,20.21,20.21v27.34c0,11.15-9.06,20.21-20.21,20.21h-174.52v-67.76h0Z" fill="url(#linear-gradient-24)" stroke-width="0"/><path d="M1086.24,998.13v18.56c0,13.56-11.94,24.55-26.66,24.55h-123.28v-6.76h59.97c9.73,0,17.62-5.77,17.62-14.73v-24.68c0-8.96-7.89-14.73-17.62-14.73h-59.97v-6.76h123.28c14.72,0,26.66,10.99,26.66,24.55Z" fill="url(#linear-gradient-25)" stroke-width="0"/><path d="M1079.57,999.08v16.66c0,10.45-9.2,18.92-20.55,18.92h-115.59v-54.51h115.59c11.35,0,20.55,8.47,20.55,18.92Z" fill="#e6e6e6" stroke-width="0"/><rect x="943.44" y="983.63" width="109.71" height="1.5" fill="#d6d6d6" stroke-width="0"/><rect x="943.44" y="988.2" width="108.01" height="1.5" fill="#d6d6d6" stroke-width="0"/><rect x="958.79" y="994.64" width="111.7" height="1.5" fill="#d6d6d6" stroke-width="0"/><rect x="970.42" y="1000.77" width="96.68" height="1.5" fill="#d6d6d6" stroke-width="0"/><rect x="943.44" y="1011.1" width="107.8" height="1.5" fill="#d6d6d6" stroke-width="0"/><polygon points="1070.28 1017.62 1070.28 1019.12 1051.13 1019.1 1013.88 1019.05 943.44 1018.96 943.44 1017.46 1013.88 1017.55 1051.13 1017.6 1070.28 1017.62" fill="#d6d6d6" stroke-width="0"/><polygon points="1065.88 1023.76 1065.88 1025.26 1051.13 1025.24 1012.8 1025.19 943.44 1025.1 943.44 1023.6 1013.34 1023.69 1051.13 1023.74 1065.88 1023.76" fill="#d6d6d6" stroke-width="0"/><path d="M1064.24,844.92h169.4c8.83,0,16,7.17,16,16v12.61c0,8.83-7.17,16-16,16h-169.4v-44.61h0Z" fill="url(#linear-gradient-26)" stroke-width="0"/><path d="M1097.67,861.17v12.22c0,8.93-11.37,16.16-25.38,16.16h-117.37v-4.45h57.09c9.26,0,16.77-3.8,16.77-9.7v-16.25c0-5.9-7.51-9.7-16.77-9.7h-57.09v-4.45h117.37c14.02,0,25.38,7.24,25.38,16.16Z" fill="url(#linear-gradient-27)" stroke-width="0"/><path d="M1091.32,861.8v10.97c0,6.88-8.76,12.46-19.56,12.46h-110.05v-35.89h110.05c10.8,0,19.56,5.58,19.56,12.46Z" fill="#e6e6e6" stroke-width="0"/><rect x="961.71" y="851.62" width="104.45" height=".99" fill="#d6d6d6" stroke-width="0"/><rect x="961.71" y="854.64" width="102.83" height=".99" fill="#d6d6d6" stroke-width="0"/><rect x="976.33" y="858.87" width="106.35" height=".99" fill="#d6d6d6" stroke-width="0"/><rect x="987.4" y="862.91" width="92.05" height=".99" fill="#d6d6d6" stroke-width="0"/><rect x="961.71" y="869.71" width="102.63" height=".99" fill="#d6d6d6" stroke-width="0"/><polygon points="1082.48 874 1082.47 874.99 1064.24 874.97 1028.78 874.94 961.71 874.89 961.71 873.9 1028.78 873.96 1064.24 873.99 1082.48 874" fill="#d6d6d6" stroke-width="0"/><polygon points="1078.29 878.04 1078.28 879.03 1064.24 879.02 1027.75 878.98 961.71 878.93 961.71 877.94 1028.26 878 1064.24 878.03 1078.29 878.04" fill="#d6d6d6" stroke-width="0"/><path d="M1047.25,888.71h173.58c9.24,0,16.74,7.5,16.74,16.74v14.09c0,9.24-7.5,16.74-16.74,16.74h-173.58v-47.57h0Z" fill="url(#linear-gradient-28)" stroke-width="0"/><path d="M1081.57,906.05v13.03c0,9.52-11.67,17.24-26.06,17.24h-120.49v-4.75h58.61c9.51,0,17.22-4.05,17.22-10.34v-17.33c0-6.29-7.71-10.34-17.22-10.34h-58.61v-4.74h120.49c14.39,0,26.06,7.72,26.06,17.24Z" fill="url(#linear-gradient-29)" stroke-width="0"/><path d="M1075.06,906.71v11.7c0,7.34-8.99,13.29-20.08,13.29h-112.97v-38.27h112.97c11.09,0,20.08,5.95,20.08,13.29Z" fill="#e6e6e6" stroke-width="0"/><rect x="942" y="895.86" width="107.22" height="1.05" fill="#d6d6d6" stroke-width="0"/><rect x="942" y="899.07" width="105.56" height="1.05" fill="#d6d6d6" stroke-width="0"/><rect x="957.01" y="903.59" width="109.17" height="1.05" fill="#d6d6d6" stroke-width="0"/><rect x="968.38" y="907.9" width="94.49" height="1.05" fill="#d6d6d6" stroke-width="0"/><rect x="942" y="915.15" width="105.36" height="1.05" fill="#d6d6d6" stroke-width="0"/><polygon points="1065.98 919.73 1065.98 920.78 1047.26 920.76 1010.86 920.73 942 920.67 942 919.62 1010.86 919.68 1047.26 919.71 1065.98 919.73" fill="#d6d6d6" stroke-width="0"/><polygon points="1061.68 924.04 1061.67 925.09 1047.26 925.07 1009.8 925.04 942 924.98 942 923.92 1010.32 923.99 1047.26 924.02 1061.68 924.04" fill="#d6d6d6" stroke-width="0"/><path d="M1060.51,934.83h166.15c8.12,0,14.72,6.6,14.72,14.72v9.26c0,8.12-6.6,14.72-14.72,14.72h-166.15v-38.69h0Z" fill="url(#linear-gradient-30)" stroke-width="0"/><path d="M1093.13,948.93v10.6c0,7.74-11.09,14.02-24.76,14.02h-114.51v-3.86h55.7c9.04,0,16.36-3.29,16.36-8.41v-14.09c0-5.12-7.33-8.41-16.36-8.41h-55.7v-3.86h114.51c13.68,0,24.76,6.28,24.76,14.02Z" fill="url(#linear-gradient-31)" stroke-width="0"/><path d="M1086.93,949.47v9.51c0,5.97-8.54,10.81-19.08,10.81h-107.36v-31.13h107.36c10.54,0,19.08,4.84,19.08,10.81Z" fill="#e6e6e6" stroke-width="0"/><rect x="960.49" y="940.64" width="101.9" height=".86" fill="#d6d6d6" stroke-width="0"/><rect x="960.49" y="943.26" width="100.32" height=".86" fill="#d6d6d6" stroke-width="0"/><rect x="974.75" y="946.93" width="103.75" height=".86" fill="#d6d6d6" stroke-width="0"/><rect x="985.55" y="950.44" width="89.8" height=".86" fill="#d6d6d6" stroke-width="0"/><rect x="960.49" y="956.33" width="100.13" height=".86" fill="#d6d6d6" stroke-width="0"/><polygon points="1078.31 960.06 1078.3 960.91 1060.51 960.9 1025.92 960.87 960.49 960.82 960.49 959.97 1025.92 960.02 1060.51 960.04 1078.31 960.06" fill="#d6d6d6" stroke-width="0"/><polygon points="1074.22 963.56 1074.21 964.42 1060.51 964.41 1024.91 964.38 960.49 964.33 960.49 963.47 1025.41 963.52 1060.51 963.55 1074.22 963.56" fill="#d6d6d6" stroke-width="0"/><path d="M320.52,268.37l-7.03-3.81c1.62-2.99,3.39-5.98,5.24-8.87l6.73,4.32c-1.75,2.72-3.41,5.53-4.94,8.35Z" fill="#f2f2f2" stroke-width="0"/><path d="M1217.38,669.73c-3.89-4.52-7.94-9.34-12.75-15.17l6.17-5.09c4.78,5.78,8.8,10.56,12.65,15.04l-6.07,5.22ZM1192.11,639.29c-4.21-5.16-8.34-10.2-12.51-15.22l6.15-5.11c4.19,5.04,8.33,10.1,12.55,15.27l-6.2,5.06ZM1166.89,609.09c-4.61-5.3-8.9-10.06-13.11-14.55l5.84-5.47c4.28,4.57,8.63,9.4,13.31,14.77l-6.04,5.25ZM1140.09,580.64c-4.8-4.6-9.67-8.98-14.48-13.02l5.14-6.13c4.95,4.15,9.95,8.65,14.87,13.37l-5.54,5.78ZM1110.27,555.69c-5.37-3.85-10.83-7.41-16.22-10.57l4.05-6.9c5.6,3.29,11.26,6.98,16.83,10.97l-4.66,6.5ZM1076.93,536.22c-5.96-2.7-12-5-17.96-6.86l2.38-7.64c6.27,1.96,12.62,4.38,18.88,7.21l-3.3,7.29ZM1040.33,524.9c-1.35-.23-2.73-.43-4.09-.62-4.65-.62-9.57-1.04-15.04-1.26l.33-7.99c5.73.23,10.89.67,15.78,1.32,1.45.19,2.91.41,4.34.65l-1.31,7.89ZM981.93,523.25l-.06-8c4.11-.03,8.31-.12,12.37-.21,2.44-.05,4.88-.1,7.33-.14l.13,8c-2.43.04-4.86.09-7.29.14-4.09.09-8.32.18-12.48.21ZM961.9,522.76c-7.37-.5-13.95-1.41-20.12-2.77l1.72-7.81c5.78,1.27,11.98,2.12,18.95,2.6l-.55,7.98ZM922.29,513.61c-6.09-2.72-12.07-6.14-17.78-10.15l4.6-6.54c5.28,3.71,10.81,6.87,16.44,9.39l-3.27,7.3ZM888.91,490.37c-4.71-4.65-9.2-9.79-13.35-15.29l6.38-4.82c3.92,5.19,8.16,10.04,12.59,14.42l-5.62,5.69ZM864.44,458.17c-.48-.84-.94-1.67-1.4-2.52-2.67-4.9-5.22-10.13-7.56-15.54l7.34-3.18c2.25,5.19,4.69,10.2,7.24,14.89.44.8.88,1.59,1.33,2.38l-6.95,3.96ZM848.33,421.36c-2.02-6.03-3.89-12.29-5.71-19.16l7.73-2.05c1.78,6.69,3.59,12.8,5.56,18.66l-7.59,2.54ZM837.97,382.85c-1.04-4.74-2.12-9.94-3.3-15.89l-.7-3.52,7.85-1.56.7,3.51c1.17,5.9,2.24,11.05,3.27,15.73l-7.81,1.72ZM538.46,347.83c-7.27-.09-14.43-1.5-20.72-4.06l3.02-7.41c5.37,2.19,11.52,3.39,17.8,3.47l-.1,8ZM559.18,344.5l-2.56-7.58c5.62-1.9,11.14-4.57,16.88-8.17l4.25,6.78c-6.27,3.94-12.35,6.87-18.56,8.97ZM829.8,344.36c-1.77-7.02-3.68-12.99-5.83-18.25l7.41-3.02c2.29,5.61,4.31,11.93,6.17,19.32l-7.76,1.96ZM500.32,331.15c-1.24-1.53-2.36-3.16-3.35-4.85-2.65-4.55-4.37-9.43-5.27-14.91l7.89-1.29c.74,4.5,2.14,8.49,4.29,12.18.78,1.34,1.67,2.63,2.65,3.84l-6.21,5.04ZM594.03,323.43l-5.17-6.1c5.14-4.36,10.12-9.05,14.32-13.08l.12-.11,5.44,5.87c-4.31,4.13-9.4,8.93-14.71,13.42ZM814.99,309.71c-1.38-1.88-2.87-3.68-4.42-5.35-2.55-2.75-5.46-5.33-8.65-7.67l4.74-6.45c3.59,2.64,6.87,5.55,9.77,8.67,1.76,1.89,3.44,3.93,5.01,6.06l-6.45,4.73ZM623.05,296.49l-5.37-5.93c5.76-5.22,10.72-9.28,15.59-12.8l4.68,6.49c-4.63,3.33-9.36,7.22-14.9,12.23ZM499.75,291.59l-7.93-1.03c.7-5.36,1.76-10.86,2.79-16.17.23-1.17.45-2.33.68-3.5l7.86,1.5c-.22,1.17-.45,2.35-.68,3.52-1.05,5.43-2.05,10.56-2.71,15.68ZM785.55,287.49c-5.24-2.27-11.17-4.34-18.13-6.35l2.21-7.69c7.29,2.1,13.54,4.29,19.1,6.69l-3.18,7.34ZM748.48,276.3c-6.07-1.44-12.6-2.96-19.13-4.3l1.6-7.84c6.64,1.36,13.24,2.9,19.38,4.36l-1.85,7.78ZM654.24,274.69l-3.28-7.3c.84-.38,1.68-.74,2.54-1.09,5.39-2.21,11.16-3.91,17.16-5.04l1.48,7.86c-5.46,1.03-10.71,2.57-15.6,4.58-.77.32-1.54.65-2.3.99ZM710.19,268.75c-6.9-.88-13.15-1.3-19.13-1.3l-.04-8h.04c6.31,0,12.9.45,20.13,1.36l-1.01,7.94ZM506.02,252.38l-7.98-.51c.1-1.62.16-3.2.16-4.7,0-4.63-.49-8.76-1.49-12.63-.08-.3-.16-.59-.24-.88l7.7-2.18c.1.35.19.7.29,1.06,1.18,4.53,1.75,9.32,1.75,14.64,0,1.67-.06,3.42-.17,5.21ZM336.94,244.69l-6.05-5.23c4.39-5.08,9.2-9.91,14.29-14.38l5.28,6.01c-4.81,4.22-9.36,8.8-13.51,13.6ZM365.69,219.44l-4.42-6.67c5.63-3.73,11.56-7.1,17.61-10.02l3.47,7.21c-5.73,2.76-11.34,5.95-16.67,9.48ZM487.96,217.99c-3.78-4.37-8.59-8.18-14.28-11.32l3.87-7c6.52,3.6,12.06,8,16.46,13.09l-6.05,5.24ZM400.15,202.86l-2.44-7.62c6.45-2.06,13.05-3.66,19.63-4.76l1.43,7.87-.12.02c-6.2,1.03-12.43,2.54-18.5,4.49ZM456.28,199.92c-5.98-1.52-12.27-2.42-18.69-2.69l.33-7.99c6.97.29,13.81,1.27,20.33,2.93l-1.97,7.75Z" fill="#f2f2f2" stroke-width="0"/><path d="M1237.6,692.06c-2.24-2.33-4.57-4.8-6.92-7.34l5.88-5.42c2.31,2.5,4.59,4.93,6.79,7.21l-5.76,5.55Z" fill="#f2f2f2" stroke-width="0"/><path d="M370.92,249.63c-2.01-10.89-6.18-21-12.06-29.85l6.89-14.1-14.19-14.41-13.79,7c-8.8-6.08-18.89-10.41-29.75-12.46l-4.86-14.7h-20.07l-4.87,14.85c-10.35,2.07-19.97,6.19-28.44,11.93l-14.61-6.62-15.44,15.7,7.56,14.12c-5.27,8.28-9.07,17.61-11.04,27.62l-15.45,6.01v22.19l15.72,4.71c2.1,9.75,5.93,18.84,11.18,26.91l-.25.24-6.8,15.51,15.45,15.69,14.52-8.03.16-.17c7.92,5.2,16.81,8.99,26.33,11.04v.55l5.98,15.85h21.84l4.68-16.11v-.23c9.96-2.11,19.23-6.13,27.43-11.66l14.84,7.49,14.19-14.41-7.34-14.91c5.77-8.64,9.9-18.48,11.99-29.08l15.19-5.18v-20.39l-15.01-5.08ZM293.5,247.76c8.9,0,16.12,7.49,16.12,16.72s-7.22,16.73-16.12,16.73-16.11-7.49-16.11-16.73,7.21-16.72,16.11-16.72Z" fill="#1b193d" stroke-width="0"/><path d="M293.5,193.68c-38.48,0-69.68,31.7-69.68,70.8s31.2,70.8,69.68,70.8,69.68-31.7,69.68-70.8-31.2-70.8-69.68-70.8ZM293.5,247.76c8.9,0,16.12,7.49,16.12,16.72s-7.22,16.73-16.12,16.73-16.11-7.49-16.11-16.73,7.21-16.72,16.11-16.72Z" fill="#719bca" stroke-width="0"/><path d="M293.5,198.97c-35.61,0-64.48,29.33-64.48,65.51s28.86,65.52,64.48,65.52,64.48-29.33,64.48-65.52-28.87-65.51-64.48-65.51ZM293.5,247.76c8.9,0,16.12,7.49,16.12,16.72s-7.22,16.73-16.12,16.73-16.11-7.49-16.11-16.73,7.21-16.72,16.11-16.72Z" fill="#414d77" stroke-width="0"/><path d="M293.5,212.44c-28.28,0-51.22,23.3-51.22,52.04s22.94,52.04,51.22,52.04,51.22-23.3,51.22-52.04-22.93-52.04-51.22-52.04ZM293.5,281.22c-8.9,0-16.11-7.49-16.11-16.73s7.21-16.72,16.11-16.72,16.12,7.49,16.12,16.72-7.22,16.73-16.12,16.73Z" fill="#2a2951" stroke-width="0"/><path d="M293.5,235.89c-15.22,0-27.56,12.8-27.56,28.59s12.34,28.6,27.56,28.6,27.57-12.81,27.57-28.6-12.34-28.59-27.57-28.59ZM293.5,281.22c-8.9,0-16.11-7.49-16.11-16.73s7.21-16.72,16.11-16.72,16.12,7.49,16.12,16.72-7.22,16.73-16.12,16.73Z" fill="#515382" stroke-width="0"/><path d="M561.29,338.11c-1.25-7.04-3.84-13.58-7.49-19.3l4.28-9.12-8.8-9.32-8.56,4.53c-5.46-3.93-11.72-6.73-18.46-8.06l-3.02-9.51h-12.45l-3.02,9.6c-6.42,1.34-12.39,4-17.65,7.72l-9.07-4.28-9.58,10.15,4.69,9.13c-3.27,5.35-5.63,11.39-6.85,17.86l-9.59,3.89v14.35l9.76,3.05c1.3,6.3,3.68,12.18,6.93,17.4l-.15.16-4.22,10.03,9.59,10.14,9.01-5.19.1-.11c4.91,3.36,10.43,5.81,16.34,7.14v.36l3.71,10.25h13.56l2.91-10.42v-.15c6.18-1.37,11.93-3.96,17.02-7.54l9.21,4.84,8.8-9.32-4.55-9.64c3.58-5.59,6.15-11.95,7.44-18.81l9.43-3.35v-13.18l-9.32-3.29ZM513.25,336.91c5.52,0,10.01,4.84,10.01,10.81s-4.48,10.82-10.01,10.82-10-4.84-10-10.82,4.48-10.81,10-10.81Z" fill="#1b193d" stroke-width="0"/><path d="M513.25,301.94c-23.88,0-43.24,20.5-43.24,45.78s19.36,45.78,43.24,45.78,43.24-20.5,43.24-45.78-19.36-45.78-43.24-45.78ZM513.25,336.91c5.52,0,10.01,4.84,10.01,10.81s-4.48,10.82-10.01,10.82-10-4.84-10-10.82,4.48-10.81,10-10.81Z" fill="#719bca" stroke-width="0"/><path d="M513.25,305.36c-22.1,0-40.01,18.97-40.01,42.36s17.91,42.37,40.01,42.37,40.02-18.97,40.02-42.37-17.92-42.36-40.02-42.36ZM513.25,336.91c5.52,0,10.01,4.84,10.01,10.81s-4.48,10.82-10.01,10.82-10-4.84-10-10.82,4.48-10.81,10-10.81Z" fill="#414d77" stroke-width="0"/><path d="M513.25,314.07c-17.55,0-31.79,15.07-31.79,33.65s14.23,33.65,31.79,33.65,31.79-15.06,31.79-33.65-14.23-33.65-31.79-33.65ZM513.25,358.54c-5.52,0-10-4.84-10-10.82s4.48-10.81,10-10.81,10.01,4.84,10.01,10.81-4.48,10.82-10.01,10.82Z" fill="#2a2951" stroke-width="0"/><path d="M513.25,329.23c-9.44,0-17.1,8.28-17.1,18.49s7.66,18.5,17.1,18.5,17.11-8.28,17.11-18.5-7.66-18.49-17.11-18.49ZM513.25,358.54c-5.52,0-10-4.84-10-10.82s4.48-10.81,10-10.81,10.01,4.84,10.01,10.81-4.48,10.82-10.01,10.82Z" fill="#515382" stroke-width="0"/><path d="M727.42,237.88c.38-9.4-1.11-18.54-4.19-26.92l8.07-10.51-8.69-14.46-12.27,3.41c-5.91-6.6-13.17-11.95-21.46-15.56l-1.2-13.07-16.01-3.51-6.59,11.49c-8.63-.09-17.06,1.66-24.86,4.95l-10.45-8.05-15.18,10.35,3.46,13.06c-5.71,5.96-10.44,13.05-13.84,21.03l-13.42,2.3-4.04,18.45,11.68,6.67c-.1,8.47,1.3,16.7,4.01,24.32l-.24.16-8.25,11.7,9.46,15.74,13.05-4.14.16-.11c5.37,5.71,11.77,10.41,18.99,13.78l-.1.46,1.88,14.22,17.43,3.82,6.67-12.57.04-.19c8.33-.01,16.46-1.73,24.01-4.9l10.48,8.82,13.94-9.5-3.14-13.68c6.17-6.17,11.27-13.63,14.86-22.08l13.06-1.65,3.71-16.95-11.05-6.85ZM666,222.79c7.1,1.56,11.5,9.05,9.81,16.72-1.68,7.68-8.81,12.65-15.91,11.09-7.1-1.56-11.49-9.04-9.81-16.73s8.8-12.64,15.9-11.08Z" fill="#f36148" stroke-width="0"/><path d="M675.86,177.84c-30.7-6.73-61.36,14.17-68.48,46.67-7.12,32.5,11.99,64.3,42.69,71.03,30.7,6.73,61.36-14.17,68.48-46.67,7.12-32.5-11.99-64.3-42.69-71.03ZM666,222.79c7.1,1.56,11.5,9.05,9.81,16.72-1.68,7.68-8.81,12.65-15.91,11.09-7.1-1.56-11.49-9.04-9.81-16.73s8.8-12.64,15.9-11.08Z" fill="#ed7366" stroke-width="0"/><path d="M674.89,182.24c-28.41-6.23-56.78,13.11-63.37,43.18-6.59,30.08,11.09,59.51,39.5,65.73,28.41,6.23,56.78-13.11,63.38-43.19s-11.1-59.5-39.5-65.73ZM666,222.79c7.1,1.56,11.5,9.05,9.81,16.72-1.68,7.68-8.81,12.65-15.91,11.09-7.1-1.56-11.49-9.04-9.81-16.73s8.8-12.64,15.9-11.08Z" fill="#ea6157" stroke-width="0"/><path d="M672.44,193.44c-22.56-4.95-45.11,10.42-50.34,34.3s8.82,47.27,31.38,52.22c22.57,4.95,45.1-10.41,50.34-34.3,5.24-23.89-8.81-47.27-31.38-52.22ZM659.91,250.6c-7.1-1.56-11.49-9.04-9.81-16.73s8.8-12.64,15.9-11.08,11.5,9.05,9.81,16.72c-1.68,7.68-8.81,12.65-15.91,11.09Z" fill="#f36148" stroke-width="0"/><path d="M668.17,212.93c-12.14-2.66-24.31,5.82-27.19,18.95s4.63,25.93,16.77,28.59c12.15,2.66,24.32-5.83,27.2-18.96,2.88-13.13-4.63-25.93-16.78-28.59ZM659.91,250.6c-7.1-1.56-11.49-9.04-9.81-16.73s8.8-12.64,15.9-11.08,11.5,9.05,9.81,16.72c-1.68,7.68-8.81,12.65-15.91,11.09Z" fill="#ed7366" stroke-width="0"/><path d="M506.3,195.13c.26-6.33-.74-12.48-2.82-18.13l5.43-7.08-5.85-9.74-8.26,2.3c-3.98-4.44-8.87-8.05-14.45-10.48l-.81-8.8-10.78-2.36-4.44,7.74c-5.81-.06-11.49,1.11-16.74,3.33l-7.04-5.42-10.22,6.97,2.33,8.79c-3.84,4.01-7.03,8.79-9.32,14.16l-9.03,1.55-2.72,12.42,7.87,4.49c-.07,5.7.88,11.24,2.7,16.37l-.16.11-5.56,7.88,6.37,10.6,8.79-2.79.11-.08c3.61,3.84,7.92,7.01,12.79,9.28l-.07.31,1.27,9.57,11.73,2.57,4.49-8.47.03-.13c5.61,0,11.08-1.17,16.16-3.3l7.05,5.94,9.39-6.4-2.11-9.21c4.16-4.16,7.59-9.17,10.01-14.86l8.79-1.11,2.5-11.41-7.44-4.61ZM464.95,184.97c4.78,1.05,7.74,6.09,6.61,11.26-1.13,5.17-5.93,8.52-10.71,7.47-4.78-1.05-7.74-6.09-6.6-11.26,1.13-5.17,5.93-8.51,10.71-7.46Z" fill="#f36148" stroke-width="0"/><path d="M471.58,154.71c-20.67-4.53-41.31,9.54-46.11,31.42s8.07,43.3,28.74,47.83c20.67,4.53,41.31-9.54,46.11-31.42,4.8-21.88-8.07-43.3-28.74-47.83ZM464.95,184.97c4.78,1.05,7.74,6.09,6.61,11.26-1.13,5.17-5.93,8.52-10.71,7.47-4.78-1.05-7.74-6.09-6.6-11.26,1.13-5.17,5.93-8.51,10.71-7.46Z" fill="#ed7366" stroke-width="0"/><path d="M470.93,157.67c-19.13-4.19-38.23,8.83-42.67,29.07-4.44,20.25,7.46,40.07,26.59,44.26s38.23-8.83,42.67-29.08c4.44-20.25-7.47-40.06-26.6-44.25ZM464.95,184.97c4.78,1.05,7.74,6.09,6.61,11.26-1.13,5.17-5.93,8.52-10.71,7.47-4.78-1.05-7.74-6.09-6.6-11.26,1.13-5.17,5.93-8.51,10.71-7.46Z" fill="#ea6157" stroke-width="0"/><path d="M469.28,165.21c-15.19-3.33-30.37,7.01-33.9,23.1-3.53,16.09,5.94,31.83,21.13,35.16,15.2,3.33,30.37-7.01,33.89-23.1,3.53-16.08-5.93-31.83-21.13-35.16ZM460.84,203.7c-4.78-1.05-7.74-6.09-6.6-11.26,1.13-5.17,5.93-8.51,10.71-7.46,4.78,1.05,7.74,6.09,6.61,11.26-1.13,5.17-5.93,8.52-10.71,7.47Z" fill="#f36148" stroke-width="0"/><path d="M466.4,178.33c-8.17-1.79-16.37,3.92-18.31,12.76-1.94,8.84,3.12,17.46,11.29,19.25,8.18,1.79,16.38-3.92,18.31-12.76,1.94-8.84-3.12-17.46-11.3-19.25ZM460.84,203.7c-4.78-1.05-7.74-6.09-6.6-11.26,1.13-5.17,5.93-8.51,10.71-7.46,4.78,1.05,7.74,6.09,6.61,11.26-1.13,5.17-5.93,8.52-10.71,7.47Z" fill="#ed7366" stroke-width="0"/></g></g></svg>