<?xml version="1.0" encoding="UTF-8"?><svg id="Layer_2" xmlns="http://www.w3.org/2000/svg" xmlns:xlink="http://www.w3.org/1999/xlink" viewBox="0 0 1280 1080"><defs><linearGradient id="linear-gradient" x1="436" y1="295.78" x2="789.42" y2="295.78" gradientUnits="userSpaceOnUse"><stop offset="0" stop-color="#57bf8c"/><stop offset="1" stop-color="#3aa068"/></linearGradient><linearGradient id="linear-gradient-2" x1="818.55" y1="791.26" x2="902.49" y2="791.26" xlink:href="#linear-gradient"/><linearGradient id="linear-gradient-3" x1="830.03" y1="958.23" x2="902.08" y2="958.23" gradientUnits="userSpaceOnUse"><stop offset="0" stop-color="#266d4f"/><stop offset="1" stop-color="#2e7d5d"/></linearGradient><linearGradient id="linear-gradient-4" x1="839.51" y1="997.1" x2="888.81" y2="997.1" xlink:href="#linear-gradient"/><linearGradient id="linear-gradient-5" x1="1089.75" y1="795.15" x2="1139.05" y2="795.15" xlink:href="#linear-gradient"/><linearGradient id="linear-gradient-6" x1="162.69" y1="860.05" x2="211.99" y2="860.05" xlink:href="#linear-gradient"/><linearGradient id="linear-gradient-7" x1="660.69" y1="839.72" x2="806.32" y2="839.72" xlink:href="#linear-gradient-3"/><linearGradient id="linear-gradient-8" x1="34.64" y1="657.97" x2="180.28" y2="657.97" xlink:href="#linear-gradient-3"/><linearGradient id="linear-gradient-9" x1="59.1" y1="961.74" x2="131.15" y2="961.74" xlink:href="#linear-gradient-3"/><linearGradient id="linear-gradient-10" x1="68.58" y1="1000.61" x2="117.88" y2="1000.61" xlink:href="#linear-gradient"/></defs><g id="Layer_1-2"><g opacity=".07"><rect width="1280" height="1080" fill="#9bdafd" stroke-width="0"/><rect x="489.53" y="192.13" width="95.12" height="440.38" transform="translate(1074.17 824.63) rotate(-180)" fill="#8fccf8" stroke-width="0"/><rect x="274.81" y="255.61" width="95.12" height="365.78" transform="translate(644.73 877) rotate(-180)" fill="#8fccf8" stroke-width="0"/><rect x="42.16" y="181.43" width="135.64" height="440.38" transform="translate(219.95 803.25) rotate(-180)" fill="#8fccf8" stroke-width="0"/><rect x="670.11" y="162.56" width="49.32" height="512.6" transform="translate(1389.54 837.73) rotate(-180)" fill="#8fccf8" stroke-width="0"/><polygon points="1193.68 233.72 1193.68 220.94 1045.52 220.94 1045.52 661.32 1146.79 661.32 1146.79 674.09 1241.91 674.09 1241.91 233.72 1193.68 233.72" fill="#8fccf8" stroke-width="0"/><rect x="742.52" y="202.45" width="135.64" height="440.38" transform="translate(1620.67 845.27) rotate(-180)" fill="#8fccf8" stroke-width="0"/><rect x="813.03" y="258.09" width="105.32" height="487.58" fill="#4f8cb8" stroke-width="0"/><rect x="932" y="166.42" width="105.32" height="487.58" fill="#4f8cb8" stroke-width="0"/><rect x="1062.67" y="207.38" width="150.17" height="487.58" fill="#4f8cb8" stroke-width="0"/><rect x="85.07" y="242.48" width="105.32" height="487.58" fill="#4f8cb8" stroke-width="0"/><rect x="568.74" y="100.11" width="54.61" height="567.54" fill="#4f8cb8" stroke-width="0"/><rect x="204.03" y="150.82" width="105.32" height="487.58" fill="#4f8cb8" stroke-width="0"/><rect x="334.71" y="191.78" width="150.17" height="487.58" fill="#4f8cb8" stroke-width="0"/><rect x="945.65" y="209.33" width="13.65" height="23.4" fill="#fffeff" stroke-width="0"/><rect x="967.1" y="209.33" width="13.65" height="23.4" fill="#fffeff" stroke-width="0"/><rect x="988.56" y="209.33" width="13.65" height="23.4" fill="#fffeff" stroke-width="0"/><rect x="1010.01" y="209.33" width="13.65" height="23.4" fill="#fffeff" stroke-width="0"/><rect x="945.65" y="248.34" width="13.65" height="23.4" fill="#fffeff" stroke-width="0"/><rect x="967.1" y="248.34" width="13.65" height="23.4" fill="#fffeff" stroke-width="0"/><rect x="988.56" y="248.34" width="13.65" height="23.4" fill="#fffeff" stroke-width="0"/><rect x="1010.01" y="248.34" width="13.65" height="23.4" fill="#fffeff" stroke-width="0"/><rect x="945.65" y="287.34" width="13.65" height="23.4" fill="#fffeff" stroke-width="0"/><rect x="967.1" y="287.34" width="13.65" height="23.4" fill="#fffeff" stroke-width="0"/><rect x="988.56" y="287.34" width="13.65" height="23.4" fill="#fffeff" stroke-width="0"/><rect x="1010.01" y="287.34" width="13.65" height="23.4" fill="#fffeff" stroke-width="0"/><rect x="945.65" y="326.35" width="13.65" height="23.4" fill="#fffeff" stroke-width="0"/><rect x="967.1" y="326.35" width="13.65" height="23.4" fill="#fffeff" stroke-width="0"/><rect x="988.56" y="326.35" width="13.65" height="23.4" fill="#fffeff" stroke-width="0"/><rect x="1010.01" y="326.35" width="13.65" height="23.4" fill="#fffeff" stroke-width="0"/><rect x="945.65" y="365.35" width="13.65" height="23.4" fill="#fffeff" stroke-width="0"/><rect x="967.1" y="365.35" width="13.65" height="23.4" fill="#fffeff" stroke-width="0"/><rect x="988.56" y="365.35" width="13.65" height="23.4" fill="#fffeff" stroke-width="0"/><rect x="1010.01" y="365.35" width="13.65" height="23.4" fill="#fffeff" stroke-width="0"/><rect x="945.65" y="404.36" width="13.65" height="23.4" fill="#fffeff" stroke-width="0"/><rect x="967.1" y="404.36" width="13.65" height="23.4" fill="#fffeff" stroke-width="0"/><rect x="988.56" y="404.36" width="13.65" height="23.4" fill="#fffeff" stroke-width="0"/><rect x="1010.01" y="404.36" width="13.65" height="23.4" fill="#fffeff" stroke-width="0"/><rect x="945.65" y="443.37" width="13.65" height="23.4" fill="#fffeff" stroke-width="0"/><rect x="967.1" y="443.37" width="13.65" height="23.4" fill="#fffeff" stroke-width="0"/><rect x="988.56" y="443.37" width="13.65" height="23.4" fill="#fffeff" stroke-width="0"/><rect x="1010.01" y="443.37" width="13.65" height="23.4" fill="#fffeff" stroke-width="0"/><rect x="945.65" y="482.37" width="13.65" height="23.4" fill="#fffeff" stroke-width="0"/><rect x="967.1" y="482.37" width="13.65" height="23.4" fill="#fffeff" stroke-width="0"/><rect x="988.56" y="482.37" width="13.65" height="23.4" fill="#fffeff" stroke-width="0"/><rect x="1010.01" y="482.37" width="13.65" height="23.4" fill="#fffeff" stroke-width="0"/><rect x="945.65" y="521.38" width="13.65" height="23.4" fill="#fffeff" stroke-width="0"/><rect x="967.1" y="521.38" width="13.65" height="23.4" fill="#fffeff" stroke-width="0"/><rect x="988.56" y="521.38" width="13.65" height="23.4" fill="#fffeff" stroke-width="0"/><rect x="1010.01" y="521.38" width="13.65" height="23.4" fill="#fffeff" stroke-width="0"/><rect x="826.68" y="277.59" width="13.65" height="23.4" fill="#fffeff" stroke-width="0"/><rect x="848.14" y="277.59" width="13.65" height="23.4" fill="#fffeff" stroke-width="0"/><rect x="869.59" y="277.59" width="13.65" height="23.4" fill="#fffeff" stroke-width="0"/><rect x="891.04" y="277.59" width="13.65" height="23.4" fill="#fffeff" stroke-width="0"/><rect x="826.68" y="316.6" width="13.65" height="23.4" fill="#fffeff" stroke-width="0"/><rect x="848.14" y="316.6" width="13.65" height="23.4" fill="#fffeff" stroke-width="0"/><rect x="869.59" y="316.6" width="13.65" height="23.4" fill="#fffeff" stroke-width="0"/><rect x="891.04" y="316.6" width="13.65" height="23.4" fill="#fffeff" stroke-width="0"/><rect x="826.68" y="355.6" width="13.65" height="23.4" fill="#fffeff" stroke-width="0"/><rect x="848.14" y="355.6" width="13.65" height="23.4" fill="#fffeff" stroke-width="0"/><rect x="869.59" y="355.6" width="13.65" height="23.4" fill="#fffeff" stroke-width="0"/><rect x="891.04" y="355.6" width="13.65" height="23.4" fill="#fffeff" stroke-width="0"/><rect x="826.68" y="394.61" width="13.65" height="23.4" fill="#fffeff" stroke-width="0"/><rect x="848.14" y="394.61" width="13.65" height="23.4" fill="#fffeff" stroke-width="0"/><rect x="869.59" y="394.61" width="13.65" height="23.4" fill="#fffeff" stroke-width="0"/><rect x="891.04" y="394.61" width="13.65" height="23.4" fill="#fffeff" stroke-width="0"/><rect x="826.68" y="433.62" width="13.65" height="23.4" fill="#fffeff" stroke-width="0"/><rect x="848.14" y="433.62" width="13.65" height="23.4" fill="#fffeff" stroke-width="0"/><rect x="869.59" y="433.62" width="13.65" height="23.4" fill="#fffeff" stroke-width="0"/><rect x="891.04" y="433.62" width="13.65" height="23.4" fill="#fffeff" stroke-width="0"/><rect x="826.68" y="472.62" width="13.65" height="23.4" fill="#fffeff" stroke-width="0"/><rect x="848.14" y="472.62" width="13.65" height="23.4" fill="#fffeff" stroke-width="0"/><rect x="869.59" y="472.62" width="13.65" height="23.4" fill="#fffeff" stroke-width="0"/><rect x="891.04" y="472.62" width="13.65" height="23.4" fill="#fffeff" stroke-width="0"/><rect x="826.68" y="511.63" width="13.65" height="23.4" fill="#fffeff" stroke-width="0"/><rect x="848.14" y="511.63" width="13.65" height="23.4" fill="#fffeff" stroke-width="0"/><rect x="869.59" y="511.63" width="13.65" height="23.4" fill="#fffeff" stroke-width="0"/><rect x="891.04" y="511.63" width="13.65" height="23.4" fill="#fffeff" stroke-width="0"/><rect x="826.68" y="550.63" width="13.65" height="23.4" fill="#fffeff" stroke-width="0"/><rect x="848.14" y="550.63" width="13.65" height="23.4" fill="#fffeff" stroke-width="0"/><rect x="869.59" y="550.63" width="13.65" height="23.4" fill="#fffeff" stroke-width="0"/><rect x="891.04" y="550.63" width="13.65" height="23.4" fill="#fffeff" stroke-width="0"/><rect x="826.68" y="589.64" width="13.65" height="23.4" fill="#fffeff" stroke-width="0"/><rect x="848.14" y="589.64" width="13.65" height="23.4" fill="#fffeff" stroke-width="0"/><rect x="869.59" y="589.64" width="13.65" height="23.4" fill="#fffeff" stroke-width="0"/><rect x="891.04" y="589.64" width="13.65" height="23.4" fill="#fffeff" stroke-width="0"/><rect x="369.81" y="222.98" width="13.65" height="23.4" fill="#fffeff" stroke-width="0"/><rect x="391.26" y="222.98" width="13.65" height="23.4" fill="#fffeff" stroke-width="0"/><rect x="412.72" y="222.98" width="13.65" height="23.4" fill="#fffeff" stroke-width="0"/><rect x="434.17" y="222.98" width="13.65" height="23.4" fill="#fffeff" stroke-width="0"/><rect x="369.81" y="261.99" width="13.65" height="23.4" fill="#fffeff" stroke-width="0"/><rect x="391.26" y="261.99" width="13.65" height="23.4" fill="#fffeff" stroke-width="0"/><rect x="412.72" y="261.99" width="13.65" height="23.4" fill="#fffeff" stroke-width="0"/><rect x="434.17" y="261.99" width="13.65" height="23.4" fill="#fffeff" stroke-width="0"/><rect x="369.81" y="300.99" width="13.65" height="23.4" fill="#fffeff" stroke-width="0"/><rect x="391.26" y="300.99" width="13.65" height="23.4" fill="#fffeff" stroke-width="0"/><rect x="412.72" y="300.99" width="13.65" height="23.4" fill="#fffeff" stroke-width="0"/><rect x="434.17" y="300.99" width="13.65" height="23.4" fill="#fffeff" stroke-width="0"/><rect x="369.81" y="340" width="13.65" height="23.4" fill="#fffeff" stroke-width="0"/><rect x="391.26" y="340" width="13.65" height="23.4" fill="#fffeff" stroke-width="0"/><rect x="412.72" y="340" width="13.65" height="23.4" fill="#fffeff" stroke-width="0"/><rect x="434.17" y="340" width="13.65" height="23.4" fill="#fffeff" stroke-width="0"/><rect x="369.81" y="379.01" width="13.65" height="23.4" fill="#fffeff" stroke-width="0"/><rect x="391.26" y="379.01" width="13.65" height="23.4" fill="#fffeff" stroke-width="0"/><rect x="412.72" y="379.01" width="13.65" height="23.4" fill="#fffeff" stroke-width="0"/><rect x="434.17" y="379.01" width="13.65" height="23.4" fill="#fffeff" stroke-width="0"/><rect x="369.81" y="418.01" width="13.65" height="23.4" fill="#fffeff" stroke-width="0"/><rect x="391.26" y="418.01" width="13.65" height="23.4" fill="#fffeff" stroke-width="0"/><rect x="412.72" y="418.01" width="13.65" height="23.4" fill="#fffeff" stroke-width="0"/><rect x="434.17" y="418.01" width="13.65" height="23.4" fill="#fffeff" stroke-width="0"/><rect x="369.81" y="457.02" width="13.65" height="23.4" fill="#fffeff" stroke-width="0"/><rect x="391.26" y="457.02" width="13.65" height="23.4" fill="#fffeff" stroke-width="0"/><rect x="412.72" y="457.02" width="13.65" height="23.4" fill="#fffeff" stroke-width="0"/><rect x="434.17" y="457.02" width="13.65" height="23.4" fill="#fffeff" stroke-width="0"/><rect x="369.81" y="496.03" width="13.65" height="23.4" fill="#fffeff" stroke-width="0"/><rect x="391.26" y="496.03" width="13.65" height="23.4" fill="#fffeff" stroke-width="0"/><rect x="412.72" y="496.03" width="13.65" height="23.4" fill="#fffeff" stroke-width="0"/><rect x="434.17" y="496.03" width="13.65" height="23.4" fill="#fffeff" stroke-width="0"/><rect x="369.81" y="535.03" width="13.65" height="23.4" fill="#fffeff" stroke-width="0"/><rect x="391.26" y="535.03" width="13.65" height="23.4" fill="#fffeff" stroke-width="0"/><rect x="412.72" y="535.03" width="13.65" height="23.4" fill="#fffeff" stroke-width="0"/><rect x="434.17" y="535.03" width="13.65" height="23.4" fill="#fffeff" stroke-width="0"/><rect x="578.49" y="125.47" width="13.65" height="23.4" fill="#fffeff" stroke-width="0"/><rect x="599.95" y="125.47" width="13.65" height="23.4" fill="#fffeff" stroke-width="0"/><rect x="578.49" y="164.47" width="13.65" height="23.4" fill="#fffeff" stroke-width="0"/><rect x="599.95" y="164.47" width="13.65" height="23.4" fill="#fffeff" stroke-width="0"/><rect x="578.49" y="203.48" width="13.65" height="23.4" fill="#fffeff" stroke-width="0"/><rect x="599.95" y="203.48" width="13.65" height="23.4" fill="#fffeff" stroke-width="0"/><rect x="578.49" y="242.48" width="13.65" height="23.4" fill="#fffeff" stroke-width="0"/><rect x="599.95" y="242.48" width="13.65" height="23.4" fill="#fffeff" stroke-width="0"/><rect x="578.49" y="281.49" width="13.65" height="23.4" fill="#fffeff" stroke-width="0"/><rect x="599.95" y="281.49" width="13.65" height="23.4" fill="#fffeff" stroke-width="0"/><rect x="578.49" y="320.5" width="13.65" height="23.4" fill="#fffeff" stroke-width="0"/><rect x="599.95" y="320.5" width="13.65" height="23.4" fill="#fffeff" stroke-width="0"/><rect x="578.49" y="359.5" width="13.65" height="23.4" fill="#fffeff" stroke-width="0"/><rect x="599.95" y="359.5" width="13.65" height="23.4" fill="#fffeff" stroke-width="0"/><rect x="578.49" y="398.51" width="13.65" height="23.4" fill="#fffeff" stroke-width="0"/><rect x="599.95" y="398.51" width="13.65" height="23.4" fill="#fffeff" stroke-width="0"/><rect x="578.49" y="437.52" width="13.65" height="23.4" fill="#fffeff" stroke-width="0"/><rect x="599.95" y="437.52" width="13.65" height="23.4" fill="#fffeff" stroke-width="0"/><rect x="215.74" y="172.27" width="13.65" height="23.4" fill="#fffeff" stroke-width="0"/><rect x="237.19" y="172.27" width="13.65" height="23.4" fill="#fffeff" stroke-width="0"/><rect x="258.64" y="172.27" width="13.65" height="23.4" fill="#fffeff" stroke-width="0"/><rect x="280.1" y="172.27" width="13.65" height="23.4" fill="#fffeff" stroke-width="0"/><rect x="215.74" y="211.28" width="13.65" height="23.4" fill="#fffeff" stroke-width="0"/><rect x="237.19" y="211.28" width="13.65" height="23.4" fill="#fffeff" stroke-width="0"/><rect x="258.64" y="211.28" width="13.65" height="23.4" fill="#fffeff" stroke-width="0"/><rect x="280.1" y="211.28" width="13.65" height="23.4" fill="#fffeff" stroke-width="0"/><rect x="215.74" y="250.29" width="13.65" height="23.4" fill="#fffeff" stroke-width="0"/><rect x="237.19" y="250.29" width="13.65" height="23.4" fill="#fffeff" stroke-width="0"/><rect x="258.64" y="250.29" width="13.65" height="23.4" fill="#fffeff" stroke-width="0"/><rect x="280.1" y="250.29" width="13.65" height="23.4" fill="#fffeff" stroke-width="0"/><rect x="215.74" y="289.29" width="13.65" height="23.4" fill="#fffeff" stroke-width="0"/><rect x="237.19" y="289.29" width="13.65" height="23.4" fill="#fffeff" stroke-width="0"/><rect x="258.64" y="289.29" width="13.65" height="23.4" fill="#fffeff" stroke-width="0"/><rect x="280.1" y="289.29" width="13.65" height="23.4" fill="#fffeff" stroke-width="0"/><rect x="215.74" y="328.3" width="13.65" height="23.4" fill="#fffeff" stroke-width="0"/><rect x="237.19" y="328.3" width="13.65" height="23.4" fill="#fffeff" stroke-width="0"/><rect x="258.64" y="328.3" width="13.65" height="23.4" fill="#fffeff" stroke-width="0"/><rect x="280.1" y="328.3" width="13.65" height="23.4" fill="#fffeff" stroke-width="0"/><rect x="215.74" y="367.3" width="13.65" height="23.4" fill="#fffeff" stroke-width="0"/><rect x="237.19" y="367.3" width="13.65" height="23.4" fill="#fffeff" stroke-width="0"/><rect x="258.64" y="367.3" width="13.65" height="23.4" fill="#fffeff" stroke-width="0"/><rect x="280.1" y="367.3" width="13.65" height="23.4" fill="#fffeff" stroke-width="0"/><rect x="215.74" y="406.31" width="13.65" height="23.4" fill="#fffeff" stroke-width="0"/><rect x="237.19" y="406.31" width="13.65" height="23.4" fill="#fffeff" stroke-width="0"/><rect x="258.64" y="406.31" width="13.65" height="23.4" fill="#fffeff" stroke-width="0"/><rect x="280.1" y="406.31" width="13.65" height="23.4" fill="#fffeff" stroke-width="0"/><rect x="215.74" y="445.32" width="13.65" height="23.4" fill="#fffeff" stroke-width="0"/><rect x="237.19" y="445.32" width="13.65" height="23.4" fill="#fffeff" stroke-width="0"/><rect x="258.64" y="445.32" width="13.65" height="23.4" fill="#fffeff" stroke-width="0"/><rect x="280.1" y="445.32" width="13.65" height="23.4" fill="#fffeff" stroke-width="0"/><rect x="215.74" y="484.32" width="13.65" height="23.4" fill="#fffeff" stroke-width="0"/><rect x="237.19" y="484.32" width="13.65" height="23.4" fill="#fffeff" stroke-width="0"/><rect x="258.64" y="484.32" width="13.65" height="23.4" fill="#fffeff" stroke-width="0"/><rect x="280.1" y="484.32" width="13.65" height="23.4" fill="#fffeff" stroke-width="0"/><rect x="98.72" y="267.84" width="13.65" height="23.4" fill="#fffeff" stroke-width="0"/><rect x="120.17" y="267.84" width="13.65" height="23.4" fill="#fffeff" stroke-width="0"/><rect x="141.62" y="267.84" width="13.65" height="23.4" fill="#fffeff" stroke-width="0"/><rect x="163.08" y="267.84" width="13.65" height="23.4" fill="#fffeff" stroke-width="0"/><rect x="98.72" y="306.84" width="13.65" height="23.4" fill="#fffeff" stroke-width="0"/><rect x="120.17" y="306.84" width="13.65" height="23.4" fill="#fffeff" stroke-width="0"/><rect x="141.62" y="306.84" width="13.65" height="23.4" fill="#fffeff" stroke-width="0"/><rect x="163.08" y="306.84" width="13.65" height="23.4" fill="#fffeff" stroke-width="0"/><rect x="98.72" y="345.85" width="13.65" height="23.4" fill="#fffeff" stroke-width="0"/><rect x="120.17" y="345.85" width="13.65" height="23.4" fill="#fffeff" stroke-width="0"/><rect x="141.62" y="345.85" width="13.65" height="23.4" fill="#fffeff" stroke-width="0"/><rect x="163.08" y="345.85" width="13.65" height="23.4" fill="#fffeff" stroke-width="0"/><rect x="98.72" y="384.86" width="13.65" height="23.4" fill="#fffeff" stroke-width="0"/><rect x="120.17" y="384.86" width="13.65" height="23.4" fill="#fffeff" stroke-width="0"/><rect x="141.62" y="384.86" width="13.65" height="23.4" fill="#fffeff" stroke-width="0"/><rect x="163.08" y="384.86" width="13.65" height="23.4" fill="#fffeff" stroke-width="0"/><rect x="98.72" y="423.86" width="13.65" height="23.4" fill="#fffeff" stroke-width="0"/><rect x="120.17" y="423.86" width="13.65" height="23.4" fill="#fffeff" stroke-width="0"/><rect x="141.62" y="423.86" width="13.65" height="23.4" fill="#fffeff" stroke-width="0"/><rect x="163.08" y="423.86" width="13.65" height="23.4" fill="#fffeff" stroke-width="0"/><rect x="98.72" y="462.87" width="13.65" height="23.4" fill="#fffeff" stroke-width="0"/><rect x="120.17" y="462.87" width="13.65" height="23.4" fill="#fffeff" stroke-width="0"/><rect x="141.62" y="462.87" width="13.65" height="23.4" fill="#fffeff" stroke-width="0"/><rect x="163.08" y="462.87" width="13.65" height="23.4" fill="#fffeff" stroke-width="0"/><rect x="98.72" y="501.88" width="13.65" height="23.4" fill="#fffeff" stroke-width="0"/><rect x="120.17" y="501.88" width="13.65" height="23.4" fill="#fffeff" stroke-width="0"/><rect x="141.62" y="501.88" width="13.65" height="23.4" fill="#fffeff" stroke-width="0"/><rect x="163.08" y="501.88" width="13.65" height="23.4" fill="#fffeff" stroke-width="0"/><rect x="98.72" y="540.88" width="13.65" height="23.4" fill="#fffeff" stroke-width="0"/><rect x="120.17" y="540.88" width="13.65" height="23.4" fill="#fffeff" stroke-width="0"/><rect x="141.62" y="540.88" width="13.65" height="23.4" fill="#fffeff" stroke-width="0"/><rect x="163.08" y="540.88" width="13.65" height="23.4" fill="#fffeff" stroke-width="0"/><rect x="98.72" y="579.89" width="13.65" height="23.4" fill="#fffeff" stroke-width="0"/><rect x="120.17" y="579.89" width="13.65" height="23.4" fill="#fffeff" stroke-width="0"/><rect x="141.62" y="579.89" width="13.65" height="23.4" fill="#fffeff" stroke-width="0"/><rect x="163.08" y="579.89" width="13.65" height="23.4" fill="#fffeff" stroke-width="0"/><rect x="1089.97" y="234.68" width="17.14" height="29.39" fill="#fffeff" stroke-width="0"/><rect x="1116.92" y="234.68" width="17.14" height="29.39" fill="#fffeff" stroke-width="0"/><rect x="1143.86" y="234.68" width="17.14" height="29.39" fill="#fffeff" stroke-width="0"/><rect x="1170.8" y="234.68" width="17.14" height="29.39" fill="#fffeff" stroke-width="0"/><rect x="1089.97" y="283.67" width="17.14" height="29.39" fill="#fffeff" stroke-width="0"/><rect x="1116.92" y="283.67" width="17.14" height="29.39" fill="#fffeff" stroke-width="0"/><rect x="1143.86" y="283.67" width="17.14" height="29.39" fill="#fffeff" stroke-width="0"/><rect x="1170.8" y="283.67" width="17.14" height="29.39" fill="#fffeff" stroke-width="0"/><rect x="1089.97" y="332.65" width="17.14" height="29.39" fill="#fffeff" stroke-width="0"/><rect x="1116.92" y="332.65" width="17.14" height="29.39" fill="#fffeff" stroke-width="0"/><rect x="1143.86" y="332.65" width="17.14" height="29.39" fill="#fffeff" stroke-width="0"/><rect x="1170.8" y="332.65" width="17.14" height="29.39" fill="#fffeff" stroke-width="0"/><rect x="1089.97" y="381.64" width="17.14" height="29.39" fill="#fffeff" stroke-width="0"/><rect x="1116.92" y="381.64" width="17.14" height="29.39" fill="#fffeff" stroke-width="0"/><rect x="1143.86" y="381.64" width="17.14" height="29.39" fill="#fffeff" stroke-width="0"/><rect x="1170.8" y="381.64" width="17.14" height="29.39" fill="#fffeff" stroke-width="0"/><rect x="1089.97" y="430.62" width="17.14" height="29.39" fill="#fffeff" stroke-width="0"/><rect x="1116.92" y="430.62" width="17.14" height="29.39" fill="#fffeff" stroke-width="0"/><rect x="1143.86" y="430.62" width="17.14" height="29.39" fill="#fffeff" stroke-width="0"/><rect x="1170.8" y="430.62" width="17.14" height="29.39" fill="#fffeff" stroke-width="0"/><rect x="1089.97" y="479.61" width="17.14" height="29.39" fill="#fffeff" stroke-width="0"/><rect x="1116.92" y="479.61" width="17.14" height="29.39" fill="#fffeff" stroke-width="0"/><rect x="1143.86" y="479.61" width="17.14" height="29.39" fill="#fffeff" stroke-width="0"/><rect x="1170.8" y="479.61" width="17.14" height="29.39" fill="#fffeff" stroke-width="0"/><rect x="1089.97" y="528.59" width="17.14" height="29.39" fill="#fffeff" stroke-width="0"/><rect x="1116.92" y="528.59" width="17.14" height="29.39" fill="#fffeff" stroke-width="0"/><rect x="1143.86" y="528.59" width="17.14" height="29.39" fill="#fffeff" stroke-width="0"/><rect x="1170.8" y="528.59" width="17.14" height="29.39" fill="#fffeff" stroke-width="0"/><rect x="1089.97" y="577.58" width="17.14" height="29.39" fill="#fffeff" stroke-width="0"/><rect x="1116.92" y="577.58" width="17.14" height="29.39" fill="#fffeff" stroke-width="0"/><rect x="1143.86" y="577.58" width="17.14" height="29.39" fill="#fffeff" stroke-width="0"/><rect x="1170.8" y="577.58" width="17.14" height="29.39" fill="#fffeff" stroke-width="0"/><rect x="1089.97" y="626.56" width="17.14" height="29.39" fill="#fffeff" stroke-width="0"/><rect x="1116.92" y="626.56" width="17.14" height="29.39" fill="#fffeff" stroke-width="0"/><rect x="1143.86" y="626.56" width="17.14" height="29.39" fill="#fffeff" stroke-width="0"/><rect x="1170.8" y="626.56" width="17.14" height="29.39" fill="#fffeff" stroke-width="0"/><path d="M609.29,114.79c-98.7,0-178.71,80.01-178.71,178.72s80.01,178.71,178.71,178.71,178.71-80.01,178.71-178.71-80.01-178.72-178.71-178.72ZM609.29,435.8c-78.59,0-142.29-63.71-142.29-142.29s63.7-142.3,142.29-142.3,142.29,63.71,142.29,142.3-63.71,142.29-142.29,142.29Z" fill="#c5f5f0" stroke-width="0"/><path d="M616.13,122.49c-97.59,0-176.71,79.12-176.71,176.72s79.12,176.71,176.71,176.71,176.71-79.12,176.71-176.71-79.12-176.72-176.71-176.72ZM616.13,439.91c-77.71,0-140.7-63-140.7-140.7s62.98-140.71,140.7-140.71,140.7,63,140.7,140.71-63,140.7-140.7,140.7Z" fill="#1b4c5c" stroke-width="0"/><path d="M612.71,119.07c-97.59,0-176.71,79.12-176.71,176.72s79.12,176.71,176.71,176.71,176.71-79.12,176.71-176.71-79.12-176.72-176.71-176.72ZM590.48,434.73c-19.34-3.07-37.38-10.08-53.25-20.19l53.25-53.24v73.43ZM633.16,362.12l53.42,53.42c-15.97,9.87-34.05,16.64-53.42,19.46v-72.88ZM590.48,156.83v144.12l-85.42,85.42c-20.62-24.48-33.05-56.08-33.05-90.58,0-70.15,51.32-128.3,118.47-138.96ZM719.17,387.78l-86.01-86.01v-145.21c68.01,9.9,120.25,68.46,120.25,139.23,0,35.17-12.91,67.33-34.24,91.99Z" fill="url(#linear-gradient)" stroke-width="0"/><path d="M462.93,759.75v-76.3l1.77-1.77-.78-.78.25-.25-1.24-1.24v-77.36l1.24-1.24-.78-.78.25-.25-.7-.7v-78.43l.7-.7-.7-.7v-.15l.17-.17-.17-.17v-79.49l.17-.17-.17-.17v-90.32h-6.92v5.65l-38.63,38.63-38.51-38.51v-5.77h-6.92v466.56h6.92v-49.09l.72.72,39.92-39.92,36.5,36.5v51.79h6.92v-51.87l1.77-1.77-1.77-1.77ZM456.01,672.51l-31.77-31.77,31.77-31.77v63.53ZM378.87,675.58v-69.68l34.84,34.84-34.84,34.84ZM378.87,445.24l33.78,33.78-33.78,33.78v-67.55ZM417.92,484.28l35.43,35.43-34.9,34.9-35.43-35.43,34.9-34.9ZM378.87,525.57l34.31,34.31-34.31,34.31v-68.62ZM383.55,600.04l34.9-34.9,35.43,35.43-34.9,34.9-35.43-35.43ZM456.01,592.18l-32.3-32.3,32.3-32.3v64.6ZM456.01,511.84l-32.83-32.83,32.83-32.83v65.66ZM456.01,364.79v66.72l-33.36-33.36,33.36-33.36ZM452.82,438.85l-34.9,34.9-35.43-35.43,34.9-34.9,35.43,35.43ZM412.12,398.15l-33.24,33.24v-66.49l33.24,33.24ZM378.87,756.98v-70.75l35.37,35.37-35.37,35.37ZM384.08,680.91l34.9-34.9,35.43,35.43-34.9,34.9-35.43-35.43ZM424.78,721.6l31.23-31.23v62.47l-31.23-31.23Z" fill="#1d4661" stroke-width="0"/><path d="M212.18,244.71c-.35-.35-.71-.71-1.06-1.06" fill="none" stroke-width="0"/><rect x="342.49" y="251.92" width="107.78" height="9.27" transform="translate(779.99 -18.73) rotate(111.42)" fill="#f4b25e" stroke-width="0"/><rect x="383.63" y="248.37" width="107.78" height="9.27" transform="translate(380.63 755.2) rotate(-113.58)" fill="#f4b25e" stroke-width="0"/><rect x="192.54" y="300.14" width="327.71" height="15.61" fill="#f7a165" stroke-width="0"/><polygon points="470.07 350.91 369.41 350.91 374.7 302.57 464.77 302.57 470.07 350.91" fill="#f1a965" stroke-width="0"/><polygon points="421.03 203.44 205.71 300.06 197.2 300.12 419.18 199.38 421.03 203.44" fill="#1d4661" stroke-width="0"/><path d="M203.89,579.65c0,10.04-3.57,18.19-7.99,18.19-2.38,0-4.51-2.37-5.97-6.14-.41-1.06.4-2.22.98-1.4,1.22,1.73,2.67,2.73,4.21,2.73,4.41,0,7.98-8.13,7.98-18.17,0-1.35-.06-2.68-.19-3.95.62,2.6.98,5.57.98,8.75Z" fill="#f1a965" stroke-width="0"/><rect x="201.05" y="312.51" width="3.19" height="271.85" fill="#1d4661" stroke-width="0"/><path d="M882.06,761.62l2.36,2.36v69.23s9.23,0,9.23,0v-69.12s48.71-48.71,48.71-48.71l53.28,53.28.96-.96v65.52s9.23,0,9.23,0V210.52s-9.23,0-9.23,0v7.7s-51.4,51.4-51.4,51.4l-51.55-51.55v-7.55s-9.23,0-9.23,0v120.54s-.23.23-.23.23l.23.23v106.09s-.23.23-.23.23l.23.23v.2l-.94.94.94.94v104.67s-.94.94-.94.94l.33.33-1.04,1.04,1.65,1.65v103.25s-1.65,1.65-1.65,1.65l.33.33-1.04,1.04,2.36,2.36v101.83s-2.36,2.36-2.36,2.36ZM893.65,558.02l42.4,42.4-42.4,42.4v-84.79ZM950.1,600.42l46.5-46.5v93s-46.5-46.5-46.5-46.5ZM996.6,429.65l-45.08-45.08,45.08-45.08v90.16ZM991.07,438.18l-47.29,47.29-46.58-46.58,47.29-47.29,46.58,46.58ZM996.6,538.28l-45.79-45.79,45.79-45.79v91.58ZM943.07,593.39l-46.58-46.58,47.29-47.29,46.58,46.58-47.29,47.29ZM893.65,449.39l43.11,43.11-43.11,43.11v-86.21ZM893.65,340.76l43.82,43.82-43.82,43.82v-87.63ZM938.17,276.65l-44.53,44.53v-89.05s44.53,44.53,44.53,44.53ZM945.2,283.68l46.58,46.58-47.29,47.29-46.58-46.58,47.29-47.29ZM996.6,232.28v88.74s-44.37-44.37-44.37-44.37l44.37-44.37ZM949.39,708.34l47.21-47.21v94.42s-47.21-47.21-47.21-47.21ZM942.36,701.31l-46.58-46.58,47.29-47.29,46.58,46.58-47.29,47.29ZM893.65,750.03v-83.37s41.69,41.69,41.69,41.69l-41.69,41.69Z" fill="#1d4661" stroke-width="0"/><path d="M1219.07,71.86c.47-.47.95-.95,1.42-1.42" fill="none" stroke-width="0"/><rect x="901.32" y="81.49" width="143.84" height="12.37" transform="translate(699.37 -850.34) rotate(68.58)" fill="#f4b25e" stroke-width="0"/><rect x="846.41" y="76.75" width="143.84" height="12.37" transform="translate(475.01 891.44) rotate(-66.42)" fill="#f4b25e" stroke-width="0"/><rect x="807.91" y="145.85" width="437.37" height="20.83" transform="translate(2053.19 312.53) rotate(-180)" fill="#f7a165" stroke-width="0"/><polygon points="874.89 213.61 1009.24 213.61 1002.17 149.1 881.96 149.1 874.89 213.61" fill="#f1a965" stroke-width="0"/><polygon points="940.34 16.79 1227.71 145.73 1239.07 145.82 942.8 11.37 940.34 16.79" fill="#1d4661" stroke-width="0"/><path d="M1230.14,518.89c0,13.39,4.77,24.27,10.66,24.27,3.18,0,6.02-3.17,7.97-8.19.55-1.41-.54-2.96-1.3-1.87-1.63,2.31-3.56,3.64-5.62,3.64-5.88,0-10.65-10.85-10.65-24.24,0-1.8.08-3.58.25-5.28-.83,3.47-1.31,7.44-1.31,11.67Z" fill="#f1a965" stroke-width="0"/><rect x="1229.66" y="162.36" width="4.26" height="362.82" transform="translate(2463.58 687.54) rotate(-180)" fill="#1d4661" stroke-width="0"/><rect x="350.96" y="977.71" width="12.78" height="32.23" rx="1.81" ry="1.81" fill="#2f3a47" stroke-width="0"/><rect x="149.16" y="977.71" width="12.78" height="32.23" rx="1.81" ry="1.81" fill="#2f3a47" stroke-width="0"/><polygon points="368.51 967.9 355.73 967.9 334.42 954.12 334.42 919.09 347.2 919.09 347.2 955.06 368.51 967.9" fill="#2f3a47" stroke-width="0"/><polygon points="139.39 970 152.17 970 173.48 956.22 173.48 921.19 160.69 921.19 160.69 957.16 139.39 970" fill="#2f3a47" stroke-width="0"/><rect x="137.88" y="915.82" width="231.63" height="18.92" fill="#4b4762" stroke-width="0"/><rect x="137.88" y="939.18" width="231.63" height="18.92" fill="#4b4762" stroke-width="0"/><rect x="130.61" y="962.06" width="251.18" height="18.92" fill="#4b4762" stroke-width="0"/><rect y="655.43" width="1280" height="424.57" fill="#fff" stroke-width="0"/><rect x="632.82" y="937.28" width="614.43" height="93.18" rx="36.66" ry="36.66" fill="#6abf87" stroke-width="0"/><rect x="40.96" y="934.48" width="484.32" height="93.18" rx="32.55" ry="32.55" fill="#6abf87" stroke-width="0"/><path d="M507.55,886.83H88.77c-.64,0-1.28-.01-1.91-.04-26.18-1.1-44.03-25.32-36.86-48.8l14.97-49.04c6.85-21.54,18.71-38.94,41.79-38.94h418.78c23.08,0,41.79,17.43,41.79,38.94l-18,58.95c-4.73,23.9-18.71,38.94-41.79,38.94Z" fill="#6abf87" stroke-width="0"/><path d="M687.13,884.73h509.34c.73,0,1.46-.01,2.19-.04,29.98-1.1,50.41-25.32,42.2-48.8l-17.14-49.04c-7.84-21.54-21.42-38.94-47.85-38.94h-479.49c-26.43,0-47.85,17.43-47.85,38.94l-9.25,58.95c5.42,23.9,21.42,38.94,47.85,38.94Z" fill="#6abf87" stroke-width="0"/><rect x="1131.59" y="975.61" width="12.78" height="32.23" rx="1.81" ry="1.81" fill="#2f3a47" stroke-width="0"/><rect x="929.79" y="975.61" width="12.78" height="32.23" rx="1.81" ry="1.81" fill="#2f3a47" stroke-width="0"/><polygon points="1149.14 965.8 1136.35 965.8 1115.05 952.02 1115.05 916.99 1127.83 916.99 1127.83 952.95 1149.14 965.8" fill="#2f3a47" stroke-width="0"/><polygon points="920.01 967.9 932.8 967.9 954.11 954.12 954.11 919.09 941.32 919.09 941.32 955.06 920.01 967.9" fill="#2f3a47" stroke-width="0"/><rect x="918.51" y="913.72" width="231.63" height="18.92" fill="#4b4762" stroke-width="0"/><rect x="918.51" y="937.07" width="231.63" height="18.92" fill="#4b4762" stroke-width="0"/><rect x="911.24" y="959.96" width="251.18" height="18.92" fill="#4b4762" stroke-width="0"/><rect x="124.6" y="968.6" width="12.78" height="32.23" rx="1.81" ry="1.81" transform="translate(261.98 1969.43) rotate(-180)" fill="#2f3a47" stroke-width="0"/><rect x="326.4" y="968.6" width="12.78" height="32.23" rx="1.81" ry="1.81" transform="translate(665.58 1969.43) rotate(-180)" fill="#2f3a47" stroke-width="0"/><polygon points="119.83 958.79 132.62 958.79 153.93 945.01 153.93 909.98 141.14 909.98 141.14 945.95 119.83 958.79" fill="#2f3a47" stroke-width="0"/><polygon points="348.96 960.89 336.17 960.89 314.86 947.12 314.86 912.08 327.65 912.08 327.65 948.05 348.96 960.89" fill="#2f3a47" stroke-width="0"/><rect x="118.83" y="906.71" width="231.63" height="18.92" transform="translate(469.29 1832.34) rotate(-180)" fill="#4b4762" stroke-width="0"/><rect x="118.83" y="930.07" width="231.63" height="18.92" transform="translate(469.29 1879.05) rotate(-180)" fill="#4b4762" stroke-width="0"/><rect x="106.55" y="952.95" width="251.18" height="18.92" transform="translate(464.28 1924.82) rotate(-180)" fill="#4b4762" stroke-width="0"/><polygon points="1057.29 483.5 1057.29 804.4 835.61 804.4 835.61 483.5 951.74 330.7 953.41 328.51 1057.29 483.5" fill="#f47f7a" stroke-width="0"/><rect x="1057.29" y="483.5" width="99.99" height="320.89" transform="translate(2214.58 1287.9) rotate(180)" fill="#c85746" stroke-width="0"/><polygon points="957.89 319.5 1053.12 322.02 1167.3 498.22 1075.81 503.27 957.89 319.5" fill="#bcf9fa" stroke-width="0"/><polygon points="1077.88 496.6 968.62 326.33 1050.96 328.51 1157.05 492.24 1077.88 496.6" fill="#4aabc6" stroke-width="0"/><line x1="1012.17" y1="323.06" x2="1118.26" y2="495.51" fill="#4aabc6" stroke="#bcf9fa" stroke-miterlimit="10" stroke-width="3"/><line x1="1087.38" y1="380.91" x2="1006.62" y2="383.09" fill="#4aabc6" stroke="#bcf9fa" stroke-miterlimit="10" stroke-width="3"/><path d="M1077.88,509.7c-2.2,0-4.3-1.26-5.8-3.49l-118.02-175.22-122.45,162.56c-3.15,4.18-8.16,4.05-11.19-.29-3.03-4.34-2.94-11.25.21-15.43l128.26-170.27c1.53-2.03,3.59-3.13,5.71-3.05,2.12.08,4.13,1.34,5.58,3.48l121.09,179.78,70.87-2.08c4.35-.12,7.99,4.65,8.08,10.68.09,6.03-3.38,11.02-7.75,11.14l-74.42,2.18c-.06,0-.11,0-.17,0Z" fill="#35784c" stroke-width="0"/><polygon points="952.79 330.7 952.79 804.4 835.61 804.4 835.61 483.5 951.74 330.7 952.79 330.7" fill="#c85746" stroke-width="0"/><rect x="908.45" y="657.38" width="80.75" height="147.02" fill="#b2573b" stroke-width="0"/><rect x="914.02" y="664.73" width="69.62" height="139.67" fill="#f07b31" stroke-width="0"/><ellipse cx="973.89" cy="743.75" rx="4.18" ry="5.51" fill="#b2573b" stroke-width="0"/><rect x="234.27" y="723.89" width="265.11" height="149.05" transform="translate(733.64 1596.82) rotate(-180)" fill="#e4985c" stroke-width="0"/><polygon points="204.94 632.26 241.6 750.77 514.03 750.77 473.72 631.04 204.94 632.26" fill="#f4f9fb" stroke-width="0"/><polygon points="505.58 738.55 473.5 643.3 222.05 643.26 247.7 739.77 505.58 738.55" fill="#72b2cb" stroke-width="0"/><path d="M186.17,675.64l18.78-44.6v46.42s-17.57-.1-17.57-.1c-.92.05-1.57-.88-1.21-1.73Z" fill="#b2573b" stroke-width="0"/><line x1="459.06" y1="639.59" x2="489.6" y2="740.99" fill="none" stroke="#ebfeff" stroke-miterlimit="10" stroke-width="2"/><line x1="443.17" y1="640.81" x2="472.49" y2="740.99" fill="none" stroke="#ebfeff" stroke-miterlimit="10" stroke-width="2"/><line x1="426.07" y1="640.81" x2="455.39" y2="740.99" fill="none" stroke="#ebfeff" stroke-miterlimit="10" stroke-width="2"/><line x1="408.97" y1="640.81" x2="438.29" y2="740.99" fill="none" stroke="#ebfeff" stroke-miterlimit="10" stroke-width="2"/><line x1="391.86" y1="640.81" x2="421.18" y2="740.99" fill="none" stroke="#ebfeff" stroke-miterlimit="10" stroke-width="2"/><line x1="374.76" y1="640.81" x2="404.08" y2="740.99" fill="none" stroke="#ebfeff" stroke-miterlimit="10" stroke-width="2"/><line x1="357.66" y1="640.81" x2="386.98" y2="740.99" fill="none" stroke="#ebfeff" stroke-miterlimit="10" stroke-width="2"/><line x1="340.55" y1="640.81" x2="369.87" y2="740.99" fill="none" stroke="#ebfeff" stroke-miterlimit="10" stroke-width="2"/><line x1="323.45" y1="640.81" x2="352.77" y2="740.99" fill="none" stroke="#ebfeff" stroke-miterlimit="10" stroke-width="2"/><line x1="306.34" y1="640.81" x2="335.67" y2="740.99" fill="none" stroke="#ebfeff" stroke-miterlimit="10" stroke-width="2"/><line x1="289.24" y1="640.81" x2="318.56" y2="740.99" fill="none" stroke="#ebfeff" stroke-miterlimit="10" stroke-width="2"/><line x1="272.14" y1="640.81" x2="301.46" y2="740.99" fill="none" stroke="#ebfeff" stroke-miterlimit="10" stroke-width="2"/><line x1="255.03" y1="640.81" x2="284.35" y2="740.99" fill="none" stroke="#ebfeff" stroke-miterlimit="10" stroke-width="2"/><line x1="237.93" y1="640.81" x2="266.03" y2="740.99" fill="none" stroke="#ebfeff" stroke-miterlimit="10" stroke-width="2"/><line x1="226.93" y1="673.8" x2="488.38" y2="673.8" fill="none" stroke="#ebfeff" stroke-miterlimit="10" stroke-width="2"/><line x1="235.49" y1="703.12" x2="495.71" y2="703.12" fill="none" stroke="#ebfeff" stroke-miterlimit="10" stroke-width="2"/><rect x="381.31" y="750.77" width="89.35" height="122.06" fill="#b2573b" stroke-width="0"/><rect x="387.48" y="755.74" width="77.03" height="117.08" transform="translate(851.98 1628.56) rotate(-180)" fill="#f07b31" stroke-width="0"/><circle cx="398.26" cy="821.98" r="4.62" fill="#b2573b" stroke-width="0"/><polygon points="204.94 632.26 204.83 639.49 190.52 675.72 191.1 873.28 201.28 872.94 234.27 872.94 234.62 727.43 204.94 632.26" fill="#b2573b" stroke-width="0"/><path d="M902.49,805.78c0,8.41-1.58,16.37-4.41,23.41h-75.13c-2.83-7.04-4.41-15-4.41-23.41,0-28.98,18.79-52.47,41.97-52.47s41.97,23.49,41.97,52.47Z" fill="url(#linear-gradient-2)" stroke-width="0"/><path d="M902.08,978.56c0,11.77-1.36,22.91-3.78,32.76h-64.48c-2.42-9.85-3.78-20.99-3.78-32.76,0-40.55,16.13-73.42,36.02-73.42s36.02,32.87,36.02,73.42Z" fill="url(#linear-gradient-3)" stroke-width="0"/><path d="M889.58,840.49s-17.76-14.53-17.76-29.06c9.69,4.84,17.76,17.76,17.76,17.76,0,0,1.61-14.53,3.23-19.37,3.23,4.84,4.84,22.6,4.84,22.6,0,0,11.3-8.07,16.14-8.07-1.61,9.69-11.3,16.14-11.3,16.14h-12.91Z" fill="#307759" stroke-width="0"/><path d="M531.34,796.59s-17.76-14.53-17.76-29.06c9.69,4.84,17.76,17.76,17.76,17.76,0,0,1.61-14.53,3.23-19.37,3.23,4.84,4.84,22.6,4.84,22.6,0,0,11.3-8.07,16.14-8.07-1.61,9.69-11.3,16.14-11.3,16.14h-12.91Z" fill="#307759" stroke-width="0"/><path d="M860.37,1015.11s-20.86-17.06-20.86-34.13c11.38,5.69,20.86,20.86,20.86,20.86,0,0,1.9-17.06,3.79-22.75,3.79,5.69,5.69,26.54,5.69,26.54,0,0,13.27-9.48,18.96-9.48-1.9,11.38-13.27,18.96-13.27,18.96h-15.17Z" fill="url(#linear-gradient-4)" stroke-width="0"/><path d="M461.97,980.1s-17.76-14.53-17.76-29.06c9.69,4.84,17.76,17.76,17.76,17.76,0,0,1.61-14.53,3.23-19.37,3.23,4.84,4.84,22.6,4.84,22.6,0,0,11.3-8.07,16.14-8.07-1.61,9.69-11.3,16.14-11.3,16.14h-12.91Z" fill="#307759" stroke-width="0"/><path d="M1110.61,813.16s-20.86-17.06-20.86-34.13c11.38,5.69,20.86,20.86,20.86,20.86,0,0,1.9-17.06,3.79-22.75,3.79,5.69,5.69,26.54,5.69,26.54,0,0,13.27-9.48,18.96-9.48-1.9,11.38-13.27,18.96-13.27,18.96h-15.17Z" fill="url(#linear-gradient-5)" stroke-width="0"/><path d="M183.55,878.06s-20.86-17.06-20.86-34.13c11.38,5.69,20.86,20.86,20.86,20.86,0,0,1.9-17.06,3.79-22.75,3.79,5.69,5.69,26.54,5.69,26.54,0,0,13.27-9.48,18.96-9.48-1.9,11.38-13.27,18.96-13.27,18.96h-15.17Z" fill="url(#linear-gradient-6)" stroke-width="0"/><path d="M793.38,826.14c-1.34-.77-2.74-1.39-4.19-1.86.02-.88.05-1.76.05-2.65,0-34.91-19.15-63.22-42.78-63.22-19.79,0-36.44,19.87-41.32,46.84-10.79-3.02-21.27-2.14-29.59,3.43-19.64,13.14-19.82,47.31-.4,76.33,19.42,29.02,39.58,44.44,59.22,31.3,1.31-.87,2.52-1.85,3.65-2.9,15.28,5.19,47.36-8.61,59.49-29.61,13.22-22.9,11.37-48.71-4.12-57.66Z" fill="url(#linear-gradient-7)" stroke-width="0"/><path d="M760.71,835.71c-1.45-.75-3.23-.44-4.49.61l-15.1,13.86,1.28-42.61c0-2.29-1.71-4.34-4-4.46-2.44-.13-4.45,1.81-4.45,4.22l-1.28,70.2-29.48-35.59c-1.22-1.99-3.82-2.62-5.81-1.4-1.99,1.22-2.62,3.82-1.4,5.81l36.46,47.01c.06.1.15.18.23.28v92.74c0,2.29,1.71,4.34,4,4.46,2.44.13,4.45-1.81,4.45-4.22v-125.44l20.5-18.36c2.24-1.87,2.06-5.57-.91-7.1Z" fill="#4d4948" stroke-width="0"/><path d="M167.33,644.38c-1.34-.77-2.74-1.39-4.19-1.86.02-.88.05-1.76.05-2.65,0-34.91-19.15-63.22-42.78-63.22-19.79,0-36.44,19.87-41.32,46.84-10.79-3.02-21.27-2.14-29.59,3.43-19.64,13.14-19.82,47.31-.4,76.33,19.42,29.02,39.58,44.44,59.22,31.3,1.31-.87,2.52-1.85,3.65-2.9,15.28,5.19,47.36-8.61,59.49-29.61,13.22-22.9,11.37-48.71-4.12-57.66Z" fill="url(#linear-gradient-8)" stroke-width="0"/><path d="M134.67,653.96c-1.45-.75-3.23-.44-4.49.61l-15.1,13.86,1.28-42.61c0-2.29-1.71-4.34-4-4.46-2.44-.13-4.45,1.81-4.45,4.22l-1.28,70.2-29.48-35.59c-1.22-1.99-3.82-2.62-5.81-1.4-1.99,1.22-2.62,3.82-1.4,5.81l36.46,47.01c.06.1.15.18.23.28v92.74c0,2.29,1.71,4.34,4,4.46,2.44.13,4.45-1.81,4.45-4.22v-125.44l20.5-18.36c2.24-1.87,2.06-5.57-.91-7.1Z" fill="#4d4948" stroke-width="0"/><path d="M1234.85,882.98c-1.02-.59-2.09-1.06-3.2-1.42.02-.67.03-1.35.03-2.02,0-26.64-14.62-48.24-32.65-48.24-15.1,0-27.81,15.16-31.53,35.74-8.23-2.3-16.23-1.63-22.58,2.62-14.98,10.03-15.12,36.1-.3,58.24,14.82,22.14,30.2,33.91,45.19,23.88,1-.67,1.92-1.41,2.79-2.21,11.66,3.96,36.14-6.57,45.39-22.59,10.09-17.47,8.68-37.17-3.15-44Z" fill="#3ca281" stroke-width="0"/><path d="M1209.92,890.29c-1.11-.57-2.47-.33-3.42.46l-11.52,10.57.97-32.51c0-1.75-1.31-3.31-3.05-3.4-1.86-.1-3.4,1.38-3.4,3.22l-.97,53.57-22.5-27.15c-.93-1.52-2.91-2-4.43-1.07-1.52.93-2,2.91-1.07,4.43l27.82,35.87c.05.08.12.14.17.21v70.76c0,1.75,1.31,3.31,3.05,3.4,1.86.1,3.4-1.38,3.4-3.22v-95.72l15.64-14.01c1.71-1.42,1.57-4.25-.7-5.42Z" fill="#4d4948" stroke-width="0"/><path d="M131.15,982.07c0,11.77-1.36,22.91-3.78,32.76H62.89c-2.42-9.85-3.78-20.99-3.78-32.76,0-40.55,16.13-73.42,36.02-73.42s36.02,32.87,36.02,73.42Z" fill="url(#linear-gradient-9)" stroke-width="0"/><path d="M89.44,1018.62s-20.86-17.06-20.86-34.13c11.38,5.69,20.86,20.86,20.86,20.86,0,0,1.9-17.06,3.79-22.75,3.79,5.69,5.69,26.54,5.69,26.54,0,0,13.27-9.48,18.96-9.48-1.9,11.38-13.27,18.96-13.27,18.96h-15.17Z" fill="url(#linear-gradient-10)" stroke-width="0"/><path d="M482.9,844.31c-1.33-.77-2.72-1.38-4.16-1.85.02-.87.05-1.75.05-2.63,0-34.65-19.01-62.74-42.46-62.74-19.65,0-36.17,19.72-41.02,46.49-10.71-3-21.11-2.12-29.37,3.4-19.49,13.04-19.67,46.96-.4,75.76,19.27,28.8,39.29,44.11,58.78,31.06,1.3-.87,2.5-1.83,3.62-2.88,15.17,5.15,47.01-8.54,59.05-29.39,13.12-22.73,11.29-48.35-4.09-57.23Z" fill="#3ca281" stroke-width="0"/><path d="M450.48,853.82c-1.44-.74-3.21-.44-4.45.6l-14.99,13.75,1.27-42.29c0-2.27-1.7-4.3-3.97-4.42-2.42-.13-4.42,1.8-4.42,4.19l-1.27,69.68-29.26-35.32c-1.21-1.97-3.79-2.6-5.76-1.39-1.98,1.21-2.6,3.79-1.39,5.76l36.19,46.66c.06.1.15.18.22.28v92.04c0,2.27,1.7,4.3,3.97,4.42,2.42.13,4.42-1.8,4.42-4.19v-124.51l20.35-18.22c2.23-1.85,2.04-5.53-.91-7.05Z" fill="#4d4948" stroke-width="0"/><path d="M104.59,812.38s-17.76-14.53-17.76-29.06c9.69,4.84,17.76,17.76,17.76,17.76,0,0,1.61-14.53,3.23-19.37,3.23,4.84,4.84,22.6,4.84,22.6,0,0,11.3-8.07,16.14-8.07-1.61,9.69-11.3,16.14-11.3,16.14h-12.91Z" fill="#307759" stroke-width="0"/></g></g></svg>