<?xml version="1.0" encoding="UTF-8"?><svg id="Layer_2" xmlns="http://www.w3.org/2000/svg" xmlns:xlink="http://www.w3.org/1999/xlink" viewBox="0 0 376 812"><defs><linearGradient id="linear-gradient" x1="195.52" y1="676.81" x2="181" y2="801.16" gradientUnits="userSpaceOnUse"><stop offset=".46" stop-color="#388da0"/><stop offset=".79" stop-color="#43a8c3"/></linearGradient><linearGradient id="linear-gradient-2" x1="230.89" y1="350.33" x2="230.89" y2="440.21" gradientUnits="userSpaceOnUse"><stop offset="0" stop-color="#474f7d"/><stop offset=".29" stop-color="#434a77"/><stop offset=".66" stop-color="#393f67"/><stop offset="1" stop-color="#2d3053"/></linearGradient><linearGradient id="linear-gradient-3" x1="0" y1="404.88" x2="140" y2="404.88" xlink:href="#linear-gradient-2"/><linearGradient id="linear-gradient-4" x1="65.26" y1="693.94" x2="349.58" y2="693.94" gradientUnits="userSpaceOnUse"><stop offset="0" stop-color="#d14c3e"/><stop offset=".07" stop-color="#dc5544"/><stop offset=".21" stop-color="#ef644e"/><stop offset=".36" stop-color="#fb6d54"/><stop offset=".51" stop-color="#ff7056"/><stop offset=".65" stop-color="#f96b53"/><stop offset=".82" stop-color="#e95f4a"/><stop offset="1" stop-color="#d14c3e"/></linearGradient><linearGradient id="linear-gradient-5" x1="0" y1="694.07" x2="116.53" y2="694.07" xlink:href="#linear-gradient-4"/><linearGradient id="linear-gradient-6" x1="219.75" y1="452.26" x2="219.75" y2="515.27" gradientUnits="userSpaceOnUse"><stop offset="0" stop-color="#5a7dce"/><stop offset=".34" stop-color="#5577c8"/><stop offset=".77" stop-color="#4967b9"/><stop offset="1" stop-color="#415cae"/></linearGradient><linearGradient id="linear-gradient-7" x1="0" y1="489.47" x2="133.22" y2="489.47" xlink:href="#linear-gradient-6"/><linearGradient id="linear-gradient-8" x1="59.61" y1="555.49" x2="337.49" y2="555.49" xlink:href="#linear-gradient-2"/><linearGradient id="linear-gradient-9" x1="0" y1="555.58" x2="109.72" y2="555.58" xlink:href="#linear-gradient-2"/><linearGradient id="linear-gradient-10" x1="211.6" y1="590.54" x2="209.74" y2="638.72" xlink:href="#linear-gradient-4"/><linearGradient id="linear-gradient-11" x1="0" y1="616.41" x2="126.59" y2="616.41" xlink:href="#linear-gradient-4"/><linearGradient id="linear-gradient-12" x1="255.44" y1="524.88" x2="376" y2="524.88" xlink:href="#linear-gradient-4"/><linearGradient id="linear-gradient-13" x1="361.03" y1="736.58" x2="376" y2="736.58" xlink:href="#linear-gradient-2"/><linearGradient id="linear-gradient-14" x1="238.25" y1="736.66" x2="376" y2="736.66" xlink:href="#linear-gradient-2"/><linearGradient id="linear-gradient-15" x1="375.06" y1="586.76" x2="376" y2="586.76" xlink:href="#linear-gradient-6"/><linearGradient id="linear-gradient-16" x1="258.15" y1="586.82" x2="376" y2="586.82" xlink:href="#linear-gradient-6"/><linearGradient id="linear-gradient-17" x1="356.9" y1="635.17" x2="376" y2="635.17" xlink:href="#linear-gradient-4"/><linearGradient id="linear-gradient-18" x1="236.89" y1="635.24" x2="376" y2="635.24" xlink:href="#linear-gradient-4"/><linearGradient id="linear-gradient-19" x1="371.07" y1="679.74" x2="376" y2="679.74" xlink:href="#linear-gradient-2"/><linearGradient id="linear-gradient-20" x1="257.02" y1="679.79" x2="376" y2="679.79" xlink:href="#linear-gradient-2"/></defs><g id="Layer_1-2"><g opacity=".07"><rect width="376" height="812" fill="#f1ead6" stroke-width="0"/><path d="M376,605.94v147.41c-2.53.26-5.07.52-7.6.78-.6.07-1.2.13-1.8.19-1.86.19-3.71.38-5.57.58-2.65.27-5.29.54-7.94.82-11.78,1.22-23.56,2.43-35.34,3.61-21.76,2.2-43.53,4.33-65.31,6.28-.73.07-1.46.13-2.2.2-3.99.35-7.99.7-11.99,1.04-79.32,6.83-158.79,11.09-238.25,8.05v-194.84c5.7.65,11.35,1.53,16.93,2.62,1.35.26,2.7.54,4.05.83,6.35,1.34,12.64,2.92,18.87,4.7,2.32.65,4.63,1.33,6.93,2.05,3.54,1.08,7.06,2.23,10.57,3.43,2.76.93,5.5,1.89,8.24,2.89,1.14.41,2.27.83,3.4,1.25,2.27.84,4.53,1.69,6.78,2.57,1.07.41,2.13.82,3.19,1.24t.02.01c3.41,1.34,6.8,2.71,10.19,4.11,1.01.41,2.01.83,3.02,1.25,8.48,3.52,16.92,7.18,25.35,10.85,3.02,1.32,6.03,2.63,9.05,3.94,3.84,1.67,7.68,3.33,11.53,4.98,14.82,6.35,29.89,12.48,45.22,17.69.12.04.24.08.36.12,17.41,5.91,35.15,10.64,53.19,13.15,6.67.93,13.38,1.56,20.13,1.83,1.72.08,3.45.13,5.18.15,5.31.07,10.67-.12,16.01-.58,7.39-.64,14.76-1.78,22-3.44.24-.05.48-.11.72-.17,4.21-.98,8.37-2.15,12.46-3.48,3.19-1.05,6.33-2.2,9.43-3.46h0c.89-.37,1.76-.74,2.64-1.12,1.2-.52,2.39-1.05,3.57-1.61,1.29-.6,2.57-1.22,3.84-1.87.73-.36,1.45-.74,2.17-1.12,2.22-1.18,4.4-2.43,6.54-3.74.6-.37,1.2-.74,1.79-1.12,3.24-2.06,6.37-4.27,9.37-6.63.48-.37.95-.74,1.41-1.12.93-.75,1.84-1.52,2.74-2.31.45-.38.9-.78,1.34-1.18.41-.37.83-.74,1.23-1.12,3.55-3.28,6.88-6.81,9.94-10.59,1.17-1.44,2.3-2.91,3.39-4.42.05-.06.09-.12.13-.18.18-.24.35-.48.52-.72.45-.63.89-1.27,1.32-1.92.1-.15.19-.29.29-.44.3-.45.6-.91.9-1.37.01-.02.02-.04.04-.07Z" fill="#efe2c2" stroke-width="0"/><path d="M376,0v265.96c-16.96-10.88-34.53-20.31-54.05-25.03-35.57-8.62-73.04-.35-107.67,11.5-8.5,2.91-16.99,6.11-25.39,9.63-1.94.81-3.87,1.64-5.8,2.49h-.01c-1.27.55-2.52,1.11-3.78,1.69h-.01c-10.47,4.72-20.73,9.95-30.63,15.73-1.2.69-2.39,1.4-3.58,2.11,0,0,0,0,0,0-1.81,1.08-3.59,2.19-5.36,3.31-26.76,16.89-50.25,37.96-66.8,63.86-2.18,3.39-4.23,6.87-6.14,10.43-.99,1.81-1.93,3.64-2.84,5.49-.39.78-.77,1.57-1.14,2.37-.76,1.61-1.49,3.24-2.2,4.89-.34.78-.67,1.57-.99,2.37-.08.18-.16.36-.23.54-.97,2.4-1.89,4.83-2.77,7.28-.29.79-.57,1.58-.85,2.38-.85,2.43-1.68,4.89-2.48,7.35-.27.79-.53,1.58-.79,2.38-1.54,4.68-3.06,9.37-4.69,14-.28.79-.56,1.58-.84,2.37-.97,2.65-1.97,5.27-3.05,7.86-.33.8-.67,1.59-1.02,2.38-1.09,2.5-2.25,4.96-3.51,7.35-.42.8-.85,1.6-1.29,2.38-3.02,5.38-6.57,10.42-10.91,14.95l-.07.07c-3.26,3.39-6.88,6.34-10.76,8.86-.83.54-1.68,1.06-2.54,1.56-3.19,1.86-6.54,3.45-10.01,4.76-.16.06-.31.12-.46.17-1.1.42-2.21.8-3.33,1.15V204.58c3.86.68,7.71,1.3,11.58,1.84,3.83.54,7.67,1.01,11.52,1.38,1.48.15,2.97.27,4.45.38,2.33.19,4.66.33,7,.43.26.01.51.02.77.03,81.21,3.11,161.53-50.46,189.76-126.69,9.98-26.97,14.17-56.54,26.98-81.95h123.94Z" fill="#efe2c2" stroke-width="0"/><rect y="670.49" width="376" height="141.51" fill="url(#linear-gradient)" stroke-width="0"/><path d="M88.73,351.03h253.57c16.97,0,30.75,13.78,30.75,30.75v45.93c0,16.97-13.78,30.75-30.75,30.75H88.73v-107.42h0Z" fill="url(#linear-gradient-2)" stroke-width="0"/><path d="M140,390.17v29.42c0,17.54-11.6,32.37-27.55,37.23-1.7.52-3.44.92-5.22,1.2-1.31.21-2.64.36-3.99.43-.72.04-1.44.06-2.17.06H0v-10.72h8.63c11.08,0,20.52-5.55,24.14-14.73.31-.77.57-1.57.79-2.38.52-1.95.8-4.03.8-6.24v-39.12c0-.24,0-.47-.02-.7-.07-2.83-.6-5.44-1.53-7.82-.32-.82-.68-1.61-1.1-2.37-.96-1.81-2.17-3.44-3.6-4.89-.83-.86-1.74-1.66-2.72-2.37-4.5-3.35-10.36-5.21-16.76-5.21H0v-10.71h101.07c21.5,0,38.93,17.42,38.93,38.92Z" fill="url(#linear-gradient-3)" stroke-width="0"/><path d="M130.27,391.67v26.42c0,16.56-13.44,30-30,30H0v-86.41h100.27c16.56,0,30,13.43,30,29.99Z" fill="#e6e6e6" stroke-width="0"/><rect x="0" y="367.17" width="91.68" height="2.37" fill="#d6d6d6" stroke-width="0"/><rect x="0" y="374.43" width="89.2" height="2.37" fill="#d6d6d6" stroke-width="0"/><rect x="0" y="384.62" width="117.01" height="2.38" fill="#d6d6d6" stroke-width="0"/><rect x="0" y="394.35" width="112.06" height="2.38" fill="#d6d6d6" stroke-width="0"/><rect x="0" y="410.73" width="88.89" height="2.37" fill="#d6d6d6" stroke-width="0"/><polygon points="116.71 421.06 116.7 423.44 88.73 423.4 42.88 423.34 34.36 423.33 0 423.28 0 420.9 34.36 420.95 43.9 420.96 88.73 421.02 116.71 421.06" fill="#d6d6d6" stroke-width="0"/><polygon points="110.28 430.79 110.27 433.17 88.73 433.13 38.08 433.07 32.77 433.06 0 433.01 0 430.63 33.56 430.68 39.37 430.69 88.73 430.76 110.28 430.79" fill="#d6d6d6" stroke-width="0"/><path d="M65.26,644.47h254.81c16.29,0,29.51,13.22,29.51,29.51v39.92c0,16.29-13.22,29.51-29.51,29.51H65.26v-98.94h0Z" fill="url(#linear-gradient-4)" stroke-width="0"/><path d="M116.53,680.52v27.1c0,19.18-16.36,34.83-36.93,35.79-.66.03-1.33.05-2,.05H0v-13.48c4.21-2.33,7.48-5.73,9.3-9.96.3-.71.56-1.44.78-2.19.52-1.79.8-3.71.8-5.74v-36.04c0-.22,0-.43-.02-.64-.04-1.73-.29-3.37-.73-4.92-.22-.78-.48-1.54-.79-2.28-.32-.76-.69-1.49-1.11-2.19-.96-1.67-2.17-3.17-3.59-4.5-.84-.79-1.74-1.52-2.72-2.18-.61-.43-1.25-.82-1.92-1.18v-13.48h77.6c17.72,0,32.67,10.89,37.38,25.81,1.01,3.18,1.55,6.55,1.55,10.03Z" fill="url(#linear-gradient-5)" stroke-width="0"/><path d="M106.79,681.91v24.32c0,15.26-13.43,27.63-30,27.63H0v-79.58h76.79c12.15,0,22.61,6.65,27.32,16.21,1.72,3.48,2.68,7.35,2.68,11.42Z" fill="#e6e6e6" stroke-width="0"/><rect x="0" y="659.34" width="68.2" height="2.18" fill="#d6d6d6" stroke-width="0"/><rect y="666.02" width="65.73" height="2.19" fill="#d6d6d6" stroke-width="0"/><rect x="0" y="675.41" width="93.53" height="2.19" fill="#d6d6d6" stroke-width="0"/><rect y="684.37" width="88.59" height="2.19" fill="#d6d6d6" stroke-width="0"/><rect y="699.45" width="65.42" height="2.19" fill="#d6d6d6" stroke-width="0"/><polygon points="93.23 708.97 93.22 711.16 65.26 711.12 10.88 711.06 0 711.05 0 708.86 10.88 708.87 65.26 708.94 93.23 708.97" fill="#d6d6d6" stroke-width="0"/><polygon points="86.8 717.93 86.8 720.12 65.26 720.09 9.3 720.02 0 720.01 0 717.82 10.08 717.83 65.26 717.9 86.8 717.93" fill="#d6d6d6" stroke-width="0"/><path d="M84.4,456.82h247.33c12.89,0,23.36,10.47,23.36,23.36v18.41c0,12.89-10.47,23.36-23.36,23.36H84.4v-65.13h0Z" fill="url(#linear-gradient-6)" stroke-width="0"/><path d="M133.22,480.55v17.84c0,10.4-10.57,19.23-25.25,22.37-3.07.66-6.32,1.07-9.69,1.19-.7.03-1.41.04-2.12.04H0v-6.5h8.14c10.54,0,19.53-3.37,22.98-8.94h.01c.29-.46.54-.94.75-1.44.5-1.18.76-2.44.76-3.78v-23.72c0-.14,0-.28-.02-.42-.06-1.72-.57-3.31-1.46-4.75-.3-.5-.65-.98-1.04-1.44-.92-1.1-2.08-2.09-3.43-2.96-.8-.53-1.66-1.01-2.59-1.44-4.28-2.03-9.86-3.16-15.96-3.16H0v-6.49h96.16c3.85,0,7.57.37,11.07,1.07.66.13,1.31.27,1.95.43,14.04,3.35,24.04,11.98,24.04,22.1Z" fill="url(#linear-gradient-7)" stroke-width="0"/><path d="M123.95,481.46v16.02c0,10.04-12.79,18.19-28.56,18.19H0v-52.4h95.39c15.77,0,28.56,8.14,28.56,18.19Z" fill="#e6e6e6" stroke-width="0"/><rect y="466.6" width="87.21" height="1.44" fill="#d6d6d6" stroke-width="0"/><rect x="0" y="471" width="84.85" height="1.44" fill="#d6d6d6" stroke-width="0"/><rect x="0" y="477.19" width="111.32" height="1.44" fill="#d6d6d6" stroke-width="0"/><rect x="0" y="483.08" width="106.62" height="1.44" fill="#d6d6d6" stroke-width="0"/><rect x="0" y="493.01" width="84.56" height="1.44" fill="#d6d6d6" stroke-width="0"/><polygon points="111.04 499.28 111.03 500.72 84.41 500.7 84.4 500.7 32.64 500.65 0 500.62 0 499.18 32.64 499.21 84.4 499.26 84.41 499.26 111.04 499.28" fill="#d6d6d6" stroke-width="0"/><polygon points="104.92 505.18 104.91 506.62 84.41 506.6 84.4 506.6 31.13 506.55 31.12 506.55 0 506.52 0 505.08 31.87 505.11 31.88 505.11 84.4 505.16 84.41 505.16 104.92 505.18" fill="#d6d6d6" stroke-width="0"/><path d="M59.61,520.76h253.44c13.49,0,24.44,10.95,24.44,24.44v20.57c0,13.49-10.95,24.44-24.44,24.44H59.61v-69.46h0Z" fill="url(#linear-gradient-8)" stroke-width="0"/><path d="M109.72,546.06v19.03c0,10.26-9.28,19.09-22.6,23-.13.04-.26.08-.4.12-2.46.71-5.06,1.24-7.76,1.58-1.68.22-3.39.37-5.14.43-.71.03-1.43.04-2.15.04H0v-11.6c2.12-1.36,3.8-3,4.92-4.87.29-.49.54-1,.76-1.53.51-1.26.78-2.6.78-4.03v-25.3c0-.15,0-.3-.02-.45-.06-1.83-.59-3.52-1.49-5.06-.31-.53-.67-1.05-1.08-1.54-.94-1.17-2.12-2.23-3.51-3.15-.12-.09-.24-.17-.36-.24v-11.59h71.67c3.86,0,7.59.38,11.1,1.09,15.6,3.14,26.95,12.73,26.95,24.07Z" fill="url(#linear-gradient-9)" stroke-width="0"/><path d="M100.2,547.04v17.08c0,10.71-13.13,19.39-29.32,19.39H0v-55.87h70.88c16.19,0,29.32,8.68,29.32,19.4Z" fill="#e6e6e6" stroke-width="0"/><rect x="0" y="531.19" width="62.49" height="1.54" fill="#d6d6d6" stroke-width="0"/><rect x="0" y="535.88" width="60.07" height="1.54" fill="#d6d6d6" stroke-width="0"/><rect x="0" y="542.48" width="87.24" height="1.53" fill="#d6d6d6" stroke-width="0"/><rect x="0" y="548.77" width="82.41" height="1.53" fill="#d6d6d6" stroke-width="0"/><rect x="0" y="559.36" width="59.77" height="1.53" fill="#d6d6d6" stroke-width="0"/><polygon points="86.95 566.04 86.94 567.58 59.61 567.55 6.46 567.5 0 567.49 0 565.96 6.46 565.97 59.61 566.02 86.95 566.04" fill="#d6d6d6" stroke-width="0"/><polygon points="80.67 572.33 80.66 573.87 59.61 573.85 4.92 573.79 0 573.79 0 572.25 5.68 572.26 59.61 572.31 80.67 572.33" fill="#d6d6d6" stroke-width="0"/><path d="M78.96,588.09h242.6c11.86,0,21.49,9.63,21.49,21.49v13.52c0,11.86-9.63,21.49-21.49,21.49H78.96v-56.5h0Z" fill="url(#linear-gradient-10)" stroke-width="0"/><path d="M126.59,608.68v15.47c0,10.5-13.94,19.14-31.91,20.32-.79.06-1.59.1-2.39.12-.62.02-1.24.03-1.86.03H0v-5.64h4.56c10.29,0,19.06-2.92,22.43-7.75.28-.41.52-.82.73-1.25.48-1.03.74-2.12.74-3.28v-20.57c0-.13,0-.25-.02-.37-.06-1.49-.56-2.86-1.42-4.11-.29-.43-.63-.85-1.01-1.25-.9-.95-2.03-1.81-3.35-2.57-.78-.46-1.62-.87-2.52-1.25-4.18-1.76-9.62-2.74-15.58-2.74H0v-5.63h90.43c5.6,0,10.9.72,15.63,2.01,12.15,3.3,20.53,10.32,20.53,18.46Z" fill="url(#linear-gradient-11)" stroke-width="0"/><path d="M117.54,609.47v13.89c0,8.71-12.47,15.78-27.86,15.78H0v-45.45h89.68c15.39,0,27.86,7.07,27.86,15.78Z" fill="#e6e6e6" stroke-width="0"/><rect x="0" y="596.58" width="81.7" height="1.25" fill="#d6d6d6" stroke-width="0"/><rect y="600.4" width="79.4" height="1.25" fill="#d6d6d6" stroke-width="0"/><rect y="605.76" width="105.23" height="1.25" fill="#d6d6d6" stroke-width="0"/><rect y="610.88" width="100.63" height="1.25" fill="#d6d6d6" stroke-width="0"/><rect y="619.49" width="79.11" height="1.25" fill="#d6d6d6" stroke-width="0"/><polygon points="104.95 624.92 104.94 626.17 78.97 626.15 78.96 626.15 28.46 626.12 0 626.1 0 624.85 28.46 624.87 78.96 624.9 78.97 624.9 104.95 624.92" fill="#d6d6d6" stroke-width="0"/><polygon points="98.98 630.04 98.97 631.29 78.97 631.27 78.96 631.27 26.99 631.23 0 631.21 0 629.96 27.72 629.98 78.96 630.02 78.97 630.02 98.98 630.04" fill="#d6d6d6" stroke-width="0"/><path d="M376,485.6v78.55h-120.56v-7.85h64.12c8.12,0,15.03-4.07,17.68-10.79.09-.22.17-.45.24-.67.13-.35.24-.71.34-1.07.38-1.43.58-2.95.58-4.57v-28.65c0-.17,0-.34-.01-.51-.05-2.07-.45-3.99-1.12-5.73-.24-.6-.51-1.18-.81-1.74-.7-1.32-1.59-2.51-2.63-3.57-.6-.63-1.26-1.21-1.98-1.74-3.3-2.46-7.58-3.82-12.29-3.82h-64.12v-7.84h120.56Z" fill="url(#linear-gradient-12)" stroke-width="0"/><rect x="263.07" y="493.23" width="112.93" height="63.29" fill="#e6e6e6" stroke-width="0"/><rect x="263.07" y="497.26" width="112.93" height="1.74" fill="#d6d6d6" stroke-width="0"/><rect x="263.07" y="502.57" width="112.93" height="1.74" fill="#d6d6d6" stroke-width="0"/><rect x="279.49" y="510.04" width="96.51" height="1.74" fill="#d6d6d6" stroke-width="0"/><rect x="291.93" y="517.17" width="84.07" height="1.74" fill="#d6d6d6" stroke-width="0"/><rect x="263.07" y="529.16" width="112.93" height="1.74" fill="#d6d6d6" stroke-width="0"/><polygon points="376 536.7 376 538.44 338.4 538.39 336.52 538.39 263.07 538.28 263.07 536.54 335.95 536.65 338.4 536.65 376 536.7" fill="#d6d6d6" stroke-width="0"/><polygon points="376 543.83 376 545.57 337.49 545.51 337.24 545.51 263.07 545.41 263.07 543.67 337.45 543.77 337.82 543.77 376 543.83" fill="#d6d6d6" stroke-width="0"/><rect x="361.03" y="700.35" width="14.97" height="72.45" fill="url(#linear-gradient-13)" stroke-width="0"/><path d="M376,701.06v71.21c-1.41.28-2.85.45-4.33.53-.53.03-1.06.04-1.6.04h-131.82v-7.23h64.12c6.36,0,11.98-2.3,15.38-6.28.95-1.09,1.72-2.32,2.3-3.66.22-.52.41-1.05.58-1.6.38-1.31.58-2.72.58-4.21v-26.39c0-.16,0-.32-.01-.47-.05-1.9-.44-3.67-1.12-5.27-.23-.55-.5-1.09-.81-1.6-.7-1.22-1.59-2.32-2.63-3.3-.61-.58-1.28-1.12-2-1.6-3.29-2.26-7.59-3.51-12.27-3.51h-64.12v-7.23h131.82c2.03,0,4.02.2,5.93.57Z" fill="url(#linear-gradient-14)" stroke-width="0"/><path d="M376,708.44v56.46c-2.06.59-4.25.91-6.52.91h-123.6v-58.28h123.6c2.27,0,4.46.32,6.52.91Z" fill="#e6e6e6" stroke-width="0"/><rect x="245.88" y="711.23" width="117.31" height="1.6" fill="#d6d6d6" stroke-width="0"/><rect x="245.88" y="716.13" width="115.5" height="1.6" fill="#d6d6d6" stroke-width="0"/><rect x="262.3" y="723" width="113.7" height="1.61" fill="#d6d6d6" stroke-width="0"/><rect x="274.74" y="729.57" width="101.26" height="1.6" fill="#d6d6d6" stroke-width="0"/><rect x="245.88" y="740.61" width="115.27" height="1.6" fill="#d6d6d6" stroke-width="0"/><polygon points="376 747.57 376 749.18 361.04 749.16 361.03 749.16 321.21 749.11 245.88 749.01 245.88 747.41 321.21 747.51 361.03 747.56 361.04 747.56 376 747.57" fill="#d6d6d6" stroke-width="0"/><polygon points="376 754.15 376 755.75 361.04 755.73 361.03 755.73 353.09 755.72 320.05 755.67 245.88 755.58 245.88 753.97 320.63 754.07 361.03 754.12 361.04 754.12 368.4 754.13 376 754.15" fill="#d6d6d6" stroke-width="0"/><rect x="375.06" y="562.91" width=".94" height="47.71" fill="url(#linear-gradient-15)" stroke-width="0"/><path d="M376,563.01v47.63h-117.85v-4.76h61.06c7.72,0,14.29-2.47,16.82-6.54.22-.34.4-.7.55-1.06.37-.86.56-1.79.56-2.77v-17.37c0-.11,0-.21-.01-.31-.05-1.25-.42-2.41-1.07-3.47-.02-.04-.05-.08-.08-.12-.2-.32-.43-.64-.69-.94-.67-.8-1.52-1.53-2.51-2.17-.58-.38-1.22-.73-1.89-1.05-3.14-1.48-7.22-2.31-11.68-2.31h-61.06v-4.76h117.85Z" fill="url(#linear-gradient-16)" stroke-width="0"/><rect x="265.42" y="567.64" width="110.58" height="38.37" fill="#e6e6e6" stroke-width="0"/><rect x="265.42" y="570.08" width="110.58" height="1.05" fill="#d6d6d6" stroke-width="0"/><rect x="265.42" y="573.3" width="109.96" height="1.05" fill="#d6d6d6" stroke-width="0"/><rect x="281.05" y="577.83" width="94.95" height="1.05" fill="#d6d6d6" stroke-width="0"/><rect x="292.9" y="582.15" width="83.1" height="1.05" fill="#d6d6d6" stroke-width="0"/><rect x="265.42" y="589.42" width="109.75" height="1.05" fill="#d6d6d6" stroke-width="0"/><polygon points="376 593.99 376 595.05 375.06 595.05 337.37 595.02 337.14 595.02 265.42 594.95 265.42 593.9 336.32 593.96 337.14 593.96 375.06 593.99 376 593.99" fill="#d6d6d6" stroke-width="0"/><polygon points="376 598.32 376 599.37 375.06 599.37 340.46 599.34 336.03 599.34 265.42 599.27 265.42 598.22 336.58 598.28 339.85 598.28 375.06 598.32 376 598.32" fill="#d6d6d6" stroke-width="0"/><rect x="356.9" y="609.74" width="19.1" height="50.87" fill="url(#linear-gradient-17)" stroke-width="0"/><path d="M376,611.14v48.2c-1.57.42-3.22.74-4.93.96-1.22.16-2.46.26-3.73.31-.53.02-1.07.03-1.61.03h-128.84v-5.08h62.67c.46,0,.92-.01,1.37-.03,4.96-.19,9.37-1.43,12.46-3.48,1.49-.98,2.67-2.15,3.45-3.47h.01c.22-.37.4-.74.56-1.12.36-.9.56-1.86.57-2.87v-18.61c0-.11,0-.22-.01-.33-.05-1.35-.44-2.59-1.1-3.71-.23-.39-.49-.76-.78-1.12-.7-.85-1.57-1.63-2.59-2.31-.6-.42-1.26-.8-1.97-1.13-3.22-1.59-7.4-2.46-11.97-2.46h-62.67v-5.08h128.84c2.49,0,4.9.22,7.2.62.31.06.62.11.93.18.73.14,1.44.31,2.14.5Z" fill="url(#linear-gradient-18)" stroke-width="0"/><path d="M376,616.73v37.02c-3.18,1.24-6.89,1.95-10.85,1.95h-120.8v-40.92h120.8c1.46,0,2.88.1,4.26.28,2.36.31,4.58.88,6.59,1.67Z" fill="#e6e6e6" stroke-width="0"/><rect x="244.35" y="617.38" width="114.65" height="1.12" fill="#d6d6d6" stroke-width="0"/><rect x="244.35" y="620.82" width="112.88" height="1.12" fill="#d6d6d6" stroke-width="0"/><rect x="260.4" y="625.65" width="115.6" height="1.12" fill="#d6d6d6" stroke-width="0"/><rect x="272.56" y="630.26" width="101.04" height="1.12" fill="#d6d6d6" stroke-width="0"/><rect x="244.35" y="638.01" width="112.66" height="1.12" fill="#d6d6d6" stroke-width="0"/><polygon points="376 642.9 376 644.03 356.9 644.01 332.88 643.99 326.58 643.99 317.98 643.98 244.35 643.91 244.35 642.78 317.98 642.85 330.01 642.86 330.02 642.86 335.05 642.87 356.9 642.89 376 642.9" fill="#d6d6d6" stroke-width="0"/><polygon points="372.32 647.51 372.32 648.64 356.9 648.62 316.84 648.58 244.35 648.52 244.35 647.39 317.4 647.46 356.9 647.5 372.32 647.51" fill="#d6d6d6" stroke-width="0"/><rect x="371.07" y="659.06" width="4.93" height="41.37" fill="url(#linear-gradient-19)" stroke-width="0"/><path d="M376,659.14v41.31h-118.98v-4.13h59.57c7.53,0,13.95-2.14,16.41-5.67.21-.3.39-.61.54-.92.35-.75.54-1.55.54-2.4v-15.07c0-.09,0-.18,0-.27-.02-.52-.12-1.02-.29-1.5-.17-.53-.43-1.03-.75-1.51-.22-.32-.47-.62-.75-.91-.65-.7-1.48-1.33-2.45-1.89-.56-.33-1.18-.63-1.83-.91-3.06-1.29-7.05-2.01-11.41-2.01h-59.57v-4.12h118.98Z" fill="url(#linear-gradient-20)" stroke-width="0"/><rect x="264.11" y="663.15" width="111.89" height="33.29" fill="#e6e6e6" stroke-width="0"/><rect x="264.11" y="665.27" width="108.96" height=".91" fill="#d6d6d6" stroke-width="0"/><rect x="264.11" y="668.07" width="107.28" height=".91" fill="#d6d6d6" stroke-width="0"/><rect x="279.36" y="671.99" width="96.64" height=".92" fill="#d6d6d6" stroke-width="0"/><rect x="290.92" y="675.74" width="85.08" height=".92" fill="#d6d6d6" stroke-width="0"/><rect x="264.11" y="682.05" width="107.07" height=".91" fill="#d6d6d6" stroke-width="0"/><polygon points="376 686.02 376 686.93 371.07 686.93 349.58 686.91 334.08 686.9 264.11 686.85 264.11 685.93 334.08 685.99 349.58 686 371.07 686.01 376 686.02" fill="#d6d6d6" stroke-width="0"/><polygon points="376 689.77 376 690.68 371.07 690.68 349.58 690.66 333.01 690.65 333 690.65 264.11 690.59 264.11 689.68 333.54 689.73 349.58 689.74 371.07 689.76 376 689.77" fill="#d6d6d6" stroke-width="0"/><path d="M105.86,124.87c-1.63-.35-3.27-.65-4.94-.89-2.7-.39-5.45-.64-8.23-.76l-.26,6.32c2.79.12,5.55.38,8.25.8,1.98.31,3.93.69,5.84,1.16.24.05.47.11.7.17l1.56-6.13c-.96-.24-1.94-.47-2.92-.67ZM76.91,127l-.51-2.8c-1.11.19-2.22.39-3.33.61-4.1.82-8.19,1.88-12.21,3.16l1.93,6.03c4.82-1.54,9.74-2.74,14.65-3.55l.09-.02-.62-3.43ZM136.8,141.51c-1.32-1.5-2.77-2.92-4.34-4.26-2.51-2.14-5.32-4.07-8.41-5.78l-3.06,5.54c3,1.65,5.68,3.54,8.02,5.64,1.18,1.05,2.28,2.16,3.29,3.32l3.87-3.35.91-.79c-.09-.11-.19-.22-.28-.32ZM45.96,133.92c-4.37,2.11-8.66,4.51-12.76,7.16-.4.25-.79.51-1.18.77l.46.69,3.04,4.59c4.22-2.8,8.66-5.32,13.19-7.51l-2.75-5.7ZM145.34,157.48c-.07-.28-.14-.56-.22-.83l-6.1,1.72c.07.23.13.47.19.7.8,3.06,1.19,6.33,1.19,10,0,1.18-.05,2.44-.13,3.72l6.32.4c.09-1.41.14-2.8.14-4.12,0-4.21-.46-8-1.39-11.59ZM308.09,179.76c-3.25-.39-6.34-.66-9.32-.82-1.94-.1-3.84-.15-5.71-.15h-.04l.04,6.34c.34,0,.67,0,1.01.01,3.38.03,6.88.23,10.6.61,1.15.12,2.33.26,3.53.41l.8-6.29c-.3-.04-.61-.08-.91-.11ZM276.9,180.22c-4.74.9-9.31,2.24-13.58,3.99-.67.28-1.34.57-2.01.87l2.6,5.77c.6-.27,1.21-.53,1.82-.78,3.87-1.59,8.02-2.81,12.34-3.62l-1.17-6.23ZM324.63,182.52l-1.27,6.21c5.17,1.05,10.34,2.26,15.14,3.4l1.47-6.16c-4.86-1.16-10.08-2.37-15.34-3.45ZM355.24,189.88l-1.75,6.09c5.51,1.58,10.21,3.23,14.36,5.02l2.51-5.81c-4.4-1.9-9.34-3.64-15.12-5.3ZM138.1,187.85c-.18.92-.36,1.85-.53,2.77-.82,4.2-1.66,8.55-2.22,12.8l6.28.81c.53-4.05,1.32-8.11,2.15-12.4.18-.93.36-1.86.54-2.79l-6.22-1.19ZM247.32,193.29c-.98.71-1.97,1.44-2.97,2.22-.92.71-1.86,1.45-2.81,2.23-1.52,1.24-3.08,2.58-4.73,4.03-.6.53-1.21,1.08-1.84,1.65l4.25,4.69c.89-.81,1.76-1.58,2.61-2.32,1.73-1.51,3.36-2.88,4.94-4.13,1.01-.81,2.01-1.58,2.99-2.31.42-.31.84-.62,1.26-.92l-3.7-5.14ZM223.59,214.16l-.09.09c-3.33,3.18-7.27,6.9-11.34,10.35l4.09,4.83c4.2-3.56,8.23-7.36,11.64-10.62l-4.3-4.65ZM144.91,228.52c-.85-1.44-1.55-2.95-2.1-4.53-.58-1.61-1.01-3.31-1.3-5.11l-5.2.85-1.05.17c.02.15.05.3.08.45.43,2.46,1.07,4.75,1.95,6.94.6,1.52,1.31,2.99,2.14,4.41.78,1.34,1.68,2.63,2.65,3.84l4.92-3.98c-.77-.96-1.48-1.98-2.09-3.04ZM200,233.65c-3.43,2.14-6.76,3.88-10.1,5.25-1.09.44-2.17.84-3.26,1.21l2.03,6c2.48-.84,4.93-1.84,7.38-3.04,2.42-1.16,4.85-2.52,7.31-4.06l-3.36-5.36ZM164.11,241.48c-2.03-.45-4-1.06-5.85-1.81l-.96,2.35-1.43,3.51c1.36.56,2.76,1.04,4.21,1.45,1.87.54,3.79.95,5.76,1.24,2.11.32,4.26.5,6.43.52l.08-6.33c-2.81-.03-5.59-.35-8.24-.93Z" fill="#f2f2f2" stroke-width="0"/><path d="M39.66,171.02c-1.59-8.62-4.9-16.63-9.55-23.63l2.37-4.85.72-1.46,2.37-4.85-11.23-11.41-10.92,5.55c-4.14-2.87-8.64-5.24-13.42-7.02v118.87c4.56-1.71,8.86-3.95,12.85-6.64l11.75,5.93,11.23-11.41-5.81-11.8c2.04-3.04,3.81-6.27,5.3-9.66,1.86-4.23,3.28-8.7,4.2-13.36l12.02-4.1v-16.14l-11.88-4.02Z" fill="#1b193d" stroke-width="0"/><path d="M0,131.21v103.13c11.93-5.17,21.7-14.48,27.55-26.16,3.83-7.63,5.98-16.26,5.98-25.4,0-23.15-13.82-43.03-33.53-51.57Z" fill="#719bca" stroke-width="0"/><path d="M22.7,157.02c-1.06-1.86-2.23-3.66-3.5-5.37-4.99-6.76-11.58-12.24-19.2-15.85v93.96c9.8-4.65,17.9-12.38,23.1-21.96,4.03-7.42,6.32-15.95,6.32-25.02s-2.45-18.17-6.72-25.76Z" fill="#414d77" stroke-width="0"/><path d="M14.85,164.77c-.96-2-2.07-3.91-3.33-5.72-3.08-4.43-6.99-8.22-11.52-11.13v69.71c4.56-2.92,8.5-6.74,11.58-11.21,4.63-6.7,7.34-14.85,7.34-23.64,0-6.46-1.46-12.57-4.07-18.01Z" fill="#2a2951" stroke-width="0"/><path d="M190.34,241.06c-.99-5.57-3.04-10.75-5.93-15.28l3.39-7.22-6.97-7.38-6.77,3.58c-4.32-3.11-9.28-5.33-14.61-6.38l-2.39-7.53h-9.86l-2.39,7.6c-5.08,1.06-9.81,3.17-13.97,6.11l-7.18-3.39-7.58,8.03,3.71,7.23c-2.59,4.24-4.46,9.01-5.42,14.14l-7.59,3.08v11.36l7.72,2.41c1.03,4.99,2.91,9.64,5.49,13.77l-.12.12-3.34,7.94,7.59,8.03,7.13-4.11.08-.09c3.89,2.66,8.26,4.6,12.93,5.65v.28l2.94,8.11h10.73l2.3-8.25v-.12c4.89-1.08,9.45-3.14,13.47-5.97l7.29,3.83,6.97-7.38-3.6-7.63c2.83-4.42,4.87-9.46,5.89-14.88l7.46-2.65v-10.44l-7.37-2.6ZM152.31,240.1c4.37,0,7.92,3.83,7.92,8.56s-3.55,8.56-7.92,8.56-7.92-3.83-7.92-8.56,3.54-8.56,7.92-8.56Z" fill="#1b193d" stroke-width="0"/><path d="M152.31,212.42c-18.9,0-34.23,16.22-34.23,36.24s15.32,36.24,34.23,36.24,34.23-16.22,34.23-36.24-15.32-36.24-34.23-36.24ZM152.31,240.1c4.37,0,7.92,3.83,7.92,8.56s-3.55,8.56-7.92,8.56-7.92-3.83-7.92-8.56,3.54-8.56,7.92-8.56Z" fill="#719bca" stroke-width="0"/><path d="M152.31,215.13c-17.49,0-31.67,15.01-31.67,33.53s14.18,33.53,31.67,33.53,31.67-15.01,31.67-33.53-14.18-33.53-31.67-33.53ZM152.31,240.1c4.37,0,7.92,3.83,7.92,8.56s-3.55,8.56-7.92,8.56-7.92-3.83-7.92-8.56,3.54-8.56,7.92-8.56Z" fill="#414d77" stroke-width="0"/><path d="M152.31,222.02c-13.89,0-25.16,11.93-25.16,26.64s11.27,26.64,25.16,26.64,25.16-11.92,25.16-26.64-11.26-26.64-25.16-26.64ZM152.31,257.23c-4.37,0-7.92-3.83-7.92-8.56s3.54-8.56,7.92-8.56,7.92,3.83,7.92,8.56-3.55,8.56-7.92,8.56Z" fill="#2a2951" stroke-width="0"/><path d="M152.31,234.03c-7.47,0-13.54,6.55-13.54,14.63s6.06,14.64,13.54,14.64,13.54-6.56,13.54-14.64-6.06-14.63-13.54-14.63ZM152.31,257.23c-4.37,0-7.92-3.83-7.92-8.56s3.54-8.56,7.92-8.56,7.92,3.83,7.92,8.56-3.55,8.56-7.92,8.56Z" fill="#515382" stroke-width="0"/><path d="M321.84,161.72c.3-7.44-.87-14.67-3.31-21.31l6.39-8.32-6.88-11.45-9.72,2.7c-4.68-5.22-10.42-9.46-16.99-12.32l-.95-10.35-12.67-2.78-5.21,9.1c-6.83-.07-13.5,1.31-19.67,3.92l-8.27-6.38-12.01,8.19,2.74,10.33c-4.52,4.72-8.27,10.33-10.95,16.64l-10.62,1.82-3.2,14.6,9.25,5.28c-.08,6.7,1.03,13.21,3.18,19.25l-.19.13-6.53,9.26,7.49,12.46,10.33-3.28.13-.09c4.25,4.52,9.32,8.24,15.03,10.91l-.08.36,1.49,11.26,13.79,3.02,5.28-9.95.03-.15c6.59-.01,13.03-1.37,19-3.88l8.29,6.98,11.04-7.52-2.48-10.83c4.89-4.89,8.92-10.79,11.77-17.47l10.34-1.31,2.94-13.41-8.75-5.42ZM273.22,149.78c5.62,1.23,9.1,7.16,7.77,13.24-1.33,6.08-6.97,10.01-12.59,8.78-5.62-1.23-9.09-7.16-7.76-13.24,1.33-6.07,6.97-10.01,12.59-8.77Z" fill="#f36148" stroke-width="0"/><path d="M281.02,114.2c-24.3-5.33-48.57,11.21-54.21,36.94-5.64,25.73,9.49,50.9,33.79,56.22,24.3,5.33,48.57-11.21,54.21-36.94,5.64-25.73-9.49-50.9-33.79-56.22ZM273.22,149.78c5.62,1.23,9.1,7.16,7.77,13.24-1.33,6.08-6.97,10.01-12.59,8.78-5.62-1.23-9.09-7.16-7.76-13.24,1.33-6.07,6.97-10.01,12.59-8.77Z" fill="#ed7366" stroke-width="0"/><path d="M280.26,117.68c-22.49-4.93-44.94,10.38-50.16,34.18-5.22,23.81,8.78,47.1,31.26,52.03,22.49,4.93,44.95-10.38,50.16-34.18,5.22-23.8-8.78-47.1-31.27-52.02ZM273.22,149.78c5.62,1.23,9.1,7.16,7.77,13.24-1.33,6.08-6.97,10.01-12.59,8.78-5.62-1.23-9.09-7.16-7.76-13.24,1.33-6.07,6.97-10.01,12.59-8.77Z" fill="#ea6157" stroke-width="0"/><path d="M278.32,126.54c-17.86-3.91-35.7,8.24-39.85,27.15-4.15,18.91,6.98,37.42,24.84,41.33,17.86,3.92,35.7-8.24,39.85-27.15,4.14-18.91-6.97-37.41-24.84-41.33ZM268.4,171.79c-5.62-1.23-9.09-7.16-7.76-13.24,1.33-6.07,6.97-10.01,12.59-8.77s9.1,7.16,7.77,13.24c-1.33,6.08-6.97,10.01-12.59,8.78Z" fill="#f36148" stroke-width="0"/><path d="M274.93,141.97c-9.61-2.11-19.24,4.61-21.52,15-2.28,10.39,3.67,20.53,13.27,22.63,9.61,2.11,19.25-4.61,21.53-15,2.28-10.39-3.67-20.52-13.28-22.63ZM268.4,171.79c-5.62-1.23-9.09-7.16-7.76-13.24,1.33-6.07,6.97-10.01,12.59-8.77s9.1,7.16,7.77,13.24c-1.33,6.08-6.97,10.01-12.59,8.78Z" fill="#ed7366" stroke-width="0"/><path d="M146.81,127.88c.2-5.01-.59-9.88-2.23-14.35l4.3-5.6-4.63-7.71-6.54,1.82c-3.15-3.52-7.02-6.37-11.44-8.29l-.64-6.97-8.53-1.87-3.51,6.12c-4.6-.05-9.09.88-13.25,2.64l-5.57-4.29-8.09,5.51,1.84,6.96c-3.04,3.18-5.57,6.96-7.38,11.21l-7.15,1.22-2.15,9.83,6.23,3.55c-.06,4.51.69,8.9,2.14,12.96l-.13.08-4.4,6.24,5.04,8.39,6.95-2.21.08-.06c2.86,3.04,6.27,5.55,10.12,7.34l-.05.24,1,7.58,9.29,2.04,3.55-6.7.02-.1c4.44,0,8.77-.92,12.79-2.61l5.58,4.7,7.43-5.06-1.67-7.29c3.29-3.29,6-7.26,7.92-11.77l6.96-.88,1.98-9.03-5.89-3.65ZM114.08,119.84c3.78.83,6.13,4.82,5.23,8.91-.9,4.09-4.7,6.74-8.48,5.91s-6.12-4.82-5.23-8.91c.9-4.09,4.69-6.74,8.47-5.91Z" fill="#f36148" stroke-width="0"/><path d="M119.33,95.89c-16.36-3.59-32.7,7.55-36.5,24.87-3.8,17.32,6.39,34.27,22.75,37.86,16.36,3.59,32.7-7.55,36.5-24.87,3.8-17.32-6.39-34.27-22.75-37.86ZM114.08,119.84c3.78.83,6.13,4.82,5.23,8.91-.9,4.09-4.7,6.74-8.48,5.91s-6.12-4.82-5.23-8.91c.9-4.09,4.69-6.74,8.47-5.91Z" fill="#ed7366" stroke-width="0"/><path d="M118.82,98.23c-15.14-3.32-30.26,6.99-33.77,23.01-3.51,16.03,5.91,31.71,21.05,35.03,15.14,3.32,30.26-6.99,33.78-23.02,3.51-16.03-5.91-31.71-21.05-35.03ZM114.08,119.84c3.78.83,6.13,4.82,5.23,8.91-.9,4.09-4.7,6.74-8.48,5.91s-6.12-4.82-5.23-8.91c.9-4.09,4.69-6.74,8.47-5.91Z" fill="#ea6157" stroke-width="0"/><path d="M117.51,104.2c-12.02-2.64-24.04,5.55-26.83,18.28-2.79,12.73,4.7,25.19,16.72,27.83,12.03,2.64,24.04-5.55,26.83-18.28,2.79-12.73-4.69-25.19-16.72-27.83ZM110.83,134.66c-3.78-.83-6.12-4.82-5.23-8.91.9-4.09,4.69-6.74,8.47-5.91s6.13,4.82,5.23,8.91c-.9,4.09-4.7,6.74-8.48,5.91Z" fill="#f36148" stroke-width="0"/><path d="M115.24,114.58c-6.47-1.42-12.96,3.1-14.49,10.1-1.53,7,2.47,13.82,8.94,15.24,6.47,1.42,12.96-3.11,14.5-10.1,1.53-7-2.47-13.82-8.94-15.24ZM110.83,134.66c-3.78-.83-6.12-4.82-5.23-8.91.9-4.09,4.69-6.74,8.47-5.91s6.13,4.82,5.23,8.91c-.9,4.09-4.7,6.74-8.48,5.91Z" fill="#ed7366" stroke-width="0"/></g></g></svg>