<?xml version="1.0" encoding="UTF-8"?><svg id="Layer_2" xmlns="http://www.w3.org/2000/svg" xmlns:xlink="http://www.w3.org/1999/xlink" viewBox="0 0 376 812"><defs><linearGradient id="linear-gradient" x1="186.43" y1="6.31" x2="189.33" y2="567.25" gradientUnits="userSpaceOnUse"><stop offset="0" stop-color="#bad0c3"/><stop offset=".41" stop-color="#8cbbb5"/><stop offset=".72" stop-color="#bad0c3"/></linearGradient><linearGradient id="linear-gradient-2" x1="169.92" y1="151.06" x2="194.02" y2="501.61" gradientUnits="userSpaceOnUse"><stop offset="0" stop-color="#fff3e7"/><stop offset=".56" stop-color="#f8d6ba"/><stop offset="1" stop-color="#f9b49d"/></linearGradient><linearGradient id="linear-gradient-3" x1="60.17" y1="242.61" x2="68.45" y2="363.02" gradientTransform="translate(67.35 9.94) rotate(-1.98)" gradientUnits="userSpaceOnUse"><stop offset="0" stop-color="#f9b49d"/><stop offset=".44" stop-color="#f8d6ba"/><stop offset="1" stop-color="#fff3e7"/></linearGradient><linearGradient id="linear-gradient-4" x1="258.18" y1="377.57" x2="240.49" y2="582.73" gradientUnits="userSpaceOnUse"><stop offset="0" stop-color="#795353"/><stop offset=".41" stop-color="#58302f"/><stop offset="1" stop-color="#421514"/></linearGradient><linearGradient id="linear-gradient-5" x1="192.02" y1="372.02" x2="174.35" y2="577.06" xlink:href="#linear-gradient-4"/></defs><g id="Layer_1-2"><g opacity=".07"><path d="M376,222.17v589.83H0V0h376v218.42q0,3.75,0,3.75Z" fill="#f5f5f5" stroke-width="0"/><path d="M376,222.17v274.3H0V0h376v218.42c0,3.74,0,3.75,0,3.75Z" fill="#9dc1be" stroke-width="0"/><path d="M376,222.17v341.7H0V37.75c2.05-.71,4.1-1.41,6.17-2.1,18.07-6.02,36.52-11.03,55.3-14.98,7.48-1.58,15-2.98,22.59-4.21,6.51-1.06,13.05-2,19.63-2.8,4.93-.6,9.88-1.13,14.85-1.59,4.75-.43,9.51-.8,14.29-1.1,3.28-.21,6.58-.38,9.87-.52,3.69-.16,7.39-.28,11.1-.35,2.44-.06,4.88-.09,7.34-.1,1.06-.02,2.12-.02,3.19-.02,9.56,0,19.07.27,28.52.81,2.51.14,4.99.3,7.49.48,4.25.31,8.48.67,12.69,1.08,3.4.33,6.78.7,10.15,1.1,6.26.73,12.48,1.59,18.66,2.56,0,0,.01,0,.01.01,5.09.79,10.15,1.67,15.19,2.63,10.5,1.98,20.89,4.29,31.18,6.93,7.72,1.97,15.36,4.12,22.95,6.46,22.19,6.81,43.82,15.13,64.82,24.87v161.51c0,3.77,0,3.75,0,3.75Z" fill="url(#linear-gradient)" stroke-width="0"/><path d="M376,222.17v386.26l-36.3-.25-6.3-.04-69.65-.49-2.96-.02h-.43l-6.3-.05-11.25-.08-8.49-.06-7.29-.05h-2.08s-7.07-.06-7.07-.06l-13.51-.09-4.22-.03-100.71-.7-6.3-.05-9.86-.07-3.92-.02-59.3-.42-6.3-.04-11.6-.08-2.06-.02h-.09v-220.62l5.87-4.73,17.38-14.01,6.9-5.57,71.7-57.78,4.78-3.86,1.92-1.55,21.58-17.39,96.83,108.1h.01s4.01-4.66,4.01-4.66l.03-.03,4.46-5.19,13.6-15.85h0s5.93-6.9,5.93-6.9h0v-.02l31.42-36.57,27.27-31.74,5.37-6.25,50-58.2,6.91-.82Z" fill="url(#linear-gradient-2)" stroke-width="0"/><polygon points="286.45 319.18 228.19 403.22 189.34 359.12 167.07 354.74 120.43 384.62 78.36 367.2 11.1 400.35 5.87 380.46 130.15 280.3 226.98 388.4 286.45 319.18" fill="url(#linear-gradient-3)" stroke-width="0"/><path d="M317.05,35.93c-1.95-1.33-3.91-2.63-5.87-3.89-7.59-2.34-15.23-4.49-22.95-6.46,30.59,16.38,59.66,39.55,86.5,69.04.42.47.85.94,1.27,1.41v-9.2c-18.54-19.81-38.23-36.82-58.95-50.9ZM359.77,159.75c-10.73-24.1-22.29-45.85-34.58-65.13-14.69-23.03-30.42-42.55-47.1-58.38-6.92-6.57-13.94-12.43-21.04-17.59-5.04-.96-10.1-1.84-15.19-2.63,10.82,6.58,21.45,14.82,31.88,24.72,15.51,14.71,30.2,32.72,43.99,53.88,12.93,19.82,25.06,42.42,36.3,67.64,7.92,17.79,15.26,36.55,21.98,56.16v-18.71c-5.09-13.79-10.51-27.13-16.23-39.96ZM339.02,496.47c-.29-8.85-.65-17.65-1.05-26.39h0c-.65-13.82-1.43-27.48-2.35-41-3.54-51.91-9.1-101.61-16.54-147.89-7.01-43.73-15.72-84.4-25.98-121.01-6.82-24.33-14.17-46.22-21.95-65.56-14.62-36.31-30.79-63.64-47.97-81.17-3.37-.4-6.75-.77-10.15-1.1,7.95,6.97,15.79,16.26,23.46,27.85,9.83,14.83,19.15,33.02,27.9,54.42,8.07,19.73,15.63,42.17,22.65,67.21,10.61,37.85,19.55,80.11,26.67,125.61,7.19,45.87,12.53,95.05,15.91,146.35.96,14.57,1.76,29.3,2.39,44.19.26,6.14.51,12.3.71,18.49.75,22.2,1.13,44.7,1.14,67.4v1.37c0,14.39-.14,28.7-.45,42.9-.01.91-.03,1.81-.05,2.71h6.3c.02-.89.04-1.78.05-2.67.3-14.22.45-28.54.45-42.94v-1.37c-.01-22.7-.39-45.19-1.14-67.4ZM260.55,549.35c-.07-17.78-.25-35.42-.55-52.88-.2-12.36-.46-24.64-.79-36.8-.86-32.79-2.12-64.81-3.76-95.78h0c-.14-2.73-.28-5.42-.43-8.12h0v-.02c-4.01-72.29-10.12-138.6-18.1-195.18-3.45-24.45-7.18-46.48-11.13-65.95-4.57-22.49-9.46-41.58-14.65-57.11-3.52-10.53-7.11-19.27-10.8-26.24-2.5-.18-4.98-.34-7.49-.48,3.78,6.4,7.94,15.57,12.32,28.68,5,15.02,9.75,33.45,14.2,55.15,4.02,19.64,7.8,41.95,11.31,66.82,8.2,58.11,14.42,126.57,18.41,201.22h0c.18,3.22.34,6.45.51,9.68.54,10.62,1.03,21.34,1.48,32.19h0c1.23,29.91,2.11,60.63,2.64,91.94.36,21.25.56,42.75.58,64.46h0v4.31c0,4.63-.01,9.24-.03,13.85h0c0,2.78-.01,5.53-.03,8.28h0c-.03,6.77-.08,13.5-.16,20.21-.01,1.09-.02,2.18-.03,3.27h6.3c.01-.85.02-1.69.02-2.55,0,0,.01,0,0,0,.01-.22.01-.44.01-.66.1-10.22.17-20.5.2-30.83.01-3.65.02-7.29.02-10.95v-1.98c0-4.85-.01-9.69-.03-14.52ZM153.8,10.1c-3.91,7.15-7.72,16.27-11.43,27.41-5.19,15.53-10.08,34.62-14.65,57.11-3.96,19.47-7.68,41.5-11.13,65.95-6,42.53-10.94,90.57-14.73,142.52h0c-1.7,23.28-3.16,47.34-4.39,72.03-1.94,39.05-3.28,79.69-3.97,121.35-.37,22.2-.57,44.7-.58,67.4v1.37c0,13.82.07,27.57.21,41.22.01,1.46.02,2.93.04,4.39h6.3c-.02-1.45-.03-2.89-.04-4.34-.14-13.67-.21-27.44-.21-41.27v-1.37c0-22.7.2-45.2.58-67.4.68-40.77,1.97-80.55,3.84-118.8,1.34-27.52,2.99-54.24,4.92-79.98,3.72-49.56,8.5-95.45,14.25-136.25,3.52-24.87,7.3-47.18,11.32-66.82,4.45-21.7,9.19-40.13,14.2-55.15,4.55-13.66,8.88-23.05,12.8-29.47-2.46,0-4.9.04-7.34.1ZM132.82,10.97c-18.11,17.38-35.15,45.58-50.47,83.65-7.78,19.34-15.13,41.23-21.95,65.56-16.67,59.47-29.22,129.69-37.15,206.27-1,9.66-1.93,19.42-2.78,29.28-2.83,32.67-4.83,66.36-5.98,100.74-.68,20.35-1.06,40.95-1.12,61.72-.01,1.89-.02,3.78-.02,5.68v1.37c0,1.45,0,2.9,0,4.35.02,12.17.15,24.28.39,36.32.03,1.65.06,3.29.1,4.94h6.3c-.04-1.63-.07-3.27-.1-4.9-.27-13.48-.4-27.06-.4-40.71v-2.34c0-2.62,0-5.24.03-7.85.09-19.71.46-39.26,1.11-58.58,1.19-35.53,3.3-70.31,6.28-103.99.95-10.65,1.98-21.19,3.09-31.6,7.92-73.82,20.17-141.51,36.31-199.05,7.02-25.04,14.59-47.48,22.65-67.21,8.73-21.4,18.05-39.59,27.89-54.42,8.39-12.67,16.97-22.59,25.69-29.75-3.29.14-6.59.31-9.87.52ZM103.68,13.66c-9.58,6.27-19.01,13.8-28.27,22.58-16.68,15.83-32.4,35.35-47.09,58.38-9.94,15.59-19.4,32.79-28.32,51.55v14.97c11.1-24.77,23.05-46.99,35.78-66.52,13.79-21.16,28.49-39.17,43.99-53.88,12.63-12,25.57-21.55,38.76-28.67-4.97.46-9.92.99-14.85,1.59ZM61.46,20.67c-8.43,4.56-16.77,9.65-25.02,15.26C23.91,44.45,11.76,54.04,0,64.68v8.38C26.39,48.32,54.61,29.32,84.05,16.46c-7.59,1.23-15.11,2.63-22.59,4.21ZM0,37.75v.89c2.05-1.01,4.1-2.01,6.17-2.99-2.06.69-4.11,1.39-6.17,2.1Z" fill="#f2f2f2" stroke-width="0"/><path d="M302.62,716.25l-.92,6.31-4.26,29.03c-.08.58-.66,1.01-1.34,1.01h-50.22c-.68,0-1.26-.43-1.34-1.01l-4.24-28.93-.94-6.41h63.26Z" fill="#09403b" stroke-width="0"/><path d="M302.62,716.25l-.92,6.31c-7.31,1.37-18.47,2.24-30.97,2.24s-23.12-.83-30.43-2.14l-.94-6.41h63.26Z" fill="#457369" stroke-width="0"/><path d="M231.12,701.93v12.73c0,3.33,17.85,6.03,39.86,6.03s39.86-2.7,39.86-6.03v-12.73h-79.73Z" fill="#04423d" stroke-width="0"/><ellipse cx="270.98" cy="701.93" rx="39.86" ry="6.03" fill="#e5fefa" stroke-width="0"/><ellipse cx="270.98" cy="701.93" rx="35.53" ry="4.78" fill="#736e0b" stroke-width="0"/><polygon points="2.52 603.36 2.21 605.44 2.15 605.83 1.63 609.46 0 620.53 0 603.36 2.52 603.36" fill="#ef6130" stroke-width="0"/><path d="M2.52,603.36l-.3,2.08-.06.39-.53,3.63c-.53.1-1.07.19-1.63.28v-6.38h2.52Z" fill="#cb491c" stroke-width="0"/><path d="M10.48,589.52v12.31c0,1.36-3.09,2.62-8.27,3.61-.68.13-1.38.25-2.12.37h-.02s-.04.01-.07.01v-16.3h10.48Z" fill="#f05f27" stroke-width="0"/><path d="M10.48,589.52c0,1.55-3.98,2.95-10.48,3.99v-7.98c6.5,1.04,10.48,2.44,10.48,3.99Z" fill="#ffaf92" stroke-width="0"/><path d="M6.29,589.52c0,1-2.32,1.91-6.29,2.66v-5.33c3.96.76,6.29,1.67,6.29,2.67Z" fill="#1a3f40" stroke-width="0"/><path d="M285.83,637.13l-1.55,6.05-5.57,27.83c-.14.55-1.11.97-2.25.97h-87.39c-1.14,0-2.11-.42-2.25-.97l-5.54-27.73-1.58-6.15h106.13Z" fill="#ef6130" stroke-width="0"/><path d="M285.83,637.13l-1.55,6.05c-12.26,1.31-30.98,2.15-51.95,2.15s-38.79-.79-51.05-2.05l-1.58-6.15h106.13Z" fill="#cb491c" stroke-width="0"/><path d="M177.1,623.4v12.21c0,3.19,24.92,5.78,55.67,5.78s55.67-2.59,55.67-5.78v-12.21h-111.34Z" fill="#f05f27" stroke-width="0"/><ellipse cx="232.77" cy="623.4" rx="55.67" ry="5.78" fill="#ffaf92" stroke-width="0"/><ellipse cx="232.77" cy="623.4" rx="49.62" ry="4.58" fill="#3a0e0e" stroke-width="0"/><path d="M118.89,766.16l-1.08,7.39-4.98,33.98c-.1.68-.77,1.18-1.57,1.18h-58.78c-.8,0-1.47-.51-1.57-1.18l-4.96-33.87-1.1-7.51h74.05Z" fill="#09403b" stroke-width="0"/><path d="M118.89,766.16l-1.08,7.39c-8.56,1.6-21.62,2.62-36.25,2.62s-27.06-.97-35.62-2.5l-1.1-7.51h74.05Z" fill="#457369" stroke-width="0"/><path d="M35.2,749.39v14.91c0,3.9,20.89,7.06,46.66,7.06s46.66-3.16,46.66-7.06v-14.91H35.2Z" fill="#04423d" stroke-width="0"/><ellipse cx="81.86" cy="749.39" rx="46.66" ry="7.06" fill="#e5fefa" stroke-width="0"/><ellipse cx="81.86" cy="749.39" rx="41.59" ry="5.59" fill="#1a3f40" stroke-width="0"/><path d="M20.81,694.28l-.08.32-1.86,7.29-1.67,8.31-3.39,16.94-1.95,9.75c-.18.69-1.39,1.21-2.83,1.21H0v-43.82h20.81Z" fill="#09403b" stroke-width="0"/><path d="M20.81,694.28l-.08.32-1.86,7.29c-5.38.58-11.75,1.08-18.87,1.49v-9.1h20.81Z" fill="#457369" stroke-width="0"/><path d="M24.1,677.02v15.35c0,.78-1.18,1.53-3.37,2.23-3.95,1.28-11.21,2.4-20.73,3.26v-20.84h24.1Z" fill="#04423d" stroke-width="0"/><path d="M24.1,677.02c0,2.19-9.33,4.15-24.1,5.49v-10.99c2.58.24,4.99.49,7.22.75,3.04.38,5.73.78,8.03,1.21,5.64,1.04,8.85,2.25,8.85,3.54Z" fill="#e5fefa" stroke-width="0"/><path d="M16.49,677.02c0,1.5-6.25,2.87-16.49,3.9v-7.8c2.6.26,4.93.54,6.97.85,3.61.52,6.31,1.11,7.89,1.74,1.06.42,1.62.86,1.62,1.31Z" fill="#736e0b" stroke-width="0"/><path d="M3.01,509.18c-.06,7.46-1.19,15.54-3.01,23.62v-20.91c.63-1.19,1.17-2.22,1.62-3.05.36-.67,1.39-.42,1.39.34Z" fill="#0f524b" stroke-width="0"/><path d="M26.13,553.54c-1.78,3.24-3.97,6.37-6.48,9.36-.26.33-.54.65-.82.97-1.71,1.98-3.55,3.9-5.47,5.72-4.2,4.01-8.8,7.6-13.36,10.62v-14.63c.97-.58,1.95-1.15,2.92-1.71,3.63-2.09,7.21-4.01,10.45-5.68,2.3-1.18,4.44-2.24,6.31-3.14,2.31-1.12,4.23-2.01,5.53-2.6.52-.24,1.2.58.92,1.09Z" fill="#0a443e" stroke-width="0"/><path d="M79.73,603.39c-3.04,23.12-15.23,126.82,4.5,146.16,11.02-18.1,15.94-97.53-2.11-146.43-.44-1.2-2.22-1-2.39.27Z" fill="#0a443e" stroke-width="0"/><path d="M132.36,614.32c-11.04,20.6-57.99,110.94-46.37,135.89,16.73-13.13,48.29-83.26,48.7-135.31.01-1.28-1.73-1.7-2.33-.58Z" fill="#0f524b" stroke-width="0"/><path d="M28.82,616.77c4.71,22.85,26.5,122.12,51.5,134.07,4.48-20.66-16.21-94.64-49.33-135.09-.81-.99-2.43-.23-2.17,1.02Z" fill="#0f524b" stroke-width="0"/><path d="M173.3,688.99c-13.2,24.08-40.51,44.84-61.84,54.94-.89.42-1.78.83-2.65,1.21-4.33,1.92-8.36,3.36-11.92,4.25-.36.09-.73.18-1.08.26-2.28,1.51-6.15,2.5-10.52,2.5-4.62,0-8.65-1.1-10.89-2.76-.27-.2-.53-.41-.74-.63-5.67.19-12.49-1.16-19.84-3.49-1.09-.35-2.19-.71-3.31-1.1-12.01-4.18-25.12-10.65-36.71-17.03-4.95-2.72-9.62-5.43-13.82-7.94v-12.1c5.72.63,11.5,1.69,17.2,3.1,17.04,4.18,33.44,11.36,45.69,18.85,6.87,4.2,12.44,8.5,16.1,12.42.08-.02.16-.04.25-.06.52-.13,1.05-.24,1.61-.33,1.05-.18,2.16-.29,3.33-.34.37-.01.75-.02,1.12-.02.86,0,1.71.04,2.52.11,1.14.1,2.22.28,3.23.51,2.36-4.02,6.02-8.13,10.53-12.22,20.64-18.72,58.91-36.83,70.2-41.96.86-.39,2,.97,1.53,1.83Z" fill="#0a443e" stroke-width="0"/><path d="M15.99,663.53c0,.62-.01,1.24-.03,1.86-.01.61-.04,1.23-.07,1.84-.02.45-.05.89-.09,1.33-.02.36-.05.72-.09,1.07-.07.88-.17,1.76-.29,2.63l-.15,1.11s-.01.08-.02.11c-.1.75-.23,1.49-.37,2.23-.07.44-.16.88-.25,1.31-.06.32-.13.64-.2.96-2.62.43-5.37.82-8.26,1.19-1.99.25-4.04.49-6.16.71v-59.35c2.47,2.82,4.69,5.87,6.64,9.12,4.69,7.79,7.81,16.66,8.9,26.18.29,2.53.44,5.09.44,7.7Z" fill="#736e0b" stroke-width="0"/><path d="M15.99,663.53c0,4.97-.55,9.8-1.58,14.45-2.61.43-5.37.82-8.26,1.18,2.91-16.29,2.98-32.82.48-49.51,4.69,7.78,7.81,16.66,8.91,26.18.29,2.53.44,5.09.44,7.7Z" fill="#877e0e" stroke-width="0"/><path d="M302.5,696.53c0,2.43-.28,4.79-.8,7.05-1.33.21-2.73.4-4.2.58-2.8.34-5.84.62-9.07.84-2.37.16-4.83.28-7.38.37-2,.07-4.05.11-6.13.13-.72,0-1.46,0-2.2,0-1.86,0-3.69-.02-5.48-.06-2.78-.06-5.48-.16-8.07-.32-2.6-.14-5.08-.34-7.43-.56-3.12-.3-5.99-.66-8.57-1.08-1.24-.2-2.41-.41-3.51-.64-.43-2.04-.64-4.15-.64-6.32,0-1.02.05-2.02.15-3.02.39-4.02,1.54-7.82,3.32-11.25,2.22-4.31,5.42-8.04,9.3-10.91,2.48-1.83,5.24-3.32,8.2-4.38,2.31-.83,4.74-1.39,7.26-1.67,1.16-.12,2.33-.19,3.52-.19,1.41,0,2.8.09,4.16.27,1.7.22,3.36.57,4.96,1.05,2.93.87,5.68,2.14,8.19,3.75,3.91,2.52,7.23,5.87,9.69,9.8,2.39,3.8,3.97,8.13,4.53,12.78.15,1.24.23,2.48.23,3.76Z" fill="#736e0b" stroke-width="0"/><path d="M274.92,665.39v40.11c-.72,0-1.46,0-2.2,0-1.86,0-3.69-.02-5.48-.06v-40.14c1.16-.12,2.33-.19,3.52-.19,1.41,0,2.8.09,4.16.27Z" fill="#877e0e" stroke-width="0"/><path d="M288.43,705c-2.37.16-4.83.28-7.38.37,1.9-12.87,1.44-25.85-1.18-38.94,2.93.87,5.68,2.14,8.19,3.75,1.67,11.54,1.77,23.14.37,34.82Z" fill="#877e0e" stroke-width="0"/><path d="M302.5,696.53c0,2.43-.28,4.79-.8,7.05-1.33.21-2.73.4-4.2.58,1.48-7.95,1.51-16.02.25-24.17,2.39,3.8,3.97,8.13,4.53,12.78.15,1.24.23,2.48.23,3.76Z" fill="#877e0e" stroke-width="0"/><path d="M259.16,705.13c-2.6-.14-5.08-.34-7.43-.56-1.38-11.14-1.38-22.21.04-33.22,2.48-1.83,5.24-3.32,8.2-4.38-2.42,12.82-2.75,25.54-.81,38.15Z" fill="#877e0e" stroke-width="0"/><path d="M243.16,703.49c-1.24-.2-2.41-.41-3.51-.64-.43-2.04-.64-4.15-.64-6.32,0-1.02.05-2.02.15-3.02.39-4.02,1.54-7.82,3.32-11.25-.73,7.13-.52,14.21.69,21.23Z" fill="#877e0e" stroke-width="0"/><path d="M376,630.19v22.29c-18.84-9.81-35.6-20.52-42.48-25.03-.89-.58-.24-2.46.87-2.52,13.42-.68,27.8,1.46,41.61,5.26Z" fill="#0a443e" stroke-width="0"/><path d="M353.97,778.2h-33.71c.13-8.65,7.62-15.61,16.85-15.61s16.72,6.96,16.85,15.61Z" fill="#e18e6f" stroke-width="0"/><path d="M376,714.42v13.7h-6.22c.06-5.93,2.56-11.06,6.22-13.7Z" fill="#d4490d" stroke-width="0"/><path d="M1.65,799.7H0v-8.42c1.03,2.6,1.61,5.44,1.65,8.42Z" fill="#d4490d" stroke-width="0"/><path d="M366.17,411.89c-25.55,8.29-55.59,37.72-66.13,51.49-6.96,10.11-13.96,20.3-19.75,31.07.64-3.13,1.3-6.48,1.98-10.1,2.91-14.36,27.99-62.42,17.56-78.61-19.74,13.88-38.46,47.37-44.4,62.42,1.34-10.76,1.71-21.66.53-32.78-1.42-15.63-3.53-43.46-20.75-57.08-18.01,20.17-22.49,61.78-24.19,78.83-.42,8.88-.82,17.81-.68,26.7-2.91-12.03-6.98-23.84-11.04-35.57-6.79-16.97-28.63-55.41-51.41-71.17-11.7,18.58,17.4,73.2,20.87,89.57,8.61,43.44,13.35,52.4,34.19,89.76,7.21,17.76,11.17,36.77,16.07,55.25.59,3.18,5.83,27.46,9.87,9.92,1.32,1.75,2.35,2.57,3.16,2.73,2.67,5.59,5.43-3.97,6.69-9.44,1.7-2.77,3.1-5.54,3.53-6.43,9.08-15.68,17.4-32.1,28.53-46.48,1.88-1.87,3.65-3.64,5.35-5.34-2.36,3.83-4.46,7.79-6.01,12.02-3.77,10.31-1.66,24.22-6.49,34.04-2.85,5.78-7.11,10.69-10.89,15.88-.54.75-2.46,3.12-2.38,4.28.59,9.32,5.81-1.3,6.43-2.7,4.43-7.82,8.4-16.07,14.05-23.13,15.07-13.8,18.54-17.16,27.34-36.09,3.45-7.09,24.71-27.51,19.89-38.45-6.28,1.43-12.87,5.01-18.72,9.14,8.67-10.86,15.29-22.28,25.5-42.96,7.22-14.12,48.06-56.46,41.29-76.77ZM226.36,611.19c-4.66-12.81-10.22-25.38-13.12-38.75-3.88-17.94.36-38.1.86-57.11,4.56,18.7,12.64,36.68,14.3,55.85,1.1,12.78-.69,25.56-1.51,38.3-.04.56-.12,1.52-.19,2.62-.14-.36-.25-.67-.34-.91ZM233.87,554.06c2.64-10.72,5.82-21.37,8.95-32.05-.25,18.16,4.92,37.9,1.31,55.33-2.14,10.31-6.08,20.1-9.71,29.96-.03.05-.07.09-.1.14-.65-17.73-2.32-35.68-.46-53.38ZM243.53,594.88c2.63-10.72,5.45-21.41,9.5-31.65,5.99-10.96,10.43-19.14,13.97-26.59-2.15,13.05-4.16,26.24-9.85,37.26-3.84,7.42-8.66,14.24-13.61,20.97Z" fill="url(#linear-gradient-4)" stroke-width="0"/><path d="M198.75,597.01c-4.98-12.02-.84-28.73-4.45-41.3-2.8-9.77-8.18-18.45-13.51-27.04-5.96-8.34-24.08-25.92-41.43-30.3-7.2,13.04,17.17,38.41,20.71,47.08,8.96,23.14,12.94,27.31,30.27,44.48,6.31,8.71,10.37,18.8,15.07,28.39.63,1.71,6,14.71,7.75,3.48.22-1.41-1.92-4.33-2.52-5.25-4.16-6.39-8.96-12.46-11.89-19.53Z" fill="url(#linear-gradient-5)" stroke-width="0"/><polyline points="376 222.17 376 812 0 812 0 0 376 0 376 218.42" fill="none" stroke-width="0"/></g></g></svg>