<?xml version="1.0" encoding="UTF-8"?><svg id="Layer_2" xmlns="http://www.w3.org/2000/svg" xmlns:xlink="http://www.w3.org/1999/xlink" viewBox="0 0 1285.46 1156.54"><defs><clipPath id="clippath"><rect width="1280" height="1080" fill="none" stroke-width="0"/></clipPath><linearGradient id="linear-gradient" x1="976.17" y1="1014.4" x2="1040" y2="1014.4" gradientUnits="userSpaceOnUse"><stop offset="0" stop-color="#57bf8c"/><stop offset="1" stop-color="#3aa068"/></linearGradient><linearGradient id="linear-gradient-2" x1="822.79" y1="1009.39" x2="869.43" y2="1009.39" gradientUnits="userSpaceOnUse"><stop offset="0" stop-color="#266d4f"/><stop offset="1" stop-color="#2e7d5d"/></linearGradient><linearGradient id="linear-gradient-3" x1="828.93" y1="1034.55" x2="860.84" y2="1034.55" xlink:href="#linear-gradient"/><linearGradient id="linear-gradient-4" x1="1033.06" y1="912.41" x2="1129.78" y2="912.41" xlink:href="#linear-gradient-2"/><linearGradient id="linear-gradient-5" x1="592.9" y1="47.05" x2="732.36" y2="152.75" gradientUnits="userSpaceOnUse"><stop offset="0" stop-color="#db7157"/><stop offset="1" stop-color="#d8583f"/></linearGradient><linearGradient id="linear-gradient-6" x1="1572.71" y1="367.9" x2="1641.78" y2="459.22" gradientTransform="translate(-183.27 -511.02) rotate(24.06)" gradientUnits="userSpaceOnUse"><stop offset="0" stop-color="#51ba78"/><stop offset="1" stop-color="#3bb764"/></linearGradient><linearGradient id="linear-gradient-7" x1="954.78" y1="194.28" x2="1060.73" y2="312.52" gradientUnits="userSpaceOnUse"><stop offset="0" stop-color="#f8b857"/><stop offset="1" stop-color="#f7931e"/></linearGradient><linearGradient id="linear-gradient-8" x1="991.31" y1="138.75" x2="1020.46" y2="171.28" xlink:href="#linear-gradient-7"/><linearGradient id="linear-gradient-9" x1="991.31" y1="331.33" x2="1020.46" y2="363.86" xlink:href="#linear-gradient-7"/><linearGradient id="linear-gradient-10" x1="1024.26" y1="873.36" x2="1053.41" y2="905.89" gradientTransform="translate(63.34 -638.32)" xlink:href="#linear-gradient-7"/><linearGradient id="linear-gradient-11" x1="1024.26" y1="1065.94" x2="1053.41" y2="1098.47" gradientTransform="translate(-129.24 -830.9)" xlink:href="#linear-gradient-7"/><linearGradient id="linear-gradient-12" x1="855.64" y1="512.88" x2="884.79" y2="545.41" gradientTransform="translate(203.76 -345.93)" xlink:href="#linear-gradient-7"/><linearGradient id="linear-gradient-13" x1="855.64" y1="705.46" x2="884.79" y2="737.99" gradientTransform="translate(67.58 -402.33)" xlink:href="#linear-gradient-7"/><linearGradient id="linear-gradient-14" x1="1398.39" y1="1009.03" x2="1427.54" y2="1041.56" gradientTransform="translate(-338.99 -705.9)" xlink:href="#linear-gradient-7"/><linearGradient id="linear-gradient-15" x1="1398.39" y1="1201.61" x2="1427.54" y2="1234.14" gradientTransform="translate(-475.17 -1034.66)" xlink:href="#linear-gradient-7"/><radialGradient id="radial-gradient" cx="273.54" cy="274.58" fx="273.54" fy="309.29" r="47.68" gradientUnits="userSpaceOnUse"><stop offset=".07" stop-color="#74ceea"/><stop offset="1" stop-color="#217abe"/></radialGradient><radialGradient id="radial-gradient-2" cx="339.67" cy="173.81" fx="339.67" fy="198.01" r="33.24" gradientTransform="translate(-16.39 64.73) rotate(-2.65)" xlink:href="#radial-gradient"/></defs><g id="Layer_1-2"><g opacity=".07"><g clip-path="url(#clippath)"><rect width="1285.46" height="1083.51" fill="#dbcead" stroke-width="0"/><ellipse cx="941.72" cy="969.07" rx="15.71" ry="41.34" fill="#3ca281" stroke-width="0"/><line x1="942.96" y1="957.09" x2="942.96" y2="1032.32" fill="none" stroke="#4d4948" stroke-linecap="round" stroke-miterlimit="10" stroke-width="5"/><line x1="942.55" y1="985.61" x2="933.46" y2="970.73" fill="none" stroke="#4d4948" stroke-linecap="round" stroke-miterlimit="10" stroke-width="5"/><line x1="943.17" y1="969.79" x2="949.99" y2="964.11" fill="none" stroke="#4d4948" stroke-linecap="round" stroke-miterlimit="10" stroke-width="5"/><polygon points="1052.94 1031.87 841.87 1031.87 841.87 843.55 949.3 739.91 1052.94 843.55 1052.94 1031.87" fill="#e4985c" stroke-width="0"/><polyline points="830.5 848.61 949.3 731.07 1063.05 844.82" fill="none" stroke="#35784c" stroke-linecap="round" stroke-linejoin="round" stroke-width="11"/><rect x="860.2" y="858.51" width="14.53" height="22.12" fill="#42b9da" stroke-width="0"/><rect x="886.74" y="858.51" width="14.53" height="22.12" fill="#42b9da" stroke-width="0"/><rect x="886.74" y="887.58" width="14.53" height="22.12" fill="#42b9da" stroke-width="0"/><rect x="860.2" y="887.58" width="14.53" height="22.12" fill="#42b9da" stroke-width="0"/><rect x="991.64" y="858.51" width="14.53" height="22.12" fill="#42b9da" stroke-width="0"/><rect x="1018.19" y="858.51" width="14.53" height="22.12" fill="#42b9da" stroke-width="0"/><rect x="1018.19" y="887.58" width="14.53" height="22.12" fill="#42b9da" stroke-width="0"/><rect x="991.64" y="887.58" width="14.53" height="22.12" fill="#42b9da" stroke-width="0"/><rect x="925.92" y="858.51" width="14.53" height="22.12" fill="#42b9da" stroke-width="0"/><rect x="952.46" y="858.51" width="14.53" height="22.12" fill="#42b9da" stroke-width="0"/><rect x="952.46" y="887.58" width="14.53" height="22.12" fill="#42b9da" stroke-width="0"/><rect x="925.92" y="887.58" width="14.53" height="22.12" fill="#42b9da" stroke-width="0"/><rect x="860.2" y="919.18" width="14.53" height="22.12" fill="#42b9da" stroke-width="0"/><rect x="886.74" y="919.18" width="14.53" height="22.12" fill="#42b9da" stroke-width="0"/><rect x="886.74" y="948.25" width="14.53" height="22.12" fill="#42b9da" stroke-width="0"/><rect x="860.2" y="948.25" width="14.53" height="22.12" fill="#42b9da" stroke-width="0"/><rect x="991.64" y="919.18" width="14.53" height="22.12" fill="#42b9da" stroke-width="0"/><rect x="1018.19" y="919.18" width="14.53" height="22.12" fill="#42b9da" stroke-width="0"/><rect x="1018.19" y="948.25" width="14.53" height="22.12" fill="#42b9da" stroke-width="0"/><rect x="991.64" y="948.25" width="14.53" height="22.12" fill="#42b9da" stroke-width="0"/><rect x="925.92" y="919.18" width="14.53" height="22.12" fill="#42b9da" stroke-width="0"/><rect x="952.46" y="919.18" width="14.53" height="22.12" fill="#42b9da" stroke-width="0"/><rect x="952.46" y="948.25" width="14.53" height="22.12" fill="#42b9da" stroke-width="0"/><rect x="925.92" y="948.25" width="14.53" height="22.12" fill="#42b9da" stroke-width="0"/><path d="M1040,1025.45c0,6.4-1.2,12.45-3.35,17.8h-57.13c-2.15-5.35-3.35-11.4-3.35-17.8,0-22.03,14.29-39.89,31.91-39.89s31.91,17.86,31.91,39.89Z" fill="url(#linear-gradient)" stroke-width="0"/><path d="M869.43,1022.55c0,7.62-.88,14.83-2.45,21.21h-41.75c-1.57-6.38-2.45-13.59-2.45-21.21,0-26.25,10.44-47.53,23.32-47.53s23.32,21.28,23.32,47.53Z" fill="url(#linear-gradient-2)" stroke-width="0"/><path d="M1030.18,1051.84s-13.5-11.05-13.5-22.09c7.36,3.68,13.5,13.5,13.5,13.5,0,0,1.23-11.05,2.45-14.73,2.45,3.68,3.68,17.18,3.68,17.18,0,0,8.59-6.14,12.27-6.14-1.23,7.36-8.59,12.27-8.59,12.27h-9.82Z" fill="#307759" stroke-width="0"/><path d="M842.43,1046.21s-13.5-11.05-13.5-22.09c7.36,3.68,13.5,13.5,13.5,13.5,0,0,1.23-11.05,2.45-14.73,2.45,3.68,3.68,17.18,3.68,17.18,0,0,8.59-6.14,12.27-6.14-1.23,7.36-8.59,12.27-8.59,12.27h-9.82Z" fill="url(#linear-gradient-3)" stroke-width="0"/><path d="M1121.18,903.39c-.89-.51-1.82-.92-2.78-1.24.02-.59.03-1.17.03-1.76,0-23.19-12.72-41.98-28.41-41.98-13.14,0-24.2,13.19-27.44,31.1-7.17-2.01-14.13-1.42-19.65,2.28-13.04,8.73-13.16,31.42-.27,50.69,12.89,19.27,26.29,29.51,39.33,20.78.87-.58,1.67-1.23,2.42-1.92,10.15,3.45,31.45-5.72,39.51-19.66,8.78-15.21,7.55-32.35-2.74-38.29Z" fill="url(#linear-gradient-4)" stroke-width="0"/><path d="M1099.49,909.75c-.96-.5-2.15-.29-2.98.4l-10.03,9.2.85-28.3c0-1.52-1.14-2.88-2.65-2.96-1.62-.08-2.96,1.2-2.96,2.8l-.85,46.62-19.58-23.63c-.81-1.32-2.53-1.74-3.86-.93-1.32.81-1.74,2.53-.93,3.86l24.21,31.22c.04.07.1.12.15.18v61.59c0,1.52,1.14,2.88,2.65,2.96,1.62.08,2.96-1.2,2.96-2.8v-83.31l13.62-12.19c1.49-1.24,1.37-3.7-.61-4.72Z" fill="#4d4948" stroke-width="0"/><path d="M1285.46,605.97v477.54H0v-420.85c30.08-10.18,55.9-35.78,69.72-65.23,19.45-41.45,20.29-88.92,19.87-134.7-.43-45.79-1.56-92.88,14.53-135.75,23.35-62.2,84.41-108.45,150.61-114.07,25.48-2.17,52.49.94,75.42-10.38,29.51-14.58,43.22-48.18,63.01-74.49,31.84-42.33,82.57-67.57,134.6-77.5,52.03-9.93,105.71-5.91,158.2,1.19,103.37,13.99,205.14,39.85,302.65,76.89,34.32,13.04,73.07,33.66,77.48,70.1,4.46,36.89-29.62,68.19-32.56,105.24-3.17,39.95,30.47,73.46,65.64,92.69,35.17,19.23,75.31,31.17,104.23,58.92,21.96,21.06,35.33,49.3,48.22,76.86,11.35,24.26,22.75,48.78,33.84,73.54Z" fill="#f1ead6" stroke-width="0"/><path d="M663.18,285.58c-1.47-10.45-10.98-18.28-21.67-22.73-17.15-7.14-33.09,5.39-38.18,10.03-14.01-3.49-16.9-5.06-30.31,2.91-8.38,4.98-19.62,17.15-29.25,19.76-7.22,1.95-15.18,2.05-21.66,5.5-12.47,6.64-13.91,21.96-20.91,33.33-5.41,8.79-14.35,15.3-21.99,22.65-22.94,22.09-39.83,45.72-44.71,81.25-2.29,10.66,6.08,24.44,4.89,35.23-5.87,7.86-12.41,13.51-13.04,27.08-.54,11.58-1.96,22.71,8.15,37.27-9.78,11.94-6.48,33.48-1.4,45.01,8.48,19.27,31.39,32.33,35.77,52.66,4.09,12.1-12.86,29.58-3.73,60.15,14.34,19.8,29.81,27.55,42.97,37.25,8.13,5.99,6.04,11.06,13.41,17.79s22.82,16.89,36.83,11.65c-4.63,11.07-.02,24.81,9.83,32.7,9.85,7.89,23.06,11.54,36.09,13.59,16.4,2.57,35.35,2.25,47.06-8.33,9.52-8.6,11.59-21.56,13.16-33.57,1.87-14.23,2.25-31.55-11.1-39.5,7.79-16.08,10.49-34.15,7.52-51.47v-188.11c-4.48-4.93-8.3-11.15-8.56-17.49-.28-6.86,4.66-12.89,7.24-19.35,2.81-7.04,2.79-14.95-.06-21.97-1.47-3.63-3.68-7.05-4.47-10.84-1.23-5.87,1.05-11.82,3.01-17.54,2.7-7.85,4.77-16.62.86-24.05-2.58-4.9-7.68-9.08-7.69-14.49,0-4.48,3.53-8.25,5.56-12.35,2.59-5.25,2.61-11.17,1.23-16.69-1.35-5.36-6.63-10.78-6.9-16.15-.24-4.87,3.77-7.98,6.47-11.84,4.09-5.87,6.56-12.34,5.57-19.33Z" fill="#f0878e" stroke-width="0"/><path d="M640.83,539.71c-1.15,0-2.31-.4-3.18-1.19-6.82-6.2-13.86-12.62-18.75-20.66-5.69-9.37-7.07-19.53-3.77-27.86.82-2.07,3.37-3.16,5.68-2.43,2.32.73,3.53,3.01,2.71,5.08-2.46,6.21-1.29,14.01,3.2,21.41,4.29,7.06,10.89,13.07,17.27,18.88,1.72,1.57,1.7,4.09-.06,5.63-.87.76-1.99,1.14-3.12,1.14Z" fill="#fc959f" stroke-width="0"/><path d="M607.99,523.84s-.04,0-.06,0c-7.04-.02-13.04-4.7-13.37-10.41-.13-2.19,1.76-4.07,4.21-4.18,2.47-.12,4.55,1.57,4.68,3.77.08,1.44,2.32,2.87,4.51,2.87,3.21.03,6.31-1.98,8.38-3.65,1.83-1.47,4.64-1.35,6.29.29,1.65,1.63,1.51,4.15-.32,5.62-4.69,3.78-9.51,5.7-14.33,5.7Z" fill="#fc959f" stroke-width="0"/><path d="M567.61,502.65c-.28,0-.56-.02-.85-.07-6.63-1.14-12.56-4.96-15.85-10.23-3.3-5.26-3.85-11.77-1.47-17.42.87-2.06,3.44-3.1,5.74-2.32,2.3.77,3.47,3.07,2.6,5.13-1.44,3.42-1.1,7.54.91,10.73,2,3.19,5.74,5.61,9.76,6.3,2.42.42,4,2.5,3.53,4.66-.41,1.9-2.28,3.23-4.37,3.23Z" fill="#fc959f" stroke-width="0"/><path d="M554.2,418.98c-1.41,0-2.8-.6-3.66-1.71-8.16-10.5-12.23-20.77-12.12-30.51.15-12.61,8.01-23.92,19.56-28.14,7.15-2.61,14.76-2.36,21.34-1.93,6.18.41,13.29,1.12,19.47,4.44,6.85,3.68,11.76,10.36,13.13,17.87,1.22,6.71-.3,13.99-4.3,20.5-2.75,4.49-6.18,7.71-10.2,9.57-5.48,2.54-11.93,2.27-16.42-.67-1.98-1.3-2.41-3.79-.96-5.56,1.45-1.77,4.24-2.16,6.23-.86,1.73,1.14,4.64,1.15,7.06.02,2.42-1.12,4.6-3.25,6.48-6.32,3.04-4.96,4.22-10.43,3.32-15.4-.95-5.23-4.29-9.84-8.93-12.33-4.51-2.42-10.39-2.99-15.54-3.33-5.56-.37-11.95-.6-17.31,1.36-8.14,2.97-13.91,11.55-14.02,20.85-.1,8.06,3.44,16.77,10.53,25.88,1.4,1.81.9,4.29-1.12,5.54-.77.48-1.66.71-2.54.71Z" fill="#fc959f" stroke-width="0"/><path d="M494.07,579.02h0c-2.46,0-4.45-1.78-4.45-3.98,0-5.01-2.84-9.91-7.41-12.8-4.57-2.89-10.7-3.65-15.98-1.99-2.32.73-4.86-.36-5.68-2.43-.82-2.07.4-4.35,2.72-5.08,7.97-2.51,17.2-1.36,24.09,3,6.89,4.36,11.18,11.75,11.18,19.3,0,2.2-1.99,3.98-4.45,3.98Z" fill="#fc959f" stroke-width="0"/><path d="M552.89,591.29c-1.19,0-2.38-.43-3.26-1.27-3.92-3.76-6.57-8.42-7.65-13.48-1.21-5.64-.37-11.85,2.34-17.47,3.7-7.64,10.71-13.94,19.25-17.28,2.25-.88,4.88.04,5.87,2.05.99,2.01-.04,4.36-2.3,5.24-6.49,2.54-11.83,7.33-14.64,13.14-2.02,4.17-2.65,8.72-1.77,12.82.75,3.53,2.68,6.92,5.42,9.55,1.68,1.61,1.58,4.13-.22,5.62-.86.71-1.95,1.07-3.03,1.07Z" fill="#fc959f" stroke-width="0"/><path d="M547.78,694.51s-.1,0-.15,0c-6.82-.2-13.88-.41-20.87-1.77-8.25-1.6-14.98-4.58-20.02-8.85-6.22-5.27-9.5-12.52-8.76-19.39.23-2.19,2.41-3.79,4.86-3.58,2.45.21,4.24,2.15,4.01,4.34-.47,4.38,1.84,9.31,6.03,12.86,3.84,3.25,9.15,5.56,15.78,6.85,6.2,1.21,12.85,1.4,19.27,1.59,2.46.07,4.39,1.91,4.31,4.11-.08,2.15-2.06,3.85-4.45,3.85Z" fill="#fc959f" stroke-width="0"/><path d="M627.15,776.8c-4.3,0-8.6-.87-12.49-2.68-2.18-1.01-3.03-3.42-1.9-5.37,1.13-1.95,3.82-2.71,6.01-1.7,7.08,3.29,16.57,1.87,22.08-3.29,1.7-1.59,4.52-1.65,6.3-.13,1.78,1.52,1.85,4.04.15,5.63-5.25,4.91-12.68,7.53-20.14,7.53Z" fill="#fc959f" stroke-width="0"/><path d="M485,494.36c-1.2,0-2.39-.43-3.27-1.28-8.38-8.09-11.52-20.14-8-30.7.7-2.11,3.18-3.31,5.54-2.68,2.36.63,3.7,2.84,3,4.95-2.64,7.92-.28,16.96,6,23.02,1.67,1.61,1.56,4.13-.24,5.62-.86.71-1.94,1.06-3.03,1.06Z" fill="#fc959f" stroke-width="0"/><path d="M597.28,329.8c-1.73,0-3.38-.91-4.1-2.42-3.56-7.48-3.96-15.09-1.11-21.41,3.54-7.86,12.36-12.99,20.98-12.21,2.45.22,4.23,2.18,3.98,4.36-.25,2.19-2.44,3.78-4.88,3.55-4.68-.43-9.75,2.69-11.81,7.26-1.93,4.29-1.55,9.87,1.05,15.32.96,2.02-.09,4.36-2.36,5.22-.57.22-1.16.32-1.74.32Z" fill="#fc959f" stroke-width="0"/><path d="M610.22,425.62c-.39,0-.78-.05-1.18-.14-2.37-.58-3.77-2.77-3.12-4.89,2.32-7.58,9.31-13.81,17.81-15.87,2.37-.57,4.82.68,5.46,2.8.64,2.12-.76,4.31-3.14,4.88-5.42,1.31-10.06,5.44-11.54,10.28-.54,1.77-2.34,2.93-4.29,2.93Z" fill="#fc959f" stroke-width="0"/><path d="M641.06,620.97c-1.49,0-2.94-.67-3.79-1.88-1.3-1.87-.66-4.32,1.43-5.48,2.54-1.41,4.5-3.69,5.38-6.24,1.62-4.73-.31-10.52-1.86-15.18-.7-2.11.64-4.32,3-4.95,2.36-.63,4.84.57,5.54,2.68,1.79,5.38,4.25,12.75,1.84,19.78-1.5,4.37-4.85,8.26-9.19,10.67-.73.41-1.54.6-2.35.6Z" fill="#fc959f" stroke-width="0"/><path d="M586.93,766.67c-.78,0-1.58-.19-2.3-.57-11.7-6.32-19.52-18.29-19.92-30.5-.07-2.2,1.86-4.03,4.32-4.09,2.45-.06,4.51,1.66,4.58,3.86.31,9.58,6.45,18.97,15.62,23.92,2.11,1.14,2.78,3.58,1.51,5.46-.84,1.24-2.31,1.92-3.82,1.92Z" fill="#fc959f" stroke-width="0"/><path d="M574.1,503.26c-2.35,0-4.32-1.65-4.44-3.77-.13-2.19,1.76-4.07,4.22-4.18,1.33-.06,2.9-1.54,3.64-3.44.61-1.57.85-3.4,1.11-5.33.16-1.17.32-2.38.57-3.62,1.05-5.14,3.65-8.89,7.51-10.85,2.95-1.49,6.02-1.66,8.74-1.82,1.23-.07,2.39-.14,3.39-.32,3.27-.6,6.34-2.77,8.96-4.76l1.01-.77c3.14-2.41,6.39-4.9,10.6-6.42,6.09-2.2,12.66-1.39,16.74,2.06,1.79,1.51,1.86,4.03.17,5.63-1.69,1.6-4.51,1.67-6.3.15-1.76-1.49-5-1.28-7.27-.46-2.85,1.03-5.42,3-8.14,5.08l-1.04.8c-3.72,2.82-7.86,5.56-12.94,6.49-1.61.29-3.14.38-4.62.46-2.01.11-3.75.21-4.91.8-1.98,1-2.82,3.78-3.14,5.35-.2.99-.34,2.03-.49,3.13-.3,2.27-.61,4.62-1.54,7.01-1.98,5.1-6.53,8.54-11.59,8.77-.08,0-.16,0-.23,0Z" fill="#d6656b" stroke-width="0"/><path d="M522.61,506.53c-1.57,0-3.09-.74-3.9-2.05-4.96-7.99-4.43-17.35-4.01-24.88.31-5.63.64-11.45,2.61-17.18,2.34-6.82,6.8-12.23,12.55-15.23,1.72-.9,3.46-1.54,5.14-2.17,2-.74,3.88-1.44,5.28-2.43,1.43-1.02,2.64-2.55,3.92-4.17,1.01-1.27,2.04-2.59,3.32-3.84,8.13-8,21.2-8.99,30.32-9.04,6.44-.04,14,.25,21.07,2.62,8.05,2.7,14.13,7.79,16.69,13.97.85,2.06-.33,4.35-2.63,5.11-2.31.76-4.87-.29-5.72-2.35-1.64-3.95-5.92-7.42-11.46-9.28-5.72-1.92-12.25-2.15-17.89-2.12-7.44.04-18.01.75-23.78,6.43-.91.89-1.75,1.96-2.64,3.08-1.51,1.91-3.23,4.08-5.66,5.81-2.37,1.68-5.04,2.67-7.4,3.54-1.47.55-2.86,1.06-4.06,1.68-3.81,1.99-6.84,5.79-8.53,10.7-1.64,4.78-1.94,10.1-2.23,15.24-.46,8.29-.54,15.07,2.91,20.62,1.19,1.92.42,4.34-1.74,5.41-.68.34-1.43.5-2.16.5Z" fill="#d6656b" stroke-width="0"/><path d="M484.49,406.88c-.35,0-.71-.04-1.07-.12-6.5-1.44-13.19-2.02-19.88-1.72-2.45.11-4.55-1.58-4.67-3.78-.12-2.2,1.77-4.06,4.23-4.17,7.56-.34,15.12.32,22.47,1.94,2.39.53,3.85,2.69,3.25,4.82-.5,1.81-2.32,3.02-4.32,3.02Z" fill="#d6656b" stroke-width="0"/><path d="M502.33,351.92c-2.36,0-4.32-1.65-4.44-3.78-.18-3.23,1.89-6.08,6.17-8.47,13.69-7.64,30.58-10.25,46.34-7.17,2.4.47,3.93,2.59,3.4,4.74-.53,2.15-2.9,3.51-5.3,3.04-13.51-2.64-27.99-.4-39.72,6.14-1.42.79-1.87,1.3-1.99,1.47.03,2.13-1.83,3.91-4.23,4.02-.08,0-.15,0-.23,0Z" fill="#d6656b" stroke-width="0"/><path d="M598.11,290.44c-2.37,0-4.34-1.67-4.45-3.81-.23-4.69,1.42-9.32,4.63-13.03,3.21-3.71,7.81-6.3,12.95-7.28,2.41-.46,4.77.91,5.29,3.06.52,2.15-1.02,4.26-3.42,4.72-3.04.58-5.87,2.17-7.77,4.37-1.9,2.2-2.91,5.05-2.78,7.82.11,2.2-1.8,4.05-4.26,4.15-.07,0-.13,0-.2,0Z" fill="#d6656b" stroke-width="0"/><path d="M542.63,323.38c-.25,0-.51-.02-.76-.06-2.42-.37-4.05-2.43-3.63-4.6,1.92-9.93,8.84-18.95,18.53-24.12,2.11-1.13,4.85-.51,6.11,1.38,1.26,1.89.57,4.33-1.54,5.46-7.48,3.99-12.84,10.96-14.32,18.64-.37,1.94-2.26,3.3-4.38,3.3Z" fill="#d6656b" stroke-width="0"/><path d="M557.58,653.26c-2.22,0-4.14-1.48-4.42-3.5-1.08-7.88-5.94-15.46-13.02-20.27-7.07-4.81-16.54-6.98-25.33-5.81-2.43.32-4.7-1.18-5.06-3.35-.36-2.17,1.32-4.2,3.75-4.52,11.28-1.5,22.96,1.18,32.04,7.35,9.08,6.17,15.08,15.52,16.46,25.63.3,2.18-1.44,4.17-3.88,4.43-.18.02-.37.03-.55.03Z" fill="#d6656b" stroke-width="0"/><path d="M564.32,635.03c-1.05,0-2.1-.33-2.95-1-4.06-3.21-7.18-7.8-9.04-13.27-1.6-4.72-2.15-9.63-2.5-14.23-.18-2.4-.28-4.76.59-7.2,1.23-3.46,4.21-5.98,7.77-6.58,2.39-.4,4.64,1,5.12,3.13.49,2.13-1.1,4.23-3.47,4.69-.15.03-.67.44-.93,1.17-.4,1.11-.32,2.58-.19,4.24.37,4.78.87,8.72,2.14,12.47,1.38,4.06,3.6,7.39,6.42,9.62,1.84,1.46,2.01,3.97.38,5.62-.88.89-2.11,1.34-3.34,1.34Z" fill="#d6656b" stroke-width="0"/><path d="M622.41,661.14c-.22,0-.43,0-.65,0-4.8-.04-10.98-.47-16.29-3.42-5.17-2.87-8.96-7.94-10.41-13.92-1.12-4.64-.92-9.75.61-15.62.56-2.14,2.95-3.47,5.35-2.97,2.4.5,3.89,2.64,3.33,4.78-1.23,4.7-1.42,8.67-.58,12.14.94,3.88,3.27,7.1,6.4,8.84,3.43,1.91,8.05,2.19,11.68,2.22,6.31.06,17.74-.85,23.35-7.6,1.47-1.76,4.26-2.13,6.23-.82,1.98,1.31,2.39,3.8.92,5.57-5.81,6.99-16.42,10.82-29.94,10.82Z" fill="#d6656b" stroke-width="0"/><path d="M565.73,730.15c-2.38,0-4.35-1.68-4.45-3.82-.22-4.84-3.16-9.54-7.65-12.26-4.49-2.72-10.47-3.4-15.58-1.79-2.32.73-4.86-.35-5.68-2.43-.82-2.07.4-4.35,2.72-5.08,7.73-2.44,16.75-1.4,23.54,2.7,6.79,4.11,11.22,11.2,11.56,18.52.1,2.2-1.81,4.05-4.27,4.14-.06,0-.13,0-.19,0Z" fill="#d6656b" stroke-width="0"/><path d="M612.54,795.5c-5.56,0-11.06-2-14.99-5.56-4.8-4.35-6.94-10.77-5.6-16.76.91-4.07,3.29-7.49,6.69-9.65,4.13-2.62,9.52-3.05,13.75-1.11,2.19,1.01,3.05,3.41,1.92,5.36-1.13,1.95-3.81,2.72-6,1.71-1.24-.57-3.13-.35-4.51.52-1.52.96-2.65,2.69-3.11,4.72-.76,3.38.5,7.15,3.21,9.61,2.71,2.46,6.91,3.64,10.71,3.02,2.42-.4,4.74,1.03,5.19,3.19.45,2.16-1.15,4.24-3.57,4.63-1.22.2-2.45.3-3.68.3Z" fill="#d6656b" stroke-width="0"/><path d="M631.88,710.13c-3.49,0-6.99-.67-10.14-2-5.96-2.52-10.65-7.39-12.55-13.04-.71-2.11.63-4.32,2.99-4.95,2.36-.63,4.84.56,5.55,2.67,1.18,3.52,4.11,6.56,7.82,8.13,3.72,1.57,8.2,1.66,12,.25,2.27-.85,4.88.11,5.83,2.14.95,2.03-.12,4.36-2.39,5.21-2.87,1.07-5.99,1.6-9.1,1.6Z" fill="#d6656b" stroke-width="0"/><path d="M457.41,613.97c-1.6,0-3.14-.77-3.94-2.12-4.39-7.42-2.27-17.08,4.91-22.47,1.88-1.41,4.69-1.2,6.28.49,1.58,1.68,1.34,4.19-.55,5.61-3.92,2.94-5.16,8.62-2.77,12.66,1.15,1.94.32,4.35-1.86,5.38-.66.31-1.38.46-2.08.46Z" fill="#d6656b" stroke-width="0"/><path d="M465.55,504.6c-.23,0-.45-.02-.68-.05-5.93-.81-11.39-3.46-15.38-7.45-4-3.99-6.33-9.14-6.58-14.49-.1-2.2,1.81-4.05,4.27-4.14,2.46-.08,4.53,1.62,4.63,3.81.16,3.46,1.73,6.93,4.32,9.51,2.58,2.58,6.26,4.36,10.1,4.89,2.43.33,4.1,2.37,3.73,4.54-.34,1.97-2.24,3.38-4.4,3.38Z" fill="#d6656b" stroke-width="0"/><path d="M680.75,284.88c1.47-10.45,10.98-18.28,21.67-22.73,17.15-7.14,33.09,5.39,38.18,10.03,14.01-3.49,16.9-5.06,30.31,2.91,8.38,4.98,19.62,17.15,29.25,19.76,7.22,1.95,15.18,2.05,21.66,5.5,12.47,6.64,13.91,21.96,20.91,33.33,5.41,8.79,14.35,15.3,21.99,22.65,22.94,22.09,39.83,45.72,44.71,81.25,2.29,10.66-6.08,24.44-4.89,35.23,5.87,7.86,12.41,13.51,13.04,27.08.54,11.58,1.96,22.71-8.15,37.27,9.78,11.94,6.48,33.48,1.4,45.01-8.48,19.27-31.39,32.33-35.77,52.66-4.09,12.1,12.86,29.58,3.73,60.15-14.34,19.8-29.81,27.55-42.97,37.25-8.13,5.99-6.04,11.06-13.41,17.79-7.37,6.73-22.82,16.89-36.83,11.65,4.63,11.07.02,24.81-9.83,32.7-9.85,7.89-23.06,11.54-36.09,13.59-16.4,2.57-35.35,2.25-47.06-8.33-9.52-8.6-11.59-21.56-13.16-33.57-1.87-14.23-2.25-31.55,11.1-39.5-7.79-16.08-10.49-34.15-7.52-51.47v-188.11c4.48-4.93,8.3-11.15,8.56-17.49.28-6.86-4.66-12.89-7.24-19.35-2.81-7.04-2.79-14.95.06-21.97,1.47-3.63,3.68-7.05,4.47-10.84,1.23-5.87-1.05-11.82-3.01-17.54-2.7-7.85-4.77-16.62-.86-24.05,2.58-4.9,7.68-9.08,7.69-14.49,0-4.48-3.53-8.25-5.56-12.35-2.59-5.25-2.61-11.17-1.23-16.69,1.35-5.36,6.63-10.78,6.9-16.15.24-4.87-3.77-7.98-6.47-11.84-4.09-5.87-6.56-12.34-5.57-19.33Z" fill="#9a9fe5" stroke-width="0"/><path d="M703.09,539.01c1.15,0,2.31-.4,3.18-1.19,6.82-6.2,13.86-12.62,18.75-20.66,5.69-9.37,7.07-19.53,3.77-27.86-.82-2.07-3.37-3.16-5.68-2.43-2.32.73-3.53,3.01-2.71,5.08,2.46,6.21,1.29,14.01-3.2,21.41-4.29,7.06-10.89,13.07-17.27,18.88-1.72,1.57-1.7,4.09.06,5.63.87.76,1.99,1.14,3.12,1.14Z" fill="#a9aff1" stroke-width="0"/><path d="M735.93,523.14s.04,0,.06,0c7.04-.02,13.04-4.7,13.37-10.41.13-2.19-1.76-4.07-4.21-4.18-2.47-.12-4.55,1.57-4.68,3.77-.08,1.44-2.32,2.87-4.51,2.87-3.21.03-6.31-1.98-8.38-3.65-1.83-1.47-4.64-1.35-6.29.29-1.65,1.63-1.51,4.15.32,5.62,4.69,3.78,9.51,5.7,14.33,5.7Z" fill="#a9aff1" stroke-width="0"/><path d="M776.31,501.95c.28,0,.56-.02.85-.07,6.63-1.14,12.56-4.96,15.85-10.23,3.3-5.26,3.85-11.77,1.47-17.42-.87-2.06-3.44-3.1-5.74-2.32-2.3.77-3.47,3.07-2.6,5.13,1.44,3.42,1.1,7.54-.91,10.73-2,3.19-5.74,5.61-9.76,6.3-2.42.42-4,2.5-3.53,4.66.41,1.9,2.28,3.23,4.37,3.23Z" fill="#a9aff1" stroke-width="0"/><path d="M789.72,418.28c1.41,0,2.8-.6,3.66-1.71,8.16-10.5,12.23-20.77,12.12-30.51-.15-12.61-8.01-23.92-19.56-28.14-7.15-2.61-14.76-2.36-21.34-1.93-6.18.41-13.29,1.12-19.47,4.44-6.85,3.68-11.76,10.36-13.13,17.87-1.22,6.71.3,13.99,4.3,20.5,2.75,4.49,6.18,7.71,10.2,9.57,5.48,2.54,11.93,2.27,16.42-.67,1.98-1.3,2.41-3.79.96-5.56-1.45-1.77-4.24-2.16-6.23-.86-1.73,1.14-4.64,1.15-7.06.02-2.42-1.12-4.6-3.25-6.48-6.32-3.04-4.96-4.22-10.43-3.32-15.4.95-5.23,4.29-9.84,8.93-12.33,4.51-2.42,10.39-2.99,15.54-3.33,5.56-.37,11.95-.6,17.31,1.36,8.14,2.97,13.91,11.55,14.02,20.85.1,8.06-3.44,16.77-10.53,25.88-1.4,1.81-.9,4.29,1.12,5.54.77.48,1.66.71,2.54.71Z" fill="#a9aff1" stroke-width="0"/><path d="M849.85,578.31h0c2.46,0,4.45-1.78,4.45-3.98,0-5.01,2.84-9.91,7.41-12.8,4.57-2.89,10.7-3.65,15.98-1.99,2.32.73,4.86-.36,5.68-2.43.82-2.07-.4-4.35-2.72-5.08-7.97-2.51-17.2-1.36-24.09,3-6.89,4.36-11.18,11.75-11.18,19.3,0,2.2,1.99,3.98,4.45,3.98Z" fill="#a9aff1" stroke-width="0"/><path d="M791.03,590.59c1.19,0,2.38-.43,3.26-1.27,3.92-3.76,6.57-8.42,7.65-13.48,1.21-5.64.37-11.85-2.34-17.47-3.7-7.64-10.71-13.94-19.25-17.28-2.25-.88-4.88.04-5.87,2.05-.99,2.01.04,4.36,2.3,5.24,6.49,2.54,11.83,7.33,14.64,13.14,2.02,4.17,2.65,8.72,1.77,12.82-.75,3.53-2.68,6.92-5.42,9.55-1.68,1.61-1.58,4.13.22,5.62.86.71,1.95,1.07,3.03,1.07Z" fill="#a9aff1" stroke-width="0"/><path d="M796.14,693.81s.1,0,.15,0c6.82-.2,13.88-.41,20.87-1.77,8.25-1.6,14.98-4.58,20.02-8.85,6.22-5.27,9.5-12.52,8.76-19.39-.23-2.19-2.41-3.79-4.86-3.58-2.45.21-4.24,2.15-4.01,4.34.47,4.38-1.84,9.31-6.03,12.86-3.84,3.25-9.15,5.56-15.78,6.85-6.2,1.21-12.85,1.4-19.27,1.59-2.46.07-4.39,1.91-4.31,4.11.08,2.15,2.06,3.85,4.45,3.85Z" fill="#a9aff1" stroke-width="0"/><path d="M716.77,776.09c4.3,0,8.6-.87,12.49-2.68,2.18-1.01,3.03-3.42,1.9-5.37-1.13-1.95-3.82-2.71-6.01-1.7-7.08,3.29-16.57,1.87-22.08-3.29-1.7-1.59-4.52-1.65-6.3-.13-1.78,1.52-1.85,4.04-.15,5.63,5.25,4.91,12.68,7.53,20.14,7.53Z" fill="#a9aff1" stroke-width="0"/><path d="M858.92,493.66c1.2,0,2.39-.43,3.27-1.28,8.38-8.09,11.52-20.14,8-30.7-.7-2.11-3.18-3.31-5.54-2.68-2.36.63-3.7,2.84-3,4.95,2.64,7.92.28,16.96-6,23.02-1.67,1.61-1.56,4.13.24,5.62.86.71,1.94,1.06,3.03,1.06Z" fill="#a9aff1" stroke-width="0"/><path d="M746.65,329.09c1.73,0,3.38-.91,4.1-2.42,3.56-7.48,3.96-15.09,1.11-21.41-3.54-7.86-12.36-12.99-20.98-12.21-2.45.22-4.23,2.18-3.98,4.36.25,2.19,2.44,3.78,4.88,3.55,4.68-.43,9.75,2.69,11.81,7.26,1.93,4.29,1.55,9.87-1.05,15.32-.96,2.02.09,4.36,2.36,5.22.57.22,1.16.32,1.74.32Z" fill="#a9aff1" stroke-width="0"/><path d="M733.7,424.92c.39,0,.78-.05,1.18-.14,2.37-.58,3.77-2.77,3.12-4.89-2.32-7.58-9.31-13.81-17.81-15.87-2.37-.57-4.82.68-5.46,2.8-.64,2.12.76,4.31,3.14,4.88,5.42,1.31,10.06,5.44,11.54,10.28.54,1.77,2.34,2.93,4.29,2.93Z" fill="#a9aff1" stroke-width="0"/><path d="M702.87,620.27c1.49,0,2.94-.67,3.79-1.88,1.3-1.87.66-4.32-1.43-5.48-2.54-1.41-4.5-3.69-5.38-6.24-1.62-4.73.31-10.52,1.86-15.18.7-2.11-.64-4.32-3-4.95-2.36-.63-4.84.57-5.54,2.68-1.79,5.38-4.25,12.75-1.84,19.78,1.5,4.37,4.85,8.26,9.19,10.67.73.41,1.54.6,2.35.6Z" fill="#a9aff1" stroke-width="0"/><path d="M756.99,765.96c.78,0,1.58-.19,2.3-.57,11.7-6.32,19.52-18.29,19.92-30.5.07-2.2-1.86-4.03-4.32-4.09-2.45-.06-4.51,1.66-4.58,3.86-.31,9.58-6.45,18.97-15.62,23.92-2.11,1.14-2.78,3.58-1.51,5.46.84,1.24,2.31,1.92,3.82,1.92Z" fill="#a9aff1" stroke-width="0"/><path d="M769.82,502.56c2.35,0,4.32-1.65,4.44-3.77.13-2.19-1.76-4.07-4.22-4.18-1.33-.06-2.9-1.54-3.64-3.44-.61-1.57-.85-3.4-1.11-5.33-.16-1.17-.32-2.38-.57-3.62-1.05-5.14-3.65-8.89-7.51-10.85-2.95-1.49-6.02-1.66-8.74-1.82-1.23-.07-2.39-.14-3.39-.32-3.27-.6-6.34-2.77-8.96-4.76l-1.01-.77c-3.14-2.41-6.39-4.9-10.6-6.42-6.09-2.2-12.66-1.39-16.74,2.06-1.79,1.51-1.86,4.03-.17,5.63,1.69,1.6,4.51,1.67,6.3.15,1.76-1.49,5-1.28,7.27-.46,2.85,1.03,5.42,3,8.14,5.08l1.04.8c3.72,2.82,7.86,5.56,12.94,6.49,1.61.29,3.14.38,4.62.46,2.01.11,3.75.21,4.91.8,1.98,1,2.82,3.78,3.14,5.35.2.99.34,2.03.49,3.13.3,2.27.61,4.62,1.54,7.01,1.98,5.1,6.53,8.54,11.59,8.77.08,0,.16,0,.23,0Z" fill="#767bcb" stroke-width="0"/><path d="M821.31,505.82c1.57,0,3.09-.74,3.9-2.05,4.96-7.99,4.43-17.35,4.01-24.88-.31-5.63-.64-11.45-2.61-17.18-2.34-6.82-6.8-12.23-12.55-15.23-1.72-.9-3.46-1.54-5.14-2.17-2-.74-3.88-1.44-5.28-2.43-1.43-1.02-2.64-2.55-3.92-4.17-1.01-1.27-2.04-2.59-3.32-3.84-8.13-8-21.2-8.99-30.32-9.04-6.44-.04-14,.25-21.07,2.62-8.05,2.7-14.13,7.79-16.69,13.97-.85,2.06.33,4.35,2.63,5.11,2.31.76,4.87-.29,5.72-2.35,1.64-3.95,5.92-7.42,11.46-9.28,5.72-1.92,12.25-2.15,17.89-2.12,7.44.04,18.01.75,23.78,6.43.91.89,1.75,1.96,2.64,3.08,1.51,1.91,3.23,4.08,5.66,5.81,2.37,1.68,5.04,2.67,7.4,3.54,1.47.55,2.86,1.06,4.06,1.68,3.81,1.99,6.84,5.79,8.53,10.7,1.64,4.78,1.94,10.1,2.23,15.24.46,8.29.54,15.07-2.91,20.62-1.19,1.92-.42,4.34,1.74,5.41.68.34,1.43.5,2.16.5Z" fill="#767bcb" stroke-width="0"/><path d="M859.43,406.17c.35,0,.71-.04,1.07-.12,6.5-1.44,13.19-2.02,19.88-1.72,2.45.11,4.55-1.58,4.67-3.78.12-2.2-1.77-4.06-4.23-4.17-7.56-.34-15.12.32-22.47,1.94-2.39.53-3.85,2.69-3.25,4.82.5,1.81,2.32,3.02,4.32,3.02Z" fill="#767bcb" stroke-width="0"/><path d="M841.59,351.21c2.36,0,4.32-1.65,4.44-3.78.18-3.23-1.89-6.08-6.17-8.47-13.69-7.64-30.58-10.25-46.34-7.17-2.4.47-3.93,2.59-3.4,4.74.53,2.15,2.9,3.51,5.3,3.04,13.51-2.64,27.99-.4,39.72,6.14,1.42.79,1.87,1.3,1.99,1.47-.03,2.13,1.83,3.91,4.23,4.02.08,0,.15,0,.23,0Z" fill="#767bcb" stroke-width="0"/><path d="M745.81,289.74c2.37,0,4.34-1.67,4.45-3.81.23-4.69-1.42-9.32-4.63-13.03-3.21-3.71-7.81-6.3-12.95-7.28-2.41-.46-4.77.91-5.29,3.06-.52,2.15,1.02,4.26,3.42,4.72,3.04.58,5.87,2.17,7.77,4.37,1.9,2.2,2.91,5.05,2.78,7.82-.11,2.2,1.8,4.05,4.26,4.15.07,0,.13,0,.2,0Z" fill="#767bcb" stroke-width="0"/><path d="M801.29,322.67c.25,0,.51-.02.76-.06,2.42-.37,4.05-2.43,3.63-4.6-1.92-9.93-8.84-18.95-18.53-24.12-2.11-1.13-4.85-.51-6.11,1.38-1.26,1.89-.57,4.33,1.54,5.46,7.48,3.99,12.84,10.96,14.32,18.64.37,1.94,2.26,3.3,4.38,3.3Z" fill="#767bcb" stroke-width="0"/><path d="M786.34,652.55c2.22,0,4.14-1.48,4.42-3.5,1.08-7.88,5.94-15.46,13.02-20.27,7.07-4.81,16.54-6.98,25.33-5.81,2.43.32,4.7-1.18,5.06-3.35.36-2.17-1.32-4.2-3.75-4.52-11.28-1.5-22.96,1.18-32.04,7.35-9.08,6.17-15.08,15.52-16.46,25.63-.3,2.18,1.44,4.17,3.88,4.43.18.02.37.03.55.03Z" fill="#767bcb" stroke-width="0"/><path d="M779.61,634.32c1.05,0,2.1-.33,2.95-1,4.06-3.21,7.18-7.8,9.04-13.27,1.6-4.72,2.15-9.63,2.5-14.23.18-2.4.28-4.76-.59-7.2-1.23-3.46-4.21-5.98-7.77-6.58-2.39-.4-4.64,1-5.12,3.13-.49,2.13,1.1,4.23,3.47,4.69.15.03.67.44.93,1.17.4,1.11.32,2.58.19,4.24-.37,4.78-.87,8.72-2.14,12.47-1.38,4.06-3.6,7.39-6.42,9.62-1.84,1.46-2.01,3.97-.38,5.62.88.89,2.11,1.34,3.34,1.34Z" fill="#767bcb" stroke-width="0"/><path d="M721.51,660.43c.22,0,.43,0,.65,0,4.8-.04,10.98-.47,16.29-3.42,5.17-2.87,8.96-7.94,10.41-13.92,1.12-4.64.92-9.75-.61-15.62-.56-2.14-2.95-3.47-5.35-2.97-2.4.5-3.89,2.64-3.33,4.78,1.23,4.7,1.42,8.67.58,12.14-.94,3.88-3.27,7.1-6.4,8.84-3.43,1.91-8.05,2.19-11.68,2.22-6.31.06-17.74-.85-23.35-7.6-1.47-1.76-4.26-2.13-6.23-.82-1.98,1.31-2.39,3.8-.92,5.57,5.81,6.99,16.42,10.82,29.94,10.82Z" fill="#767bcb" stroke-width="0"/><path d="M778.2,729.45c2.38,0,4.35-1.68,4.45-3.82.22-4.84,3.16-9.54,7.65-12.26,4.49-2.72,10.47-3.4,15.58-1.79,2.32.73,4.86-.35,5.68-2.43.82-2.07-.4-4.35-2.72-5.08-7.73-2.44-16.75-1.4-23.54,2.7-6.79,4.11-11.22,11.2-11.56,18.52-.1,2.2,1.81,4.05,4.27,4.14.06,0,.13,0,.19,0Z" fill="#767bcb" stroke-width="0"/><path d="M731.38,794.79c5.56,0,11.06-2,14.99-5.56,4.8-4.35,6.94-10.77,5.6-16.76-.91-4.07-3.29-7.49-6.69-9.65-4.13-2.62-9.52-3.05-13.75-1.11-2.19,1.01-3.05,3.41-1.92,5.36,1.13,1.95,3.81,2.72,6,1.71,1.24-.57,3.13-.35,4.51.52,1.52.96,2.65,2.69,3.11,4.72.76,3.38-.5,7.15-3.21,9.61-2.71,2.46-6.91,3.64-10.71,3.02-2.42-.4-4.74,1.03-5.19,3.19-.45,2.16,1.15,4.24,3.57,4.63,1.22.2,2.45.3,3.68.3Z" fill="#767bcb" stroke-width="0"/><path d="M712.04,709.43c3.49,0,6.99-.67,10.14-2,5.96-2.52,10.65-7.39,12.55-13.04.71-2.11-.63-4.32-2.99-4.95-2.36-.63-4.84.56-5.55,2.67-1.18,3.52-4.11,6.56-7.82,8.13-3.72,1.57-8.2,1.66-12,.25-2.27-.85-4.88.11-5.83,2.14-.95,2.03.12,4.36,2.39,5.21,2.87,1.07,5.99,1.6,9.1,1.6Z" fill="#767bcb" stroke-width="0"/><path d="M886.51,613.26c1.6,0,3.14-.77,3.94-2.12,4.39-7.42,2.27-17.08-4.91-22.47-1.88-1.41-4.69-1.2-6.28.49-1.58,1.68-1.34,4.19.55,5.61,3.92,2.94,5.16,8.62,2.77,12.66-1.15,1.94-.32,4.35,1.86,5.38.66.31,1.38.46,2.08.46Z" fill="#767bcb" stroke-width="0"/><path d="M878.37,503.89c.23,0,.45-.02.68-.05,5.93-.81,11.39-3.46,15.38-7.45,4-3.99,6.33-9.14,6.58-14.49.1-2.2-1.81-4.05-4.27-4.14-2.46-.08-4.53,1.62-4.63,3.81-.16,3.46-1.73,6.93-4.32,9.51-2.58,2.58-6.26,4.36-10.1,4.89-2.43.33-4.1,2.37-3.73,4.54.34,1.97,2.24,3.38,4.4,3.38Z" fill="#767bcb" stroke-width="0"/><rect x="301.51" y="662.3" width="60.59" height="285.39" transform="translate(663.61 1609.99) rotate(-180)" fill="#c66f66" stroke-width="0"/><rect x="164.74" y="703.44" width="60.59" height="285.39" transform="translate(390.08 1692.27) rotate(-180)" fill="#c66f66" stroke-width="0"/><rect x="16.55" y="655.37" width="86.4" height="285.39" transform="translate(119.5 1596.13) rotate(-180)" fill="#c66f66" stroke-width="0"/><rect x="1145.04" y="680.98" width="60.59" height="285.39" transform="translate(2350.66 1647.34) rotate(-180)" fill="#c66f66" stroke-width="0"/><rect x="904.44" y="643.14" width="31.42" height="332.19" transform="translate(1840.29 1618.48) rotate(-180)" fill="#c66f66" stroke-width="0"/><rect x="1208.07" y="689.25" width="60.59" height="285.39" transform="translate(2476.72 1663.89) rotate(-180)" fill="#c66f66" stroke-width="0"/><rect x="950.56" y="668.99" width="86.4" height="285.39" transform="translate(1987.51 1623.37) rotate(-180)" fill="#c66f66" stroke-width="0"/><rect x="995.47" y="705.05" width="67.08" height="315.98" fill="#c85746" stroke-width="0"/><rect x="1071.25" y="645.64" width="67.08" height="315.98" fill="#c85746" stroke-width="0"/><rect x="1154.48" y="672.19" width="95.66" height="315.98" fill="#c85746" stroke-width="0"/><rect x="43.88" y="694.94" width="67.08" height="315.98" fill="#c85746" stroke-width="0"/><rect x="351.97" y="602.67" width="34.78" height="367.8" fill="#c85746" stroke-width="0"/><rect x="119.66" y="635.53" width="67.08" height="315.98" fill="#c85746" stroke-width="0"/><rect x="202.9" y="662.07" width="95.66" height="315.98" fill="#c85746" stroke-width="0"/><rect x="1079.95" y="673.45" width="8.7" height="15.17" fill="#fffeff" stroke-width="0"/><rect x="1093.61" y="673.45" width="8.7" height="15.17" fill="#fffeff" stroke-width="0"/><rect x="1107.28" y="673.45" width="8.7" height="15.17" fill="#fffeff" stroke-width="0"/><rect x="1120.94" y="673.45" width="8.7" height="15.17" fill="#fffeff" stroke-width="0"/><rect x="1079.95" y="698.73" width="8.7" height="15.17" fill="#fffeff" stroke-width="0"/><rect x="1093.61" y="698.73" width="8.7" height="15.17" fill="#fffeff" stroke-width="0"/><rect x="1107.28" y="698.73" width="8.7" height="15.17" fill="#fffeff" stroke-width="0"/><rect x="1120.94" y="698.73" width="8.7" height="15.17" fill="#fffeff" stroke-width="0"/><rect x="1079.95" y="724.01" width="8.7" height="15.17" fill="#fffeff" stroke-width="0"/><rect x="1093.61" y="724.01" width="8.7" height="15.17" fill="#fffeff" stroke-width="0"/><rect x="1107.28" y="724.01" width="8.7" height="15.17" fill="#fffeff" stroke-width="0"/><rect x="1120.94" y="724.01" width="8.7" height="15.17" fill="#fffeff" stroke-width="0"/><rect x="1079.95" y="749.28" width="8.7" height="15.17" fill="#fffeff" stroke-width="0"/><rect x="1093.61" y="749.28" width="8.7" height="15.17" fill="#fffeff" stroke-width="0"/><rect x="1107.28" y="749.28" width="8.7" height="15.17" fill="#fffeff" stroke-width="0"/><rect x="1120.94" y="749.28" width="8.7" height="15.17" fill="#fffeff" stroke-width="0"/><rect x="1079.95" y="774.56" width="8.7" height="15.17" fill="#fffeff" stroke-width="0"/><rect x="1093.61" y="774.56" width="8.7" height="15.17" fill="#fffeff" stroke-width="0"/><rect x="1107.28" y="774.56" width="8.7" height="15.17" fill="#fffeff" stroke-width="0"/><rect x="1120.94" y="774.56" width="8.7" height="15.17" fill="#fffeff" stroke-width="0"/><rect x="1079.95" y="799.84" width="8.7" height="15.17" fill="#fffeff" stroke-width="0"/><rect x="1093.61" y="799.84" width="8.7" height="15.17" fill="#fffeff" stroke-width="0"/><rect x="1107.28" y="799.84" width="8.7" height="15.17" fill="#fffeff" stroke-width="0"/><rect x="1120.94" y="799.84" width="8.7" height="15.17" fill="#fffeff" stroke-width="0"/><rect x="1079.95" y="825.12" width="8.7" height="15.17" fill="#fffeff" stroke-width="0"/><rect x="1093.61" y="825.12" width="8.7" height="15.17" fill="#fffeff" stroke-width="0"/><rect x="1107.28" y="825.12" width="8.7" height="15.17" fill="#fffeff" stroke-width="0"/><rect x="1120.94" y="825.12" width="8.7" height="15.17" fill="#fffeff" stroke-width="0"/><rect x="1079.95" y="850.4" width="8.7" height="15.17" fill="#fffeff" stroke-width="0"/><rect x="1093.61" y="850.4" width="8.7" height="15.17" fill="#fffeff" stroke-width="0"/><rect x="1107.28" y="850.4" width="8.7" height="15.17" fill="#fffeff" stroke-width="0"/><rect x="1120.94" y="850.4" width="8.7" height="15.17" fill="#fffeff" stroke-width="0"/><rect x="1079.95" y="875.67" width="8.7" height="15.17" fill="#fffeff" stroke-width="0"/><rect x="1093.61" y="875.67" width="8.7" height="15.17" fill="#fffeff" stroke-width="0"/><rect x="1107.28" y="875.67" width="8.7" height="15.17" fill="#fffeff" stroke-width="0"/><rect x="1120.94" y="875.67" width="8.7" height="15.17" fill="#fffeff" stroke-width="0"/><rect x="1004.17" y="717.69" width="8.7" height="15.17" fill="#fffeff" stroke-width="0"/><rect x="1017.83" y="717.69" width="8.7" height="15.17" fill="#fffeff" stroke-width="0"/><rect x="1031.5" y="717.69" width="8.7" height="15.17" fill="#fffeff" stroke-width="0"/><rect x="1045.16" y="717.69" width="8.7" height="15.17" fill="#fffeff" stroke-width="0"/><rect x="1004.17" y="742.96" width="8.7" height="15.17" fill="#fffeff" stroke-width="0"/><rect x="1017.83" y="742.96" width="8.7" height="15.17" fill="#fffeff" stroke-width="0"/><rect x="1031.5" y="742.96" width="8.7" height="15.17" fill="#fffeff" stroke-width="0"/><rect x="1045.16" y="742.96" width="8.7" height="15.17" fill="#fffeff" stroke-width="0"/><rect x="1004.17" y="768.24" width="8.7" height="15.17" fill="#fffeff" stroke-width="0"/><rect x="1017.83" y="768.24" width="8.7" height="15.17" fill="#fffeff" stroke-width="0"/><rect x="1031.5" y="768.24" width="8.7" height="15.17" fill="#fffeff" stroke-width="0"/><rect x="1045.16" y="768.24" width="8.7" height="15.17" fill="#fffeff" stroke-width="0"/><rect x="1004.17" y="793.52" width="8.7" height="15.17" fill="#fffeff" stroke-width="0"/><rect x="1017.83" y="793.52" width="8.7" height="15.17" fill="#fffeff" stroke-width="0"/><rect x="1031.5" y="793.52" width="8.7" height="15.17" fill="#fffeff" stroke-width="0"/><rect x="1045.16" y="793.52" width="8.7" height="15.17" fill="#fffeff" stroke-width="0"/><rect x="1004.17" y="818.8" width="8.7" height="15.17" fill="#fffeff" stroke-width="0"/><rect x="1017.83" y="818.8" width="8.7" height="15.17" fill="#fffeff" stroke-width="0"/><rect x="1031.5" y="818.8" width="8.7" height="15.17" fill="#fffeff" stroke-width="0"/><rect x="1045.16" y="818.8" width="8.7" height="15.17" fill="#fffeff" stroke-width="0"/><rect x="1004.17" y="844.08" width="8.7" height="15.17" fill="#fffeff" stroke-width="0"/><rect x="1017.83" y="844.08" width="8.7" height="15.17" fill="#fffeff" stroke-width="0"/><rect x="1031.5" y="844.08" width="8.7" height="15.17" fill="#fffeff" stroke-width="0"/><rect x="1045.16" y="844.08" width="8.7" height="15.17" fill="#fffeff" stroke-width="0"/><rect x="1004.17" y="869.35" width="8.7" height="15.17" fill="#fffeff" stroke-width="0"/><rect x="1017.83" y="869.35" width="8.7" height="15.17" fill="#fffeff" stroke-width="0"/><rect x="1031.5" y="869.35" width="8.7" height="15.17" fill="#fffeff" stroke-width="0"/><rect x="1045.16" y="869.35" width="8.7" height="15.17" fill="#fffeff" stroke-width="0"/><rect x="1004.17" y="894.63" width="8.7" height="15.17" fill="#fffeff" stroke-width="0"/><rect x="1017.83" y="894.63" width="8.7" height="15.17" fill="#fffeff" stroke-width="0"/><rect x="1031.5" y="894.63" width="8.7" height="15.17" fill="#fffeff" stroke-width="0"/><rect x="1045.16" y="894.63" width="8.7" height="15.17" fill="#fffeff" stroke-width="0"/><rect x="1004.17" y="919.91" width="8.7" height="15.17" fill="#fffeff" stroke-width="0"/><rect x="1017.83" y="919.91" width="8.7" height="15.17" fill="#fffeff" stroke-width="0"/><rect x="1031.5" y="919.91" width="8.7" height="15.17" fill="#fffeff" stroke-width="0"/><rect x="1045.16" y="919.91" width="8.7" height="15.17" fill="#fffeff" stroke-width="0"/><rect x="225.26" y="682.3" width="8.7" height="15.17" fill="#fffeff" stroke-width="0"/><rect x="238.92" y="682.3" width="8.7" height="15.17" fill="#fffeff" stroke-width="0"/><rect x="252.59" y="682.3" width="8.7" height="15.17" fill="#fffeff" stroke-width="0"/><rect x="266.25" y="682.3" width="8.7" height="15.17" fill="#fffeff" stroke-width="0"/><rect x="225.26" y="707.57" width="8.7" height="15.17" fill="#fffeff" stroke-width="0"/><rect x="238.92" y="707.57" width="8.7" height="15.17" fill="#fffeff" stroke-width="0"/><rect x="252.59" y="707.57" width="8.7" height="15.17" fill="#fffeff" stroke-width="0"/><rect x="266.25" y="707.57" width="8.7" height="15.17" fill="#fffeff" stroke-width="0"/><rect x="225.26" y="732.85" width="8.7" height="15.17" fill="#fffeff" stroke-width="0"/><rect x="238.92" y="732.85" width="8.7" height="15.17" fill="#fffeff" stroke-width="0"/><rect x="252.59" y="732.85" width="8.7" height="15.17" fill="#fffeff" stroke-width="0"/><rect x="266.25" y="732.85" width="8.7" height="15.17" fill="#fffeff" stroke-width="0"/><rect x="225.26" y="758.13" width="8.7" height="15.17" fill="#fffeff" stroke-width="0"/><rect x="238.92" y="758.13" width="8.7" height="15.17" fill="#fffeff" stroke-width="0"/><rect x="252.59" y="758.13" width="8.7" height="15.17" fill="#fffeff" stroke-width="0"/><rect x="266.25" y="758.13" width="8.7" height="15.17" fill="#fffeff" stroke-width="0"/><rect x="225.26" y="783.41" width="8.7" height="15.17" fill="#fffeff" stroke-width="0"/><rect x="238.92" y="783.41" width="8.7" height="15.17" fill="#fffeff" stroke-width="0"/><rect x="252.59" y="783.41" width="8.7" height="15.17" fill="#fffeff" stroke-width="0"/><rect x="266.25" y="783.41" width="8.7" height="15.17" fill="#fffeff" stroke-width="0"/><rect x="225.26" y="808.69" width="8.7" height="15.17" fill="#fffeff" stroke-width="0"/><rect x="238.92" y="808.69" width="8.7" height="15.17" fill="#fffeff" stroke-width="0"/><rect x="252.59" y="808.69" width="8.7" height="15.17" fill="#fffeff" stroke-width="0"/><rect x="266.25" y="808.69" width="8.7" height="15.17" fill="#fffeff" stroke-width="0"/><rect x="225.26" y="833.96" width="8.7" height="15.17" fill="#fffeff" stroke-width="0"/><rect x="238.92" y="833.96" width="8.7" height="15.17" fill="#fffeff" stroke-width="0"/><rect x="252.59" y="833.96" width="8.7" height="15.17" fill="#fffeff" stroke-width="0"/><rect x="266.25" y="833.96" width="8.7" height="15.17" fill="#fffeff" stroke-width="0"/><rect x="225.26" y="859.24" width="8.7" height="15.17" fill="#fffeff" stroke-width="0"/><rect x="238.92" y="859.24" width="8.7" height="15.17" fill="#fffeff" stroke-width="0"/><rect x="252.59" y="859.24" width="8.7" height="15.17" fill="#fffeff" stroke-width="0"/><rect x="266.25" y="859.24" width="8.7" height="15.17" fill="#fffeff" stroke-width="0"/><rect x="225.26" y="884.52" width="8.7" height="15.17" fill="#fffeff" stroke-width="0"/><rect x="238.92" y="884.52" width="8.7" height="15.17" fill="#fffeff" stroke-width="0"/><rect x="252.59" y="884.52" width="8.7" height="15.17" fill="#fffeff" stroke-width="0"/><rect x="266.25" y="884.52" width="8.7" height="15.17" fill="#fffeff" stroke-width="0"/><rect x="358.18" y="619.1" width="8.7" height="15.17" fill="#fffeff" stroke-width="0"/><rect x="371.85" y="619.1" width="8.7" height="15.17" fill="#fffeff" stroke-width="0"/><rect x="358.18" y="644.38" width="8.7" height="15.17" fill="#fffeff" stroke-width="0"/><rect x="371.85" y="644.38" width="8.7" height="15.17" fill="#fffeff" stroke-width="0"/><rect x="358.18" y="669.66" width="8.7" height="15.17" fill="#fffeff" stroke-width="0"/><rect x="371.85" y="669.66" width="8.7" height="15.17" fill="#fffeff" stroke-width="0"/><rect x="358.18" y="694.94" width="8.7" height="15.17" fill="#fffeff" stroke-width="0"/><rect x="371.85" y="694.94" width="8.7" height="15.17" fill="#fffeff" stroke-width="0"/><rect x="358.18" y="720.21" width="8.7" height="15.17" fill="#fffeff" stroke-width="0"/><rect x="371.85" y="720.21" width="8.7" height="15.17" fill="#fffeff" stroke-width="0"/><rect x="358.18" y="745.49" width="8.7" height="15.17" fill="#fffeff" stroke-width="0"/><rect x="371.85" y="745.49" width="8.7" height="15.17" fill="#fffeff" stroke-width="0"/><rect x="358.18" y="770.77" width="8.7" height="15.17" fill="#fffeff" stroke-width="0"/><rect x="371.85" y="770.77" width="8.7" height="15.17" fill="#fffeff" stroke-width="0"/><rect x="358.18" y="796.05" width="8.7" height="15.17" fill="#fffeff" stroke-width="0"/><rect x="371.85" y="796.05" width="8.7" height="15.17" fill="#fffeff" stroke-width="0"/><rect x="358.18" y="821.33" width="8.7" height="15.17" fill="#fffeff" stroke-width="0"/><rect x="371.85" y="821.33" width="8.7" height="15.17" fill="#fffeff" stroke-width="0"/><rect x="127.12" y="649.44" width="8.7" height="15.17" fill="#fffeff" stroke-width="0"/><rect x="140.78" y="649.44" width="8.7" height="15.17" fill="#fffeff" stroke-width="0"/><rect x="154.45" y="649.44" width="8.7" height="15.17" fill="#fffeff" stroke-width="0"/><rect x="168.11" y="649.44" width="8.7" height="15.17" fill="#fffeff" stroke-width="0"/><rect x="127.12" y="674.71" width="8.7" height="15.17" fill="#fffeff" stroke-width="0"/><rect x="140.78" y="674.71" width="8.7" height="15.17" fill="#fffeff" stroke-width="0"/><rect x="154.45" y="674.71" width="8.7" height="15.17" fill="#fffeff" stroke-width="0"/><rect x="168.11" y="674.71" width="8.7" height="15.17" fill="#fffeff" stroke-width="0"/><rect x="127.12" y="699.99" width="8.7" height="15.17" fill="#fffeff" stroke-width="0"/><rect x="140.78" y="699.99" width="8.7" height="15.17" fill="#fffeff" stroke-width="0"/><rect x="154.45" y="699.99" width="8.7" height="15.17" fill="#fffeff" stroke-width="0"/><rect x="168.11" y="699.99" width="8.7" height="15.17" fill="#fffeff" stroke-width="0"/><rect x="127.12" y="725.27" width="8.7" height="15.17" fill="#fffeff" stroke-width="0"/><rect x="140.78" y="725.27" width="8.7" height="15.17" fill="#fffeff" stroke-width="0"/><rect x="154.45" y="725.27" width="8.7" height="15.17" fill="#fffeff" stroke-width="0"/><rect x="168.11" y="725.27" width="8.7" height="15.17" fill="#fffeff" stroke-width="0"/><rect x="127.12" y="750.55" width="8.7" height="15.17" fill="#fffeff" stroke-width="0"/><rect x="140.78" y="750.55" width="8.7" height="15.17" fill="#fffeff" stroke-width="0"/><rect x="154.45" y="750.55" width="8.7" height="15.17" fill="#fffeff" stroke-width="0"/><rect x="168.11" y="750.55" width="8.7" height="15.17" fill="#fffeff" stroke-width="0"/><rect x="127.12" y="775.83" width="8.7" height="15.17" fill="#fffeff" stroke-width="0"/><rect x="140.78" y="775.83" width="8.7" height="15.17" fill="#fffeff" stroke-width="0"/><rect x="154.45" y="775.83" width="8.7" height="15.17" fill="#fffeff" stroke-width="0"/><rect x="168.11" y="775.83" width="8.7" height="15.17" fill="#fffeff" stroke-width="0"/><rect x="127.12" y="801.1" width="8.7" height="15.17" fill="#fffeff" stroke-width="0"/><rect x="140.78" y="801.1" width="8.7" height="15.17" fill="#fffeff" stroke-width="0"/><rect x="154.45" y="801.1" width="8.7" height="15.17" fill="#fffeff" stroke-width="0"/><rect x="168.11" y="801.1" width="8.7" height="15.17" fill="#fffeff" stroke-width="0"/><rect x="127.12" y="826.38" width="8.7" height="15.17" fill="#fffeff" stroke-width="0"/><rect x="140.78" y="826.38" width="8.7" height="15.17" fill="#fffeff" stroke-width="0"/><rect x="154.45" y="826.38" width="8.7" height="15.17" fill="#fffeff" stroke-width="0"/><rect x="168.11" y="826.38" width="8.7" height="15.17" fill="#fffeff" stroke-width="0"/><rect x="127.12" y="851.66" width="8.7" height="15.17" fill="#fffeff" stroke-width="0"/><rect x="140.78" y="851.66" width="8.7" height="15.17" fill="#fffeff" stroke-width="0"/><rect x="154.45" y="851.66" width="8.7" height="15.17" fill="#fffeff" stroke-width="0"/><rect x="168.11" y="851.66" width="8.7" height="15.17" fill="#fffeff" stroke-width="0"/><rect x="52.58" y="711.37" width="8.7" height="15.17" fill="#fffeff" stroke-width="0"/><rect x="66.25" y="711.37" width="8.7" height="15.17" fill="#fffeff" stroke-width="0"/><rect x="79.91" y="711.37" width="8.7" height="15.17" fill="#fffeff" stroke-width="0"/><rect x="93.58" y="711.37" width="8.7" height="15.17" fill="#fffeff" stroke-width="0"/><rect x="52.58" y="736.64" width="8.7" height="15.17" fill="#fffeff" stroke-width="0"/><rect x="66.25" y="736.64" width="8.7" height="15.17" fill="#fffeff" stroke-width="0"/><rect x="79.91" y="736.64" width="8.7" height="15.17" fill="#fffeff" stroke-width="0"/><rect x="93.58" y="736.64" width="8.7" height="15.17" fill="#fffeff" stroke-width="0"/><rect x="52.58" y="761.92" width="8.7" height="15.17" fill="#fffeff" stroke-width="0"/><rect x="66.25" y="761.92" width="8.7" height="15.17" fill="#fffeff" stroke-width="0"/><rect x="79.91" y="761.92" width="8.7" height="15.17" fill="#fffeff" stroke-width="0"/><rect x="93.58" y="761.92" width="8.7" height="15.17" fill="#fffeff" stroke-width="0"/><rect x="52.58" y="787.2" width="8.7" height="15.17" fill="#fffeff" stroke-width="0"/><rect x="66.25" y="787.2" width="8.7" height="15.17" fill="#fffeff" stroke-width="0"/><rect x="79.91" y="787.2" width="8.7" height="15.17" fill="#fffeff" stroke-width="0"/><rect x="93.58" y="787.2" width="8.7" height="15.17" fill="#fffeff" stroke-width="0"/><rect x="52.58" y="812.48" width="8.7" height="15.17" fill="#fffeff" stroke-width="0"/><rect x="66.25" y="812.48" width="8.7" height="15.17" fill="#fffeff" stroke-width="0"/><rect x="79.91" y="812.48" width="8.7" height="15.17" fill="#fffeff" stroke-width="0"/><rect x="93.58" y="812.48" width="8.7" height="15.17" fill="#fffeff" stroke-width="0"/><rect x="52.58" y="837.76" width="8.7" height="15.17" fill="#fffeff" stroke-width="0"/><rect x="66.25" y="837.76" width="8.7" height="15.17" fill="#fffeff" stroke-width="0"/><rect x="79.91" y="837.76" width="8.7" height="15.17" fill="#fffeff" stroke-width="0"/><rect x="93.58" y="837.76" width="8.7" height="15.17" fill="#fffeff" stroke-width="0"/><rect x="52.58" y="863.03" width="8.7" height="15.17" fill="#fffeff" stroke-width="0"/><rect x="66.25" y="863.03" width="8.7" height="15.17" fill="#fffeff" stroke-width="0"/><rect x="79.91" y="863.03" width="8.7" height="15.17" fill="#fffeff" stroke-width="0"/><rect x="93.58" y="863.03" width="8.7" height="15.17" fill="#fffeff" stroke-width="0"/><rect x="52.58" y="888.31" width="8.7" height="15.17" fill="#fffeff" stroke-width="0"/><rect x="66.25" y="888.31" width="8.7" height="15.17" fill="#fffeff" stroke-width="0"/><rect x="79.91" y="888.31" width="8.7" height="15.17" fill="#fffeff" stroke-width="0"/><rect x="93.58" y="888.31" width="8.7" height="15.17" fill="#fffeff" stroke-width="0"/><rect x="52.58" y="913.59" width="8.7" height="15.17" fill="#fffeff" stroke-width="0"/><rect x="66.25" y="913.59" width="8.7" height="15.17" fill="#fffeff" stroke-width="0"/><rect x="79.91" y="913.59" width="8.7" height="15.17" fill="#fffeff" stroke-width="0"/><rect x="93.58" y="913.59" width="8.7" height="15.17" fill="#fffeff" stroke-width="0"/><rect x="1171.88" y="689.88" width="10.92" height="19.05" fill="#fffeff" stroke-width="0"/><rect x="1189.04" y="689.88" width="10.92" height="19.05" fill="#fffeff" stroke-width="0"/><rect x="1206.2" y="689.88" width="10.92" height="19.05" fill="#fffeff" stroke-width="0"/><rect x="1223.36" y="689.88" width="10.92" height="19.05" fill="#fffeff" stroke-width="0"/><rect x="1171.88" y="721.62" width="10.92" height="19.05" fill="#fffeff" stroke-width="0"/><rect x="1189.04" y="721.62" width="10.92" height="19.05" fill="#fffeff" stroke-width="0"/><rect x="1206.2" y="721.62" width="10.92" height="19.05" fill="#fffeff" stroke-width="0"/><rect x="1223.36" y="721.62" width="10.92" height="19.05" fill="#fffeff" stroke-width="0"/><rect x="1171.88" y="753.37" width="10.92" height="19.05" fill="#fffeff" stroke-width="0"/><rect x="1189.04" y="753.37" width="10.92" height="19.05" fill="#fffeff" stroke-width="0"/><rect x="1206.2" y="753.37" width="10.92" height="19.05" fill="#fffeff" stroke-width="0"/><rect x="1223.36" y="753.37" width="10.92" height="19.05" fill="#fffeff" stroke-width="0"/><rect x="1171.88" y="785.11" width="10.92" height="19.05" fill="#fffeff" stroke-width="0"/><rect x="1189.04" y="785.11" width="10.92" height="19.05" fill="#fffeff" stroke-width="0"/><rect x="1206.2" y="785.11" width="10.92" height="19.05" fill="#fffeff" stroke-width="0"/><rect x="1223.36" y="785.11" width="10.92" height="19.05" fill="#fffeff" stroke-width="0"/><rect x="1171.88" y="816.86" width="10.92" height="19.05" fill="#fffeff" stroke-width="0"/><rect x="1189.04" y="816.86" width="10.92" height="19.05" fill="#fffeff" stroke-width="0"/><rect x="1206.2" y="816.86" width="10.92" height="19.05" fill="#fffeff" stroke-width="0"/><rect x="1223.36" y="816.86" width="10.92" height="19.05" fill="#fffeff" stroke-width="0"/><rect x="1171.88" y="848.6" width="10.92" height="19.05" fill="#fffeff" stroke-width="0"/><rect x="1189.04" y="848.6" width="10.92" height="19.05" fill="#fffeff" stroke-width="0"/><rect x="1206.2" y="848.6" width="10.92" height="19.05" fill="#fffeff" stroke-width="0"/><rect x="1223.36" y="848.6" width="10.92" height="19.05" fill="#fffeff" stroke-width="0"/><rect x="1171.88" y="880.35" width="10.92" height="19.05" fill="#fffeff" stroke-width="0"/><rect x="1189.04" y="880.35" width="10.92" height="19.05" fill="#fffeff" stroke-width="0"/><rect x="1206.2" y="880.35" width="10.92" height="19.05" fill="#fffeff" stroke-width="0"/><rect x="1223.36" y="880.35" width="10.92" height="19.05" fill="#fffeff" stroke-width="0"/><rect x="1171.88" y="912.09" width="10.92" height="19.05" fill="#fffeff" stroke-width="0"/><rect x="1189.04" y="912.09" width="10.92" height="19.05" fill="#fffeff" stroke-width="0"/><rect x="1206.2" y="912.09" width="10.92" height="19.05" fill="#fffeff" stroke-width="0"/><rect x="1223.36" y="912.09" width="10.92" height="19.05" fill="#fffeff" stroke-width="0"/><rect x="1171.88" y="943.84" width="10.92" height="19.05" fill="#fffeff" stroke-width="0"/><rect x="1189.04" y="943.84" width="10.92" height="19.05" fill="#fffeff" stroke-width="0"/><rect x="1206.2" y="943.84" width="10.92" height="19.05" fill="#fffeff" stroke-width="0"/><rect x="1223.36" y="943.84" width="10.92" height="19.05" fill="#fffeff" stroke-width="0"/><rect y="889.68" width="1285.46" height="193.83" fill="#f38f91" stroke-width="0"/><polygon points="519.26 1062.41 239.71 1062.41 239.71 812.98 382 675.72 519.26 812.98 519.26 1062.41" fill="#e2884b" stroke-width="0"/><polyline points="224.64 819.68 382.88 669.85 533.53 820.51" fill="none" stroke="#fff" stroke-linecap="round" stroke-linejoin="round" stroke-width="20"/><rect x="263.98" y="832.79" width="19.25" height="29.29" fill="#72b2cb" stroke-width="0"/><rect x="299.14" y="832.79" width="19.25" height="29.29" fill="#72b2cb" stroke-width="0"/><rect x="299.14" y="871.29" width="19.25" height="29.29" fill="#72b2cb" stroke-width="0"/><rect x="263.98" y="871.29" width="19.25" height="29.29" fill="#72b2cb" stroke-width="0"/><rect x="438.08" y="832.79" width="19.25" height="29.29" fill="#72b2cb" stroke-width="0"/><rect x="473.23" y="832.79" width="19.25" height="29.29" fill="#72b2cb" stroke-width="0"/><rect x="473.23" y="871.29" width="19.25" height="29.29" fill="#72b2cb" stroke-width="0"/><rect x="438.08" y="871.29" width="19.25" height="29.29" fill="#72b2cb" stroke-width="0"/><rect x="351.03" y="832.79" width="19.25" height="29.29" fill="#72b2cb" stroke-width="0"/><rect x="386.18" y="832.79" width="19.25" height="29.29" fill="#72b2cb" stroke-width="0"/><rect x="386.18" y="871.29" width="19.25" height="29.29" fill="#72b2cb" stroke-width="0"/><rect x="351.03" y="871.29" width="19.25" height="29.29" fill="#72b2cb" stroke-width="0"/><rect x="263.98" y="913.14" width="19.25" height="29.29" fill="#72b2cb" stroke-width="0"/><rect x="299.14" y="913.14" width="19.25" height="29.29" fill="#72b2cb" stroke-width="0"/><rect x="299.14" y="951.65" width="19.25" height="29.29" fill="#72b2cb" stroke-width="0"/><rect x="263.98" y="951.65" width="19.25" height="29.29" fill="#72b2cb" stroke-width="0"/><rect x="438.08" y="913.14" width="19.25" height="29.29" fill="#72b2cb" stroke-width="0"/><rect x="473.23" y="913.14" width="19.25" height="29.29" fill="#72b2cb" stroke-width="0"/><rect x="473.23" y="951.65" width="19.25" height="29.29" fill="#72b2cb" stroke-width="0"/><rect x="438.08" y="951.65" width="19.25" height="29.29" fill="#72b2cb" stroke-width="0"/><rect x="351.03" y="913.14" width="19.25" height="29.29" fill="#72b2cb" stroke-width="0"/><rect x="386.18" y="913.14" width="19.25" height="29.29" fill="#72b2cb" stroke-width="0"/><rect x="386.18" y="951.65" width="19.25" height="29.29" fill="#72b2cb" stroke-width="0"/><rect x="351.03" y="951.65" width="19.25" height="29.29" fill="#72b2cb" stroke-width="0"/><rect x="749.84" y="949.92" width="367.52" height="206.62" fill="#e4985c" stroke-width="0"/><polygon points="1117.35 1156.54 1163.08 1156.54 1158 822.9 1117.35 949.92 1117.35 1156.54" fill="#b2573b" stroke-width="0"/><polygon points="1158 822.9 1107.19 987.18 729.51 987.18 785.4 821.2 1158 822.9" fill="#f4f9fb" stroke-width="0"/><polygon points="741.23 970.24 785.7 838.19 1134.29 838.14 1098.72 971.94 741.23 970.24" fill="#72b2cb" stroke-width="0"/><path d="M1184.03,883.03l-26.03-61.83v64.36l24.35-.14c1.27.06,2.17-1.22,1.68-2.39Z" fill="#b2573b" stroke-width="0"/><line x1="805.73" y1="833.06" x2="763.38" y2="973.63" fill="none" stroke="#ebfeff" stroke-miterlimit="10" stroke-width="2"/><line x1="827.74" y1="834.75" x2="787.1" y2="973.63" fill="none" stroke="#ebfeff" stroke-miterlimit="10" stroke-width="2"/><line x1="851.45" y1="834.75" x2="810.81" y2="973.63" fill="none" stroke="#ebfeff" stroke-miterlimit="10" stroke-width="2"/><line x1="875.16" y1="834.75" x2="834.52" y2="973.63" fill="none" stroke="#ebfeff" stroke-miterlimit="10" stroke-width="2"/><line x1="898.87" y1="834.75" x2="858.23" y2="973.63" fill="none" stroke="#ebfeff" stroke-miterlimit="10" stroke-width="2"/><line x1="922.59" y1="834.75" x2="881.94" y2="973.63" fill="none" stroke="#ebfeff" stroke-miterlimit="10" stroke-width="2"/><line x1="946.3" y1="834.75" x2="905.65" y2="973.63" fill="none" stroke="#ebfeff" stroke-miterlimit="10" stroke-width="2"/><line x1="970.01" y1="834.75" x2="929.36" y2="973.63" fill="none" stroke="#ebfeff" stroke-miterlimit="10" stroke-width="2"/><line x1="993.72" y1="834.75" x2="953.07" y2="973.63" fill="none" stroke="#ebfeff" stroke-miterlimit="10" stroke-width="2"/><line x1="1017.43" y1="834.75" x2="976.78" y2="973.63" fill="none" stroke="#ebfeff" stroke-miterlimit="10" stroke-width="2"/><line x1="1041.14" y1="834.75" x2="1000.49" y2="973.63" fill="none" stroke="#ebfeff" stroke-miterlimit="10" stroke-width="2"/><line x1="1064.85" y1="834.75" x2="1024.2" y2="973.63" fill="none" stroke="#ebfeff" stroke-miterlimit="10" stroke-width="2"/><line x1="1088.56" y1="834.75" x2="1047.91" y2="973.63" fill="none" stroke="#ebfeff" stroke-miterlimit="10" stroke-width="2"/><line x1="1112.27" y1="834.75" x2="1073.32" y2="973.63" fill="none" stroke="#ebfeff" stroke-miterlimit="10" stroke-width="2"/><line x1="1127.51" y1="880.48" x2="765.08" y2="880.48" fill="none" stroke="#ebfeff" stroke-miterlimit="10" stroke-width="2"/><line x1="1115.66" y1="921.13" x2="754.92" y2="921.13" fill="none" stroke="#ebfeff" stroke-miterlimit="10" stroke-width="2"/><rect x="789.64" y="987.18" width="123.87" height="169.21" fill="#b2573b" stroke-width="0"/><rect x="798.17" y="994.07" width="106.78" height="162.31" fill="#f07b31" stroke-width="0"/><circle cx="890.01" cy="1085.9" r="6.41" fill="#b2573b" stroke-width="0"/><path d="M741.4,127.26l-45.23,45.22c-26.83,26.46-33.12,33.17-66.66-.02l-45.3-45.3c-18.38-18.37-18.38-48.16,0-66.54h0c19.46-19.46,51.01-19.46,70.47,0l6.21,6.21c1.09,1.09,2.85,1.09,3.93,0l8.06-8.07c18.37-18.36,48.15-18.36,66.51,0l2.01,2.01c18.36,18.36,18.36,48.14,0,66.51Z" fill="url(#linear-gradient-5)" stroke-width="0"/><path d="M688.9,138.87c-.1,0-.21,0-.31-.01-1.4-.13-2.56-1.17-2.85-2.55l-7.73-36.87-12.59,23.38c-.56,1.04-1.65,1.7-2.84,1.7h-40.48c-1.26,0-2.4-.73-2.93-1.88l-1.46-3.18-4.3,12.52c-.44,1.28-1.63,2.15-2.98,2.18-1.37.03-2.58-.78-3.07-2.04l-7.33-18.58-5.12,9.72c-.56,1.06-1.66,1.72-2.85,1.72h-36.91c-1.78,0-3.22-1.44-3.22-3.22s1.44-3.22,3.22-3.22h34.96l7.48-14.22c.59-1.12,1.78-1.78,3.03-1.72,1.26.07,2.36.86,2.82,2.04l6.7,16.98,4.08-11.87c.43-1.25,1.57-2.11,2.89-2.17,1.32-.06,2.54.68,3.09,1.87l3.96,8.61h36.48l15.86-29.45c.64-1.19,1.96-1.86,3.3-1.66,1.34.19,2.42,1.2,2.69,2.53l7.42,35.39,5.43-12.91c.47-1.11,1.52-1.87,2.72-1.96,1.2-.09,2.36.49,2.99,1.52l3.46,5.6h7.11l6.49-19.2c.44-1.3,1.66-2.18,3.03-2.19,1.38,0,2.6.86,3.06,2.15l6.37,18.08h26.55c1.78,0,3.22,1.44,3.22,3.22s-1.44,3.22-3.22,3.22h-28.84c-1.37,0-2.59-.86-3.04-2.15l-4.03-11.43-4.24,12.54c-.44,1.31-1.67,2.19-3.05,2.19h-11.22c-1.12,0-2.16-.58-2.74-1.53l-1.11-1.81-7.01,16.67c-.51,1.2-1.68,1.97-2.97,1.97Z" fill="#f2f2f2" stroke-width="0"/><path d="M1118.47,525.74c3.75-2.97,7.62-5.8,11.63-8.43,2.46-1.62,5.03-3.18,7.69-4.43,22.63,13.56,52.38,8.96,69.73-11.99h0c-22.66-18.77-56.02-16.03-75.36,5.87-2.28,1.21-4.44,2.54-6.45,3.86-9.58,6.28-18.37,13.53-26.51,21.4,2.43-22.79-9.83-45.52-31.88-55.37h0c-11.06,24.78-2.06,53.43,20.03,67.73-8.5,9.51-16.27,19.62-23.55,29.87,2.59-22.9-9.69-45.81-31.85-55.71h0c-11.47,25.7-1.37,55.56,22.53,69.26-4.81,7.19-9.42,14.34-13.91,21.31-1.2,1.86-.66,4.33,1.2,5.53.18.11.36.21.54.29,1.77.79,3.9.19,4.99-1.49,9.31-14.45,19.16-29.73,30.17-44.33,16.14,22.07,46.63,28.93,70.89,15h0c-12.91-22.47-39.43-32.22-63.19-24.84,3.04-3.73,6.17-7.4,9.41-10.97.07.03.14.07.21.1h0c.09-.2.16-.4.25-.6,4.14-4.54,8.45-8.93,12.95-13.1,18.05,22.32,50.61,26.83,74.12,9.79h0c-14.81-20.42-41.17-27.5-63.63-18.78Z" fill="url(#linear-gradient-6)" stroke-width="0"/><circle cx="1005.17" cy="250.51" r="62.05" fill="url(#linear-gradient-7)" stroke-width="0"/><rect x="995.51" y="134.61" width="19.32" height="39.22" rx="9.66" ry="9.66" fill="url(#linear-gradient-8)" stroke-width="0"/><rect x="995.51" y="327.19" width="19.32" height="39.22" rx="9.66" ry="9.66" fill="url(#linear-gradient-9)" stroke-width="0"/><rect x="1091.81" y="230.9" width="19.32" height="39.22" rx="9.66" ry="9.66" transform="translate(1351.97 -850.95) rotate(90)" fill="url(#linear-gradient-10)" stroke-width="0"/><rect x="899.22" y="230.9" width="19.32" height="39.22" rx="9.66" ry="9.66" transform="translate(1159.39 -658.37) rotate(90)" fill="url(#linear-gradient-11)" stroke-width="0"/><rect x="1063.6" y="162.81" width="19.32" height="39.22" rx="9.66" ry="9.66" transform="translate(443.34 -705.48) rotate(45)" fill="url(#linear-gradient-12)" stroke-width="0"/><rect x="927.42" y="298.99" width="19.32" height="39.22" rx="9.66" ry="9.66" transform="translate(499.75 -569.3) rotate(45)" fill="url(#linear-gradient-13)" stroke-width="0"/><rect x="1063.6" y="298.99" width="19.32" height="39.22" rx="9.66" ry="9.66" transform="translate(2057.45 -215.02) rotate(135)" fill="url(#linear-gradient-14)" stroke-width="0"/><rect x="927.42" y="162.81" width="19.32" height="39.22" rx="9.66" ry="9.66" transform="translate(1728.69 -351.2) rotate(135)" fill="url(#linear-gradient-15)" stroke-width="0"/><path d="M250.13,316.48h0c-11.34-11.34-10.93-31.39-4.25-45.3,3.27-6.8,7.76-15.52,11.06-21.83l12.44-23.84c1.78-3.4,6.65-3.4,8.42,0l12.44,23.84c3.29,6.31,7.79,14.68,11.06,21.83,6.41,14.04,7.09,33.96-4.25,45.3h0c-12.96,12.96-33.97,12.96-46.93,0Z" fill="url(#radial-gradient)" stroke-width="0"/><path d="M316,252.58h0c-8.26-7.53-8.62-21.5-4.42-31.41,2.05-4.84,4.91-11.06,7-15.56l7.9-17c1.13-2.43,4.52-2.58,5.87-.27l9.43,16.2c2.5,4.29,5.9,9.97,8.4,14.84,4.92,9.57,6.03,23.42-1.5,31.68h0c-8.61,9.44-23.23,10.12-32.68,1.51Z" fill="url(#radial-gradient-2)" stroke-width="0"/><circle cx="200.66" cy="502.09" r="64.26" fill="#ffce84" stroke-width="0"/><circle cx="200.66" cy="502.09" r="56.71" fill="#db9b5f" stroke-width="0"/><circle cx="200.66" cy="502.09" r="49.41" fill="#ffce84" stroke-width="0"/><circle cx="238.25" cy="535.83" r="54.67" fill="#ffce84" stroke-width="0"/><circle cx="238.25" cy="535.83" r="48.25" fill="#db9b5f" stroke-width="0"/><circle cx="238.25" cy="535.83" r="42.04" fill="#ffce84" stroke-width="0"/></g></g></g></svg>