<?xml version="1.0" encoding="UTF-8"?><svg id="Layer_2" xmlns="http://www.w3.org/2000/svg" xmlns:xlink="http://www.w3.org/1999/xlink" viewBox="0 0 1362.76 1080"><defs><clipPath id="clippath"><rect width="1280" height="1080" fill="none" stroke-width="0"/></clipPath><linearGradient id="linear-gradient" x1="636.91" y1="30.65" x2="640.64" y2="753.45" gradientUnits="userSpaceOnUse"><stop offset="0" stop-color="#bad0c3"/><stop offset=".41" stop-color="#8cbbb5"/><stop offset=".72" stop-color="#bad0c3"/></linearGradient><linearGradient id="linear-gradient-2" x1="604.67" y1="171.28" x2="639.54" y2="678.38" gradientUnits="userSpaceOnUse"><stop offset="0" stop-color="#fff3e7"/><stop offset=".56" stop-color="#f8d6ba"/><stop offset="1" stop-color="#f9b49d"/></linearGradient><linearGradient id="linear-gradient-3" x1="1093.76" y1="137.65" x2="1128.62" y2="644.75" gradientUnits="userSpaceOnUse"><stop offset="0" stop-color="#f9b49d"/><stop offset=".44" stop-color="#f8d6ba"/><stop offset="1" stop-color="#fff3e7"/></linearGradient><linearGradient id="linear-gradient-4" x1="561.02" y1="341.06" x2="571.65" y2="495.67" gradientTransform="translate(23.13 22.68) rotate(-1.98)" xlink:href="#linear-gradient-3"/><linearGradient id="linear-gradient-5" x1="222.18" y1="291.19" x2="247.9" y2="665.32" gradientTransform="translate(23.13 22.68) rotate(-1.98)" xlink:href="#linear-gradient-3"/><linearGradient id="linear-gradient-6" x1="751.27" y1="507.61" x2="728.54" y2="771.24" gradientUnits="userSpaceOnUse"><stop offset="0" stop-color="#795353"/><stop offset=".41" stop-color="#58302f"/><stop offset="1" stop-color="#421514"/></linearGradient><linearGradient id="linear-gradient-7" x1="667.36" y1="500.37" x2="644.63" y2="764.01" xlink:href="#linear-gradient-6"/><linearGradient id="linear-gradient-8" x1="155.95" y1="541.85" x2="133.22" y2="805.48" xlink:href="#linear-gradient-6"/><linearGradient id="linear-gradient-9" x1="72.04" y1="534.62" x2="49.32" y2="798.25" xlink:href="#linear-gradient-6"/><linearGradient id="linear-gradient-10" x1="1224.54" y1="636.68" x2="1201.81" y2="900.31" xlink:href="#linear-gradient-6"/><linearGradient id="linear-gradient-11" x1="1140.63" y1="629.45" x2="1117.9" y2="893.08" xlink:href="#linear-gradient-6"/></defs><g id="Layer_1-2"><g opacity=".07"><g clip-path="url(#clippath)"><rect width="1280" height="1080" fill="#f5f5f5" stroke-width="0"/><rect width="1280" height="660.43" fill="#9dc1be" stroke-width="0"/><path d="M1280,511.88v235.16H0v-272.94C70.55,319.65,182.85,194.26,319.71,117.66c17.18-9.62,34.75-18.47,52.67-26.5,19.09-8.57,38.59-16.22,58.45-22.91,22.97-7.74,46.43-14.18,70.3-19.25,9.51-2.03,19.08-3.84,28.72-5.42,8.28-1.36,16.6-2.56,24.96-3.59,6.27-.78,12.56-1.46,18.88-2.04,6.04-.56,12.09-1.04,18.17-1.42,4.18-.27,8.36-.49,12.56-.67,4.69-.21,9.39-.36,14.1-.45,3.1-.07,6.21-.12,9.33-.13,1.35-.02,2.7-.02,4.06-.02,12.16,0,24.26.35,36.27,1.04,3.18.18,6.35.39,9.52.62,5.4.39,10.78.85,16.14,1.38,4.32.43,8.62.9,12.91,1.42,7.95.94,15.86,2.04,23.72,3.29,0,0,.01,0,.01.01,6.47,1.02,12.9,2.15,19.31,3.38,13.35,2.54,26.57,5.51,39.65,8.91,9.81,2.53,19.53,5.29,29.18,8.29,43.63,13.55,85.6,31.73,125.49,54.06,5.59,3.13,11.14,6.34,16.64,9.63,20.22,12.08,39.88,25.24,58.9,39.41,112.84,84.06,203.66,203.76,260.35,345.18Z" fill="url(#linear-gradient)" stroke-width="0"/><polygon points="1280 572.27 1280 806.97 1163.38 806.15 354.93 800.46 349.64 800.43 0 797.98 0 600.29 162.89 406.88 371.98 558.99 430.46 511.35 588.46 382.64 711.57 521.56 787.18 432.6 892.24 308.99 917.91 305.91 946.57 271.14 1199.12 630.28 1280 572.27" fill="url(#linear-gradient-2)" stroke-width="0"/><polygon points="1280 572.27 1280 806.97 1163.38 806.15 1034.08 625.69 1016.59 526.07 962.54 461.86 946.57 271.14 1199.12 630.28 1280 572.27" fill="url(#linear-gradient-3)" stroke-width="0"/><polygon points="787.18 432.6 713.11 540.6 663.71 483.92 635.4 478.3 576.1 516.69 522.61 494.3 437.1 536.91 430.46 511.35 588.46 382.64 711.57 521.56 787.18 432.6" fill="url(#linear-gradient-4)" stroke-width="0"/><polygon points="401.01 721.35 354.93 800.46 349.64 800.43 339.04 758.74 277.89 743.23 220.6 636.18 183.95 516.29 162.89 406.88 371.98 558.99 376.7 576.81 401.01 721.35" fill="url(#linear-gradient-5)" stroke-width="0"/><path d="M1204.34,461.54c-30.37-87.93-73.86-166.9-129.27-234.74-17.58-21.52-36.07-41.57-55.42-60.1-19.02-14.17-38.68-27.33-58.9-39.41,7.11,5.4,14.12,10.98,21.03,16.73,157.59,131.23,261.44,352.51,261.92,603.02.01.59.01,1.17.01,1.76,0,19.73-.64,39.27-1.9,58.61h8.04c1.24-19.41,1.86-38.95,1.86-58.61v-1.76c-.19-99-16.13-195.05-47.37-285.5ZM1068.49,461.84c-22.89-87.87-55.67-166.8-97.44-234.6-18.95-30.78-39.32-58.56-60.99-83.22-26.17-29.78-54.24-55-83.97-75.42-2.48-1.71-4.97-3.37-7.47-5-9.65-3-19.37-5.76-29.18-8.29,38.89,21.05,75.86,50.82,109.98,88.71,22.99,25.52,44.69,54.72,64.82,87.41,84.82,137.72,131.65,320.77,131.92,515.61.01.59.01,1.17.01,1.76,0,19.67-.47,39.22-1.42,58.61h8.01c.94-19.41,1.41-38.95,1.41-58.61,0-.59,0-1.17-.01-1.76-.13-98.9-12.14-194.84-35.67-285.2ZM836.43,144.02c-18.67-29.59-38.68-54.68-59.88-75.01-8.8-8.45-17.72-15.98-26.76-22.61-6.41-1.23-12.84-2.36-19.31-3.38,13.75,8.45,27.27,19.04,40.53,31.76,19.71,18.91,38.4,42.06,55.93,69.24,16.43,25.48,31.85,54.52,46.14,86.93,60.77,137.83,94.32,321.06,94.52,516.09v1.76c0,19.67-.34,39.22-1.02,58.61h8.01c.67-19.39,1.01-38.94,1.01-58.61v-1.76c-.2-196.11-33.99-380.49-95.2-519.32-13.65-30.97-28.34-58.92-43.97-83.7ZM767.73,144.02c-18.58-46.66-39.14-81.77-60.98-104.3-4.29-.52-8.59-.99-12.91-1.42,10.11,8.96,20.07,20.9,29.83,35.79,12.5,19.06,24.35,42.44,35.46,69.93,10.26,25.36,19.87,54.2,28.8,86.38,38.27,138,59.4,321.42,59.53,516.64v1.76c0,19.67-.21,39.22-.64,58.61h8c.43-19.4.64-38.94.64-58.61v-1.76c-.13-195.92-21.37-380.1-59.82-518.77-8.67-31.26-18.01-59.39-27.91-84.25ZM710.06,144.02c-5.81-28.89-12.03-53.43-18.62-73.38-4.47-13.54-9.04-24.77-13.74-33.72-3.17-.23-6.34-.44-9.52-.62,4.81,8.22,10.1,20.01,15.66,36.85,6.37,19.3,12.41,42.99,18.06,70.87,5.12,25.24,9.92,53.92,14.38,85.87,19.29,138.15,29.95,321.76,30.01,517.15v1.76c0,19.67-.11,39.22-.32,58.61h8c.21-19.39.32-38.94.32-58.61v-1.76c-.06-195.75-10.74-379.75-30.08-518.26-4.39-31.42-9.12-59.73-14.15-84.76ZM603.99,70.64c-6.59,19.95-12.81,44.49-18.62,73.38-5.04,25.03-9.77,53.34-14.15,84.76-19.34,138.51-30.02,322.51-30.08,518.26v1.76c0,19.67.11,39.22.32,58.61h8c-.21-19.39-.32-38.94-.32-58.61v-1.76c.06-195.39,10.71-379,30-517.15,4.47-31.95,9.27-60.63,14.39-85.87,5.65-27.88,11.68-51.57,18.05-70.87,5.79-17.55,11.3-29.62,16.27-37.87-3.12.01-6.23.06-9.33.13-4.97,9.19-9.81,20.91-14.53,35.23ZM604.42,35.86c-4.2.18-8.38.4-12.56.67-23.03,22.34-44.69,58.57-64.16,107.49-9.9,24.86-19.24,52.99-27.91,84.25-38.46,138.67-59.69,322.85-59.82,518.77v1.76c0,19.67.21,39.21.64,58.61h8c-.43-19.39-.64-38.94-.64-58.61v-1.76c.13-195.22,21.26-378.64,59.53-516.64,8.92-32.18,18.54-61.02,28.79-86.38,11.11-27.49,22.96-50.87,35.46-69.93,10.67-16.28,21.58-29.03,32.67-38.23ZM422.35,230.95c14.29-32.41,29.7-61.45,46.13-86.93,17.53-27.18,36.22-50.33,55.93-69.24,16.06-15.41,32.51-27.69,49.28-36.83-6.32.58-12.61,1.26-18.88,2.04-12.18,8.05-24.17,17.73-35.94,29.02-21.2,20.33-41.2,45.42-59.87,75.01-15.63,24.78-30.32,52.73-43.97,83.7-61.21,138.83-95.01,323.21-95.21,519.32v1.76c0,19.67.34,39.22,1.02,58.61h8c-.68-19.39-1.02-38.94-1.02-58.61v-1.76c.2-195.03,33.75-378.26,94.53-516.09ZM199.26,747.04c.27-194.84,47.11-377.89,131.92-515.61,20.14-32.69,41.84-61.89,64.83-87.41,41.03-45.56,86.18-79.39,133.84-100.44-9.64,1.58-19.21,3.39-28.72,5.42-10.71,5.86-21.32,12.4-31.8,19.6-29.73,20.42-57.79,45.64-83.96,75.42-21.67,24.66-42.04,52.44-61,83.22-41.76,67.8-74.54,146.73-97.43,234.6-23.54,90.36-35.55,186.3-35.68,285.2-.01.59-.01,1.17-.01,1.76,0,19.66.47,39.2,1.41,58.61h8.01c-.95-19.39-1.42-38.94-1.42-58.61,0-.59,0-1.17.01-1.76ZM51.72,747.04c.48-250.52,104.33-471.8,261.93-603.02,36.4-30.32,75.66-55.82,117.18-75.77-19.86,6.69-39.36,14.34-58.45,22.91-24.91,15.59-48.82,33.23-71.64,52.86-28.55,24.54-55.39,52.18-80.39,82.78-55.4,67.84-98.89,146.81-129.27,234.74-31.24,90.45-47.18,186.5-47.37,285.5v1.76c0,19.66.62,39.2,1.86,58.61h8.04c-1.26-19.34-1.9-38.88-1.9-58.61,0-.59,0-1.17.01-1.76Z" fill="#f2f2f2" stroke-width="0"/><path d="M163.04,883.22l-1.26,10.1-5.82,46.45c-.12.92-.9,1.62-1.83,1.62h-68.64c-.93,0-1.72-.69-1.83-1.62l-5.8-46.29-1.29-10.26h86.47Z" fill="#ef6130" stroke-width="0"/><path d="M163.04,883.22l-1.26,10.1c-9.99,2.19-25.24,3.58-42.32,3.58s-31.6-1.32-41.6-3.42l-1.29-10.26h86.47Z" fill="#cb491c" stroke-width="0"/><path d="M65.32,860.3v20.37c0,5.33,24.39,9.65,54.49,9.65s54.49-4.32,54.49-9.65v-20.37h-108.98Z" fill="#f05f27" stroke-width="0"/><ellipse cx="119.81" cy="860.3" rx="54.49" ry="9.65" fill="#ffaf92" stroke-width="0"/><ellipse cx="119.81" cy="860.3" rx="48.57" ry="7.64" fill="#3a0e0e" stroke-width="0"/><path d="M1232.51,978.93l-1.26,10.1-5.82,46.45c-.12.92-.9,1.62-1.83,1.62h-68.64c-.93,0-1.72-.69-1.83-1.62l-5.8-46.29-1.29-10.26h86.47Z" fill="#ef6130" stroke-width="0"/><path d="M1232.51,978.93l-1.26,10.1c-9.99,2.19-25.24,3.58-42.32,3.58s-31.6-1.32-41.6-3.42l-1.29-10.26h86.47Z" fill="#cb491c" stroke-width="0"/><path d="M1134.79,956.01v20.37c0,5.33,24.39,9.65,54.49,9.65s54.49-4.32,54.49-9.65v-20.37h-108.98Z" fill="#f05f27" stroke-width="0"/><ellipse cx="1189.27" cy="956.01" rx="54.49" ry="9.65" fill="#ffaf92" stroke-width="0"/><ellipse cx="1189.27" cy="956.01" rx="48.57" ry="7.64" fill="#3a0e0e" stroke-width="0"/><path d="M807.73,942.86l-1.17,8.11-5.41,37.31c-.11.74-.84,1.3-1.71,1.3h-63.85c-.87,0-1.6-.56-1.71-1.3l-5.39-37.18-1.2-8.24h80.43Z" fill="#09403b" stroke-width="0"/><path d="M807.73,942.86l-1.17,8.11c-9.29,1.76-23.48,2.88-39.37,2.88s-29.4-1.06-38.69-2.75l-1.2-8.24h80.43Z" fill="#457369" stroke-width="0"/><path d="M716.83,924.46v16.36c0,4.28,22.69,7.75,50.68,7.75s50.68-3.47,50.68-7.75v-16.36h-101.37Z" fill="#04423d" stroke-width="0"/><ellipse cx="767.52" cy="924.46" rx="50.68" ry="7.75" fill="#e5fefa" stroke-width="0"/><ellipse cx="767.52" cy="924.46" rx="45.17" ry="6.14" fill="#736e0b" stroke-width="0"/><path d="M426.19,797.79l-1.13,7.84-5.23,36.06c-.1.72-.81,1.26-1.65,1.26h-61.71c-.84,0-1.54-.54-1.65-1.26l-5.21-35.94-1.16-7.96h77.74Z" fill="#ef6130" stroke-width="0"/><path d="M426.19,797.79l-1.13,7.84c-8.98,1.7-22.69,2.78-38.05,2.78s-28.41-1.03-37.4-2.66l-1.16-7.96h77.74Z" fill="#cb491c" stroke-width="0"/><path d="M338.34,780v15.82c0,4.14,21.93,7.49,48.99,7.49s48.99-3.36,48.99-7.49v-15.82h-97.97Z" fill="#f05f27" stroke-width="0"/><ellipse cx="387.32" cy="780" rx="48.99" ry="7.49" fill="#ffaf92" stroke-width="0"/><ellipse cx="387.32" cy="780" rx="43.66" ry="5.93" fill="#1a3f40" stroke-width="0"/><path d="M786.4,841.19l-1.97,7.78-7.08,35.76c-.18.71-1.41,1.25-2.86,1.25h-111.11c-1.45,0-2.68-.53-2.86-1.25l-7.04-35.64-2.01-7.9h134.93Z" fill="#ef6130" stroke-width="0"/><path d="M786.4,841.19l-1.97,7.78c-15.59,1.68-39.39,2.76-66.04,2.76s-49.31-1.02-64.91-2.64l-2.01-7.9h134.93Z" fill="#cb491c" stroke-width="0"/><path d="M648.15,823.55v15.68c0,4.1,31.69,7.43,70.78,7.43s70.78-3.33,70.78-7.43v-15.68h-141.56Z" fill="#f05f27" stroke-width="0"/><ellipse cx="718.93" cy="823.55" rx="70.78" ry="7.43" fill="#ffaf92" stroke-width="0"/><ellipse cx="718.93" cy="823.55" rx="63.09" ry="5.88" fill="#3a0e0e" stroke-width="0"/><path d="M1124.59,804.43l-1.04,8.32-4.79,38.26c-.1.76-.74,1.33-1.51,1.33h-56.53c-.77,0-1.41-.57-1.51-1.33l-4.77-38.13-1.06-8.45h71.22Z" fill="#ef6130" stroke-width="0"/><path d="M1124.59,804.43l-1.04,8.32c-8.23,1.8-20.79,2.95-34.86,2.95s-26.03-1.09-34.26-2.82l-1.06-8.45h71.22Z" fill="#cb491c" stroke-width="0"/><path d="M1044.1,785.56v16.78c0,4.39,20.09,7.95,44.88,7.95s44.88-3.56,44.88-7.95v-16.78h-89.76Z" fill="#f05f27" stroke-width="0"/><ellipse cx="1088.98" cy="785.56" rx="44.88" ry="7.95" fill="#ffaf92" stroke-width="0"/><ellipse cx="1088.98" cy="785.56" rx="40" ry="6.29" fill="#877e0e" stroke-width="0"/><path d="M574.14,1007l-1.37,9.5-6.34,43.67c-.13.87-.98,1.52-2,1.52h-74.73c-1.01,0-1.87-.65-2-1.52l-6.31-43.52-1.4-9.65h94.15Z" fill="#09403b" stroke-width="0"/><path d="M574.14,1007l-1.37,9.5c-10.88,2.05-27.48,3.37-46.08,3.37s-34.41-1.24-45.29-3.22l-1.4-9.65h94.15Z" fill="#457369" stroke-width="0"/><path d="M467.74,985.45v19.15c0,5.01,26.56,9.08,59.33,9.08s59.33-4.06,59.33-9.08v-19.15h-118.65Z" fill="#04423d" stroke-width="0"/><ellipse cx="527.07" cy="985.45" rx="59.33" ry="9.08" fill="#e5fefa" stroke-width="0"/><ellipse cx="527.07" cy="985.45" rx="52.88" ry="7.18" fill="#1a3f40" stroke-width="0"/><path d="M449.45,914.63l-2.48,9.78-8.9,44.97c-.23.89-1.77,1.57-3.6,1.57h-139.73c-1.83,0-3.37-.67-3.6-1.57l-8.86-44.82-2.53-9.93h169.69Z" fill="#09403b" stroke-width="0"/><path d="M449.45,914.63l-2.48,9.78c-19.61,2.12-49.53,3.47-83.06,3.47s-62.02-1.28-81.63-3.31l-2.53-9.93h169.69Z" fill="#457369" stroke-width="0"/><path d="M275.6,892.44v19.73c0,5.16,39.85,9.35,89.01,9.35s89.01-4.18,89.01-9.35v-19.73h-178.03Z" fill="#04423d" stroke-width="0"/><ellipse cx="364.61" cy="892.44" rx="89.01" ry="9.35" fill="#e5fefa" stroke-width="0"/><ellipse cx="364.61" cy="892.44" rx="79.34" ry="7.4" fill="#736e0b" stroke-width="0"/><path d="M384.98,667.91c-2.32,17.79-11.59,97.57,3.42,112.44,8.38-13.92,12.13-75.03-1.61-112.65-.34-.92-1.69-.77-1.82.21Z" fill="#0a443e" stroke-width="0"/><path d="M425.04,676.33c-8.4,15.85-44.14,85.35-35.29,104.54,12.73-10.1,36.75-64.05,37.07-104.1,0-.98-1.31-1.31-1.77-.44Z" fill="#0f524b" stroke-width="0"/><path d="M346.23,678.2c3.59,17.58,20.17,93.95,39.2,103.14,3.41-15.89-12.34-72.81-37.55-103.93-.62-.76-1.85-.18-1.65.79Z" fill="#0f524b" stroke-width="0"/><path d="M455.04,732.36c-10.47,4.81-51.43,24.44-61.45,41.68-1.32-.3-2.8-.48-4.38-.48-1.75,0-3.38.21-4.8.58-10.95-11.88-44.55-28.28-72.17-26.85-.75.04-1.19,1.32-.59,1.73,9.74,6.47,48.69,31.42,68.71,30.73,1.51,1.54,4.9,2.61,8.84,2.61,3.33,0,6.27-.76,8.01-1.93,16.06-3.69,46.2-23.11,58.98-46.67.36-.66-.51-1.7-1.16-1.4Z" fill="#0a443e" stroke-width="0"/><path d="M524.36,797.82c-3.87,29.72-19.36,162.97,5.72,187.82,14.01-23.26,20.26-125.33-2.68-188.17-.56-1.54-2.82-1.28-3.03.35Z" fill="#0a443e" stroke-width="0"/><path d="M591.28,811.88c-14.04,26.48-73.73,142.57-58.96,174.63,21.27-16.88,61.39-106.99,61.92-173.89.01-1.64-2.19-2.19-2.96-.74Z" fill="#0f524b" stroke-width="0"/><path d="M459.63,815.02c5.99,29.36,33.69,156.93,65.47,172.29,5.69-26.55-20.61-121.62-62.72-173.6-1.03-1.27-3.08-.29-2.76,1.31Z" fill="#0f524b" stroke-width="0"/><path d="M641.39,905.48c-17.49,8.03-85.91,40.83-102.65,69.62-2.2-.51-4.68-.8-7.31-.8-2.92,0-5.65.36-8.02.97-18.3-19.85-74.41-47.23-120.55-44.85-1.26.07-1.99,2.21-.98,2.88,16.27,10.8,81.34,52.49,114.76,51.33,2.52,2.57,8.18,4.36,14.77,4.36,5.56,0,10.47-1.28,13.38-3.22,26.83-6.16,77.18-38.6,98.51-77.95.6-1.1-.85-2.85-1.94-2.35Z" fill="#0a443e" stroke-width="0"/><path d="M1129.61,777.47c0,3.12-.35,6.15-1.02,9.06-1.69.27-3.47.52-5.34.74-3.56.44-7.43.8-11.53,1.08-3.01.2-6.14.36-9.39.47-2.54.08-5.14.14-7.8.17-.92,0-1.86,0-2.8,0-2.37,0-4.69-.03-6.97-.08-3.54-.08-6.97-.21-10.26-.41-3.3-.19-6.46-.43-9.44-.72-3.96-.39-7.62-.85-10.9-1.39-1.58-.25-3.07-.53-4.46-.82-.54-2.63-.82-5.34-.82-8.13,0-1.31.06-2.6.19-3.88.5-5.16,1.96-10.04,4.22-14.45,2.82-5.53,6.89-10.33,11.83-14.01,3.15-2.36,6.66-4.27,10.42-5.63,2.93-1.06,6.02-1.79,9.23-2.15,1.47-.16,2.97-.25,4.48-.25,1.79,0,3.56.12,5.29.35,2.16.28,4.27.74,6.3,1.34,3.73,1.12,7.22,2.75,10.41,4.82,4.98,3.24,9.19,7.54,12.32,12.6,3.03,4.88,5.05,10.45,5.76,16.42.19,1.59.29,3.19.29,4.83Z" fill="#736e0b" stroke-width="0"/><path d="M1094.54,737.45v51.55c-.92,0-1.86,0-2.8,0-2.37,0-4.69-.03-6.97-.08v-51.58c1.47-.16,2.97-.25,4.48-.25,1.79,0,3.56.12,5.29.35Z" fill="#877e0e" stroke-width="0"/><path d="M1111.72,788.36c-3.01.2-6.14.36-9.39.47,2.42-16.54,1.83-33.23-1.5-50.04,3.73,1.12,7.22,2.75,10.41,4.82,2.13,14.83,2.26,29.74.47,44.74Z" fill="#877e0e" stroke-width="0"/><path d="M1129.61,777.47c0,3.12-.35,6.15-1.02,9.06-1.69.27-3.47.52-5.34.74,1.88-10.22,1.93-20.59.31-31.06,3.03,4.88,5.05,10.45,5.76,16.42.19,1.59.29,3.19.29,4.83Z" fill="#877e0e" stroke-width="0"/><path d="M1074.51,788.53c-3.3-.19-6.46-.43-9.44-.72-1.75-14.31-1.75-28.54.05-42.69,3.15-2.36,6.66-4.27,10.42-5.63-3.08,16.47-3.5,32.82-1.03,49.03Z" fill="#877e0e" stroke-width="0"/><path d="M1054.17,786.42c-1.58-.25-3.07-.53-4.46-.82-.54-2.63-.82-5.34-.82-8.13,0-1.31.06-2.6.19-3.88.5-5.16,1.96-10.04,4.22-14.45-.93,9.16-.67,18.26.88,27.28Z" fill="#877e0e" stroke-width="0"/><path d="M443.32,875.12c0,6.39-.7,12.6-2.01,18.57-3.32.55-6.83,1.06-10.5,1.52-6.99.9-14.6,1.64-22.67,2.21-5.91.42-12.08.74-18.45.97-5,.17-10.12.29-15.33.35-1.81.02-3.65.02-5.5.02-4.65,0-9.22-.05-13.7-.16-6.96-.16-13.7-.43-20.18-.83-6.49-.38-12.71-.88-18.57-1.47-7.79-.8-14.98-1.75-21.43-2.86-3.11-.52-6.03-1.09-8.77-1.68-1.06-5.38-1.61-10.94-1.61-16.65,0-2.68.12-5.33.37-7.94.98-10.57,3.85-20.57,8.29-29.61,5.55-11.33,13.54-21.16,23.25-28.71,6.2-4.83,13.09-8.74,20.5-11.53,5.76-2.18,11.84-3.67,18.15-4.4,2.89-.33,5.83-.5,8.8-.5,3.52,0,6.99.24,10.4.71,4.25.57,8.39,1.51,12.39,2.75,7.32,2.28,14.2,5.62,20.46,9.88,9.78,6.63,18.07,15.45,24.22,25.8,5.96,10,9.93,21.41,11.33,33.64.37,3.25.56,6.54.56,9.9Z" fill="#736e0b" stroke-width="0"/><path d="M374.36,793.14v105.59c-1.81.02-3.65.02-5.5.02-4.65,0-9.22-.05-13.7-.16v-105.66c2.89-.33,5.83-.5,8.8-.5,3.52,0,6.99.24,10.4.71Z" fill="#877e0e" stroke-width="0"/><path d="M408.14,897.42c-5.91.42-12.08.74-18.45.97,4.75-33.88,3.6-68.06-2.94-102.49,7.32,2.28,14.2,5.62,20.46,9.88,4.19,30.37,4.43,60.91.93,91.64Z" fill="#877e0e" stroke-width="0"/><path d="M443.32,875.12c0,6.39-.7,12.6-2.01,18.57-3.32.55-6.83,1.06-10.5,1.52,3.7-20.94,3.79-42.17.61-63.63,5.96,10,9.93,21.41,11.33,33.64.37,3.25.56,6.54.56,9.9Z" fill="#877e0e" stroke-width="0"/><path d="M334.97,897.77c-6.49-.38-12.71-.88-18.57-1.47-3.44-29.31-3.44-58.45.1-87.44,6.2-4.83,13.09-8.74,20.5-11.53-6.05,33.74-6.88,67.23-2.03,100.44Z" fill="#877e0e" stroke-width="0"/><path d="M294.98,893.44c-3.11-.52-6.03-1.09-8.77-1.68-1.06-5.38-1.61-10.94-1.61-16.65,0-2.68.12-5.33.37-7.94.98-10.57,3.85-20.57,8.29-29.61-1.83,18.76-1.31,37.39,1.73,55.88Z" fill="#877e0e" stroke-width="0"/><path d="M807.59,917.52c0,3.12-.35,6.15-1.02,9.06-1.69.27-3.47.52-5.34.74-3.56.44-7.43.8-11.53,1.08-3.01.2-6.14.36-9.39.47-2.54.08-5.14.14-7.8.17-.92,0-1.86,0-2.8,0-2.37,0-4.69-.03-6.97-.08-3.54-.08-6.97-.21-10.26-.41-3.3-.19-6.46-.43-9.44-.72-3.96-.39-7.62-.85-10.9-1.39-1.58-.25-3.07-.53-4.46-.82-.54-2.63-.82-5.34-.82-8.13,0-1.31.06-2.6.19-3.88.5-5.16,1.96-10.04,4.22-14.45,2.82-5.53,6.89-10.33,11.83-14.01,3.15-2.36,6.66-4.27,10.42-5.63,2.93-1.06,6.02-1.79,9.23-2.15,1.47-.16,2.97-.25,4.48-.25,1.79,0,3.56.12,5.29.35,2.16.28,4.27.74,6.3,1.34,3.73,1.12,7.22,2.75,10.41,4.82,4.98,3.24,9.19,7.54,12.32,12.6,3.03,4.88,5.05,10.45,5.76,16.42.19,1.59.29,3.19.29,4.83Z" fill="#736e0b" stroke-width="0"/><path d="M772.51,877.5v51.55c-.92,0-1.86,0-2.8,0-2.37,0-4.69-.03-6.97-.08v-51.58c1.47-.16,2.97-.25,4.48-.25,1.79,0,3.56.12,5.29.35Z" fill="#877e0e" stroke-width="0"/><path d="M789.7,928.41c-3.01.2-6.14.36-9.39.47,2.42-16.54,1.83-33.23-1.5-50.04,3.73,1.12,7.22,2.75,10.41,4.82,2.13,14.83,2.26,29.74.47,44.74Z" fill="#877e0e" stroke-width="0"/><path d="M807.59,917.52c0,3.12-.35,6.15-1.02,9.06-1.69.27-3.47.52-5.34.74,1.88-10.22,1.93-20.59.31-31.06,3.03,4.88,5.05,10.45,5.76,16.42.19,1.59.29,3.19.29,4.83Z" fill="#877e0e" stroke-width="0"/><path d="M752.48,928.58c-3.3-.19-6.46-.43-9.44-.72-1.75-14.31-1.75-28.54.05-42.69,3.15-2.36,6.66-4.27,10.42-5.63-3.08,16.47-3.5,32.82-1.03,49.03Z" fill="#877e0e" stroke-width="0"/><path d="M732.14,926.46c-1.58-.25-3.07-.53-4.46-.82-.54-2.63-.82-5.34-.82-8.13,0-1.31.06-2.6.19-3.88.5-5.16,1.96-10.04,4.22-14.45-.93,9.16-.67,18.26.88,27.28Z" fill="#877e0e" stroke-width="0"/><path d="M1057.71,905.29l-1.97,7.78-7.08,35.76c-.18.71-1.41,1.25-2.86,1.25h-111.11c-1.45,0-2.68-.53-2.86-1.25l-7.04-35.64-2.01-7.9h134.93Z" fill="#ef6130" stroke-width="0"/><path d="M1057.71,905.29l-1.97,7.78c-15.59,1.68-39.39,2.76-66.04,2.76s-49.31-1.02-64.91-2.64l-2.01-7.9h134.93Z" fill="#cb491c" stroke-width="0"/><path d="M919.47,887.65v15.68c0,4.1,31.69,7.43,70.78,7.43s70.78-3.33,70.78-7.43v-15.68h-141.56Z" fill="#f05f27" stroke-width="0"/><ellipse cx="990.25" cy="887.65" rx="70.78" ry="7.43" fill="#ffaf92" stroke-width="0"/><ellipse cx="990.25" cy="887.65" rx="63.09" ry="5.88" fill="#1a3f40" stroke-width="0"/><path d="M984.3,676.88c-4.34,33.31-21.7,182.68,6.41,210.53,15.7-26.07,22.71-140.49-3.01-210.92-.63-1.73-3.16-1.43-3.4.39Z" fill="#0a443e" stroke-width="0"/><path d="M1059.31,692.64c-15.73,29.68-82.65,159.81-66.09,195.74,23.84-18.92,68.82-119.93,69.41-194.91.01-1.84-2.46-2.45-3.32-.83Z" fill="#0f524b" stroke-width="0"/><path d="M911.74,696.16c6.72,32.91,37.76,175.91,73.39,193.12,6.38-29.76-23.1-136.33-70.3-194.59-1.16-1.43-3.46-.33-3.09,1.47Z" fill="#0f524b" stroke-width="0"/><path d="M1115.48,797.56c-19.61,9.01-96.3,45.77-115.06,78.04-2.46-.57-5.24-.9-8.19-.9-3.27,0-6.33.4-8.98,1.09-20.51-22.24-83.41-52.94-135.12-50.27-1.41.07-2.23,2.48-1.1,3.23,18.24,12.11,91.17,58.83,128.64,57.54,2.83,2.88,9.17,4.89,16.56,4.89,6.24,0,11.73-1.43,15-3.61,30.07-6.9,86.51-43.27,110.43-87.38.67-1.23-.95-3.19-2.17-2.63Z" fill="#0a443e" stroke-width="0"/><path d="M873.03,1022.47h-42.86c.17-11.12,9.69-20.07,21.43-20.07s21.26,8.95,21.43,20.07Z" fill="#e18e6f" stroke-width="0"/><path d="M1243.58,1047.54h-30.58c.12-11.12,6.92-20.07,15.29-20.07s15.17,8.95,15.29,20.07Z" fill="#0b322e" stroke-width="0"/><path d="M1168.2,901.59h-38.91c.15-14.15,8.8-25.53,19.46-25.53s19.31,11.39,19.46,25.53Z" fill="#0b322e" stroke-width="0"/><path d="M1064.49,1051.71h-45.19c.18-13.88,10.22-25.05,22.6-25.05s22.42,11.17,22.6,25.05Z" fill="#729a96" stroke-width="0"/><path d="M69.4,836.72H30.27c.15-10.15,8.85-18.32,19.56-18.32s19.41,8.17,19.56,18.32Z" fill="#e18e6f" stroke-width="0"/><path d="M273.18,858.15h-41.26c.16-12.67,9.33-22.87,20.63-22.87s20.47,10.2,20.63,22.87Z" fill="#729a96" stroke-width="0"/><path d="M1219.52,864.29h-33.39c.13-10.25,7.55-18.51,16.7-18.51s16.57,8.25,16.7,18.51Z" fill="#729a96" stroke-width="0"/><path d="M158.89,1026.73h-57.15c.22-17.55,12.92-31.68,28.58-31.68s28.35,14.13,28.58,31.68Z" fill="#729a96" stroke-width="0"/><path d="M947.38,960.74c-.15-11.12-8.74-20.07-19.32-20.07-3.51,0-6.78,1-9.62,2.72-2.69-3.31-6.26-5.35-10.19-5.35-8.28,0-15,8.95-15.12,20.07h15.82c-.12.86-.2,1.74-.22,2.63h38.65Z" fill="#d4490d" stroke-width="0"/><path d="M231.32,965.69h-38.91c.15-14.15,8.8-25.53,19.46-25.53s19.31,11.39,19.46,25.53Z" fill="#0b322e" stroke-width="0"/><path d="M425.08,1050.1c-.22-16.18-12.72-29.21-28.13-29.21-5.11,0-9.88,1.45-14,3.96-3.91-4.82-9.11-7.78-14.84-7.78-12.05,0-21.83,13.03-22,29.21h23.03c-.17,1.26-.3,2.53-.31,3.83h56.26Z" fill="#d4490d" stroke-width="0"/><path d="M888.53,551.73c-32.48,10.65-70.67,48.48-84.07,66.17-8.85,12.99-17.75,26.08-25.11,39.93.82-4.02,1.65-8.32,2.52-12.98,3.7-18.45,35.58-80.21,22.32-101.02-25.1,17.84-48.9,60.87-56.45,80.22,1.71-13.82,2.18-27.83.68-42.12-1.8-20.09-4.49-55.85-26.38-73.36-22.9,25.93-28.59,79.39-30.75,101.31-.53,11.41-1.05,22.89-.87,34.31-3.69-15.46-8.88-30.64-14.04-45.71-8.64-21.81-36.39-71.21-65.36-91.46-14.88,23.88,22.12,94.07,26.54,115.1,10.95,55.82,16.98,67.33,43.47,115.35,9.17,22.83,14.21,47.26,20.44,71,.75,4.08,7.41,35.29,12.55,12.75,1.67,2.25,2.99,3.31,4.02,3.5,3.4,7.18,6.91-5.1,8.5-12.13,2.16-3.56,3.95-7.12,4.49-8.26,11.55-20.15,22.12-41.25,36.27-59.74,2.38-2.4,4.65-4.68,6.8-6.86-2.99,4.92-5.67,10.01-7.64,15.45-4.8,13.25-2.11,31.12-8.25,43.74-3.62,7.43-9.04,13.74-13.84,20.41-.69.96-3.13,4-3.03,5.51.75,11.98,7.38-1.68,8.18-3.47,5.64-10.06,10.67-20.65,17.87-29.72,19.16-17.74,23.57-22.05,34.76-46.37,4.38-9.11,31.42-35.36,25.29-49.41-7.99,1.84-16.36,6.44-23.81,11.74,11.03-13.95,19.43-28.63,32.42-55.21,9.18-18.14,61.11-72.56,52.49-98.65ZM710.78,807.86c-5.92-16.46-12.99-32.62-16.68-49.8-4.94-23.06.46-48.96,1.09-73.38,5.8,24.04,16.07,47.14,18.18,71.76,1.4,16.43-.88,32.84-1.92,49.22-.05.72-.15,1.95-.24,3.37-.17-.46-.32-.87-.43-1.17ZM720.33,734.44c3.35-13.77,7.39-27.47,11.38-41.18-.32,23.34,6.25,48.7,1.67,71.1-2.72,13.25-7.73,25.82-12.34,38.5-.04.06-.09.12-.13.18-.83-22.79-2.95-45.86-.58-68.59ZM732.61,786.89c3.34-13.78,6.93-27.52,12.07-40.67,7.61-14.08,13.27-24.59,17.76-34.16-2.73,16.78-5.28,33.72-12.52,47.89-4.88,9.54-11.01,18.3-17.31,26.95Z" fill="url(#linear-gradient-6)" stroke-width="0"/><path d="M675.68,789.63c-6.33-15.44-1.07-36.92-5.66-53.08-3.56-12.56-10.4-23.71-17.18-34.74-7.58-10.72-30.61-33.31-52.67-38.94-9.15,16.76,21.83,49.36,26.33,60.5,11.39,29.74,16.45,35.09,38.49,57.15,8.02,11.19,13.19,24.16,19.16,36.49.8,2.2,7.63,18.9,9.85,4.47.28-1.81-2.44-5.56-3.2-6.75-5.29-8.21-11.39-16.02-15.12-25.1Z" fill="url(#linear-gradient-7)" stroke-width="0"/><path d="M293.21,585.98c-32.48,10.65-70.67,48.48-84.07,66.17-8.85,12.99-17.75,26.08-25.11,39.93.82-4.02,1.65-8.32,2.52-12.98,3.7-18.45,35.58-80.21,22.32-101.02-25.1,17.84-48.9,60.87-56.45,80.22,1.71-13.82,2.18-27.83.68-42.12-1.8-20.09-4.49-55.85-26.38-73.36-22.9,25.93-28.59,79.39-30.75,101.31-.53,11.41-1.05,22.89-.87,34.31-3.69-15.46-8.88-30.64-14.04-45.71-8.64-21.81-36.39-71.21-65.36-91.46-14.88,23.88,22.12,94.07,26.54,115.1,10.95,55.82,16.98,67.33,43.47,115.35,9.17,22.83,14.21,47.26,20.44,71,.75,4.08,7.41,35.29,12.55,12.75,1.67,2.25,2.99,3.31,4.02,3.5,3.4,7.18,6.91-5.1,8.5-12.13,2.16-3.56,3.95-7.12,4.49-8.26,11.55-20.15,22.12-41.25,36.27-59.74,2.38-2.4,4.65-4.68,6.8-6.86-2.99,4.92-5.67,10.01-7.64,15.45-4.8,13.25-2.11,31.12-8.25,43.74-3.62,7.43-9.04,13.74-13.84,20.41-.69.96-3.13,4-3.03,5.51.75,11.98,7.38-1.68,8.18-3.47,5.64-10.06,10.67-20.65,17.87-29.72,19.16-17.74,23.57-22.05,34.76-46.37,4.38-9.11,31.42-35.36,25.29-49.41-7.99,1.84-16.36,6.44-23.81,11.74,11.03-13.95,19.43-28.63,32.42-55.21,9.18-18.14,61.11-72.56,52.49-98.65ZM115.46,842.1c-5.92-16.46-12.99-32.62-16.68-49.8-4.94-23.06.46-48.96,1.09-73.38,5.8,24.04,16.07,47.14,18.18,71.76,1.4,16.43-.88,32.84-1.92,49.22-.05.72-.15,1.95-.24,3.37-.17-.46-.32-.87-.43-1.17ZM125.01,768.69c3.35-13.77,7.39-27.47,11.38-41.18-.32,23.34,6.25,48.7,1.67,71.1-2.72,13.25-7.73,25.82-12.34,38.5-.04.06-.09.12-.13.18-.83-22.79-2.95-45.86-.58-68.59ZM137.3,821.14c3.34-13.78,6.93-27.52,12.07-40.67,7.61-14.08,13.27-24.59,17.76-34.16-2.73,16.78-5.28,33.72-12.52,47.89-4.88,9.54-11.01,18.3-17.31,26.95Z" fill="url(#linear-gradient-8)" stroke-width="0"/><path d="M80.36,823.87c-6.33-15.44-1.07-36.92-5.66-53.08-3.56-12.56-10.4-23.71-17.18-34.74-7.58-10.72-30.61-33.31-52.67-38.94-9.15,16.76,21.83,49.36,26.33,60.5,11.39,29.74,16.45,35.09,38.49,57.15,8.02,11.19,13.19,24.16,19.16,36.49.8,2.2,7.63,18.9,9.85,4.47.28-1.81-2.44-5.56-3.2-6.75-5.29-8.21-11.39-16.02-15.12-25.1Z" fill="url(#linear-gradient-9)" stroke-width="0"/><path d="M1361.8,680.81c-32.48,10.65-70.67,48.48-84.07,66.17-8.85,12.99-17.75,26.08-25.11,39.93.82-4.02,1.65-8.32,2.52-12.98,3.7-18.45,35.58-80.21,22.32-101.02-25.1,17.84-48.9,60.87-56.45,80.22,1.71-13.82,2.18-27.83.68-42.12-1.8-20.09-4.49-55.85-26.38-73.36-22.9,25.93-28.59,79.39-30.75,101.31-.53,11.41-1.05,22.89-.87,34.31-3.69-15.46-8.88-30.64-14.04-45.71-8.64-21.81-36.39-71.21-65.36-91.46-14.88,23.88,22.12,94.07,26.54,115.1,10.95,55.82,16.98,67.33,43.47,115.35,9.17,22.83,14.21,47.26,20.44,71,.75,4.08,7.41,35.29,12.55,12.75,1.67,2.25,2.99,3.31,4.02,3.5,3.4,7.18,6.91-5.1,8.5-12.13,2.16-3.56,3.95-7.12,4.49-8.26,11.55-20.15,22.12-41.25,36.27-59.74,2.38-2.4,4.65-4.68,6.8-6.86-2.99,4.92-5.67,10.01-7.64,15.45-4.8,13.25-2.11,31.12-8.25,43.74-3.62,7.43-9.04,13.74-13.84,20.41-.69.96-3.13,4-3.03,5.51.75,11.98,7.38-1.68,8.18-3.47,5.64-10.06,10.67-20.65,17.87-29.72,19.16-17.74,23.57-22.05,34.76-46.37,4.38-9.11,31.42-35.36,25.29-49.41-7.99,1.84-16.36,6.44-23.81,11.74,11.03-13.95,19.43-28.63,32.42-55.21,9.18-18.14,61.11-72.56,52.49-98.65ZM1184.05,936.93c-5.92-16.46-12.99-32.62-16.68-49.8-4.94-23.06.46-48.96,1.09-73.38,5.8,24.04,16.07,47.14,18.18,71.76,1.4,16.43-.88,32.84-1.92,49.22-.05.72-.15,1.95-.24,3.37-.17-.46-.32-.87-.43-1.17ZM1193.6,863.51c3.35-13.77,7.39-27.47,11.38-41.18-.32,23.34,6.25,48.7,1.67,71.1-2.72,13.25-7.73,25.82-12.34,38.5-.04.06-.09.12-.13.18-.83-22.79-2.95-45.86-.58-68.59ZM1205.88,915.97c3.34-13.78,6.93-27.52,12.07-40.67,7.61-14.08,13.27-24.59,17.76-34.16-2.73,16.78-5.28,33.72-12.52,47.89-4.88,9.54-11.01,18.3-17.31,26.95Z" fill="url(#linear-gradient-10)" stroke-width="0"/><path d="M1148.94,918.7c-6.33-15.44-1.07-36.92-5.66-53.08-3.56-12.56-10.4-23.71-17.18-34.74-7.58-10.72-30.61-33.31-52.67-38.94-9.15,16.76,21.83,49.36,26.33,60.5,11.39,29.74,16.45,35.09,38.49,57.15,8.02,11.19,13.19,24.16,19.16,36.49.8,2.2,7.63,18.9,9.85,4.47.28-1.81-2.44-5.56-3.2-6.75-5.29-8.21-11.39-16.02-15.12-25.1Z" fill="url(#linear-gradient-11)" stroke-width="0"/></g></g></g></svg>