<svg width="28" height="34" viewBox="0 0 28 34" fill="none" xmlns="http://www.w3.org/2000/svg">
<path d="M6.99902 26.6H20.999M6.99902 22.3333H20.999M18.999 1.00002V8.46668C18.999 8.74958 19.1044 9.02089 19.2919 9.22093C19.4794 9.42097 19.7338 9.53335 19.999 9.53335H26.999M26.999 8.89335V31.9333C26.999 32.2162 26.8937 32.4875 26.7061 32.6876C26.5186 32.8876 26.2642 33 25.999 33H1.99902C1.73381 33 1.47945 32.8876 1.29192 32.6876C1.10438 32.4875 0.999023 32.2162 0.999023 31.9333V2.06668C0.999023 1.78379 1.10438 1.51248 1.29192 1.31244C1.47945 1.1124 1.73381 1.00002 1.99902 1.00002H19.699C19.833 0.999183 19.9658 1.02708 20.0895 1.08205C20.2132 1.13702 20.3252 1.21795 20.419 1.32002L26.719 8.14668C26.9001 8.34707 27.0006 8.61502 26.999 8.89335Z" stroke="#133742" stroke-width="2" stroke-linecap="round"/>
<path d="M6.99902 15.9329C6.99902 15.8983 7.01016 15.8768 7.01836 15.8662H20.9797C20.9879 15.8768 20.999 15.8983 20.999 15.9329V18.0662C20.999 18.1008 20.9879 18.1223 20.9797 18.1329H7.01836C7.01016 18.1223 6.99902 18.1008 6.99902 18.0662V15.9329Z" fill="#133742" stroke="#133742" stroke-width="2"/>
</svg>