<svg width="10" height="7" viewBox="0 0 10 7" fill="none" xmlns="http://www.w3.org/2000/svg">
<path d="M7.39 1.40875C7.461 1.47 7.5 1.55356 7.5 1.64062V2.73438C7.5 2.8214 7.46049 2.90486 7.39017 2.96639C7.31984 3.02793 7.22446 3.0625 7.125 3.0625C7.02554 3.0625 6.93016 3.02793 6.85984 2.96639C6.78951 2.90486 6.75 2.8214 6.75 2.73438V2.4325L5.89 3.185C5.85539 3.21632 5.814 3.2413 5.76824 3.25848C5.72248 3.27566 5.67326 3.28469 5.62347 3.28505C5.57368 3.28541 5.5243 3.27708 5.47823 3.26057C5.43215 3.24405 5.39029 3.21967 5.3551 3.18885C5.31991 3.15802 5.29208 3.12137 5.27325 3.08104C5.25442 3.04071 5.24495 2.9975 5.24541 2.95393C5.24586 2.91036 5.25623 2.86731 5.27591 2.82729C5.29558 2.78726 5.32417 2.75107 5.36 2.72081L6.22 1.96875H5.875C5.77554 1.96875 5.68016 1.93418 5.60984 1.87264C5.53951 1.81111 5.5 1.72765 5.5 1.64062C5.5 1.5536 5.53951 1.47014 5.60984 1.40861C5.68016 1.34707 5.77554 1.3125 5.875 1.3125H7.125C7.22442 1.31258 7.31974 1.3472 7.39 1.40875ZM2.5 5.35938C2.5 5.4464 2.53951 5.52986 2.60983 5.59139C2.68016 5.65293 2.77554 5.6875 2.875 5.6875H4.1255C4.22496 5.6875 4.32034 5.65293 4.39067 5.59139C4.46099 5.52986 4.5005 5.4464 4.5005 5.35938C4.5005 5.27235 4.46099 5.18889 4.39067 5.12736C4.32034 5.06582 4.22496 5.03125 4.1255 5.03125H3.7805L4.6405 4.27875C4.70878 4.21684 4.74653 4.13394 4.74563 4.0479C4.74473 3.96187 4.70525 3.87959 4.63569 3.81878C4.56612 3.75797 4.47205 3.7235 4.37373 3.72279C4.2754 3.72209 4.18069 3.7552 4.11 3.815L3.25 4.56662V4.26475C3.25 4.17773 3.21049 4.09427 3.14016 4.03273C3.06984 3.97119 2.97446 3.93663 2.875 3.93663C2.77554 3.93663 2.68016 3.97119 2.60983 4.03273C2.53951 4.09427 2.5 4.17773 2.5 4.26475V5.35938ZM0 1.20312C0 0.884036 0.144866 0.578017 0.402728 0.352387C0.660591 0.126757 1.01033 0 1.375 0H8.625C8.98967 0 9.33941 0.126757 9.59727 0.352387C9.85513 0.578017 10 0.884036 10 1.20312V5.79688C10 5.95487 9.96443 6.11132 9.89533 6.25729C9.82623 6.40326 9.72495 6.53589 9.59727 6.64761C9.46959 6.75933 9.31801 6.84795 9.15119 6.90842C8.98437 6.96888 8.80557 7 8.625 7H1.375C1.19443 7 1.01563 6.96888 0.84881 6.90842C0.681988 6.84795 0.530409 6.75933 0.402728 6.64761C0.275048 6.53589 0.173766 6.40326 0.104666 6.25729C0.0355654 6.11132 0 5.95487 0 5.79688V1.20312ZM1.375 0.65625C1.03 0.65625 0.75 0.90125 0.75 1.20312V5.79688C0.75 6.09875 1.03 6.34375 1.375 6.34375H8.625C8.97 6.34375 9.25 6.09875 9.25 5.79688V1.20312C9.25 0.90125 8.97 0.65625 8.625 0.65625H1.375Z" fill="#133742"/>
</svg>