<?xml version="1.0" encoding="UTF-8" standalone="no"?>
<svg
   id="Layer_2"
   data-name="Layer 2"
   viewBox="0 0 1234 1076.06"
   version="1.1"
   sodipodi:docname="teacher_standing_against_blackboard.svg"
   inkscape:version="1.2.2 (b0a8486541, 2022-12-01)"
   xmlns:inkscape="http://www.inkscape.org/namespaces/inkscape"
   xmlns:sodipodi="http://sodipodi.sourceforge.net/DTD/sodipodi-0.dtd"
   xmlns:xlink="http://www.w3.org/1999/xlink"
   xmlns="http://www.w3.org/2000/svg"
   xmlns:svg="http://www.w3.org/2000/svg">
  <sodipodi:namedview
     id="namedview8784"
     pagecolor="#ffffff"
     bordercolor="#666666"
     borderopacity="1.0"
     inkscape:showpageshadow="2"
     inkscape:pageopacity="0.0"
     inkscape:pagecheckerboard="0"
     inkscape:deskcolor="#d1d1d1"
     showgrid="false"
     inkscape:zoom="0.56502422"
     inkscape:cx="617.67263"
     inkscape:cy="540.68478"
     inkscape:window-width="1546"
     inkscape:window-height="834"
     inkscape:window-x="0"
     inkscape:window-y="0"
     inkscape:window-maximized="1"
     inkscape:current-layer="Layer_2" />
  <defs
     id="defs7958">
    <style
       id="style7889">
      .cls-1 {
        fill: url(#linear-gradient);
      }

      .cls-1, .cls-2, .cls-3, .cls-4, .cls-5, .cls-6, .cls-7, .cls-8, .cls-9, .cls-10, .cls-11, .cls-12, .cls-13, .cls-14, .cls-15, .cls-16, .cls-17, .cls-18, .cls-19, .cls-20 {
        stroke-width: 0px;
      }

      .cls-2 {
        fill: #3a5462;
      }

      .cls-21 {
        filter: url(#luminosity-noclip-5);
      }

      .cls-22 {
        mask: url(#mask-2);
      }

      .cls-3 {
        fill: #faa283;
      }

      .cls-23 {
        mask: url(#mask-3);
      }

      .cls-4 {
        fill: #d34040;
      }

      .cls-5 {
        fill: url(#linear-gradient-5);
      }

      .cls-6 {
        fill: #fabc3d;
      }

      .cls-7 {
        fill: #fefefe;
      }

      .cls-8 {
        fill: #f59704;
      }

      .cls-9 {
        fill: #c8af83;
      }

      .cls-10 {
        fill: #63b180;
      }

      .cls-11 {
        fill: url(#linear-gradient-2);
      }

      .cls-12 {
        fill: #191d4c;
      }

      .cls-24 {
        filter: url(#luminosity-noclip-4);
      }

      .cls-13 {
        fill: #ef907c;
      }

      .cls-25 {
        mask: url(#mask-4);
      }

      .cls-14 {
        fill: url(#linear-gradient-3);
      }

      .cls-15 {
        fill: #b76631;
      }

      .cls-16 {
        fill: #fd8b60;
      }

      .cls-26 {
        filter: url(#luminosity-noclip);
      }

      .cls-17 {
        fill: #fff;
      }

      .cls-27 {
        mask: url(#mask-1);
      }

      .cls-28 {
        mask: url(#mask);
      }

      .cls-18 {
        fill: #e03f47;
      }

      .cls-29 {
        filter: url(#luminosity-noclip-2);
      }

      .cls-19 {
        fill: url(#linear-gradient-4);
      }

      .cls-30 {
        filter: url(#luminosity-noclip-3);
      }

      .cls-20 {
        fill: #eef0e0;
      }
    </style>
    <filter
       id="luminosity-noclip"
       x="306"
       y="743.9"
       width="248"
       height="338.1"
       color-interpolation-filters="sRGB"
       filterUnits="userSpaceOnUse">
      <feFlood
         flood-color="#fff"
         result="bg"
         id="feFlood7891" />
      <feBlend
         in="SourceGraphic"
         in2="bg"
         id="feBlend7893" />
    </filter>
    <linearGradient
       id="linear-gradient"
       x1="281.27"
       y1="929.46"
       x2="534.14"
       y2="904.87"
       gradientUnits="userSpaceOnUse">
      <stop
         offset=".38"
         stop-color="#fff"
         id="stop7896" />
      <stop
         offset=".64"
         stop-color="#000"
         id="stop7898" />
    </linearGradient>
    <mask
       id="mask"
       x="306"
       y="743.9"
       width="248"
       height="338.1"
       maskUnits="userSpaceOnUse">
      <g
         class="cls-26"
         id="g7903">
        <rect
           class="cls-1"
           x="306"
           y="748"
           width="248"
           height="334"
           id="rect7901" />
      </g>
    </mask>
    <filter
       id="luminosity-noclip-2"
       x="273"
       y="544.63"
       width="237"
       height="312.37"
       color-interpolation-filters="sRGB"
       filterUnits="userSpaceOnUse">
      <feFlood
         flood-color="#fff"
         result="bg"
         id="feFlood7906" />
      <feBlend
         in="SourceGraphic"
         in2="bg"
         id="feBlend7908" />
    </filter>
    <linearGradient
       id="linear-gradient-2"
       x1="291.17"
       y1="732.39"
       x2="414.1"
       y2="703.12"
       gradientUnits="userSpaceOnUse">
      <stop
         offset=".23"
         stop-color="#fff"
         id="stop7911" />
      <stop
         offset="1"
         stop-color="#000"
         id="stop7913" />
    </linearGradient>
    <mask
       id="mask-1"
       x="273"
       y="544.63"
       width="237"
       height="312.37"
       maskUnits="userSpaceOnUse">
      <g
         class="cls-29"
         id="g7918">
        <rect
           class="cls-11"
           x="273"
           y="560"
           width="237"
           height="297"
           id="rect7916" />
      </g>
    </mask>
    <filter
       id="luminosity-noclip-3"
       x="303"
       y="-23"
       width="294"
       height="272"
       color-interpolation-filters="sRGB"
       filterUnits="userSpaceOnUse">
      <feFlood
         flood-color="#fff"
         result="bg"
         id="feFlood7921" />
      <feBlend
         in="SourceGraphic"
         in2="bg"
         id="feBlend7923" />
    </filter>
    <linearGradient
       id="linear-gradient-3"
       x1="231.53"
       y1="-45.89"
       x2="596.41"
       y2="219.48"
       xlink:href="#linear-gradient" />
    <mask
       id="mask-2"
       x="303"
       y="-23"
       width="294"
       height="272"
       maskUnits="userSpaceOnUse">
      <g
         class="cls-30"
         id="g7929">
        <rect
           class="cls-14"
           x="303"
           y="-23"
           width="294"
           height="272"
           id="rect7927" />
      </g>
    </mask>
    <filter
       id="luminosity-noclip-4"
       x="351"
       y="505"
       width="248"
       height="369"
       color-interpolation-filters="sRGB"
       filterUnits="userSpaceOnUse">
      <feFlood
         flood-color="#fff"
         result="bg"
         id="feFlood7932" />
      <feBlend
         in="SourceGraphic"
         in2="bg"
         id="feBlend7934" />
    </filter>
    <linearGradient
       id="linear-gradient-4"
       x1="361.94"
       y1="709.79"
       x2="514.13"
       y2="682.48"
       gradientUnits="userSpaceOnUse">
      <stop
         offset="0"
         stop-color="#fff"
         id="stop7937" />
      <stop
         offset="1"
         stop-color="#000"
         id="stop7939" />
    </linearGradient>
    <mask
       id="mask-3"
       x="351"
       y="505"
       width="248"
       height="369"
       maskUnits="userSpaceOnUse">
      <g
         class="cls-24"
         id="g7944">
        <rect
           class="cls-19"
           x="351"
           y="505"
           width="248"
           height="369"
           id="rect7942" />
      </g>
    </mask>
    <filter
       id="luminosity-noclip-5"
       x="390"
       y="680"
       width="314"
       height="182"
       color-interpolation-filters="sRGB"
       filterUnits="userSpaceOnUse">
      <feFlood
         flood-color="#fff"
         result="bg"
         id="feFlood7947" />
      <feBlend
         in="SourceGraphic"
         in2="bg"
         id="feBlend7949" />
    </filter>
    <linearGradient
       id="linear-gradient-5"
       x1="522.37"
       y1="909.36"
       x2="560.23"
       y2="696.67"
       xlink:href="#linear-gradient-2" />
    <mask
       id="mask-4"
       x="390"
       y="680"
       width="314"
       height="182"
       maskUnits="userSpaceOnUse">
      <g
         class="cls-21"
         id="g7955">
        <rect
           class="cls-5"
           x="390"
           y="680"
           width="314"
           height="182"
           id="rect7953" />
      </g>
    </mask>
  </defs>
  <g
     id="Layer_1-2"
     data-name="Layer 1">
    <g
       id="g8780">
      <polygon
         class="cls-2"
         points="1234 810 0 749 0 0 1234 61 1234 810"
         id="polygon7960" />
      <polygon
         class="cls-10"
         points="30 720.45 30 31.52 1204 89.55 1204 778.48 30 720.45"
         id="polygon7962" />
      <g
         id="g8066">
        <path
           class="cls-7"
           d="m 711.5,663.5 c -3.91872,-0.13466 -2.45135,-0.069 0,0 z"
           id="path7964" />
        <path
           class="cls-7"
           d="m 701.25,663.04 c -8.71473,0.0326 16.27705,0.57658 0,0 z"
           id="path7966" />
        <path
           class="cls-7"
           d="m 552.3,654.76 c 0.31667,0.0533 0.31667,0.0533 0,0 z"
           id="path7968" />
        <path
           class="cls-7"
           d="m 460.03,649.29 c 0.34667,-0.0733 0.34667,-0.0733 0,0 z"
           id="path7970" />
        <path
           class="cls-7"
           d="m 444.34,647.02 c 0.30667,0.0467 0.30667,0.0467 0,0 z"
           id="path7972" />
        <path
           class="cls-7"
           d="m 552.3,654.76 c -0.89855,-0.1577 -5.63479,-0.98896 0,0 z"
           id="path7974" />
        <path
           class="cls-7"
           d="m 680.67,662.67 c 2.76614,0.29027 0.80331,-0.34486 0,0 z"
           id="path7976" />
        <path
           class="cls-7"
           d="m 593.01,656.31 c 0.68983,0.4733 2.99193,-1.06981 0,0 z"
           id="path7978" />
        <path
           class="cls-7"
           d="m 624.24,658.04 c -4.02156,0.74008 1.65303,1.06787 0,0 z"
           id="path7980" />
        <path
           class="cls-7"
           d="m 673.71,661.49 c 0.29333,0 0.29333,0 0,0 z"
           id="path7982" />
        <path
           class="cls-7"
           d="m 570.68,654.88 c -0.09,-0.0933 -0.09,-0.0933 0,0 z"
           id="path7984" />
        <path
           class="cls-7"
           d="m 120.67,210.75 c 0.0133,0 0.0133,0 0,0 z"
           id="path7986" />
        <path
           class="cls-7"
           d="m 121.76,174.5 c 0,0.12426 0,1.50241 0,0 z"
           id="path7988" />
        <path
           class="cls-7"
           d="m 415.57,643.94 c 0.0433,0.01 0.0433,0.01 0,0 z"
           id="path7990" />
        <path
           class="cls-7"
           d="m 150.74,631.56 c -3.61635,3.65307 3.35164,2.44198 0,0 z"
           id="path7992" />
        <path
           class="cls-7"
           d="m 679.86,662.62 c -0.42667,-0.0133 -0.42667,-0.0133 0,0 z"
           id="path7994" />
        <path
           class="cls-7"
           d="m 150.24,634.53 c 0.15333,0.0533 0.15333,0.0533 0,0 z"
           id="path7996" />
        <path
           class="cls-7"
           d="m 349.09,641.06 c 0.21667,0.2 0.21667,0.2 0,0 z"
           id="path7998" />
        <path
           class="cls-7"
           d="m 398.51,645.44 c -0.40667,-0.0767 -0.40667,-0.0767 0,0 z"
           id="path8000" />
        <path
           class="cls-7"
           d="m 323.3,641.59 c -4.09214,-1.60221 -0.66785,1.10092 0,0 z"
           id="path8002" />
        <path
           class="cls-7"
           d="m 296.54,640.27 c 0.4599,0.78569 3.03325,-0.0475 0,0 z"
           id="path8004" />
        <path
           class="cls-7"
           d="m 119.1,292.16 c 1.8794,-0.77167 -1.36575,-5.0474 0,0 z"
           id="path8006" />
        <path
           class="cls-7"
           d="m 680.66,662.56 c -2.49105,-0.23341 0.69544,0.47724 0,0 z"
           id="path8008" />
        <path
           class="cls-7"
           d="m 321.72,652.01 c -1.98354,-0.17309 -9.18576,-0.80159 0,0 z"
           id="path8010" />
        <path
           class="cls-7"
           d="m 116.86,484.35 c -0.0467,-0.32667 -0.0467,-0.32667 0,0 z"
           id="path8012" />
        <path
           class="cls-7"
           d="m 304.85,651.32 c -4.46314,-2.21207 -2.32426,-0.0303 0,0 z"
           id="path8014" />
        <path
           class="cls-7"
           d="m 119.69,290.92 v 0 z"
           id="path8016" />
        <path
           class="cls-7"
           d="m 118.91,262.88 c 0.64298,9.67484 2.68908,34.58524 1.73,31.71 -1.36813,0.22784 0.0253,10.89702 -1.42625,1.34125 -0.28171,14.7565 -0.63649,36.61261 0.0763,41.89875 -0.30618,15.98345 -1.86504,31.99201 -1.59625,49.6175 0.41994,11.79348 0.89367,28.56294 0.69775,42.8975 -0.53761,17.07411 -1.20624,36.11945 -1.38155,49.8693 0.89383,6.83075 -1.95491,19.05702 -0.07,22.5657 -2.52094,13.67917 -0.3097,30.63958 -0.92,33.91 -2.67444,12.70424 1.26664,33.19202 0.9175,49.44125 -2.02575,13.21029 3.27891,23.12525 -1.2975,40.45875 -3.55464,14.99297 -0.10922,17.4319 12.24054,14.4825 8.8614,1.77538 30.16156,3.15538 44.5079,4.09133 13.40078,-2.22837 44.3848,5.33892 64.01156,1.74617 11.0262,2.824 34.63568,0.98129 49.62,3.19 6.8737,0.54021 27.43557,-1.88941 36.2,1.92 10.29325,-0.51925 46.46207,-0.65954 41.8175,0.1875 -11.30255,1.40057 19.6105,-1.15078 20.13031,0.80125 17.08362,3.66485 17.7431,-4.44647 28.78344,0.47875 8.12722,0.65991 23.94177,-1.49448 37.88875,1.5625 9.71368,-0.10035 5.2952,-1.7514 17.3,-1.33 10.25749,1.13228 17.96756,0.8098 25.23375,1.45609 16.06912,1.83512 30.69993,0.64241 50.67734,2.1286 12.86333,0.72214 35.42434,1.01629 46.63977,2.04264 -0.55355,-1.59993 26.36845,0.28508 19.95914,0.0727 15.06608,1.49348 22.3762,1.28171 35.45125,1.83125 22.91674,0.34171 41.01602,1.57597 48.21875,1.49875 -5.98022,-0.22469 -17.86456,-0.66786 -22.1,-1.49 -13.21217,-0.89231 -32.49461,-0.64737 -39.05,-2.39 -24.71331,-0.52286 -35.65069,-2.56493 -54.72,-3.24 -0.94194,4.03573 -3.67422,-2.50735 -16.21,-0.63 -14.59007,-0.27227 -33.00098,-0.94227 -49.47,-2.54 3.67199,-0.86947 -9.24319,-0.88306 -12.35,-2.37 -16.67075,-0.88174 -29.44628,-0.11592 -40.55,-1.39 1.32822,-2.22567 -14.98362,0.34733 -25.49,-1.36 -4.38461,-6.77494 -14.60398,-0.0905 -17.84484,-1.48531 1.62413,-4.12849 -19.59106,-0.70031 -17.75141,0.50281 -1.99159,-1.3777 -35.43156,-4.75641 -16.91375,-2.7875 -11.11792,2.1872 9.31772,1.60679 -6.85328,2.29953 -11.17002,-6.89302 -20.32763,-0.41711 -34.07672,-4.13953 -13.79898,0.19062 -20.4845,1.57001 -39.50016,0.0542 -18.09714,-2.2292 -23.18255,0.48553 -35.29328,-3.95156 -12.00812,1.18147 -29.65467,3.17872 -26.26656,-0.12266 -9.70707,-1.60168 -36.77686,2.43136 -32.91375,-1.03625 12.82327,-2.10097 -4.55731,-1.38305 -5.4775,0.91375 -17.57163,-3.73208 -39.44173,-6.47069 -54.18211,-4.02008 -9.20442,-6.95822 -5.02971,-0.49359 -17.58664,-3.96742 -1.90222,-0.49965 -3.64946,-1.99375 -1.90438,-7.95 -1.87615,-20.56332 0.63981,-27.12511 -1.305,-46.31375 2.36603,-20.40734 1.35214,-45.37063 -0.68812,-64.28125 3.02642,-10.39306 -1.63265,-33.37628 1.40375,-47.30766 -0.83423,-15.25832 -1.56697,-32.63587 -0.68984,-49.44812 -1.92419,-15.60376 -3.27273,-20.28664 -1.94641,-35.85922 -1.68956,-2.94036 0.23391,-28.01957 -0.19,-9.07 2.24358,-4.57633 0.14617,-33.59338 -0.5725,-19.865 1.78147,-20.82438 -1.83335,-34.24678 0.21422,-48.08844 -2.16565,-26.26713 -1.05789,-47.71177 -1.49172,-75.99656 -0.64433,-16.25894 -0.5226,-27.60932 -0.66,-44.03 -0.2568,-13.51965 -0.2831,3.43142 -0.56,6.09 -0.24701,14.5271 -0.72497,38.98395 -1.55,53.86 0.57683,-1.43522 0.54065,24.55273 -0.87,21.54 z m 0.51,94.73 c -1.33311,0.0267 1.18725,-5.22734 0,0 z m -0.05,7.96 c -2.82167,-7.60189 3.22582,-1.3615 0,0 z m 6.01,-16.84 c 0.29606,5.64017 -1.18234,-2.3207 0,0 z"
           id="path8018" />
        <path
           class="cls-7"
           d="m 124.25,346.46 c -0.35053,-1.90919 -0.0221,2.31877 0,0 z"
           id="path8020" />
        <path
           class="cls-7"
           d="m 553.42,654.95 c -0.608,-0.16018 0.64481,0.29125 0,0 z"
           id="path8022" />
        <polygon
           class="cls-7"
           points="116.34 475.49 116.64 475.48 116.38 474.78 116.34 475.49"
           id="polygon8024" />
        <path
           class="cls-7"
           d="m 597.1,659.37 c 0.19,0.06 0.19,0.06 0,0 z"
           id="path8026" />
        <path
           class="cls-7"
           d="m 616.02,660.21 c 1.06178,0.11135 6.05822,0.63532 0,0 z"
           id="path8028" />
        <path
           class="cls-7"
           d="m 630.57,660.98 c 0.91595,-0.36944 -0.17163,-0.1398 0,0 z"
           id="path8030" />
        <path
           class="cls-7"
           d="m 399.14,653.59 c -0.18667,0.01 -0.18667,0.01 0,0 z"
           id="path8032" />
        <path
           class="cls-7"
           d="m 468.1,653.74 c -5.08668,-0.23876 -0.78487,1.37221 0,0 z"
           id="path8034" />
        <path
           class="cls-7"
           d="m 322.19,652.05 c 0.0267,-0.33917 -1.25551,0.22155 0,0 z"
           id="path8036" />
        <path
           class="cls-7"
           d="m 462.67,654 c 1.06667,0.05 1.06667,0.05 0,0 z"
           id="path8038" />
        <path
           class="cls-7"
           d="m 693.65,663.05 c 0.38697,0.19475 1.68185,-0.19121 0,0 z"
           id="path8040" />
        <path
           class="cls-7"
           d="m 694.44,663.05 c 0.26,0 0.26,0 0,0 z"
           id="path8042" />
        <path
           class="cls-7"
           d="m 696.86,663.08 c -0.1215,-0.001 -4.25183,-0.0519 0,0 z"
           id="path8044" />
        <path
           class="cls-7"
           d="m 674.38,662.4 c -0.0733,0.0267 -0.0733,0.0267 0,0 z"
           id="path8046" />
        <path
           class="cls-7"
           d="m 668.53,662.24 c 0.76903,2.53858 14.24893,-1.89123 0,0 z"
           id="path8048" />
        <path
           class="cls-7"
           d="m 644.17,659.67 c 6.35185,0.90025 6.08386,-0.46387 0,0 z"
           id="path8050" />
        <path
           class="cls-7"
           d="m 628.98,658.56 c 3.69846,-0.33848 -4.55455,-0.51118 0,0 z"
           id="path8052" />
        <path
           class="cls-7"
           d="m 519.16,652.45 c 1.70755,-1.47853 -1.94052,-0.65132 0,0 z"
           id="path8054" />
        <polygon
           class="cls-7"
           points="497.95 655.9 499.9 656.53 500.88 655.76 497.95 655.9"
           id="polygon8056" />
        <polygon
           class="cls-7"
           points="485.84 648.86 486.73 648.78 483.33 648.92 485.84 648.86"
           id="polygon8058" />
        <path
           class="cls-7"
           d="m 301.36,639.32 c -0.38986,3.75186 3.66385,-0.84682 0,0 z"
           id="path8060" />
        <path
           class="cls-7"
           d="m 221.63,637.01 c -1.59858,-2.38653 -10.17647,0.39118 0,0 z"
           id="path8062" />
        <polygon
           class="cls-7"
           points="127.18 496.64 127.66 498.24 127.25 495.22 127.18 496.64"
           id="polygon8064" />
      </g>
      <g
         id="g8274">
        <path
           class="cls-7"
           d="m 1107.92,300.93 c -1.4203,-0.15549 -1.2851,0.19838 0,0 z"
           id="path8172" />
        <path
           class="cls-7"
           d="m 1103.6,300.38 c -4.1619,0.17305 7.842,0.71017 -0.1475,0.0362 z"
           id="path8174" />
        <path
           class="cls-7"
           d="m 1074.05,262.91 c -0.097,-0.0133 -0.097,-0.0133 0,0 z"
           id="path8176" />
        <path
           class="cls-7"
           d="m 1058.5,281.02 c 0.083,-0.13667 0.083,-0.13667 0,0 z"
           id="path8178" />
        <path
           class="cls-7"
           d="m 1052.24,283.22 c 0.1233,-0.04 0.1233,-0.04 0,0 z"
           id="path8180" />
        <path
           class="cls-7"
           d="m 1074.05,262.91 c 1.2815,0.90318 0.4334,-0.64974 0,0 z"
           id="path8182" />
        <path
           class="cls-7"
           d="m 1094.98,298.7 c 1.2542,0.57008 0.2421,-0.29764 0,0 z"
           id="path8184" />
        <path
           class="cls-7"
           d="m 1068.97,273.81 c 0.042,0.60699 1.1344,0.4164 0,0 z"
           id="path8186" />
        <path
           class="cls-7"
           d="m 1076.39,283.92 c -1.3685,-0.38383 -0.3791,1.01459 0,0 z"
           id="path8188" />
        <path
           class="cls-7"
           d="m 1092.69,296.49 c 0.1167,0.04 0.1167,0.04 0,0 z"
           id="path8190" />
        <path
           class="cls-7"
           d="m 1069.07,266.6 c 0.083,0.0267 0.083,0.0267 0,0 z"
           id="path8192" />
        <path
           class="cls-7"
           d="m 865.42,285.01 c -0.003,-0.0167 -0.003,-0.0167 0,0 z"
           id="path8194" />
        <path
           class="cls-7"
           d="m 850.11,286.62 c 0.23045,0.0929 0.42621,-0.35774 0,0 z"
           id="path8196" />
        <path
           class="cls-7"
           d="m 1041.1,287.17 c 0.1461,0.0491 0.2965,-0.37673 0,0 z"
           id="path8198" />
        <path
           class="cls-7"
           d="m 988.59,270.84 c -1.00891,1.93895 1.84216,-0.64936 0,0 z"
           id="path8200" />
        <path
           class="cls-7"
           d="m 1094.66,298.55 c -0.1733,-0.0633 -0.1733,-0.0633 0,0 z"
           id="path8202" />
        <path
           class="cls-7"
           d="m 988.9,271.54 c 0.06,-0.03 0.06,-0.03 0,0 z"
           id="path8204" />
        <path
           class="cls-7"
           d="m 1015.89,291.55 c 0.07,0.13333 0.07,0.13333 0,0 z"
           id="path8206" />
        <path
           class="cls-7"
           d="m 1035.25,291.2 c -0.17,0.01 -0.17,0.01 0,0 z"
           id="path8208" />
        <path
           class="cls-7"
           d="m 1005.55,290.22 c -1.2494,-1.22341 -0.546,0.46812 0,0 z"
           id="path8210" />
        <path
           class="cls-7"
           d="m 995.48,285.93 c 0.0171,0.48236 1.07232,0.46201 0,0 z"
           id="path8212" />
        <path
           class="cls-7"
           d="m 899.27,278.33 c -0.48423,-1.54317 -1.7876,1.3798 0,0 z"
           id="path8214" />
        <path
           class="cls-7"
           d="m 1095.03,298.56 c -0.9577,-0.33535 0.1424,0.42358 0,0 z"
           id="path8216" />
        <path
           class="cls-7"
           d="m 1003.01,296.05 c -0.8335,-0.38544 -3.70278,-1.71227 0,0 z"
           id="path8218" />
        <path
           class="cls-7"
           d="m 917.08,287.94 c -0.14,-0.04 -0.14,-0.04 0,0 z"
           id="path8220" />
        <path
           class="cls-7"
           d="m 996.09,293.07 c -1.30153,-1.92382 -0.94406,-0.48579 0,0 z"
           id="path8222" />
        <path
           class="cls-7"
           d="m 898.61,277.9 v 0 z"
           id="path8224" />
        <path
           class="cls-7"
           d="m 887.3,281.73 c 2.5739,-2.38252 10.2937,-1.77496 12.11594,-5.40547 -0.49702,1.86925 1.09827,-0.008 3.6739,0.0234 -5.55745,1.26123 0.91947,3.30856 2.95016,-0.50797 5.0181,-0.2814 6.81992,-1.16861 9.62406,-2.79594 -0.28216,1.23491 13.57341,-2.93463 12.62594,-9.14406 -3.06738,-5.90357 -12.12803,-4.44834 -13.89,-4.86 -7.67062,1.30902 -13.07706,1.78471 -14.25,9.45 0.064,8.55471 8.4146,14.24232 13.31,17.84 1.99112,0.69933 8.80882,3.65124 8.74,3.92 5.3423,1.24668 9.95209,2.798 16.4,2.22 -0.05,-1.23186 1.87291,0.52343 5.52,-0.3 7.82719,-1.52867 15.49694,-4.06394 22.01094,-6.57391 3.20128,-1.5988 13.61065,-5.60994 16.38531,-7.65015 5.74909,-3.71111 15.22618,-7.87881 16.93375,-13.80594 1.5925,-2.16068 -6.45839,-6.73457 -10.99,-4.26 -6.1899,0.22137 -13.55583,2.95861 -13.16,10.18 -3.18846,-0.004 5.4416,13.73704 7.13,13.72 4.70187,3.78551 6.48885,5.53307 11.94,7.69656 5.00923,1.95573 8.5391,4.52528 13.0738,5.65969 4.409,2.1005 13.6467,1.02204 15.6562,1.87625 -9.0625,1.81445 8.3267,-1.77691 6.4955,-0.25758 7.0624,-1.43941 8.664,-1.62305 10.0564,-4.93242 4.0648,2.70312 4.5548,-1.05993 8.6969,-2.01125 1.7803,-4.05829 9.2305,-2.64455 9.4542,-5.25938 2.1477,-2.38274 4.1508,-0.58449 2.4693,-3.48953 5.4538,-1.75044 7.2655,-3.84829 10.3849,-5.36718 -1.1893,-0.006 6.8366,-7.23171 5.2928,-3.32516 4.5359,-4.65786 5.9156,-9.08606 7.67,-12.36 -3.1712,-4.29446 -10.6349,-2.6057 -13.42,-0.01 -8.6176,2.709 -4.0211,14.38419 -3.0338,13.46 1.9625,3.36525 2.916,4.35719 5.2338,6.96 -2.7966,-1.16605 1.5078,3.27558 3.9903,4.18797 -0.3462,-0.10104 2.4832,4.17098 4.4509,4.76203 3.0596,2.52382 11.3764,4.93652 13.8488,6.98 0.5814,0.3201 4.8787,1.33642 3.01,1.2 7.4249,1.72707 -1.5693,-1.02346 -3.4617,-1.7502 -1.4833,-1.11517 -4.0812,-3.32739 -7.1399,-3.88636 -2.7914,-2.31108 -5.7206,-4.09833 -8.3,-6.18188 -0.6869,-1.39871 -10.8676,-11.33811 -9.2584,-12.62156 -1.196,-3.64116 -4.4213,-7.92745 -2.3288,-7.37875 0.6761,-0.27396 2.1784,-2.66807 4.4288,-3.15125 4.2696,-5.89275 11.7158,1.23173 4.655,3.3625 -3.0313,1.08946 -2.4595,3.4597 -5.8811,3.20875 -2.7965,3.13878 -5.4216,4.70827 -4.9858,5.32266 -4.7341,-1.13459 -6.9964,9.40198 -6.6281,3.29609 -3.5718,1.05054 -5.0217,4.05724 -8.91,5.5375 -3.1888,0.4513 -6.6494,-1.56091 -6.26,3.0525 -3.4737,1.56833 -1.0321,-3.79327 -5.2,1.04 -2.2296,-0.96678 -2.2774,3.85387 -5.5338,2.7975 -2.6367,-1.48747 -10.5626,0.73955 -4.3462,-0.0775 -3.3072,1.99437 3.6073,0.53187 -2.4233,2.20281 -2.9246,-4.24123 -7.5354,0.83918 -11.1329,-2.22406 -2.7707,-0.21321 -8.3618,0.21429 -6.9225,-1.565 -5.1445,0.22961 -7.8948,-0.52432 -12.5213,-4.35375 -6.34584,-2.90558 -6.13211,-2.4642 -9.73,-6.92 -2.68933,-2.79946 -8.82011,-5.71369 -6.31,-9.26 0.10696,0.7178 2.27561,-6.99195 6.81875,-6.21875 6.34797,-3.17504 -5.63281,3.74947 2.23125,-0.27125 -2.31662,-1.40243 12.8253,-2.06255 4.62,3.44703 -2.55951,2.60679 -5.85827,6.4166 -8.36,5.88297 -0.2292,1.81213 -5.19474,2.84789 -9.57125,6.27875 -3.7089,1.9659 -10.78182,5.28954 -13.36604,5.75111 -7.03501,2.86293 -14.5644,4.13804 -22.18646,4.52389 -6.82278,-0.3952 -11.37099,-1.29555 -16.08531,-3.03516 -7.32819,-1.88688 -11.39686,-8.46377 -15.44469,-11.00734 -5.03691,-3.67503 -1.85552,-10.50544 2.61375,-10.91125 3.77253,-0.77431 6.75383,-0.46058 9.4,0.49 3.93918,1.19795 -9.41961,0.59442 -1.20375,1.50625 -6.02097,0.99846 3.44037,1.76407 -2.68625,1.97375 -3.39055,-1.4375 -8.53191,4.68879 -8.76062,2.87859 -4.49578,1.75142 -11.76719,3.4111 -15.77938,5.06141 -6.93788,1.4059 -14.25175,3.83433 -20.8529,4.91244 -6.05527,2.11678 -10.18332,2.44056 -16.18585,4.13178 -5.2492,0.55657 -6.0863,1.87154 -0.39125,1.00578 -2.14499,0.4042 5.75451,-1.02375 6.7725,-0.9975 6.13251,-0.76367 11.83929,-2.06318 17.1175,-2.4225 3.09837,-1.57615 3.71373,-1.08719 8.5075,-1.8225 1.33834,-0.76129 1.74733,0.27565 0.5825,0.5725 z m 39.69,-14.98 c 0.54885,-0.0216 -1.65091,1.64153 0,0 z m 0.02,-3.2 c 1.4252,1.87239 -0.15968,2.05256 0,0 z m -10.34,3.59 c 0.92444,-0.46377 0.35433,0.72689 0,0 z"
           id="path8226" />
        <path
           class="cls-7"
           d="m 917.68,267.77 c -0.64297,1.3198 1.39343,-0.9025 0,0 z"
           id="path8228" />
        <path
           class="cls-7"
           d="m 1073.71,262.88 c 0.1952,0.0372 -0.2599,-0.17712 0,0 z"
           id="path8230" />
        <polygon
           class="cls-7"
           points="913.42 286.41 913.49 286.28 913.15 286.24 913.42 286.41"
           id="polygon8232" />
        <path
           class="cls-7"
           d="m 1067.22,276.65 c 0,0.1 0,0.1 0,0 z"
           id="path8234" />
        <path
           class="cls-7"
           d="m 1072.11,283.31 c 0.22,0.32333 0.22,0.32333 0,0 z"
           id="path8236" />
        <path
           class="cls-7"
           d="m 1076.51,287.8 c 0.311,0.21656 0.3025,-0.44793 0,0 z"
           id="path8238" />
        <path
           class="cls-7"
           d="m 1037.4,296.82 c -0.077,0.0367 -0.077,0.0367 0,0 z"
           id="path8240" />
        <path
           class="cls-7"
           d="m 1063.25,282.05 c -1.933,1.48006 0.5639,0.80682 0,0 z"
           id="path8242" />
        <path
           class="cls-7"
           d="m 1003.2,296.14 c -0.072,-0.31103 -0.4513,0.0867 0,0 z"
           id="path8244" />
        <path
           class="cls-7"
           d="m 1061.51,283.64 c 0.39,-0.24 0.39,-0.24 0,0 z"
           id="path8246" />
        <path
           class="cls-7"
           d="m 1100.32,300.27 c 0.322,0.19281 0.5516,-0.0536 0,0 z"
           id="path8248" />
        <path
           class="cls-7"
           d="m 1100.66,300.32 c 0.11,0.0167 0.11,0.0167 0,0 z"
           id="path8250" />
        <path
           class="cls-7"
           d="m 1101.69,300.46 c -0.2333,-0.03 -0.2333,-0.03 0,0 z"
           id="path8252" />
        <path
           class="cls-7"
           d="m 1092.5,297.62 c -0.043,0.02 -0.043,0.02 0,0 z"
           id="path8254" />
        <path
           class="cls-7"
           d="m 1090.2,296.63 c 2.3413,1.46561 3.331,1.5041 0,0 z"
           id="path8256" />
        <path
           class="cls-7"
           d="m 1082.29,289.77 c 2.511,2.77242 1.9209,0.22659 0,0 z"
           id="path8258" />
        <path
           class="cls-7"
           d="m 1077.62,285.48 c 1.4706,0.93216 -1.0114,-1.67987 0,0 z"
           id="path8260" />
        <path
           class="cls-7"
           d="m 1077.17,266.89 c -0.743,-0.48252 -1.1018,0.0229 0,0 z"
           id="path8262" />
        <polygon
           class="cls-7"
           points="1074.08 275.14 1075.04 274.96 1074.89 274.15 1074.08 275.14"
           id="polygon8264" />
        <polygon
           class="cls-7"
           points="1066.54 273.92 1066.77 273.62 1065.81 274.65 1066.54 273.92"
           id="polygon8266" />
        <path
           class="cls-7"
           d="m 997.53,286.2 c -0.91396,1.96465 1.52384,0.30618 0,0 z"
           id="path8268" />
        <path
           class="cls-7"
           d="m 982.03,266.22 c 0.9814,0.43214 3.08906,-2.17302 0,0 z"
           id="path8270" />
        <path
           class="cls-7"
           d="m 923.57,285.96 c 1.98488,0.35865 -1.82679,-0.72649 0,0 z"
           id="path8272" />
      </g>
      <g
         id="g8378">
        <path
           class="cls-7"
           d="m 1110.41,354.82 c -1.4203,-0.15549 -1.2851,0.19838 0,0 z"
           id="path8276" />
        <path
           class="cls-7"
           d="m 1106.09,354.27 c -4.1619,0.17305 7.842,0.71017 -0.1475,0.0362 z"
           id="path8278" />
        <path
           class="cls-7"
           d="m 1076.54,316.8 c -0.097,-0.0133 -0.097,-0.0133 0,0 z"
           id="path8280" />
        <path
           class="cls-7"
           d="m 1060.99,334.91 c 0.083,-0.13667 0.083,-0.13667 0,0 z"
           id="path8282" />
        <path
           class="cls-7"
           d="m 1054.73,337.1 c 0.1233,-0.04 0.1233,-0.04 0,0 z"
           id="path8284" />
        <path
           class="cls-7"
           d="m 1076.54,316.8 c 1.2815,0.90318 0.4334,-0.64974 0,0 z"
           id="path8286" />
        <path
           class="cls-7"
           d="m 1097.46,352.59 c 1.2542,0.57008 0.2421,-0.29764 0,0 z"
           id="path8288" />
        <path
           class="cls-7"
           d="m 1071.46,327.7 c 0.042,0.60698 1.1344,0.4164 0,0 z"
           id="path8290" />
        <path
           class="cls-7"
           d="m 1078.87,337.8 c -1.3685,-0.38383 -0.3791,1.01459 0,0 z"
           id="path8292" />
        <path
           class="cls-7"
           d="m 1095.18,350.37 c 0.1167,0.04 0.1167,0.04 0,0 z"
           id="path8294" />
        <path
           class="cls-7"
           d="m 1071.56,320.48 c 0.083,0.0267 0.083,0.0267 0,0 z"
           id="path8296" />
        <path
           class="cls-7"
           d="m 867.91,338.89 c -0.003,-0.0167 -0.003,-0.0167 0,0 z"
           id="path8298" />
        <path
           class="cls-7"
           d="m 852.6,340.5 c 0.23045,0.0929 0.42621,-0.35774 0,0 z"
           id="path8300" />
        <path
           class="cls-7"
           d="m 1043.59,341.06 c 0.1461,0.0491 0.2965,-0.37673 0,0 z"
           id="path8302" />
        <path
           class="cls-7"
           d="m 991.08,324.73 c -1.00891,1.93895 1.84216,-0.64936 0,0 z"
           id="path8304" />
        <path
           class="cls-7"
           d="m 1097.15,352.44 c -0.1733,-0.0633 -0.1733,-0.0633 0,0 z"
           id="path8306" />
        <path
           class="cls-7"
           d="m 991.39,325.42 c 0.06,-0.03 0.06,-0.03 0,0 z"
           id="path8308" />
        <path
           class="cls-7"
           d="m 1018.38,345.44 c 0.07,0.13333 0.07,0.13333 0,0 z"
           id="path8310" />
        <path
           class="cls-7"
           d="m 1037.74,345.08 c -0.17,0.01 -0.17,0.01 0,0 z"
           id="path8312" />
        <path
           class="cls-7"
           d="m 1008.04,344.1 c -1.2494,-1.22341 -0.546,0.46812 0,0 z"
           id="path8314" />
        <path
           class="cls-7"
           d="m 997.97,339.81 c 0.007,0.47156 1.08095,0.47179 0,0 z"
           id="path8316" />
        <path
           class="cls-7"
           d="m 901.75,332.21 c -0.48423,-1.54317 -1.7876,1.3798 0,0 z"
           id="path8318" />
        <path
           class="cls-7"
           d="m 1097.51,352.45 c -0.9577,-0.33535 0.1424,0.42358 0,0 z"
           id="path8320" />
        <path
           class="cls-7"
           d="m 1005.49,349.94 c -0.8335,-0.38544 -3.7028,-1.71227 0,0 z"
           id="path8322" />
        <path
           class="cls-7"
           d="m 919.57,341.82 c -0.14,-0.04 -0.14,-0.04 0,0 z"
           id="path8324" />
        <path
           class="cls-7"
           d="m 998.58,346.96 c -1.30153,-1.92382 -0.94406,-0.48579 0,0 z"
           id="path8326" />
        <path
           class="cls-7"
           d="m 901.1,331.79 v 0 z"
           id="path8328" />
        <path
           class="cls-7"
           d="m 889.79,335.61 c 2.5739,-2.38252 10.2937,-1.77496 12.11594,-5.40547 -0.49702,1.86925 1.09827,-0.008 3.6739,0.0234 -5.55746,1.26123 0.91948,3.30856 2.95016,-0.50797 5.0181,-0.2814 6.81992,-1.1686 9.62406,-2.79594 -0.28538,1.23286 13.57136,-2.9255 12.61594,-9.14406 -3.06738,-5.90357 -12.12803,-4.44834 -13.89,-4.86 -7.67062,1.30901 -13.07706,1.78471 -14.25,9.45 0.064,8.55471 8.4146,14.24232 13.31,17.84 1.99112,0.69933 8.80882,3.65124 8.74,3.92 5.3423,1.24668 9.95209,2.798 16.4,2.22 -0.05,-1.23186 1.87291,0.52343 5.52,-0.3 7.82719,-1.52867 15.49694,-4.06394 22.01094,-6.57391 3.20128,-1.5988 13.61065,-5.60994 16.38531,-7.65015 5.74909,-3.71111 15.22615,-7.87881 16.93375,-13.80594 1.5925,-2.16068 -6.45839,-6.73457 -10.99,-4.26 -6.1899,0.22137 -13.55583,2.95861 -13.16,10.18 -3.18846,-0.004 5.4416,13.73704 7.13,13.72 4.70187,3.78551 6.48885,5.53307 11.94,7.69656 5.0092,1.95573 8.5391,4.52528 13.0738,5.65969 4.409,2.1005 13.6467,1.02204 15.6562,1.87625 -9.0623,1.81495 8.3267,-1.77646 6.4955,-0.25758 7.0624,-1.43941 8.664,-1.62305 10.0564,-4.93242 4.066,2.70329 4.5529,-1.05937 8.6969,-2.01125 1.7818,-4.05969 9.2406,-2.64288 9.4642,-5.25937 2.1477,-2.38275 4.1508,-0.5845 2.4693,-3.48954 5.4538,-1.75044 7.2655,-3.84829 10.3849,-5.36718 -1.1893,-0.006 6.8366,-7.23171 5.2928,-3.32516 4.5359,-4.65786 5.9156,-9.08606 7.67,-12.36 -3.1712,-4.29446 -10.6349,-2.6057 -13.42,-0.01 -8.6176,2.709 -4.0211,14.38419 -3.0338,13.46 1.9625,3.36525 2.916,4.35719 5.2338,6.96 -2.7965,-1.16605 1.5078,3.27558 3.9903,4.18797 -0.346,-0.1018 2.4816,4.17341 4.4509,4.76203 3.0593,2.52377 11.3771,4.93567 13.8488,6.98 0.5814,0.3201 4.8787,1.33642 3.01,1.2 7.4249,1.72707 -1.5693,-1.02346 -3.4617,-1.7502 -1.4833,-1.11517 -4.0812,-3.32739 -7.1399,-3.88636 -2.7908,-2.31144 -5.7212,-4.09631 -8.29,-6.18188 -0.6869,-1.39871 -10.8676,-11.33811 -9.2584,-12.62156 -1.196,-3.64115 -4.4213,-7.92745 -2.3288,-7.37875 0.678,-0.27151 2.18,-2.67517 4.4288,-3.15125 4.2707,-5.89397 11.7152,1.23433 4.655,3.3625 -3.0313,1.08947 -2.4595,3.4597 -5.8811,3.20875 -2.7965,3.13878 -5.4216,4.70827 -4.9858,5.32266 -4.7357,-1.13011 -6.9971,9.39952 -6.6281,3.29609 -3.5716,1.04941 -5.0229,4.06007 -8.91,5.53625 -3.1919,0.42968 -6.6485,-1.56369 -6.26,3.04375 -3.4737,1.56833 -1.0321,-3.79327 -5.2,1.04 -2.2296,-0.96678 -2.2774,3.85387 -5.5338,2.7975 -2.6367,-1.48747 -10.5626,0.73955 -4.3462,-0.0775 -3.3072,1.99437 3.6073,0.53187 -2.4233,2.20281 -2.9246,-4.24124 -7.5354,0.83918 -11.133,-2.22406 -2.7706,-0.21321 -8.3617,0.21429 -6.9225,-1.565 -5.1444,0.22961 -7.8947,-0.52432 -12.5212,-4.35375 -6.34353,-2.9051 -6.13325,-2.46457 -9.73,-6.92 -2.68933,-2.79946 -8.82011,-5.71369 -6.31,-9.26 0.10696,0.7178 2.27561,-6.99195 6.81875,-6.21875 6.34797,-3.17504 -5.63281,3.74947 2.23125,-0.27125 -2.31662,-1.40243 12.8253,-2.06255 4.62,3.44703 -2.55951,2.60679 -5.85827,6.4166 -8.36,5.88297 -0.22919,1.81212 -5.19475,2.84789 -9.57125,6.27875 -3.7089,1.9659 -10.78182,5.28954 -13.36604,5.75111 -7.03501,2.86293 -14.5644,4.13804 -22.18646,4.52389 -6.82278,-0.3952 -11.37099,-1.29555 -16.08531,-3.03516 -7.32819,-1.88688 -11.39686,-8.46377 -15.44469,-11.00734 -5.03691,-3.67503 -1.85552,-10.50544 2.61375,-10.91125 3.77218,-0.77442 6.75427,-0.46051 9.4,0.49 3.93918,1.19795 -9.41961,0.59442 -1.20375,1.50625 -6.02097,0.99846 3.44037,1.76407 -2.68625,1.97375 -3.39055,-1.4375 -8.53191,4.68879 -8.76063,2.87859 -4.50173,1.7517 -11.77727,3.40906 -15.78937,5.06141 -6.93788,1.4059 -14.25175,3.83434 -20.8529,4.91243 -6.05527,2.11679 -10.18332,2.44057 -16.18585,4.13179 -5.2492,0.55657 -6.08631,1.87154 -0.39125,1.00578 -2.145,0.4042 5.75451,-1.02375 6.7725,-0.9975 6.13251,-0.76367 11.83929,-2.06318 17.1175,-2.4225 3.09837,-1.57615 3.71373,-1.08719 8.5075,-1.8225 1.36004,-0.75646 1.73338,0.27538 0.5825,0.5825 z m 39.68,-14.97 c 0.54885,-0.0216 -1.65091,1.64153 0,0 z m 0.03,-3.21 c 1.4252,1.87239 -0.15968,2.05256 0,0 z m -10.34,3.6 c 0.92444,-0.46377 0.35433,0.72689 0,0 z"
           id="path8330" />
        <path
           class="cls-7"
           d="m 920.17,321.65 c -0.64297,1.3198 1.39343,-0.9025 0,0 z"
           id="path8332" />
        <path
           class="cls-7"
           d="m 1076.19,316.76 c 0.1952,0.0372 -0.2599,-0.17712 0,0 z"
           id="path8334" />
        <polygon
           class="cls-7"
           points="915.9 340.29 915.97 340.17 915.64 340.12 915.9 340.29"
           id="polygon8336" />
        <path
           class="cls-7"
           d="m 1069.71,330.54 c -0,0.1 -0,0.1 0,0 z"
           id="path8338" />
        <path
           class="cls-7"
           d="m 1074.6,337.2 c 0.22,0.32333 0.22,0.32333 0,0 z"
           id="path8340" />
        <path
           class="cls-7"
           d="m 1079,341.69 c 0.311,0.21656 0.3025,-0.44793 0,0 z"
           id="path8342" />
        <path
           class="cls-7"
           d="m 1039.89,350.71 c -0.077,0.0367 -0.077,0.0367 0,0 z"
           id="path8344" />
        <path
           class="cls-7"
           d="m 1065.74,335.94 c -1.933,1.48006 0.5639,0.80682 0,0 z"
           id="path8346" />
        <path
           class="cls-7"
           d="m 1005.69,350.02 c -0.072,-0.31103 -0.4513,0.0867 0,0 z"
           id="path8348" />
        <path
           class="cls-7"
           d="m 1064,337.52 c 0.39,-0.24 0.39,-0.24 0,0 z"
           id="path8350" />
        <path
           class="cls-7"
           d="m 1102.81,354.16 c 0.322,0.19281 0.5516,-0.0536 0,0 z"
           id="path8352" />
        <path
           class="cls-7"
           d="m 1103.14,354.21 c 0.11,0.0167 0.11,0.0167 0,0 z"
           id="path8354" />
        <path
           class="cls-7"
           d="m 1104.18,354.34 c -0.2333,-0.03 -0.2333,-0.03 0,0 z"
           id="path8356" />
        <path
           class="cls-7"
           d="m 1094.99,351.51 c -0.043,0.02 -0.043,0.02 0,0 z"
           id="path8358" />
        <path
           class="cls-7"
           d="m 1092.68,350.51 c 2.3413,1.46561 3.331,1.5041 0,0 z"
           id="path8360" />
        <path
           class="cls-7"
           d="m 1084.78,343.66 c 2.511,2.77242 1.9209,0.22659 0,0 z"
           id="path8362" />
        <path
           class="cls-7"
           d="m 1080.11,339.37 c 1.4706,0.93216 -1.0114,-1.67987 0,0 z"
           id="path8364" />
        <path
           class="cls-7"
           d="m 1079.66,320.77 c -0.743,-0.48252 -1.1017,0.0229 0,0 z"
           id="path8366" />
        <polygon
           class="cls-7"
           points="1076.56 329.02 1077.53 328.84 1077.38 328.03 1076.56 329.02"
           id="polygon8368" />
        <polygon
           class="cls-7"
           points="1069.03 327.8 1069.26 327.5 1068.3 328.53 1069.03 327.8"
           id="polygon8370" />
        <path
           class="cls-7"
           d="m 1000.01,340.08 c -0.91396,1.96465 1.5238,0.30618 0,0 z"
           id="path8372" />
        <path
           class="cls-7"
           d="m 984.51,320.1 c 0.9814,0.43214 3.08906,-2.17302 0,0 z"
           id="path8374" />
        <path
           class="cls-7"
           d="m 926.06,339.84 c 1.98489,0.35865 -1.82679,-0.72649 0,0 z"
           id="path8376" />
      </g>
      <g
         id="g8482">
        <path
           class="cls-7"
           d="m 1112.9,408.7 c -1.4204,-0.15549 -1.285,0.19838 0,0 z"
           id="path8380" />
        <path
           class="cls-7"
           d="m 1108.58,408.15 c -4.1619,0.17305 7.842,0.71017 -0.1475,0.0362 z"
           id="path8382" />
        <path
           class="cls-7"
           d="m 1079.03,370.68 c -0.097,-0.0133 -0.097,-0.0133 0,0 z"
           id="path8384" />
        <path
           class="cls-7"
           d="m 1063.48,388.79 c 0.083,-0.13667 0.083,-0.13667 0,0 z"
           id="path8386" />
        <path
           class="cls-7"
           d="m 1057.21,390.99 c 0.1233,-0.04 0.1233,-0.04 0,0 z"
           id="path8388" />
        <path
           class="cls-7"
           d="m 1079.03,370.68 c 1.2815,0.90318 0.4334,-0.64974 0,0 z"
           id="path8390" />
        <path
           class="cls-7"
           d="m 1099.95,406.47 c 1.2542,0.57008 0.2421,-0.29764 0,0 z"
           id="path8392" />
        <path
           class="cls-7"
           d="m 1073.94,381.58 c 0.042,0.60696 1.1344,0.41641 0,0 z"
           id="path8394" />
        <path
           class="cls-7"
           d="m 1081.36,391.69 c -1.3685,-0.38383 -0.3791,1.01459 0,0 z"
           id="path8396" />
        <path
           class="cls-7"
           d="m 1097.67,404.26 c 0.1167,0.04 0.1167,0.04 0,0 z"
           id="path8398" />
        <path
           class="cls-7"
           d="m 1074.05,374.37 c 0.083,0.0267 0.083,0.0267 0,0 z"
           id="path8400" />
        <path
           class="cls-7"
           d="m 870.39,392.78 c -0.003,-0.0167 -0.003,-0.0167 0,0 z"
           id="path8402" />
        <path
           class="cls-7"
           d="m 855.09,394.39 c 0.23045,0.0929 0.42621,-0.35774 0,0 z"
           id="path8404" />
        <path
           class="cls-7"
           d="m 1046.08,394.94 c 0.1461,0.0491 0.2965,-0.37673 0,0 z"
           id="path8406" />
        <path
           class="cls-7"
           d="m 993.57,378.61 c -1.00891,1.93895 1.84216,-0.64936 0,0 z"
           id="path8408" />
        <path
           class="cls-7"
           d="m 1099.64,406.32 c -0.1733,-0.0633 -0.1733,-0.0633 0,0 z"
           id="path8410" />
        <path
           class="cls-7"
           d="m 993.88,379.31 c 0.06,-0.03 0.06,-0.03 0,0 z"
           id="path8412" />
        <path
           class="cls-7"
           d="m 1020.86,399.32 c 0.07,0.13333 0.07,0.13333 0,0 z"
           id="path8414" />
        <path
           class="cls-7"
           d="m 1040.23,398.97 c -0.17,0.01 -0.17,0.01 0,0 z"
           id="path8416" />
        <path
           class="cls-7"
           d="m 1010.52,397.99 c -1.2494,-1.22341 -0.546,0.46812 0,0 z"
           id="path8418" />
        <path
           class="cls-7"
           d="m 1000.46,393.7 c 0.017,0.48232 1.0724,0.46203 0,0 z"
           id="path8420" />
        <path
           class="cls-7"
           d="m 904.24,386.1 c -0.48423,-1.54317 -1.7876,1.3798 0,0 z"
           id="path8422" />
        <path
           class="cls-7"
           d="m 1100,406.33 c -0.9577,-0.33535 0.1424,0.42358 0,0 z"
           id="path8424" />
        <path
           class="cls-7"
           d="m 1007.98,403.82 c -0.8335,-0.38544 -3.7028,-1.71227 0,0 z"
           id="path8426" />
        <path
           class="cls-7"
           d="m 922.06,395.7 c -0.14,-0.04 -0.14,-0.04 0,0 z"
           id="path8428" />
        <path
           class="cls-7"
           d="m 1001.07,400.84 c -1.30153,-1.92382 -0.9441,-0.48579 0,0 z"
           id="path8430" />
        <path
           class="cls-7"
           d="m 903.58,385.67 v 0 z"
           id="path8432" />
        <path
           class="cls-7"
           d="m 892.28,389.49 c 2.5739,-2.38252 10.2937,-1.77496 12.11594,-5.40547 -0.49701,1.86924 1.09827,-0.008 3.6739,0.0234 -5.5575,1.26122 0.9195,3.30856 2.95016,-0.50797 5.01811,-0.28143 6.81989,-1.16857 9.62406,-2.79594 -0.28216,1.23491 13.57341,-2.93463 12.62594,-9.14406 -3.06763,-5.90212 -12.12677,-4.44986 -13.89,-4.86 -7.67061,1.30901 -13.07706,1.7847 -14.25,9.45 0.064,8.55471 8.4146,14.24232 13.31,17.84 1.99112,0.69933 8.80882,3.65124 8.74,3.92 5.3423,1.24668 9.95209,2.798 16.4,2.22 -0.0533,-1.23158 1.87837,0.52358 5.52,-0.3 7.82719,-1.52867 15.49694,-4.06394 22.01094,-6.57391 3.20128,-1.5988 13.61065,-5.60994 16.38531,-7.65015 5.74909,-3.71111 15.22615,-7.87881 16.93375,-13.80594 1.5925,-2.16068 -6.45839,-6.73457 -10.99,-4.26 -6.1899,0.22137 -13.55583,2.95861 -13.16,10.18 -3.18846,-0.004 5.4416,13.73704 7.13,13.72 4.70039,3.78559 6.47145,5.53255 11.93,7.69656 5.0092,1.95573 8.5391,4.52528 13.0738,5.65969 4.409,2.1005 13.6467,1.02204 15.6562,1.87625 -9.0623,1.81495 8.3267,-1.77646 6.4955,-0.25758 7.0624,-1.43941 8.664,-1.62304 10.0564,-4.93242 4.0693,2.70423 4.5419,-1.06005 8.6869,-2.01125 1.7803,-4.05828 9.2305,-2.64456 9.4542,-5.25938 2.1477,-2.38273 4.1509,-0.5845 2.4693,-3.48953 5.454,-1.75021 7.2656,-3.84732 10.3849,-5.36718 -1.1893,-0.006 6.8366,-7.23171 5.2928,-3.32516 4.5359,-4.65786 5.9156,-9.08606 7.67,-12.36 -3.1712,-4.29446 -10.6349,-2.60571 -13.42,-0.01 -8.6176,2.709 -4.0211,14.38419 -3.0338,13.46 1.9625,3.36525 2.916,4.35719 5.2338,6.96 -2.7965,-1.16604 1.5078,3.27556 3.9903,4.18797 -0.3462,-0.10104 2.4832,4.17098 4.4509,4.76203 3.0593,2.52377 11.3771,4.93567 13.8488,6.98 0.5814,0.3201 4.8787,1.33642 3.01,1.2 7.4248,1.72708 -1.5693,-1.02348 -3.4617,-1.75021 -1.4833,-1.11519 -4.0812,-3.32738 -7.1399,-3.88635 -2.7911,-2.3107 -5.7203,-4.09601 -8.29,-6.18188 -0.6863,-1.39851 -10.8677,-11.33757 -9.2584,-12.62156 -1.196,-3.64115 -4.4213,-7.92746 -2.3288,-7.37875 0.677,-0.27175 2.1823,-2.67546 4.4288,-3.15125 4.2707,-5.89397 11.7152,1.23433 4.655,3.3625 -3.0314,1.08948 -2.4595,3.45967 -5.8811,3.20875 -2.7965,3.13878 -5.4216,4.70827 -4.9858,5.32266 -4.7341,-1.13459 -6.9964,9.40198 -6.6281,3.29609 -3.5716,1.04941 -5.0229,4.06007 -8.91,5.53625 -3.1913,0.43008 -6.6497,-1.5643 -6.26,3.04375 -3.4737,1.56833 -1.0321,-3.79327 -5.2,1.04 -2.2295,-0.96679 -2.2774,3.85386 -5.5338,2.7975 -2.6367,-1.48747 -10.5626,0.73955 -4.3462,-0.0775 -3.3072,1.99437 3.6073,0.53187 -2.4233,2.20281 -2.9245,-4.24127 -7.5354,0.8392 -11.133,-2.22406 -2.7706,-0.21321 -8.3617,0.21429 -6.9225,-1.565 -5.1444,0.22961 -7.8947,-0.52432 -12.5212,-4.35375 -6.34353,-2.9051 -6.13325,-2.46457 -9.73,-6.92 -2.68933,-2.79946 -8.82011,-5.71369 -6.31,-9.26 0.10696,0.71779 2.27561,-6.99194 6.81875,-6.21875 6.34797,-3.17504 -5.63281,3.74947 2.23125,-0.27125 -2.31609,-1.4002 12.8243,-2.06364 4.62,3.44703 -2.55949,2.60678 -5.8583,6.41662 -8.36,5.88297 -0.22912,1.81209 -5.19478,2.8479 -9.57125,6.27875 -3.7089,1.96591 -10.78182,5.28954 -13.36604,5.75111 -7.03501,2.86293 -14.5644,4.13804 -22.18646,4.52389 -6.82278,-0.39521 -11.37099,-1.29554 -16.08531,-3.03516 -7.3282,-1.88688 -11.39684,-8.46376 -15.44469,-11.00734 -5.03691,-3.67503 -1.85553,-10.50543 2.61375,-10.91125 3.77253,-0.77431 6.75383,-0.46058 9.4,0.49 3.93918,1.19795 -9.41961,0.59442 -1.20375,1.50625 -6.02097,0.99846 3.44037,1.76407 -2.68625,1.97375 -3.39055,-1.4375 -8.53191,4.68879 -8.76063,2.87859 -4.49577,1.75142 -11.76718,3.4111 -15.77937,5.06141 -6.93788,1.40589 -14.25177,3.83436 -20.85292,4.91242 -6.05526,2.11684 -10.18331,2.44056 -16.18583,4.1318 -5.24919,0.55657 -6.08634,1.87154 -0.39125,1.00578 -2.14503,0.4042 5.75454,-1.02375 6.7725,-0.9975 6.13251,-0.76367 11.83929,-2.06318 17.1175,-2.4225 3.09837,-1.57615 3.71373,-1.08719 8.5075,-1.8225 1.39874,-0.76892 1.69839,0.29898 0.5925,0.5825 z m 39.68,-14.97 c 0.54885,-0.0216 -1.65091,1.64153 0,0 z m 0.03,-3.2 c 1.4252,1.87239 -0.15968,2.05256 0,0 z m -10.34,3.59 c 0.92444,-0.46377 0.35433,0.72689 0,0 z"
           id="path8434" />
        <path
           class="cls-7"
           d="m 922.66,375.54 c -0.64297,1.3198 1.39343,-0.9025 0,0 z"
           id="path8436" />
        <path
           class="cls-7"
           d="m 1078.68,370.64 c 0.1952,0.0372 -0.2599,-0.17712 0,0 z"
           id="path8438" />
        <polygon
           class="cls-7"
           points="918.39 394.18 918.46 394.05 918.12 394.01 918.39 394.18"
           id="polygon8440" />
        <path
           class="cls-7"
           d="m 1072.2,384.42 c 0,0.1 0,0.1 0,0 z"
           id="path8442" />
        <path
           class="cls-7"
           d="m 1077.09,391.08 c 0.22,0.32333 0.22,0.32333 0,0 z"
           id="path8444" />
        <path
           class="cls-7"
           d="m 1081.49,395.57 c 0.311,0.21656 0.3025,-0.44793 0,0 z"
           id="path8446" />
        <path
           class="cls-7"
           d="m 1042.37,404.59 c -0.077,0.0367 -0.077,0.0367 0,0 z"
           id="path8448" />
        <path
           class="cls-7"
           d="m 1068.22,389.82 c -1.933,1.48006 0.5639,0.80682 0,0 z"
           id="path8450" />
        <path
           class="cls-7"
           d="m 1008.17,403.91 c -0.072,-0.31103 -0.4513,0.0867 0,0 z"
           id="path8452" />
        <path
           class="cls-7"
           d="m 1066.48,391.41 c 0.39,-0.24 0.39,-0.24 0,0 z"
           id="path8454" />
        <path
           class="cls-7"
           d="m 1105.29,408.04 c 0.322,0.19281 0.5516,-0.0536 0,0 z"
           id="path8456" />
        <path
           class="cls-7"
           d="m 1105.63,408.09 c 0.11,0.0167 0.11,0.0167 0,0 z"
           id="path8458" />
        <path
           class="cls-7"
           d="m 1106.66,408.23 c -0.2333,-0.03 -0.2333,-0.03 0,0 z"
           id="path8460" />
        <path
           class="cls-7"
           d="m 1097.48,405.39 c -0.043,0.02 -0.043,0.02 0,0 z"
           id="path8462" />
        <path
           class="cls-7"
           d="m 1095.17,404.4 c 2.3413,1.46561 3.331,1.5041 0,0 z"
           id="path8464" />
        <path
           class="cls-7"
           d="m 1087.26,397.54 c 2.511,2.77242 1.9209,0.22659 0,0 z"
           id="path8466" />
        <path
           class="cls-7"
           d="m 1082.59,393.25 c 1.4706,0.93216 -1.0114,-1.67987 0,0 z"
           id="path8468" />
        <path
           class="cls-7"
           d="m 1082.14,374.66 c -0.7431,-0.48254 -1.1017,0.0229 0,0 z"
           id="path8470" />
        <polygon
           class="cls-7"
           points="1079.05 382.91 1080.01 382.72 1079.87 381.92 1079.05 382.91"
           id="polygon8472" />
        <polygon
           class="cls-7"
           points="1071.52 381.69 1071.75 381.39 1070.78 382.42 1071.52 381.69"
           id="polygon8474" />
        <path
           class="cls-7"
           d="m 1002.5,393.96 c -0.914,1.96467 1.5239,0.30616 0,0 z"
           id="path8476" />
        <path
           class="cls-7"
           d="m 987,373.99 c 0.9814,0.43214 3.08906,-2.17302 0,0 z"
           id="path8478" />
        <path
           class="cls-7"
           d="m 928.55,393.73 c 1.98491,0.35866 -1.8268,-0.72649 0,0 z"
           id="path8480" />
      </g>
      <g
         id="g8586">
        <path
           class="cls-7"
           d="m 1130,558.63 c -1.7771,-0.10992 -1.4678,0.10919 0,0 z"
           id="path8484" />
        <path
           class="cls-7"
           d="m 1124.79,558.07 c -4.8441,-0.22547 9.4105,1.04616 -0.1662,-0.001 l 0.1662,-0.009 z"
           id="path8486" />
        <path
           class="cls-7"
           d="m 1089.33,512.16 c -0.16,0.0133 -0.16,0.0133 0,0 z"
           id="path8488" />
        <path
           class="cls-7"
           d="m 1070.96,535.68 c 0.1233,-0.13333 0.1233,-0.13333 0,0 z"
           id="path8490" />
        <path
           class="cls-7"
           d="m 1063.66,538.92 c 0.1433,-0.06 0.1433,-0.06 0,0 z"
           id="path8492" />
        <path
           class="cls-7"
           d="m 1089.33,512.16 c 0.41,-0.0267 0.41,-0.0267 0,0 z"
           id="path8494" />
        <path
           class="cls-7"
           d="m 1114.54,555.65 c 1.4485,0.61007 0.3235,-0.11297 0,0 z"
           id="path8496" />
        <path
           class="cls-7"
           d="m 1082.2,526.39 c 0.043,0.56014 1.0881,0.82047 0,0 z"
           id="path8498" />
        <path
           class="cls-7"
           d="m 1091.41,538.78 c -1.3042,-0.75302 -0.2285,0.91581 0,0 z"
           id="path8500" />
        <path
           class="cls-7"
           d="m 1111.56,553.53 c 0.14,0.0567 0.14,0.0567 0,0 z"
           id="path8502" />
        <path
           class="cls-7"
           d="m 1082.27,516.72 c 0.067,0 0.067,0 0,0 z"
           id="path8504" />
        <path
           class="cls-7"
           d="m 837.31,538.75 c 0,-0.0133 0,-0.0133 0,0 z"
           id="path8506" />
        <path
           class="cls-7"
           d="m 819.01,541.49 c 0.24693,0.0552 0.5397,-0.28106 0,0 z"
           id="path8508" />
        <path
           class="cls-7"
           d="m 1050.28,544.36 c 0.02,-0.003 0.02,-0.003 0,0 z"
           id="path8510" />
        <path
           class="cls-7"
           d="m 986.51,523.08 c -1.54318,1.9229 1.9824,-0.95716 0,0 z"
           id="path8512" />
        <path
           class="cls-7"
           d="m 1114.17,555.48 c -0.2033,-0.08 -0.2033,-0.08 0,0 z"
           id="path8514" />
        <path
           class="cls-7"
           d="m 986.65,523.59 c 0.0667,-0.04 0.0667,-0.04 0,0 z"
           id="path8516" />
        <path
           class="cls-7"
           d="m 1018.67,549.35 c 0.097,0.0967 0.097,0.0967 0,0 z"
           id="path8518" />
        <path
           class="cls-7"
           d="m 1042.73,548.32 c -0.2033,0.0333 -0.2033,0.0333 0,0 z"
           id="path8520" />
        <path
           class="cls-7"
           d="m 1006.1,547 c -1.8476,-1.25742 -0.3718,0.40192 0,0 z"
           id="path8522" />
        <path
           class="cls-7"
           d="m 993.8,541.68 c 0.19181,0.44953 1.23699,0.56329 0,0 z"
           id="path8524" />
        <path
           class="cls-7"
           d="m 877.95,530.1 c -0.65217,-1.09942 -2.27168,1.47292 0,0 z"
           id="path8526" />
        <path
           class="cls-7"
           d="m 1114.58,555.55 c -1.1393,-0.51615 0.2,0.41977 0,0 z"
           id="path8528" />
        <path
           class="cls-7"
           d="m 1004.17,550.8 c -0.9935,-0.41957 -4.40843,-1.86181 0,0 z"
           id="path8530" />
        <path
           class="cls-7"
           d="m 900.32,542 c -0.16,-0.06 -0.16,-0.06 0,0 z"
           id="path8532" />
        <path
           class="cls-7"
           d="m 996.01,547.35 c -1.88006,-1.65494 -1.02376,-0.60096 0,0 z"
           id="path8534" />
        <path
           class="cls-7"
           d="m 877.23,529.89 v 0 z"
           id="path8536" />
        <path
           class="cls-7"
           d="m 863.49,533.97 c 3.67474,-1.41745 15.06183,-4.36355 14.49,-4.78 0.54469,0.40788 2.23462,-0.84699 4.72625,-1.00828 -7.53635,2.89066 2.81305,0.1342 7.1025,-1.34547 4.4929,-1.18052 8.72459,-3.34229 8.90734,-2.575 4.3311,-2.71109 15.77488,-4.21887 12.26969,-10.97859 -4.69523,-3.53786 -12.05604,-3.27584 -15.08859,-3.255 -9.80303,-0.0742 -18.50768,4.77179 -13.78235,15.79 3.35186,7.78748 14.31727,14.85964 18.37891,16.01484 7.11338,3.72665 6.1274,2.96142 14.36625,4.8875 5.0875,1.84023 12.45625,0.0853 13.23,0.9 9.2027,-0.29658 19.87956,-4.15222 27.20328,-6.48172 7.22329,-3.18488 15.73166,-6.07093 23.61625,-11.16531 4.30049,-2.6663 17.25562,-9.02632 19.38047,-16.21297 -1.01622,-5.4571 -15.45729,-4.2664 -21.665,-0.6325 -10.21247,5.98125 -4.91898,16.84739 4.075,23.9625 2.5376,3.23276 9.65708,7.43837 16.5425,10.32125 6.654,3.32883 13.0076,5.52273 20.9727,6.74641 4.0382,0.58291 14.9511,-0.34493 5.4948,1.03234 10.0211,-1.49789 11.9202,-0.001 21.28,-3.6 -1.5322,0.46712 5.1409,-3.62344 5.74,-1.64 5.2323,-2.63216 10.9449,-6.5415 17.8483,-8.89322 -0.6829,-1.20749 3.0557,-2.08754 3.5904,-2.63428 -1.6636,-1.11171 7.8256,-4.90937 10.025,-7.205 1.4696,-0.59115 8.7258,-7.83762 8.0083,-5.735 4.5484,-4.6995 11.1534,-10.37439 8.198,-15.1925 -7.5791,-1.51922 -17.0883,0.23082 -19.3783,9.14672 0.1465,8.81498 1.1086,6.77702 6.2683,14.35328 -0.025,1.03622 1.1435,1.23193 1.84,3.26 4.4589,3.73018 7.6702,8.11143 13.58,11.49 8.5506,4.89105 15.1156,7.47768 18.2936,8.60422 6.5652,1.41059 -3.6086,-1.0588 -5.9974,-2.59047 -1.9713,-1.36 -8.1451,-4.2653 -12.0462,-6.76375 -6.1541,-4.60184 -6.9116,-5.92313 -13.4,-12.1 -5.6201,-7.11111 -6.1507,-10.95726 -7.6838,-16.69875 0.7112,0.47042 1.2643,-3.12648 5.8638,-5.03125 3.2832,-3.8262 16.8015,-3.63136 9.12,3.34 -2.6728,3.10246 -2.642,2.38146 -6.82,5.77 1.8501,-1.18172 -10.016,6.91163 -8.6847,7.10156 -4.3553,0.54308 -9.6682,8.74023 -7.8753,4.75844 -4.8029,1.18158 -6.443,5.15571 -12.8058,6.83844 0.7638,-1.01635 -6.3725,0.86934 -4.2442,1.25156 -3.1097,2.59058 -3.523,2.19896 -4.41,1.63 -3.5353,0.92286 -6.9276,4.14411 -8,4.16 -3.1997,0.60859 -15.7996,1.49904 -7.51,1.02 -4.1496,1.53998 4.2213,0.14883 -3.1458,1.65766 -6.9952,-1.77901 -11.9695,-0.83338 -21.1386,-2.59578 -1.2393,-2.02475 -9.553,-1.71148 -14.52185,-5.61813 -6.96209,-4.3867 -10.52069,-5.2605 -13.45375,-9.50375 -5.98304,-4.10582 -10.07709,-10.90005 -7.85,-12.24 -1.62581,-6.1197 12.9869,-9.53712 9.7275,-8.205 -6.50809,2.65849 4.62655,-1.29073 0.3425,0.055 4.47028,-3.32881 17.1314,-1.40634 7.68891,5.01203 -2.94661,4.11362 -11.77711,8.39655 -10.14775,7.83239 -6.53874,3.75646 -11.55829,6.93074 -20.10632,10.83261 -6.3794,2.22391 -11.20151,4.94183 -20.14484,6.43297 -8.40982,2.71803 -18.44374,2.27598 -26.16,1.13 -6.85323,-1.61026 -16.74592,-5.24178 -22.38156,-11.02984 -4.37705,-3.5623 -13.15014,-11.39954 -6.73172,-17.5575 6.86543,-3.70277 9.96435,-2.8383 18.44328,-2.06266 2.2936,1.80392 4.64065,0.97073 1.02,1.9 3.6927,0.47136 -9.16886,5.33482 -0.33,1.8 -5.71793,3.44711 -15.71747,5.63199 -18.5875,6.865 -7.01693,1.82739 -15.68307,4.90014 -22.9625,6.33875 -10.2976,2.68551 -20.36466,4.98287 -30.67,7.24625 -1.9227,0.74097 -15.1626,3.19547 -14.21253,3.30411 4.62238,-0.31378 3.39605,-0.38231 5.41253,-0.66411 5.83732,-0.90311 11.49345,-2.18976 18.18078,-3.10922 7.88374,-1.54428 11.44091,-2.4963 16.93594,-3.5189 0.50164,-0.39458 6.78442,-1.27774 3.77328,-0.16188 z m 46.68,-15.88 c -1.94138,2.40658 -0.93779,-0.009 0,0 z m 0.32,-4.45 c 1.5436,1.94057 0.97119,3.07198 0,0 z m -6.41,4.17 c 2.41684,-1.25898 -0.76415,1.0645 0,0 z"
           id="path8538" />
        <path
           class="cls-7"
           d="m 903.33,518.85 c -0.78385,0.56032 1.07266,-0.43372 0,0 z"
           id="path8540" />
        <path
           class="cls-7"
           d="m 1088.77,512.21 c 0.3013,0.0186 -0.3715,-0.0759 0,0 z"
           id="path8542" />
        <polygon
           class="cls-7"
           points="896.11 540.01 896.15 539.92 895.79 539.81 896.11 540.01"
           id="polygon8544" />
        <path
           class="cls-7"
           d="m 1081.47,529.14 c 0.02,0.10333 0.02,0.10333 0,0 z"
           id="path8546" />
        <path
           class="cls-7"
           d="m 1087.28,537.05 c 0.2867,0.36333 0.2867,0.36333 0,0 z"
           id="path8548" />
        <path
           class="cls-7"
           d="m 1092.58,542.37 c 0.4084,0.0239 0.145,-0.0618 0,0 z"
           id="path8550" />
        <path
           class="cls-7"
           d="m 1044.39,552.01 c -0.09,0.0367 -0.09,0.0367 0,0 z"
           id="path8552" />
        <path
           class="cls-7"
           d="m 1075.72,535.37 c -2.2194,1.42582 0.1217,0.82618 0,0 z"
           id="path8554" />
        <path
           class="cls-7"
           d="m 1004.4,550.9 c -0.5203,-0.34361 -0.1134,0.13785 0,0 z"
           id="path8556" />
        <path
           class="cls-7"
           d="m 1073.52,537.08 c 0.4667,-0.28667 0.4667,-0.28667 0,0 z"
           id="path8558" />
        <path
           class="cls-7"
           d="m 1120.91,557.63 c 0.048,0.22839 1.0133,-0.0137 0,0 z"
           id="path8560" />
        <path
           class="cls-7"
           d="m 1121.31,557.7 c 0.13,0.0267 0.13,0.0267 0,0 z"
           id="path8562" />
        <path
           class="cls-7"
           d="m 1122.54,557.92 c -0.2767,-0.0467 -0.2767,-0.0467 0,0 z"
           id="path8564" />
        <path
           class="cls-7"
           d="m 1111.58,554.36 c -0.043,0.007 -0.043,0.007 0,0 z"
           id="path8566" />
        <path
           class="cls-7"
           d="m 1108.84,553.11 c 2.9013,1.64689 3.9061,1.80096 0,0 z"
           id="path8568" />
        <path
           class="cls-7"
           d="m 1098.84,545.61 c 2.9275,2.2986 2.2422,1.13218 0,0 z"
           id="path8570" />
        <path
           class="cls-7"
           d="m 1093.03,540.57 c 1.6179,0.9581 -1.5657,-1.70144 0,0 z"
           id="path8572" />
        <path
           class="cls-7"
           d="m 1094.43,517.55 c -0.1172,-1.27905 -0.8924,0.52705 0,0 z"
           id="path8574" />
        <polygon
           class="cls-7"
           points="1088.47 526.77 1089.46 526.36 1089.53 525.69 1088.47 526.77"
           id="polygon8576" />
        <polygon
           class="cls-7"
           points="1081.21 527.69 1081.52 527.37 1080.26 528.51 1081.21 527.69"
           id="polygon8578" />
        <path
           class="cls-7"
           d="m 996.13,542.36 c -0.83047,1.29711 2.09468,0.37863 0,0 z"
           id="path8580" />
        <path
           class="cls-7"
           d="m 977.68,516.18 c 2.76826,-0.90978 2.34745,-1.55776 0,0 z"
           id="path8582" />
        <path
           class="cls-7"
           d="m 907.22,541.78 c 2.66461,0.71655 -2.37522,-0.90064 0,0 z"
           id="path8584" />
      </g>
      <g
         id="g8690">
        <path
           class="cls-7"
           d="m 1133,623.63 c -1.7771,-0.10992 -1.4678,0.10919 0,0 z"
           id="path8588" />
        <path
           class="cls-7"
           d="m 1127.79,623.07 c -4.8441,-0.22547 9.4105,1.04616 -0.1662,-0.001 l 0.1662,-0.009 z"
           id="path8590" />
        <path
           class="cls-7"
           d="m 1092.33,577.16 c -0.16,0.0133 -0.16,0.0133 0,0 z"
           id="path8592" />
        <path
           class="cls-7"
           d="m 1073.96,600.68 c 0.1233,-0.13333 0.1233,-0.13333 0,0 z"
           id="path8594" />
        <path
           class="cls-7"
           d="m 1066.66,603.92 c 0.1433,-0.06 0.1433,-0.06 0,0 z"
           id="path8596" />
        <path
           class="cls-7"
           d="m 1092.33,577.16 c 0.41,-0.0267 0.41,-0.0267 0,0 z"
           id="path8598" />
        <path
           class="cls-7"
           d="m 1117.54,620.65 c 1.4485,0.61007 0.3235,-0.11297 0,0 z"
           id="path8600" />
        <path
           class="cls-7"
           d="m 1085.2,591.39 c 0.043,0.56014 1.0881,0.82047 0,0 z"
           id="path8602" />
        <path
           class="cls-7"
           d="m 1094.41,603.78 c -1.3042,-0.75302 -0.2285,0.91581 0,0 z"
           id="path8604" />
        <path
           class="cls-7"
           d="m 1114.56,618.53 c 0.14,0.0567 0.14,0.0567 0,0 z"
           id="path8606" />
        <path
           class="cls-7"
           d="m 1085.27,581.72 c 0.067,0 0.067,0 0,0 z"
           id="path8608" />
        <path
           class="cls-7"
           d="m 840.31,603.75 c 0,-0.0133 0,-0.0133 0,0 z"
           id="path8610" />
        <path
           class="cls-7"
           d="m 822.01,606.49 c 0.24693,0.0552 0.5397,-0.28106 0,0 z"
           id="path8612" />
        <path
           class="cls-7"
           d="m 1053.28,609.36 c 0.02,-0.003 0.02,-0.003 0,0 z"
           id="path8614" />
        <path
           class="cls-7"
           d="m 989.51,588.08 c -1.54318,1.9229 1.9824,-0.95716 0,0 z"
           id="path8616" />
        <path
           class="cls-7"
           d="m 1117.17,620.48 c -0.2033,-0.08 -0.2033,-0.08 0,0 z"
           id="path8618" />
        <path
           class="cls-7"
           d="m 989.65,588.59 c 0.0667,-0.04 0.0667,-0.04 0,0 z"
           id="path8620" />
        <path
           class="cls-7"
           d="m 1021.67,614.35 c 0.097,0.0967 0.097,0.0967 0,0 z"
           id="path8622" />
        <path
           class="cls-7"
           d="m 1045.73,613.32 c -0.2033,0.0333 -0.2033,0.0333 0,0 z"
           id="path8624" />
        <path
           class="cls-7"
           d="m 1009.1,612 c -1.8476,-1.25742 -0.3718,0.40192 0,0 z"
           id="path8626" />
        <path
           class="cls-7"
           d="m 996.8,606.68 c 0.19181,0.44953 1.23699,0.56329 0,0 z"
           id="path8628" />
        <path
           class="cls-7"
           d="m 880.95,595.1 c -0.65217,-1.09942 -2.27168,1.47292 0,0 z"
           id="path8630" />
        <path
           class="cls-7"
           d="m 1117.58,620.55 c -1.1393,-0.51615 0.2,0.41977 0,0 z"
           id="path8632" />
        <path
           class="cls-7"
           d="m 1007.17,615.8 c -0.9935,-0.41957 -4.4084,-1.86181 0,0 z"
           id="path8634" />
        <path
           class="cls-7"
           d="m 903.32,607 c -0.16,-0.06 -0.16,-0.06 0,0 z"
           id="path8636" />
        <path
           class="cls-7"
           d="m 999.01,612.35 c -1.88006,-1.65494 -1.02376,-0.60096 0,0 z"
           id="path8638" />
        <path
           class="cls-7"
           d="m 880.23,594.89 v 0 z"
           id="path8640" />
        <path
           class="cls-7"
           d="m 866.49,598.97 c 3.67474,-1.41745 15.06183,-4.36355 14.49,-4.78 0.54469,0.40788 2.23462,-0.84699 4.72625,-1.00828 -7.53635,2.89066 2.81305,0.1342 7.1025,-1.34547 4.4929,-1.18052 8.72459,-3.34229 8.90734,-2.575 4.3311,-2.71109 15.77488,-4.21887 12.26969,-10.97859 -4.69523,-3.53786 -12.05604,-3.27584 -15.08859,-3.255 -9.80303,-0.0742 -18.50768,4.77179 -13.78235,15.79 3.35186,7.78748 14.31727,14.85964 18.37891,16.01484 7.11338,3.72665 6.1274,2.96142 14.36625,4.8875 5.0875,1.84023 12.45625,0.0853 13.23,0.9 9.2027,-0.29658 19.87956,-4.15222 27.20328,-6.48172 7.22329,-3.18488 15.73166,-6.07093 23.61625,-11.16531 4.30049,-2.6663 17.25562,-9.02632 19.38047,-16.21297 -1.0162,-5.4571 -15.45729,-4.2664 -21.665,-0.6325 -10.21247,5.98125 -4.91898,16.84739 4.075,23.9625 2.5376,3.23276 9.65708,7.43837 16.5425,10.32125 6.654,3.32883 13.0076,5.52273 20.9727,6.74641 4.0382,0.58291 14.9511,-0.34493 5.4948,1.03234 10.0211,-1.49789 11.9202,-0.001 21.28,-3.6 -1.5322,0.46712 5.1409,-3.62344 5.74,-1.64 5.2323,-2.63216 10.9449,-6.5415 17.8483,-8.89322 -0.6829,-1.20749 3.0557,-2.08754 3.5904,-2.63428 -1.6636,-1.11171 7.8256,-4.90937 10.025,-7.205 1.4696,-0.59115 8.7258,-7.83762 8.0083,-5.735 4.5484,-4.6995 11.1534,-10.37439 8.198,-15.1925 -7.5791,-1.51922 -17.0883,0.23082 -19.3783,9.14672 0.1465,8.81498 1.1086,6.77702 6.2683,14.35328 -0.025,1.03622 1.1435,1.23193 1.84,3.26 4.4589,3.73018 7.6702,8.11143 13.58,11.49 8.5506,4.89105 15.1156,7.47768 18.2936,8.60422 6.5652,1.41059 -3.6086,-1.0588 -5.9974,-2.59047 -1.9713,-1.36 -8.1451,-4.2653 -12.0462,-6.76375 -6.1541,-4.60184 -6.9116,-5.92313 -13.4,-12.1 -5.6201,-7.11111 -6.1507,-10.95726 -7.6838,-16.69875 0.7112,0.47042 1.2643,-3.12648 5.8638,-5.03125 3.2832,-3.8262 16.8015,-3.63136 9.12,3.34 -2.6728,3.10246 -2.642,2.38146 -6.82,5.77 1.8501,-1.18172 -10.016,6.91163 -8.6847,7.10156 -4.3553,0.54308 -9.6682,8.74023 -7.8753,4.75844 -4.8029,1.18158 -6.443,5.15571 -12.8058,6.83844 0.7638,-1.01635 -6.3725,0.86934 -4.2442,1.25156 -3.1097,2.59058 -3.523,2.19896 -4.41,1.63 -3.5353,0.92286 -6.9276,4.14411 -8,4.16 -3.1997,0.60859 -15.7996,1.49904 -7.51,1.02 -4.1496,1.53998 4.2213,0.14883 -3.1458,1.65766 -6.9952,-1.77901 -11.9695,-0.83338 -21.1386,-2.59578 -1.2393,-2.02475 -9.553,-1.71148 -14.52185,-5.61813 -6.96209,-4.3867 -10.52069,-5.2605 -13.45375,-9.50375 -5.98304,-4.10582 -10.07709,-10.90005 -7.85,-12.24 -1.62581,-6.1197 12.9869,-9.53712 9.7275,-8.205 -6.50809,2.65849 4.62655,-1.29073 0.3425,0.055 4.47028,-3.32881 17.1314,-1.40634 7.68891,5.01203 -2.94661,4.11362 -11.77711,8.39655 -10.14775,7.83239 -6.53874,3.75646 -11.55829,6.93074 -20.10632,10.83261 -6.3794,2.22391 -11.20151,4.94183 -20.14484,6.43297 -8.40982,2.71803 -18.44374,2.27598 -26.16,1.13 -6.85323,-1.61026 -16.74592,-5.24178 -22.38156,-11.02984 -4.37705,-3.5623 -13.15014,-11.39954 -6.73172,-17.5575 6.86543,-3.70277 9.96435,-2.8383 18.44328,-2.06266 2.2936,1.80392 4.64065,0.97073 1.02,1.9 3.6927,0.47136 -9.16886,5.33482 -0.33,1.8 -5.71793,3.44711 -15.71747,5.63199 -18.5875,6.865 -7.01693,1.82739 -15.68307,4.90014 -22.9625,6.33875 -10.2976,2.68551 -20.36466,4.98287 -30.67,7.24625 -1.9227,0.74097 -15.1626,3.19547 -14.21253,3.30411 4.62238,-0.31378 3.39605,-0.38231 5.41253,-0.66411 5.83732,-0.90311 11.49345,-2.18976 18.18078,-3.10922 7.88374,-1.54428 11.44091,-2.4963 16.93594,-3.5189 0.50164,-0.39458 6.78442,-1.27774 3.77328,-0.16188 z m 46.68,-15.88 c -1.94138,2.40658 -0.93779,-0.009 0,0 z m 0.32,-4.45 c 1.5436,1.94057 0.97119,3.07198 0,0 z m -6.41,4.17 c 2.41684,-1.25898 -0.76415,1.0645 0,0 z"
           id="path8642" />
        <path
           class="cls-7"
           d="m 906.33,583.85 c -0.78385,0.56032 1.07266,-0.43372 0,0 z"
           id="path8644" />
        <path
           class="cls-7"
           d="m 1091.77,577.21 c 0.3013,0.0186 -0.3715,-0.0759 0,0 z"
           id="path8646" />
        <polygon
           class="cls-7"
           points="899.11 605.01 899.15 604.92 898.79 604.81 899.11 605.01"
           id="polygon8648" />
        <path
           class="cls-7"
           d="m 1084.47,594.14 c 0.02,0.10333 0.02,0.10333 0,0 z"
           id="path8650" />
        <path
           class="cls-7"
           d="m 1090.28,602.05 c 0.2867,0.36333 0.2867,0.36333 0,0 z"
           id="path8652" />
        <path
           class="cls-7"
           d="m 1095.58,607.37 c 0.4084,0.0239 0.145,-0.0618 0,0 z"
           id="path8654" />
        <path
           class="cls-7"
           d="m 1047.39,617.01 c -0.09,0.0367 -0.09,0.0367 0,0 z"
           id="path8656" />
        <path
           class="cls-7"
           d="m 1078.72,600.37 c -2.2194,1.42582 0.1217,0.82618 0,0 z"
           id="path8658" />
        <path
           class="cls-7"
           d="m 1007.4,615.9 c -0.5203,-0.34361 -0.1134,0.13785 0,0 z"
           id="path8660" />
        <path
           class="cls-7"
           d="m 1076.52,602.08 c 0.4667,-0.28667 0.4667,-0.28667 0,0 z"
           id="path8662" />
        <path
           class="cls-7"
           d="m 1123.91,622.63 c 0.048,0.22839 1.0133,-0.0137 0,0 z"
           id="path8664" />
        <path
           class="cls-7"
           d="m 1124.31,622.7 c 0.13,0.0267 0.13,0.0267 0,0 z"
           id="path8666" />
        <path
           class="cls-7"
           d="m 1125.54,622.92 c -0.2767,-0.0467 -0.2767,-0.0467 0,0 z"
           id="path8668" />
        <path
           class="cls-7"
           d="m 1114.58,619.36 c -0.043,0.007 -0.043,0.007 0,0 z"
           id="path8670" />
        <path
           class="cls-7"
           d="m 1111.84,618.11 c 2.9013,1.64689 3.9061,1.80096 0,0 z"
           id="path8672" />
        <path
           class="cls-7"
           d="m 1101.84,610.61 c 2.9275,2.2986 2.2422,1.13218 0,0 z"
           id="path8674" />
        <path
           class="cls-7"
           d="m 1096.03,605.57 c 1.6179,0.9581 -1.5657,-1.70144 0,0 z"
           id="path8676" />
        <path
           class="cls-7"
           d="m 1097.43,582.55 c -0.1172,-1.27905 -0.8924,0.52705 0,0 z"
           id="path8678" />
        <polygon
           class="cls-7"
           points="1091.47 591.77 1092.46 591.36 1092.53 590.69 1091.47 591.77"
           id="polygon8680" />
        <polygon
           class="cls-7"
           points="1084.21 592.69 1084.52 592.37 1083.26 593.51 1084.21 592.69"
           id="polygon8682" />
        <path
           class="cls-7"
           d="m 999.13,607.36 c -0.83047,1.29711 2.0947,0.37863 0,0 z"
           id="path8684" />
        <path
           class="cls-7"
           d="m 980.68,581.18 c 2.76826,-0.90978 2.34745,-1.55776 0,0 z"
           id="path8686" />
        <path
           class="cls-7"
           d="m 910.22,606.78 c 2.66461,0.71655 -2.37522,-0.90064 0,0 z"
           id="path8688" />
      </g>
      <g
         id="g8698">
        <path
           class="cls-15"
           d="M1042.05,760.73v.28c0,5.17-3.22,9.31-7.16,9.11l-8.86-.43-60.98-2.97-9.78-.48c-3.72-.19-6.71-4.18-6.82-9.09v-.28c0-5.17,3.22-9.31,7.16-9.11l8.85.43,30.68,1.5,40.09,1.96c3.72.18,6.71,4.17,6.82,9.08Z"
           id="path8692" />
        <path
           class="cls-9"
           d="M1029.04,761.02v.39c0,3.76-1.23,6.95-3.01,8.28l-60.98-2.97c-2.14-1.16-3.5-5.55-3.59-9.85v-.39c0-3.76,1.23-6.94,3-8.29.64-.48,1.36-.73,2.11-.67l28.57,2.17,28.93,2.2c2.68.21,4.87,4.21,4.97,9.13Z"
           id="path8694" />
        <path
           class="cls-20"
           d="M1034.64,756.11l-79.52-4.25c-3.71-.2-6.62-3.26-6.62-6.98h0c0-4.01,3.36-7.19,7.36-6.98l79.52,4.25c3.71.2,6.62,3.26,6.62,6.98h0c0,4.01-3.36,7.19-7.36,6.98Z"
           id="path8696" />
      </g>
      <g
         id="g8706">
        <path
           class="cls-15"
           d="M868.05,752.73v.28c0,5.17-3.22,9.31-7.16,9.11l-8.86-.43-60.98-2.97-9.78-.48c-3.72-.19-6.71-4.18-6.82-9.09v-.28c0-5.17,3.22-9.31,7.16-9.11l8.85.43,30.68,1.5,40.09,1.96c3.72.18,6.71,4.17,6.82,9.08Z"
           id="path8700" />
        <path
           class="cls-9"
           d="M855.04,753.02v.39c0,3.76-1.23,6.95-3.01,8.28l-60.98-2.97c-2.14-1.16-3.5-5.55-3.59-9.85v-.39c0-3.76,1.23-6.94,3-8.29.64-.48,1.36-.73,2.11-.67l28.57,2.17,28.93,2.2c2.68.21,4.87,4.21,4.97,9.13Z"
           id="path8702" />
        <path
           class="cls-20"
           d="M860.64,748.11l-79.52-4.25c-3.71-.2-6.62-3.26-6.62-6.98h0c0-4.01,3.36-7.19,7.36-6.98l79.52,4.25c3.71.2,6.62,3.26,6.62,6.98h0c0,4.01-3.36,7.19-7.36,6.98Z"
           id="path8704" />
      </g>
      <rect
         class="cls-12"
         x="301"
         y="394"
         width="80"
         height="246"
         rx="40"
         ry="40"
         transform="translate(-272.18 429.95) rotate(-48.51)"
         id="rect8708" />
      <path
         class="cls-8"
         d="M476,3h0c67.89,0,123,55.11,123,123v188h-246V126c0-67.89,55.11-123,123-123Z"
         id="path8710" />
      <rect
         class="cls-16"
         x="443"
         y="230"
         width="64"
         height="46"
         id="rect8712" />
      <circle
         class="cls-3"
         cx="475.5"
         cy="137.5"
         r="108.5"
         id="circle8714" />
      <rect
         class="cls-12"
         x="657.53"
         y="662.74"
         width="57"
         height="167.3"
         rx="28.5"
         ry="28.5"
         transform="translate(-236.13 325.27) rotate(-22.87)"
         id="rect8716" />
      <path
         class="cls-12"
         d="M568.22,539c-1.2,3.32-1.99,5.1-2.22,5l-7.06,5-81.94,58-97.59-58-8.41-5c-.45-1.67-.89-3.33-1.34-5-25.35-95.24-46-186.85-7.66-233,0,0,48-42,113-42s96.98,1.65,126,35c29.34,33.73-21.18,208.14-32.78,240Z"
         id="path8718" />
      <rect
         class="cls-18"
         x="369.4"
         y="738.38"
         width="103.99"
         height="343.19"
         rx="52"
         ry="52"
         transform="translate(-254.09 168.79) rotate(-17.5)"
         id="rect8720" />
      <g
         class="cls-28"
         mask="url(#mask)"
         id="g8724">
        <rect
           class="cls-4"
           x="369.4"
           y="738.38"
           width="103.99"
           height="343.19"
           rx="52"
           ry="52"
           transform="translate(-254.09 168.79) rotate(-17.5)"
           id="rect8722" />
      </g>
      <rect
         class="cls-18"
         x="248.6"
         y="638.16"
         width="303.59"
         height="115.11"
         rx="57.56"
         ry="57.56"
         transform="translate(-339.35 1007.34) rotate(-82.92)"
         id="rect8726" />
      <g
         class="cls-27"
         mask="url(#mask-1)"
         id="g8730">
        <rect
           class="cls-4"
           x="248.6"
           y="638.16"
           width="303.59"
           height="115.11"
           rx="57.56"
           ry="57.56"
           transform="translate(-339.35 1007.34) rotate(-82.92)"
           id="rect8728" />
      </g>
      <path
         class="cls-18"
         d="M576,630c-30.73,35.51-50.67,39.49-99,53-3,0-30.8-3.35-33-4-52.85-15.63-63.03-27.78-91-69-1.26-10.36-1.51-40.49,13.77-61,1.29-1.74,2.7-3.42,4.23-5h195c2.4,1.46,4.55,3.13,6.49,5,20.14,19.26,16.06,58.04,3.51,81Z"
         id="path8732" />
      <rect
         class="cls-12"
         x="577.93"
         y="276.26"
         width="80"
         height="246"
         rx="40"
         ry="40"
         transform="translate(-117.69 389.11) rotate(-32.08)"
         id="rect8734" />
      <rect
         class="cls-12"
         x="211"
         y="358"
         width="246"
         height="80"
         rx="40"
         ry="40"
         transform="translate(-185.4 384.54) rotate(-48.51)"
         id="rect8736" />
      <rect
         class="cls-12"
         x="589.93"
         y="363.26"
         width="246"
         height="80"
         rx="40"
         ry="40"
         transform="translate(-39.64 726.55) rotate(-52.74)"
         id="rect8738" />
      <circle
         class="cls-3"
         cx="790.43"
         cy="293.76"
         r="49.5"
         id="circle8740" />
      <path
         class="cls-8"
         d="M590,104.31c0-55.95-45.36-101.31-101.31-101.31h-25.38c-77.31,4-105.31,78-105.31,100l2,129h46v-99.61c0-9.05,7.34-16.39,16.39-16.39h167.61v-11.69Z"
         id="path8742" />
      <g
         class="cls-22"
         mask="url(#mask-2)"
         id="g8746">
        <path
           class="cls-6"
           d="M590,104.31c0-55.95-45.36-101.31-101.31-101.31h-25.38c-38.65,2-65.73,19.5-83.4,40.62s-26.91,48.05-26.91,75.59v115.79l53-3v-100.49c0-8.57,6.95-15.51,15.51-15.51h168.49v-11.69Z"
           id="path8744" />
      </g>
      <path
         class="cls-17"
         d="M572.49,549h-205.72c1.29-1.74,2.7-3.42,4.23-5-.45-1.67-.89-3.33-1.34-5h198.56c-1.2,3.32-1.99,5.1-2.22,5,2.4,1.46,4.55,3.13,6.49,5Z"
         id="path8748" />
      <ellipse
         class="cls-8"
         cx="452.5"
         cy="545"
         rx="28.5"
         ry="11"
         id="ellipse8750" />
      <path
         class="cls-16"
         d="M489,187.5c0,6.35-4.03,7.5-9,7.5s-9-1.15-9-7.5,4.03-15.5,9-15.5,9,9.15,9,15.5Z"
         id="path8752" />
      <path
         class="cls-13"
         d="M478.52,228.95c-.78,0-1.55-.03-2.33-.1-14.91-1.32-24.1-14.92-24.48-15.49-.92-1.38-.54-3.24.84-4.16,1.38-.92,3.24-.54,4.16.84.13.19,8.07,11.81,20.05,12.84,7.78.67,15.78-3.22,23.76-11.58,1.14-1.2,3.04-1.24,4.24-.1,1.2,1.14,1.24,3.04.1,4.24-8.57,8.97-17.42,13.51-26.34,13.51Z"
         id="path8754" />
      <ellipse
         class="cls-12"
         cx="446.26"
         cy="159.5"
         rx="9.74"
         ry="10.92"
         id="ellipse8756" />
      <ellipse
         class="cls-12"
         cx="513.33"
         cy="160.7"
         rx="9.67"
         ry="11.48"
         id="ellipse8758" />
      <rect
         class="cls-8"
         x="493.07"
         y="137.28"
         width="40.93"
         height="11.5"
         rx="5.75"
         ry="5.75"
         id="rect8760" />
      <rect
         class="cls-8"
         x="426"
         y="137"
         width="40.93"
         height="11.5"
         rx="5.75"
         ry="5.75"
         id="rect8762" />
      <circle
         class="cls-20"
         cx="510"
         cy="165"
         r="3"
         id="circle8764" />
      <circle
         class="cls-20"
         cx="443"
         cy="164"
         r="3"
         id="circle8766" />
      <rect
         class="cls-18"
         x="338.6"
         y="649.16"
         width="303.59"
         height="115.11"
         rx="57.56"
         ry="57.56"
         transform="translate(-334.07 952.05) rotate(-71.81)"
         id="rect8768" />
      <g
         class="cls-23"
         mask="url(#mask-3)"
         id="g8772">
        <rect
           class="cls-4"
           x="338.6"
           y="649.16"
           width="303.59"
           height="115.11"
           rx="57.56"
           ry="57.56"
           transform="translate(-334.07 952.05) rotate(-71.81)"
           id="rect8770" />
      </g>
      <rect
         class="cls-18"
         x="407.2"
         y="722.66"
         width="276.6"
         height="103.99"
         rx="52"
         ry="52"
         transform="translate(-220.68 217.31) rotate(-18.81)"
         id="rect8774" />
      <g
         class="cls-25"
         mask="url(#mask-4)"
         id="g8778">
        <rect
           class="cls-4"
           x="407.2"
           y="722.66"
           width="276.6"
           height="103.99"
           rx="52"
           ry="52"
           transform="translate(-220.68 217.31) rotate(-18.81)"
           id="rect8776" />
      </g>
    </g>
  </g>
</svg>
