<?xml version="1.0" encoding="UTF-8"?>
<svg id="Layer_2" data-name="Layer 2" xmlns="http://www.w3.org/2000/svg" xmlns:xlink="http://www.w3.org/1999/xlink" viewBox="0 0 1138 1356">
  <defs>
    <style>
      .cls-1 {
        fill: url(#linear-gradient);
      }

      .cls-1, .cls-2, .cls-3, .cls-4, .cls-5, .cls-6, .cls-7, .cls-8, .cls-9, .cls-10, .cls-11, .cls-12, .cls-13, .cls-14, .cls-15, .cls-16, .cls-17, .cls-18, .cls-19 {
        stroke-width: 0px;
      }

      .cls-2 {
        fill: url(#linear-gradient-6);
      }

      .cls-20 {
        filter: url(#luminosity-noclip-5);
      }

      .cls-21 {
        mask: url(#mask-2);
      }

      .cls-3 {
        fill: #74ceea;
      }

      .cls-4 {
        fill: #5e302c;
      }

      .cls-22 {
        mask: url(#mask-3);
      }

      .cls-5 {
        fill: url(#linear-gradient-5);
      }

      .cls-6 {
        fill: #fefefe;
      }

      .cls-7 {
        fill: #fdd382;
      }

      .cls-23 {
        mask: url(#mask-5);
      }

      .cls-8 {
        fill: #639929;
      }

      .cls-9 {
        fill: url(#linear-gradient-2);
      }

      .cls-24 {
        filter: url(#luminosity-noclip-4);
      }

      .cls-25 {
        filter: url(#luminosity-noclip-6);
      }

      .cls-26 {
        mask: url(#mask-4);
      }

      .cls-10 {
        fill: url(#linear-gradient-3);
      }

      .cls-11 {
        fill: #fdb500;
      }

      .cls-12 {
        fill: #002036;
      }

      .cls-13 {
        fill: #ec6d6f;
      }

      .cls-14 {
        fill: #637593;
      }

      .cls-15 {
        fill: #3a9e45;
      }

      .cls-27 {
        filter: url(#luminosity-noclip);
      }

      .cls-28 {
        mask: url(#mask-1);
      }

      .cls-29 {
        mask: url(#mask);
      }

      .cls-16 {
        fill: #206188;
      }

      .cls-17 {
        fill: #fcba4b;
      }

      .cls-30 {
        filter: url(#luminosity-noclip-2);
      }

      .cls-18 {
        fill: url(#linear-gradient-4);
      }

      .cls-31 {
        filter: url(#luminosity-noclip-3);
      }

      .cls-19 {
        fill: #eef0e0;
      }
    </style>
    <filter id="luminosity-noclip" x="677.23" y="55.58" width="283.61" height="211.31" color-interpolation-filters="sRGB" filterUnits="userSpaceOnUse">
      <feFlood flood-color="#fff" result="bg"/>
      <feBlend in="SourceGraphic" in2="bg"/>
    </filter>
    <linearGradient id="linear-gradient" x1="-1921.16" y1="488.26" x2="-1818.33" y2="609.52" gradientTransform="translate(2708.79 -364.03)" gradientUnits="userSpaceOnUse">
      <stop offset=".3" stop-color="#000"/>
      <stop offset=".98" stop-color="#fff"/>
    </linearGradient>
    <mask id="mask" x="677.23" y="55.58" width="283.61" height="211.31" maskUnits="userSpaceOnUse">
      <g class="cls-27">
        <rect class="cls-1" x="691.34" y="80.68" width="255.38" height="161.1" transform="translate(52.38 -169.01) rotate(12.17)"/>
      </g>
    </mask>
    <filter id="luminosity-noclip-2" x="826.11" y="16.7" width="249.5" height="249.48" color-interpolation-filters="sRGB" filterUnits="userSpaceOnUse">
      <feFlood flood-color="#fff" result="bg"/>
      <feBlend in="SourceGraphic" in2="bg"/>
    </filter>
    <linearGradient id="linear-gradient-2" x1="-1825.29" y1="428.21" x2="-1717.31" y2="517.76" gradientTransform="translate(2715.93 -336.68)" xlink:href="#linear-gradient"/>
    <mask id="mask-1" x="826.11" y="16.7" width="249.5" height="249.48" maskUnits="userSpaceOnUse">
      <g class="cls-30">
        <rect class="cls-9" x="845.88" y="36.47" width="209.96" height="209.95" transform="translate(51.17 -197.24) rotate(12.17)"/>
      </g>
    </mask>
    <filter id="luminosity-noclip-3" x="659.89" y="193.58" width="235.84" height="244.94" color-interpolation-filters="sRGB" filterUnits="userSpaceOnUse">
      <feFlood flood-color="#fff" result="bg"/>
      <feBlend in="SourceGraphic" in2="bg"/>
    </filter>
    <linearGradient id="linear-gradient-3" x1="-1976.49" y1="742.84" x2="-1828.02" y2="634.86" gradientTransform="translate(2675.23 -369.24)" gradientUnits="userSpaceOnUse">
      <stop offset=".02" stop-color="#fff"/>
      <stop offset=".7" stop-color="#000"/>
    </linearGradient>
    <mask id="mask-2" x="659.89" y="193.58" width="235.84" height="244.94" maskUnits="userSpaceOnUse">
      <g class="cls-31">
        <rect class="cls-10" x="679.63" y="211.94" width="196.36" height="208.23" transform="translate(84.09 -156.84) rotate(12.17)"/>
      </g>
    </mask>
    <filter id="luminosity-noclip-4" x="715.36" y="279" width="304.7" height="268.18" color-interpolation-filters="sRGB" filterUnits="userSpaceOnUse">
      <feFlood flood-color="#fff" result="bg"/>
      <feBlend in="SourceGraphic" in2="bg"/>
    </filter>
    <linearGradient id="linear-gradient-4" x1="-1842.39" y1="816.78" x2="-1807.36" y2="689.2" gradientTransform="translate(2848.15 76.37) rotate(12.42) scale(1.02 1) skewX(.5)" xlink:href="#linear-gradient-3"/>
    <mask id="mask-3" x="715.36" y="279" width="304.7" height="268.18" maskUnits="userSpaceOnUse">
      <g class="cls-24">
        <polygon class="cls-18" points="975.59 547.17 715.36 489.85 759.83 279 1020.06 336.32 975.59 547.17"/>
      </g>
    </mask>
    <filter id="luminosity-noclip-5" x="401.57" y="232.21" width="350.7" height="276.09" color-interpolation-filters="sRGB" filterUnits="userSpaceOnUse">
      <feFlood flood-color="#fff" result="bg"/>
      <feBlend in="SourceGraphic" in2="bg"/>
    </filter>
    <linearGradient id="linear-gradient-5" x1="-2141.13" y1="716.65" x2="-2064.43" y2="800.2" gradientTransform="translate(2659.3 -410.36)" gradientUnits="userSpaceOnUse">
      <stop offset=".38" stop-color="#fff"/>
      <stop offset=".79" stop-color="#000"/>
    </linearGradient>
    <mask id="mask-4" x="401.57" y="232.21" width="350.7" height="276.09" maskUnits="userSpaceOnUse">
      <g class="cls-20">
        <rect class="cls-5" x="420.73" y="262.72" width="312.37" height="215.09" transform="translate(91 -113.28) rotate(12.17)"/>
      </g>
    </mask>
    <filter id="luminosity-noclip-6" x="252.53" y="298.03" width="350.79" height="343.21" color-interpolation-filters="sRGB" filterUnits="userSpaceOnUse">
      <feFlood flood-color="#fff" result="bg"/>
      <feBlend in="SourceGraphic" in2="bg"/>
    </filter>
    <linearGradient id="linear-gradient-6" x1="-2282.17" y1="854.65" x2="-2169.48" y2="936.49" gradientTransform="translate(2635 -439.53)" xlink:href="#linear-gradient-5"/>
    <mask id="mask-5" x="252.53" y="298.03" width="350.79" height="343.21" maskUnits="userSpaceOnUse">
      <g class="cls-25">
        <rect class="cls-2" x="279.46" y="326.09" width="296.95" height="287.07" transform="translate(108.6 -79.65) rotate(12.17)"/>
      </g>
    </mask>
  </defs>
  <g id="Layer_1-2" data-name="Layer 1">
    <g>
      <path class="cls-8" d="M701.6,208.73l-1.56-10.34c-2.91-19.29,10.79-37.14,30.17-39.33l139.99-15.81c18.4-2.08,35.14,10.77,37.9,29.07h0c2.76,18.3-9.46,35.51-27.65,38.95l-138.43,26.15c-19.17,3.62-37.52-9.4-40.42-28.69Z"/>
      <rect class="cls-8" x="913.35" y="19.27" width="62.64" height="219.64" rx="31.32" ry="31.32" transform="translate(485.54 -706.53) rotate(53.43)"/>
      <g class="cls-29">
        <path class="cls-15" d="M701.6,208.73l-1.56-10.34c-2.91-19.29,10.79-37.14,30.17-39.33l139.99-15.81c18.4-2.08,35.14,10.77,37.9,29.07h0c2.76,18.3-9.46,35.51-27.65,38.95l-138.43,26.15c-19.17,3.62-37.52-9.4-40.42-28.69Z"/>
      </g>
      <g class="cls-28">
        <rect class="cls-15" x="913.35" y="19.27" width="62.64" height="219.64" rx="31.32" ry="31.32" transform="translate(485.54 -706.53) rotate(53.43)"/>
      </g>
      <rect class="cls-17" x="1000.29" y="28.77" width="146.2" height="40.25" rx="20.13" ry="20.13" transform="translate(198.55 -574.97) rotate(32.89)"/>
      <g>
        <path class="cls-16" d="M37.52,360.23l470.79-8.67c13.14,1.85,23.92,11.63,27.39,24.83l219.99,853c5.57,21.17-9.44,42.17-30.7,42.95l-498.91,83.64c-15.96.59-30.04-10.69-33.44-26.79L.78,401.22c-4.88-23.12,14.02-44.2,36.75-40.99Z"/>
        <path class="cls-3" d="M66.39,360.22l470.79-9.88c13.14,1.82,23.92,11.42,27.39,24.38l219.99,837.7c5.57,20.79-9.44,41.41-30.7,42.18l-498.91,83.35c-15.96.58-30.04-10.5-33.44-26.31L29.65,400.48c-4.88-22.7,14.02-43.41,36.75-40.26Z"/>
      </g>
      <path class="cls-6" d="M82.19,427.53l183.21,836.15c.65,2.83,3.2,4.82,6.1,4.76l464.96-82.15c2.52-.05,4.33-2.46,3.67-4.89l-206.33-764c-.41-1.52-1.71-2.65-3.27-2.84l-444.08,8.28c-2.66-.33-4.84,2.08-4.26,4.69Z"/>
      <path class="cls-14" d="M253.71,383.96l113.5-1.52c2.82-.05,5.26,2.13,5.68,5.08l.02.11c.5,3.49-1.99,6.61-5.32,6.67l-113.52,1.41c-2.53.04-4.79-1.72-5.51-4.28h0c-1.04-3.7,1.5-7.39,5.15-7.46Z"/>
      <g>
        <line class="cls-6" x1="179.43" y1="621.59" x2="531.83" y2="586.3"/>
        <path class="cls-17" d="M179.41,639.9c-9.29,0-17.25-7.04-18.19-16.48-1.01-10.06,6.33-19.03,16.39-20.04l352.4-35.29c10.08-1.01,19.03,6.33,20.04,16.39,1.01,10.06-6.33,19.03-16.39,20.04l-352.4,35.29c-.62.06-1.24.09-1.85.09Z"/>
      </g>
      <g>
        <line class="cls-6" x1="194.39" y1="685.49" x2="546.79" y2="650.2"/>
        <path class="cls-19" d="M194.36,703.8c-9.29,0-17.25-7.04-18.19-16.48-1.01-10.06,6.33-19.03,16.39-20.04l352.4-35.29c10.07-1.01,19.03,6.33,20.04,16.39,1.01,10.06-6.33,19.03-16.39,20.04l-352.4,35.29c-.62.06-1.24.09-1.85.09Z"/>
      </g>
      <g>
        <line class="cls-6" x1="209.35" y1="749.39" x2="561.75" y2="714.09"/>
        <path class="cls-17" d="M209.32,767.69c-9.29,0-17.25-7.04-18.19-16.48-1.01-10.06,6.33-19.03,16.39-20.04l352.4-35.29c10.08-1.01,19.03,6.33,20.04,16.39,1.01,10.06-6.33,19.03-16.39,20.04l-352.4,35.29c-.62.06-1.24.09-1.85.09Z"/>
      </g>
      <g>
        <line class="cls-6" x1="240.85" y1="890.7" x2="593.46" y2="846.65"/>
        <path class="cls-19" d="M240.83,909.01c-9.1,0-16.99-6.78-18.14-16.04-1.25-10.03,5.86-19.18,15.89-20.43l352.61-44.05c10.03-1.26,19.18,5.86,20.43,15.89,1.25,10.03-5.86,19.18-15.89,20.43l-352.61,44.05c-.77.1-1.54.14-2.29.14Z"/>
      </g>
      <g>
        <line class="cls-6" x1="255.81" y1="954.6" x2="608.42" y2="910.55"/>
        <path class="cls-19" d="M255.78,972.9c-9.1,0-16.99-6.78-18.14-16.04-1.25-10.03,5.86-19.18,15.89-20.43l352.61-44.05c10.04-1.26,19.18,5.86,20.43,15.89,1.25,10.03-5.86,19.18-15.89,20.43l-352.61,44.05c-.77.1-1.54.14-2.29.14Z"/>
      </g>
      <g>
        <line class="cls-6" x1="291.75" y1="1127.63" x2="645.38" y2="1069.62"/>
        <path class="cls-19" d="M291.73,1145.93c-8.81,0-16.57-6.37-18.04-15.34-1.64-9.98,5.12-19.39,15.1-21.03l353.63-58.01c9.97-1.64,19.39,5.12,21.03,15.1,1.64,9.98-5.12,19.39-15.1,21.03l-353.63,58.01c-1,.16-2,.24-2.99.24Z"/>
      </g>
      <path class="cls-8" d="M713.99,227.33l9.18-5.01c17.13-9.35,38.59-2.61,47.29,14.85l62.86,126.07c8.26,16.57,1.94,36.7-14.31,45.57h0c-16.25,8.87-36.6,3.3-46.07-12.61l-72.04-121.06c-9.98-16.77-4.04-38.46,13.09-47.81Z"/>
      <g class="cls-21">
        <path class="cls-15" d="M713.99,227.33l9.18-5.01c17.13-9.35,38.59-2.61,47.29,14.85l62.86,126.07c8.26,16.57,1.94,36.7-14.31,45.57h0c-16.25,8.87-36.6,3.3-46.07-12.61l-72.04-121.06c-9.98-16.77-4.04-38.46,13.09-47.81Z"/>
      </g>
      <ellipse class="cls-7" cx="701.5" cy="220.59" rx="66.08" ry="66.07"/>
      <rect class="cls-17" x="797.77" y="153.47" width="62.63" height="274.45" rx="31.32" ry="31.32" transform="translate(1261.47 -474.12) rotate(100.16)"/>
      <rect class="cls-8" x="837.05" y="308.04" width="62.63" height="204.59" rx="31.32" ry="31.32" transform="translate(1586.11 -227.84) rotate(113.07)"/>
      <g class="cls-22">
        <rect class="cls-15" x="836.47" y="307.6" width="62.63" height="204.59" rx="31.32" ry="31.32" transform="translate(1584.91 -227.92) rotate(113.07)"/>
      </g>
      <ellipse class="cls-17" cx="662.52" cy="271.5" rx="66.08" ry="66.07"/>
      <ellipse class="cls-13" cx="638.61" cy="337.54" rx="103.03" ry="94.68" transform="translate(77.7 792.65) rotate(-66.91)"/>
      <rect class="cls-17" x="938.14" y="449.3" width="146.19" height="40.25" rx="20.12" ry="20.12" transform="translate(1153.91 -636.29) rotate(72.45)"/>
      <circle class="cls-13" cx="366.02" cy="564.89" r="44.62"/>
      <rect class="cls-17" x="509" y="261.06" width="62.64" height="219.64" rx="31.32" ry="31.32" transform="translate(471.08 -280.81) rotate(49.47)"/>
      <g class="cls-26">
        <rect class="cls-11" x="509" y="261.06" width="62.64" height="219.64" rx="31.32" ry="31.32" transform="translate(471.08 -280.81) rotate(49.47)"/>
      </g>
      <g>
        <path class="cls-13" d="M369.9,595.29l-2.16-1.98c-4.41-4.04-11.79-3.02-16.18,2.24l-19.82,23.78c-4.06,4.87-4.04,11.61.04,15.35h0c4.08,3.74,10.8,3.18,15.3-1.29l21.98-21.8c4.86-4.82,5.24-12.27.83-16.31Z"/>
        <path class="cls-13" d="M357.25,592.15l-2.16-1.98c-4.41-4.04-11.79-3.02-16.18,2.24l-19.82,23.78c-4.06,4.87-4.04,11.61.04,15.35h0c4.08,3.74,10.8,3.18,15.3-1.29l21.98-21.8c4.86-4.82,5.24-12.27.83-16.31Z"/>
        <path class="cls-13" d="M342.74,573.61l-1.56-2.48c-3.17-5.07-10.57-6.04-16.19-2.14l-25.42,17.66c-5.21,3.62-6.98,10.12-4.04,14.81h0c2.94,4.69,9.57,5.93,15.09,2.82l26.98-15.18c5.96-3.36,8.31-10.43,5.13-15.5Z"/>
        <path class="cls-13" d="M343.7,552.14l-1.11-2.71c-2.27-5.53-9.39-7.75-15.59-4.86l-28.06,13.08c-5.75,2.68-8.6,8.79-6.5,13.91h0c2.1,5.12,8.42,7.47,14.39,5.35l29.17-10.37c6.45-2.29,9.96-8.87,7.7-14.4Z"/>
        <path class="cls-13" d="M391.6,566.79l-2.93.04c-5.98.08-10.66,5.89-10.24,12.72l1.87,30.9c.38,6.33,5.02,11.22,10.56,11.15h0c5.54-.07,10.04-5.09,10.26-11.42l6.22-30.41c.23-6.84-9.76-13.05-15.74-12.97Z"/>
      </g>
      <rect class="cls-17" x="402.43" y="378.54" width="62.64" height="199.97" rx="31.32" ry="31.32" transform="translate(399.42 -166.42) rotate(39.14)"/>
      <g class="cls-23">
        <rect class="cls-11" x="402.43" y="378.54" width="62.64" height="199.97" rx="31.32" ry="31.32" transform="translate(399.42 -166.42) rotate(39.14)"/>
      </g>
      <path class="cls-17" d="M964.11,317.15c-4.37,17.83-33.99,53.49-59.99,47.11-26-6.38-35.27-46.47-30.9-64.3,4.37-17.83,33.41-28.91,59.4-22.53,26,6.38,35.85,21.89,31.48,39.72Z"/>
      <ellipse class="cls-13" cx="888.76" cy="330.56" rx="47.56" ry="47.56"/>
      <path class="cls-4" d="M630.94,435.92c-1.18-.26-2.25-.58-3.16-.93-1.13-.44-1.69-1.71-1.26-2.84.44-1.13,1.69-1.68,2.84-1.26.62.24,13.83,5.05,20.28-6.55.59-1.06,1.92-1.44,2.99-.85,1.06.59,1.44,1.93.85,2.99-5.67,10.18-15.92,10.87-22.54,9.44Z"/>
      <path class="cls-4" d="M641.17,417.87c1.16,3.86-.68,6.13-3.54,6.99-2.86.86-5.64,0-6.81-3.87-1.16-3.86-.74-10.83,2.12-11.69,2.86-.86,7.06,4.71,8.22,8.57Z"/>
      <ellipse class="cls-6" cx="656.29" cy="400.95" rx="13.45" ry="12.53" transform="translate(-20.77 36.16) rotate(-3.11)"/>
      <ellipse class="cls-12" cx="656.17" cy="401.5" rx="5.27" ry="4.92" transform="translate(-20.8 36.15) rotate(-3.11)"/>
      <ellipse class="cls-6" cx="608.88" cy="407.34" rx="13.45" ry="12.53" transform="translate(-21.18 33.6) rotate(-3.11)"/>
      <path class="cls-13" d="M672.2,398.05c-11.28-.66-22.32,1.14-33.11,5.61l-2.8-16.52,33.11-5.61,2.8,16.52Z"/>
      <ellipse class="cls-12" cx="608.42" cy="407.86" rx="5.27" ry="4.92" transform="translate(-21.21 33.58) rotate(-3.11)"/>
      <path class="cls-13" d="M622.76,404.71c-11.28-.66-22.32,1.14-33.11,5.61l-2.8-16.52,33.11-5.61,2.8,16.52Z"/>
      <path class="cls-12" d="M731.86,345.65c12.19,77.39-47.09,12.81-102.11,21.47-55.02,8.66-84.96,87.29-97.14,9.9-12.19-77.39,22.54-147.15,77.56-155.82,55.02-8.66,109.51,47.05,121.7,124.44Z"/>
      <circle class="cls-12" cx="726.21" cy="313.74" r="35.72"/>
      <circle class="cls-12" cx="712.99" cy="274" r="35.72"/>
      <circle class="cls-12" cx="692.72" cy="243.64" r="35.72"/>
      <circle class="cls-12" cx="648.76" cy="225.35" r="35.72"/>
      <circle class="cls-12" cx="596.43" cy="235.78" r="35.72"/>
      <circle class="cls-12" cx="560.71" cy="246.13" r="35.72"/>
      <circle class="cls-12" cx="539.79" cy="281.85" r="35.72"/>
      <circle class="cls-12" cx="530.66" cy="301.33" r="35.72"/>
      <circle class="cls-12" cx="533.37" cy="335.02" r="35.72"/>
      <circle class="cls-12" cx="543.34" cy="368.3" r="35.72"/>
      <circle class="cls-12" cx="556.76" cy="377.3" r="35.72"/>
      <circle class="cls-12" cx="581.77" cy="356.03" r="35.72"/>
      <circle class="cls-12" cx="627.66" cy="339.76" r="35.72"/>
      <circle class="cls-12" cx="675.79" cy="344.15" r="35.72"/>
      <circle class="cls-12" cx="718.43" cy="340.62" r="35.72"/>
    </g>
  </g>
</svg>