<?xml version="1.0" encoding="UTF-8"?>
<svg id="Layer_2" data-name="Layer 2" xmlns="http://www.w3.org/2000/svg" xmlns:xlink="http://www.w3.org/1999/xlink" viewBox="0 0 1455 1600">
  <defs>
    <style>
      .cls-1 {
        fill: url(#linear-gradient);
      }

      .cls-1, .cls-2, .cls-3, .cls-4, .cls-5, .cls-6, .cls-7, .cls-8, .cls-9, .cls-10, .cls-11, .cls-12, .cls-13, .cls-14, .cls-15, .cls-16, .cls-17, .cls-18, .cls-19 {
        stroke-width: 0px;
      }

      .cls-2 {
        fill: url(#linear-gradient-6);
      }

      .cls-20 {
        filter: url(#luminosity-noclip-5);
      }

      .cls-21 {
        mask: url(#mask-2);
      }

      .cls-3 {
        fill: #74ceea;
      }

      .cls-4 {
        fill: #5e302c;
      }

      .cls-22 {
        mask: url(#mask-3);
      }

      .cls-5 {
        fill: url(#linear-gradient-5);
      }

      .cls-6 {
        fill: #fefefe;
      }

      .cls-7 {
        fill: #fdd382;
      }

      .cls-23 {
        mask: url(#mask-5);
      }

      .cls-8 {
        fill: #639929;
      }

      .cls-9 {
        fill: url(#linear-gradient-2);
      }

      .cls-24 {
        filter: url(#luminosity-noclip-4);
      }

      .cls-25 {
        filter: url(#luminosity-noclip-6);
      }

      .cls-26 {
        mask: url(#mask-4);
      }

      .cls-10 {
        fill: url(#linear-gradient-3);
      }

      .cls-11 {
        fill: #fdb500;
      }

      .cls-12 {
        fill: #002036;
      }

      .cls-13 {
        fill: #ec6d6f;
      }

      .cls-14 {
        fill: #637593;
      }

      .cls-15 {
        fill: #3a9e45;
      }

      .cls-27 {
        filter: url(#luminosity-noclip);
      }

      .cls-28 {
        mask: url(#mask-1);
      }

      .cls-29 {
        mask: url(#mask);
      }

      .cls-16 {
        fill: #206188;
      }

      .cls-17 {
        fill: #fcba4b;
      }

      .cls-30 {
        filter: url(#luminosity-noclip-2);
      }

      .cls-18 {
        fill: url(#linear-gradient-4);
      }

      .cls-31 {
        filter: url(#luminosity-noclip-3);
      }

      .cls-19 {
        fill: #eef0e0;
      }
    </style>
    <filter id="luminosity-noclip" x="864.61" y="71.22" width="363.39" height="270.79" color-interpolation-filters="sRGB" filterUnits="userSpaceOnUse">
      <feFlood flood-color="#fff" result="bg"/>
      <feBlend in="SourceGraphic" in2="bg"/>
    </filter>
    <linearGradient id="linear-gradient" x1="-1916.03" y1="214" x2="-1784.25" y2="369.38" gradientTransform="translate(2922.07 -54.86)" gradientUnits="userSpaceOnUse">
      <stop offset=".3" stop-color="#000"/>
      <stop offset=".98" stop-color="#fff"/>
    </linearGradient>
    <mask id="mask" x="864.61" y="71.22" width="363.39" height="270.79" maskUnits="userSpaceOnUse">
      <g class="cls-27">
        <rect class="cls-1" x="882.69" y="103.4" width="327.23" height="206.45" transform="translate(67.07 -215.92) rotate(12.17)"/>
      </g>
    </mask>
    <filter id="luminosity-noclip-2" x="1055.37" y="21.4" width="319.69" height="319.71" color-interpolation-filters="sRGB" filterUnits="userSpaceOnUse">
      <feFlood flood-color="#fff" result="bg"/>
      <feBlend in="SourceGraphic" in2="bg"/>
    </filter>
    <linearGradient id="linear-gradient-2" x1="-1793.19" y1="137.05" x2="-1654.82" y2="251.81" gradientTransform="translate(2931.22 -19.83)" xlink:href="#linear-gradient"/>
    <mask id="mask-1" x="1055.37" y="21.4" width="319.69" height="319.71" maskUnits="userSpaceOnUse">
      <g class="cls-30">
        <rect class="cls-9" x="1080.7" y="46.74" width="269.03" height="269.04" transform="translate(65.52 -252.1) rotate(12.17)"/>
      </g>
    </mask>
    <filter id="luminosity-noclip-3" x="842.39" y="248.08" width="302.19" height="313.89" color-interpolation-filters="sRGB" filterUnits="userSpaceOnUse">
      <feFlood flood-color="#fff" result="bg"/>
      <feBlend in="SourceGraphic" in2="bg"/>
    </filter>
    <linearGradient id="linear-gradient-3" x1="-1986.92" y1="540.23" x2="-1796.67" y2="401.87" gradientTransform="translate(2879.06 -61.54)" gradientUnits="userSpaceOnUse">
      <stop offset=".02" stop-color="#fff"/>
      <stop offset=".7" stop-color="#000"/>
    </linearGradient>
    <mask id="mask-2" x="842.39" y="248.08" width="302.19" height="313.89" maskUnits="userSpaceOnUse">
      <g class="cls-31">
        <rect class="cls-10" x="867.68" y="271.6" width="251.6" height="266.85" transform="translate(107.71 -200.33) rotate(12.17)"/>
      </g>
    </mask>
    <filter id="luminosity-noclip-4" x="913.46" y="357.53" width="390.42" height="343.67" color-interpolation-filters="sRGB" filterUnits="userSpaceOnUse">
      <feFlood flood-color="#fff" result="bg"/>
      <feBlend in="SourceGraphic" in2="bg"/>
    </filter>
    <linearGradient id="linear-gradient-4" x1="-1831.75" y1="631.79" x2="-1786.87" y2="468.31" gradientTransform="translate(3031.82 387.64) rotate(12.42) scale(1.02 1) skewX(.5)" xlink:href="#linear-gradient-3"/>
    <mask id="mask-3" x="913.46" y="357.53" width="390.42" height="343.67" maskUnits="userSpaceOnUse">
      <g class="cls-24">
        <polygon class="cls-18" points="1246.9 701.2 913.46 627.74 970.44 357.53 1303.88 430.99 1246.9 701.2"/>
      </g>
    </mask>
    <filter id="luminosity-noclip-5" x="511.4" y="297.58" width="449.35" height="353.81" color-interpolation-filters="sRGB" filterUnits="userSpaceOnUse">
      <feFlood flood-color="#fff" result="bg"/>
      <feBlend in="SourceGraphic" in2="bg"/>
    </filter>
    <linearGradient id="linear-gradient-5" x1="-2197.86" y1="506.67" x2="-2099.58" y2="613.74" gradientTransform="translate(2858.64 -114.24)" gradientUnits="userSpaceOnUse">
      <stop offset=".38" stop-color="#fff"/>
      <stop offset=".79" stop-color="#000"/>
    </linearGradient>
    <mask id="mask-4" x="511.4" y="297.58" width="449.35" height="353.81" maskUnits="userSpaceOnUse">
      <g class="cls-20">
        <rect class="cls-5" x="535.96" y="336.67" width="400.25" height="275.63" transform="translate(116.57 -144.51) rotate(12.17)"/>
      </g>
    </mask>
    <filter id="luminosity-noclip-6" x="320.44" y="381.92" width="449.47" height="439.82" color-interpolation-filters="sRGB" filterUnits="userSpaceOnUse">
      <feFlood flood-color="#fff" result="bg"/>
      <feBlend in="SourceGraphic" in2="bg"/>
    </filter>
    <linearGradient id="linear-gradient-6" x1="-2378.58" y1="683.52" x2="-2234.18" y2="788.39" gradientTransform="translate(2827.5 -151.62)" xlink:href="#linear-gradient-5"/>
    <mask id="mask-5" x="320.44" y="381.92" width="449.47" height="439.82" maskUnits="userSpaceOnUse">
      <g class="cls-25">
        <rect class="cls-2" x="354.94" y="417.89" width="380.48" height="367.88" transform="translate(139.12 -101.4) rotate(12.17)"/>
      </g>
    </mask>
  </defs>
  <g id="Layer_1-2" data-name="Layer 1">
    <g>
      <g>
        <path class="cls-16" d="M48.08,323.92l603.23-11.11c16.83,2.38,30.65,14.91,35.1,31.82l281.88,1093.12c7.13,27.13-12.1,54.04-39.33,55.04l-639.26,107.18c-20.45.75-38.49-13.7-42.85-34.33L.99,376.45c-6.26-29.63,17.96-56.65,47.08-52.53Z"/>
        <path class="cls-3" d="M85.07,323.91l603.23-12.66c16.83,2.33,30.65,14.64,35.1,31.25l281.88,1073.51c7.13,26.64-12.1,53.07-39.33,54.06l-639.26,106.82c-20.45.74-38.49-13.46-42.85-33.71L37.99,375.5c-6.26-29.1,17.96-55.63,47.08-51.59Z"/>
      </g>
      <path class="cls-6" d="M105.31,410.16l234.75,1071.53c.83,3.63,4.1,6.18,7.82,6.1l595.76-105.28c3.23-.07,5.54-3.15,4.7-6.27l-264.37-979.06c-.53-1.95-2.19-3.39-4.19-3.64l-569,10.61c-3.41-.42-6.21,2.66-5.46,6.01Z"/>
      <path class="cls-14" d="M325.08,354.33l145.43-1.94c3.61-.07,6.74,2.73,7.28,6.5l.02.14c.65,4.47-2.54,8.47-6.82,8.54l-145.45,1.81c-3.24.06-6.14-2.2-7.06-5.49h0c-1.33-4.75,1.93-9.47,6.6-9.56Z"/>
      <g>
        <line class="cls-6" x1="229.9" y1="658.86" x2="681.44" y2="613.63"/>
        <path class="cls-17" d="M229.87,682.32c-11.9,0-22.1-9.03-23.31-21.12-1.29-12.89,8.11-24.39,21-25.68l451.53-45.23c12.92-1.29,24.39,8.11,25.68,21,1.29,12.89-8.11,24.39-21,25.68l-451.53,45.23c-.8.08-1.58.12-2.37.12Z"/>
      </g>
      <g>
        <line class="cls-6" x1="249.07" y1="740.74" x2="700.6" y2="695.51"/>
        <path class="cls-19" d="M249.04,764.2c-11.9,0-22.1-9.03-23.31-21.12-1.29-12.89,8.11-24.39,21-25.68l451.53-45.23c12.9-1.29,24.39,8.11,25.68,21,1.29,12.89-8.11,24.39-21,25.68l-451.53,45.23c-.8.08-1.58.12-2.37.12Z"/>
      </g>
      <g>
        <line class="cls-6" x1="268.24" y1="822.62" x2="719.77" y2="777.39"/>
        <path class="cls-17" d="M268.21,846.08c-11.9,0-22.1-9.03-23.31-21.12-1.29-12.89,8.11-24.39,21-25.68l451.53-45.23c12.91-1.29,24.39,8.11,25.68,21,1.29,12.89-8.11,24.39-21,25.68l-451.53,45.23c-.8.08-1.58.12-2.37.12Z"/>
      </g>
      <g>
        <line class="cls-6" x1="308.6" y1="1003.72" x2="760.41" y2="947.27"/>
        <path class="cls-19" d="M308.57,1027.18c-11.66,0-21.76-8.68-23.25-20.55-1.61-12.86,7.51-24.58,20.37-26.18l451.8-56.45c12.86-1.61,24.58,7.51,26.18,20.37,1.61,12.86-7.51,24.58-20.37,26.18l-451.8,56.45c-.99.12-1.97.18-2.94.18Z"/>
      </g>
      <g>
        <line class="cls-6" x1="327.77" y1="1085.6" x2="779.57" y2="1029.15"/>
        <path class="cls-19" d="M327.74,1109.06c-11.66,0-21.76-8.68-23.25-20.55-1.61-12.86,7.51-24.58,20.37-26.18l451.8-56.45c12.86-1.61,24.58,7.51,26.18,20.37,1.61,12.86-7.51,24.58-20.37,26.18l-451.8,56.45c-.99.12-1.97.18-2.94.18Z"/>
      </g>
      <g>
        <line class="cls-6" x1="373.82" y1="1307.34" x2="826.93" y2="1233"/>
        <path class="cls-19" d="M373.79,1330.8c-11.28,0-21.23-8.16-23.12-19.66-2.1-12.78,6.57-24.85,19.35-26.95l453.11-74.34c12.78-2.1,24.85,6.57,26.94,19.35,2.1,12.78-6.57,24.85-19.35,26.95l-453.11,74.34c-1.28.21-2.57.31-3.83.31Z"/>
      </g>
      <g>
        <path class="cls-8" d="M895.83,267.49l-2-13.25c-3.73-24.72,13.82-47.59,38.66-50.4l179.37-20.26c23.57-2.66,45.02,13.8,48.56,37.25h0c3.53,23.46-12.12,45.51-35.42,49.91l-177.37,33.51c-24.56,4.64-48.07-12.04-51.8-36.77Z"/>
        <rect class="cls-8" x="1167.15" y="24.71" width="80.26" height="281.45" rx="40.13" ry="40.13" transform="translate(620.96 -902.8) rotate(53.44)"/>
        <g class="cls-29">
          <path class="cls-15" d="M895.83,267.49l-2-13.25c-3.73-24.72,13.82-47.59,38.66-50.4l179.37-20.26c23.57-2.66,45.02,13.8,48.56,37.25h0c3.53,23.46-12.12,45.51-35.42,49.91l-177.37,33.51c-24.56,4.64-48.07-12.04-51.8-36.77Z"/>
        </g>
        <g class="cls-28">
          <rect class="cls-15" x="1167.15" y="24.71" width="80.26" height="281.45" rx="40.13" ry="40.13" transform="translate(620.96 -902.8) rotate(53.44)"/>
        </g>
        <rect class="cls-17" x="1278.54" y="36.86" width="187.34" height="51.58" rx="25.79" ry="25.79" transform="translate(253.96 -735.09) rotate(32.89)"/>
        <path class="cls-8" d="M911.72,291.32l11.76-6.42c21.94-11.98,49.44-3.34,60.6,19.03l80.54,161.56c10.58,21.23,2.48,47.03-18.34,58.39h0c-20.82,11.36-46.9,4.22-59.03-16.16l-92.3-155.14c-12.78-21.48-5.17-49.29,16.77-61.27Z"/>
        <g class="cls-21">
          <path class="cls-15" d="M911.72,291.32l11.76-6.42c21.94-11.98,49.44-3.34,60.6,19.03l80.54,161.56c10.58,21.23,2.48,47.03-18.34,58.39h0c-20.82,11.36-46.9,4.22-59.03-16.16l-92.3-155.14c-12.78-21.48-5.17-49.29,16.77-61.27Z"/>
        </g>
        <ellipse class="cls-7" cx="895.71" cy="282.68" rx="84.66" ry="84.67"/>
        <rect class="cls-17" x="1019.06" y="196.7" width="80.27" height="351.65" rx="40.13" ry="40.13" transform="translate(1612.68 -604.36) rotate(100.16)"/>
        <rect class="cls-8" x="1069.38" y="394.77" width="80.26" height="262.14" rx="40.13" ry="40.13" transform="translate(2027.97 -288.99) rotate(113.06)"/>
        <g class="cls-22">
          <rect class="cls-15" x="1068.64" y="394.2" width="80.26" height="262.14" rx="40.13" ry="40.13" transform="translate(2026.42 -289.1) rotate(113.06)"/>
        </g>
        <ellipse class="cls-17" cx="845.76" cy="347.93" rx="84.66" ry="84.67"/>
        <ellipse class="cls-13" cx="815.12" cy="432.55" rx="132.03" ry="121.32" transform="translate(97.97 1013.25) rotate(-66.95)"/>
        <rect class="cls-17" x="1198.9" y="575.78" width="187.34" height="51.58" rx="25.79" ry="25.79" transform="translate(1476.48 -812.22) rotate(72.45)"/>
        <circle class="cls-13" cx="465.86" cy="723.91" r="57.17"/>
        <rect class="cls-17" x="649.06" y="334.56" width="80.26" height="281.45" rx="40.13" ry="40.13" transform="translate(602.62 -357.41) rotate(49.47)"/>
        <g class="cls-26">
          <rect class="cls-11" x="649.06" y="334.56" width="80.26" height="281.45" rx="40.13" ry="40.13" transform="translate(602.62 -357.41) rotate(49.47)"/>
        </g>
        <g>
          <path class="cls-13" d="M470.83,762.86l-2.77-2.54c-5.65-5.18-15.11-3.87-20.73,2.87l-25.39,30.47c-5.2,6.24-5.18,14.88.05,19.68h0c5.23,4.8,13.84,4.07,19.61-1.65l28.16-27.94c6.23-6.18,6.71-15.72,1.07-20.9Z"/>
          <path class="cls-13" d="M454.62,758.84l-2.77-2.54c-5.65-5.18-15.11-3.87-20.73,2.87l-25.39,30.47c-5.2,6.24-5.18,14.88.05,19.68h0c5.23,4.8,13.84,4.07,19.61-1.65l28.16-27.94c6.23-6.18,6.71-15.72,1.07-20.9Z"/>
          <path class="cls-13" d="M436.02,735.08l-1.99-3.18c-4.07-6.49-13.54-7.74-20.74-2.74l-32.57,22.63c-6.67,4.63-8.94,12.97-5.18,18.98h0c3.77,6.01,12.26,7.6,19.34,3.62l34.57-19.45c7.64-4.3,10.65-13.37,6.58-19.86Z"/>
          <path class="cls-13" d="M437.26,707.56l-1.42-3.47c-2.9-7.09-12.03-9.93-19.97-6.23l-35.95,16.76c-7.36,3.43-11.02,11.26-8.33,17.83h0c2.69,6.57,10.79,9.58,18.44,6.86l37.37-13.28c8.26-2.94,12.77-11.36,9.86-18.45Z"/>
          <path class="cls-13" d="M498.63,726.34l-3.75.05c-7.66.1-13.65,7.54-13.12,16.3l2.39,39.59c.49,8.11,6.43,14.38,13.52,14.29h0c7.09-.09,12.87-6.52,13.15-14.64l7.97-38.97c.3-8.76-12.5-16.72-20.16-16.62Z"/>
        </g>
        <rect class="cls-17" x="512.51" y="485.1" width="80.26" height="256.24" rx="40.13" ry="40.13" transform="translate(511.2 -211.24) rotate(39.15)"/>
        <g class="cls-23">
          <rect class="cls-11" x="512.51" y="485.1" width="80.26" height="256.24" rx="40.13" ry="40.13" transform="translate(511.2 -211.24) rotate(39.15)"/>
        </g>
        <path class="cls-17" d="M1232.19,406.43c-5.6,22.84-43.56,68.55-76.86,60.38-33.31-8.17-45.19-59.55-39.59-82.4,5.6-22.84,42.81-37.05,76.12-28.88,33.31,8.17,45.94,28.06,40.34,50.9Z"/>
        <ellipse class="cls-13" cx="1135.65" cy="423.61" rx="60.94" ry="60.95"/>
        <path class="cls-4" d="M805.3,558.63c-1.52-.33-2.89-.74-4.05-1.19-1.45-.56-2.17-2.19-1.61-3.64.56-1.44,2.17-2.15,3.64-1.61.8.31,17.72,6.47,25.99-8.39.76-1.36,2.46-1.84,3.83-1.09,1.36.76,1.85,2.47,1.09,3.83-7.26,13.04-20.4,13.93-28.89,12.1Z"/>
        <path class="cls-4" d="M818.41,535.51c1.49,4.95-.87,7.85-4.53,8.95-3.66,1.1-7.23,0-8.72-4.96-1.49-4.95-.94-13.88,2.72-14.98,3.66-1.1,9.05,6.04,10.54,10.99Z"/>
        <ellipse class="cls-6" cx="837.78" cy="513.82" rx="17.23" ry="16.06" transform="translate(-26.67 46.26) rotate(-3.11)"/>
        <ellipse class="cls-12" cx="837.63" cy="514.52" rx="6.76" ry="6.3" transform="translate(-26.71 46.26) rotate(-3.11)"/>
        <ellipse class="cls-6" cx="777.03" cy="522.01" rx="17.23" ry="16.06" transform="translate(-27.21 42.98) rotate(-3.11)"/>
        <path class="cls-13" d="M858.16,510.09c-14.45-.85-28.6,1.46-42.43,7.19l-3.59-21.17,42.43-7.19,3.59,21.17Z"/>
        <ellipse class="cls-12" cx="776.44" cy="522.67" rx="6.76" ry="6.3" transform="translate(-27.24 42.94) rotate(-3.11)"/>
        <path class="cls-13" d="M794.82,518.64c-14.45-.85-28.6,1.46-42.43,7.19l-3.59-21.17,42.43-7.19,3.59,21.17Z"/>
        <path class="cls-12" d="M934.61,442.95c15.62,99.18-60.34,16.41-130.84,27.52-70.5,11.1-108.85,111.87-124.47,12.69-15.62-99.18,28.88-188.58,99.38-199.68,70.5-11.1,140.31,60.3,155.93,159.47Z"/>
        <circle class="cls-12" cx="927.36" cy="402.06" r="45.77"/>
        <circle class="cls-12" cx="910.43" cy="351.13" r="45.77"/>
        <circle class="cls-12" cx="884.46" cy="312.22" r="45.77"/>
        <circle class="cls-12" cx="828.13" cy="288.79" r="45.77"/>
        <circle class="cls-12" cx="761.08" cy="302.16" r="45.77"/>
        <circle class="cls-12" cx="715.31" cy="315.42" r="45.77"/>
        <circle class="cls-12" cx="688.51" cy="361.19" r="45.77"/>
        <circle class="cls-12" cx="676.81" cy="386.15" r="45.77"/>
        <circle class="cls-12" cx="680.28" cy="429.32" r="45.77"/>
        <circle class="cls-12" cx="693.06" cy="471.98" r="45.77"/>
        <circle class="cls-12" cx="710.26" cy="483.51" r="45.77"/>
        <circle class="cls-12" cx="742.29" cy="456.25" r="45.77"/>
        <circle class="cls-12" cx="801.1" cy="435.4" r="45.77"/>
        <circle class="cls-12" cx="862.76" cy="441.03" r="45.77"/>
        <circle class="cls-12" cx="917.41" cy="436.5" r="45.77"/>
      </g>
    </g>
  </g>
</svg>