<?xml version="1.0" encoding="UTF-8"?>
<svg id="Layer_2" data-name="Layer 2" xmlns="http://www.w3.org/2000/svg" xmlns:xlink="http://www.w3.org/1999/xlink" viewBox="0 0 1445 1600">
  <defs>
    <style>
      .cls-1 {
        fill: #c17754;
      }

      .cls-1, .cls-2, .cls-3, .cls-4, .cls-5, .cls-6, .cls-7, .cls-8, .cls-9, .cls-10, .cls-11, .cls-12, .cls-13, .cls-14, .cls-15, .cls-16, .cls-17, .cls-18, .cls-19, .cls-20, .cls-21, .cls-22, .cls-23, .cls-24, .cls-25 {
        stroke-width: 0px;
      }

      .cls-2 {
        fill: #002f49;
      }

      .cls-3 {
        fill: url(#linear-gradient);
      }

      .cls-4 {
        fill: #0c2535;
      }

      .cls-5 {
        fill: #f2f2f2;
      }

      .cls-26 {
        filter: url(#luminosity-noclip-5);
      }

      .cls-6 {
        fill: #3cb9c6;
      }

      .cls-27 {
        mask: url(#mask-2);
      }

      .cls-7 {
        fill: #74ceea;
      }

      .cls-28 {
        mask: url(#mask-3);
      }

      .cls-8 {
        fill: url(#linear-gradient-5);
      }

      .cls-9 {
        fill: #fefefe;
      }

      .cls-10 {
        fill: #fb836a;
      }

      .cls-11 {
        fill: #ad623e;
      }

      .cls-12 {
        fill: #53c3c9;
      }

      .cls-13 {
        fill: #354c5a;
      }

      .cls-14 {
        fill: url(#linear-gradient-2);
      }

      .cls-29 {
        filter: url(#luminosity-noclip-4);
      }

      .cls-30 {
        mask: url(#mask-4);
      }

      .cls-15 {
        fill: url(#linear-gradient-3);
      }

      .cls-16 {
        fill: #fdb500;
      }

      .cls-17 {
        fill: #f94e6b;
      }

      .cls-18 {
        fill: #f83;
      }

      .cls-19 {
        fill: #002036;
      }

      .cls-20 {
        fill: #ec6d6f;
      }

      .cls-21 {
        fill: #ffb049;
      }

      .cls-22 {
        fill: #de2a55;
      }

      .cls-31 {
        filter: url(#luminosity-noclip);
      }

      .cls-32 {
        mask: url(#mask-1);
      }

      .cls-33 {
        mask: url(#mask);
      }

      .cls-23 {
        fill: #fcba4b;
      }

      .cls-34 {
        filter: url(#luminosity-noclip-2);
      }

      .cls-24 {
        fill: url(#linear-gradient-4);
      }

      .cls-25 {
        fill: #e8262e;
      }

      .cls-35 {
        filter: url(#luminosity-noclip-3);
      }
    </style>
    <filter id="luminosity-noclip" x="134.78" y="814.52" width="348.81" height="347.62" color-interpolation-filters="sRGB" filterUnits="userSpaceOnUse">
      <feFlood flood-color="#fff" result="bg"/>
      <feBlend in="SourceGraphic" in2="bg"/>
    </filter>
    <linearGradient id="linear-gradient" x1="-3.48" y1="1045.91" x2="359.45" y2="982.5" gradientUnits="userSpaceOnUse">
      <stop offset="0" stop-color="#fff"/>
      <stop offset=".44" stop-color="#858383"/>
      <stop offset=".81" stop-color="#231f20"/>
    </linearGradient>
    <mask id="mask" x="134.78" y="814.52" width="348.81" height="347.62" maskUnits="userSpaceOnUse">
      <g class="cls-31">
        <rect class="cls-3" x="134.78" y="820.42" width="348.81" height="341.73"/>
      </g>
    </mask>
    <filter id="luminosity-noclip-2" x="524.75" y="548.11" width="183.52" height="216.36" color-interpolation-filters="sRGB" filterUnits="userSpaceOnUse">
      <feFlood flood-color="#fff" result="bg"/>
      <feBlend in="SourceGraphic" in2="bg"/>
    </filter>
    <linearGradient id="linear-gradient-2" x1="673.29" y1="600.48" x2="593.72" y2="678.7" xlink:href="#linear-gradient"/>
    <mask id="mask-1" x="524.75" y="548.11" width="183.52" height="216.36" maskUnits="userSpaceOnUse">
      <g class="cls-34">
        <rect class="cls-14" x="524.75" y="548.11" width="183.52" height="216.36"/>
      </g>
    </mask>
    <filter id="luminosity-noclip-3" x="-76.4" y="918.15" width="251.66" height="233.89" color-interpolation-filters="sRGB" filterUnits="userSpaceOnUse">
      <feFlood flood-color="#fff" result="bg"/>
      <feBlend in="SourceGraphic" in2="bg"/>
    </filter>
    <linearGradient id="linear-gradient-3" x1="-33.97" y1="1155.52" x2="86.05" y2="982.22" gradientUnits="userSpaceOnUse">
      <stop offset=".3" stop-color="#fff"/>
      <stop offset=".51" stop-color="#858383"/>
      <stop offset=".68" stop-color="#231f20"/>
    </linearGradient>
    <mask id="mask-2" x="-76.4" y="918.15" width="251.66" height="233.89" maskUnits="userSpaceOnUse">
      <g class="cls-35">
        <rect class="cls-15" x="-76.4" y="918.15" width="251.66" height="233.89"/>
      </g>
    </mask>
    <filter id="luminosity-noclip-4" x="6.59" y="939.72" width="338.69" height="423.96" color-interpolation-filters="sRGB" filterUnits="userSpaceOnUse">
      <feFlood flood-color="#fff" result="bg"/>
      <feBlend in="SourceGraphic" in2="bg"/>
    </filter>
    <linearGradient id="linear-gradient-4" x1="86.21" y1="1127.05" x2="235.95" y2="1168.19" gradientUnits="userSpaceOnUse">
      <stop offset="0" stop-color="#fff"/>
      <stop offset=".09" stop-color="#e3e2e3"/>
      <stop offset=".34" stop-color="#9f9e9e"/>
      <stop offset=".56" stop-color="#6a6768"/>
      <stop offset=".75" stop-color="#434040"/>
      <stop offset=".91" stop-color="#2b2728"/>
      <stop offset="1" stop-color="#231f20"/>
    </linearGradient>
    <mask id="mask-3" x="6.59" y="939.72" width="338.69" height="423.96" maskUnits="userSpaceOnUse">
      <g class="cls-29">
        <rect class="cls-24" x="6.59" y="939.72" width="338.69" height="423.96"/>
      </g>
    </mask>
    <filter id="luminosity-noclip-5" x="-62.23" y="1125.08" width="329.25" height="401.04" color-interpolation-filters="sRGB" filterUnits="userSpaceOnUse">
      <feFlood flood-color="#fff" result="bg"/>
      <feBlend in="SourceGraphic" in2="bg"/>
    </filter>
    <linearGradient id="linear-gradient-5" x1="-1.15" y1="1291.65" x2="204.57" y2="1359.1" gradientUnits="userSpaceOnUse">
      <stop offset="0" stop-color="#fff"/>
      <stop offset=".54" stop-color="#858383"/>
      <stop offset="1" stop-color="#231f20"/>
    </linearGradient>
    <mask id="mask-4" x="-62.23" y="1125.08" width="329.25" height="401.04" maskUnits="userSpaceOnUse">
      <g class="cls-26">
        <rect class="cls-8" x="-62.23" y="1125.08" width="329.25" height="401.04"/>
      </g>
    </mask>
  </defs>
  <g id="Layer_1-2" data-name="Layer 1">
    <g>
      <g>
        <polygon class="cls-7" points="1375.19 997.65 1404.42 973.76 972.44 973.76 773.19 994.33 1375.19 997.65"/>
        <path class="cls-7" d="M618.57,1216.34c-1.59-.53-43.57-65.29-43.57-65.29l200.31-22.29,426.93,1.06-180.92,35.03"/>
        <polyline class="cls-12" points="1215.93 1131.68 1202.24 1129.82 773.19 1129.82 773.19 994.33 1203.57 992.87 1203.57 1110.58"/>
        <polygon class="cls-12" points="1033.01 1207.32 1006.98 1151.05 575 1151.05 575 1288.59 1013.89 1298.62 1033.01 1207.32"/>
        <polygon class="cls-12" points="624.42 1577.82 609.54 1594.81 157.91 1594.81 157.91 1438.75 609.54 1438.75 624.42 1577.82"/>
        <polyline class="cls-7" points="377.08 1307.11 569.96 1288.53 1006.98 1293.51 864.85 1322.77"/>
        <polygon class="cls-7" points="853.95 1454.67 815.7 1425.15 371.5 1425.15 157.91 1438.75 609.54 1438.75 853.95 1454.67"/>
        <polyline class="cls-12" points="893.54 1438.75 815.7 1307.11 377.08 1307.11 377.08 1425.15 891.15 1434.71"/>
        <polygon class="cls-6" points="1404.42 973.76 1404.42 1594.81 609.54 1594.81 609.54 1438.75 815.7 1425.15 815.7 1307.11 1006.98 1293.51 1006.98 1151.05 1202.24 1129.82 1203.57 992.87 1404.42 973.76"/>
      </g>
      <rect class="cls-13" x="491.62" y="1398.02" width="162.56" height="47.06" rx="23.53" ry="23.53" transform="translate(-450.89 280.99) rotate(-19.96)"/>
      <rect class="cls-13" x="19.78" y="1543.93" width="185.28" height="51.44" rx="25.71" ry="25.71" transform="translate(108.72 -4.02) rotate(3.96)"/>
      <path class="cls-23" d="M497.07,1182.76h0c-22.15,20.45-56.68,19.09-77.13-3.02l-172.76-140.01c-20.45-22.12,14.48-67.2,36.63-87.65h0c22.15-20.45,68.88-22.94,89.33-.82l127.01,154.43c20.45,22.12,19.07,56.63-3.08,77.07Z"/>
      <path class="cls-23" d="M523.81,1405.91h0c-29.56,5.93-55.15-12.94-61.09-42.47l-53.22-202.12c-5.94-29.53,13.2-58.28,42.75-64.2h0c29.56-5.93,58.34,13.21,64.28,42.74l34.37,197.33c5.94,29.53,2.47,62.8-27.09,68.73Z"/>
      <path class="cls-25" d="M406.93,824.82l-132.86-196.94c-14.76-21.88-8.97-51.57,12.92-66.31h.01c21.87-14.73,51.54-8.96,66.28,12.9l132.86,196.94c14.76,21.88,8.97,51.57-12.92,66.31h-.01c-21.87,14.73-51.54,8.96-66.28-12.9Z"/>
      <path class="cls-25" d="M432.75,761.03l120.02-80.81c21.87-14.72,51.53-8.95,66.28,12.9h0c14.76,21.87,8.97,51.56-12.92,66.3l-120.02,80.81c-21.87,14.72-51.53,8.95-66.28-12.9h0c-14.76-21.87-8.97-51.56,12.92-66.3Z"/>
      <path class="cls-25" d="M46.7,794.43l121.62-216.56c13.5-24.04,43.93-32.59,67.98-19.11h.02c24.07,13.5,32.64,43.95,19.13,68.01l-121.62,216.56c-13.5,24.04-43.93,32.59-67.98,19.11h-.02c-24.07-13.5-32.64-43.95-19.13-68.01Z"/>
      <rect class="cls-25" x="-47.47" y="851.83" width="250.99" height="99.92" rx="49.94" ry="49.94" transform="translate(-825.82 853.09) rotate(-81.97)"/>
      <path class="cls-23" d="M419.53,967.14c13.9,94.5-42.26,128.55-116.12,139.39-73.86,10.85-137.46-5.61-151.36-100.12-13.9-94.5,34.7-179.91,108.56-190.75,73.86-10.85,145.01,56.97,158.92,151.48Z"/>
      <g class="cls-33">
        <path class="cls-16" d="M419.53,967.14c13.9,94.5-42.26,128.55-116.12,139.39-73.86,10.85-137.46-5.61-151.36-100.12-13.9-94.5,34.7-179.91,108.56-190.75,73.86-10.85,145.01,56.97,158.92,151.48Z"/>
      </g>
      <path class="cls-1" d="M303.19,536.81c0,23.74-22.64,42.99-50.59,42.99-23.88,0-46.46-11.84-51.76-30.74,5.04-2.94,12.79-7.75,18.09-9.96v-49.1h65.66v40.85c6.31.99,12.5,2.46,18.55,4.41.04.51.05,1.05.05,1.56Z"/>
      <path class="cls-25" d="M415.62,722.69c0,107.26-67.05,194.22-149.72,194.22s-149.74-86.96-149.74-194.22c0-78.26,35.67-145.69,87.08-176.45.71-.43,1.62-.06,1.88.73,5.81,17.64,24.88,30.59,47.5,30.59,27.25,0,49.33-18.77,49.33-41.92,0-.5-.02-1.02-.05-1.52,65.3,20.9,113.73,97.4,113.73,188.57Z"/>
      <ellipse class="cls-1" cx="635.07" cy="675.25" rx="55.69" ry="55.63"/>
      <g class="cls-32">
        <ellipse class="cls-11" cx="635.07" cy="675.25" rx="55.69" ry="55.63"/>
      </g>
      <ellipse class="cls-1" cx="55.56" cy="1061.1" rx="55.55" ry="55.5"/>
      <g class="cls-27">
        <ellipse class="cls-11" cx="55.56" cy="1061.1" rx="55.55" ry="55.5"/>
      </g>
      <polyline class="cls-19" points="971.87 973.76 971.87 62.63 1388.65 37.15 1373.93 976.42"/>
      <polygon class="cls-22" points="1298.03 997.65 1310.3 1012.2 1327.04 1004.92 1329.1 88.85 994.85 74.27 1235.96 323.74 1298.03 997.65"/>
      <polygon class="cls-17" points="1404.42 973.76 1373.93 976.42 1364.83 66.27 1001.77 78.01 1001.77 973.76 971.31 973.76 971.31 62.63 971.31 47.24 985.64 46.33 1388.29 20.85 1404.42 19.83 1404.42 37.15 1404.42 973.76"/>
      <polygon class="cls-17" points="988.78 78.01 1310.3 104.51 1310.3 1012.2 988.78 973.76 988.78 78.01"/>
      <ellipse class="cls-19" cx="1263.41" cy="603.94" rx="20.32" ry="17.04"/>
      <g>
        <path class="cls-18" d="M1427.52,11.58l-1.68,18.16,16.76,7.2c3.53,1.52,3.05,6.66-.69,7.5l-17.79,4.02-1.68,18.16c-.35,3.82-5.39,4.96-7.35,1.66l-9.33-15.68-17.8,4.02c-3.74.85-6.38-3.6-3.85-6.48l12.03-13.7-9.32-15.67c-1.96-3.3,1.44-7.18,4.97-5.67l16.77,7.2,12.04-13.71c2.53-2.88,7.27-.84,6.92,2.98Z"/>
        <path class="cls-21" d="M1423.38,9.1l-1.68,18.16,16.76,7.2c3.53,1.52,3.05,6.66-.69,7.5l-17.79,4.02-1.68,18.16c-.35,3.82-5.39,4.96-7.35,1.66l-9.33-15.68-17.8,4.02c-3.74.85-6.38-3.6-3.85-6.48l12.03-13.7-9.32-15.67c-1.96-3.3,1.44-7.18,4.97-5.67l16.77,7.2,12.04-13.71c2.53-2.88,7.27-.84,6.92,2.98Z"/>
      </g>
      <g>
        <path class="cls-18" d="M1355.67,960.32l-1.68,18.16,16.76,7.2c3.53,1.52,3.05,6.66-.69,7.5l-17.79,4.02-1.68,18.16c-.35,3.82-5.39,4.96-7.35,1.66l-9.33-15.68-17.8,4.02c-3.74.85-6.38-3.6-3.85-6.48l12.03-13.7-9.32-15.67c-1.96-3.3,1.44-7.18,4.97-5.67l16.77,7.2,12.04-13.71c2.53-2.88,7.27-.84,6.92,2.98Z"/>
        <path class="cls-21" d="M1351.53,957.85l-1.68,18.16,16.76,7.2c3.53,1.52,3.05,6.66-.69,7.5l-17.79,4.02-1.68,18.16c-.35,3.82-5.39,4.96-7.35,1.66l-9.33-15.68-17.8,4.02c-3.74.85-6.38-3.6-3.85-6.48l12.03-13.7-9.32-15.67c-1.96-3.3,1.44-7.18,4.97-5.67l16.77,7.2,12.04-13.71c2.53-2.88,7.27-.84,6.92,2.98Z"/>
      </g>
      <g>
        <path class="cls-18" d="M1406.09,1035.27l-1.05,11.42,10.54,4.53c2.22.95,1.92,4.19-.43,4.72l-11.19,2.53-1.05,11.42c-.22,2.4-3.39,3.12-4.62,1.05l-5.87-9.86-11.2,2.53c-2.35.53-4.01-2.26-2.42-4.08l7.57-8.62-5.86-9.85c-1.23-2.07.91-4.52,3.12-3.56l10.55,4.53,7.57-8.62c1.59-1.81,4.58-.53,4.35,1.87Z"/>
        <path class="cls-21" d="M1403.48,1033.71l-1.05,11.42,10.54,4.53c2.22.95,1.92,4.19-.43,4.72l-11.19,2.53-1.05,11.42c-.22,2.4-3.39,3.12-4.62,1.05l-5.87-9.86-11.2,2.53c-2.35.53-4.01-2.26-2.42-4.08l7.57-8.62-5.86-9.85c-1.23-2.07.91-4.52,3.12-3.56l10.55,4.53,7.57-8.62c1.59-1.81,4.58-.53,4.35,1.87Z"/>
      </g>
      <g>
        <path class="cls-18" d="M1430.57,922.59l-.95,10.34,9.54,4.1c2.01.86,1.74,3.79-.39,4.27l-10.13,2.29-.95,10.34c-.2,2.18-3.07,2.82-4.19.95l-5.31-8.93-10.14,2.29c-2.13.48-3.64-2.05-2.19-3.69l6.85-7.8-5.31-8.92c-1.12-1.88.82-4.09,2.83-3.23l9.55,4.1,6.86-7.81c1.44-1.64,4.14-.48,3.94,1.7Z"/>
        <path class="cls-21" d="M1428.21,921.18l-.95,10.34,9.54,4.1c2.01.86,1.74,3.79-.39,4.27l-10.13,2.29-.95,10.34c-.2,2.18-3.07,2.82-4.19.95l-5.31-8.93-10.14,2.29c-2.13.48-3.64-2.05-2.19-3.69l6.85-7.8-5.31-8.92c-1.12-1.88.82-4.09,2.83-3.23l9.55,4.1,6.86-7.81c1.44-1.64,4.14-.48,3.94,1.7Z"/>
      </g>
      <g>
        <path class="cls-18" d="M902.32,2.64l10.95,20.34,22.74-4.11c4.78-.87,7.88,4.9,4.52,8.41l-15.97,16.68,10.94,20.33c2.3,4.28-2.22,9.01-6.6,6.9l-20.82-10.03-15.98,16.69c-3.36,3.51-9.25.67-8.6-4.15l3.11-22.88-20.81-10.02c-4.38-2.11-3.5-8.59,1.28-9.46l22.73-4.11,3.11-22.89c.65-4.81,7.09-5.98,9.39-1.7Z"/>
        <path class="cls-21" d="M896.22,2.92l10.95,20.34,22.74-4.11c4.78-.87,7.88,4.9,4.52,8.41l-15.97,16.68,10.94,20.33c2.3,4.28-2.22,9.01-6.6,6.9l-20.82-10.03-15.98,16.69c-3.36,3.51-9.25.67-8.6-4.15l3.11-22.88-20.81-10.02c-4.38-2.11-3.5-8.59,1.28-9.46l22.73-4.11,3.11-22.89c.65-4.81,7.09-5.98,9.39-1.7Z"/>
      </g>
      <g>
        <path class="cls-18" d="M980.43,38.4l5.19,9.65,10.78-1.95c2.27-.41,3.74,2.32,2.14,3.99l-7.57,7.91,5.19,9.64c1.09,2.03-1.05,4.27-3.13,3.27l-9.87-4.75-7.58,7.91c-1.59,1.66-4.39.32-4.08-1.97l1.47-10.85-9.87-4.75c-2.08-1-1.66-4.07.61-4.48l10.78-1.95,1.48-10.85c.31-2.28,3.36-2.84,4.45-.81Z"/>
        <path class="cls-21" d="M977.54,38.53l5.19,9.65,10.78-1.95c2.27-.41,3.74,2.32,2.14,3.99l-7.57,7.91,5.19,9.64c1.09,2.03-1.05,4.27-3.13,3.27l-9.87-4.75-7.58,7.91c-1.59,1.66-4.39.32-4.08-1.97l1.47-10.85-9.87-4.75c-2.08-1-1.66-4.07.61-4.48l10.78-1.95,1.48-10.85c.31-2.28,3.36-2.84,4.45-.81Z"/>
      </g>
      <path class="cls-23" d="M143.82,1310.15h0c-30.09-10.06-46.33-42.59-36.26-72.65l45.4-249.99c10.07-30.06,65.8-.97,95.89,9.09h0c30.09,10.06,56.05,51.89,45.98,81.95l-78.29,195.39c-10.07,30.06-42.63,46.28-72.73,36.22Z"/>
      <g class="cls-28">
        <path class="cls-16" d="M143.82,1310.15h0c-30.09-10.06-46.33-42.59-36.26-72.65l45.4-249.99c10.07-30.06,65.8-.97,95.89,9.09h0c30.09,10.06,56.05,51.89,45.98,81.95l-78.29,195.39c-10.07,30.06-42.63,46.28-72.73,36.22Z"/>
      </g>
      <path class="cls-23" d="M90.04,1522.13h0c-30.34-9.31-44.55-39.59-35.23-69.89l52.2-213.69c9.32-30.31,41.47-47.32,71.8-38.01h0c30.34,9.31,47.37,41.43,38.05,71.73l-67.25,199.82c-9.32,30.31-29.24,59.35-59.58,50.04Z"/>
      <g class="cls-30">
        <path class="cls-16" d="M90.04,1522.13h0c-30.34-9.31-44.55-39.59-35.23-69.89l52.2-213.69c9.32-30.31,41.47-47.32,71.8-38.01h0c30.34,9.31,47.37,41.43,38.05,71.73l-67.25,199.82c-9.32,30.31-29.24,59.35-59.58,50.04Z"/>
      </g>
      <path class="cls-19" d="M311.03,310.21h46.09c16.41,0,29.73,13.32,29.73,29.73v111.11c0,16.41-13.32,29.73-29.73,29.73h-46.09c-16.41,0-29.73-13.32-29.73-29.73v-111.11c0-16.41,13.32-29.73,29.73-29.73Z" transform="translate(621.48 826.11) rotate(-173.53)"/>
      <path class="cls-19" d="M150.06,479.31l-54.42-31.39c-19.4-11.19-26.05-36-14.85-55.39l75.85-131.24c11.2-19.38,35.98-26.01,55.37-14.83l54.42,31.39c19.4,11.19,26.05,36,14.85,55.39l-75.85,131.24c-11.2,19.38-35.98,26.01-55.37,14.83Z"/>
      <ellipse class="cls-1" cx="243.43" cy="408.46" rx="112.5" ry="112.39"/>
      <path class="cls-19" d="M408.51,288.18l-21.33-46.67c-7.61-16.65-27.27-23.98-43.92-16.38l-48.72,22.22-133.93-53.96c-20.76-8.37-44.38,1.67-52.76,22.43l-23.49,58.18c-8.38,20.77,1.67,44.4,22.44,52.77l.25.1-9.66,84.99c-1.76,15.52,9.39,29.54,24.9,31.3l38.68,4.39c15.51,1.76,29.51-9.39,31.27-24.91l6.67-58.75,48.59,19.58c4.71,1.9,9.56,2.84,14.35,2.93,5.74.63,11.72-.22,17.36-2.79l61.69-28.14,1.22,46.53c.2,7.55,6.48,13.51,14.02,13.31l10.63-.28c7.55-.2,13.5-6.48,13.3-14.03l-1.65-62.64,13.65-6.23c16.67-7.6,24.01-27.28,16.4-43.93Z"/>
      <g>
        <ellipse class="cls-5" cx="234.19" cy="403.79" rx="19.63" ry="19.61"/>
        <ellipse class="cls-4" cx="236.18" cy="404.54" rx="8.98" ry="8.97"/>
        <path class="cls-19" d="M208.61,388.19c0,5.8,11.09,10.47,24.81,10.47,13.72,0,24.81-4.67,24.81-10.47,0-1.07-.37-2.08-1.07-3.05-3.09-4.27-12.53-7.39-23.74-7.39-11.85,0-21.75,3.48-24.2,8.15-.4.73-.61,1.5-.61,2.29Z"/>
        <ellipse class="cls-5" cx="311.39" cy="401.56" rx="19.63" ry="19.61"/>
        <ellipse class="cls-4" cx="313.25" cy="403.78" rx="8.98" ry="8.97"/>
        <path class="cls-19" d="M283.15,386.42c0,5.77,12.13,10.47,27.1,10.47,14.97,0,27.1-4.7,27.1-10.47,0-1.07-.4-2.08-1.16-3.02-3.33-4.3-13.69-7.42-25.94-7.42-12.89,0-23.71,3.48-26.43,8.12-.43.73-.67,1.53-.67,2.32Z"/>
        <path class="cls-2" d="M209.22,385.9c3.09,4.27,12.53,7.39,23.71,7.39,11.85,0,21.75-3.48,24.23-8.15-3.09-4.27-12.53-7.39-23.74-7.39-11.85,0-21.75,3.48-24.2,8.15Z"/>
        <path class="cls-2" d="M283.82,384.1c3.36,4.3,13.69,7.42,25.94,7.42,12.89,0,23.68-3.48,26.43-8.12-3.33-4.3-13.69-7.42-25.94-7.42-12.89,0-23.71,3.48-26.43,8.12Z"/>
        <path class="cls-11" d="M291.7,427.66c2.3,3.73,5.6,9.03,8.61,13.86,4.01,6.42.27,14.78-7.17,16.21-6.66,1.27-15.24,2.18-25,1.51-8.14-.56-12.65-9.73-8.2-16.56,3.55-5.46,7-11.1,9.39-15.07,2.01-3.34,5.68-5.32,9.58-5.18l4.01.14c3.59.13,6.88,2.04,8.77,5.1Z"/>
        <path class="cls-4" d="M250.98,485.49c1.41,3.02,3.36,5.77,5.74,8.09,5.25,5.19,12.53,8.39,20.59,8.39,3.85,0,7.58-.73,10.94-2.08,6.78-2.72,12.31-7.87,15.43-14.4h-52.7Z"/>
        <path class="cls-10" d="M256.73,493.57c5.26,5.2,12.52,8.4,20.57,8.4,3.87,0,7.57-.73,10.94-2.09-.29-8.73-7.58-15.72-16.54-15.72-6.62,0-12.35,3.86-14.98,9.41Z"/>
        <path class="cls-20" d="M256.73,493.57c5.26,5.2,12.52,8.4,20.57,8.4,3.87,0,7.57-.73,10.94-2.09-.29-8.73-7.58-15.72-16.54-15.72-6.62,0-12.35,3.86-14.98,9.41Z"/>
        <path class="cls-9" d="M248.53,477.74c.43,2.72,1.25,5.34,2.44,7.75h52.7c1.16-2.41,1.99-5.04,2.41-7.75h-57.56Z"/>
      </g>
    </g>
  </g>
</svg>