<?xml version="1.0" encoding="UTF-8"?>
<svg id="Layer_2" data-name="Layer 2" xmlns="http://www.w3.org/2000/svg" xmlns:xlink="http://www.w3.org/1999/xlink" viewBox="0 0 1196 1236">
  <defs>
    <style>
      .cls-1 {
        fill: #c17754;
      }

      .cls-1, .cls-2, .cls-3, .cls-4, .cls-5, .cls-6, .cls-7, .cls-8, .cls-9, .cls-10, .cls-11, .cls-12, .cls-13, .cls-14, .cls-15, .cls-16, .cls-17, .cls-18, .cls-19, .cls-20, .cls-21, .cls-22, .cls-23, .cls-24, .cls-25, .cls-26 {
        stroke-width: 0px;
      }

      .cls-2 {
        fill: #002f49;
      }

      .cls-3 {
        fill: url(#linear-gradient);
      }

      .cls-4 {
        fill: #0c2535;
      }

      .cls-5 {
        fill: #f2f2f2;
      }

      .cls-6 {
        fill: url(#linear-gradient-6);
      }

      .cls-27 {
        filter: url(#luminosity-noclip-5);
      }

      .cls-7 {
        fill: #3cb9c6;
      }

      .cls-28 {
        mask: url(#mask-2);
      }

      .cls-8 {
        fill: #74ceea;
      }

      .cls-29 {
        mask: url(#mask-3);
      }

      .cls-9 {
        fill: url(#linear-gradient-5);
      }

      .cls-10 {
        fill: #fefefe;
      }

      .cls-11 {
        fill: #fb836a;
      }

      .cls-12 {
        fill: #ad623e;
      }

      .cls-30 {
        mask: url(#mask-5);
      }

      .cls-13 {
        fill: #53c3c9;
      }

      .cls-14 {
        fill: #354c5a;
      }

      .cls-15 {
        fill: url(#linear-gradient-2);
      }

      .cls-31 {
        filter: url(#luminosity-noclip-4);
      }

      .cls-32 {
        filter: url(#luminosity-noclip-6);
      }

      .cls-33 {
        mask: url(#mask-4);
      }

      .cls-16 {
        fill: url(#linear-gradient-3);
      }

      .cls-17 {
        fill: #fdb500;
      }

      .cls-18 {
        fill: #f94e6b;
      }

      .cls-19 {
        fill: #f83;
      }

      .cls-20 {
        fill: #002036;
      }

      .cls-21 {
        fill: #ec6d6f;
      }

      .cls-22 {
        fill: #ffb049;
      }

      .cls-23 {
        fill: #de2a55;
      }

      .cls-34 {
        filter: url(#luminosity-noclip);
      }

      .cls-35 {
        mask: url(#mask-1);
      }

      .cls-36 {
        mask: url(#mask);
      }

      .cls-24 {
        fill: #fcba4b;
      }

      .cls-37 {
        filter: url(#luminosity-noclip-2);
      }

      .cls-25 {
        fill: url(#linear-gradient-4);
      }

      .cls-26 {
        fill: #e8262e;
      }

      .cls-38 {
        filter: url(#luminosity-noclip-3);
      }
    </style>
    <filter id="luminosity-noclip" x="100.89" y="648.34" width="261.11" height="260.08" color-interpolation-filters="sRGB" filterUnits="userSpaceOnUse">
      <feFlood flood-color="#fff" result="bg"/>
      <feBlend in="SourceGraphic" in2="bg"/>
    </filter>
    <linearGradient id="linear-gradient" x1="-2.59" y1="821.47" x2="269.07" y2="774.01" gradientUnits="userSpaceOnUse">
      <stop offset="0" stop-color="#fff"/>
      <stop offset=".44" stop-color="#858383"/>
      <stop offset=".81" stop-color="#231f20"/>
    </linearGradient>
    <mask id="mask" x="100.89" y="648.34" width="261.11" height="260.08" maskUnits="userSpaceOnUse">
      <g class="cls-34">
        <rect class="cls-3" x="100.89" y="652.75" width="261.11" height="255.67"/>
      </g>
    </mask>
    <filter id="luminosity-noclip-2" x="392.81" y="449.02" width="137.37" height="161.87" color-interpolation-filters="sRGB" filterUnits="userSpaceOnUse">
      <feFlood flood-color="#fff" result="bg"/>
      <feBlend in="SourceGraphic" in2="bg"/>
    </filter>
    <linearGradient id="linear-gradient-2" x1="503.99" y1="488.18" x2="444.44" y2="546.72" xlink:href="#linear-gradient"/>
    <mask id="mask-1" x="392.81" y="449.02" width="137.37" height="161.87" maskUnits="userSpaceOnUse">
      <g class="cls-37">
        <rect class="cls-15" x="392.81" y="449.02" width="137.37" height="161.87"/>
      </g>
    </mask>
    <filter id="luminosity-noclip-3" x="-57.19" y="725.87" width="188.38" height="174.98" color-interpolation-filters="sRGB" filterUnits="userSpaceOnUse">
      <feFlood flood-color="#fff" result="bg"/>
      <feBlend in="SourceGraphic" in2="bg"/>
    </filter>
    <linearGradient id="linear-gradient-3" x1="-25.41" y1="903.48" x2="64.41" y2="773.79" gradientUnits="userSpaceOnUse">
      <stop offset=".3" stop-color="#fff"/>
      <stop offset=".51" stop-color="#858383"/>
      <stop offset=".68" stop-color="#231f20"/>
    </linearGradient>
    <mask id="mask-2" x="-57.19" y="725.87" width="188.38" height="174.98" maskUnits="userSpaceOnUse">
      <g class="cls-38">
        <rect class="cls-16" x="-57.19" y="725.87" width="188.38" height="174.98"/>
      </g>
    </mask>
    <filter id="luminosity-noclip-4" x="4.93" y="742.01" width="253.53" height="317.19" color-interpolation-filters="sRGB" filterUnits="userSpaceOnUse">
      <feFlood flood-color="#fff" result="bg"/>
      <feBlend in="SourceGraphic" in2="bg"/>
    </filter>
    <linearGradient id="linear-gradient-4" x1="64.54" y1="882.15" x2="176.62" y2="912.94" gradientUnits="userSpaceOnUse">
      <stop offset="0" stop-color="#fff"/>
      <stop offset=".09" stop-color="#e3e2e3"/>
      <stop offset=".34" stop-color="#9f9e9e"/>
      <stop offset=".56" stop-color="#6a6768"/>
      <stop offset=".75" stop-color="#434040"/>
      <stop offset=".91" stop-color="#2b2728"/>
      <stop offset="1" stop-color="#231f20"/>
    </linearGradient>
    <mask id="mask-3" x="4.93" y="742.01" width="253.53" height="317.19" maskUnits="userSpaceOnUse">
      <g class="cls-31">
        <rect class="cls-25" x="4.93" y="742.01" width="253.53" height="317.19"/>
      </g>
    </mask>
    <filter id="luminosity-noclip-5" x="-46.58" y="880.68" width="246.46" height="300.05" color-interpolation-filters="sRGB" filterUnits="userSpaceOnUse">
      <feFlood flood-color="#fff" result="bg"/>
      <feBlend in="SourceGraphic" in2="bg"/>
    </filter>
    <linearGradient id="linear-gradient-5" x1="-.85" y1="1005.3" x2="153.12" y2="1055.78" gradientUnits="userSpaceOnUse">
      <stop offset="0" stop-color="#fff"/>
      <stop offset=".54" stop-color="#858383"/>
      <stop offset="1" stop-color="#231f20"/>
    </linearGradient>
    <mask id="mask-4" x="-46.58" y="880.68" width="246.46" height="300.05" maskUnits="userSpaceOnUse">
      <g class="cls-27">
        <rect class="cls-9" x="-46.58" y="880.68" width="246.46" height="300.05"/>
      </g>
    </mask>
    <filter id="luminosity-noclip-6" x="52.91" y="249.83" width="282.32" height="193.14" color-interpolation-filters="sRGB" filterUnits="userSpaceOnUse">
      <feFlood flood-color="#fff" result="bg"/>
      <feBlend in="SourceGraphic" in2="bg"/>
    </filter>
    <linearGradient id="linear-gradient-6" x1="81.81" y1="382.59" x2="189.86" y2="347.76" xlink:href="#linear-gradient"/>
    <mask id="mask-5" x="52.91" y="249.83" width="282.32" height="193.14" maskUnits="userSpaceOnUse">
      <g class="cls-32">
        <rect class="cls-6" x="52.91" y="249.83" width="282.32" height="193.14"/>
      </g>
    </mask>
  </defs>
  <g id="Layer_1-2" data-name="Layer 1">
    <g>
      <g>
        <polygon class="cls-8" points="1046.92 786.69 1068.79 768.82 745.43 768.82 596.28 784.21 1046.92 786.69"/>
        <path class="cls-8" d="M480.54,950.31c-1.19-.4-32.61-48.85-32.61-48.85l149.95-16.68,319.58.79-135.43,26.21"/>
        <polyline class="cls-13" points="927.69 886.97 917.45 885.58 596.28 885.58 596.28 784.21 918.45 783.12 918.45 871.18"/>
        <polygon class="cls-13" points="790.77 943.56 771.28 901.46 447.92 901.46 447.92 1004.36 776.46 1011.86 790.77 943.56"/>
        <polygon class="cls-13" points="484.91 1220.76 473.78 1233.46 135.7 1233.46 135.7 1116.71 473.78 1116.71 484.91 1220.76"/>
        <polyline class="cls-8" points="320.05 1040.06 299.77 1018.22 444.15 1004.32 771.28 1008.04 664.89 1029.93"/>
        <polygon class="cls-8" points="656.74 1128.62 628.1 1106.53 295.59 1106.53 135.7 1116.71 473.78 1116.71 656.74 1128.62"/>
        <polyline class="cls-13" points="686.37 1116.71 628.1 1018.22 299.77 1018.22 299.77 1106.53 684.58 1113.68"/>
        <polygon class="cls-7" points="1068.79 768.82 1068.79 1233.46 473.78 1233.46 473.78 1116.71 628.1 1106.53 628.1 1018.22 771.28 1008.04 771.28 901.46 917.45 885.58 918.45 783.12 1068.79 768.82"/>
      </g>
      <rect class="cls-14" x="372.86" y="1088.93" width="121.68" height="35.21" rx="17.61" ry="17.61" transform="translate(-351.55 214.41) rotate(-19.95)"/>
      <rect class="cls-14" x="14.8" y="1194.05" width="138.69" height="38.48" rx="19.24" ry="19.24" transform="translate(83.99 -2.91) rotate(3.96)"/>
      <path class="cls-24" d="M347.24,937.11h0c-19.91,10.62-44.66,3.12-55.3-16.76l-98.71-133.99c-10.64-19.87,23.17-45.92,43.08-56.54h0c19.91-10.62,54.23-3.6,64.86,16.28l62.85,135.79c10.64,19.87,3.12,44.6-16.78,55.22Z"/>
      <path class="cls-24" d="M400.73,1090.57h0c-21.33,7.35-42.21-4.07-49.57-25.37l-59.7-144.54c-7.36-21.3,3.96-44.53,25.29-51.88h0c21.33-7.35,44.6,3.95,51.96,25.25l45.24,142.87c7.36,21.3,8.11,46.32-13.22,53.67Z"/>
      <path class="cls-26" d="M304.62,656.04l-99.45-147.34c-11.05-16.37-6.72-38.58,9.67-49.61h0c16.37-11.02,38.58-6.7,49.62,9.65l99.45,147.34c11.05,16.37,6.72,38.58-9.67,49.61h0c-16.37,11.02-38.58,6.7-49.62-9.65Z"/>
      <path class="cls-26" d="M323.94,608.32l89.84-60.46c16.37-11.02,38.58-6.69,49.61,9.65h0c11.05,16.36,6.72,38.58-9.67,49.6l-89.84,60.46c-16.37,11.02-38.58,6.69-49.61-9.65h0c-11.05-16.36-6.72-38.58,9.67-49.6Z"/>
      <path class="cls-26" d="M34.96,633.3l91.04-162.02c10.1-17.98,32.88-24.38,50.88-14.3h.01c18.02,10.1,24.43,32.88,14.32,50.88l-91.04,162.02c-10.1,17.98-32.88,24.38-50.88,14.3h-.01c-18.02-10.1-24.43-32.88-14.32-50.88Z"/>
      <rect class="cls-26" x="-35.48" y="676.23" width="187.79" height="74.8" rx="37.37" ry="37.37" transform="translate(-656.38 671.73) rotate(-81.97)"/>
      <path class="cls-24" d="M314.04,762.52c10.41,70.7-31.63,96.18-86.92,104.29-55.29,8.11-102.89-4.2-113.3-74.9-10.41-70.7,25.98-134.6,81.27-142.72,55.29-8.11,108.55,42.62,118.96,113.33Z"/>
      <g class="cls-36">
        <path class="cls-17" d="M314.04,762.52c10.41,70.7-31.63,96.18-86.92,104.29-55.29,8.11-102.89-4.2-113.3-74.9-10.41-70.7,25.98-134.6,81.27-142.72,55.29-8.11,108.55,42.62,118.96,113.33Z"/>
      </g>
      <path class="cls-1" d="M226.95,440.56c0,17.76-16.95,32.16-37.87,32.16-17.88,0-34.78-8.86-38.75-23,3.77-2.2,9.57-5.8,13.54-7.46v-36.74h49.15v30.56c4.73.74,9.36,1.84,13.88,3.3.03.38.04.78.04,1.17Z"/>
      <path class="cls-26" d="M311.12,579.63c0,80.25-50.19,145.31-112.08,145.31s-112.09-65.06-112.09-145.31c0-58.55,26.7-109,65.19-132.01.53-.32,1.21-.04,1.4.55,4.35,13.2,18.62,22.88,35.56,22.88,20.4,0,36.92-14.05,36.92-31.36,0-.37-.01-.76-.04-1.14,48.88,15.64,85.13,72.87,85.13,141.08Z"/>
      <ellipse class="cls-1" cx="475.39" cy="544.14" rx="41.68" ry="41.62"/>
      <g class="cls-35">
        <ellipse class="cls-12" cx="475.39" cy="544.14" rx="41.68" ry="41.62"/>
      </g>
      <ellipse class="cls-1" cx="41.59" cy="832.82" rx="41.59" ry="41.52"/>
      <g class="cls-28">
        <ellipse class="cls-12" cx="41.59" cy="832.82" rx="41.59" ry="41.52"/>
      </g>
      <polyline class="cls-20" points="745 768.82 745 87.14 1056.99 68.08 1045.97 770.81"/>
      <polygon class="cls-23" points="989.16 786.69 998.34 797.58 1010.87 792.13 1012.41 106.76 762.21 95.85 942.69 282.5 989.16 786.69"/>
      <polygon class="cls-18" points="1068.79 768.82 1045.97 770.81 1039.16 89.87 767.38 98.65 767.38 768.82 744.58 768.82 744.58 87.14 744.58 75.63 755.31 74.95 1056.72 55.89 1068.79 55.13 1068.79 68.08 1068.79 768.82"/>
      <polygon class="cls-18" points="757.66 98.65 998.34 118.48 998.34 797.58 757.66 768.82 757.66 98.65"/>
      <ellipse class="cls-20" cx="963.24" cy="492.13" rx="15.21" ry="12.75"/>
      <g>
        <path class="cls-19" d="M1117.36,5.1l-1.25,13.58,12.54,5.38c2.64,1.13,2.29,4.98-.52,5.62l-13.32,3-1.25,13.59c-.26,2.86-4.03,3.71-5.5,1.24l-6.99-11.73-13.32,3.01c-2.8.63-4.78-2.69-2.88-4.85l9-10.25-6.98-11.72c-1.47-2.47,1.08-5.37,3.72-4.24l12.55,5.39,9.02-10.26c1.9-2.16,5.44-.63,5.18,2.23Z"/>
        <path class="cls-22" d="M1114.27,3.25l-1.25,13.58,12.54,5.38c2.64,1.13,2.29,4.98-.52,5.62l-13.32,3-1.25,13.59c-.26,2.86-4.03,3.71-5.5,1.24l-6.99-11.73-13.32,3.01c-2.8.63-4.78-2.69-2.88-4.85l9-10.25-6.98-11.72c-1.47-2.47,1.08-5.37,3.72-4.24l12.55,5.39,9.02-10.26c1.9-2.16,5.44-.63,5.18,2.23Z"/>
      </g>
      <g>
        <path class="cls-19" d="M1132.48,613.51l-1.25,13.58,12.54,5.38c2.64,1.13,2.29,4.98-.52,5.62l-13.32,3-1.25,13.59c-.26,2.86-4.03,3.71-5.5,1.24l-6.99-11.73-13.32,3.01c-2.8.63-4.78-2.69-2.88-4.85l9-10.25-6.98-11.72c-1.47-2.47,1.08-5.37,3.72-4.24l12.55,5.39,9.02-10.26c1.9-2.16,5.44-.63,5.18,2.23Z"/>
        <path class="cls-22" d="M1129.38,611.65l-1.25,13.58,12.54,5.38c2.64,1.13,2.29,4.98-.52,5.62l-13.32,3-1.25,13.59c-.26,2.86-4.03,3.71-5.5,1.24l-6.99-11.73-13.32,3.01c-2.8.63-4.78-2.69-2.88-4.85l9-10.25-6.98-11.72c-1.47-2.47,1.08-5.37,3.72-4.24l12.55,5.39,9.02-10.26c1.9-2.16,5.44-.63,5.18,2.23Z"/>
      </g>
      <g>
        <path class="cls-19" d="M1170.22,669.58l-.79,8.54,7.89,3.39c1.66.71,1.44,3.13-.33,3.53l-8.38,1.89-.79,8.55c-.17,1.8-2.54,2.33-3.46.78l-4.39-7.38-8.38,1.89c-1.76.4-3-1.69-1.81-3.05l5.66-6.44-4.39-7.37c-.92-1.55.68-3.38,2.34-2.67l7.89,3.39,5.67-6.45c1.19-1.36,3.42-.4,3.26,1.4Z"/>
        <path class="cls-22" d="M1168.27,668.41l-.79,8.54,7.89,3.39c1.66.71,1.44,3.13-.33,3.53l-8.38,1.89-.79,8.55c-.17,1.8-2.54,2.33-3.46.78l-4.39-7.38-8.38,1.89c-1.76.4-3-1.69-1.81-3.05l5.66-6.44-4.39-7.37c-.92-1.55.68-3.38,2.34-2.67l7.89,3.39,5.67-6.45c1.19-1.36,3.42-.4,3.26,1.4Z"/>
      </g>
      <g>
        <path class="cls-19" d="M1188.55,585.28l-.71,7.74,7.14,3.07c1.5.65,1.3,2.84-.29,3.2l-7.59,1.71-.71,7.74c-.15,1.63-2.3,2.11-3.13.71l-3.98-6.68-7.59,1.71c-1.6.36-2.72-1.53-1.64-2.76l5.13-5.84-3.97-6.68c-.84-1.41.61-3.06,2.12-2.42l7.15,3.07,5.14-5.84c1.08-1.23,3.1-.36,2.95,1.27Z"/>
        <path class="cls-22" d="M1186.78,584.22l-.71,7.74,7.14,3.07c1.5.65,1.3,2.84-.29,3.2l-7.59,1.71-.71,7.74c-.15,1.63-2.3,2.11-3.13.71l-3.98-6.68-7.59,1.71c-1.6.36-2.72-1.53-1.64-2.76l5.13-5.84-3.97-6.68c-.84-1.41.61-3.06,2.12-2.42l7.15,3.07,5.14-5.84c1.08-1.23,3.1-.36,2.95,1.27Z"/>
      </g>
      <g>
        <path class="cls-19" d="M677.82,32.4l8.2,15.22,17.02-3.08c3.58-.65,5.9,3.67,3.38,6.29l-11.95,12.47,8.19,15.21c1.72,3.2-1.66,6.74-4.93,5.16l-15.59-7.5-11.97,12.49c-2.52,2.63-6.92.5-6.43-3.1l2.33-17.12-15.57-7.5c-3.28-1.58-2.62-6.43.96-7.08l17.01-3.08,2.33-17.12c.49-3.6,5.3-4.48,7.03-1.27Z"/>
        <path class="cls-22" d="M673.25,32.61l8.2,15.22,17.02-3.08c3.58-.65,5.9,3.67,3.38,6.29l-11.95,12.47,8.19,15.21c1.72,3.2-1.66,6.74-4.93,5.16l-15.59-7.5-11.97,12.49c-2.52,2.63-6.92.5-6.43-3.1l2.33-17.12-15.57-7.5c-3.28-1.58-2.62-6.43.96-7.08l17.01-3.08,2.33-17.12c.49-3.6,5.3-4.48,7.03-1.27Z"/>
      </g>
      <g>
        <path class="cls-19" d="M751.41,69.01l3.89,7.22,8.07-1.46c1.7-.31,2.8,1.74,1.6,2.98l-5.67,5.91,3.88,7.21c.82,1.52-.79,3.2-2.34,2.45l-7.39-3.56-5.67,5.92c-1.19,1.24-3.28.24-3.05-1.47l1.1-8.12-7.38-3.55c-1.55-.75-1.24-3.05.46-3.36l8.07-1.46,1.1-8.12c.23-1.71,2.51-2.12,3.33-.6Z"/>
        <path class="cls-22" d="M749.24,69.11l3.89,7.22,8.07-1.46c1.7-.31,2.8,1.74,1.6,2.98l-5.67,5.91,3.88,7.21c.82,1.52-.79,3.2-2.34,2.45l-7.39-3.56-5.67,5.92c-1.19,1.24-3.28.24-3.05-1.47l1.1-8.12-7.38-3.55c-1.55-.75-1.24-3.05.46-3.36l8.07-1.46,1.1-8.12c.23-1.71,2.51-2.12,3.33-.6Z"/>
      </g>
      <path class="cls-24" d="M107.66,1019.15h0c-22.53-7.53-34.68-31.86-27.14-54.36l33.98-187.03c7.54-22.49,49.25-.73,71.78,6.8h0c22.53,7.53,41.96,38.82,34.42,61.31l-58.6,146.18c-7.54,22.49-31.91,34.63-54.44,27.1Z"/>
      <g class="cls-29">
        <path class="cls-17" d="M107.66,1019.15h0c-22.53-7.53-34.68-31.86-27.14-54.36l33.98-187.03c7.54-22.49,49.25-.73,71.78,6.8h0c22.53,7.53,41.96,38.82,34.42,61.31l-58.6,146.18c-7.54,22.49-31.91,34.63-54.44,27.1Z"/>
      </g>
      <path class="cls-24" d="M67.4,1177.74h0c-22.71-6.97-33.35-29.62-26.37-52.29l39.08-159.88c6.98-22.67,31.04-35.41,53.75-28.44h0c22.71,6.97,35.46,31,28.48,53.67l-50.34,149.5c-6.98,22.67-21.89,44.4-44.6,37.44Z"/>
      <g class="cls-33">
        <path class="cls-17" d="M67.4,1177.74h0c-22.71-6.97-33.35-29.62-26.37-52.29l39.08-159.88c6.98-22.67,31.04-35.41,53.75-28.44h0c22.71,6.97,35.46,31,28.48,53.67l-50.34,149.5c-6.98,22.67-21.89,44.4-44.6,37.44Z"/>
      </g>
      <rect class="cls-20" x="210.58" y="271.03" width="79.01" height="127.61" rx="22.25" ry="22.25" transform="translate(460.87 695.7) rotate(-173.53)"/>
      <path class="cls-20" d="M112.33,397.54l-40.73-23.48c-14.53-8.37-19.5-26.93-11.11-41.44l56.78-98.19c8.38-14.5,26.93-19.46,41.45-11.1l40.73,23.48c14.53,8.37,19.5,26.93,11.11,41.44l-56.78,98.19c-8.38,14.5-26.93,19.46-41.45,11.1Z"/>
      <ellipse class="cls-1" cx="182.22" cy="344.53" rx="84.21" ry="84.09"/>
      <g class="cls-30">
        <ellipse class="cls-12" cx="182.22" cy="344.53" rx="84.21" ry="84.09"/>
      </g>
      <path class="cls-20" d="M305.79,254.55l-15.97-34.92c-5.69-12.45-20.41-17.94-32.88-12.26l-36.47,16.62-100.25-40.37c-15.54-6.26-33.22,1.25-39.49,16.78l-17.58,43.53c-6.28,15.54,1.25,33.22,16.8,39.48l.19.08-7.23,63.59c-1.32,11.61,7.03,22.1,18.64,23.42l28.95,3.28c11.61,1.32,22.09-7.03,23.41-18.64l5-43.95,36.37,14.65c3.52,1.42,7.16,2.12,10.74,2.19,4.3.47,8.78-.17,13-2.09l46.18-21.05.92,34.81c.15,5.65,4.85,10.11,10.5,9.96l7.96-.21c5.65-.15,10.11-4.85,9.96-10.5l-1.23-46.87,10.22-4.66c12.48-5.69,17.97-20.41,12.27-32.87Z"/>
      <g>
        <ellipse class="cls-5" cx="175.31" cy="341.04" rx="14.69" ry="14.67"/>
        <ellipse class="cls-4" cx="176.79" cy="341.6" rx="6.72" ry="6.71"/>
        <path class="cls-20" d="M156.16,329.37c0,4.34,8.3,7.83,18.57,7.83,10.27,0,18.57-3.49,18.57-7.83,0-.8-.27-1.55-.8-2.28-2.31-3.2-9.38-5.53-17.77-5.53-8.87,0-16.28,2.6-18.11,6.1-.3.55-.46,1.12-.46,1.71Z"/>
        <ellipse class="cls-5" cx="233.1" cy="339.37" rx="14.69" ry="14.67"/>
        <ellipse class="cls-4" cx="234.49" cy="341.03" rx="6.72" ry="6.71"/>
        <path class="cls-20" d="M211.96,328.04c0,4.32,9.08,7.83,20.28,7.83,11.21,0,20.28-3.52,20.28-7.83,0-.8-.3-1.55-.87-2.26-2.49-3.22-10.25-5.55-19.42-5.55-9.65,0-17.75,2.6-19.78,6.07-.32.55-.5,1.14-.5,1.74Z"/>
        <path class="cls-2" d="M156.62,327.66c2.31,3.2,9.38,5.53,17.75,5.53,8.87,0,16.28-2.6,18.13-6.1-2.31-3.2-9.38-5.53-17.77-5.53-8.87,0-16.28,2.6-18.11,6.1Z"/>
        <path class="cls-2" d="M212.46,326.31c2.52,3.22,10.25,5.55,19.42,5.55,9.65,0,17.72-2.6,19.78-6.07-2.49-3.22-10.25-5.55-19.42-5.55-9.65,0-17.75,2.6-19.78,6.07Z"/>
        <path class="cls-12" d="M218.35,358.9c1.72,2.79,4.19,6.75,6.45,10.37,3,4.8.2,11.06-5.36,12.12-4.99.95-11.41,1.63-18.71,1.13-6.1-.42-9.47-7.28-6.14-12.39,2.66-4.08,5.24-8.3,7.03-11.28,1.5-2.5,4.25-3.98,7.17-3.88l3,.11c2.69.1,5.15,1.53,6.56,3.82Z"/>
        <path class="cls-4" d="M187.87,402.17c1.05,2.26,2.52,4.32,4.3,6.05,3.93,3.88,9.38,6.28,15.41,6.28,2.88,0,5.67-.55,8.19-1.55,5.08-2.03,9.22-5.89,11.55-10.78h-39.45Z"/>
        <path class="cls-11" d="M192.18,408.21c3.94,3.89,9.37,6.29,15.4,6.29,2.9,0,5.67-.55,8.19-1.57-.21-6.53-5.67-11.76-12.38-11.76-4.95,0-9.25,2.89-11.22,7.04Z"/>
        <path class="cls-21" d="M192.18,408.21c3.94,3.89,9.37,6.29,15.4,6.29,2.9,0,5.67-.55,8.19-1.57-.21-6.53-5.67-11.76-12.38-11.76-4.95,0-9.25,2.89-11.22,7.04Z"/>
        <path class="cls-10" d="M186.04,396.37c.32,2.03.94,4,1.83,5.8h39.45c.87-1.8,1.49-3.77,1.81-5.8h-43.08Z"/>
      </g>
    </g>
  </g>
</svg>