<?xml version="1.0" encoding="UTF-8"?>
<svg id="Layer_2" data-name="Layer 2" xmlns="http://www.w3.org/2000/svg" xmlns:xlink="http://www.w3.org/1999/xlink" viewBox="0 0 368.5 170.08">
  <defs>
    <style>
      .cls-1 {
        fill: #38b6ff;
      }

      .cls-1, .cls-2, .cls-3, .cls-4, .cls-5, .cls-6, .cls-7, .cls-8 {
        stroke-width: 0px;
      }

      .cls-2 {
        fill: #000;
      }

      .cls-3 {
        fill: #df1684;
      }

      .cls-4 {
        fill: none;
      }

      .cls-9 {
        clip-path: url(#clippath-1);
      }

      .cls-10 {
        clip-path: url(#clippath);
      }

      .cls-5 {
        fill: #f99d28;
      }

      .cls-6 {
        fill: #39b6fd;
      }

      .cls-7 {
        fill: #7dd858;
      }

      .cls-8 {
        fill: #030303;
      }
    </style>
    <clipPath id="clippath">
      <rect class="cls-4" width="368.5" height="170.08"/>
    </clipPath>
    <clipPath id="clippath-1">
      <circle class="cls-4" cx="85.33" cy="84.95" r="45.32"/>
    </clipPath>
  </defs>
  <g id="Layer_1-2" data-name="Layer 1">
    <g class="cls-10">
      <g>
        <g>
          <path class="cls-3" d="M50.41,34.34c9.25-6.23,20.3-9.98,32.21-10.33V5.93c-15.85.44-30.52,5.53-42.72,13.97l10.51,14.45Z"/>
          <path class="cls-5" d="M23.47,84.95c0-5.7.8-11.22,2.26-16.45l-16.85-5.51c-2.01,6.98-3.12,14.34-3.12,21.97s1.18,15.55,3.34,22.76l16.87-5.47c-1.62-5.48-2.5-11.28-2.5-17.29Z"/>
          <path class="cls-3" d="M86.75,5.92v18.1c11.96.44,23.04,4.33,32.27,10.7l10.79-14.8c-12.28-8.51-27.08-13.62-43.06-14Z"/>
          <path class="cls-7" d="M141.55,106.38c-3.96,10.54-10.74,19.68-19.43,26.52l10.79,14.83c11.82-9.06,21.01-21.37,26.22-35.6l-17.58-5.75Z"/>
          <path class="cls-8" d="M27.27,106.16l-16.88,5.47c5.16,14.4,14.38,26.86,26.28,36.01l10.53-14.43c-8.95-6.92-15.92-16.26-19.93-27.05Z"/>
          <path class="cls-5" d="M26.98,64.55c3.93-11.09,10.98-20.69,20.1-27.77l-10.51-14.44c-12.06,9.31-21.35,22.02-26.44,36.71l16.85,5.51Z"/>
          <path class="cls-8" d="M82.62,145.89c-11.85-.35-22.86-4.07-32.08-10.25l-10.53,14.44c12.17,8.39,26.81,13.45,42.61,13.89v-18.08Z"/>
          <path class="cls-6" d="M122.34,37.19c8.88,7.06,15.75,16.54,19.61,27.45l17.57-5.7c-5.09-14.62-14.35-27.28-26.37-36.57l-10.81,14.82Z"/>
          <path class="cls-6" d="M160.77,62.88l-17.58,5.7c1.45,5.21,2.24,10.7,2.24,16.37,0,6.09-.9,11.96-2.56,17.51l17.57,5.75c2.26-7.35,3.48-15.16,3.48-23.26,0-7.66-1.11-15.06-3.15-22.07Z"/>
          <path class="cls-7" d="M118.79,135.35c-9.19,6.27-20.18,10.09-32.03,10.53v18.1c15.87-.38,30.58-5.41,42.81-13.82l-10.78-14.81Z"/>
        </g>
        <rect class="cls-8" x="176.1" y="6.5" width="2.14" height="157.66"/>
        <g>
          <circle class="cls-1" cx="85.33" cy="84.95" r="45.32"/>
          <g class="cls-9">
            <g>
              <path class="cls-7" d="M130.98,90.47c-.04.5-.24.97-.36,1.47-.4.23-.34.66-.44,1.01-.27.88-.85,1.48-1.74,1.6-1.08.13-.86-.96-1.09-1.51-.73-1.72-1.37-3.46-3.2-4.35-.35-.18-.7-.51-1.02-.48-2.64.26-4.81-1.06-7.07-2.1-.35-.16-.74-.39-1.04-.01-.28.36-.05.73.2,1.04.71.9,1.14,2.21,2.81,1.48.78-.35,1.59.32,1.95.92.42.66-.55.98-.89,1.47-.15.22-.35.38-.55.55-3.86,3.51-4.6,3.45-7.71-.67-.78-1.02-1.53-2.05-2.32-3.06-.26-.34-.55-.89-1.04-.65-.57.28-.34.93-.18,1.37.35,1.04.97,1.94,1.67,2.77.62.74,1.21,1.49,1.84,2.21,2.03,2.32,2.05,2.32,5.28,1.79-1.24,2.87-3.26,4.94-5.51,6.77-1.05.86-1.59,1.71-1.48,3.07.15,1.84-.67,3.18-2.05,4.47-1.48,1.39-2.63,3.15-3.8,4.82-1.45,2.07-3.28,3.51-5.8,4.04-.81.16-1.01-.3-1.14-.92-.31-1.43-.71-2.85-.92-4.29-.27-2.05-1.25-3.85-.57-6.22.63-2.15-.59-4.63-1.47-6.8-.61-1.49-2.38-1.94-3.74-1.56-3.63.97-6.23-.11-8.62-2.95-2.25-2.68-2.44-4.95-.08-7.66,1.47-1.68,3.38-2.93,4.52-4.94.51-.9,1.66-1.17,2.71-1.21,1.6-.04,3.2-.03,4.79-.01.39,0,.9-.08,1.05.3.63,1.62,2.23,1.79,3.51,2.41.89.42,1.75,1.21,2.76-.18.55-.74,1.82-.13,2.76-.09.94.04,1.9.24,2.84.35.9.11,1.6.04,1.75-1.16.15-1.25-.69-1.08-1.4-1.28-.89-.26-1.87-.11-2.65-.92-.69-.7-.52-1.31-.22-2.02h.01c1.2-.03,2.4-.04,3.59-.07.93-.01,2.34.5,2.68-.19.46-.93-.75-1.86-1.18-2.81-.03-.05-.05-.12-.11-.16-.7-.54-1.36-.85-1.67.39-.19.77-.65.5-.89.09-.85-1.37-1.33-.43-1.97.22-.75.77-.34,1.67-.46,2.52h-.01c-2.34-.57-2.67-.34-2.61,1.94-1.06-.3-.96-1.29-1.17-2.01-.47-1.55-1.4-2.57-2.96-2.98-.42-.11-.93-.19-1.21.28-.27.46.03.86.38,1.17.48.4,1.01.77,1.49,1.17.32.27,1.18.28.65,1.01-.47.61-.89.05-1.28-.26-.65-.51-1.32-1.01-1.97-1.53-1.7-1.4-4.25-1.04-5.13.97-1.37,3.18-2.81,2.45-5.21,2.11-.77-.11-1.1-.74-.82-1.44.4-1,.13-2.57,2.05-2.44.7.04,1.8.55,2.1-.65.24-.96.16-1.94-.92-2.42,2.58-1.43,5.56-2.32,6.58-5.91.63,1.97,1.9,2.28,3.59,2.01,1.93-.32,2.38-1.98,3.22-3.24.48-.74-1.02-3.23-1.98-3.41-1.01-.19-1.86.08-1.53,1.4.26,1,.66,1.95.2,2.99-.24.54-.55,1.06-1.18,1.12-.59.07-.89-.48-1.13-.9-.39-.71-.66-1.51-.98-2.28-.83-.03-1.04,1.94-2.1.77-.81-.9-.4-2.03.32-2.79,1.58-1.62,2.95-3.24,3.7-5.48.54-1.59,2.17-1.82,3.76-1.28,1.88.65,3.63,1.56,5.34,2.57.48.28,1.35.58.93,1.4-.4.81-1.08.35-1.67.11-.23-.09-.5-.11-.75-.16-.07.08-.13.15-.22.23.59,1.53,1.55,1.75,2.98,1,1.93-1.02,3.84-2.23,6.22-1.44.88.28,1.12-1.17,2.05-.88.01.01.01.03.03.04l.03-.03s-.04-.01-.05-.01c-.24-.34-.48-.69-.73-1.02-.23-.32-.46-.62-.08-1,.3-.3.55-.35.98-.18,1.82.78,2.68.44,2.26-1.17-.43-1.68,1.63-.81,1.33-1.87.07-.07.12-.12.19-.19.65.23.94,1.18,1.84.86v-.03c.42.38,1.17,1.32,1.49,1.67,7.77,9.79,10.46,21.03,9.6,33.31Z"/>
              <rect class="cls-7" x="103.35" y="79.33" width=".01" height=".01"/>
              <path class="cls-7" d="M114.14,60.1l-.03.03s-.01-.03-.03-.04c.01,0,.04,0,.05.01Z"/>
              <path class="cls-7" d="M39.67,89.6c.25.03.52.12.76.07,2.44-.53,3.36,1.13,4.2,2.89.83,1.75,2.71,2.28,4.48,1.5,1.39-.62,2.84.14,3.99.76,2.79,1.5,5.62,2.88,7.92,5.28,1.63,1.71,4.23,2.31,6.46,3.23,1.55.64,2.25,1.32.98,2.86-1.03,1.25-.78,2.77-.75,4.24,0,.65.13,1.38-.99.96-.7-.27-.77.41-1,.85-.93,1.77-2,3.39-3.99,4.17-1,.4-1.06,1.3-1.05,2.25.03,1.94.91,3.7,1.03,5.61-.47.08-.68-.31-.97-.55.02-.31-.07-.53-.42-.56,0,0,.02.02.02.02-.11-.42-.31-.67-.78-.42l.02.02c-1.4-3.1-3.2-6.05-4.06-9.35-1.01-3.87-2.78-7.09-5.95-9.63-2.16-1.73-3.13-4.15-2.71-7,.06-.42.3-1-.16-1.25-2.43-1.36-3.75-4.26-6.75-4.81-.27-.33-.34-.71-.26-1.12Z"/>
              <path class="cls-7" d="M46.37,61.26c3.26,1.02,5.71-.07,7.47-3.12.63.99-.22,1.76.12,2.61.53-.31,1.05-.62,1.59-.93.5,1.03-.36,1.3-.86,1.69-1.88,1.44-3.8,2.82-5.68,4.26-2.07,1.59-2.16,2.74-.1,4.12,1.2.8.22,1.93.82,2.81.28-.1.82-.17.84-.31.25-1.9,2.34-2.75,2.54-4.73.26-2.55,1.21-3.17,3.29-2.55.49.15.83.27.7.89-.11.49-.7,1.11.2,1.42.64.21,1.08-.19,1.45-.69.1-.14.28-.21.62-.45.55,2.46,1.56,4.67,1.71,7.1.03.42.58,1.11-.26,1.24-.61.09-1.33-.08-1.32-.99,0-.57.17-1.27-.75-1.18-1.16.11-2.46-.43-3.46.49-.5.46-.31.88.41,1.05.76.18.96.94.93,1.52-.03.67-.82.66-1.35.78-1.76.41-3.46.94-4.72,2.34-.34.38-.87.73-.96,1.17-.35,1.79-1.09,3.03-2.99,3.67-.94.32-.21,1.79-.72,2.77-1.03-.89-.94-2.94-2.65-2.86-1.28.06-2.71.08-3.7,1.21-.03-8.44,2.34-16.18,6.8-23.31Z"/>
              <path class="cls-7" d="M62.17,49.27c-.26-2,1.41-2.63,2.44-3.77.63.71-.33,1.29.17,1.95.78-.44,1.6-.83,1.2-1.97-.24-.67.24-1.05.5-1.53,0,0-.03.02-.03.02.16-.14.32-.27.48-.41,1.25-.63,2.48-1.3,3.9-1.46.79.38,1.48.84,1.4,1.87h.01c-2.18,1.28-4.29,2.64-6.2,4.35-1.35,1.21-2.38,3.05-4.64,3-.07-.93.94-1.06,1.06-1.75.15-.16.44-.46.43-.47-.31-.34-.51-.05-.72.16Z"/>
              <path class="cls-7" d="M50.31,56.27c.65.55,1.23,1.32,2.36.41-.65,1.86-3.17,4.03-4.52,4.04-1.05,0-.27-.91-.58-1.29.74-1,1.47-2,2.21-2.99.26.18.47.2.55-.18h-.02Z"/>
              <path class="cls-6" d="M59.55,122.75c.47-.25.67,0,.78.42-.4.12-.65-.03-.78-.42Z"/>
              <path class="cls-6" d="M66.92,43.57c-.16.14-.32.27-.48.41.01-.31.25-.35.48-.41Z"/>
              <path class="cls-6" d="M60.3,123.15c.35.03.44.26.42.56-.2-.14-.47-.23-.42-.56Z"/>
              <path class="cls-7" d="M72.22,43.99c1.97-.33,3.88-.58,5.58-1.93,1.8-1.44,2.99-1.08,4.72.96.62.73,1.1,1.52,2.65,1.4-3.4,2.07-2.52,5.79-4.29,8.24-.32.44.05,1.88-1.34.87-.54-.4-.54.36-.45.63.19.52.51,1,.75,1.45-.64,1.1-1.73-1.08-2.2.38-.32,1,.93.46,1.35,1.05-1.01.52-1.87,1.08-2.81,1.43-3.05,1.15-5.34,3.17-6.89,6.01-.72,1.32-1.33,1.25-2.19.08-1.44-1.96-1.55-2.88-.03-4.76.7-.87.87-1.8.92-2.84.05-1.08.16-2.16.31-3.24.17-1.22.31-2.36-1.44-2.42-.43-.02-.81-.22-.65-.7.31-.91.14-2.12,1.42-2.51,1.86-.56,3.01-2.08,4.39-3.29.23-.21.45-.47.21-.82,0,0-.01.01-.01.01Z"/>
              <path class="cls-7" d="M62.9,61.03c-1.56.24-2.4,1.37-3.21,2.48-.99,1.36-1.54.28-2.23-.28-.93-.75-.55-1.2.29-1.64.58-.31,1-.83,1.2-1.45.25-.76.79-1.59.25-2.36-.54-.76-1.28-.05-1.94-.01-.43.02-.86,0-1.33,0,.13-.81.72-1.17,1.19-1.53.94-.74,1.36-2.24,2.94-2.07-.3,1.54,1.56,1.48,1.89,2.56.07.23.32.56.24.67-.91,1.39.25,2.39.71,3.63Z"/>
              <path class="cls-7" d="M85.7,69.35c.32-.39-.05-.69-.13-1.04-.2-.92.6-1.03,1.14-1.18.67-.18.87.28.79.91-.1.8.51,1.27.92,1.81,1.43,1.9,1.32,2.25-.93,2.96-.34.11-.71.16-1.27.28.19-.96.35-1.75.49-2.54.14-.8,0-1.39-1.03-1.23l.02.02Z"/>
              <path class="cls-7" d="M110.05,111.47c-.27-2.63.9-4.17,3.25-5.01.22,2.53-1.64,3.61-3.25,5.01Z"/>
              <path class="cls-7" d="M85.67,69.33c.02.32-.01.65.08.95.24.75-.1,1.08-.78,1.2-.48.08-.94-.01-1.09-.53-.18-.63.04-1.15.7-1.37.36-.12.74-.15,1.11-.22,0,0-.02-.02-.02-.02Z"/>
              <path class="cls-7" d="M61.75,52.66c-1.13.59-1.96.91-2.54.14-.54-.73-.44-1.64.77-1.26.39.12.71.97,1.77,1.12Z"/>
              <path class="cls-7" d="M55.58,52.98c-.48,1.34-1.77,1.62-2.79,2.27.4-1.44,1.55-1.91,2.79-2.27Z"/>
              <path class="cls-7" d="M117.85,54.85c-.16-.12-.29-.26-.06-.41.02-.01.16.15.24.22-.06.06-.12.13-.19.19Z"/>
            </g>
          </g>
        </g>
        <g>
          <path class="cls-2" d="M205.21,59.45h2.65c2.49,0,4.35-.49,5.58-1.46,1.24-.99,1.86-2.42,1.86-4.3s-.52-3.29-1.55-4.2c-1.03-.9-2.65-1.36-4.87-1.36h-3.68v11.32ZM223.49,53.39c0,4.11-1.29,7.26-3.87,9.44-2.56,2.17-6.22,3.26-10.95,3.26h-3.47v13.58h-8.11v-38.19h12.2c4.62,0,8.14,1,10.55,3.01,2.42,2,3.64,4.96,3.64,8.9Z"/>
          <path class="cls-2" d="M238.01,79.67h-7.96v-40.64h7.96v40.64Z"/>
          <path class="cls-2" d="M264.93,79.67l-1.55-3.97h-.21c-1.34,1.69-2.72,2.86-4.14,3.51-1.42.65-3.27.98-5.56.98-2.8,0-5.01-.8-6.62-2.4-1.6-1.6-2.4-3.89-2.4-6.85s1.08-5.37,3.24-6.83c2.17-1.47,5.44-2.3,9.82-2.47l5.06-.15v-1.27c0-2.97-1.51-4.45-4.53-4.45-2.34,0-5.09.71-8.23,2.11l-2.63-5.37c3.35-1.75,7.08-2.63,11.18-2.63s6.92.86,9,2.57c2.09,1.7,3.13,4.29,3.13,7.77v19.45h-5.56ZM262.57,66.13l-3.07.1c-2.33.07-4.05.49-5.18,1.25-1.13.77-1.69,1.94-1.69,3.51,0,2.25,1.28,3.36,3.87,3.36,1.84,0,3.31-.53,4.41-1.59,1.11-1.06,1.67-2.47,1.67-4.24v-2.4Z"/>
          <path class="cls-2" d="M305.63,79.67h-7.96v-17.05c0-2.12-.38-3.7-1.13-4.74-.75-1.06-1.94-1.59-3.57-1.59-2.23,0-3.84.75-4.85,2.24-.99,1.49-1.48,3.96-1.48,7.4v13.75h-7.96v-29.21h6.08l1.09,3.74h.44c.89-1.41,2.11-2.47,3.66-3.2,1.56-.72,3.33-1.09,5.33-1.09,3.39,0,5.98.92,7.73,2.76s2.63,4.49,2.63,7.96v19.03Z"/>
          <path class="cls-2" d="M325.92,55.58c-1.69,0-3.01.54-3.97,1.61-.96,1.08-1.51,2.59-1.65,4.55h11.18c-.03-1.96-.54-3.48-1.55-4.55-.99-1.07-2.33-1.61-4.01-1.61ZM327.05,80.19c-4.71,0-8.39-1.3-11.03-3.89-2.65-2.6-3.97-6.28-3.97-11.03s1.22-8.67,3.66-11.34c2.45-2.67,5.83-4.01,10.15-4.01s7.35,1.18,9.65,3.53c2.3,2.36,3.45,5.6,3.45,9.74v3.87h-18.84c.09,2.27.77,4.04,2.03,5.31,1.25,1.27,3.01,1.9,5.26,1.9,1.75,0,3.41-.18,4.97-.54,1.57-.36,3.22-.95,4.93-1.75v6.16c-1.39.7-2.88,1.21-4.47,1.55-1.59.34-3.52.52-5.79.52Z"/>
          <path class="cls-2" d="M357.73,73.84c1.39,0,3.06-.3,5.01-.92v5.93c-2,.89-4.43,1.34-7.31,1.34-3.19,0-5.52-.8-6.98-2.4-1.45-1.61-2.17-4.04-2.17-7.27v-14.06h-3.8v-3.38l4.39-2.65,2.3-6.16h5.1v6.2h8.17v6h-8.17v14.06c0,1.14.31,1.98.94,2.53.64.53,1.48.79,2.53.79Z"/>
          <path class="cls-2" d="M214.34,111.8h12.97v18.57c-2.02.64-4.07,1.13-6.16,1.46s-4.51.5-7.25.5c-5.78,0-10.29-1.72-13.52-5.16-3.22-3.44-4.83-8.26-4.83-14.46,0-3.97.79-7.44,2.38-10.43,1.6-2.99,3.9-5.28,6.89-6.85,2.99-1.57,6.5-2.36,10.53-2.36s7.86.75,11.39,2.26l-1.73,3.91c-3.44-1.46-6.76-2.19-9.94-2.19-4.65,0-8.29,1.39-10.91,4.16-2.61,2.77-3.91,6.61-3.91,11.51,0,5.16,1.26,9.07,3.78,11.74,2.52,2.66,6.22,3.99,11.09,3.99,2.64,0,5.23-.3,7.75-.92v-11.76h-8.54v-3.97Z"/>
          <path class="cls-2" d="M260.54,117.48c0,4.67-1.18,8.31-3.53,10.93-2.36,2.62-5.6,3.93-9.74,3.93-2.56,0-4.84-.6-6.83-1.8-1.98-1.21-3.51-2.94-4.6-5.18-1.08-2.24-1.61-4.87-1.61-7.88,0-4.66,1.16-8.3,3.49-10.91,2.34-2.6,5.58-3.91,9.71-3.91s7.19,1.33,9.55,3.99c2.37,2.66,3.55,6.27,3.55,10.82ZM238.73,117.48c0,3.65.73,6.43,2.19,8.36,1.46,1.91,3.61,2.86,6.46,2.86s4.98-.95,6.46-2.86c1.47-1.91,2.21-4.69,2.21-8.36s-.74-6.41-2.21-8.29c-1.48-1.89-3.65-2.84-6.52-2.84s-4.99.93-6.43,2.8c-1.44,1.87-2.15,4.65-2.15,8.34Z"/>
          <path class="cls-2" d="M285.74,131.82l-.88-4.07h-.21c-1.42,1.8-2.84,3.02-4.26,3.66-1.42.63-3.19.94-5.31.94-2.84,0-5.07-.73-6.69-2.19-1.6-1.46-2.4-3.54-2.4-6.25,0-5.78,4.62-8.81,13.85-9.09l4.87-.15v-1.78c0-2.26-.49-3.91-1.46-4.97-.96-1.07-2.5-1.61-4.62-1.61-2.4,0-5.1.73-8.11,2.19l-1.34-3.32c1.42-.76,2.97-1.36,4.64-1.8,1.68-.44,3.37-.67,5.06-.67,3.41,0,5.94.76,7.58,2.28,1.64,1.52,2.47,3.95,2.47,7.29v19.53h-3.2ZM275.94,128.77c2.7,0,4.82-.74,6.35-2.21,1.55-1.49,2.32-3.56,2.32-6.23v-2.59l-4.35.19c-3.44.13-5.93.66-7.46,1.61-1.52.95-2.28,2.42-2.28,4.43,0,1.56.47,2.75,1.42,3.57.95.83,2.28,1.23,3.99,1.23Z"/>
          <path class="cls-2" d="M302.21,131.82h-4.35v-40.64h4.35v40.64Z"/>
          <path class="cls-2" d="M329.86,124c0,2.66-1,4.72-2.99,6.16-1.98,1.45-4.76,2.17-8.36,2.17-3.79,0-6.75-.6-8.88-1.8v-4.03c1.38.7,2.85,1.25,4.43,1.65,1.57.41,3.09.61,4.55.61,2.27,0,4.01-.36,5.22-1.09,1.22-.72,1.84-1.82,1.84-3.3,0-1.11-.49-2.07-1.46-2.86-.96-.79-2.84-1.73-5.64-2.82-2.66-.99-4.55-1.85-5.68-2.59-1.13-.74-1.96-1.57-2.51-2.51-.54-.95-.81-2.07-.81-3.38,0-2.32.95-4.16,2.84-5.52,1.89-1.35,4.5-2.03,7.81-2.03,3.08,0,6.08.63,9.03,1.88l-1.55,3.53c-2.87-1.18-5.47-1.78-7.79-1.78-2.06,0-3.61.32-4.66.96-1.04.64-1.57,1.53-1.57,2.65,0,.77.19,1.42.58,1.96.39.54,1.01,1.06,1.88,1.55.88.49,2.55,1.19,5.04,2.11,3.39,1.24,5.69,2.49,6.87,3.74,1.2,1.25,1.8,2.83,1.8,4.72Z"/>
        </g>
      </g>
    </g>
  </g>
</svg>