<?xml version="1.0" encoding="UTF-8"?>
<svg id="Layer_2" data-name="Layer 2" xmlns="http://www.w3.org/2000/svg" viewBox="0 0 988.56 220.43">
  <defs>
    <style>
      .cls-1 {
        font-family: Arial-BoldMT, Arial;
        font-size: 65px;
        font-weight: 700;
      }

      .cls-1, .cls-2 {
        fill: #039;
      }

      .cls-2, .cls-3 {
        stroke-width: 0px;
      }

      .cls-3 {
        fill: #fff;
      }
    </style>
  </defs>
  <g id="Layer_1-2" data-name="Layer 1">
    <g>
      <rect class="cls-3" width="988.56" height="220.43"/>
      <path class="cls-2" d="M15.7,15.54v189.07h283.6V15.54H15.7ZM85.72,107.26l7.49.02,2.29-7.17,2.29,7.16h7.49l-6.07,4.37,2.27,7.06-5.98-4.37-5.98,4.37,2.28-7.06-6.08-4.37ZM109.8,149.72l-5.98-4.38-5.98,4.38,2.28-7.06-6.07-4.37h7.49s2.29-7.16,2.29-7.16l2.29,7.16h7.49l-6.07,4.37,2.28,7.06ZM107.52,80.7l2.28,7.06-5.98-4.37-5.98,4.37,2.28-7.06-6.07-4.37h7.49s2.29-7.16,2.29-7.16l2.29,7.16h7.49l-6.07,4.37ZM124.18,53.63l2.29-7.16,2.29,7.16h7.49l-6.08,4.37,2.27,7.06-5.98-4.37-5.98,4.37,2.27-7.06-6.07-4.37h7.49ZM132.5,172.42l-5.98-4.37-5.98,4.37,2.27-7.06-6.07-4.37h7.49s2.29-7.15,2.29-7.15l2.29,7.15h7.49l-6.07,4.37,2.27,7.06ZM155.15,45.31l2.29-7.16,2.29,7.15h7.49l-6.08,4.37,2.28,7.06-5.98-4.37-5.98,4.37,2.28-7.06-6.07-4.37h7.49ZM163.43,180.65l-5.98-4.37-5.98,4.37,2.27-7.06-6.07-4.37h7.49s2.29-7.16,2.29-7.16l2.29,7.16h7.49l-6.08,4.37,2.28,7.06ZM194.37,172.42l-5.98-4.37-5.98,4.37,2.27-7.06-6.07-4.37h7.48s2.3-7.15,2.3-7.15l2.29,7.15h7.49l-6.08,4.37,2.28,7.06ZM192.18,58l2.27,7.06-5.98-4.38-5.99,4.38,2.27-7.06-6.07-4.38,7.49.02,2.29-7.16,2.29,7.15h7.5l-6.08,4.38ZM208.79,76.26l2.3-7.16,2.3,7.16h7.48l-6.08,4.36,2.28,7.06-5.98-4.37-5.98,4.37,2.28-7.06-6.08-4.36h7.48ZM217.07,149.72l-5.98-4.38-5.98,4.38,2.28-7.06-6.08-4.37h7.48s2.3-7.16,2.3-7.16l2.3,7.16h7.48l-6.08,4.37,2.28,7.06ZM225.29,118.61l-5.98-4.38-5.98,4.38,2.27-7.06-6.08-4.37h7.49s2.29-7.16,2.29-7.16l2.3,7.16h7.49l-6.08,4.37,2.27,7.06Z"/>
      <text class="cls-1" transform="translate(335.54 86.71)"><tspan x="0" y="0">Co-funded by</tspan><tspan x="0" y="78">the European Union</tspan></text>
    </g>
  </g>
</svg>