<svg width="46" height="46" viewBox="0 0 46 46" fill="none" xmlns="http://www.w3.org/2000/svg">
<path d="M23.0052 31.05C20.8103 31.05 18.7053 30.2019 17.1533 28.6922C15.6013 27.1825 14.7294 25.135 14.7294 23C14.7294 20.865 15.6013 18.8175 17.1533 17.3078C18.7053 15.7981 20.8103 14.95 23.0052 14.95C25.2001 14.95 27.3051 15.7981 28.8571 17.3078C30.4091 18.8175 31.2811 20.865 31.2811 23C31.2811 25.135 30.4091 27.1825 28.8571 28.6922C27.3051 30.2019 25.2001 31.05 23.0052 31.05ZM40.5736 25.231C40.6682 24.495 40.7391 23.759 40.7391 23C40.7391 22.241 40.6682 21.482 40.5736 20.7L45.5628 16.951C46.012 16.606 46.1303 15.985 45.8465 15.479L41.1175 7.521C40.8337 7.015 40.1953 6.808 39.6751 7.015L33.7874 9.315C32.5579 8.418 31.2811 7.636 29.7914 7.061L28.9165 0.966004C28.8685 0.695104 28.7234 0.449486 28.507 0.272673C28.2906 0.095859 28.0169 -0.000735481 27.7343 4.21698e-06H18.2762C17.685 4.21698e-06 17.1885 0.414004 17.0939 0.966004L16.219 7.061C14.7294 7.636 13.4526 8.418 12.223 9.315L6.33534 7.015C5.81515 6.808 5.17672 7.015 4.89298 7.521L0.163936 15.479C-0.143452 15.985 -0.00158024 16.606 0.447679 16.951L5.43682 20.7C5.34224 21.482 5.27131 22.241 5.27131 23C5.27131 23.759 5.34224 24.495 5.43682 25.231L0.447679 29.049C-0.00158024 29.394 -0.143452 30.015 0.163936 30.521L4.89298 38.479C5.17672 38.985 5.81515 39.169 6.33534 38.985L12.223 36.662C13.4526 37.582 14.7294 38.364 16.219 38.939L17.0939 45.034C17.1885 45.586 17.685 46 18.2762 46H27.7343C28.3254 46 28.8219 45.586 28.9165 45.034L29.7914 38.939C31.2811 38.341 32.5579 37.582 33.7874 36.662L39.6751 38.985C40.1953 39.169 40.8337 38.985 41.1175 38.479L45.8465 30.521C46.1303 30.015 46.012 29.394 45.5628 29.049L40.5736 25.231Z" fill="#133742"/>
</svg>