<svg width="46" height="42" viewBox="0 0 46 42" fill="none" xmlns="http://www.w3.org/2000/svg">
<path fill-rule="evenodd" clip-rule="evenodd" d="M46 8.84208V35.3684H39.0957L39.1 42L27.6 35.3684H18.4V8.84208H46ZM27.6 0V6.63158H16.1V27.8527L6.89999 33.1579L6.90431 26.5263H0V0H27.6ZM33.5511 15.4737H30.8631L25.7599 28.7368H28.185L29.5971 24.9367H34.7781L36.2001 28.7368H38.7711L33.5511 15.4737ZM32.1876 17.692C32.3961 18.3638 32.6187 19.0314 32.8555 19.6945L32.957 19.9759L34.1159 23.1208H30.2496L31.4086 19.9759C31.7331 19.1085 31.9928 18.3472 32.1876 17.692ZM12.6174 3.57888H10.3174V4.68407H4.56726V6.89467L13.1526 6.89478C13.0146 8.77732 12.5177 10.473 11.6624 11.9922C10.7338 10.7646 10.094 9.3926 9.73934 7.86755L9.7167 7.76786L7.46795 8.23208L7.63668 8.90684C8.14879 10.7543 9.0322 12.4189 10.2829 13.8913C8.92644 15.2981 6.98258 16.2849 4.41557 16.8472L4.31778 16.8684L4.81674 19.0262L5.50328 18.8675C8.18253 18.1985 10.3208 17.0691 11.8906 15.4756C12.9907 16.3876 14.3541 17.2497 15.9804 18.0664L16.0998 18.126V15.6088C14.987 14.9928 14.0487 14.3593 13.2846 13.7111C14.5528 11.7303 15.2742 9.49083 15.4498 7.00782L15.4574 6.89488L16.0997 6.89467V4.68407H12.6172L12.6174 3.57888Z" fill="#133742"/>
</svg>
