<svg width="16" height="18" viewBox="0 0 16 18" fill="none" xmlns="http://www.w3.org/2000/svg">
<path d="M15.112 3.6C15.3386 3.60025 15.5565 3.68809 15.7213 3.84556C15.886 4.00304 15.9852 4.21826 15.9985 4.44726C16.0117 4.67625 15.9382 4.90174 15.7927 5.07765C15.6473 5.25356 15.441 5.36661 15.216 5.3937L15.112 5.4H15.04L14.223 15.3C14.223 15.9887 13.9631 16.6514 13.4964 17.1524C13.0297 17.6535 12.3916 17.9551 11.7125 17.9955L11.556 18H4.44401C3.02339 18 1.86236 16.8759 1.78412 15.525L1.77968 15.3747L0.959133 5.4H0.888013C0.661426 5.39975 0.443486 5.31191 0.278722 5.15444C0.113959 4.99696 0.0148082 4.78174 0.00152911 4.55274C-0.01175 4.32375 0.0618447 4.09826 0.207276 3.92235C0.352708 3.74644 0.558999 3.63339 0.784001 3.6063L0.888013 3.6H15.112ZM9.778 0C10.2496 0 10.7018 0.189642 11.0352 0.527208C11.3687 0.864773 11.556 1.32261 11.556 1.8C11.5557 2.02939 11.469 2.25003 11.3134 2.41683C11.1579 2.58363 10.9453 2.68401 10.7191 2.69745C10.4929 2.7109 10.2702 2.63639 10.0964 2.48916C9.92265 2.34193 9.81098 2.13309 9.78422 1.9053L9.778 1.8H6.222L6.21578 1.9053C6.18902 2.13309 6.07735 2.34193 5.90359 2.48916C5.72984 2.63639 5.5071 2.7109 5.28091 2.69745C5.05471 2.68401 4.84212 2.58363 4.68657 2.41683C4.53102 2.25003 4.44426 2.02939 4.44401 1.8C4.44386 1.34588 4.61328 0.90849 4.91828 0.575507C5.22329 0.242524 5.64135 0.038559 6.08865 0.0045001L6.222 0H9.778Z" fill="#FE6E6E"/>
</svg>