<?xml version="1.0" encoding="UTF-8"?><svg id="Layer_2" xmlns="http://www.w3.org/2000/svg" xmlns:xlink="http://www.w3.org/1999/xlink" viewBox="0 0 1647.89 1332.75"><defs><filter id="luminosity-noclip" x="-71.93" y="349.41" width="297.81" height="359.85" color-interpolation-filters="sRGB" filterUnits="userSpaceOnUse"><feFlood flood-color="#fff" result="bg"/><feBlend in="SourceGraphic" in2="bg"/></filter><linearGradient id="linear-gradient" x1="-14.32" y1="587.61" x2="115.72" y2="504.61" gradientUnits="userSpaceOnUse"><stop offset="0" stop-color="#fff"/><stop offset="1" stop-color="#231f20"/></linearGradient><mask id="mask" x="-71.93" y="349.41" width="297.81" height="359.85" maskUnits="userSpaceOnUse"><g filter="url(#luminosity-noclip)"><rect x="-71.93" y="349.41" width="297.81" height="359.85" fill="url(#linear-gradient)" stroke-width="0"/></g></mask></defs><g id="Layer_1-2"><rect x="205.63" y="235.82" width="85.54" height="97" fill="#ffaf8b" stroke-width="0"/><ellipse cx="249.98" cy="194.49" rx="110.88" ry="109.52" fill="#ffaf8b" stroke-width="0"/><ellipse cx="331.56" cy="218.74" rx="12.28" ry="24.25" fill="#ef907c" stroke-width="0"/><ellipse cx="334.73" cy="219.52" rx="11.88" ry="23.47" fill="#ffaf8b" stroke-width="0"/><ellipse cx="337.9" cy="219.52" rx="5.54" ry="10.95" fill="#ef907c" stroke-width="0"/><rect x="126.43" y="323.51" width="254.55" height="296.13" rx="62.19" ry="62.19" fill="#fcba4b" stroke-width="0"/><path d="M183.64,598.78h2.8c33.32,0,60.38,27.05,60.38,60.38v217.28c0,33.32-27.05,60.38-60.38,60.38h-2.8c-33.32,0-60.38-27.05-60.38-60.38v-217.28c0-33.32,27.05-60.38,60.38-60.38Z" fill="#e75437" stroke-width="0"/><path d="M105.86,1220.52h-.03c-33.27-7.45-54.12-40.12-46.58-72.98l65.52-285.55c7.54-32.86,40.62-53.46,73.89-46.01h.03c33.27,7.45,54.12,40.12,46.58,72.98l-65.52,285.55c-7.54,32.86-40.62,53.46-73.89,46.01Z" fill="#e75437" stroke-width="0"/><path d="M138.41,593.81h237c4.21,0,7.63,3.42,7.63,7.63v102.64c0,37.58-30.51,68.09-68.09,68.09h-123.61c-37.58,0-68.09-30.51-68.09-68.09v-95.12c0-8.36,6.79-15.15,15.15-15.15Z" fill="#e75437" stroke-width="0"/><path d="M324.17,336.17l3.68-1.75c25.78-12.28,56.75-1.59,69.18,23.86l65.95,135.04c12.43,25.46,1.62,56.05-24.16,68.33l-3.68,1.75c-25.78,12.28-56.75,1.59-69.18-23.86l-65.95-135.04c-12.43-25.46-1.62-56.05,24.16-68.33Z" fill="#fcba4b" stroke-width="0"/><ellipse cx="189.79" cy="654.14" rx="57.03" ry="56.32" fill="#ffaf8b" stroke-width="0"/><path d="M15.64,520.78h0c-19.41-22.26-16.88-55.84,5.65-75.02l127.88-108.82c22.54-19.18,56.55-16.68,75.96,5.58h0c19.41,22.26,16.88,55.84-5.65,75.02l-127.88,108.82c-22.54,19.18-56.55,16.68-75.96-5.58Z" fill="#fcba4b" stroke-width="0"/><path d="M18.7,456.17h0c22.54-19.18,56.54-16.68,75.96,5.58l110.18,126.31c19.41,22.26,16.88,55.84-5.65,75.01h0c-22.54,19.18-56.54,16.68-75.96-5.58l-110.18-126.31c-19.41-22.26-16.88-55.84,5.65-75.01Z" fill="#fcba4b" stroke-width="0"/><g mask="url(#mask)"><path d="M18.7,456.17h0c22.54-19.18,56.54-16.68,75.96,5.58l110.18,126.31c19.41,22.26,16.88,55.84-5.65,75.01h0c-22.54,19.18-56.54,16.68-75.96-5.58l-110.18-126.31c-19.41-22.26-16.88-55.84,5.65-75.01Z" fill="#e0a044" stroke-width="0"/></g><path d="M185.67,1314.71l-129.74-2.53c-21.85-.78-35.64-23.81-27.78-46.41h0c5.38-15.48,19.49-25.84,34.46-25.31l129.74,2.53c21.85.78,35.64,23.81,27.78,46.41h0c-5.38,15.48-19.49,25.84-34.46,25.31Z" fill="#fdd382" stroke-width="0"/><rect x="257.42" y="612" width="123.56" height="336.14" rx="60.21" ry="60.21" fill="#e75437" stroke-width="0"/><path d="M240.02,1233.73h-.03c-33.27-7.45-54.12-40.12-46.58-72.98l65.52-285.55c7.54-32.86,40.62-53.46,73.89-46.01h.03c33.27,7.45,54.12,40.12,46.58,72.98l-65.52,285.55c-7.54,32.86-40.62,53.46-73.89,46.01Z" fill="#e75437" stroke-width="0"/><path d="M318.95,1332.73l-129.74-2.53c-21.85-.78-35.64-23.81-27.78-46.41h0c5.38-15.48,19.49-25.84,34.46-25.31l129.74,2.53c21.85.78,35.64,23.81,27.78,46.41h0c-5.38,15.48-19.49,25.84-34.46,25.31Z" fill="#fdd382" stroke-width="0"/><ellipse cx="267.97" cy="668.26" rx="57.03" ry="56.32" fill="#ffaf8b" stroke-width="0"/><path d="M447.3,475.15h0c22.97,18.66,26.28,52.18,7.39,74.87l-109.52,131.54c-18.89,22.69-52.84,25.96-75.81,7.3h0c-22.97-18.66-26.28-52.18-7.39-74.87l109.52-131.54c18.89-22.69,52.84-25.96,75.81-7.3Z" fill="#fcba4b" stroke-width="0"/><ellipse cx="224.02" cy="188.44" rx="101.98" ry="100.8" fill="#002036" stroke-width="0"/><ellipse cx="286.14" cy="120.9" rx="72.99" ry="72.15" fill="#002036" stroke-width="0"/><ellipse cx="224.02" cy="118.86" rx="72.99" ry="72.15" fill="#002036" stroke-width="0"/><ellipse cx="190.89" cy="149.56" rx="72.99" ry="72.15" fill="#002036" stroke-width="0"/><ellipse cx="182.61" cy="191.51" rx="72.99" ry="72.15" fill="#002036" stroke-width="0"/><ellipse cx="202.28" cy="231.42" rx="72.99" ry="72.15" fill="#002036" stroke-width="0"/><path d="M690.02,336.74l-181.64-2.11c-5.63-.07-10.16-4.42-10.16-9.77V16.96c0-5.35,4.53-9.7,10.16-9.77l181.64-2.11c5.73-.07,10.42,4.33,10.42,9.77v312.12c0,5.44-4.68,9.83-10.42,9.77Z" fill="#a69ebf" stroke-width="0"/><path d="M692.54,10.85v311.13c0,5.43-4.66,9.81-10.35,9.74l-180.59-2.09c-5.61-.07-10.11-4.41-10.11-9.74V12.95c0-5.33,4.5-9.67,10.11-9.74l180.59-2.1c5.69-.06,10.35,4.32,10.35,9.74Z" fill="#d7c4c0" stroke-width="0"/><path d="M685.07,14.71v307.39c0,5.36-4.6,9.69-10.23,9.62l-178.28-2.06c-5.52-.07-9.98-4.36-9.98-9.62V16.78c0-5.27,4.46-9.55,9.98-9.62l178.28-2.08c5.63-.06,10.23,4.27,10.23,9.62Z" fill="#fbe7d4" stroke-width="0"/><path d="M693.69,10.29v80.52l-202.21,1.16V12.51c0-5.64,4.53-10.22,10.17-10.29L683.28,0c5.72-.06,10.41,4.57,10.41,10.29Z" fill="#eabc50" stroke-width="0"/><path d="M686.48,10.29v80.56l-202.23,1.15V12.51c0-5.64,4.54-10.22,10.17-10.29L676.05,0c5.74-.06,10.43,4.57,10.43,10.29Z" fill="#f4c452" stroke-width="0"/><path d="M550.9,133.52v159.37c0,5.85-4.75,10.59-10.6,10.59h-1.92c-5.85,0-10.59-4.74-10.59-10.59v-159.37c0-5.86,4.74-10.6,10.59-10.6h1.92c5.85,0,10.6,4.74,10.6,10.6Z" fill="#a69ebf" stroke-width="0"/><path d="M545.04,130.58v159.37c0,5.85-4.75,10.59-10.6,10.59h-1.92c-5.85,0-10.59-4.74-10.59-10.59v-159.37c0-5.86,4.74-10.6,10.59-10.6h1.92c5.85,0,10.6,4.74,10.6,10.6Z" fill="#ccbcb7" stroke-width="0"/><path d="M532.52,301.77c-6.52,0-11.82-5.3-11.82-11.82v-115.58c0-5.33,4.34-9.67,9.67-9.67h6.23c5.33,0,9.67,4.34,9.67,9.67v115.58c0,6.52-5.31,11.82-11.83,11.82h-1.92Z" fill="#f4c452" stroke-width="0"/><path d="M594.29,62.59l13.87-.15.14,13.09-45.23.48-.14-13.09,14.52-.16-.3-27.96c-5.49,2.5-9.78,3.98-12.88,4.45l-.14-13.22c8.34-1.9,13.97-5.2,16.91-9.92l12.75-.14.5,46.61Z" fill="#fbe7d4" stroke-width="0"/><path d="M662.55,174.01c-2-6.26-9.7-9.26-14.69-5.09-2.77-10.75-60.93-12.74-62.44.68-4.72-5.55-14.92-1.23-15.72,6.1-2.18,10.35,5.96,26.57,12.61,33.36,0,0,7.93,8.38,16.88,12.44,1.69,1.68,3.55,3.4,5.96,4.76-.29,1.66,1.25,3.51,2.12,3.98,3.56,4.29-1.43,10.8-6.14,10.56-6.4.34-8.34,9.6-9.76,16.36-2.87,13.92,21.24,7.16,28.92,8.92,7.43-.96,17.4,1.79,20.81-3.39,3.12-4.3-1.88-21.59-9.48-21.89-.57-1.1-.91-2.18-2.78-2.52-1.85-.56-4.02-3.05-4.43-4.61-1.07-3.59,3.17-3.87,2.79-7.35,2.14-1.13,4.2-2.63,6.27-4.57,1.02,1.13,2.4,1.76,3.89,1.76,3.62,0,5.71-3.46,4.02-6.99,11.76-7.47,26.02-26.81,21.16-42.51ZM579.56,178.81c.69,4.52,6.49,4.06,7.15,8.06,2.68,2.77.78,8.03,1.99,11.48.06,1.85,1.59,4.77,1.52,6.55-5.59-5.29-12.36-18.39-10.65-26.1ZM642.86,204.22q.93-5.02,3.14-18.24c2.82-3.83,5.22-1.35,6.76-6.41.15-.49.81-.44.89.07,1.81,11.7-9.06,22.89-10.79,24.59Z" fill="#a69ebf" stroke-width="0"/><path d="M659.39,170.6c-2-6.26-9.7-9.26-14.69-5.09-2.77-10.75-60.93-12.74-62.44.68-4.72-5.55-14.92-1.23-15.72,6.1-2.18,10.35,5.96,26.57,12.61,33.36,0,0,7.93,8.38,16.88,12.44,1.69,1.68,3.55,3.4,5.96,4.76-.29,1.66,1.25,3.51,2.12,3.98,3.56,4.29-1.43,10.8-6.14,10.56-6.4.34-8.34,9.6-9.76,16.36-2.87,13.92,21.24,7.16,28.92,8.92,7.43-.96,17.4,1.79,20.81-3.39,3.12-4.3-1.88-21.59-9.48-21.89-.57-1.1-.91-2.18-2.78-2.52-1.85-.56-4.02-3.05-4.43-4.61-1.07-3.59,3.17-3.87,2.79-7.35,2.14-1.13,4.2-2.63,6.27-4.57,1.02,1.13,2.4,1.76,3.89,1.76,3.62,0,5.71-3.46,4.02-6.99,11.76-7.47,26.02-26.81,21.16-42.51ZM576.4,175.4c.69,4.52,6.49,4.06,7.15,8.06,2.68,2.77.78,8.03,1.99,11.48.06,1.85,1.59,4.77,1.52,6.55-5.59-5.29-12.36-18.39-10.65-26.1ZM639.7,200.82q.93-5.02,3.14-18.24c2.82-3.83,5.22-1.35,6.76-6.41.15-.49.81-.44.89.07,1.81,11.7-9.06,22.89-10.79,24.59Z" fill="#b6790a" stroke-width="0"/><path d="M616.28,225.34c-3.17-.89,3.11-3.83,3.12-1.43-.22.9-1.26.54-1.85.79-.41.29-.88.69-1.27.64Z" fill="#e7b023" stroke-width="0"/><path d="M611.82,250.16c-7.75-2.43,14.62-1.61,16.16-2.08,4.42-.44.61-5.24,1.71-8.03.99,1.39,1.76,3.28,2.46,5.09.31.81.05,1.75-.59,2.22-1.08.8-1.79,2.08-3.27,1.72-5.19-.64-11.21.54-16.47,1.09Z" fill="#e7b023" stroke-width="0"/><path d="M625.31,237.97c-3.04-2.53-7.79-4.33-7.89-9.28-.01-.72-.42-1.36-1.05-1.62-4.08-1.64-2.58,9.44-5.6,12.08-.47.41-.39,1.22.15,1.51,1.95,1.03,7.16.34,10.35-.81.71-.26,1.13.83.47,1.2-6.23,3.49-23.86.11-12.06,2.85,12.5,6.67,8.63.76,16.09-.06-.36.72-.36,2.62.75,1.56,1.2-1.36.36-2.96.28-4.48-.06-1.17-.62-2.24-1.48-2.96Z" fill="#e7b023" stroke-width="0"/><path d="M579.33,200.66c-.08-.03-.15-.08-.21-.15-5.05-5.97-8.24-13.53-9.02-21.35l.27-.1c1.75,7.34,5.38,14.61,9.51,20.79.28.42-.1.97-.56.81h0Z" fill="#e7b023" stroke-width="0"/><path d="M581.8,174.14c-2.22-.3-2.02-4.03-3.61-5.72-.19-.21-.45-.33-.72-.37-11.81-1.95,6.26-6.74,4.33,6.09Z" fill="#e7b023" stroke-width="0"/><path d="M588.52,176.33c-8-6.88,14.02-6.96,3.94-3.41-.47,1.15-2.58.75-2.76,2.09.09.74-.43,1.37-1.18,1.32Z" fill="#e7b023" stroke-width="0"/><path d="M591.75,256.73c-.71,3.22,3.5,2.31,5.31,2.52,12.43-.31,24.75,2.01,36.87-1.24.39-.1.73-.36.95-.71,1.38-2.21-.37-6.49-3.18-6.39-6.14.85-12.28,1.75-18.54,1.04-5.26-.28-10.53-.56-15.79-.83-5.1-1.13-4.83,1.09-5.62,5.62Z" fill="#e7b023" stroke-width="0"/><path d="M646.6,169.33c-1.3,2.7-1.3,6.24-5.36,5.71-1.07-.14-1.61-1.47-.98-2.4,2.26-3.36,3.44-5.55,1.74-7.57-7.91-9.41-48.87-5.34-52.02-4.02-2.72.83-3.64,2.02-4.31,2.65-6.52,6.1,33.81,4.84,29.72,8.18,4.82,14.4-6.59,25.83-11.76,38-2.16,25.01,36.94,9.81,35.78-23.62-.07-1.92.39-3.83,1.33-5.47.68-1.19,1.77-2.5,3.76-3.1.95-.29,1.71-1.03,2.07-2.01.8-2.19,1.36-5,3.47-4.53.97.22,1.74,1.02,2.08,2.02,4.33,12.93-7.09,25.43-14.41,34.41,10.32-3.72,28.55-33.84,14.47-40.33-2.09-.97-4.52-.07-5.57,2.11Z" fill="#e7b023" stroke-width="0"/><path d="M588.47,165.28c.22.31.6.39.95.46,3.9.71,7.8,1.42,11.75,1.66,6.19.38,12.4-.41,18.58.1,5.53.46,11.16,1.94,16.54.51.9-.24,1.92-.72,2.09-1.69.12-.67-.23-1.36-.73-1.77s-1.13-.61-1.75-.76c-2.03-.5-4.12-.67-6.2-.81-5.86-.39-11.72-.57-17.59-.52-5.87.05-11.73.32-17.58.81-1.32.11-2.64.32-3.95.44-.57.05-1.24-.15-1.74.2-.35.24-.75.96-.37,1.37Z" fill="#b6790a" stroke-width="0"/><path d="M997.95,336.74l-181.64-2.11c-5.63-.07-10.16-4.42-10.16-9.77V16.96c0-5.35,4.53-9.7,10.16-9.77l181.64-2.11c5.73-.07,10.42,4.33,10.42,9.77v312.12c0,5.44-4.68,9.83-10.42,9.77Z" fill="#a69ebf" stroke-width="0"/><path d="M1000.47,10.85v311.13c0,5.43-4.66,9.81-10.35,9.74l-180.59-2.09c-5.61-.07-10.11-4.41-10.11-9.74V12.95c0-5.33,4.5-9.67,10.11-9.74l180.59-2.1c5.69-.06,10.35,4.32,10.35,9.74Z" fill="#d7c4c0" stroke-width="0"/><path d="M993.01,14.71v307.39c0,5.36-4.6,9.69-10.23,9.62l-178.28-2.06c-5.52-.07-9.98-4.36-9.98-9.62V16.78c0-5.27,4.46-9.55,9.98-9.62l178.28-2.08c5.63-.06,10.23,4.27,10.23,9.62Z" fill="#fbe7d4" stroke-width="0"/><path d="M1001.63,10.29v80.52l-202.21,1.16V12.51c0-5.64,4.53-10.22,10.17-10.29L991.22,0c5.72-.06,10.41,4.57,10.41,10.29Z" fill="#81beea" stroke-width="0"/><path d="M994.41,10.29v80.56l-202.23,1.15V12.51c0-5.64,4.54-10.22,10.17-10.29L983.99,0c5.74-.06,10.43,4.57,10.43,10.29Z" fill="#91c9f1" stroke-width="0"/><path d="M858.83,133.52v159.37c0,5.85-4.75,10.59-10.6,10.59h-1.92c-5.85,0-10.59-4.74-10.59-10.59v-159.37c0-5.86,4.74-10.6,10.59-10.6h1.92c5.85,0,10.6,4.74,10.6,10.6Z" fill="#a69ebf" stroke-width="0"/><path d="M852.98,130.58v159.37c0,5.85-4.75,10.59-10.6,10.59h-1.92c-5.85,0-10.59-4.74-10.59-10.59v-159.37c0-5.86,4.74-10.6,10.59-10.6h1.92c5.85,0,10.6,4.74,10.6,10.6Z" fill="#ccbcb7" stroke-width="0"/><path d="M840.45,301.77c-6.52,0-11.82-5.3-11.82-11.82v-145.6c0-5.33,4.34-9.67,9.67-9.67h6.23c5.33,0,9.67,4.34,9.67,9.67v145.6c0,6.52-5.31,11.82-11.83,11.82h-1.92Z" fill="#91c9f1" stroke-width="0"/><text transform="translate(869.6 73.12) rotate(-.04)" fill="#f2f2f2" font-family="FranklinGothic-Heavy, &apos;Franklin Gothic Heavy&apos;" font-size="85.56" font-weight="800"><tspan x="0" y="0">2</tspan></text><path d="M970.48,174.01c-2-6.26-9.7-9.26-14.69-5.09-2.77-10.75-60.93-12.74-62.44.68-4.72-5.55-14.92-1.23-15.72,6.1-2.18,10.35,5.96,26.57,12.61,33.36,0,0,7.93,8.38,16.88,12.44,1.69,1.68,3.55,3.4,5.96,4.76-.29,1.66,1.25,3.51,2.12,3.98,3.56,4.29-1.43,10.8-6.14,10.56-6.4.34-8.34,9.6-9.76,16.36-2.87,13.92,21.24,7.16,28.92,8.92,7.43-.96,17.4,1.79,20.81-3.39,3.12-4.3-1.88-21.59-9.48-21.89-.57-1.1-.91-2.18-2.78-2.52-1.85-.56-4.02-3.05-4.43-4.61-1.07-3.59,3.17-3.87,2.79-7.35,2.14-1.13,4.2-2.63,6.27-4.57,1.02,1.13,2.4,1.76,3.89,1.76,3.62,0,5.71-3.46,4.02-6.99,11.76-7.47,26.02-26.81,21.16-42.51ZM887.49,178.81c.69,4.52,6.49,4.06,7.15,8.06,2.68,2.77.78,8.03,1.99,11.48.06,1.85,1.59,4.77,1.52,6.55-5.59-5.29-12.36-18.39-10.65-26.1ZM950.79,204.22q.93-5.02,3.14-18.24c2.82-3.83,5.22-1.35,6.76-6.41.15-.49.81-.44.89.07,1.81,11.7-9.06,22.89-10.79,24.59Z" fill="#a69ebf" stroke-width="0"/><path d="M967.33,170.6c-2-6.26-9.7-9.26-14.69-5.09-2.77-10.75-60.93-12.74-62.44.68-4.72-5.55-14.92-1.23-15.72,6.1-2.18,10.35,5.96,26.57,12.61,33.36,0,0,7.93,8.38,16.88,12.44,1.69,1.68,3.55,3.4,5.96,4.76-.29,1.66,1.25,3.51,2.12,3.98,3.56,4.29-1.43,10.8-6.14,10.56-6.4.34-8.34,9.6-9.76,16.36-2.87,13.92,21.24,7.16,28.92,8.92,7.43-.96,17.4,1.79,20.81-3.39,3.12-4.3-1.88-21.59-9.48-21.89-.57-1.1-.91-2.18-2.78-2.52-1.85-.56-4.02-3.05-4.43-4.61-1.07-3.59,3.17-3.87,2.79-7.35,2.14-1.13,4.2-2.63,6.27-4.57,1.02,1.13,2.4,1.76,3.89,1.76,3.62,0,5.71-3.46,4.02-6.99,11.76-7.47,26.02-26.81,21.16-42.51ZM884.33,175.4c.69,4.52,6.49,4.06,7.15,8.06,2.68,2.77.78,8.03,1.99,11.48.06,1.85,1.59,4.77,1.52,6.55-5.59-5.29-12.36-18.39-10.65-26.1ZM947.63,200.82q.93-5.02,3.14-18.24c2.82-3.83,5.22-1.35,6.76-6.41.15-.49.81-.44.89.07,1.81,11.7-9.06,22.89-10.79,24.59Z" fill="#b6790a" stroke-width="0"/><path d="M924.21,225.34c-3.17-.89,3.11-3.83,3.12-1.43-.22.9-1.26.54-1.85.79-.41.29-.88.69-1.27.64Z" fill="#e7b023" stroke-width="0"/><path d="M919.75,250.16c-7.75-2.43,14.62-1.61,16.16-2.08,4.42-.44.61-5.24,1.71-8.03.99,1.39,1.76,3.28,2.46,5.09.31.81.05,1.75-.59,2.22-1.08.8-1.79,2.08-3.27,1.72-5.19-.64-11.21.54-16.47,1.09Z" fill="#e7b023" stroke-width="0"/><path d="M933.24,237.97c-3.04-2.53-7.79-4.33-7.89-9.28-.01-.72-.42-1.36-1.05-1.62-4.08-1.64-2.58,9.44-5.6,12.08-.47.41-.39,1.22.15,1.51,1.95,1.03,7.16.34,10.35-.81.71-.26,1.13.83.47,1.2-6.23,3.49-23.86.11-12.06,2.85,12.5,6.67,8.63.76,16.09-.06-.36.72-.36,2.62.75,1.56,1.2-1.36.36-2.96.28-4.48-.06-1.17-.62-2.24-1.48-2.96Z" fill="#e7b023" stroke-width="0"/><path d="M887.26,200.66c-.08-.03-.15-.08-.21-.15-5.05-5.97-8.24-13.53-9.02-21.35l.27-.1c1.75,7.34,5.38,14.61,9.51,20.79.28.42-.1.97-.56.81h0Z" fill="#e7b023" stroke-width="0"/><path d="M889.74,174.14c-2.22-.3-2.02-4.03-3.61-5.72-.19-.21-.45-.33-.72-.37-11.81-1.95,6.26-6.74,4.33,6.09Z" fill="#e7b023" stroke-width="0"/><path d="M896.45,176.33c-8-6.88,14.02-6.96,3.94-3.41-.47,1.15-2.58.75-2.76,2.09.09.74-.43,1.37-1.18,1.32Z" fill="#e7b023" stroke-width="0"/><path d="M899.68,256.73c-.71,3.22,3.5,2.31,5.31,2.52,12.43-.31,24.75,2.01,36.87-1.24.39-.1.73-.36.95-.71,1.38-2.21-.37-6.49-3.18-6.39-6.14.85-12.28,1.75-18.54,1.04-5.26-.28-10.53-.56-15.79-.83-5.1-1.13-4.83,1.09-5.62,5.62Z" fill="#e7b023" stroke-width="0"/><path d="M954.53,169.33c-1.3,2.7-1.3,6.24-5.36,5.71-1.07-.14-1.61-1.47-.98-2.4,2.26-3.36,3.44-5.55,1.74-7.57-7.91-9.41-48.87-5.34-52.02-4.02-2.72.83-3.64,2.02-4.31,2.65-6.52,6.1,33.81,4.84,29.72,8.18,4.82,14.4-6.59,25.83-11.76,38-2.16,25.01,36.94,9.81,35.78-23.62-.07-1.92.39-3.83,1.33-5.47.68-1.19,1.77-2.5,3.76-3.1.95-.29,1.71-1.03,2.07-2.01.8-2.19,1.36-5,3.47-4.53.97.22,1.74,1.02,2.08,2.02,4.33,12.93-7.09,25.43-14.41,34.41,10.32-3.72,28.55-33.84,14.47-40.33-2.09-.97-4.52-.07-5.57,2.11Z" fill="#e7b023" stroke-width="0"/><path d="M896.4,165.28c.22.31.6.39.95.46,3.9.71,7.8,1.42,11.75,1.66,6.19.38,12.4-.41,18.58.1,5.53.46,11.16,1.94,16.54.51.9-.24,1.92-.72,2.09-1.69.12-.67-.23-1.36-.73-1.77s-1.13-.61-1.75-.76c-2.03-.5-4.12-.67-6.2-.81-5.86-.39-11.72-.57-17.59-.52s-11.73.32-17.58.81c-1.32.11-2.64.32-3.95.44-.57.05-1.24-.15-1.74.2-.35.24-.75.96-.37,1.37Z" fill="#b6790a" stroke-width="0"/><path d="M1322.73,336.74l-181.64-2.11c-5.63-.07-10.16-4.42-10.16-9.77V16.96c0-5.35,4.53-9.7,10.16-9.77l181.64-2.11c5.73-.07,10.42,4.33,10.42,9.77v312.12c0,5.44-4.68,9.83-10.42,9.77Z" fill="#a69ebf" stroke-width="0"/><path d="M1325.25,10.85v311.13c0,5.43-4.66,9.81-10.35,9.74l-180.59-2.09c-5.61-.07-10.11-4.41-10.11-9.74V12.95c0-5.33,4.5-9.67,10.11-9.74l180.59-2.1c5.69-.06,10.35,4.32,10.35,9.74Z" fill="#d7c4c0" stroke-width="0"/><path d="M1317.79,14.71v307.39c0,5.36-4.6,9.69-10.23,9.62l-178.28-2.06c-5.52-.07-9.98-4.36-9.98-9.62V16.78c0-5.27,4.46-9.55,9.98-9.62l178.28-2.08c5.63-.06,10.23,4.27,10.23,9.62Z" fill="#fbe7d4" stroke-width="0"/><path d="M1326.41,10.29v80.52l-202.21,1.16V12.51c0-5.64,4.53-10.22,10.17-10.29L1315.99,0c5.72-.06,10.41,4.57,10.41,10.29Z" fill="#fe6e6e" stroke-width="0"/><path d="M1319.19,10.29v80.56l-202.23,1.15V12.51c0-5.64,4.54-10.22,10.17-10.29L1308.77,0c5.74-.06,10.43,4.57,10.43,10.29Z" fill="#fa8080" stroke-width="0"/><path d="M1183.61,133.52v159.37c0,5.85-4.75,10.59-10.6,10.59h-1.92c-5.85,0-10.59-4.74-10.59-10.59v-159.37c0-5.86,4.74-10.6,10.59-10.6h1.92c5.85,0,10.6,4.74,10.6,10.6Z" fill="#a69ebf" stroke-width="0"/><path d="M1177.76,130.58v159.37c0,5.85-4.75,10.59-10.6,10.59h-1.92c-5.85,0-10.59-4.74-10.59-10.59v-159.37c0-5.86,4.74-10.6,10.59-10.6h1.92c5.85,0,10.6,4.74,10.6,10.6Z" fill="#ccbcb7" stroke-width="0"/><path d="M1165.23,301.77c-6.52,0-11.82-5.3-11.82-11.82v-145.6c0-5.33,4.34-9.67,9.67-9.67h6.23c5.33,0,9.67,4.34,9.67,9.67v145.6c0,6.52-5.31,11.82-11.83,11.82h-1.92Z" fill="#fa8080" stroke-width="0"/><text transform="translate(1199.38 72.93) rotate(-.04)" fill="#f2f2f2" font-family="FranklinGothic-Heavy, &apos;Franklin Gothic Heavy&apos;" font-size="85.56" font-weight="800"><tspan x="0" y="0">3</tspan></text><path d="M1295.26,174.01c-2-6.26-9.7-9.26-14.69-5.09-2.77-10.75-60.93-12.74-62.44.68-4.72-5.55-14.92-1.23-15.72,6.1-2.18,10.35,5.96,26.57,12.61,33.36,0,0,7.93,8.38,16.88,12.44,1.69,1.68,3.55,3.4,5.96,4.76-.29,1.66,1.25,3.51,2.12,3.98,3.56,4.29-1.43,10.8-6.14,10.56-6.4.34-8.34,9.6-9.76,16.36-2.87,13.92,21.24,7.16,28.92,8.92,7.43-.96,17.4,1.79,20.81-3.39,3.12-4.3-1.88-21.59-9.48-21.89-.57-1.1-.91-2.18-2.78-2.52-1.85-.56-4.02-3.05-4.43-4.61-1.07-3.59,3.17-3.87,2.79-7.35,2.14-1.13,4.2-2.63,6.27-4.57,1.02,1.13,2.4,1.76,3.89,1.76,3.62,0,5.71-3.46,4.02-6.99,11.76-7.47,26.02-26.81,21.16-42.51ZM1212.27,178.81c.69,4.52,6.49,4.06,7.15,8.06,2.68,2.77.78,8.03,1.99,11.48.06,1.85,1.59,4.77,1.52,6.55-5.59-5.29-12.36-18.39-10.65-26.1ZM1275.57,204.22q.93-5.02,3.14-18.24c2.82-3.83,5.22-1.35,6.76-6.41.15-.49.81-.44.89.07,1.81,11.7-9.06,22.89-10.79,24.59Z" fill="#a69ebf" stroke-width="0"/><path d="M1292.11,170.6c-2-6.26-9.7-9.26-14.69-5.09-2.77-10.75-60.93-12.74-62.44.68-4.72-5.55-14.92-1.23-15.72,6.1-2.18,10.35,5.96,26.57,12.61,33.36,0,0,7.93,8.38,16.88,12.44,1.69,1.68,3.55,3.4,5.96,4.76-.29,1.66,1.25,3.51,2.12,3.98,3.56,4.29-1.43,10.8-6.14,10.56-6.4.34-8.34,9.6-9.76,16.36-2.87,13.92,21.24,7.16,28.92,8.92,7.43-.96,17.4,1.79,20.81-3.39,3.12-4.3-1.88-21.59-9.48-21.89-.57-1.1-.91-2.18-2.78-2.52-1.85-.56-4.02-3.05-4.43-4.61-1.07-3.59,3.17-3.87,2.79-7.35,2.14-1.13,4.2-2.63,6.27-4.57,1.02,1.13,2.4,1.76,3.89,1.76,3.62,0,5.71-3.46,4.02-6.99,11.76-7.47,26.02-26.81,21.16-42.51ZM1209.11,175.4c.69,4.52,6.49,4.06,7.15,8.06,2.68,2.77.78,8.03,1.99,11.48.06,1.85,1.59,4.77,1.52,6.55-5.59-5.29-12.36-18.39-10.65-26.1ZM1272.41,200.82q.93-5.02,3.14-18.24c2.82-3.83,5.22-1.35,6.76-6.41.15-.49.81-.44.89.07,1.81,11.7-9.06,22.89-10.79,24.59Z" fill="#b6790a" stroke-width="0"/><path d="M1248.99,225.34c-3.17-.89,3.11-3.83,3.12-1.43-.22.9-1.26.54-1.85.79-.41.29-.88.69-1.27.64Z" fill="#e7b023" stroke-width="0"/><path d="M1244.53,250.16c-7.75-2.43,14.62-1.61,16.16-2.08,4.42-.44.61-5.24,1.71-8.03.99,1.39,1.76,3.28,2.46,5.09.31.81.05,1.75-.59,2.22-1.08.8-1.79,2.08-3.27,1.72-5.19-.64-11.21.54-16.47,1.09Z" fill="#e7b023" stroke-width="0"/><path d="M1258.02,237.97c-3.04-2.53-7.79-4.33-7.89-9.28-.01-.72-.42-1.36-1.05-1.62-4.08-1.64-2.58,9.44-5.6,12.08-.47.41-.39,1.22.15,1.51,1.95,1.03,7.16.34,10.35-.81.71-.26,1.13.83.47,1.2-6.23,3.49-23.86.11-12.06,2.85,12.5,6.67,8.63.76,16.09-.06-.36.72-.36,2.62.75,1.56,1.2-1.36.36-2.96.28-4.48-.06-1.17-.62-2.24-1.48-2.96Z" fill="#e7b023" stroke-width="0"/><path d="M1212.04,200.66c-.08-.03-.15-.08-.21-.15-5.05-5.97-8.24-13.53-9.02-21.35l.27-.1c1.75,7.34,5.38,14.61,9.51,20.79.28.42-.1.97-.56.81h0Z" fill="#e7b023" stroke-width="0"/><path d="M1214.52,174.14c-2.22-.3-2.02-4.03-3.61-5.72-.19-.21-.45-.33-.72-.37-11.81-1.95,6.26-6.74,4.33,6.09Z" fill="#e7b023" stroke-width="0"/><path d="M1221.23,176.33c-8-6.88,14.02-6.96,3.94-3.41-.47,1.15-2.58.75-2.76,2.09.09.74-.43,1.37-1.18,1.32Z" fill="#e7b023" stroke-width="0"/><path d="M1224.46,256.73c-.71,3.22,3.5,2.31,5.31,2.52,12.43-.31,24.75,2.01,36.87-1.24.39-.1.73-.36.95-.71,1.38-2.21-.37-6.49-3.18-6.39-6.14.85-12.28,1.75-18.54,1.04-5.26-.28-10.53-.56-15.79-.83-5.1-1.13-4.83,1.09-5.62,5.62Z" fill="#e7b023" stroke-width="0"/><path d="M1279.31,169.33c-1.3,2.7-1.3,6.24-5.36,5.71-1.07-.14-1.61-1.47-.98-2.4,2.26-3.36,3.44-5.55,1.74-7.57-7.91-9.41-48.87-5.34-52.02-4.02-2.72.83-3.64,2.02-4.31,2.65-6.52,6.1,33.81,4.84,29.72,8.18,4.82,14.4-6.59,25.83-11.76,38-2.16,25.01,36.94,9.81,35.78-23.62-.07-1.92.39-3.83,1.33-5.47.68-1.19,1.77-2.5,3.76-3.1.95-.29,1.71-1.03,2.07-2.01.8-2.19,1.36-5,3.47-4.53.97.22,1.74,1.02,2.08,2.02,4.33,12.93-7.09,25.43-14.41,34.41,10.32-3.72,28.55-33.84,14.47-40.33-2.09-.97-4.52-.07-5.57,2.11Z" fill="#e7b023" stroke-width="0"/><path d="M1221.18,165.28c.22.31.6.39.95.46,3.9.71,7.8,1.42,11.75,1.66,6.19.38,12.4-.41,18.58.1,5.53.46,11.16,1.94,16.54.51.9-.24,1.92-.72,2.09-1.69.12-.67-.23-1.36-.73-1.77s-1.13-.61-1.75-.76c-2.03-.5-4.12-.67-6.2-.81-5.86-.39-11.72-.57-17.59-.52-5.87.05-11.73.32-17.58.81-1.32.11-2.64.32-3.95.44-.57.05-1.24-.15-1.74.2-.35.24-.75.96-.37,1.37Z" fill="#b6790a" stroke-width="0"/><path d="M1637.48,336.74l-181.64-2.11c-5.63-.07-10.16-4.42-10.16-9.77V16.96c0-5.35,4.53-9.7,10.16-9.77l181.64-2.11c5.73-.07,10.42,4.33,10.42,9.77v312.12c0,5.44-4.68,9.83-10.42,9.77Z" fill="#a69ebf" stroke-width="0"/><path d="M1639.99,10.85v311.13c0,5.43-4.66,9.81-10.35,9.74l-180.59-2.09c-5.61-.07-10.11-4.41-10.11-9.74V12.95c0-5.33,4.5-9.67,10.11-9.74l180.59-2.1c5.69-.06,10.35,4.32,10.35,9.74Z" fill="#d7c4c0" stroke-width="0"/><path d="M1632.53,14.71v307.39c0,5.36-4.6,9.69-10.23,9.62l-178.28-2.06c-5.52-.07-9.98-4.36-9.98-9.62V16.78c0-5.27,4.46-9.55,9.98-9.62l178.28-2.08c5.63-.06,10.23,4.27,10.23,9.62Z" fill="#fbe7d4" stroke-width="0"/><path d="M1641.15,10.29v80.52l-202.21,1.16V12.51c0-5.64,4.53-10.22,10.17-10.29L1630.74,0c5.72-.06,10.41,4.57,10.41,10.29Z" fill="#eabc50" stroke-width="0"/><path d="M1633.94,10.29v80.56l-202.23,1.15V12.51c0-5.64,4.54-10.22,10.17-10.29L1623.51,0c5.74-.06,10.43,4.57,10.43,10.29Z" fill="#f4c452" stroke-width="0"/><path d="M1498.36,133.52v159.37c0,5.85-4.75,10.59-10.6,10.59h-1.92c-5.85,0-10.59-4.74-10.59-10.59v-159.37c0-5.86,4.74-10.6,10.59-10.6h1.92c5.85,0,10.6,4.74,10.6,10.6Z" fill="#a69ebf" stroke-width="0"/><path d="M1492.5,130.58v159.37c0,5.85-4.75,10.59-10.6,10.59h-1.92c-5.85,0-10.59-4.74-10.59-10.59v-159.37c0-5.86,4.74-10.6,10.59-10.6h1.92c5.85,0,10.6,4.74,10.6,10.6Z" fill="#ccbcb7" stroke-width="0"/><path d="M1479.98,301.77c-6.52,0-11.82-5.3-11.82-11.82v-95.57c0-5.33,4.34-9.67,9.67-9.67h6.23c5.33,0,9.67,4.34,9.67,9.67v95.57c0,6.52-5.31,11.82-11.83,11.82h-1.92Z" fill="#f4c452" stroke-width="0"/><text transform="translate(1507.13 73.39) rotate(-.04)" fill="#f2f2f2" font-family="FranklinGothic-Heavy, &apos;Franklin Gothic Heavy&apos;" font-size="85.56" font-weight="800"><tspan x="0" y="0">4</tspan></text><path d="M1610.01,174.01c-2-6.26-9.7-9.26-14.69-5.09-2.77-10.75-60.93-12.74-62.44.68-4.72-5.55-14.92-1.23-15.72,6.1-2.18,10.35,5.96,26.57,12.61,33.36,0,0,7.93,8.38,16.88,12.44,1.69,1.68,3.55,3.4,5.96,4.76-.29,1.66,1.25,3.51,2.12,3.98,3.56,4.29-1.43,10.8-6.14,10.56-6.4.34-8.34,9.6-9.76,16.36-2.87,13.92,21.24,7.16,28.92,8.92,7.43-.96,17.4,1.79,20.81-3.39,3.12-4.3-1.88-21.59-9.48-21.89-.57-1.1-.91-2.18-2.78-2.52-1.85-.56-4.02-3.05-4.43-4.61-1.07-3.59,3.17-3.87,2.79-7.35,2.14-1.13,4.2-2.63,6.27-4.57,1.02,1.13,2.4,1.76,3.89,1.76,3.62,0,5.71-3.46,4.02-6.99,11.76-7.47,26.02-26.81,21.16-42.51ZM1527.02,178.81c.69,4.52,6.49,4.06,7.15,8.06,2.68,2.77.78,8.03,1.99,11.48.06,1.85,1.59,4.77,1.52,6.55-5.59-5.29-12.36-18.39-10.65-26.1ZM1590.32,204.22q.93-5.02,3.14-18.24c2.82-3.83,5.22-1.35,6.76-6.41.15-.49.81-.44.89.07,1.81,11.7-9.06,22.89-10.79,24.59Z" fill="#a69ebf" stroke-width="0"/><path d="M1606.85,170.6c-2-6.26-9.7-9.26-14.69-5.09-2.77-10.75-60.93-12.74-62.44.68-4.72-5.55-14.92-1.23-15.72,6.1-2.18,10.35,5.96,26.57,12.61,33.36,0,0,7.93,8.38,16.88,12.44,1.69,1.68,3.55,3.4,5.96,4.76-.29,1.66,1.25,3.51,2.12,3.98,3.56,4.29-1.43,10.8-6.14,10.56-6.4.34-8.34,9.6-9.76,16.36-2.87,13.92,21.24,7.16,28.92,8.92,7.43-.96,17.4,1.79,20.81-3.39,3.12-4.3-1.88-21.59-9.48-21.89-.57-1.1-.91-2.18-2.78-2.52-1.85-.56-4.02-3.05-4.43-4.61-1.07-3.59,3.17-3.87,2.79-7.35,2.14-1.13,4.2-2.63,6.27-4.57,1.02,1.13,2.4,1.76,3.89,1.76,3.62,0,5.71-3.46,4.02-6.99,11.76-7.47,26.02-26.81,21.16-42.51ZM1523.86,175.4c.69,4.52,6.49,4.06,7.15,8.06,2.68,2.77.78,8.03,1.99,11.48.06,1.85,1.59,4.77,1.52,6.55-5.59-5.29-12.36-18.39-10.65-26.1ZM1587.16,200.82q.93-5.02,3.14-18.24c2.82-3.83,5.22-1.35,6.76-6.41.15-.49.81-.44.89.07,1.81,11.7-9.06,22.89-10.79,24.59Z" fill="#b6790a" stroke-width="0"/><path d="M1563.74,225.34c-3.17-.89,3.11-3.83,3.12-1.43-.22.9-1.26.54-1.85.79-.41.29-.88.69-1.27.64Z" fill="#e7b023" stroke-width="0"/><path d="M1559.28,250.16c-7.75-2.43,14.62-1.61,16.16-2.08,4.42-.44.61-5.24,1.71-8.03.99,1.39,1.76,3.28,2.46,5.09.31.81.05,1.75-.59,2.22-1.08.8-1.79,2.08-3.27,1.72-5.19-.64-11.21.54-16.47,1.09Z" fill="#e7b023" stroke-width="0"/><path d="M1572.77,237.97c-3.04-2.53-7.79-4.33-7.89-9.28-.01-.72-.42-1.36-1.05-1.62-4.08-1.64-2.58,9.44-5.6,12.08-.47.41-.39,1.22.15,1.51,1.95,1.03,7.16.34,10.35-.81.71-.26,1.13.83.47,1.2-6.23,3.49-23.86.11-12.06,2.85,12.5,6.67,8.63.76,16.09-.06-.36.72-.36,2.62.75,1.56,1.2-1.36.36-2.96.28-4.48-.06-1.17-.62-2.24-1.48-2.96Z" fill="#e7b023" stroke-width="0"/><path d="M1526.79,200.66c-.08-.03-.15-.08-.21-.15-5.05-5.97-8.24-13.53-9.02-21.35l.27-.1c1.75,7.34,5.38,14.61,9.51,20.79.28.42-.1.97-.56.81h0Z" fill="#e7b023" stroke-width="0"/><path d="M1529.26,174.14c-2.22-.3-2.02-4.03-3.61-5.72-.19-.21-.45-.33-.72-.37-11.81-1.95,6.26-6.74,4.33,6.09Z" fill="#e7b023" stroke-width="0"/><path d="M1535.98,176.33c-8-6.88,14.02-6.96,3.94-3.41-.47,1.15-2.58.75-2.76,2.09.09.74-.43,1.37-1.18,1.32Z" fill="#e7b023" stroke-width="0"/><path d="M1539.21,256.73c-.71,3.22,3.5,2.31,5.31,2.52,12.43-.31,24.75,2.01,36.87-1.24.39-.1.73-.36.95-.71,1.38-2.21-.37-6.49-3.18-6.39-6.14.85-12.28,1.75-18.54,1.04-5.26-.28-10.53-.56-15.79-.83-5.1-1.13-4.83,1.09-5.62,5.62Z" fill="#e7b023" stroke-width="0"/><path d="M1594.06,169.33c-1.3,2.7-1.3,6.24-5.36,5.71-1.07-.14-1.61-1.47-.98-2.4,2.26-3.36,3.44-5.55,1.74-7.57-7.91-9.41-48.87-5.34-52.02-4.02-2.72.83-3.64,2.02-4.31,2.65-6.52,6.1,33.81,4.84,29.72,8.18,4.82,14.4-6.59,25.83-11.76,38-2.16,25.01,36.94,9.81,35.78-23.62-.07-1.92.39-3.83,1.33-5.47.68-1.19,1.77-2.5,3.76-3.1.95-.29,1.71-1.03,2.07-2.01.8-2.19,1.36-5,3.47-4.53.97.22,1.74,1.02,2.08,2.02,4.33,12.93-7.09,25.43-14.41,34.41,10.32-3.72,28.55-33.84,14.47-40.33-2.09-.97-4.52-.07-5.57,2.11Z" fill="#e7b023" stroke-width="0"/><path d="M1535.93,165.28c.22.31.6.39.95.46,3.9.71,7.8,1.42,11.75,1.66,6.19.38,12.4-.41,18.58.1,5.53.46,11.16,1.94,16.54.51.9-.24,1.92-.72,2.09-1.69.12-.67-.23-1.36-.73-1.77s-1.13-.61-1.75-.76c-2.03-.5-4.12-.67-6.2-.81-5.86-.39-11.72-.57-17.59-.52-5.87.05-11.73.32-17.58.81-1.32.11-2.64.32-3.95.44-.57.05-1.24-.15-1.74.2-.35.24-.75.96-.37,1.37Z" fill="#b6790a" stroke-width="0"/><path d="M828.93,779.95l-181.64-2.11c-5.63-.07-10.16-4.42-10.16-9.77v-307.91c0-5.35,4.53-9.7,10.16-9.77l181.64-2.11c5.73-.07,10.42,4.33,10.42,9.77v312.12c0,5.44-4.68,9.83-10.42,9.77Z" fill="#a69ebf" stroke-width="0"/><path d="M831.45,454.06v311.13c0,5.43-4.66,9.81-10.35,9.74l-180.59-2.09c-5.61-.07-10.11-4.41-10.11-9.74v-306.94c0-5.33,4.5-9.67,10.11-9.74l180.59-2.1c5.69-.06,10.35,4.32,10.35,9.74Z" fill="#d7c4c0" stroke-width="0"/><path d="M823.98,457.92v307.39c0,5.36-4.6,9.69-10.23,9.62l-178.28-2.06c-5.52-.07-9.98-4.36-9.98-9.62v-303.25c0-5.27,4.46-9.55,9.98-9.62l178.28-2.08c5.63-.06,10.23,4.27,10.23,9.62Z" fill="#fbe7d4" stroke-width="0"/><path d="M832.61,453.5v80.52l-202.21,1.16v-79.45c0-5.64,4.53-10.22,10.17-10.29l181.63-2.22c5.72-.06,10.41,4.57,10.41,10.29Z" fill="#81beea" stroke-width="0"/><path d="M825.39,453.5v80.56l-202.23,1.15v-79.49c0-5.64,4.54-10.22,10.17-10.29l181.64-2.22c5.74-.06,10.43,4.57,10.43,10.29Z" fill="#91c9f1" stroke-width="0"/><path d="M689.81,576.73v159.37c0,5.85-4.75,10.59-10.6,10.59h-1.92c-5.85,0-10.59-4.74-10.59-10.59v-159.37c0-5.86,4.74-10.6,10.59-10.6h1.92c5.85,0,10.6,4.74,10.6,10.6Z" fill="#a69ebf" stroke-width="0"/><path d="M683.95,573.79v159.37c0,5.85-4.75,10.59-10.6,10.59h-1.92c-5.85,0-10.59-4.74-10.59-10.59v-159.37c0-5.86,4.74-10.6,10.59-10.6h1.92c5.85,0,10.6,4.74,10.6,10.6Z" fill="#ccbcb7" stroke-width="0"/><path d="M671.43,744.98c-6.52,0-11.82-5.3-11.82-11.82v-145.6c0-5.33,4.34-9.67,9.67-9.67h6.23c5.33,0,9.67,4.34,9.67,9.67v145.6c0,6.52-5.31,11.82-11.83,11.82h-1.92Z" fill="#91c9f1" stroke-width="0"/><text transform="translate(700.58 516.42)" fill="#f2f2f2" font-family="FranklinGothic-Heavy, &apos;Franklin Gothic Heavy&apos;" font-size="80.8" font-weight="800"><tspan x="0" y="0">5</tspan></text><path d="M801.46,617.22c-2-6.26-9.7-9.26-14.69-5.09-2.77-10.75-60.93-12.74-62.44.68-4.72-5.55-14.92-1.23-15.72,6.1-2.18,10.35,5.96,26.57,12.61,33.36,0,0,7.93,8.38,16.88,12.44,1.69,1.68,3.55,3.4,5.96,4.76-.29,1.66,1.25,3.51,2.12,3.98,3.56,4.29-1.43,10.8-6.14,10.56-6.4.34-8.34,9.6-9.76,16.36-2.87,13.92,21.24,7.16,28.92,8.92,7.43-.96,17.4,1.79,20.81-3.39,3.12-4.3-1.88-21.59-9.48-21.89-.57-1.1-.91-2.18-2.78-2.52-1.85-.56-4.02-3.05-4.43-4.61-1.07-3.59,3.17-3.87,2.79-7.35,2.14-1.13,4.2-2.63,6.27-4.57,1.02,1.13,2.4,1.76,3.89,1.76,3.62,0,5.71-3.46,4.02-6.99,11.76-7.47,26.02-26.81,21.16-42.51ZM718.47,622.02c.69,4.52,6.49,4.06,7.15,8.06,2.68,2.77.78,8.03,1.99,11.48.06,1.85,1.59,4.77,1.52,6.55-5.59-5.29-12.36-18.39-10.65-26.1ZM781.77,647.43q.93-5.02,3.14-18.24c2.82-3.83,5.22-1.35,6.76-6.41.15-.49.81-.44.89.07,1.81,11.7-9.06,22.89-10.79,24.59Z" fill="#a69ebf" stroke-width="0"/><path d="M798.3,613.81c-2-6.26-9.7-9.26-14.69-5.09-2.77-10.75-60.93-12.74-62.44.68-4.72-5.55-14.92-1.23-15.72,6.1-2.18,10.35,5.96,26.57,12.61,33.36,0,0,7.93,8.38,16.88,12.44,1.69,1.68,3.55,3.4,5.96,4.76-.29,1.66,1.25,3.51,2.12,3.98,3.56,4.29-1.43,10.8-6.14,10.56-6.4.34-8.34,9.6-9.76,16.36-2.87,13.92,21.24,7.16,28.92,8.92,7.43-.96,17.4,1.79,20.81-3.39,3.12-4.3-1.88-21.59-9.48-21.89-.57-1.1-.91-2.18-2.78-2.52-1.85-.56-4.02-3.05-4.43-4.61-1.07-3.59,3.17-3.87,2.79-7.35,2.14-1.13,4.2-2.63,6.27-4.57,1.02,1.13,2.4,1.76,3.89,1.76,3.62,0,5.71-3.46,4.02-6.99,11.76-7.47,26.02-26.81,21.16-42.51ZM715.31,618.61c.69,4.52,6.49,4.06,7.15,8.06,2.68,2.77.78,8.03,1.99,11.48.06,1.85,1.59,4.77,1.52,6.55-5.59-5.29-12.36-18.39-10.65-26.1ZM778.61,644.03q.93-5.02,3.14-18.24c2.82-3.83,5.22-1.35,6.76-6.41.15-.49.81-.44.89.07,1.81,11.7-9.06,22.89-10.79,24.59Z" fill="#b6790a" stroke-width="0"/><path d="M755.19,668.55c-3.17-.89,3.11-3.83,3.12-1.43-.22.9-1.26.54-1.85.79-.41.29-.88.69-1.27.64Z" fill="#e7b023" stroke-width="0"/><path d="M750.73,693.37c-7.75-2.43,14.62-1.61,16.16-2.08,4.42-.44.61-5.24,1.71-8.03.99,1.39,1.76,3.28,2.46,5.09.31.81.05,1.75-.59,2.22-1.08.8-1.79,2.08-3.27,1.72-5.19-.64-11.21.54-16.47,1.09Z" fill="#e7b023" stroke-width="0"/><path d="M764.22,681.18c-3.04-2.53-7.79-4.33-7.89-9.28-.01-.72-.42-1.36-1.05-1.62-4.08-1.64-2.58,9.44-5.6,12.08-.47.41-.39,1.22.15,1.51,1.95,1.03,7.16.34,10.35-.81.71-.26,1.13.83.47,1.2-6.23,3.49-23.86.11-12.06,2.85,12.5,6.67,8.63.76,16.09-.06-.36.72-.36,2.62.75,1.56,1.2-1.36.36-2.96.28-4.48-.06-1.17-.62-2.24-1.48-2.96Z" fill="#e7b023" stroke-width="0"/><path d="M718.24,643.87c-.08-.03-.15-.08-.21-.15-5.05-5.97-8.24-13.53-9.02-21.35l.27-.1c1.75,7.34,5.38,14.61,9.51,20.79.28.42-.1.97-.56.81h0Z" fill="#e7b023" stroke-width="0"/><path d="M720.72,617.34c-2.22-.3-2.02-4.03-3.61-5.72-.19-.21-.45-.33-.72-.37-11.81-1.95,6.26-6.74,4.33,6.09Z" fill="#e7b023" stroke-width="0"/><path d="M727.43,619.54c-8-6.88,14.02-6.96,3.94-3.41-.47,1.15-2.58.75-2.76,2.09.09.74-.43,1.37-1.18,1.32Z" fill="#e7b023" stroke-width="0"/><path d="M730.66,699.94c-.71,3.22,3.5,2.31,5.31,2.52,12.43-.31,24.75,2.01,36.87-1.24.39-.1.73-.36.95-.71,1.38-2.21-.37-6.49-3.18-6.39-6.14.85-12.28,1.75-18.54,1.04-5.26-.28-10.53-.56-15.79-.83-5.1-1.13-4.83,1.09-5.62,5.62Z" fill="#e7b023" stroke-width="0"/><path d="M785.51,612.54c-1.3,2.7-1.3,6.24-5.36,5.71-1.07-.14-1.61-1.47-.98-2.4,2.26-3.36,3.44-5.55,1.74-7.57-7.91-9.41-48.87-5.34-52.02-4.02-2.72.83-3.64,2.02-4.31,2.65-6.52,6.1,33.81,4.84,29.72,8.18,4.82,14.4-6.59,25.83-11.76,38-2.16,25.01,36.94,9.81,35.78-23.62-.07-1.92.39-3.83,1.33-5.47.68-1.19,1.77-2.5,3.76-3.1.95-.29,1.71-1.03,2.07-2.01.8-2.19,1.36-5,3.47-4.53.97.22,1.74,1.02,2.08,2.02,4.33,12.93-7.09,25.43-14.41,34.41,10.32-3.72,28.55-33.84,14.47-40.33-2.09-.97-4.52-.07-5.57,2.11Z" fill="#e7b023" stroke-width="0"/><path d="M727.38,608.49c.22.31.6.39.95.46,3.9.71,7.8,1.42,11.75,1.66,6.19.38,12.4-.41,18.58.1,5.53.46,11.16,1.94,16.54.51.9-.24,1.92-.72,2.09-1.69.12-.67-.23-1.36-.73-1.77s-1.13-.61-1.75-.76c-2.03-.5-4.12-.67-6.2-.81-5.86-.39-11.72-.57-17.59-.52-5.87.05-11.73.32-17.58.81-1.32.11-2.64.32-3.95.44-.57.05-1.24-.15-1.74.2-.35.24-.75.96-.37,1.37Z" fill="#b6790a" stroke-width="0"/><path d="M1149.94,779.95l-181.64-2.11c-5.63-.07-10.16-4.42-10.16-9.77v-307.91c0-5.35,4.53-9.7,10.16-9.77l181.64-2.11c5.73-.07,10.42,4.33,10.42,9.77v312.12c0,5.44-4.68,9.83-10.42,9.77Z" fill="#a69ebf" stroke-width="0"/><path d="M1152.46,454.06v311.13c0,5.43-4.66,9.81-10.35,9.74l-180.59-2.09c-5.61-.07-10.11-4.41-10.11-9.74v-306.94c0-5.33,4.5-9.67,10.11-9.74l180.59-2.1c5.69-.06,10.35,4.32,10.35,9.74Z" fill="#d7c4c0" stroke-width="0"/><path d="M1144.99,457.92v307.39c0,5.36-4.6,9.69-10.23,9.62l-178.28-2.06c-5.52-.07-9.98-4.36-9.98-9.62v-303.25c0-5.27,4.46-9.55,9.98-9.62l178.28-2.08c5.63-.06,10.23,4.27,10.23,9.62Z" fill="#fbe7d4" stroke-width="0"/><path d="M1153.61,453.5v80.52l-202.21,1.16v-79.45c0-5.64,4.53-10.22,10.17-10.29l181.63-2.22c5.72-.06,10.41,4.57,10.41,10.29Z" fill="#fe6e6e" stroke-width="0"/><path d="M1146.4,453.5v80.56l-202.23,1.15v-79.49c0-5.64,4.54-10.22,10.17-10.29l181.64-2.22c5.74-.06,10.43,4.57,10.43,10.29Z" fill="#fa8080" stroke-width="0"/><path d="M1010.82,576.73v159.37c0,5.85-4.75,10.59-10.6,10.59h-1.92c-5.85,0-10.59-4.74-10.59-10.59v-159.37c0-5.86,4.74-10.6,10.59-10.6h1.92c5.85,0,10.6,4.74,10.6,10.6Z" fill="#a69ebf" stroke-width="0"/><path d="M1004.96,573.79v159.37c0,5.85-4.75,10.59-10.6,10.59h-1.92c-5.85,0-10.59-4.74-10.59-10.59v-159.37c0-5.86,4.74-10.6,10.59-10.6h1.92c5.85,0,10.6,4.74,10.6,10.6Z" fill="#ccbcb7" stroke-width="0"/><path d="M992.44,744.98c-6.52,0-11.82-5.3-11.82-11.82v-75.56c0-5.33,4.34-9.67,9.67-9.67h6.23c5.33,0,9.67,4.34,9.67,9.67v75.56c0,6.52-5.31,11.82-11.83,11.82h-1.92Z" fill="#fa8080" stroke-width="0"/><text transform="translate(1021.59 516.43)" fill="#f2f2f2" font-family="FranklinGothic-Heavy, &apos;Franklin Gothic Heavy&apos;" font-size="80.8" font-weight="800"><tspan x="0" y="0">6</tspan></text><path d="M1122.47,617.22c-2-6.26-9.7-9.26-14.69-5.09-2.77-10.75-60.93-12.74-62.44.68-4.72-5.55-14.92-1.23-15.72,6.1-2.18,10.35,5.96,26.57,12.61,33.36,0,0,7.93,8.38,16.88,12.44,1.69,1.68,3.55,3.4,5.96,4.76-.29,1.66,1.25,3.51,2.12,3.98,3.56,4.29-1.43,10.8-6.14,10.56-6.4.34-8.34,9.6-9.76,16.36-2.87,13.92,21.24,7.16,28.92,8.92,7.43-.96,17.4,1.79,20.81-3.39,3.12-4.3-1.88-21.59-9.48-21.89-.57-1.1-.91-2.18-2.78-2.52-1.85-.56-4.02-3.05-4.43-4.61-1.07-3.59,3.17-3.87,2.79-7.35,2.14-1.13,4.2-2.63,6.27-4.57,1.02,1.13,2.4,1.76,3.89,1.76,3.62,0,5.71-3.46,4.02-6.99,11.76-7.47,26.02-26.81,21.16-42.51ZM1039.48,622.02c.69,4.52,6.49,4.06,7.15,8.06,2.68,2.77.78,8.03,1.99,11.48.06,1.85,1.59,4.77,1.52,6.55-5.59-5.29-12.36-18.39-10.65-26.1ZM1102.78,647.43q.93-5.02,3.14-18.24c2.82-3.83,5.22-1.35,6.76-6.41.15-.49.81-.44.89.07,1.81,11.7-9.06,22.89-10.79,24.59Z" fill="#a69ebf" stroke-width="0"/><path d="M1119.31,613.81c-2-6.26-9.7-9.26-14.69-5.09-2.77-10.75-60.93-12.74-62.44.68-4.72-5.55-14.92-1.23-15.72,6.1-2.18,10.35,5.96,26.57,12.61,33.36,0,0,7.93,8.38,16.88,12.44,1.69,1.68,3.55,3.4,5.96,4.76-.29,1.66,1.25,3.51,2.12,3.98,3.56,4.29-1.43,10.8-6.14,10.56-6.4.34-8.34,9.6-9.76,16.36-2.87,13.92,21.24,7.16,28.92,8.92,7.43-.96,17.4,1.79,20.81-3.39,3.12-4.3-1.88-21.59-9.48-21.89-.57-1.1-.91-2.18-2.78-2.52-1.85-.56-4.02-3.05-4.43-4.61-1.07-3.59,3.17-3.87,2.79-7.35,2.14-1.13,4.2-2.63,6.27-4.57,1.02,1.13,2.4,1.76,3.89,1.76,3.62,0,5.71-3.46,4.02-6.99,11.76-7.47,26.02-26.81,21.16-42.51ZM1036.32,618.61c.69,4.52,6.49,4.06,7.15,8.06,2.68,2.77.78,8.03,1.99,11.48.06,1.85,1.59,4.77,1.52,6.55-5.59-5.29-12.36-18.39-10.65-26.1ZM1099.62,644.03q.93-5.02,3.14-18.24c2.82-3.83,5.22-1.35,6.76-6.41.15-.49.81-.44.89.07,1.81,11.7-9.06,22.89-10.79,24.59Z" fill="#b6790a" stroke-width="0"/><path d="M1076.2,668.55c-3.17-.89,3.11-3.83,3.12-1.43-.22.9-1.26.54-1.85.79-.41.29-.88.69-1.27.64Z" fill="#e7b023" stroke-width="0"/><path d="M1071.74,693.37c-7.75-2.43,14.62-1.61,16.16-2.08,4.42-.44.61-5.24,1.71-8.03.99,1.39,1.76,3.28,2.46,5.09.31.81.05,1.75-.59,2.22-1.08.8-1.79,2.08-3.27,1.72-5.19-.64-11.21.54-16.47,1.09Z" fill="#e7b023" stroke-width="0"/><path d="M1085.23,681.18c-3.04-2.53-7.79-4.33-7.89-9.28-.01-.72-.42-1.36-1.05-1.62-4.08-1.64-2.58,9.44-5.6,12.08-.47.41-.39,1.22.15,1.51,1.95,1.03,7.16.34,10.35-.81.71-.26,1.13.83.47,1.2-6.23,3.49-23.86.11-12.06,2.85,12.5,6.67,8.63.76,16.09-.06-.36.72-.36,2.62.75,1.56,1.2-1.36.36-2.96.28-4.48-.06-1.17-.62-2.24-1.48-2.96Z" fill="#e7b023" stroke-width="0"/><path d="M1039.25,643.87c-.08-.03-.15-.08-.21-.15-5.05-5.97-8.24-13.53-9.02-21.35l.27-.1c1.75,7.34,5.38,14.61,9.51,20.79.28.42-.1.97-.56.81h0Z" fill="#e7b023" stroke-width="0"/><path d="M1041.72,617.34c-2.22-.3-2.02-4.03-3.61-5.72-.19-.21-.45-.33-.72-.37-11.81-1.95,6.26-6.74,4.33,6.09Z" fill="#e7b023" stroke-width="0"/><path d="M1048.44,619.54c-8-6.88,14.02-6.96,3.94-3.41-.47,1.15-2.58.75-2.76,2.09.09.74-.43,1.37-1.18,1.32Z" fill="#e7b023" stroke-width="0"/><path d="M1051.67,699.94c-.71,3.22,3.5,2.31,5.31,2.52,12.43-.31,24.75,2.01,36.87-1.24.39-.1.73-.36.95-.71,1.38-2.21-.37-6.49-3.18-6.39-6.14.85-12.28,1.75-18.54,1.04-5.26-.28-10.53-.56-15.79-.83-5.1-1.13-4.83,1.09-5.62,5.62Z" fill="#e7b023" stroke-width="0"/><path d="M1106.52,612.54c-1.3,2.7-1.3,6.24-5.36,5.71-1.07-.14-1.61-1.47-.98-2.4,2.26-3.36,3.44-5.55,1.74-7.57-7.91-9.41-48.87-5.34-52.02-4.02-2.72.83-3.64,2.02-4.31,2.65-6.52,6.1,33.81,4.84,29.72,8.18,4.82,14.4-6.59,25.83-11.76,38-2.16,25.01,36.94,9.81,35.78-23.62-.07-1.92.39-3.83,1.33-5.47.68-1.19,1.77-2.5,3.76-3.1.95-.29,1.71-1.03,2.07-2.01.8-2.19,1.36-5,3.47-4.53.97.22,1.74,1.02,2.08,2.02,4.33,12.93-7.09,25.43-14.41,34.41,10.32-3.72,28.55-33.84,14.47-40.33-2.09-.97-4.52-.07-5.57,2.11Z" fill="#e7b023" stroke-width="0"/><path d="M1048.39,608.49c.22.31.6.39.95.46,3.9.71,7.8,1.42,11.75,1.66,6.19.38,12.4-.41,18.58.1,5.53.46,11.16,1.94,16.54.51.9-.24,1.92-.72,2.09-1.69.12-.67-.23-1.36-.73-1.77s-1.13-.61-1.75-.76c-2.03-.5-4.12-.67-6.2-.81-5.86-.39-11.72-.57-17.59-.52-5.87.05-11.73.32-17.58.81-1.32.11-2.64.32-3.95.44-.57.05-1.24-.15-1.74.2-.35.24-.75.96-.37,1.37Z" fill="#b6790a" stroke-width="0"/><path d="M1463.72,779.95l-181.64-2.11c-5.63-.07-10.16-4.42-10.16-9.77v-307.91c0-5.35,4.53-9.7,10.16-9.77l181.64-2.11c5.73-.07,10.42,4.33,10.42,9.77v312.12c0,5.44-4.68,9.83-10.42,9.77Z" fill="#a69ebf" stroke-width="0"/><path d="M1466.24,454.06v311.13c0,5.43-4.66,9.81-10.35,9.74l-180.59-2.09c-5.61-.07-10.11-4.41-10.11-9.74v-306.94c0-5.33,4.5-9.67,10.11-9.74l180.59-2.1c5.69-.06,10.35,4.32,10.35,9.74Z" fill="#d7c4c0" stroke-width="0"/><path d="M1458.77,457.92v307.39c0,5.36-4.6,9.69-10.23,9.62l-178.28-2.06c-5.52-.07-9.98-4.36-9.98-9.62v-303.25c0-5.27,4.46-9.55,9.98-9.62l178.28-2.08c5.63-.06,10.23,4.27,10.23,9.62Z" fill="#fbe7d4" stroke-width="0"/><path d="M1467.39,453.5v80.52l-202.21,1.16v-79.45c0-5.64,4.53-10.22,10.17-10.29l181.63-2.22c5.72-.06,10.41,4.57,10.41,10.29Z" fill="#eabc50" stroke-width="0"/><path d="M1460.18,453.5v80.56l-202.23,1.15v-79.49c0-5.64,4.54-10.22,10.17-10.29l181.64-2.22c5.74-.06,10.43,4.57,10.43,10.29Z" fill="#f4c452" stroke-width="0"/><path d="M1324.6,576.73v159.37c0,5.85-4.75,10.59-10.6,10.59h-1.92c-5.85,0-10.59-4.74-10.59-10.59v-159.37c0-5.86,4.74-10.6,10.59-10.6h1.92c5.85,0,10.6,4.74,10.6,10.6Z" fill="#a69ebf" stroke-width="0"/><path d="M1318.74,573.79v159.37c0,5.85-4.75,10.59-10.6,10.59h-1.92c-5.85,0-10.59-4.74-10.59-10.59v-159.37c0-5.86,4.74-10.6,10.59-10.6h1.92c5.85,0,10.6,4.74,10.6,10.6Z" fill="#ccbcb7" stroke-width="0"/><path d="M1306.22,744.98c-6.52,0-11.82-5.3-11.82-11.82v-95.57c0-5.33,4.34-9.67,9.67-9.67h6.23c5.33,0,9.67,4.34,9.67,9.67v95.57c0,6.52-5.31,11.82-11.83,11.82h-1.92Z" fill="#f4c452" stroke-width="0"/><text transform="translate(1337.38 515.63)" fill="#f2f2f2" font-family="FranklinGothic-Heavy, &apos;Franklin Gothic Heavy&apos;" font-size="80.8" font-weight="800"><tspan x="0" y="0">7</tspan></text><path d="M1436.25,617.22c-2-6.26-9.7-9.26-14.69-5.09-2.77-10.75-60.93-12.74-62.44.68-4.72-5.55-14.92-1.23-15.72,6.1-2.18,10.35,5.96,26.57,12.61,33.36,0,0,7.93,8.38,16.88,12.44,1.69,1.68,3.55,3.4,5.96,4.76-.29,1.66,1.25,3.51,2.12,3.98,3.56,4.29-1.43,10.8-6.14,10.56-6.4.34-8.34,9.6-9.76,16.36-2.87,13.92,21.24,7.16,28.92,8.92,7.43-.96,17.4,1.79,20.81-3.39,3.12-4.3-1.88-21.59-9.48-21.89-.57-1.1-.91-2.18-2.78-2.52-1.85-.56-4.02-3.05-4.43-4.61-1.07-3.59,3.17-3.87,2.79-7.35,2.14-1.13,4.2-2.63,6.27-4.57,1.02,1.13,2.4,1.76,3.89,1.76,3.62,0,5.71-3.46,4.02-6.99,11.76-7.47,26.02-26.81,21.16-42.51ZM1353.26,622.02c.69,4.52,6.49,4.06,7.15,8.06,2.68,2.77.78,8.03,1.99,11.48.06,1.85,1.59,4.77,1.52,6.55-5.59-5.29-12.36-18.39-10.65-26.1ZM1416.56,647.43q.93-5.02,3.14-18.24c2.82-3.83,5.22-1.35,6.76-6.41.15-.49.81-.44.89.07,1.81,11.7-9.06,22.89-10.79,24.59Z" fill="#a69ebf" stroke-width="0"/><path d="M1433.09,613.81c-2-6.26-9.7-9.26-14.69-5.09-2.77-10.75-60.93-12.74-62.44.68-4.72-5.55-14.92-1.23-15.72,6.1-2.18,10.35,5.96,26.57,12.61,33.36,0,0,7.93,8.38,16.88,12.44,1.69,1.68,3.55,3.4,5.96,4.76-.29,1.66,1.25,3.51,2.12,3.98,3.56,4.29-1.43,10.8-6.14,10.56-6.4.34-8.34,9.6-9.76,16.36-2.87,13.92,21.24,7.16,28.92,8.92,7.43-.96,17.4,1.79,20.81-3.39,3.12-4.3-1.88-21.59-9.48-21.89-.57-1.1-.91-2.18-2.78-2.52-1.85-.56-4.02-3.05-4.43-4.61-1.07-3.59,3.17-3.87,2.79-7.35,2.14-1.13,4.2-2.63,6.27-4.57,1.02,1.13,2.4,1.76,3.89,1.76,3.62,0,5.71-3.46,4.02-6.99,11.76-7.47,26.02-26.81,21.16-42.51ZM1350.1,618.61c.69,4.52,6.49,4.06,7.15,8.06,2.68,2.77.78,8.03,1.99,11.48.06,1.85,1.59,4.77,1.52,6.55-5.59-5.29-12.36-18.39-10.65-26.1ZM1413.4,644.03q.93-5.02,3.14-18.24c2.82-3.83,5.22-1.35,6.76-6.41.15-.49.81-.44.89.07,1.81,11.7-9.06,22.89-10.79,24.59Z" fill="#b6790a" stroke-width="0"/><path d="M1389.98,668.55c-3.17-.89,3.11-3.83,3.12-1.43-.22.9-1.26.54-1.85.79-.41.29-.88.69-1.27.64Z" fill="#e7b023" stroke-width="0"/><path d="M1385.52,693.37c-7.75-2.43,14.62-1.61,16.16-2.08,4.42-.44.61-5.24,1.71-8.03.99,1.39,1.76,3.28,2.46,5.09.31.81.05,1.75-.59,2.22-1.08.8-1.79,2.08-3.27,1.72-5.19-.64-11.21.54-16.47,1.09Z" fill="#e7b023" stroke-width="0"/><path d="M1399.01,681.18c-3.04-2.53-7.79-4.33-7.89-9.28-.01-.72-.42-1.36-1.05-1.62-4.08-1.64-2.58,9.44-5.6,12.08-.47.41-.39,1.22.15,1.51,1.95,1.03,7.16.34,10.35-.81.71-.26,1.13.83.47,1.2-6.23,3.49-23.86.11-12.06,2.85,12.5,6.67,8.63.76,16.09-.06-.36.72-.36,2.62.75,1.56,1.2-1.36.36-2.96.28-4.48-.06-1.17-.62-2.24-1.48-2.96Z" fill="#e7b023" stroke-width="0"/><path d="M1353.03,643.87c-.08-.03-.15-.08-.21-.15-5.05-5.97-8.24-13.53-9.02-21.35l.27-.1c1.75,7.34,5.38,14.61,9.51,20.79.28.42-.1.97-.56.81h0Z" fill="#e7b023" stroke-width="0"/><path d="M1355.5,617.34c-2.22-.3-2.02-4.03-3.61-5.72-.19-.21-.45-.33-.72-.37-11.81-1.95,6.26-6.74,4.33,6.09Z" fill="#e7b023" stroke-width="0"/><path d="M1362.22,619.54c-8-6.88,14.02-6.96,3.94-3.41-.47,1.15-2.58.75-2.76,2.09.09.74-.43,1.37-1.18,1.32Z" fill="#e7b023" stroke-width="0"/><path d="M1365.45,699.94c-.71,3.22,3.5,2.31,5.31,2.52,12.43-.31,24.75,2.01,36.87-1.24.39-.1.73-.36.95-.71,1.38-2.21-.37-6.49-3.18-6.39-6.14.85-12.28,1.75-18.54,1.04-5.26-.28-10.53-.56-15.79-.83-5.1-1.13-4.83,1.09-5.62,5.62Z" fill="#e7b023" stroke-width="0"/><path d="M1420.3,612.54c-1.3,2.7-1.3,6.24-5.36,5.71-1.07-.14-1.61-1.47-.98-2.4,2.26-3.36,3.44-5.55,1.74-7.57-7.91-9.41-48.87-5.34-52.02-4.02-2.72.83-3.64,2.02-4.31,2.65-6.52,6.1,33.81,4.84,29.72,8.18,4.82,14.4-6.59,25.83-11.76,38-2.16,25.01,36.94,9.81,35.78-23.62-.07-1.92.39-3.83,1.33-5.47.68-1.19,1.77-2.5,3.76-3.1.95-.29,1.71-1.03,2.07-2.01.8-2.19,1.36-5,3.47-4.53.97.22,1.74,1.02,2.08,2.02,4.33,12.93-7.09,25.43-14.41,34.41,10.32-3.72,28.55-33.84,14.47-40.33-2.09-.97-4.52-.07-5.57,2.11Z" fill="#e7b023" stroke-width="0"/><path d="M1362.17,608.49c.22.31.6.39.95.46,3.9.71,7.8,1.42,11.75,1.66,6.19.38,12.4-.41,18.58.1,5.53.46,11.16,1.94,16.54.51.9-.24,1.92-.72,2.09-1.69.12-.67-.23-1.36-.73-1.77s-1.13-.61-1.75-.76c-2.03-.5-4.12-.67-6.2-.81-5.86-.39-11.72-.57-17.59-.52-5.87.05-11.73.32-17.58.81-1.32.11-2.64.32-3.95.44-.57.05-1.24-.15-1.74.2-.35.24-.75.96-.37,1.37Z" fill="#b6790a" stroke-width="0"/></g></svg>